<svg width="1920" height="184" viewBox="0 0 1920 184" fill="none" xmlns="http://www.w3.org/2000/svg">
<g clip-path="url(#clip0_63_1282)">
<path fill-rule="evenodd" clip-rule="evenodd" d="M12.6302 25.1997H45.1802L-71.9697 50.4497H-108.72L12.6302 25.1997Z" fill="#9C9C9C"/>
<path fill-rule="evenodd" clip-rule="evenodd" d="M77.7202 25.1997H110.26L1.53027 50.4497H-35.2197L77.7202 25.1997Z" fill="#8A8989"/>
<path fill-rule="evenodd" clip-rule="evenodd" d="M-35.2199 50.4497H1.53009L-139.47 83.2097H-181.67L-35.2199 50.4497Z" fill="#979797"/>
<path fill-rule="evenodd" clip-rule="evenodd" d="M110.26 25.1997H142.81L38.2803 50.4497H1.53027L110.26 25.1997Z" fill="#979797"/>
<path fill-rule="evenodd" clip-rule="evenodd" d="M1.53027 50.4497H38.2803L-97.2698 83.2097H-139.47L1.53027 50.4497Z" fill="#8A8989"/>
<path fill-rule="evenodd" clip-rule="evenodd" d="M142.81 25.1997H175.35L75.0203 50.4497H38.2803L142.81 25.1997Z" fill="#858585"/>
<path fill-rule="evenodd" clip-rule="evenodd" d="M38.2805 50.4497H75.0305L-55.0695 83.2097H-97.2695L38.2805 50.4497Z" fill="#757575"/>
<path fill-rule="evenodd" clip-rule="evenodd" d="M75.0297 50.4497H111.77L-12.8703 83.2097H-55.0703L75.0297 50.4497Z" fill="#858585"/>
<path fill-rule="evenodd" clip-rule="evenodd" d="M207.89 25.1997H240.439L148.52 50.4497H111.77L207.89 25.1997Z" fill="#9C9C9C"/>
<path fill-rule="evenodd" clip-rule="evenodd" d="M111.77 50.4497H148.52L29.3299 83.2097H-12.8701L111.77 50.4497Z" fill="#8A8989"/>
<path fill-rule="evenodd" clip-rule="evenodd" d="M240.439 25.1997H272.979L185.27 50.4497H148.52L240.439 25.1997Z" fill="#8A8989"/>
<path fill-rule="evenodd" clip-rule="evenodd" d="M29.3304 83.21H71.5304L-81.8397 127.37H-131.39L29.3304 83.21Z" fill="#8A8989"/>
<path fill-rule="evenodd" clip-rule="evenodd" d="M148.52 50.4497H185.27L71.5301 83.2097H29.3301L148.52 50.4497Z" fill="#757575"/>
<path fill-rule="evenodd" clip-rule="evenodd" d="M272.979 25.1997H305.52L222.02 50.4497H185.27L272.979 25.1997Z" fill="#858585"/>
<path fill-rule="evenodd" clip-rule="evenodd" d="M71.5302 83.21H113.73L-32.2898 127.37H-81.8398L71.5302 83.21Z" fill="#979797"/>
<path fill-rule="evenodd" clip-rule="evenodd" d="M231.78 37.0601H266.3L113.73 83.2101H71.5303L231.78 37.0601Z" fill="#979797"/>
<path fill-rule="evenodd" clip-rule="evenodd" d="M305.52 25.1997H338.06L258.76 50.4497H222.02L305.52 25.1997Z" fill="#8A8989"/>
<path fill-rule="evenodd" clip-rule="evenodd" d="M222.021 50.4497H258.76L155.93 83.2097H113.73L222.021 50.4497Z" fill="#8A8989"/>
<path fill-rule="evenodd" clip-rule="evenodd" d="M-32.2899 127.37H17.2701L-179.91 190.17H-239.92L-32.2899 127.37Z" fill="#9C9C9C"/>
<path fill-rule="evenodd" clip-rule="evenodd" d="M338.06 25.1997H370.61L295.51 50.4497H258.76L338.06 25.1997Z" fill="#757575"/>
<path fill-rule="evenodd" clip-rule="evenodd" d="M155.93 83.21H198.13L66.8198 127.37H17.2598L155.93 83.21Z" fill="#8A8989"/>
<path fill-rule="evenodd" clip-rule="evenodd" d="M258.76 50.4497H295.51L198.13 83.2097H155.93L258.76 50.4497Z" fill="#979797"/>
<path fill-rule="evenodd" clip-rule="evenodd" d="M17.2698 127.37H66.8198L-119.91 190.17H-179.91L17.2698 127.37Z" fill="#8A8989"/>
<path fill-rule="evenodd" clip-rule="evenodd" d="M370.61 25.1997H403.15L332.26 50.4497H295.51L370.61 25.1997Z" fill="#9C9C9C"/>
<path fill-rule="evenodd" clip-rule="evenodd" d="M198.13 83.21H240.33L116.37 127.37H66.8203L198.13 83.21Z" fill="#979797"/>
<path fill-rule="evenodd" clip-rule="evenodd" d="M295.51 50.4497H332.26L183.32 103.52H137.74L295.51 50.4497Z" fill="#8A8989"/>
<path fill-rule="evenodd" clip-rule="evenodd" d="M66.8198 127.37H116.37L-59.9002 190.17H-119.91L66.8198 127.37Z" fill="#8A8989"/>
<path fill-rule="evenodd" clip-rule="evenodd" d="M403.15 25.1997H435.69L369.01 50.4497H332.26L403.15 25.1997Z" fill="#979797"/>
<path fill-rule="evenodd" clip-rule="evenodd" d="M240.33 83.21H282.53L165.92 127.37H116.37L240.33 83.21Z" fill="#8A8989"/>
<path fill-rule="evenodd" clip-rule="evenodd" d="M332.26 50.4497H369.01L282.53 83.2097H240.33L332.26 50.4497Z" fill="#979797"/>
<path fill-rule="evenodd" clip-rule="evenodd" d="M116.37 127.37H165.92L0.109619 190.17H-59.9004L116.37 127.37Z" fill="#979797"/>
<path fill-rule="evenodd" clip-rule="evenodd" d="M435.69 25.1997H468.24L405.75 50.4497H369.01L435.69 25.1997Z" fill="#858585"/>
<path fill-rule="evenodd" clip-rule="evenodd" d="M565.87 25.1997H598.41L552.75 50.4497H516L565.87 25.1997Z" fill="#9C9C9C"/>
<path fill-rule="evenodd" clip-rule="evenodd" d="M696.04 25.1997H728.58L699.74 50.4497H662.99L696.04 25.1997Z" fill="#8A8989"/>
<path fill-rule="evenodd" clip-rule="evenodd" d="M620.13 83.21H662.33L611.9 127.37H562.34L620.13 83.21Z" fill="#8A8989"/>
<path fill-rule="evenodd" clip-rule="evenodd" d="M826.21 25.1997H858.75L846.73 50.4497H809.98L826.21 25.1997Z" fill="#979797"/>
<path fill-rule="evenodd" clip-rule="evenodd" d="M369.01 50.4497H405.76L324.73 83.2097H282.53L369.01 50.4497Z" fill="#757575"/>
<path fill-rule="evenodd" clip-rule="evenodd" d="M165.92 127.37H215.48L60.1204 190.17H0.110352L165.92 127.37Z" fill="#757575"/>
<path fill-rule="evenodd" clip-rule="evenodd" d="M516 50.4497H552.75L493.53 83.2097H451.33L516 50.4497Z" fill="#8A8989"/>
<path fill-rule="evenodd" clip-rule="evenodd" d="M364.13 127.37H413.69L300.15 190.17H240.14L364.13 127.37Z" fill="#8A8989"/>
<path fill-rule="evenodd" clip-rule="evenodd" d="M680.52 37.0601H715.03L662.33 83.2101H620.13L680.52 37.0601Z" fill="#9C9C9C"/>
<path fill-rule="evenodd" clip-rule="evenodd" d="M562.34 127.37H611.9L540.18 190.17H480.17L562.34 127.37Z" fill="#757575"/>
<path fill-rule="evenodd" clip-rule="evenodd" d="M809.98 50.4497H846.73L831.13 83.2097H788.93L809.98 50.4497Z" fill="#8A8989"/>
<path fill-rule="evenodd" clip-rule="evenodd" d="M760.55 127.37H810.11L780.21 190.17H720.2L760.55 127.37Z" fill="#8A8989"/>
<path fill-rule="evenodd" clip-rule="evenodd" d="M468.24 25.1997H500.78L442.5 50.4497H405.75L468.24 25.1997Z" fill="#8A8989"/>
<path fill-rule="evenodd" clip-rule="evenodd" d="M324.73 83.21H366.931L265.031 127.37H215.48L324.73 83.21Z" fill="#858585"/>
<path fill-rule="evenodd" clip-rule="evenodd" d="M598.41 25.1997H630.95L589.49 50.4497H552.75L598.41 25.1997Z" fill="#757575"/>
<path fill-rule="evenodd" clip-rule="evenodd" d="M493.53 83.21H535.729L463.24 127.37H413.689L493.53 83.21Z" fill="#979797"/>
<path fill-rule="evenodd" clip-rule="evenodd" d="M728.58 25.1997H761.12L736.48 50.4497H699.74L728.58 25.1997Z" fill="#757575"/>
<path fill-rule="evenodd" clip-rule="evenodd" d="M858.75 25.1997H891.291L883.47 50.4497H846.73L858.75 25.1997Z" fill="#979797"/>
<path fill-rule="evenodd" clip-rule="evenodd" d="M831.13 83.21H873.33L859.66 127.37H810.11L831.13 83.21Z" fill="#8A8989"/>
<path fill-rule="evenodd" clip-rule="evenodd" d="M405.76 50.4497H442.5L366.931 83.2097H324.73L405.76 50.4497Z" fill="#858585"/>
<path fill-rule="evenodd" clip-rule="evenodd" d="M215.48 127.37H265.03L120.13 190.17H60.1201L215.48 127.37Z" fill="#8A8989"/>
<path fill-rule="evenodd" clip-rule="evenodd" d="M552.75 50.4497H589.49L535.73 83.2097H493.53L552.75 50.4497Z" fill="#979797"/>
<path fill-rule="evenodd" clip-rule="evenodd" d="M413.69 127.37H463.24L360.15 190.17H300.15L413.69 127.37Z" fill="#8A8989"/>
<path fill-rule="evenodd" clip-rule="evenodd" d="M699.74 50.4497H736.48L704.53 83.2097H662.33L699.74 50.4497Z" fill="#8A8989"/>
<path fill-rule="evenodd" clip-rule="evenodd" d="M611.9 127.37H661.45L600.18 190.17H540.18L611.9 127.37Z" fill="#979797"/>
<path fill-rule="evenodd" clip-rule="evenodd" d="M846.73 50.4497H883.47L873.33 83.2097H831.13L846.73 50.4497Z" fill="#979797"/>
<path fill-rule="evenodd" clip-rule="evenodd" d="M810.11 127.37H859.66L840.21 190.17H780.21L810.11 127.37Z" fill="#979797"/>
<path fill-rule="evenodd" clip-rule="evenodd" d="M500.78 25.1997H533.32L479.25 50.4497H442.5L500.78 25.1997Z" fill="#8A8989"/>
<path fill-rule="evenodd" clip-rule="evenodd" d="M366.93 83.21H409.13L314.58 127.37H265.03L366.93 83.21Z" fill="#757575"/>
<path fill-rule="evenodd" clip-rule="evenodd" d="M630.95 25.1997H663.49L626.24 50.4497H589.49L630.95 25.1997Z" fill="#8A8989"/>
<path fill-rule="evenodd" clip-rule="evenodd" d="M535.73 83.21H577.93L512.79 127.37H463.24L535.73 83.21Z" fill="#9C9C9C"/>
<path fill-rule="evenodd" clip-rule="evenodd" d="M761.12 25.1997H793.671L773.23 50.4497H736.48L761.12 25.1997Z" fill="#9C9C9C"/>
<path fill-rule="evenodd" clip-rule="evenodd" d="M704.53 83.21H746.73L711 127.37H661.45L704.53 83.21Z" fill="#8A8989"/>
<path fill-rule="evenodd" clip-rule="evenodd" d="M891.29 25.1997H923.84L920.22 50.4497H883.47L891.29 25.1997Z" fill="#9C9C9C"/>
<path fill-rule="evenodd" clip-rule="evenodd" d="M873.33 83.21H915.53L909.21 127.37H859.66L873.33 83.21Z" fill="#9C9C9C"/>
<path fill-rule="evenodd" clip-rule="evenodd" d="M442.5 50.4497H479.25L409.13 83.2097H366.93L442.5 50.4497Z" fill="#8A8989"/>
<path fill-rule="evenodd" clip-rule="evenodd" d="M265.03 127.37H314.58L180.13 190.17H120.13L265.03 127.37Z" fill="#757575"/>
<path fill-rule="evenodd" clip-rule="evenodd" d="M589.49 50.4497H626.24L577.931 83.2097H535.73L589.49 50.4497Z" fill="#858585"/>
<path fill-rule="evenodd" clip-rule="evenodd" d="M463.24 127.37H512.79L420.16 190.17H360.15L463.24 127.37Z" fill="#9C9C9C"/>
<path fill-rule="evenodd" clip-rule="evenodd" d="M736.48 50.4497H773.23L746.73 83.2097H704.53L736.48 50.4497Z" fill="#979797"/>
<path fill-rule="evenodd" clip-rule="evenodd" d="M661.45 127.37H711L660.19 190.17H600.18L661.45 127.37Z" fill="#8A8989"/>
<path fill-rule="evenodd" clip-rule="evenodd" d="M883.47 50.4497H920.22L915.53 83.2097H873.33L883.47 50.4497Z" fill="#9C9C9C"/>
<path fill-rule="evenodd" clip-rule="evenodd" d="M859.66 127.37H909.21L900.22 190.17H840.21L859.66 127.37Z" fill="#8A8989"/>
<path fill-rule="evenodd" clip-rule="evenodd" d="M409.13 83.21H451.33L364.13 127.37H314.58L409.13 83.21Z" fill="#8A8989"/>
<path fill-rule="evenodd" clip-rule="evenodd" d="M663.49 25.1997H696.04L662.99 50.4497H626.24L663.49 25.1997Z" fill="#979797"/>
<path fill-rule="evenodd" clip-rule="evenodd" d="M577.93 83.21H620.13L562.34 127.37H512.79L577.93 83.21Z" fill="#858585"/>
<path fill-rule="evenodd" clip-rule="evenodd" d="M793.671 25.1997H826.21L809.98 50.4497H773.23L793.671 25.1997Z" fill="#8A8989"/>
<path fill-rule="evenodd" clip-rule="evenodd" d="M746.73 83.21H788.93L760.55 127.37H711L746.73 83.21Z" fill="#757575"/>
<path fill-rule="evenodd" clip-rule="evenodd" d="M923.84 25.1997H956.38L956.97 50.4497H920.22L923.84 25.1997Z" fill="#858585"/>
<path fill-rule="evenodd" clip-rule="evenodd" d="M915.53 83.21H957.73L958.76 127.37H909.21L915.53 83.21Z" fill="#8A8989"/>
<path fill-rule="evenodd" clip-rule="evenodd" d="M314.58 127.37H364.14L240.14 190.17H180.13L314.58 127.37Z" fill="#858585"/>
<path fill-rule="evenodd" clip-rule="evenodd" d="M626.24 50.4497H662.99L620.13 83.2097H577.93L626.24 50.4497Z" fill="#858585"/>
<path fill-rule="evenodd" clip-rule="evenodd" d="M512.79 127.37H562.34L480.17 190.17H420.16L512.79 127.37Z" fill="#8A8989"/>
<path fill-rule="evenodd" clip-rule="evenodd" d="M784.07 37.0601H818.59L788.931 83.2101H746.73L784.07 37.0601Z" fill="#757575"/>
<path fill-rule="evenodd" clip-rule="evenodd" d="M711 127.37H760.55L720.199 190.17H660.189L711 127.37Z" fill="#979797"/>
<path fill-rule="evenodd" clip-rule="evenodd" d="M920.22 50.4497H956.97L957.73 83.2097H915.53L920.22 50.4497Z" fill="#8A8989"/>
<path fill-rule="evenodd" clip-rule="evenodd" d="M909.21 127.37H958.76L960.23 190.17H900.22L909.21 127.37Z" fill="#757575"/>
<path fill-rule="evenodd" clip-rule="evenodd" d="M45.1801 25.1997H77.72L-103.39 65.6997H-142.67L45.1801 25.1997Z" fill="#757575"/>
<path fill-rule="evenodd" clip-rule="evenodd" d="M-12.8701 83.21H29.33L-234.76 155.77H-289.04L-12.8701 83.21Z" fill="#979797"/>
<path fill-rule="evenodd" clip-rule="evenodd" d="M788.93 83.21H831.13L796.58 155.77H742.3L788.93 83.21Z" fill="#858585"/>
<path fill-rule="evenodd" clip-rule="evenodd" d="M662.33 83.21H704.53L633.74 155.77H579.46L662.33 83.21Z" fill="#979797"/>
<path fill-rule="evenodd" clip-rule="evenodd" d="M171.61 65.6997H210.9L17.2599 127.37H-32.29L171.61 65.6997Z" fill="#757575"/>
<path fill-rule="evenodd" clip-rule="evenodd" d="M479.25 50.4497H516L411.23 103.52H365.65L479.25 50.4497Z" fill="#979797"/>
<path fill-rule="evenodd" clip-rule="evenodd" d="M175.35 25.1997H207.89L53.7598 65.6997H14.4697L175.35 25.1997Z" fill="#8A8989"/>
<path fill-rule="evenodd" clip-rule="evenodd" d="M451.33 83.21H493.53L362.33 155.77H308.05L451.33 83.21Z" fill="#858585"/>
<path fill-rule="evenodd" clip-rule="evenodd" d="M328.76 65.6997H368.04L215.48 127.37H165.92L328.76 65.6997Z" fill="#9C9C9C"/>
<path fill-rule="evenodd" clip-rule="evenodd" d="M533.32 25.1997H565.87L485.9 65.6997H446.61L533.32 25.1997Z" fill="#858585"/>
<path fill-rule="evenodd" clip-rule="evenodd" d="M2059.4 50.4497H2022.66L1900.13 25.1997H1932.67L2059.4 50.4497Z" fill="#8A8989"/>
<path fill-rule="evenodd" clip-rule="evenodd" d="M2022.66 50.4497H1985.91L1867.59 25.1997H1900.13L2022.66 50.4497Z" fill="#757575"/>
<path fill-rule="evenodd" clip-rule="evenodd" d="M1985.91 50.4497H1949.16L1835.04 25.1997H1867.59L1985.91 50.4497Z" fill="#9C9C9C"/>
<path fill-rule="evenodd" clip-rule="evenodd" d="M2097.14 83.2097H2054.94L1912.41 50.4497H1949.16L2097.14 83.2097Z" fill="#979797"/>
<path fill-rule="evenodd" clip-rule="evenodd" d="M2054.94 83.2097H2012.74L1875.66 50.4497H1912.41L2054.94 83.2097Z" fill="#8A8989"/>
<path fill-rule="evenodd" clip-rule="evenodd" d="M1912.41 50.4497H1875.66L1769.96 25.1997H1802.5L1912.41 50.4497Z" fill="#8A8989"/>
<path fill-rule="evenodd" clip-rule="evenodd" d="M2012.74 83.2097H1970.54L1838.92 50.4497H1875.66L2012.74 83.2097Z" fill="#858585"/>
<path fill-rule="evenodd" clip-rule="evenodd" d="M1875.66 50.4497H1838.92L1737.41 25.1997H1769.96L1875.66 50.4497Z" fill="#858585"/>
<path fill-rule="evenodd" clip-rule="evenodd" d="M1970.54 83.2097H1928.34L1802.17 50.4497H1838.92L1970.54 83.2097Z" fill="#9C9C9C"/>
<path fill-rule="evenodd" clip-rule="evenodd" d="M1838.92 50.4497H1802.17L1704.87 25.1997H1737.41L1838.92 50.4497Z" fill="#979797"/>
<path fill-rule="evenodd" clip-rule="evenodd" d="M2098.48 127.37H2048.92L1886.14 83.21H1928.34L2098.48 127.37Z" fill="#8A8989"/>
<path fill-rule="evenodd" clip-rule="evenodd" d="M1802.17 50.4497H1765.42L1672.33 25.1997H1704.87L1802.17 50.4497Z" fill="#8A8989"/>
<path fill-rule="evenodd" clip-rule="evenodd" d="M1886.14 83.2097H1843.94L1728.67 50.4497H1765.42L1886.14 83.2097Z" fill="#8A8989"/>
<path fill-rule="evenodd" clip-rule="evenodd" d="M2048.92 127.37H1999.37L1843.94 83.21H1886.14L2048.92 127.37Z" fill="#757575"/>
<path fill-rule="evenodd" clip-rule="evenodd" d="M1765.42 50.4497H1728.67L1639.78 25.1997H1672.33L1765.42 50.4497Z" fill="#757575"/>
<path fill-rule="evenodd" clip-rule="evenodd" d="M1843.94 83.2097H1801.74L1691.92 50.4497H1728.67L1843.94 83.2097Z" fill="#979797"/>
<path fill-rule="evenodd" clip-rule="evenodd" d="M2099.33 155.77H2045.05L1801.74 83.21H1843.94L2099.33 155.77Z" fill="#979797"/>
<path fill-rule="evenodd" clip-rule="evenodd" d="M1728.67 50.4497H1691.93L1607.24 25.1997H1639.78L1728.67 50.4497Z" fill="#8A8989"/>
<path fill-rule="evenodd" clip-rule="evenodd" d="M2160.38 190.17H2100.37L1900.26 127.37H1949.82L2160.38 190.17Z" fill="#8A8989"/>
<path fill-rule="evenodd" clip-rule="evenodd" d="M1949.82 127.37H1900.26L1759.54 83.21H1801.74L1949.82 127.37Z" fill="#8A8989"/>
<path fill-rule="evenodd" clip-rule="evenodd" d="M1691.93 50.4497H1655.18L1574.7 25.1997H1607.24L1691.93 50.4497Z" fill="#9C9C9C"/>
<path fill-rule="evenodd" clip-rule="evenodd" d="M2100.37 190.17H2040.36L1850.71 127.37H1900.26L2100.37 190.17Z" fill="#757575"/>
<path fill-rule="evenodd" clip-rule="evenodd" d="M1759.54 83.2097H1717.34L1618.43 50.4497H1655.18L1759.54 83.2097Z" fill="#8A8989"/>
<path fill-rule="evenodd" clip-rule="evenodd" d="M1900.26 127.37H1850.71L1717.34 83.21H1759.54L1900.26 127.37Z" fill="#979797"/>
<path fill-rule="evenodd" clip-rule="evenodd" d="M1655.18 50.4497H1618.43L1542.16 25.1997H1574.7L1655.18 50.4497Z" fill="#8A8989"/>
<path fill-rule="evenodd" clip-rule="evenodd" d="M2040.36 190.17H1980.36L1801.16 127.37H1850.71L2040.36 190.17Z" fill="#9C9C9C"/>
<path fill-rule="evenodd" clip-rule="evenodd" d="M1717.34 83.2097H1675.14L1581.68 50.4497H1618.43L1717.34 83.2097Z" fill="#979797"/>
<path fill-rule="evenodd" clip-rule="evenodd" d="M1850.71 127.37H1801.16L1625.18 65.6997H1664.47L1850.71 127.37Z" fill="#8A8989"/>
<path fill-rule="evenodd" clip-rule="evenodd" d="M1618.43 50.4497H1581.68L1509.61 25.1997H1542.16L1618.43 50.4497Z" fill="#8A8989"/>
<path fill-rule="evenodd" clip-rule="evenodd" d="M1980.36 190.17H1920.35L1751.6 127.37H1801.16L1980.36 190.17Z" fill="#979797"/>
<path fill-rule="evenodd" clip-rule="evenodd" d="M1675.14 83.2097H1632.94L1544.93 50.4497H1581.68L1675.14 83.2097Z" fill="#8A8989"/>
<path fill-rule="evenodd" clip-rule="evenodd" d="M1801.16 127.37H1751.6L1632.94 83.21H1675.14L1801.16 127.37Z" fill="#979797"/>
<path fill-rule="evenodd" clip-rule="evenodd" d="M1581.68 50.4497H1544.93L1477.07 25.1997H1509.61L1581.68 50.4497Z" fill="#979797"/>
<path fill-rule="evenodd" clip-rule="evenodd" d="M1920.35 190.17H1860.34L1702.05 127.37H1751.6L1920.35 190.17Z" fill="#858585"/>
<path fill-rule="evenodd" clip-rule="evenodd" d="M1680.32 190.17H1620.31L1503.84 127.37H1553.39L1680.32 190.17Z" fill="#9C9C9C"/>
<path fill-rule="evenodd" clip-rule="evenodd" d="M1440.29 190.17H1380.28L1305.63 127.37H1355.18L1440.29 190.17Z" fill="#8A8989"/>
<path fill-rule="evenodd" clip-rule="evenodd" d="M1295.34 83.2097H1253.13L1214.2 50.4497H1250.95L1295.34 83.2097Z" fill="#8A8989"/>
<path fill-rule="evenodd" clip-rule="evenodd" d="M1200.26 190.17H1140.25L1107.42 127.37H1156.98L1200.26 190.17Z" fill="#979797"/>
<path fill-rule="evenodd" clip-rule="evenodd" d="M1751.6 127.37H1702.05L1590.74 83.21H1632.94L1751.6 127.37Z" fill="#858585"/>
<path fill-rule="evenodd" clip-rule="evenodd" d="M1544.93 50.4497H1508.19L1444.53 25.1997H1477.07L1544.93 50.4497Z" fill="#757575"/>
<path fill-rule="evenodd" clip-rule="evenodd" d="M1553.39 127.37H1503.84L1421.94 83.21H1464.14L1553.39 127.37Z" fill="#858585"/>
<path fill-rule="evenodd" clip-rule="evenodd" d="M1397.94 50.4497H1361.19L1314.35 25.1997H1346.9L1397.94 50.4497Z" fill="#8A8989"/>
<path fill-rule="evenodd" clip-rule="evenodd" d="M1393.68 155.77H1339.39L1253.14 83.21H1295.34L1393.68 155.77Z" fill="#8A8989"/>
<path fill-rule="evenodd" clip-rule="evenodd" d="M1250.95 50.4497H1214.2L1184.18 25.1997H1216.73L1250.95 50.4497Z" fill="#757575"/>
<path fill-rule="evenodd" clip-rule="evenodd" d="M1156.98 127.37H1107.42L1084.34 83.21H1126.54L1156.98 127.37Z" fill="#8A8989"/>
<path fill-rule="evenodd" clip-rule="evenodd" d="M1103.96 50.4497H1067.21L1054.01 25.1997H1086.55L1103.96 50.4497Z" fill="#8A8989"/>
<path fill-rule="evenodd" clip-rule="evenodd" d="M1860.34 190.17H1800.33L1652.5 127.37H1702.05L1860.34 190.17Z" fill="#757575"/>
<path fill-rule="evenodd" clip-rule="evenodd" d="M1590.74 83.2097H1548.53L1471.44 50.4497H1508.18L1590.74 83.2097Z" fill="#858585"/>
<path fill-rule="evenodd" clip-rule="evenodd" d="M1620.31 190.17H1560.3L1454.29 127.37H1503.84L1620.31 190.17Z" fill="#757575"/>
<path fill-rule="evenodd" clip-rule="evenodd" d="M1421.93 83.2097H1379.73L1324.45 50.4497H1361.19L1421.93 83.2097Z" fill="#979797"/>
<path fill-rule="evenodd" clip-rule="evenodd" d="M1380.28 190.17H1320.27L1256.08 127.37H1305.63L1380.28 190.17Z" fill="#757575"/>
<path fill-rule="evenodd" clip-rule="evenodd" d="M1140.25 190.17H1080.24L1057.87 127.37H1107.42L1140.25 190.17Z" fill="#979797"/>
<path fill-rule="evenodd" clip-rule="evenodd" d="M1084.34 83.2097H1042.13L1030.47 50.4497H1067.21L1084.34 83.2097Z" fill="#8A8989"/>
<path fill-rule="evenodd" clip-rule="evenodd" d="M1702.05 127.37H1652.5L1548.54 83.21H1590.74L1702.05 127.37Z" fill="#757575"/>
<path fill-rule="evenodd" clip-rule="evenodd" d="M1508.19 50.4497H1471.44L1411.98 25.1997H1444.53L1508.19 50.4497Z" fill="#8A8989"/>
<path fill-rule="evenodd" clip-rule="evenodd" d="M1503.84 127.37H1454.29L1379.74 83.21H1421.94L1503.84 127.37Z" fill="#979797"/>
<path fill-rule="evenodd" clip-rule="evenodd" d="M1361.19 50.4497H1324.45L1281.81 25.1997H1314.35L1361.19 50.4497Z" fill="#8A8989"/>
<path fill-rule="evenodd" clip-rule="evenodd" d="M1305.63 127.37H1256.08L1210.93 83.21H1253.14L1305.63 127.37Z" fill="#8A8989"/>
<path fill-rule="evenodd" clip-rule="evenodd" d="M1214.2 50.4497H1177.46L1151.64 25.1997H1184.18L1214.2 50.4497Z" fill="#858585"/>
<path fill-rule="evenodd" clip-rule="evenodd" d="M1107.42 127.37H1057.87L1042.13 83.21H1084.34L1107.42 127.37Z" fill="#858585"/>
<path fill-rule="evenodd" clip-rule="evenodd" d="M1067.21 50.4497H1030.47L1021.47 25.1997H1054.01L1067.21 50.4497Z" fill="#979797"/>
<path fill-rule="evenodd" clip-rule="evenodd" d="M1800.33 190.17H1740.32L1602.95 127.37H1652.5L1800.33 190.17Z" fill="#8A8989"/>
<path fill-rule="evenodd" clip-rule="evenodd" d="M1548.53 83.2097H1506.33L1434.69 50.4497H1471.44L1548.53 83.2097Z" fill="#757575"/>
<path fill-rule="evenodd" clip-rule="evenodd" d="M1560.3 190.17H1500.29L1404.74 127.37H1454.29L1560.3 190.17Z" fill="#8A8989"/>
<path fill-rule="evenodd" clip-rule="evenodd" d="M1379.73 83.2097H1337.53L1287.7 50.4497H1324.45L1379.73 83.2097Z" fill="#9C9C9C"/>
<path fill-rule="evenodd" clip-rule="evenodd" d="M1320.27 190.17H1260.27L1206.53 127.37H1256.08L1320.27 190.17Z" fill="#9C9C9C"/>
<path fill-rule="evenodd" clip-rule="evenodd" d="M1210.93 83.2097H1168.73L1140.71 50.4497H1177.46L1210.93 83.2097Z" fill="#8A8989"/>
<path fill-rule="evenodd" clip-rule="evenodd" d="M1080.24 190.17H1020.24L1008.32 127.37H1057.87L1080.24 190.17Z" fill="#9C9C9C"/>
<path fill-rule="evenodd" clip-rule="evenodd" d="M1042.13 83.2097H999.93L993.72 50.4497H1030.47L1042.13 83.2097Z" fill="#979797"/>
<path fill-rule="evenodd" clip-rule="evenodd" d="M1652.5 127.37H1602.95L1506.34 83.21H1548.54L1652.5 127.37Z" fill="#8A8989"/>
<path fill-rule="evenodd" clip-rule="evenodd" d="M1471.44 50.4497H1434.69L1379.44 25.1997H1411.98L1471.44 50.4497Z" fill="#757575"/>
<path fill-rule="evenodd" clip-rule="evenodd" d="M1454.29 127.37H1404.74L1337.53 83.21H1379.74L1454.29 127.37Z" fill="#8A8989"/>
<path fill-rule="evenodd" clip-rule="evenodd" d="M1324.45 50.4497H1287.7L1249.27 25.1997H1281.81L1324.45 50.4497Z" fill="#9C9C9C"/>
<path fill-rule="evenodd" clip-rule="evenodd" d="M1256.08 127.37H1206.53L1168.73 83.21H1210.93L1256.08 127.37Z" fill="#979797"/>
<path fill-rule="evenodd" clip-rule="evenodd" d="M1177.46 50.4497H1140.71L1119.1 25.1997H1151.64L1177.46 50.4497Z" fill="#8A8989"/>
<path fill-rule="evenodd" clip-rule="evenodd" d="M1057.87 127.37H1008.32L999.93 83.21H1042.13L1057.87 127.37Z" fill="#9C9C9C"/>
<path fill-rule="evenodd" clip-rule="evenodd" d="M1030.47 50.4497H993.72L988.92 25.1997H1021.47L1030.47 50.4497Z" fill="#8A8989"/>
<path fill-rule="evenodd" clip-rule="evenodd" d="M1506.33 83.2097H1464.13L1397.94 50.4497H1434.69L1506.33 83.2097Z" fill="#8A8989"/>
<path fill-rule="evenodd" clip-rule="evenodd" d="M1500.29 190.17H1440.29L1355.18 127.37H1404.74L1500.29 190.17Z" fill="#979797"/>
<path fill-rule="evenodd" clip-rule="evenodd" d="M1337.53 83.2097H1295.33L1250.95 50.4497H1287.7L1337.53 83.2097Z" fill="#858585"/>
<path fill-rule="evenodd" clip-rule="evenodd" d="M1260.27 190.17H1200.26L1156.97 127.37H1206.53L1260.27 190.17Z" fill="#8A8989"/>
<path fill-rule="evenodd" clip-rule="evenodd" d="M1168.73 83.2097H1126.53L1103.96 50.4497H1140.71L1168.73 83.2097Z" fill="#9C9C9C"/>
<path fill-rule="evenodd" clip-rule="evenodd" d="M1020.24 190.17H960.23L958.76 127.37H1008.32L1020.24 190.17Z" fill="#858585"/>
<path fill-rule="evenodd" clip-rule="evenodd" d="M999.93 83.2097H957.73L956.97 50.4497H993.72L999.93 83.2097Z" fill="#8A8989"/>
<path fill-rule="evenodd" clip-rule="evenodd" d="M1434.69 50.4497H1397.94L1346.9 25.1997H1379.44L1434.69 50.4497Z" fill="#858585"/>
<path fill-rule="evenodd" clip-rule="evenodd" d="M1404.74 127.37H1355.18L1295.33 83.21H1337.53L1404.74 127.37Z" fill="#858585"/>
<path fill-rule="evenodd" clip-rule="evenodd" d="M1287.7 50.4497H1250.95L1216.72 25.1997H1249.27L1287.7 50.4497Z" fill="#8A8989"/>
<path fill-rule="evenodd" clip-rule="evenodd" d="M1230.83 155.77H1176.55L1126.53 83.21H1168.73L1230.83 155.77Z" fill="#757575"/>
<path fill-rule="evenodd" clip-rule="evenodd" d="M1140.71 50.4497H1103.96L1086.55 25.1997H1119.1L1140.71 50.4497Z" fill="#9C9C9C"/>
<path fill-rule="evenodd" clip-rule="evenodd" d="M1008.32 127.37H958.76L957.73 83.21H999.931L1008.32 127.37Z" fill="#757575"/>
<path fill-rule="evenodd" clip-rule="evenodd" d="M993.72 50.4497H956.97L956.38 25.1997H988.92L993.72 50.4497Z" fill="#757575"/>
<path fill-rule="evenodd" clip-rule="evenodd" d="M1928.34 83.2101H1886.14L1716.05 37.0601H1750.57L1928.34 83.2101Z" fill="#979797"/>
<path fill-rule="evenodd" clip-rule="evenodd" d="M1126.54 83.2101H1084.34L1060.21 37.0601H1094.73L1126.54 83.2101Z" fill="#858585"/>
<path fill-rule="evenodd" clip-rule="evenodd" d="M1253.13 83.2101H1210.93L1163.76 37.0601H1198.28L1253.13 83.2101Z" fill="#979797"/>
<path fill-rule="evenodd" clip-rule="evenodd" d="M2018.04 65.6997H1978.75L1802.5 25.1997H1835.04L2018.04 65.6997Z" fill="#858585"/>
<path fill-rule="evenodd" clip-rule="evenodd" d="M1869.84 103.52H1824.26L1655.18 50.4497H1691.92L1869.84 103.52Z" fill="#757575"/>
<path fill-rule="evenodd" clip-rule="evenodd" d="M1602.95 127.37H1553.39L1428.75 65.6997H1468.04L1602.95 127.37Z" fill="#979797"/>
<path fill-rule="evenodd" clip-rule="evenodd" d="M1464.14 83.2101H1421.93L1336.35 37.0601H1370.87L1464.14 83.2101Z" fill="#858585"/>
<path fill-rule="evenodd" clip-rule="evenodd" d="M1687.52 103.52H1641.93L1508.18 50.4497H1544.93L1687.52 103.52Z" fill="#9C9C9C"/>
<path fill-rule="evenodd" clip-rule="evenodd" d="M1740.32 190.17H1680.32L1505.19 103.52H1550.77L1740.32 190.17Z" fill="#858585"/>
<path fill-rule="evenodd" clip-rule="evenodd" d="M1953.6 0V25.69H-50.5996V0H1953.6Z" fill="#666666"/>
<g style="mix-blend-mode:screen" opacity="0.2">
<path fill-rule="evenodd" clip-rule="evenodd" d="M1953.6 0V2.57001H-50.5996V0H1953.6Z" fill="white"/>
</g>
</g>
<defs>
<clipPath id="clip0_63_1282">
<rect width="1920" height="190" fill="white"/>
</clipPath>
</defs>
</svg>
