<svg width="1762" height="980" viewBox="0 0 1762 980" fill="none" xmlns="http://www.w3.org/2000/svg">
<path d="M148.728 0H1613.27C1707.21 140.101 1762 308.652 1762 490C1762 671.348 1707.21 839.899 1613.27 980H148.728C54.7933 839.899 0 671.348 0 490C0 308.652 54.7933 140.101 148.728 0Z" fill="url(#paint0_linear_53_15)"/>
<path d="M881 707C1224.05 707 1521.29 780.89 1666.8 888.74C1650.75 920.304 1632.86 950.771 1613.26 980H148.739C129.142 950.771 111.248 920.304 95.2002 888.74C240.71 780.89 537.95 707 881 707Z" fill="white"/>
<path d="M318.031 0C470.691 31.8472 666.929 51 881 51C1095.07 51 1291.31 31.8472 1443.97 0H318.031Z" fill="white"/>
<defs>
<linearGradient id="paint0_linear_53_15" x1="0" y1="490" x2="1762" y2="490" gradientUnits="userSpaceOnUse">
<stop stop-color="#D9D8D8"/>
<stop offset="0.5" stop-color="#E5E4E5"/>
<stop offset="1" stop-color="#D9D8D8"/>
</linearGradient>
</defs>
</svg>
