<svg width="198" height="145" viewBox="0 0 198 145" fill="none" xmlns="http://www.w3.org/2000/svg">
<path d="M198 0.100098H0V144.1H198V0.100098Z" fill="#FFD77C"/>
<path d="M31.5415 77.23L33.5715 76L33.5515 82.59L31.5215 83.81L31.5415 77.23Z" fill="#808080"/>
<path d="M25.6307 40.22L27.6607 39L27.5007 88.11L25.4707 89.33L25.6307 40.22Z" fill="#255872"/>
<path d="M26 64.5899L28.03 63.3599V63.8499L26 65.0699V64.5899Z" fill="#114565"/>
<path d="M26 65.0701L28.03 63.8501L28.49 63.9101L26.46 65.1301L26 65.0701Z" fill="#134B6E"/>
<path d="M26.4609 65.1297L28.4909 63.9097L28.4209 87.2597L26.3809 88.4797L26.4609 65.1297Z" fill="#114565"/>
<path d="M26 64.5899L28.03 63.3599L28.5 63.4199L26.46 64.6399L26 64.5899Z" fill="#134B6E"/>
<path d="M33.1506 65.95L35.1806 64.73L35.1706 67.94L33.1406 69.17L33.1506 65.95Z" fill="#808080"/>
<path d="M26.4609 65.1297L28.4909 63.9097L35.1809 64.7297L33.1509 65.9497L26.4609 65.1297Z" fill="#8B8B8B"/>
<path d="M25.4707 89.3299L27.5007 88.1099L74.0907 93.8299L72.0607 95.0499L25.4707 89.3299Z" fill="#28607C"/>
<path d="M26.3809 88.4798L28.4209 87.2598L50.5709 89.9798L48.5409 91.1998L26.3809 88.4798Z" fill="#134B6E"/>
<path d="M48.541 91.2L50.571 89.98V90.46L48.541 91.69V91.2Z" fill="#114565"/>
<path d="M33.1504 65.4597L35.1804 64.2397V64.7297L33.1504 65.9497V65.4597Z" fill="#114565"/>
<path d="M26.4609 64.6399L28.5009 63.4199L35.1809 64.2399L33.1509 65.4599L26.4609 64.6399Z" fill="#134B6E"/>
<path d="M26 64.5898L26.46 64.6398L33.15 65.4598V65.9498L26.46 65.1298L26 65.0698V64.5898Z" fill="#2185C3"/>
<path d="M48.541 91.69L50.571 90.46L51.031 90.52L49.001 91.74L48.541 91.69Z" fill="#134B6E"/>
<path d="M49 91.2598L51.03 90.0298V90.5198L49 91.7398V91.2598Z" fill="#114565"/>
<path d="M48.551 85.8997L50.591 84.6797L50.571 89.9797L48.541 91.1997L48.551 85.8997Z" fill="#808080"/>
<path d="M31.5215 83.8098L33.5515 82.5898L50.5915 84.6798L48.5515 85.8998L31.5215 83.8098Z" fill="#8B8B8B"/>
<path d="M49.01 85.9597L51.05 84.7397L51.03 90.0297L49 91.2597L49.01 85.9597Z" fill="#114565"/>
<path d="M48.5508 85.8997L50.5908 84.6797L51.0508 84.7397L49.0108 85.9597L48.5508 85.8997Z" fill="#134B6E"/>
<path d="M31.541 77.23L33.571 76L47.421 77.7L45.391 78.93L31.541 77.23Z" fill="#151A3B"/>
<path d="M26.5409 41.2898L28.5709 40.0698L28.5009 63.4198L26.4609 64.6398L26.5409 41.2898Z" fill="#114565"/>
<path d="M45.4106 72.0501L47.4406 70.8301L47.4206 77.7001L45.3906 78.9301L45.4106 72.0501Z" fill="#808080"/>
<path d="M33.2104 47.8997L35.2404 46.6797L35.1804 64.2397L33.1504 65.4597L33.2104 47.8997Z" fill="#808080"/>
<path d="M45.4102 72.0501L47.4402 70.8301L50.6302 71.2201L48.6002 72.4401L45.4102 72.0501Z" fill="#151A3B"/>
<path d="M48.6016 72.4397L50.6316 71.2197L51.0916 71.2797L49.0616 72.4997L48.6016 72.4397Z" fill="#151A3B"/>
<path d="M33.1406 69.1699L35.1706 67.9399L50.6406 69.8399L48.6006 71.0699L33.1406 69.1699Z" fill="#8B8B8B"/>
<path d="M48.6016 71.0698L50.6416 69.8398L50.6316 71.2198L48.6016 72.4398V71.0698Z" fill="#808080"/>
<path d="M49.0605 71.1199L51.1005 69.8999L51.0905 71.2799L49.0605 72.4999V71.1199Z" fill="#114565"/>
<path d="M48.6016 71.0698L50.6416 69.8398L51.1016 69.8998L49.0616 71.1198L48.6016 71.0698Z" fill="#134B6E"/>
<path d="M40.3601 55.0501L42.3901 53.8301L42.3601 62.5601L40.3301 63.7801L40.3601 55.0501Z" fill="#131837"/>
<path d="M52.811 72.9597L54.841 71.7397L54.821 78.6097L52.791 79.8297L52.811 72.9597Z" fill="#131837"/>
<path d="M49.0605 72.4998L51.0905 71.2798L54.8405 71.7398L52.8105 72.9598L49.0605 72.4998Z" fill="#151A3B"/>
<path d="M40.3301 63.7801L42.3601 62.5601L50.6601 63.5801L48.6201 64.8001L40.3301 63.7801Z" fill="#151A3B"/>
<path d="M48.6211 64.8001L50.6611 63.5801L51.1211 63.6301L49.0811 64.8501L48.6211 64.8001Z" fill="#151A3B"/>
<path d="M49.0117 85.9597L51.0517 84.7397L68.7217 86.9097L66.6917 88.1297L49.0117 85.9597Z" fill="#8B8B8B"/>
<path d="M49 91.2598L51.03 90.0298L73.18 92.7498L71.15 93.9798L49 91.2598Z" fill="#134B6E"/>
<path d="M48.6511 56.0701L50.6811 54.8501L50.6611 63.5801L48.6211 64.8001L48.6511 56.0701Z" fill="#808080"/>
<path d="M40.3613 55.0501L42.3913 53.8301L50.6813 54.8501L48.6513 56.0701L40.3613 55.0501Z" fill="#8B8B8B"/>
<path d="M49.1101 56.1299L51.1401 54.8999L51.1201 63.6299L49.0801 64.8499L49.1101 56.1299Z" fill="#114565"/>
<path d="M48.6211 64.7998L48.6511 56.0698L49.1111 56.1298L49.0811 64.8498L48.6211 64.7998Z" fill="#2185C3"/>
<path d="M48.6504 56.0701L50.6804 54.8501L51.1404 54.9001L49.1104 56.1301L48.6504 56.0701Z" fill="#134B6E"/>
<path d="M66.7114 81.5398L68.7414 80.3198L68.7214 86.9098L66.6914 88.1298L66.7114 81.5398Z" fill="#131837"/>
<path d="M52.791 79.8299L54.821 78.6099L68.741 80.3199L66.711 81.5399L52.791 79.8299Z" fill="#151A3B"/>
<path d="M49.0801 64.8499L51.1201 63.6299L60.0501 64.7299L58.0101 65.9499L49.0801 64.8499Z" fill="#151A3B"/>
<path d="M33.2109 47.8997L35.2409 46.6797L50.7009 48.5797L48.6709 49.7997L33.2109 47.8997Z" fill="#151A3B"/>
<path d="M48.6699 49.8001L50.6999 48.5801L51.1699 48.6401L49.1299 49.8601L48.6699 49.8001Z" fill="#151A3B"/>
<path d="M49.0605 71.1199L51.1005 69.8999L67.1505 71.8699L65.1205 73.0899L49.0605 71.1199Z" fill="#8B8B8B"/>
<path d="M48.6899 44.01L50.7199 42.79L50.6999 48.58L48.6699 49.8L48.6899 44.01Z" fill="#808080"/>
<path d="M26.541 41.2898L28.571 40.0698L50.721 42.7898L48.691 44.0098L26.541 41.2898Z" fill="#8B8B8B"/>
<path d="M48.6914 43.5298L50.7314 42.2998L50.7214 42.7898L48.6914 44.0098V43.5298Z" fill="#114565"/>
<path d="M49.1509 44.0701L51.1809 42.8501L51.1709 48.6401L49.1309 49.8601L49.1509 44.0701Z" fill="#114565"/>
<path d="M49.1504 43.5799L51.1904 42.3599L51.1804 42.8499L49.1504 44.0699V43.5799Z" fill="#114565"/>
<path d="M48.6914 43.5298L50.7314 42.2998L51.1914 42.3598L49.1514 43.5798L48.6914 43.5298Z" fill="#134B6E"/>
<path d="M65.1311 69.8799L67.1711 68.6499L67.1511 71.8699L65.1211 73.0899L65.1311 69.8799Z" fill="#131837"/>
<path d="M65.1309 69.3899L67.1709 68.1699V68.6499L65.1309 69.8799V69.3899Z" fill="#131837"/>
<path d="M58.0417 57.22L60.0717 56L60.0517 64.73L58.0117 65.95L58.0417 57.22Z" fill="#808080"/>
<path d="M49.1113 56.1299L51.1413 54.8999L60.0713 55.9999L58.0413 57.2199L49.1113 56.1299Z" fill="#8B8B8B"/>
<path d="M71.2304 70.6299L73.2604 69.3999L73.1804 92.7499L71.1504 93.9799L71.2304 70.6299Z" fill="#808080"/>
<path d="M65.1309 69.8799L67.1709 68.6499L73.2609 69.3999L71.2309 70.6299L65.1309 69.8799Z" fill="#8B8B8B"/>
<path d="M65.1309 69.3899L67.1709 68.1699L73.2609 68.9199L71.2309 70.1399L65.1309 69.3899Z" fill="#134B6E"/>
<path d="M71.2305 70.6299L73.2605 69.3999L73.7205 69.4599L71.6905 70.6799L71.2305 70.6299Z" fill="#134B6E"/>
<path d="M71.6914 70.1997L73.7214 68.9697V69.4597L71.6914 70.6797V70.1997Z" fill="#114565"/>
<path d="M71.2305 70.1399L73.2605 68.9199L73.7205 68.9699L71.6905 70.1999L71.2305 70.1399Z" fill="#134B6E"/>
<path d="M71.3005 46.7898L73.3405 45.5698L73.2605 68.9198L71.2305 70.1398L71.3005 46.7898Z" fill="#808080"/>
<path d="M49.1504 44.0701L51.1804 42.8501L73.3404 45.5701L71.3004 46.7901L49.1504 44.0701Z" fill="#8B8B8B"/>
<path d="M72.2205 45.9397L74.2505 44.7197L74.0905 93.8297L72.0605 95.0497L72.2205 45.9397Z" fill="#114565"/>
<path d="M74.0509 46.1599L76.0809 44.9399L75.9209 94.0499L73.8809 95.2799L74.0509 46.1599Z" fill="#255872"/>
<path d="M74.4299 70.5301L76.4599 69.3101V69.8001L74.4199 71.0201L74.4299 70.5301Z" fill="#114565"/>
<path d="M74.8905 71.0801L76.9205 69.8501L76.8405 93.2001L74.8105 94.4301L74.8905 71.0801Z" fill="#114565"/>
<path d="M74.4199 71.0198L76.4599 69.7998L76.9199 69.8498L74.8899 71.0798L74.4199 71.0198Z" fill="#134B6E"/>
<path d="M74.4316 70.5301L76.4616 69.3101L76.9216 69.3701L74.8916 70.5901L74.4316 70.5301Z" fill="#134B6E"/>
<path d="M49.1309 49.8601L51.1709 48.6401L67.2209 50.6101L65.1909 51.8301L49.1309 49.8601Z" fill="#151A3B"/>
<path d="M65.1909 51.8299L67.2209 50.6099L67.1709 68.1699L65.1309 69.3899L65.1909 51.8299Z" fill="#131837"/>
<path d="M82.6906 75.3499L84.7206 74.1299L84.6706 88.6799L82.6406 89.8999L82.6906 75.3499Z" fill="#808080"/>
<path d="M74.8906 71.0801L76.9206 69.8501L83.1706 70.6201L81.1306 71.8401L74.8906 71.0801Z" fill="#8B8B8B"/>
<path d="M81.1309 71.8401L83.1709 70.6201L83.1609 71.6401L81.1309 72.8701V71.8401Z" fill="#808080"/>
<path d="M81.1409 71.3599L83.1709 70.1299V70.6199L81.1309 71.8399L81.1409 71.3599Z" fill="#114565"/>
<path d="M74.8906 70.5901L76.9206 69.3701L83.1706 70.1301L81.1406 71.3601L74.8906 70.5901Z" fill="#134B6E"/>
<path d="M73.8809 95.2798L75.9209 94.0498L122.521 99.7698L120.481 101L73.8809 95.2798Z" fill="#28607C"/>
<path d="M96.9609 97.1499L98.9909 95.9199V96.4099L96.9609 97.6299V97.1499Z" fill="#114565"/>
<path d="M74.8105 94.4297L76.8405 93.1997L98.9906 95.9197L96.9606 97.1497L74.8105 94.4297Z" fill="#134B6E"/>
<path d="M96.9609 97.6297L98.9909 96.4097L99.4509 96.4697L97.4209 97.6897L96.9609 97.6297Z" fill="#134B6E"/>
<path d="M97.4199 97.2L99.4499 95.98V96.47L97.4199 97.69V97.2Z" fill="#114565"/>
<path d="M89.811 81.5799L91.841 80.3599L91.831 83.8599L89.791 85.0799L89.811 81.5799Z" fill="#131837"/>
<path d="M82.6406 89.8997L84.6706 88.6797L99.0106 89.8097L96.9806 91.0297L82.6406 89.8997Z" fill="#8B8B8B"/>
<path d="M96.9809 91.0301L99.0109 89.8101L98.9909 95.9201L96.9609 97.1501L96.9809 91.0301Z" fill="#808080"/>
<path d="M96.9609 97.1498L96.9809 91.0298L97.4409 91.0698L97.4209 97.1998V97.6898L96.9609 97.6298V97.1498Z" fill="#2185C3"/>
<path d="M96.9805 91.0301L99.0105 89.8101L99.4705 89.8401L97.4405 91.0701L96.9805 91.0301Z" fill="#124B6E"/>
<path d="M97.4399 91.0698L99.4699 89.8398L99.4499 95.9798L97.4199 97.1998L97.4399 91.0698Z" fill="#114565"/>
<path d="M25.6309 40.22L27.6609 39L74.2509 44.72L72.2209 45.94L25.6309 40.22Z" fill="#134B6E"/>
<path d="M89.791 85.0799L91.831 83.8599L99.031 84.4699L97.001 85.6999L89.791 85.0799Z" fill="#151A3B"/>
<path d="M97 85.6997L99.03 84.4697L99.49 84.5097L97.46 85.7397L97 85.6997Z" fill="#151A3B"/>
<path d="M74.9606 47.24L77.0006 46.02L76.9206 69.37L74.8906 70.59L74.9606 47.24Z" fill="#114565"/>
<path d="M89.8105 81.5799L91.8405 80.3599L99.0405 81.2399L97.0105 82.4599L89.8105 81.5799Z" fill="#8B8B8B"/>
<path d="M97.01 82.4597L99.04 81.2397L99.03 84.4697L97 85.6997L97.01 82.4597Z" fill="#808080"/>
<path d="M97.4709 82.5198L99.5009 81.2998L99.4909 84.5098L97.4609 85.7398L97.4709 82.5198Z" fill="#114565"/>
<path d="M97.0117 82.4597L99.0417 81.2397L99.5017 81.2997L97.4717 82.5197L97.0117 82.4597Z" fill="#134B6E"/>
<path d="M81.1906 54.0301L83.2306 52.8101L83.1706 70.1301L81.1406 71.3601L81.1906 54.0301Z" fill="#808080"/>
<path d="M87.9612 64.1099L90.0012 62.8799L89.9812 67.2899L87.9512 68.5199L87.9612 64.1099Z" fill="#131837"/>
<path d="M82.6914 75.3499L84.7214 74.1299L99.0614 75.8899L97.0314 77.1099L82.6914 75.3499Z" fill="#151A3B"/>
<path d="M97.0312 77.1101L99.0612 75.8901L99.5212 75.9501L97.4912 77.1701L97.0312 77.1101Z" fill="#151A3B"/>
<path d="M97.4414 91.0698L99.4714 89.8398L108.621 90.5698L106.591 91.7898L97.4414 91.0698Z" fill="#8B8B8B"/>
<path d="M106.59 91.7898L108.62 90.5698V91.6198L106.58 92.8398L106.59 91.7898Z" fill="#808080"/>
<path d="M97.0312 74.8198L99.0712 73.5898L99.0612 75.8898L97.0312 77.1098V74.8198Z" fill="#808080"/>
<path d="M81.1309 72.8701L83.1609 71.6401L99.0709 73.5901L97.0309 74.8201L81.1309 72.8701Z" fill="#8B8B8B"/>
<path d="M87.9512 68.52L89.9812 67.29L96.0412 68.04L94.0112 69.26L87.9512 68.52Z" fill="#151A3B"/>
<path d="M97.0312 77.1098V74.8198L97.4912 74.8698V77.1698L97.0312 77.1098Z" fill="#2185C3"/>
<path d="M97.0312 74.8198L99.0712 73.5898L99.5312 73.6498L97.4912 74.8698L97.0312 74.8198Z" fill="#134B6E"/>
<path d="M97.4902 74.8699L99.5302 73.6499L99.5202 75.9499L97.4902 77.1699V74.8699Z" fill="#114565"/>
<path d="M97.4609 85.7398L99.4909 84.5098L108.641 85.2998L106.601 86.5198L97.4609 85.7398Z" fill="#151A3B"/>
<path d="M87.9905 54.8701L90.0305 53.6401L90.0105 57.7001L87.9805 58.9201L87.9905 54.8701Z" fill="#131837"/>
<path d="M81.1914 54.0301L83.2314 52.8101L90.0314 53.6401L87.9914 54.8701L81.1914 54.0301Z" fill="#151A3B"/>
<path d="M94.0217 64.8499L96.0617 63.6299L96.0417 68.0399L94.0117 69.2599L94.0217 64.8499Z" fill="#808080"/>
<path d="M87.9609 64.1099L90.0009 62.8799L96.0609 63.6299L94.0209 64.8499L87.9609 64.1099Z" fill="#8B8B8B"/>
<path d="M87.9612 64.1099L94.0212 64.8499L94.0112 69.2599L87.9512 68.5199L87.9612 64.1099Z" fill="#F6F6F6"/>
<path d="M97.4902 74.8699L99.5302 73.6499L102.72 74.0399L100.68 75.2699L97.4902 74.8699Z" fill="#8B8B8B"/>
<path d="M100.692 74.24L102.722 73.02V74.04L100.682 75.27L100.692 74.24Z" fill="#131837"/>
<path d="M106.611 83.64L106.601 86.52L97.4609 85.74L97.4709 82.52L106.611 83.64Z" fill="#F6F6F6"/>
<path d="M97.4707 82.5198L99.5007 81.2998L108.651 82.4198L106.611 83.6398L97.4707 82.5198Z" fill="#8B8B8B"/>
<path d="M106.612 83.6399L108.652 82.4199L108.642 85.2999L106.602 86.5199L106.612 83.6399Z" fill="#808080"/>
<path d="M100.691 73.7598L102.721 72.5298V73.0198L100.691 74.2398V73.7598Z" fill="#131837"/>
<path d="M106.58 92.8401L108.62 91.6201L115.71 92.4901L113.68 93.7101L106.58 92.8401Z" fill="#8B8B8B"/>
<path d="M87.9805 58.9197L90.0105 57.6997L96.0705 58.4397L94.0405 59.6697L87.9805 58.9197Z" fill="#151A3B"/>
<path d="M100.711 68.7097L102.741 67.4897L102.721 72.5297L100.691 73.7597L100.711 68.7097Z" fill="#131837"/>
<path d="M97.4199 97.2L99.4499 95.98L121.61 98.7L119.57 99.92L97.4199 97.2Z" fill="#134B6E"/>
<path d="M94.051 55.6101L96.091 54.3901L96.071 58.4401L94.041 59.6701L94.051 55.6101Z" fill="#808080"/>
<path d="M100.691 74.24L102.721 73.02L108.671 73.75L106.641 74.97L100.691 74.24Z" fill="#8B8B8B"/>
<path d="M97.4902 77.1697L99.5202 75.9497L115.76 77.9397L113.73 79.1697L97.4902 77.1697Z" fill="#151A3B"/>
<path d="M106.641 74.97L108.671 73.75V75.94L106.631 77.17L106.641 74.97Z" fill="#808080"/>
<path d="M100.691 74.2398V73.7598L106.641 74.4898V74.9698L100.691 74.2398Z" fill="#2185C3"/>
<path d="M100.691 73.7598L102.721 72.5298L108.681 73.2698L106.641 74.4898L100.691 73.7598Z" fill="#134B6E"/>
<path d="M106.641 74.49L108.681 73.27L108.671 73.75L106.641 74.97V74.49Z" fill="#114565"/>
<path d="M94.0508 55.6101L96.0908 54.3901L99.1308 54.7601L97.1008 55.9801L94.0508 55.6101Z" fill="#151A3B"/>
<path d="M97.1016 55.9798L99.1316 54.7598L99.5916 54.8198L97.5616 56.0398L97.1016 55.9798Z" fill="#151A3B"/>
<path d="M100.711 68.7097L102.741 67.4897L108.691 68.2197L106.661 69.4397L100.711 68.7097Z" fill="#8B8B8B"/>
<path d="M106.661 69.4397L108.691 68.2197L108.681 73.2697L106.641 74.4897L106.661 69.4397Z" fill="#808080"/>
<path d="M106.661 69.44L106.641 74.49L100.691 73.76L100.711 68.71L106.661 69.44Z" fill="#F6F6F6"/>
<path d="M113.732 79.1699L115.762 77.9399L115.712 92.4899L113.682 93.7099L113.732 79.1699Z" fill="#131837"/>
<path d="M106.631 77.1699L108.671 75.9399L115.761 76.8199L113.731 78.0399L106.631 77.1699Z" fill="#8B8B8B"/>
<path d="M97.5605 56.0398L99.5905 54.8198L102.781 55.2098L100.751 56.4298L97.5605 56.0398Z" fill="#151A3B"/>
<path d="M100.75 56.43L102.78 55.21L102.76 61.45L100.73 62.67L100.75 56.43Z" fill="#131837"/>
<path d="M97.1216 49.9597L99.1516 48.7397L99.1316 54.7597L97.1016 55.9797L97.1216 49.9597Z" fill="#808080"/>
<path d="M74.9609 47.24L77.0009 46.02L99.1509 48.74L97.1209 49.96L74.9609 47.24Z" fill="#8B8B8B"/>
<path d="M97.1211 49.47L99.1511 48.25V48.74L97.1211 49.96V49.47Z" fill="#114565"/>
<path d="M97.5805 50.02L99.6105 48.79L99.5905 54.82L97.5605 56.04L97.5805 50.02Z" fill="#114565"/>
<path d="M97.1211 49.47L99.1511 48.25L99.6111 48.31L97.5811 49.53L97.1211 49.47Z" fill="#134B6E"/>
<path d="M97.5801 49.5301L99.6101 48.3101V48.7901L97.5801 50.0201V49.5301Z" fill="#114565"/>
<path d="M113.74 75.8501L115.77 74.6201L115.76 76.8201L113.73 78.0401L113.74 75.8501Z" fill="#131837"/>
<path d="M113.74 75.3601L115.77 74.1401V74.6201L113.74 75.8501V75.3601Z" fill="#131837"/>
<path d="M100.73 62.6697L102.76 61.4497L108.71 62.1797L106.68 63.3997L100.73 62.6697Z" fill="#151A3B"/>
<path d="M106.702 56.7398L108.732 55.5098L108.712 62.1798L106.682 63.3998L106.702 56.7398Z" fill="#808080"/>
<path d="M119.65 76.5701L121.68 75.3501L121.61 98.7001L119.57 99.9201L119.65 76.5701Z" fill="#808080"/>
<path d="M113.74 75.8501L115.77 74.6201L121.68 75.3501L119.65 76.5701L113.74 75.8501Z" fill="#8B8B8B"/>
<path d="M113.74 75.3601L115.77 74.1401L121.68 74.8601L119.65 76.0901L113.74 75.3601Z" fill="#134B6E"/>
<path d="M119.65 76.5701L121.68 75.3501L122.14 75.4001L120.11 76.6301L119.65 76.5701Z" fill="#134B6E"/>
<path d="M119.65 76.0899L120.11 76.1399V76.6299L119.65 76.5699L113.74 75.8499V75.3599L119.65 76.0899Z" fill="#2185C3"/>
<path d="M119.65 76.0899L121.68 74.8599L122.14 74.9199L120.11 76.1399L119.65 76.0899Z" fill="#134B6E"/>
<path d="M120.111 76.1399L122.141 74.9199V75.3999L120.111 76.6299V76.1399Z" fill="#114565"/>
<path d="M124.301 52.3299L126.341 51.1099L126.171 100.22L124.141 101.45L124.301 52.3299Z" fill="#255872"/>
<path d="M124.68 76.7L126.71 75.48V75.97L124.67 77.19L124.68 76.7Z" fill="#114565"/>
<path d="M124.67 77.1897L126.71 75.9697L127.17 76.0197L125.13 77.2497L124.67 77.1897Z" fill="#134B6E"/>
<path d="M125.131 77.25L127.171 76.02L127.091 99.37L125.061 100.6L125.131 77.25Z" fill="#114565"/>
<path d="M124.682 76.7L126.712 75.48L127.172 75.54L125.142 76.76L124.682 76.7Z" fill="#134B6E"/>
<path d="M106.701 56.7398L108.731 55.5098L115.831 56.3898L113.801 57.6098L106.701 56.7398Z" fill="#151A3B"/>
<path d="M106.701 56.7398L113.801 57.6098L113.741 75.3598V75.8498V78.0398L106.641 77.1698V74.9798V74.4898L106.661 69.4498L100.711 68.7198L100.691 73.7598V74.2498V75.2698L97.5006 74.8798L97.0406 74.8198L81.1406 72.8698V71.8498V71.3598L81.2006 54.0298L88.0006 54.8598V58.9198L94.0506 59.6598V55.5998L97.1106 55.9698L97.5706 56.0298L100.761 56.4198L100.741 62.6598L106.691 63.3898L106.711 56.7198L106.701 56.7398ZM94.0106 69.2598V64.8498L87.9606 64.1098V68.5198L94.0106 69.2598Z" fill="#252E69"/>
<path d="M113.8 57.6101L115.83 56.3901L115.77 74.1401L113.74 75.3601L113.8 57.6101Z" fill="#131837"/>
<path d="M130.182 77.8701L132.222 76.6401L132.212 78.4701L130.182 79.6901V77.8701Z" fill="#808080"/>
<path d="M125.131 77.25L127.171 76.02L132.221 76.64L130.181 77.87L125.131 77.25Z" fill="#8B8B8B"/>
<path d="M130.182 77.3797L132.222 76.1597V76.6397L130.182 77.8697V77.3797Z" fill="#114565"/>
<path d="M125.141 76.76L127.171 75.54L132.221 76.16L130.181 77.38L125.141 76.76Z" fill="#134B6E"/>
<mask id="mask0_71_1327" style="mask-type:luminance" maskUnits="userSpaceOnUse" x="131" y="82" width="10" height="15">
<path d="M134.512 83.2898L136.541 82.0698C134.831 83.0998 133.731 84.9698 133.721 87.3798C133.711 91.4198 136.862 94.8298 140.832 95.3198L138.802 96.5398C134.832 96.0498 131.672 92.6398 131.692 88.5998C131.692 86.1898 132.802 84.3198 134.512 83.2898Z" fill="white"/>
</mask>
<g mask="url(#mask0_71_1327)">
<path d="M134.512 83.2898L136.541 82.0698C134.831 83.0998 133.731 84.9698 133.721 87.3798C133.711 91.4198 136.862 94.8298 140.832 95.3198L138.802 96.5398C134.832 96.0498 131.672 92.6398 131.692 88.5998C131.692 86.1898 132.802 84.3198 134.512 83.2898Z" fill="#858585"/>
</g>
<path d="M124.141 101.45L126.171 100.22L172.761 105.94L170.731 107.17L124.141 101.45Z" fill="#28607C"/>
<path d="M147.211 103.32L149.241 102.09V102.58L147.211 103.8V103.32Z" fill="#114565"/>
<path d="M125.061 100.6L127.091 99.3701L149.241 102.09L147.211 103.32L125.061 100.6Z" fill="#134B6E"/>
<path d="M147.211 103.8L149.241 102.58L149.701 102.64L147.671 103.86L147.211 103.8Z" fill="#134B6E"/>
<path d="M147.67 103.37L149.7 102.15V102.64L147.67 103.86V103.37Z" fill="#114565"/>
<path d="M130.202 73.4898L132.232 72.2598L132.222 76.1598L130.182 77.3798L130.202 73.4898Z" fill="#808080"/>
<mask id="mask1_71_1327" style="mask-type:luminance" maskUnits="userSpaceOnUse" x="138" y="87" width="5" height="5">
<path d="M139.311 88.26L141.341 87.04C140.981 87.26 140.761 87.64 140.761 88.25C140.761 89.41 141.681 90.04 142.851 90.18L140.821 91.4C139.641 91.26 138.721 90.63 138.731 89.47C138.731 88.87 138.951 88.48 139.311 88.26Z" fill="white"/>
</mask>
<g mask="url(#mask1_71_1327)">
<path d="M139.311 88.26L141.341 87.04C140.981 87.26 140.761 87.64 140.761 88.25C140.761 89.41 141.681 90.04 142.851 90.18L140.821 91.4C139.641 91.26 138.721 90.63 138.731 89.47C138.731 88.87 138.951 88.48 139.311 88.26Z" fill="#141939"/>
</g>
<mask id="mask2_71_1327" style="mask-type:luminance" maskUnits="userSpaceOnUse" x="130" y="77" width="7" height="3">
<path d="M132.212 78.4699C133.712 78.2799 135.172 77.8399 136.492 77.1699L134.462 78.3899C133.132 79.0699 131.682 79.4999 130.182 79.6899C130.792 79.3199 131.542 78.6999 132.212 78.4699Z" fill="white"/>
</mask>
<g mask="url(#mask2_71_1327)">
<path d="M130.182 79.6899L132.212 78.4699C133.712 78.2799 135.172 77.8399 136.492 77.1699L134.462 78.3899C133.132 79.0699 131.682 79.4999 130.182 79.6899Z" fill="#8A8A8A"/>
</g>
<mask id="mask3_71_1327" style="mask-type:luminance" maskUnits="userSpaceOnUse" x="139" y="86" width="4" height="3">
<path d="M141.341 87.0398C141.721 86.8098 142.261 86.7698 142.861 86.8398L140.831 88.0598C140.231 87.9898 139.691 88.0298 139.311 88.2598C139.921 87.8898 140.731 87.3998 141.341 87.0398Z" fill="white"/>
</mask>
<g mask="url(#mask3_71_1327)">
<path d="M139.311 88.26L141.341 87.04C141.711 86.82 142.241 86.77 142.821 86.84L140.791 88.06C140.201 87.99 139.681 88.04 139.311 88.26Z" fill="#8A8A8A"/>
<path d="M140.791 88.0598L142.821 86.8398C142.821 86.8398 142.841 86.8398 142.851 86.8398L140.821 88.0598C140.821 88.0598 140.801 88.0598 140.791 88.0598Z" fill="#858585"/>
</g>
<path d="M97.5801 50.02L99.6101 48.79L121.76 51.51L119.73 52.73L97.5801 50.02Z" fill="#8B8B8B"/>
<path d="M119.73 52.7298L121.76 51.5098L121.68 74.8598L119.65 76.0898L119.73 52.7298Z" fill="#808080"/>
<mask id="mask4_71_1327" style="mask-type:luminance" maskUnits="userSpaceOnUse" x="130" y="71" width="5" height="3">
<path d="M134.171 71.4199L132.141 72.6399C131.531 73.0099 130.871 73.2799 130.201 73.4799L132.231 72.2599C132.901 72.0599 133.551 71.7899 134.171 71.4199Z" fill="white"/>
</mask>
<g mask="url(#mask4_71_1327)">
<path d="M130.201 73.4897L132.231 72.2697C132.901 72.0697 133.551 71.7997 134.171 71.4297L132.141 72.6497C131.531 73.0197 130.871 73.2897 130.201 73.4897Z" fill="#151A3B"/>
</g>
<path d="M147.231 97.5801L149.261 96.3501L149.241 102.09L147.211 103.32L147.231 97.5801Z" fill="#808080"/>
<path d="M138.811 96.5398L140.841 95.3198L149.261 96.3498L147.231 97.5798L138.811 96.5398Z" fill="#8B8B8B"/>
<path d="M147.23 97.5801L149.26 96.3501L149.72 96.4101L147.69 97.6301L147.23 97.5801Z" fill="#134B6E"/>
<path d="M147.69 97.6297L149.72 96.4097L149.7 102.15L147.67 103.37L147.69 97.6297Z" fill="#114565"/>
<mask id="mask5_71_1327" style="mask-type:luminance" maskUnits="userSpaceOnUse" x="134" y="81" width="7" height="3">
<path d="M134.512 83.2898L136.542 82.0698C137.742 81.3498 139.242 81.0398 140.882 81.2398L138.852 82.4598C137.212 82.2598 135.712 82.5698 134.512 83.2898Z" fill="white"/>
</mask>
<g mask="url(#mask5_71_1327)">
<path d="M134.512 83.2897L136.542 82.0697C137.732 81.3597 139.212 81.0397 140.822 81.2297L138.792 82.4497C137.182 82.2597 135.702 82.5797 134.512 83.2897Z" fill="#151A3B"/>
<path d="M138.791 82.4495L140.821 81.2295C140.821 81.2295 140.861 81.2295 140.881 81.2295L138.851 82.4495C138.851 82.4495 138.811 82.4495 138.791 82.4495Z" fill="#141939"/>
</g>
<path d="M140.82 91.3999L142.85 90.1699L149.28 90.9599L147.25 92.1899L140.82 91.3999Z" fill="#151A3B"/>
<path d="M147.25 92.19L149.28 90.96L149.74 91.02L147.71 92.24L147.25 92.19Z" fill="#151A3B"/>
<path d="M125.211 53.4099L127.251 52.1899L127.171 75.5399L125.141 76.7599L125.211 53.4099Z" fill="#114565"/>
<path d="M140.83 88.0598L142.86 86.8398L149.29 87.6298L147.26 88.8498L140.83 88.0598Z" fill="#8B8B8B"/>
<path d="M147.26 88.8499L149.29 87.6299L149.28 90.9599L147.25 92.1899L147.26 88.8499Z" fill="#808080"/>
<path d="M147.262 88.8499L149.292 87.6299L149.752 87.6799L147.722 88.9099L147.262 88.8499Z" fill="#134B6E"/>
<path d="M147.721 88.9097L149.751 87.6797L149.741 91.0197L147.711 92.2397L147.721 88.9097Z" fill="#114565"/>
<path d="M147.691 97.6297L149.721 96.4097L158.431 97.4797L156.401 98.6997L147.691 97.6297Z" fill="#8B8B8B"/>
<path d="M147.711 92.24L149.741 91.02L156.461 91.84L154.431 93.07L147.711 92.24Z" fill="#151A3B"/>
<mask id="mask6_71_1327" style="mask-type:luminance" maskUnits="userSpaceOnUse" x="154" y="91" width="5" height="3">
<path d="M158.072 91.6299L156.042 92.8499C155.652 93.0899 155.092 93.1499 154.432 93.0699L156.462 91.8499C157.122 91.9299 157.682 91.8699 158.072 91.6299Z" fill="white"/>
</mask>
<g mask="url(#mask6_71_1327)">
<path d="M154.432 93.0701L156.462 91.8501C156.462 91.8501 156.482 91.8501 156.492 91.8501L154.462 93.0701C154.462 93.0701 154.442 93.0701 154.432 93.0701Z" fill="#141939"/>
<path d="M154.461 93.0699L156.491 91.8499C157.131 91.9199 157.681 91.8499 158.061 91.6299L156.031 92.8499C155.651 93.0799 155.101 93.1499 154.461 93.0699Z" fill="#151A3B"/>
</g>
<path d="M147.721 88.9097L149.751 87.6797L156.471 88.5097L154.441 89.7297L147.721 88.9097Z" fill="#8B8B8B"/>
<mask id="mask7_71_1327" style="mask-type:luminance" maskUnits="userSpaceOnUse" x="156" y="90" width="3" height="3">
<path d="M158.671 90.4399C158.671 91.0099 158.451 91.3999 158.071 91.6199L156.041 92.8399C156.421 92.6099 156.641 92.2299 156.641 91.6599C157.251 91.2899 158.061 90.7999 158.671 90.4399Z" fill="white"/>
</mask>
<g mask="url(#mask7_71_1327)">
<path d="M156.631 91.6697L158.661 90.4497C158.661 91.0197 158.441 91.4097 158.061 91.6297L156.031 92.8497C156.411 92.6197 156.631 92.2397 156.631 91.6697Z" fill="#858585"/>
</g>
<mask id="mask8_71_1327" style="mask-type:luminance" maskUnits="userSpaceOnUse" x="156" y="96" width="7" height="3">
<path d="M162.8 96.6401L160.77 97.8601C159.56 98.5901 158.05 98.9101 156.4 98.7001L158.43 97.4801C160.08 97.6801 161.59 97.3601 162.8 96.6401Z" fill="white"/>
</mask>
<g mask="url(#mask8_71_1327)">
<path d="M156.4 98.7L158.43 97.48C158.43 97.48 158.47 97.48 158.49 97.48L156.46 98.7C156.46 98.7 156.42 98.7 156.4 98.7Z" fill="#858585"/>
<path d="M156.461 98.7101L158.491 97.4901C160.121 97.6801 161.611 97.3601 162.801 96.6401L160.771 97.8601C159.581 98.5801 158.091 98.9001 156.461 98.7101Z" fill="#8A8A8A"/>
</g>
<mask id="mask9_71_1327" style="mask-type:luminance" maskUnits="userSpaceOnUse" x="154" y="88" width="5" height="4">
<path d="M156.471 88.5098C157.761 88.6698 158.671 89.2098 158.671 90.4398L156.641 91.6598C156.641 90.4198 155.731 89.8798 154.441 89.7298C155.051 89.3598 155.781 88.6498 156.471 88.5098Z" fill="white"/>
</mask>
<g mask="url(#mask9_71_1327)">
<path d="M154.441 89.7298L156.471 88.5098C157.761 88.6698 158.671 89.2098 158.671 90.4398L156.641 91.6598C156.641 90.4198 155.731 89.8798 154.441 89.7298Z" fill="#858585"/>
</g>
<mask id="mask10_71_1327" style="mask-type:luminance" maskUnits="userSpaceOnUse" x="156" y="83" width="10" height="15">
<path d="M162.801 96.6401L160.771 97.8601C162.511 96.8101 163.631 94.9101 163.641 92.5201C163.651 88.4101 160.501 85.1101 156.451 84.6101L158.481 83.3901C162.531 83.8901 165.681 87.1901 165.671 91.3001C165.671 93.6901 164.551 95.5901 162.801 96.6401Z" fill="white"/>
</mask>
<g mask="url(#mask10_71_1327)">
<path d="M156.441 84.6199L158.471 83.3999C162.521 83.8999 165.671 87.1999 165.661 91.3099C165.661 93.6999 164.541 95.5999 162.791 96.6499L160.761 97.8699C162.501 96.8199 163.621 94.9199 163.631 92.5299C163.641 88.4199 160.491 85.1199 156.441 84.6199Z" fill="#141939"/>
</g>
<path d="M156.441 84.62C160.491 85.12 163.641 88.42 163.631 92.53C163.621 96.64 160.441 99.21 156.401 98.71L147.691 97.64L147.231 97.58L138.811 96.55C134.841 96.06 131.681 92.65 131.701 88.61C131.721 84.57 134.891 81.98 138.861 82.47L147.281 83.5L147.741 83.56L156.451 84.63L156.441 84.62ZM154.421 93.07C155.711 93.23 156.631 92.83 156.631 91.67C156.631 90.43 155.721 89.89 154.431 89.74L147.711 88.92L147.251 88.86L140.821 88.07C139.641 87.93 138.721 88.24 138.721 89.48C138.721 90.64 139.641 91.27 140.811 91.41L147.241 92.2L147.701 92.26L154.421 93.08" fill="#252E69"/>
<path d="M147.25 92.1901L147.26 88.8501L147.72 88.9101L147.71 92.2401L147.25 92.1901Z" fill="#2185C3"/>
<mask id="mask11_71_1327" style="mask-type:luminance" maskUnits="userSpaceOnUse" x="135" y="73" width="6" height="5">
<path d="M138.962 74.2498L140.992 73.0298C140.012 74.6298 138.712 75.8698 137.212 76.7698L135.182 77.9898C136.682 77.0898 137.982 75.8498 138.962 74.2498Z" fill="white"/>
</mask>
<g mask="url(#mask11_71_1327)">
<path d="M138.962 74.2498L140.992 73.0298C140.012 74.6298 138.712 75.8698 137.212 76.7698L135.182 77.9898C136.682 77.0898 137.982 75.8498 138.962 74.2498Z" fill="#141939"/>
</g>
<path d="M134.461 78.3899L136.491 77.1699L145.901 78.3199L143.861 79.5399L134.461 78.3899Z" fill="#8B8B8B"/>
<path d="M135.182 77.99L137.212 76.77L145.072 77.73L143.042 78.96L135.182 77.99Z" fill="#134B6E"/>
<mask id="mask12_71_1327" style="mask-type:luminance" maskUnits="userSpaceOnUse" x="138" y="73" width="8" height="6">
<path d="M140.991 73.0298C142.021 74.9398 143.441 76.4998 145.071 77.7398L143.041 78.9598C141.401 77.7198 139.991 76.1598 138.961 74.2498C139.571 73.8798 140.381 73.3898 140.991 73.0298Z" fill="white"/>
</mask>
<g mask="url(#mask12_71_1327)">
<path d="M138.961 74.2498L140.991 73.0298C142.021 74.9398 143.441 76.4998 145.071 77.7398L143.041 78.9598C141.401 77.7198 139.991 76.1598 138.961 74.2498Z" fill="#858585"/>
</g>
<mask id="mask13_71_1327" style="mask-type:luminance" maskUnits="userSpaceOnUse" x="143" y="77" width="3" height="3">
<path d="M145.071 77.73C145.341 77.93 145.611 78.13 145.901 78.32L143.871 79.54C143.591 79.35 143.311 79.16 143.041 78.95C143.651 78.58 144.461 78.09 145.071 77.73Z" fill="white"/>
</mask>
<g mask="url(#mask13_71_1327)">
<path d="M143.041 78.9597L145.071 77.7397C145.341 77.9397 145.611 78.1397 145.901 78.3297L143.871 79.5497C143.591 79.3597 143.311 79.1697 143.041 78.9597Z" fill="#124869"/>
</g>
<path d="M138.861 82.4597L140.891 81.2397L149.311 82.2697L147.281 83.4897L138.861 82.4597Z" fill="#151A3B"/>
<path d="M147.281 83.49L149.311 82.27L149.771 82.33L147.741 83.55L147.281 83.49Z" fill="#151A3B"/>
<mask id="mask14_71_1327" style="mask-type:luminance" maskUnits="userSpaceOnUse" x="132" y="62" width="6" height="11">
<path d="M134.171 71.4197L132.141 72.6397C134.281 71.3497 135.931 68.8597 135.951 63.6697L137.981 62.4497C137.961 67.6297 136.311 70.1297 134.171 71.4197Z" fill="white"/>
</mask>
<g mask="url(#mask14_71_1327)">
<path d="M135.941 63.6697L137.971 62.4497C137.951 67.6297 136.301 70.1297 134.161 71.4197L132.131 72.6397C134.271 71.3497 135.921 68.8597 135.941 63.6697Z" fill="#858585"/>
</g>
<mask id="mask15_71_1327" style="mask-type:luminance" maskUnits="userSpaceOnUse" x="143" y="78" width="7" height="4">
<path d="M145.901 78.3198C146.981 79.0398 148.131 79.6298 149.321 80.0998L147.291 81.3198C146.101 80.8498 144.951 80.2598 143.871 79.5398C144.481 79.1698 145.291 78.6798 145.901 78.3198Z" fill="white"/>
</mask>
<g mask="url(#mask15_71_1327)">
<path d="M143.861 79.5398L145.891 78.3198C146.971 79.0398 148.121 79.6298 149.311 80.0998L147.281 81.3198C146.091 80.8498 144.941 80.2598 143.861 79.5398Z" fill="#858585"/>
</g>
<path d="M147.281 81.3301L149.311 80.1001V82.2701L147.281 83.4901V81.3301Z" fill="#808080"/>
<mask id="mask16_71_1327" style="mask-type:luminance" maskUnits="userSpaceOnUse" x="147" y="80" width="3" height="2">
<path d="M149.311 80.1001C149.411 80.1401 149.511 80.1801 149.611 80.2101L147.581 81.4301C147.481 81.3901 147.381 81.3501 147.281 81.3201C147.891 80.9501 148.701 80.4601 149.311 80.1001Z" fill="white"/>
</mask>
<g mask="url(#mask16_71_1327)">
<path d="M147.281 81.3299L149.311 80.1099C149.411 80.1499 149.511 80.1899 149.611 80.2199L147.581 81.4399C147.481 81.3999 147.381 81.3599 147.281 81.3299Z" fill="#124869"/>
</g>
<path d="M147.6 75.2298L149.63 74.0098L149.61 80.2198L147.58 81.4398L147.6 75.2298Z" fill="#131837"/>
<path d="M147.75 80.0198L149.78 78.7998L149.77 82.3298L147.74 83.5498L147.75 80.0198Z" fill="#114565"/>
<path d="M135.951 60.3001L137.981 59.0801L137.971 62.4501L135.941 63.6701L135.951 60.3001Z" fill="#808080"/>
<path d="M147.75 79.5401L149.78 78.3101V78.8001L147.75 80.0201V79.5401Z" fill="#114565"/>
<path d="M147.74 83.5501L149.77 82.3301L158.48 83.4001L156.44 84.6201L147.74 83.5501Z" fill="#151A3B"/>
<path d="M149.17 80.1997L151.2 78.9697L151.19 81.6197L149.16 82.8397L149.17 80.1997Z" fill="#808080"/>
<path d="M147.75 80.0198L149.78 78.7998L151.2 78.9698L149.17 80.1998L147.75 80.0198Z" fill="#8B8B8B"/>
<path d="M149.17 79.7097L151.2 78.4897V78.9697L149.17 80.1997V79.7097Z" fill="#114565"/>
<path d="M147.75 79.5401L149.78 78.3101L151.2 78.4901L149.17 79.7101L147.75 79.5401Z" fill="#134B6E"/>
<mask id="mask17_71_1327" style="mask-type:luminance" maskUnits="userSpaceOnUse" x="141" y="63" width="9" height="13">
<path d="M141.93 64.4099L143.96 63.1899C143.94 69.5699 146.48 72.1899 149.33 73.8499C149.43 73.9099 149.53 73.9599 149.63 74.0199L147.6 75.2399C147.5 75.1899 147.4 75.1299 147.3 75.0699C144.45 73.4099 141.91 70.7899 141.93 64.4099Z" fill="white"/>
</mask>
<g mask="url(#mask17_71_1327)">
<path d="M141.93 64.4099L143.96 63.1899C143.94 69.5699 146.48 72.1899 149.33 73.8499C149.43 73.9099 149.53 73.9599 149.63 74.0199L147.6 75.2399C147.5 75.1899 147.4 75.1299 147.3 75.0699C144.45 73.4099 141.91 70.7899 141.93 64.4099Z" fill="#141939"/>
</g>
<path d="M149.16 82.8401L151.19 81.6201L156.97 82.3301L154.93 83.5501L149.16 82.8401Z" fill="#8B8B8B"/>
<path d="M141.942 61.0398L143.982 59.8198L143.972 63.1898L141.932 64.4098L141.942 61.0398Z" fill="#131837"/>
<path d="M135.182 77.9898C134.952 78.1298 134.712 78.2598 134.462 78.3898C133.132 79.0698 131.682 79.4998 130.182 79.6898V77.8598V77.3698V73.4798C133.182 72.5598 135.912 70.3398 135.932 63.6698V60.2998L141.942 61.0398V64.4098C141.912 70.7898 144.442 73.4098 147.302 75.0698C147.402 75.1298 147.502 75.1798 147.602 75.2398L147.582 81.4498C147.482 81.4098 147.382 81.3698 147.282 81.3398C146.092 80.8698 144.942 80.2798 143.862 79.5598C143.582 79.3698 143.302 79.1798 143.032 78.9698C141.392 77.7298 139.982 76.1698 138.952 74.2598C137.972 75.8598 136.672 77.0998 135.172 77.9998L135.182 77.9898Z" fill="#252E69"/>
<path d="M135.951 60.3001L137.981 59.0801L143.981 59.8201L141.941 61.0401L135.951 60.3001Z" fill="#151A3B"/>
<path d="M147.67 103.37L149.7 102.15L171.86 104.87L169.82 106.09L147.67 103.37Z" fill="#134B6E"/>
<path d="M154.942 80.9097L156.972 79.6797V82.3297L154.932 83.5497L154.942 80.9097Z" fill="#131837"/>
<path d="M154.941 80.4197L156.981 79.1997L156.971 79.6797L154.941 80.9097V80.4197Z" fill="#131837"/>
<path d="M157.41 81.21L159.44 79.98L159.43 82.63L157.4 83.85L157.41 81.21Z" fill="#808080"/>
<path d="M154.941 80.9097L156.971 79.6797L159.441 79.9797L157.411 81.2097L154.941 80.9097Z" fill="#8B8B8B"/>
<path d="M157.41 80.72L159.44 79.5V79.98L157.41 81.21V80.72Z" fill="#114565"/>
<path d="M154.941 80.4197L156.981 79.1997L159.441 79.4997L157.411 80.7197L154.941 80.4197Z" fill="#134B6E"/>
<path d="M154.961 75.5901L156.991 74.3701L156.981 79.2001L154.941 80.4201L154.961 75.5901Z" fill="#131837"/>
<path d="M157.431 75.8898L157.411 80.7198L154.941 80.4198L154.961 75.5898L157.431 75.8898Z" fill="#F6F6F6"/>
<path d="M157.43 75.8899L159.46 74.6699L159.44 79.4999L157.41 80.7199L157.43 75.8899Z" fill="#808080"/>
<path d="M154.961 75.5901L156.991 74.3701L159.461 74.6701L157.431 75.8901L154.961 75.5901Z" fill="#8B8B8B"/>
<path d="M147.361 56.1297L149.401 54.9097L149.341 73.8397L147.301 75.0697L147.361 56.1297Z" fill="#808080"/>
<path d="M147.83 56.18L149.86 54.96L149.78 78.31L147.75 79.54L147.83 56.18Z" fill="#114565"/>
<path d="M149.23 61.7L151.26 60.48L151.2 78.49L149.17 79.71L149.23 61.7Z" fill="#808080"/>
<path d="M157.4 83.8499L159.43 82.6299L165.32 83.3499L163.29 84.5699L157.4 83.8499Z" fill="#8B8B8B"/>
<path d="M125.211 53.4099L127.251 52.1899L149.401 54.9099L147.361 56.1299L125.211 53.4099Z" fill="#8B8B8B"/>
<path d="M125.141 76.7597L125.221 53.4097L147.371 56.1297L147.311 75.0697C144.461 73.4097 141.921 70.7897 141.941 64.4097V61.0397L135.961 60.2997V63.6697C135.931 70.3397 133.201 72.5697 130.211 73.4797V77.3697L125.151 76.7497L125.141 76.7597Z" fill="#F6F6F6"/>
<path d="M147.371 55.6399L149.401 54.4199V54.9099L147.361 56.1299L147.371 55.6399Z" fill="#114565"/>
<path d="M163.301 81.93L165.331 80.71L165.321 83.35L163.291 84.57L163.301 81.93Z" fill="#131837"/>
<path d="M163.301 81.4497L165.331 80.2197V80.7097L163.301 81.9297V81.4497Z" fill="#131837"/>
<path d="M147.83 55.7L149.86 54.48V54.96L147.83 56.18V55.7Z" fill="#114565"/>
<path d="M147.371 55.6399L149.401 54.4199L149.861 54.4799L147.831 55.6999L147.371 55.6399Z" fill="#134B6E"/>
<path d="M147.371 55.6399L147.831 55.6999V56.1899L147.751 79.5399V80.0299L147.741 83.5599L147.281 83.4999V81.3299C147.391 81.3699 147.481 81.4099 147.581 81.4399L147.601 75.2299C147.501 75.1799 147.401 75.1199 147.301 75.0599L147.361 56.1199V55.6299L147.371 55.6399Z" fill="#2185C3"/>
<path d="M154.98 69.5799L157.01 68.3599L159.48 68.6599L157.45 69.8899L154.98 69.5799Z" fill="#151A3B"/>
<path d="M149.23 61.7L151.26 60.48L157.04 61.18L155 62.41L149.23 61.7Z" fill="#151A3B"/>
<path d="M155 62.4097L157.04 61.1797L157.01 68.3597L154.98 69.5797L155 62.4097Z" fill="#131837"/>
<path d="M157.471 62.7097L159.501 61.4897L159.481 68.6597L157.451 69.8897L157.471 62.7097Z" fill="#808080"/>
<path d="M163.301 81.93L165.331 80.71L171.931 81.52L169.901 82.74L163.301 81.93Z" fill="#8B8B8B"/>
<path d="M163.29 84.5698V81.9298L169.9 82.7398L169.82 106.09L147.67 103.37L147.69 97.6298L156.4 98.6998C160.45 99.1998 163.62 96.5598 163.63 92.5198C163.64 88.4798 160.49 85.1098 156.44 84.6098L147.73 83.5398V80.0098L149.16 80.1798V82.8198L154.92 83.5298V80.8898L157.4 81.1898V83.8298L163.28 84.5498L163.29 84.5698Z" fill="#F6F6F6"/>
<path d="M169.9 82.74L171.93 81.52L171.86 104.87L169.82 106.09L169.9 82.74Z" fill="#808080"/>
<path d="M163.301 81.4497L165.331 80.2197L171.931 81.0297L169.901 82.2597L163.301 81.4497Z" fill="#134B6E"/>
<path d="M169.9 82.74L171.93 81.52L172.39 81.57L170.36 82.8L169.9 82.74Z" fill="#134B6E"/>
<path d="M169.9 82.2598L171.93 81.0298L172.39 81.0898L170.36 82.3098L169.9 82.2598Z" fill="#134B6E"/>
<path d="M170.361 82.3098L172.391 81.0898V81.5698L170.361 82.7998V82.3098Z" fill="#114565"/>
<path d="M157.471 62.7097L159.501 61.4897L165.391 62.2097L163.361 63.4297L157.471 62.7097Z" fill="#151A3B"/>
<path d="M163.361 63.43L165.391 62.21L165.331 80.22L163.301 81.45L163.361 63.43Z" fill="#131837"/>
<path d="M169.98 58.8997L172.01 57.6797L171.93 81.0297L169.9 82.2597L169.98 58.8997Z" fill="#808080"/>
<path d="M147.83 56.18L149.86 54.96L172.01 57.68L169.98 58.9L147.83 56.18Z" fill="#8B8B8B"/>
<path d="M124.301 52.3301L170.891 58.0501L170.731 107.16L124.141 101.44L124.301 52.3301ZM170.361 82.7901V82.3001L169.901 82.2401L169.981 58.8901L147.831 56.1701V55.6801L147.371 55.6201V56.1101L125.221 53.3901L125.141 76.7401L124.681 76.6801V77.1701L125.141 77.2301L125.061 100.58L147.211 103.3V103.79L147.671 103.85V103.36L169.821 106.08L169.901 82.7301L170.361 82.7901Z" fill="#2185C3"/>
<path d="M147.211 103.32L147.231 97.5801L147.691 97.6301L147.671 103.37V103.86L147.211 103.8V103.32Z" fill="#2185C3"/>
<path d="M120.64 51.8797L122.68 50.6597L122.52 99.7697L120.48 101L120.64 51.8797Z" fill="#114565"/>
<path d="M74.0508 46.1599L76.0808 44.9399L122.681 50.6599L120.641 51.8799L74.0508 46.1599Z" fill="#134B6E"/>
<path d="M138.731 89.4699C138.731 88.2299 139.661 87.9199 140.831 88.0599L147.261 88.8499V92.1899L140.821 91.3999C139.641 91.2599 138.721 90.6299 138.731 89.4699Z" fill="#F6F6F6"/>
<path d="M138.962 74.25C139.992 76.16 141.412 77.72 143.042 78.96L135.182 77.99C136.682 77.09 137.982 75.85 138.962 74.25Z" fill="#F6F6F6"/>
<path d="M135.181 77.9897L143.041 78.9597C143.311 79.1597 143.581 79.3597 143.871 79.5497L134.471 78.3997C134.711 78.2797 134.951 78.1397 135.191 77.9997L135.181 77.9897Z" fill="#2185C3"/>
<path d="M134.461 78.3897L143.861 79.5397C144.941 80.2597 146.091 80.8497 147.281 81.3197V83.4897L138.851 82.4597C134.881 81.9697 131.701 84.4997 131.691 88.5997C131.681 92.6997 134.831 96.0497 138.801 96.5397L147.221 97.5697L147.201 103.31L125.051 100.59L125.131 77.2397L130.181 77.8597V79.6897C131.681 79.4997 133.131 79.0597 134.461 78.3897Z" fill="#F6F6F6"/>
<path d="M156.631 91.6697C156.631 92.8297 155.711 93.2297 154.421 93.0697L147.701 92.2497V88.9097L154.431 89.7297C155.721 89.8897 156.631 90.4297 156.631 91.6597V91.6697Z" fill="#F6F6F6"/>
<mask id="mask18_71_1327" style="mask-type:luminance" maskUnits="userSpaceOnUse" x="173" y="109" width="4" height="3">
<path d="M175.62 110.77L173.59 111.99C174.07 111.7 174.39 111.16 174.39 110.5L176.42 109.28C176.42 109.93 176.1 110.48 175.62 110.77Z" fill="white"/>
</mask>
<g mask="url(#mask18_71_1327)">
<path d="M174.38 110.51L176.41 109.29C176.41 109.94 176.09 110.49 175.61 110.78L173.58 112C174.06 111.71 174.38 111.17 174.38 110.51Z" fill="#265C76"/>
</g>
<path d="M169.901 82.2597L170.361 82.3097V82.7997L169.901 82.7397L163.301 81.9297V81.4497L169.901 82.2597Z" fill="#2185C3"/>
<path d="M170.89 58.0501L172.93 56.8301L172.76 105.94L170.73 107.17L170.89 58.0501Z" fill="#114565"/>
<path d="M124.301 52.3299L126.341 51.1099L172.931 56.8299L170.891 58.0499L124.301 52.3299Z" fill="#134B6E"/>
<path d="M172.731 54.4199C173.741 54.5399 174.561 55.5099 174.561 56.5699L174.381 110.51C174.381 111.57 173.551 112.33 172.541 112.21L23.6208 93.9299C22.6208 93.7999 21.8008 92.8299 21.8008 91.7799L21.9808 37.8399C21.9808 36.7799 22.8108 36.0199 23.8108 36.1399L172.731 54.4299V54.4199ZM120.481 101L120.641 51.8899L74.0408 46.1699L73.8808 95.2799L120.481 101ZM170.731 107.17L170.891 58.0599L124.301 52.3399L124.141 101.45L170.731 107.17ZM72.0608 95.0499L72.2208 45.9399L25.6308 40.2199L25.4708 89.3299L72.0608 95.0499Z" fill="#48AADB"/>
<path d="M33.1509 65.9499L33.1409 69.1699L48.6009 71.0699V72.4399L45.4109 72.0499L45.3909 78.9299L31.5409 77.2299L31.5209 83.8099L48.5509 85.8999L48.5409 91.1999L26.3809 88.4799L26.4609 65.1299L33.1509 65.9499Z" fill="#F6F6F6"/>
<path d="M48.6016 72.4398V71.0698L49.0616 71.1198V72.4998L48.6016 72.4398Z" fill="#2185C3"/>
<path d="M52.7915 79.8298L66.7115 81.5398L66.6915 88.1298L49.0115 85.9598L48.5515 85.8998L31.5215 83.8098L31.5415 77.2298L45.3915 78.9298L45.4115 72.0498L48.6015 72.4398L49.0615 72.4998L52.8115 72.9598L52.7915 79.8298Z" fill="#252E69"/>
<path d="M26.4609 64.64L26.5409 41.29L48.6909 44.01L48.6709 49.8L33.2109 47.9L33.1509 65.46L26.4609 64.64Z" fill="#F6F6F6"/>
<path d="M48.6899 43.5298L49.1499 43.5798V44.0698L49.1299 49.8598L48.6699 49.7998L48.6899 44.0098V43.5298Z" fill="#2185C3"/>
<path d="M49.1509 44.0698L71.3009 46.7898L71.2309 70.1398L65.1309 69.3898L65.1909 51.8298L49.1309 49.8598L49.1509 44.0698Z" fill="#F6F6F6"/>
<path d="M25.6307 40.2197L72.2207 45.9397L72.0607 95.0497L25.4707 89.3297L25.6307 40.2197ZM71.6907 70.6797V70.1897L71.2307 70.1297L71.3107 46.7797L49.1607 44.0597V43.5697L48.7007 43.5097V43.9997L26.5407 41.2897L26.4607 64.6397L26.0007 64.5797V65.0697L26.4607 65.1297L26.3807 88.4797L48.5307 91.1997V91.6897L48.9907 91.7497V91.2597L71.1407 93.9797L71.2207 70.6297L71.6807 70.6897" fill="#2185C3"/>
<path d="M48.541 91.1999L48.551 85.8999L49.011 85.9599L49.001 91.2599V91.7399L48.541 91.6899V91.1999Z" fill="#2185C3"/>
<mask id="mask19_71_1327" style="mask-type:luminance" maskUnits="userSpaceOnUse" x="22" y="34" width="4" height="3">
<path d="M22.7812 36.35L24.8112 35.13C25.1012 34.95 25.4612 34.87 25.8412 34.91L23.8112 36.13C23.4312 36.08 23.0712 36.16 22.7812 36.34V36.35Z" fill="white"/>
</mask>
<g mask="url(#mask19_71_1327)">
<path d="M22.7812 36.35L24.8112 35.13C25.1012 34.95 25.4513 34.87 25.8313 34.91L23.8012 36.13C23.4212 36.09 23.0712 36.17 22.7812 36.34" fill="#285F7B"/>
<path d="M23.8008 36.1302L25.8308 34.9102C25.8308 34.9102 25.8308 34.9102 25.8408 34.9102L23.8108 36.1302C23.8108 36.1302 23.8108 36.1302 23.8008 36.1302Z" fill="#265C76"/>
</g>
<path d="M49.0609 71.1201L48.6009 71.0601L33.1309 69.1601V65.9401L33.1409 65.4501L33.2009 47.8901L48.6709 49.7901L49.1309 49.8501L65.1909 51.8201L65.1309 69.3801V69.8701L65.1209 73.0901L49.0609 71.1201ZM40.3509 55.0501L40.3209 63.7801L48.6209 64.8001L49.0809 64.8601L58.0109 65.9601L58.0409 57.2301L49.1109 56.1301L48.6509 56.0701L40.3509 55.0501Z" fill="#252E69"/>
<path d="M40.3301 63.7798L40.3601 55.0498L48.6501 56.0698L48.6201 64.7998L40.3301 63.7798Z" fill="#F6F6F6"/>
<path d="M58.0401 57.2199L58.0101 65.9499L49.0801 64.8499L49.1101 56.1299L58.0401 57.2199Z" fill="#F6F6F6"/>
<path d="M65.12 73.0899L65.13 69.8799L71.23 70.6299L71.15 93.9799L49 91.2599L49.01 85.9599L66.69 88.1299L66.71 81.5399L52.79 79.8299L52.81 72.9599L49.06 72.4999V71.1199L65.12 73.0899Z" fill="#F6F6F6"/>
<path d="M71.2309 70.1401L71.6909 70.2001V70.6801L71.2309 70.6301L65.1309 69.8801V69.3901L71.2309 70.1401Z" fill="#2185C3"/>
<path d="M89.791 85.0801L89.811 81.5801L97.011 82.4601L97.001 85.7001L89.791 85.0801Z" fill="#F6F6F6"/>
<path d="M97 85.7L97.01 82.46L97.47 82.52L97.46 85.74L97 85.7Z" fill="#2185C3"/>
<path d="M97.0306 77.1101L97.4906 77.1701L113.731 79.1601L113.681 93.7001L106.581 92.8301V91.7801L97.4406 91.0601L96.9806 91.0201L82.6406 89.8901L82.6906 75.3501L97.0306 77.1101ZM106.611 86.5201V83.6401L97.4806 82.5201L97.0206 82.4601L89.8206 81.5801V85.0801L97.0106 85.7001L97.4706 85.7401L106.611 86.5201Z" fill="#252E69"/>
<path d="M74.8906 70.5897L74.9606 47.2397L97.1206 49.9597L97.1006 55.9797L94.0506 55.6097L94.0406 59.6697L87.9806 58.9197L87.9906 54.8697L81.1906 54.0297L81.1406 71.3597L74.8906 70.5897Z" fill="#F6F6F6"/>
<path d="M97.1216 49.4697L97.5816 49.5297V50.0197L97.5616 56.0397L97.1016 55.9797L97.1216 49.9597V49.4697Z" fill="#2185C3"/>
<path d="M113.73 78.0397L113.74 75.8497L119.65 76.5697L119.57 99.9197L97.4199 97.1997L97.4399 91.0697L106.59 91.7897L106.58 92.8397L113.68 93.7097L113.73 79.1697L97.4899 77.1697V74.8697L100.68 75.2697L100.69 74.2397L106.64 74.9697L106.63 77.1697L113.73 78.0397Z" fill="#F6F6F6"/>
<path d="M97.5805 50.02L119.731 52.73L119.651 76.09L113.741 75.36L113.801 57.61L106.701 56.74L106.681 63.4L100.731 62.67L100.751 56.43L97.5605 56.04L97.5805 50.02Z" fill="#F6F6F6"/>
<path d="M74.0506 46.1597L73.8906 95.2697L120.491 100.99L120.651 51.8797L74.0506 46.1597ZM120.111 76.6197L119.651 76.5597L119.571 99.9097L97.4206 97.1897V97.6797L96.9606 97.6197V97.1297L74.8106 94.4097L74.8906 71.0597L74.4306 70.9997V70.5097L74.8906 70.5697L74.9706 47.2197L97.1206 49.9397V49.4497L97.5806 49.5097V49.9997L119.731 52.7197L119.651 76.0697L120.111 76.1297V76.6197Z" fill="#2185C3"/>
<path d="M74.4299 70.5298L74.8899 70.5898L81.1399 71.3598L81.1299 71.8398L74.8899 71.0798L74.4199 71.0198L74.4299 70.5298Z" fill="#2185C3"/>
<path d="M81.1306 71.8401V72.8701L97.0306 74.8201V77.1101L82.6905 75.3501L82.6405 89.9001L96.9805 91.0301L96.9606 97.1501L74.8105 94.4301L74.8905 71.0801L81.1306 71.8401Z" fill="#F6F6F6"/>
<path d="M124.68 76.6997L125.14 76.7597L130.18 77.3797V77.8697L125.13 77.2497L124.67 77.1897L124.68 76.6997Z" fill="#2185C3"/>
<path d="M147.75 80.02V79.54L149.17 79.71V80.2L147.75 80.02Z" fill="#2185C3"/>
<path d="M154.941 80.9099V80.4199L157.411 80.7199V81.2099L154.941 80.9099Z" fill="#2185C3"/>
<path d="M154.94 80.9097L154.93 83.5497L149.16 82.8397L149.17 80.1997V79.7097L149.23 61.6997L155 62.4097L154.98 69.5797L157.45 69.8897L157.47 62.7097L163.36 63.4297L163.3 81.4497V81.9297L163.29 84.5697L157.4 83.8497L157.41 81.2097V80.7197L157.43 75.8897L154.96 75.5897L154.94 80.4197V80.9097Z" fill="#252E69"/>
<path d="M147.83 56.1797L169.98 58.8997L169.9 82.2597L163.3 81.4497L163.36 63.4297L157.47 62.7097L157.45 69.8897L154.98 69.5797L155 62.4097L149.23 61.6997L149.17 79.7097L147.75 79.5397L147.83 56.1797Z" fill="#F6F6F6"/>
<path d="M23.8105 36.1397L25.8405 34.9097L174.761 53.1997L172.731 54.4197L23.8105 36.1397Z" fill="#28607C"/>
<path d="M174.561 56.5701L176.591 55.3501L176.411 109.29L174.381 110.51L174.561 56.5701Z" fill="#255872"/>
<mask id="mask20_71_1327" style="mask-type:luminance" maskUnits="userSpaceOnUse" x="172" y="53" width="5" height="4">
<path d="M172.73 54.4197L174.76 53.1997C175.77 53.3197 176.59 54.2897 176.59 55.3497L174.56 56.5697C174.56 55.5097 173.74 54.5397 172.73 54.4197Z" fill="white"/>
</mask>
<g mask="url(#mask20_71_1327)">
<path d="M172.73 54.4197L174.76 53.1997C175.77 53.3197 176.59 54.2897 176.59 55.3497L174.56 56.5697C174.56 55.5097 173.74 54.5397 172.73 54.4197Z" fill="#265C76"/>
</g>
</svg>
