<svg width="198" height="145" viewBox="0 0 198 145" fill="none" xmlns="http://www.w3.org/2000/svg">
<path d="M198 0.100098H0V144.1H198V0.100098Z" fill="#6DC7C3"/>
<path d="M58.5495 16.0099C58.5495 16.0099 52.9595 19.4999 53.9095 25.4999L72.5895 119.04C72.5895 119.04 75.3195 128.04 84.1795 128.18L119.089 125.32C119.089 125.32 129.179 122.87 127.269 113.59L107.629 22.0899C107.629 22.0899 105.739 14.8299 97.6195 13.8999L63.0895 14.3899C63.0895 14.3899 60.3395 14.5899 58.5495 16.0099Z" fill="url(#paint0_linear_71_1323)"/>
<path d="M56.9597 23.9796C56.9597 23.9796 55.6197 16.6496 63.1397 14.8796L97.8297 14.3896C97.8297 14.3896 104.13 14.8796 107.11 21.5396L126.83 113.95C126.83 113.95 128.05 120.64 121.26 122.77L88.2097 125.6C88.2097 125.6 78.8097 126.79 76.0697 116.84L56.9597 23.9796Z" fill="#67AFEF"/>
<path d="M57.6 23.9799C57.6 23.9799 56.6 16.7099 63.44 15.3699L98.1 14.9399L63.59 15.8499C63.59 15.8499 58.05 16.5799 58.66 23.4899L77.98 117.76C77.98 117.76 78.77 120.99 82.57 123.57C82.57 123.57 78.31 123.02 76.48 117.03L57.6 23.9799Z" fill="url(#paint1_linear_71_1323)"/>
<path d="M80.9395 127.55L123.539 123.07C123.539 123.07 121.979 124.77 119.089 125.31L85.4195 128.41C85.4195 128.41 81.5995 128.36 80.9395 127.55Z" fill="url(#paint2_linear_71_1323)"/>
<path d="M60.0701 22.8401L78.6701 116.09C79.5601 120.53 83.6401 123.6 88.1601 123.2L119.81 120.41C123.66 120.07 126.33 116.44 125.52 112.66L106.09 22.6201C105.29 18.8901 101.94 16.2501 98.1301 16.3401L64.6501 17.1201C61.6801 17.1901 59.4901 19.9201 60.0701 22.8401Z" fill="white"/>
<path d="M60.4587 22.8401L79.0587 116.09C79.9487 120.53 84.0287 123.6 88.5487 123.2L120.199 120.41C124.049 120.07 126.719 116.44 125.909 112.66L106.479 22.6201C105.679 18.8901 102.329 16.2501 98.5187 16.3401L65.0387 17.1201C62.0687 17.1901 59.8787 19.9201 60.4587 22.8401Z" fill="url(#paint3_linear_71_1323)"/>
<path d="M56.9491 38.8998C56.9491 38.8998 56.7591 38.2498 57.5691 38.1698C57.5691 38.1698 58.2591 38.0898 58.4191 38.9798L61.1891 52.8098C61.1891 52.8098 61.4591 54.2398 60.5391 54.3498C60.5391 54.3498 59.8091 54.2698 59.6491 53.5398L56.9491 38.8998Z" fill="url(#paint4_linear_71_1323)"/>
<path d="M132.989 44.0501C140.649 44.0501 146.859 37.8402 146.859 30.1801C146.859 22.5199 140.649 16.3101 132.989 16.3101C125.329 16.3101 119.119 22.5199 119.119 30.1801C119.119 37.8402 125.329 44.0501 132.989 44.0501Z" fill="url(#paint5_radial_71_1323)"/>
<path d="M131.779 23.9498C132.089 23.1798 132.659 22.7998 133.489 22.7998C134.069 22.7998 134.539 22.9698 134.909 23.2998C135.279 23.6298 135.459 24.1298 135.459 24.7898V36.7898C135.459 37.8798 134.579 38.7598 133.489 38.7598C132.399 38.7598 131.519 37.8798 131.519 36.7898V28.9198H129.669C129.119 28.9198 128.639 28.7798 128.239 28.5098C127.839 28.2298 127.639 27.8198 127.639 27.2698C127.639 26.8098 127.779 26.4398 128.049 26.1598C128.319 25.8798 128.659 25.7198 129.059 25.6698C129.689 25.5898 130.249 25.4298 130.749 25.1898C131.249 24.9498 131.589 24.4798 131.789 23.9598L131.779 23.9498Z" fill="white"/>
<path d="M114.049 35.4997C115.38 35.4997 116.459 34.4207 116.459 33.0897C116.459 31.7587 115.38 30.6797 114.049 30.6797C112.718 30.6797 111.639 31.7587 111.639 33.0897C111.639 34.4207 112.718 35.4997 114.049 35.4997Z" fill="url(#paint6_radial_71_1323)"/>
<path d="M102.709 51.64L102.939 41.91C103.719 36.26 107.959 32.71 114.159 32.71C120.359 32.71 124.479 36.76 125.379 41.91L125.299 51.39L102.699 51.63L102.709 51.64Z" fill="url(#paint7_radial_71_1323)"/>
<path opacity="0.5" d="M111.67 39.8599H113.96L114.07 43.1199H111.5L111.67 39.8599Z" fill="url(#paint8_linear_71_1323)"/>
<path d="M114.1 62.8101C122.842 62.8101 129.93 59.4612 129.93 55.3301C129.93 51.199 122.842 47.8501 114.1 47.8501C105.357 47.8501 98.2695 51.199 98.2695 55.3301C98.2695 59.4612 105.357 62.8101 114.1 62.8101Z" fill="url(#paint9_radial_71_1323)"/>
<path d="M114.1 61.6302C120.219 61.6302 125.18 60.0139 125.18 58.0202C125.18 56.0264 120.219 54.4102 114.1 54.4102C107.98 54.4102 103.02 56.0264 103.02 58.0202C103.02 60.0139 107.98 61.6302 114.1 61.6302Z" fill="url(#paint10_radial_71_1323)"/>
<path d="M108.87 54.8601C108.59 55.5301 108.43 56.2701 108.43 57.0501C108.43 60.1601 110.95 62.6701 114.05 62.6701C117.15 62.6701 119.67 60.1501 119.67 57.0501C119.67 56.2601 119.51 55.5001 119.21 54.8201C119.21 54.8201 117.02 54.4101 113.99 54.4001C113.99 54.4001 111.28 54.3801 109.08 54.7901L108.87 54.8601Z" fill="url(#paint11_radial_71_1323)"/>
<path opacity="0.5" d="M114.929 47.8699C114.929 47.8699 110.239 47.9299 109.779 48.2099L110.239 50.2699L114.879 49.9799L114.939 47.8599L114.929 47.8699Z" fill="url(#paint12_linear_71_1323)"/>
<path opacity="0.25" d="M103.719 52.2297C103.719 52.2297 113.699 48.1997 125.039 52.2297C125.039 52.2297 115.229 47.6897 103.719 52.2297Z" fill="url(#paint13_linear_71_1323)"/>
<defs>
<linearGradient id="paint0_linear_71_1323" x1="64.0995" y1="75.3999" x2="68.6895" y2="74.4499" gradientUnits="userSpaceOnUse">
<stop stop-color="#5A78B5"/>
<stop offset="0.61" stop-color="#558DD1"/>
</linearGradient>
<linearGradient id="paint1_linear_71_1323" x1="57.55" y1="69.2599" x2="98.1" y2="69.2599" gradientUnits="userSpaceOnUse">
<stop offset="0.23" stop-color="#B8DEFA"/>
<stop offset="0.29" stop-color="#B2DBF8"/>
<stop offset="0.37" stop-color="#A3D3F5"/>
<stop offset="0.45" stop-color="#8AC7F0"/>
<stop offset="0.54" stop-color="#68B6E9"/>
<stop offset="0.61" stop-color="#47A6E3"/>
</linearGradient>
<linearGradient id="paint2_linear_71_1323" x1="102.349" y1="126.58" x2="102.209" y2="124.98" gradientUnits="userSpaceOnUse">
<stop stop-color="#294A90"/>
<stop offset="0.61" stop-color="#558DD1"/>
</linearGradient>
<linearGradient id="paint3_linear_71_1323" x1="151.389" y1="20.8101" x2="86.5387" y2="73.8001" gradientUnits="userSpaceOnUse">
<stop offset="0.07" stop-color="#DCDDDD"/>
<stop offset="0.08" stop-color="#DCDDDD"/>
<stop offset="0.23" stop-color="#EBE9E8"/>
<stop offset="0.42" stop-color="#F4F0EF"/>
<stop offset="0.7" stop-color="#F7F3F1"/>
</linearGradient>
<linearGradient id="paint4_linear_71_1323" x1="57.9191" y1="46.4698" x2="60.3691" y2="45.9998" gradientUnits="userSpaceOnUse">
<stop offset="0.47" stop-color="#80C4FF"/>
<stop offset="0.7" stop-color="#386FC4"/>
</linearGradient>
<radialGradient id="paint5_radial_71_1323" cx="0" cy="0" r="1" gradientUnits="userSpaceOnUse" gradientTransform="translate(130.819 11.4301) scale(37.26 37.26)">
<stop offset="0.02" stop-color="#FFA988"/>
<stop offset="0.33" stop-color="#F64B2F"/>
<stop offset="0.49" stop-color="#ED462C"/>
<stop offset="0.73" stop-color="#D53926"/>
<stop offset="1" stop-color="#B5271D"/>
</radialGradient>
<radialGradient id="paint6_radial_71_1323" cx="0" cy="0" r="1" gradientUnits="userSpaceOnUse" gradientTransform="translate(113.869 31.5397) scale(2.63 2.63)">
<stop offset="0.03" stop-color="#FFF0AF"/>
<stop offset="0.1" stop-color="#FFE99D"/>
<stop offset="0.23" stop-color="#FFDE82"/>
<stop offset="0.35" stop-color="#FFD872"/>
<stop offset="0.43" stop-color="#FFD66D"/>
<stop offset="0.49" stop-color="#FFCD67"/>
<stop offset="0.67" stop-color="#FFB456"/>
<stop offset="0.83" stop-color="#FFA54B"/>
<stop offset="0.97" stop-color="#FFA048"/>
</radialGradient>
<radialGradient id="paint7_radial_71_1323" cx="0" cy="0" r="1" gradientUnits="userSpaceOnUse" gradientTransform="translate(109.389 40.76) scale(20.49)">
<stop offset="0.19" stop-color="#FFD66D"/>
<stop offset="0.39" stop-color="#FDD169"/>
<stop offset="0.62" stop-color="#F9C360"/>
<stop offset="0.85" stop-color="#F3AE53"/>
</radialGradient>
<linearGradient id="paint8_linear_71_1323" x1="112.79" y1="44.5099" x2="112.79" y2="38.4099" gradientUnits="userSpaceOnUse">
<stop offset="0.23" stop-color="#FFDE72"/>
<stop offset="0.61" stop-color="white"/>
</linearGradient>
<radialGradient id="paint9_radial_71_1323" cx="0" cy="0" r="1" gradientUnits="userSpaceOnUse" gradientTransform="translate(112.44 49.7401) scale(19.26)">
<stop offset="0.06" stop-color="#FFE67F"/>
<stop offset="0.12" stop-color="#FFDD74"/>
<stop offset="0.24" stop-color="#FFD165"/>
<stop offset="0.39" stop-color="#FFCB5C"/>
<stop offset="0.61" stop-color="#FFC95A"/>
<stop offset="0.98" stop-color="#D97D4E"/>
</radialGradient>
<radialGradient id="paint10_radial_71_1323" cx="0" cy="0" r="1" gradientUnits="userSpaceOnUse" gradientTransform="translate(114.13 49.8502) scale(23.16 23.16)">
<stop offset="0.44" stop-color="#56120D"/>
<stop offset="0.45" stop-color="#59130C"/>
<stop offset="0.46" stop-color="#7A200C"/>
<stop offset="0.49" stop-color="#952A0C"/>
<stop offset="0.51" stop-color="#AA320C"/>
<stop offset="0.53" stop-color="#B9380C"/>
<stop offset="0.56" stop-color="#C23B0C"/>
<stop offset="0.61" stop-color="#C53D0C"/>
</radialGradient>
<radialGradient id="paint11_radial_71_1323" cx="0" cy="0" r="1" gradientUnits="userSpaceOnUse" gradientTransform="translate(113.04 60.3501) scale(7.13)">
<stop offset="0.33" stop-color="#EF992D"/>
<stop offset="0.44" stop-color="#ED922A"/>
<stop offset="0.6" stop-color="#E87F25"/>
<stop offset="0.79" stop-color="#DF611B"/>
<stop offset="0.86" stop-color="#DC5417"/>
</radialGradient>
<linearGradient id="paint12_linear_71_1323" x1="112.419" y1="50.3399" x2="112.189" y2="41.6299" gradientUnits="userSpaceOnUse">
<stop offset="0.07" stop-color="#FFE67F"/>
<stop offset="0.1" stop-color="#FFE993"/>
<stop offset="0.16" stop-color="#FFF0B4"/>
<stop offset="0.23" stop-color="#FFF5CF"/>
<stop offset="0.3" stop-color="#FFF9E4"/>
<stop offset="0.38" stop-color="#FFFCF3"/>
<stop offset="0.47" stop-color="#FFFEFC"/>
<stop offset="0.61" stop-color="white"/>
</linearGradient>
<linearGradient id="paint13_linear_71_1323" x1="90.5187" y1="46.1497" x2="122.939" y2="54.2297" gradientUnits="userSpaceOnUse">
<stop offset="0.07" stop-color="#FFE67F"/>
<stop offset="0.1" stop-color="#FFE993"/>
<stop offset="0.16" stop-color="#FFF0B4"/>
<stop offset="0.23" stop-color="#FFF5CF"/>
<stop offset="0.3" stop-color="#FFF9E4"/>
<stop offset="0.38" stop-color="#FFFCF3"/>
<stop offset="0.47" stop-color="#FFFEFC"/>
<stop offset="0.61" stop-color="white"/>
</linearGradient>
</defs>
</svg>
