<svg width="199" height="163" viewBox="0 0 199 163" fill="none" xmlns="http://www.w3.org/2000/svg">
<path d="M198.199 18.2H0.199219V162.2H198.199V18.2Z" fill="#E8DFCE"/>
<path opacity="0.2" d="M170.65 115.004V117.464C170.53 118.254 170.03 118.994 169.13 119.314L102.4 144.514C97.46 146.314 92.04 146.314 87.09 144.524L33.15 123.854C31.72 123.334 31 122.064 31 120.794V118.534L104.32 97.2637L170.65 115.004Z" fill="#40220F"/>
<path d="M170.65 114.234V116.694C170.53 117.484 170.03 118.224 169.13 118.544L102.4 143.744C97.46 145.544 92.04 145.544 87.09 143.754L33.15 123.094C31.72 122.574 31 121.304 31 120.034V117.774L104.32 96.5037L170.65 114.244V114.234Z" fill="url(#paint0_linear_53_543)"/>
<path d="M169.149 112.004L106.709 90.1336C104.949 89.4736 102.999 89.4836 101.249 90.1736L33.0591 114.864C30.2691 115.964 30.3291 119.934 33.1491 120.954L87.0891 141.614C92.0391 143.404 97.4591 143.404 102.399 141.604L169.129 116.404C171.179 115.664 171.199 112.764 169.159 112.004H169.149Z" fill="#373A3F"/>
<path d="M164.321 111.394L106.711 91.3537C105.061 90.7337 103.241 90.7437 101.611 91.3937L37.8509 114.334C35.2409 115.364 35.2909 119.074 37.9309 120.024L87.6009 139.144C92.2209 140.814 97.2909 140.814 101.911 139.134L164.291 115.514C166.211 114.824 166.221 112.114 164.321 111.394Z" fill="url(#paint1_linear_53_543)"/>
<path d="M138.14 41.7935V106.924C138.08 108.044 137.13 108.434 137.13 108.434L125.25 112.634L125.59 45.3135C125.59 44.8835 125.85 44.4935 126.25 44.3235L137.82 40.1235C137.82 40.1235 138.21 40.5335 138.14 41.7835V41.7935Z" fill="url(#paint2_linear_53_543)"/>
<path d="M137.821 40.1337C137.821 40.1337 137.391 39.8237 136.651 39.5737L126.261 35.6937C126.261 35.6937 124.671 35.3437 123.431 35.9037L113.211 39.6637L125.601 45.3237L137.831 40.1337H137.821Z" fill="url(#paint3_linear_53_543)"/>
<path d="M113.21 39.6636C113.21 39.6636 112.43 40.1136 112.43 41.4036V106.424C112.43 106.424 112.21 108.104 113.66 108.554L124.7 112.644C124.7 112.644 126.1 113.034 125.93 111.304V45.6936C125.93 45.6936 125.99 44.5736 124.53 44.0736L113.21 39.6636Z" fill="url(#paint4_linear_53_543)"/>
<path d="M115.401 68.5038V115.704C115.341 116.824 114.391 117.214 114.391 117.214L102.721 121.344L102.851 72.6637C102.851 72.2337 103.111 71.8438 103.511 71.6738L115.081 66.8438C115.081 66.8438 115.471 67.2538 115.401 68.5038Z" fill="url(#paint5_linear_53_543)"/>
<path d="M115.09 66.8237C115.09 66.8237 114.66 66.5137 113.92 66.2637L103.53 62.3837C103.53 62.3837 101.94 62.0337 100.7 62.5937L90.4805 66.3537L102.87 72.6437L115.1 66.8237H115.09Z" fill="url(#paint6_linear_53_543)"/>
<path d="M90.4697 66.3735C90.4697 66.3735 89.6897 66.8235 89.6897 68.1135V115.204C89.6897 115.204 89.4697 116.884 90.9197 117.334L101.96 121.424C101.96 121.424 103.36 121.814 103.19 120.084V73.0435C103.19 73.0435 103.25 71.9235 101.79 71.4235L90.4697 66.3835V66.3735Z" fill="url(#paint7_linear_53_543)"/>
<path d="M92.4402 97.2037V124.494C92.3802 125.614 91.4302 126.004 91.4302 126.004L79.4902 130.224L79.8902 101.364C79.8902 100.934 80.1502 100.544 80.5502 100.374L92.1202 95.5437C92.1202 95.5437 92.5102 95.9537 92.4402 97.2037Z" fill="url(#paint8_linear_53_543)"/>
<path d="M92.11 95.5436C92.11 95.5436 91.68 95.2336 90.94 94.9836L80.55 91.1036C80.55 91.1036 78.96 90.7536 77.72 91.3136L67.5 95.0736L79.89 101.364L92.12 95.5436H92.11Z" fill="url(#paint9_linear_53_543)"/>
<path d="M67.499 95.0737C67.499 95.0737 66.719 95.5237 66.719 96.8137V123.984C66.719 123.984 66.499 125.664 67.949 126.114L78.989 130.204C78.989 130.204 80.389 130.594 80.219 128.864V101.744C80.219 101.744 80.279 100.624 78.819 100.124L67.499 95.0837V95.0737Z" fill="url(#paint10_linear_53_543)"/>
<path d="M79.5195 139.554V140.164L83.8695 141.824V141.254L79.5195 139.554Z" fill="#373A3F"/>
<path d="M121.189 22.9337C121.189 22.9337 121.579 22.6237 122.209 23.7737C122.209 23.7737 124.769 27.3737 128.609 26.9437L124.789 23.0437C124.789 23.0437 122.209 21.7337 121.189 22.9437V22.9337Z" fill="url(#paint11_linear_53_543)"/>
<path d="M140.801 0.683647C140.801 0.683647 140.381 -0.556353 139.231 0.303647L133.171 5.21365C133.171 5.21365 131.781 6.15365 133.501 6.97365C133.501 6.97365 134.071 7.09365 133.621 7.99365L129.081 19.3336C129.081 19.3336 128.061 21.0136 126.951 20.8036L124.461 18.3236C124.461 18.3236 122.531 17.2036 121.131 16.9936C121.131 16.9936 117.841 16.4336 115.031 21.6036L110.881 31.3736C110.751 31.6536 110.891 31.9936 111.181 32.0936L113.161 32.8237L115.761 29.9336L119.651 20.3936L123.421 20.6836L127.761 24.7736L133.451 21.4936L140.801 0.683647Z" fill="url(#paint12_linear_53_543)"/>
<path d="M139.989 0.313643L134.769 6.43364C134.499 6.75364 134.609 7.24364 134.989 7.41364L136.059 7.89364L131.599 19.2236C131.599 19.2236 130.209 22.8236 127.959 21.5536C127.959 21.5536 127.099 21.2636 125.299 19.0636C125.299 19.0636 123.129 16.0336 119.819 18.8636C119.819 18.8636 115.489 22.9536 113.029 32.6436L116.319 31.4936C116.459 31.4436 116.569 31.3336 116.619 31.1836C116.959 30.0936 118.479 25.4036 119.739 23.9236C119.739 23.9236 121.579 21.1836 123.579 23.6736C123.579 23.6736 126.239 28.2536 130.329 26.2136C130.329 26.2136 133.309 25.4336 134.749 21.5136L139.369 9.08364L140.509 9.41364C140.909 9.53364 141.299 9.21364 141.269 8.79364L140.669 0.533644C140.639 0.183644 140.209 0.0436435 139.989 0.313643Z" fill="url(#paint13_linear_53_543)"/>
<path d="M140.12 0.503585L134.9 6.62359C134.63 6.94359 134.74 7.43359 135.12 7.60359L136.19 8.08359L131.73 19.4136C131.73 19.4136 130.34 23.0136 128.09 21.7436C128.09 21.7436 127.23 21.4536 125.43 19.2536C125.43 19.2536 123.26 16.2236 119.95 19.0536C119.95 19.0536 115.62 23.1436 113.16 32.8336L116.45 31.6836C116.59 31.6336 116.7 31.5236 116.75 31.3736C117.09 30.2836 118.61 25.5936 119.87 24.1136C119.87 24.1136 121.71 21.3736 123.71 23.8636C123.71 23.8636 126.37 28.4436 130.46 26.4036C130.46 26.4036 133.44 25.6236 134.88 21.7036L139.5 9.27358L140.64 9.60358C141.04 9.72358 141.43 9.40358 141.4 8.98358L140.8 0.723585C140.77 0.373585 140.34 0.233585 140.12 0.503585Z" fill="url(#paint14_linear_53_543)"/>
<defs>
<linearGradient id="paint0_linear_53_543" x1="77.74" y1="122.794" x2="169.15" y2="114.594" gradientUnits="userSpaceOnUse">
<stop offset="0.09" stop-color="#B5B5B6"/>
<stop offset="0.26" stop-color="#F7F8F8"/>
<stop offset="0.38" stop-color="#E8E9E9"/>
<stop offset="0.46" stop-color="#DCDDDD"/>
<stop offset="0.66" stop-color="#DCDDDD"/>
<stop offset="0.76" stop-color="#EAEBEB"/>
<stop offset="0.83" stop-color="#F7F8F8"/>
<stop offset="0.87" stop-color="#E9E9EA"/>
<stop offset="0.93" stop-color="#C4C4C5"/>
<stop offset="0.96" stop-color="#B5B5B6"/>
</linearGradient>
<linearGradient id="paint1_linear_53_543" x1="99.9509" y1="86.0237" x2="101.561" y2="139.164" gradientUnits="userSpaceOnUse">
<stop offset="0.18" stop-color="#DCDDDD"/>
<stop offset="0.7" stop-color="#F7F3F1"/>
</linearGradient>
<linearGradient id="paint2_linear_53_543" x1="142.6" y1="76.3835" x2="120.02" y2="76.3835" gradientUnits="userSpaceOnUse">
<stop offset="0.67" stop-color="#E14E77"/>
<stop offset="0.7" stop-color="#E55985"/>
<stop offset="0.77" stop-color="#F278AA"/>
<stop offset="0.82" stop-color="#FE96CD"/>
</linearGradient>
<linearGradient id="paint3_linear_53_543" x1="127.661" y1="35.5237" x2="122.811" y2="45.3937" gradientUnits="userSpaceOnUse">
<stop offset="0.42" stop-color="#F55886"/>
<stop offset="0.55" stop-color="#F55A89"/>
<stop offset="0.66" stop-color="#F66393"/>
<stop offset="0.75" stop-color="#F872A3"/>
<stop offset="0.84" stop-color="#FB86BB"/>
<stop offset="0.89" stop-color="#FE96CD"/>
</linearGradient>
<linearGradient id="paint4_linear_53_543" x1="129.51" y1="52.3636" x2="131.5" y2="47.7436" gradientUnits="userSpaceOnUse">
<stop offset="0.43" stop-color="#F55886"/>
<stop offset="0.55" stop-color="#F66494"/>
<stop offset="0.78" stop-color="#FB84B9"/>
<stop offset="0.89" stop-color="#FE96CD"/>
</linearGradient>
<linearGradient id="paint5_linear_53_543" x1="119.791" y1="94.0938" x2="97.5807" y2="94.0938" gradientUnits="userSpaceOnUse">
<stop offset="0.42" stop-color="#F8BD2E"/>
<stop offset="0.53" stop-color="#F8BE31"/>
<stop offset="0.61" stop-color="#F8C33B"/>
<stop offset="0.69" stop-color="#F9CA4B"/>
<stop offset="0.76" stop-color="#FBD563"/>
<stop offset="0.83" stop-color="#FDE381"/>
<stop offset="0.89" stop-color="#FFF3A3"/>
</linearGradient>
<linearGradient id="paint6_linear_53_543" x1="104.93" y1="62.2137" x2="99.9905" y2="72.2537" gradientUnits="userSpaceOnUse">
<stop offset="0.42" stop-color="#FFD637"/>
<stop offset="0.53" stop-color="#FFD63A"/>
<stop offset="0.62" stop-color="#FFD944"/>
<stop offset="0.7" stop-color="#FFDE54"/>
<stop offset="0.77" stop-color="#FFE46C"/>
<stop offset="0.85" stop-color="#FFEC8A"/>
<stop offset="0.89" stop-color="#FFF3A3"/>
</linearGradient>
<linearGradient id="paint7_linear_53_543" x1="104.16" y1="77.1635" x2="105.68" y2="73.8035" gradientUnits="userSpaceOnUse">
<stop offset="0.42" stop-color="#FFD637"/>
<stop offset="0.53" stop-color="#FFD63A"/>
<stop offset="0.62" stop-color="#FFD944"/>
<stop offset="0.7" stop-color="#FFDE54"/>
<stop offset="0.77" stop-color="#FFE46C"/>
<stop offset="0.85" stop-color="#FFEC8A"/>
<stop offset="0.89" stop-color="#FFF3A3"/>
</linearGradient>
<linearGradient id="paint8_linear_53_543" x1="96.9202" y1="112.884" x2="74.2202" y2="112.884" gradientUnits="userSpaceOnUse">
<stop offset="0.67" stop-color="#53C2A8"/>
<stop offset="0.72" stop-color="#57D0B0"/>
<stop offset="0.8" stop-color="#64F5C8"/>
<stop offset="0.82" stop-color="#67FCCD"/>
</linearGradient>
<linearGradient id="paint9_linear_53_543" x1="81.96" y1="90.9436" x2="77.02" y2="100.974" gradientUnits="userSpaceOnUse">
<stop offset="0.42" stop-color="#67E0B4"/>
<stop offset="0.55" stop-color="#6AE1B5"/>
<stop offset="0.65" stop-color="#74E5BA"/>
<stop offset="0.75" stop-color="#84ECC3"/>
<stop offset="0.84" stop-color="#9CF6CF"/>
<stop offset="0.89" stop-color="#B0FFD9"/>
</linearGradient>
<linearGradient id="paint10_linear_53_543" x1="78.129" y1="102.644" x2="79.059" y2="100.594" gradientUnits="userSpaceOnUse">
<stop offset="0.43" stop-color="#67E0B4"/>
<stop offset="0.55" stop-color="#75E5BB"/>
<stop offset="0.77" stop-color="#9AF5CD"/>
<stop offset="0.89" stop-color="#B0FFD9"/>
</linearGradient>
<linearGradient id="paint11_linear_53_543" x1="127.049" y1="30.8037" x2="122.879" y2="19.3937" gradientUnits="userSpaceOnUse">
<stop stop-color="#CB446A"/>
<stop offset="0.31" stop-color="#CF456C"/>
<stop offset="0.62" stop-color="#DB4B74"/>
<stop offset="0.93" stop-color="#EF5582"/>
<stop offset="1" stop-color="#F55886"/>
</linearGradient>
<linearGradient id="paint12_linear_53_543" x1="130.461" y1="5.43365" x2="129.921" y2="6.78365" gradientUnits="userSpaceOnUse">
<stop stop-color="#F55886"/>
<stop offset="0.17" stop-color="#E34B74"/>
<stop offset="0.32" stop-color="#D9446A"/>
<stop offset="0.58" stop-color="#DD476E"/>
<stop offset="0.85" stop-color="#EA507B"/>
<stop offset="1" stop-color="#F55886"/>
</linearGradient>
<linearGradient id="paint13_linear_53_543" x1="131.559" y1="24.5836" x2="124.769" y2="12.9736" gradientUnits="userSpaceOnUse">
<stop offset="0.19" stop-color="#F55886"/>
<stop offset="0.37" stop-color="#F66494"/>
<stop offset="0.73" stop-color="#FB84B9"/>
<stop offset="0.89" stop-color="#FE96CD"/>
</linearGradient>
<linearGradient id="paint14_linear_53_543" x1="125.51" y1="14.8436" x2="122.42" y2="10.9436" gradientUnits="userSpaceOnUse">
<stop offset="0.19" stop-color="#F55886"/>
<stop offset="0.37" stop-color="#F66494"/>
<stop offset="0.73" stop-color="#FB84B9"/>
<stop offset="0.89" stop-color="#FE96CD"/>
</linearGradient>
</defs>
</svg>
