<svg width="199" height="173" viewBox="0 0 199 173" fill="none" xmlns="http://www.w3.org/2000/svg">
<path d="M198.2 28.2H0.200195V172.2H198.2V28.2Z" fill="#72ABDF"/>
<g style="mix-blend-mode:multiply">
<path opacity="0.02" d="M46.0808 149.22C45.9808 149.22 45.8808 149.26 45.8108 149.32L44.0408 150.72C43.7208 150.97 43.8808 151.5 44.2908 151.5H47.5908C47.7008 151.5 47.8008 151.46 47.8808 151.39L49.4608 149.99C49.7608 149.73 49.5908 149.22 49.1908 149.22H46.0808Z" fill="#FDFCFC"/>
<path opacity="0.04" d="M45.8205 149.27C45.7305 149.27 45.6205 149.31 45.5505 149.37L43.7805 150.77C43.4705 151.02 43.6005 151.55 44.0005 151.55H47.3405C47.4405 151.55 47.5505 151.5 47.6305 151.44L49.2005 150.04C49.4905 149.78 49.3405 149.27 48.9605 149.27H45.8205Z" fill="#FAFAF9"/>
<path opacity="0.07" d="M45.57 149.32C45.48 149.32 45.37 149.36 45.3 149.42L43.53 150.82C43.23 151.06 43.34 151.6 43.73 151.6H47.1C47.2 151.6 47.31 151.55 47.39 151.48L48.96 150.08C49.24 149.83 49.12 149.32 48.74 149.32H45.57Z" fill="#F8F7F6"/>
<path opacity="0.09" d="M45.3101 149.37C45.2201 149.37 45.1101 149.42 45.0401 149.47L43.2701 150.87C42.9701 151.11 43.0601 151.65 43.4401 151.65H46.8401C46.9401 151.65 47.0501 151.6 47.1301 151.53L48.7001 150.13C48.9801 149.89 48.8701 149.37 48.5001 149.37H45.3001H45.3101Z" fill="#F5F5F3"/>
<path opacity="0.11" d="M45.0504 149.42C44.9604 149.42 44.8504 149.47 44.7804 149.52L43.0104 150.92C42.7204 151.15 42.7904 151.69 43.1604 151.69H46.5904C46.6904 151.69 46.8004 151.63 46.8704 151.57L48.4404 150.17C48.7104 149.93 48.6304 149.41 48.2704 149.41H45.0404L45.0504 149.42Z" fill="#F3F2F0"/>
<path opacity="0.13" d="M44.8007 149.47C44.7107 149.47 44.6007 149.52 44.5407 149.57L42.7707 150.97C42.4907 151.19 42.5307 151.74 42.8907 151.74H46.3507C46.4407 151.74 46.5607 151.68 46.6307 151.62L48.2007 150.22C48.4607 149.99 48.4007 149.46 48.0507 149.46H44.7907L44.8007 149.47Z" fill="#F0EFED"/>
<path opacity="0.16" d="M44.5405 149.52C44.4605 149.52 44.3405 149.57 44.2805 149.63L42.5105 151.03C42.2305 151.25 42.2505 151.8 42.6105 151.8H46.1105C46.2005 151.8 46.3205 151.74 46.3905 151.68L47.9605 150.28C48.2205 150.05 48.1805 149.52 47.8405 149.52H44.5505H44.5405Z" fill="#EEEDEA"/>
<path opacity="0.18" d="M44.2802 149.57C44.2002 149.57 44.0802 149.63 44.0202 149.68L42.2502 151.09C41.9802 151.3 41.9802 151.86 42.3202 151.86H45.8502C45.9402 151.86 46.0602 151.79 46.1302 151.73L47.7002 150.33C47.9502 150.11 47.9302 149.57 47.6002 149.57H44.2902H44.2802Z" fill="#EBEAE8"/>
<path opacity="0.2" d="M44.0308 149.62C43.9508 149.62 43.8308 149.68 43.7708 149.73L42.0008 151.14C41.7408 151.35 41.7108 151.91 42.0508 151.91H45.6108C45.7008 151.91 45.8208 151.84 45.8908 151.78L47.4608 150.38C47.7008 150.16 47.7108 149.63 47.3808 149.63H44.0408L44.0308 149.62Z" fill="#E9E7E5"/>
<path opacity="0.22" d="M43.77 149.67C43.69 149.67 43.57 149.73 43.51 149.78L41.74 151.19C41.49 151.39 41.44 151.95 41.76 151.95H45.35C45.43 151.95 45.56 151.88 45.63 151.82L47.2 150.42C47.44 150.21 47.46 149.67 47.15 149.67H43.78H43.77Z" fill="#E7E5E2"/>
<path opacity="0.24" d="M43.5102 149.73C43.4402 149.73 43.3102 149.8 43.2502 149.84L41.4802 151.25C41.2302 151.45 41.1602 152.01 41.4802 152.01H45.1002C45.1802 152.01 45.3102 151.93 45.3702 151.88L46.9402 150.48C47.1702 150.28 47.2202 149.73 46.9102 149.73H43.5102Z" fill="#E4E2DF"/>
<path opacity="0.27" d="M43.2602 149.78C43.1902 149.78 43.0602 149.85 43.0002 149.89L41.2202 151.3C40.9802 151.49 40.8802 152.06 41.1902 152.06H44.8402C44.9202 152.06 45.0502 151.98 45.1102 151.93L46.6802 150.53C46.9002 150.33 46.9702 149.78 46.6802 149.78H43.2502H43.2602Z" fill="#E2E0DC"/>
<path opacity="0.29" d="M42.9999 149.83C42.9299 149.83 42.7999 149.9 42.7499 149.95L40.9699 151.36C40.7399 151.54 40.6199 152.12 40.9099 152.12H44.5999C44.6799 152.12 44.8099 152.04 44.8699 151.99L46.4399 150.59C46.6599 150.4 46.7499 149.84 46.4599 149.84H42.9999V149.83Z" fill="#DFDDD9"/>
<path opacity="0.31" d="M42.7402 149.88C42.6702 149.88 42.5402 149.95 42.4902 150L40.7102 151.41C40.4802 151.59 40.3402 152.16 40.6302 152.16H44.3502C44.4202 152.16 44.5602 152.07 44.6202 152.02L46.1902 150.62C46.4002 150.43 46.5102 149.87 46.2302 149.87H42.7402V149.88Z" fill="#DDDAD6"/>
<path opacity="0.33" d="M42.4801 149.93C42.4101 149.93 42.2801 150.01 42.2301 150.05L40.4501 151.46C40.2301 151.63 40.0701 152.21 40.3401 152.21H44.0901C44.1601 152.21 44.3001 152.12 44.3601 152.07L45.9301 150.67C46.1301 150.49 46.2701 149.92 46.0001 149.92H42.4801V149.93Z" fill="#DAD8D3"/>
<path opacity="0.36" d="M42.2308 149.98C42.1708 149.98 42.0308 150.06 41.9808 150.1L40.2008 151.51C39.9908 151.68 39.8008 152.26 40.0708 152.26H43.8508C43.9208 152.26 44.0608 152.17 44.1208 152.12L45.6908 150.72C45.8808 150.55 46.0408 149.98 45.7808 149.98H42.2308Z" fill="#D8D5D0"/>
<path opacity="0.38" d="M41.9707 150.03C41.9107 150.03 41.7707 150.11 41.7207 150.15L39.9407 151.56C39.7407 151.72 39.5207 152.31 39.7807 152.31H43.5907C43.6607 152.31 43.8007 152.21 43.8507 152.17L45.4207 150.77C45.6107 150.6 45.7907 150.03 45.5407 150.03H41.9607H41.9707Z" fill="#D5D2CD"/>
<path opacity="0.4" d="M41.7099 150.08C41.6499 150.08 41.5099 150.17 41.4599 150.2L39.6799 151.61C39.4799 151.77 39.2499 152.36 39.4999 152.36H43.3499C43.4099 152.36 43.5599 152.26 43.6099 152.22L45.1799 150.82C45.3599 150.66 45.5599 150.08 45.3199 150.08H41.7099Z" fill="#D3D0CA"/>
<path opacity="0.42" d="M41.4606 150.13C41.4006 150.13 41.2606 150.22 41.2106 150.25L39.4306 151.66C39.2406 151.81 38.9806 152.4 39.2206 152.4H43.1006C43.1606 152.4 43.3106 152.3 43.3606 152.25L44.9306 150.85C45.1006 150.69 45.3306 150.11 45.0906 150.11H41.4506L41.4606 150.13Z" fill="#D1CDC7"/>
<path opacity="0.44" d="M41.2005 150.18C41.1405 150.18 41.0005 150.27 40.9605 150.31L39.1805 151.72C39.0005 151.86 38.7105 152.46 38.9505 152.46H42.8605C42.9205 152.46 43.0705 152.35 43.1205 152.31L44.6905 150.92C44.8605 150.77 45.1005 150.18 44.8805 150.18H41.2205H41.2005Z" fill="#CECBC4"/>
<path opacity="0.47" d="M40.9401 150.23C40.8901 150.23 40.7401 150.33 40.7001 150.36L38.9201 151.77C38.7501 151.91 38.4401 152.51 38.6601 152.51H42.6001C42.6601 152.51 42.8101 152.4 42.8601 152.36L44.4301 150.97C44.5901 150.83 44.8601 150.23 44.6401 150.23H40.9501H40.9401Z" fill="#CCC8C1"/>
<path opacity="0.49" d="M40.6906 150.28C40.6406 150.28 40.4906 150.38 40.4506 150.41L38.6706 151.82C38.5006 151.95 38.1706 152.56 38.3906 152.56H42.3606C42.4206 152.56 42.5706 152.45 42.6206 152.41L44.1906 151.02C44.3406 150.88 44.6306 150.29 44.4306 150.29H40.7106L40.6906 150.28Z" fill="#C9C5BE"/>
<path opacity="0.51" d="M40.4301 150.33C40.4301 150.33 40.2301 150.43 40.1901 150.46L38.4101 151.87C38.2501 152 37.9001 152.61 38.1001 152.61H42.1001C42.1501 152.61 42.3101 152.49 42.3501 152.46L43.9201 151.07C44.0701 150.94 44.3801 150.34 44.1801 150.34H40.4301V150.33Z" fill="#C7C3BC"/>
<path opacity="0.53" d="M40.1709 150.38C40.1709 150.38 39.9709 150.48 39.9309 150.51L38.1509 151.92C38.0009 152.04 37.6209 152.65 37.8109 152.65H41.8509C41.9009 152.65 42.0609 152.53 42.1009 152.49L43.6709 151.1C43.8109 150.97 44.1409 150.37 43.9509 150.37H40.1709V150.38Z" fill="#C4C0B9"/>
<path opacity="0.56" d="M39.9207 150.43C39.9207 150.43 39.7207 150.54 39.6807 150.56L37.8907 151.98C37.7407 152.1 37.3407 152.71 37.5307 152.71H41.6007C41.6007 152.71 41.8207 152.58 41.8507 152.55L43.4207 151.16C43.5507 151.04 43.9107 150.43 43.7307 150.43H39.9207Z" fill="#C2BDB6"/>
<path opacity="0.58" d="M39.6601 150.49C39.6601 150.49 39.4601 150.6 39.4201 150.63L37.6301 152.05C37.4901 152.16 37.0701 152.78 37.2401 152.78H41.3401C41.3401 152.78 41.5601 152.65 41.5901 152.62L43.1601 151.23C43.2901 151.12 43.6601 150.5 43.4901 150.5H39.6501L39.6601 150.49Z" fill="#BFBBB3"/>
<path opacity="0.6" d="M39.4005 150.54C39.4005 150.54 39.2005 150.65 39.1705 150.68L37.3805 152.1C37.2505 152.2 36.8005 152.83 36.9705 152.83H41.1005C41.1005 152.83 41.3205 152.7 41.3505 152.67L42.9205 151.28C43.0405 151.17 43.4405 150.55 43.2805 150.55H39.4105L39.4005 150.54Z" fill="#BDB8B0"/>
<path opacity="0.62" d="M39.1504 150.59C39.1504 150.59 38.9504 150.71 38.9204 150.73L37.1304 152.15C37.0104 152.25 36.5404 152.87 36.6904 152.87H40.8504C40.8504 152.87 41.0704 152.73 41.1004 152.71L42.6704 151.32C42.7804 151.22 43.2004 150.59 43.0504 150.59H39.1504Z" fill="#BBB6AD"/>
<path opacity="0.64" d="M38.8901 150.64C38.8901 150.64 38.6901 150.76 38.6601 150.78L36.8701 152.2C36.7501 152.29 36.2601 152.92 36.4101 152.92H40.6101C40.6101 152.92 40.8301 152.78 40.8501 152.76L42.4201 151.37C42.5301 151.27 42.9701 150.65 42.8201 150.65H38.8901V150.64Z" fill="#B8B3AA"/>
<path opacity="0.67" d="M38.6304 150.69C38.6304 150.69 38.4304 150.81 38.4004 150.83L36.6104 152.25C36.5004 152.34 35.9804 152.97 36.1204 152.97H40.3504C40.3504 152.97 40.5704 152.83 40.5904 152.8L42.1604 151.41C42.2604 151.32 42.7204 150.69 42.5904 150.69H38.6304Z" fill="#B6B0A7"/>
<path opacity="0.69" d="M38.3802 150.74C38.3802 150.74 38.1802 150.86 38.1502 150.88L36.3602 152.3C36.2602 152.38 35.7202 153.02 35.8502 153.02H40.1102C40.1102 153.02 40.3302 152.87 40.3502 152.85L41.9202 151.46C42.0102 151.38 42.5002 150.74 42.3702 150.74H38.3902H38.3802Z" fill="#B3AEA4"/>
<path opacity="0.71" d="M38.1205 150.79C38.1205 150.79 37.9105 150.92 37.8905 150.94L36.1005 152.36C36.0105 152.43 35.4405 153.08 35.5605 153.08H39.8505C39.8505 153.08 40.0705 152.93 40.0905 152.91L41.6605 151.52C41.7505 151.44 42.2505 150.8 42.1305 150.8H38.1205V150.79Z" fill="#B1ABA1"/>
<path opacity="0.73" d="M37.8604 150.84C37.8604 150.84 37.6504 150.97 37.6304 150.99L35.8404 152.41C35.7504 152.48 35.1704 153.12 35.2804 153.12H39.6004C39.6004 153.12 39.8204 152.97 39.8404 152.95L41.4104 151.56C41.4904 151.49 42.0204 150.84 41.9104 150.84H37.8704H37.8604Z" fill="#AEA89E"/>
<path opacity="0.76" d="M37.6101 150.89C37.6101 150.89 37.4001 151.02 37.3901 151.04L35.6001 152.46C35.5201 152.52 34.9101 153.17 35.0101 153.17H39.3601C39.3601 153.17 39.5801 153.01 39.6001 153L41.1601 151.61C41.2301 151.54 41.7801 150.89 41.6801 150.89H37.6101Z" fill="#ACA69B"/>
<path opacity="0.78" d="M37.3503 150.94C37.3503 150.94 37.1403 151.08 37.1303 151.09L35.3403 152.51C35.2703 152.57 34.6303 153.22 34.7303 153.22H39.1203C39.1203 153.22 39.3403 153.06 39.3503 153.04L40.9103 151.65C40.9803 151.59 41.5503 150.94 41.4603 150.94H37.3603H37.3503Z" fill="#A9A398"/>
<path opacity="0.8" d="M37.0904 150.99C37.0904 150.99 36.8804 151.13 36.8704 151.14L35.0804 152.56C35.0104 152.61 34.3604 153.27 34.4404 153.27H38.8604C38.8604 153.27 39.0804 153.11 39.0904 153.09L40.6504 151.7C40.7104 151.65 41.3004 150.99 41.2204 150.99H37.0904Z" fill="#A7A195"/>
<path opacity="0.82" d="M36.8308 151.04C36.8308 151.04 36.6208 151.18 36.6108 151.19L34.8208 152.61C34.7608 152.66 34.0808 153.32 34.1608 153.32H38.6108C38.6108 153.32 38.8308 153.15 38.8408 153.14L40.4008 151.75C40.4508 151.7 41.0708 151.04 40.9908 151.04H36.8308Z" fill="#A59E92"/>
<path opacity="0.84" d="M36.5808 151.09C36.5808 151.09 36.3708 151.24 36.3608 151.24L34.5708 152.66C34.5208 152.7 33.8108 153.36 33.8808 153.36H38.3608C38.3608 153.36 38.5808 153.19 38.5908 153.18L40.1508 151.79C40.1508 151.79 40.8308 151.08 40.7708 151.08H36.5808V151.09Z" fill="#A29B90"/>
<path opacity="0.87" d="M36.3205 151.14C36.3205 151.14 36.1105 151.29 36.1005 151.3L34.3005 152.72C34.3005 152.72 33.5305 153.42 33.5805 153.42H38.0905C38.0905 153.42 38.3105 153.25 38.3205 153.24L39.8805 151.85C39.8805 151.85 40.5805 151.14 40.5205 151.14H36.3005H36.3205Z" fill="#A0998D"/>
<path opacity="0.89" d="M36.0601 151.2C36.0601 151.2 35.8501 151.35 35.8401 151.36L34.0401 152.78C34.0401 152.78 33.2501 153.48 33.3001 153.48H37.8401C37.8401 153.48 38.0601 153.3 38.0701 153.3L39.6301 151.91C39.6301 151.91 40.3401 151.2 40.3001 151.2H36.0501H36.0601Z" fill="#9D968A"/>
<path opacity="0.91" d="M35.8101 151.25C35.8101 151.25 35.6001 151.4 35.6001 151.41L33.8001 152.83C33.8001 152.83 33.0001 153.53 33.0301 153.53H37.6101C37.6101 153.53 37.8301 153.35 37.8301 153.34L39.3901 151.95C39.3901 151.95 40.1201 151.24 40.0801 151.24H35.8001L35.8101 151.25Z" fill="#9B9387"/>
<path opacity="0.93" d="M35.5508 151.3L35.3408 151.46L33.5408 152.89C33.5408 152.89 32.7208 153.58 32.7508 153.58H37.3608C37.3608 153.58 37.5808 153.4 37.5808 153.39L39.1408 152C39.1408 152 39.8808 151.3 39.8508 151.3H35.5408H35.5508Z" fill="#989184"/>
<path opacity="0.96" d="M35.2903 151.35L35.0803 151.51L33.2803 152.94C33.2803 152.94 32.4403 153.63 32.4603 153.63H37.1003L37.3203 153.44L38.8803 152.05C38.8803 152.05 39.6403 151.35 39.6203 151.35H35.2903Z" fill="#968E81"/>
<path opacity="0.98" d="M35.0405 151.4L34.8305 151.56L33.0305 152.99C33.0305 152.99 32.1805 153.68 32.1905 153.68H36.8605L37.0805 153.49L38.6405 152.1C38.6405 152.1 39.4105 151.4 39.4005 151.4H35.0405Z" fill="#938C7E"/>
<path d="M31.9004 153.73H36.6104L39.1704 151.45H34.7804L31.9004 153.73Z" fill="#91897B"/>
</g>
<g style="mix-blend-mode:multiply">
<path opacity="0.02" d="M91.4392 149.22H94.5492C94.6492 149.22 94.7492 149.26 94.8192 149.32L96.5892 150.72C96.9092 150.97 96.7492 151.5 96.3392 151.5H93.0392C92.9292 151.5 92.8292 151.46 92.7492 151.39L91.1692 149.99C90.8692 149.73 91.0392 149.22 91.4392 149.22Z" fill="#FDFCFC"/>
<path opacity="0.04" d="M91.6597 149.27H94.7997C94.8897 149.27 94.9997 149.31 95.0697 149.37L96.8397 150.77C97.1497 151.02 97.0197 151.55 96.6197 151.55H93.2797C93.1797 151.55 93.0697 151.5 92.9897 151.44L91.4097 150.04C91.1197 149.78 91.2697 149.27 91.6497 149.27H91.6597Z" fill="#FAFAF9"/>
<path opacity="0.07" d="M91.8893 149.32H95.0593C95.1493 149.32 95.2593 149.36 95.3293 149.42L97.0993 150.82C97.3993 151.06 97.2893 151.6 96.8993 151.6H93.5293C93.4293 151.6 93.3193 151.55 93.2393 151.48L91.6693 150.08C91.3893 149.83 91.5093 149.32 91.8893 149.32Z" fill="#F8F7F6"/>
<path opacity="0.09" d="M92.1199 149.37H95.3199C95.4099 149.37 95.5199 149.42 95.5899 149.47L97.3599 150.87C97.6599 151.11 97.5699 151.65 97.1899 151.65H93.7899C93.6899 151.65 93.5799 151.6 93.4999 151.53L91.9299 150.13C91.6499 149.89 91.7599 149.37 92.1299 149.37H92.1199Z" fill="#F5F5F3"/>
<path opacity="0.11" d="M92.3498 149.42H95.5798C95.6698 149.42 95.7798 149.47 95.8498 149.52L97.6198 150.92C97.9098 151.15 97.8398 151.69 97.4698 151.69H94.0398C93.9398 151.69 93.8298 151.63 93.7598 151.57L92.1898 150.17C91.9198 149.93 91.9998 149.41 92.3598 149.41L92.3498 149.42Z" fill="#F3F2F0"/>
<path opacity="0.13" d="M92.5691 149.47H95.8291C95.9191 149.47 96.0291 149.52 96.0891 149.57L97.8591 150.97C98.1391 151.19 98.0991 151.74 97.7391 151.74H94.2791C94.1891 151.74 94.0691 151.68 93.9991 151.62L92.4291 150.22C92.1691 149.99 92.2291 149.46 92.5791 149.46L92.5691 149.47Z" fill="#F0EFED"/>
<path opacity="0.16" d="M92.8 149.52H96.09C96.17 149.52 96.29 149.57 96.35 149.63L98.12 151.03C98.4 151.25 98.38 151.8 98.02 151.8H94.52C94.43 151.8 94.31 151.74 94.24 151.68L92.67 150.28C92.41 150.05 92.45 149.52 92.79 149.52H92.8Z" fill="#EEEDEA"/>
<path opacity="0.18" d="M93.0298 149.57H96.3398C96.4198 149.57 96.5398 149.63 96.5998 149.68L98.3698 151.09C98.6398 151.3 98.6398 151.86 98.2998 151.86H94.7698C94.6798 151.86 94.5598 151.79 94.4898 151.73L92.9198 150.33C92.6698 150.11 92.6898 149.57 93.0198 149.57H93.0298Z" fill="#EBEAE8"/>
<path opacity="0.2" d="M93.2597 149.62H96.5997C96.6797 149.62 96.7997 149.68 96.8597 149.73L98.6297 151.14C98.8897 151.35 98.9197 151.91 98.5797 151.91H95.0197C94.9297 151.91 94.8097 151.84 94.7397 151.78L93.1697 150.38C92.9297 150.16 92.9197 149.63 93.2497 149.63L93.2597 149.62Z" fill="#E9E7E5"/>
<path opacity="0.22" d="M93.4797 149.67H96.8497C96.9297 149.67 97.0497 149.73 97.1097 149.78L98.8797 151.19C99.1297 151.39 99.1797 151.95 98.8597 151.95H95.2697C95.1897 151.95 95.0597 151.88 94.9897 151.82L93.4197 150.42C93.1797 150.21 93.1597 149.67 93.4697 149.67H93.4797Z" fill="#E7E5E2"/>
<path opacity="0.24" d="M93.7098 149.73H97.1098C97.1798 149.73 97.3098 149.8 97.3698 149.84L99.1398 151.25C99.3898 151.45 99.4598 152.01 99.1398 152.01H95.5198C95.4398 152.01 95.3098 151.93 95.2498 151.88L93.6798 150.48C93.4498 150.28 93.3998 149.73 93.7098 149.73Z" fill="#E4E2DF"/>
<path opacity="0.27" d="M93.94 149.78H97.37C97.44 149.78 97.57 149.85 97.63 149.89L99.41 151.3C99.65 151.49 99.75 152.06 99.44 152.06H95.79C95.71 152.06 95.58 151.98 95.52 151.93L93.95 150.53C93.73 150.33 93.66 149.78 93.95 149.78H93.94Z" fill="#E2E0DC"/>
<path opacity="0.29" d="M94.1698 149.83H97.6298C97.6998 149.83 97.8298 149.9 97.8798 149.95L99.6598 151.36C99.8898 151.54 100.01 152.12 99.7198 152.12H96.0298C95.9498 152.12 95.8198 152.04 95.7598 151.99L94.1898 150.59C93.9698 150.4 93.8798 149.84 94.1698 149.84V149.83Z" fill="#DFDDD9"/>
<path opacity="0.31" d="M94.3994 149.88H97.8894C97.9594 149.88 98.0894 149.95 98.1394 150L99.9194 151.41C100.149 151.59 100.289 152.16 99.9994 152.16H96.2794C96.2094 152.16 96.0694 152.07 96.0094 152.02L94.4394 150.62C94.2294 150.43 94.1194 149.87 94.3994 149.87V149.88Z" fill="#DDDAD6"/>
<path opacity="0.33" d="M94.6193 149.93H98.1393C98.2093 149.93 98.3393 150.01 98.3893 150.05L100.169 151.46C100.389 151.63 100.549 152.21 100.279 152.21H96.5293C96.4593 152.21 96.3193 152.12 96.2593 152.07L94.6893 150.67C94.4893 150.49 94.3493 149.92 94.6193 149.92V149.93Z" fill="#DAD8D3"/>
<path opacity="0.36" d="M94.8497 149.98H98.3997C98.4597 149.98 98.5997 150.06 98.6497 150.1L100.43 151.51C100.64 151.68 100.83 152.26 100.56 152.26H96.7797C96.7097 152.26 96.5697 152.17 96.5097 152.12L94.9397 150.72C94.7497 150.55 94.5897 149.98 94.8497 149.98Z" fill="#D8D5D0"/>
<path opacity="0.38" d="M95.0793 150.03H98.6593C98.7193 150.03 98.8593 150.11 98.9093 150.15L100.689 151.56C100.889 151.72 101.109 152.31 100.849 152.31H97.0393C96.9693 152.31 96.8293 152.21 96.7793 152.17L95.2093 150.77C95.0193 150.6 94.8393 150.03 95.0893 150.03H95.0793Z" fill="#D5D2CD"/>
<path opacity="0.4" d="M95.3096 150.08H98.9196C98.9796 150.08 99.1196 150.17 99.1696 150.2L100.95 151.61C101.15 151.77 101.38 152.36 101.13 152.36H97.2796C97.2196 152.36 97.0696 152.26 97.0196 152.22L95.4496 150.82C95.2696 150.66 95.0696 150.08 95.3096 150.08Z" fill="#D3D0CA"/>
<path opacity="0.42" d="M95.53 150.13H99.17C99.23 150.13 99.37 150.22 99.42 150.25L101.2 151.66C101.39 151.81 101.65 152.4 101.41 152.4H97.53C97.47 152.4 97.32 152.3 97.27 152.25L95.7 150.85C95.53 150.69 95.3 150.11 95.54 150.11L95.53 150.13Z" fill="#D1CDC7"/>
<path opacity="0.44" d="M95.7597 150.18H99.4196C99.4796 150.18 99.6197 150.27 99.6597 150.31L101.44 151.72C101.62 151.86 101.91 152.46 101.67 152.46H97.7597C97.6997 152.46 97.5496 152.35 97.4996 152.31L95.9296 150.92C95.7596 150.77 95.5196 150.18 95.7396 150.18H95.7597Z" fill="#CECBC4"/>
<path opacity="0.47" d="M95.9893 150.23H99.6793C99.7293 150.23 99.8793 150.33 99.9193 150.36L101.699 151.77C101.869 151.91 102.179 152.51 101.959 152.51H98.0193C97.9593 152.51 97.8093 152.4 97.7593 152.36L96.1893 150.97C96.0293 150.83 95.7593 150.23 95.9793 150.23H95.9893Z" fill="#CCC8C1"/>
<path opacity="0.49" d="M96.2199 150.28H99.9399C99.9899 150.28 100.14 150.38 100.18 150.41L101.96 151.82C102.13 151.95 102.46 152.56 102.24 152.56H98.2699C98.2099 152.56 98.0599 152.45 98.0099 152.41L96.4399 151.02C96.2899 150.88 95.9999 150.29 96.1999 150.29L96.2199 150.28Z" fill="#C9C5BE"/>
<path opacity="0.51" d="M96.4392 150.33H100.189C100.189 150.33 100.389 150.43 100.429 150.46L102.209 151.87C102.369 152 102.719 152.61 102.519 152.61H98.5192C98.4692 152.61 98.3092 152.49 98.2692 152.46L96.6992 151.07C96.5492 150.94 96.2392 150.34 96.4392 150.34V150.33Z" fill="#C7C3BC"/>
<path opacity="0.53" d="M96.6698 150.38H100.45C100.45 150.38 100.65 150.48 100.69 150.51L102.47 151.92C102.62 152.04 103 152.65 102.81 152.65H98.7698C98.7198 152.65 98.5598 152.53 98.5198 152.49L96.9498 151.1C96.8098 150.97 96.4798 150.37 96.6698 150.37V150.38Z" fill="#C4C0B9"/>
<path opacity="0.56" d="M96.9 150.43H100.71C100.71 150.43 100.91 150.54 100.95 150.56L102.74 151.98C102.89 152.1 103.29 152.71 103.1 152.71H99.03C99.03 152.71 98.81 152.58 98.78 152.55L97.21 151.16C97.08 151.04 96.72 150.43 96.9 150.43Z" fill="#C2BDB6"/>
<path opacity="0.58" d="M97.1296 150.49H100.97C100.97 150.49 101.17 150.6 101.21 150.63L103 152.05C103.14 152.16 103.56 152.78 103.39 152.78H99.2896C99.2896 152.78 99.0696 152.65 99.0396 152.62L97.4696 151.23C97.3396 151.12 96.9696 150.5 97.1396 150.5L97.1296 150.49Z" fill="#BFBBB3"/>
<path opacity="0.6" d="M97.35 150.54H101.22C101.22 150.54 101.42 150.65 101.45 150.68L103.24 152.1C103.37 152.2 103.82 152.83 103.65 152.83H99.52C99.52 152.83 99.3 152.7 99.27 152.67L97.7 151.28C97.58 151.17 97.18 150.55 97.34 150.55L97.35 150.54Z" fill="#BDB8B0"/>
<path opacity="0.62" d="M97.5798 150.59H101.48C101.48 150.59 101.68 150.71 101.71 150.73L103.5 152.15C103.62 152.25 104.09 152.87 103.94 152.87H99.7798C99.7798 152.87 99.5598 152.73 99.5298 152.71L97.9598 151.32C97.8498 151.22 97.4298 150.59 97.5798 150.59Z" fill="#BBB6AD"/>
<path opacity="0.64" d="M97.8092 150.64H101.739C101.739 150.64 101.939 150.76 101.969 150.78L103.759 152.2C103.879 152.29 104.369 152.92 104.219 152.92H100.019C100.019 152.92 99.7992 152.78 99.7792 152.76L98.2092 151.37C98.0992 151.27 97.6592 150.65 97.8092 150.65V150.64Z" fill="#B8B3AA"/>
<path opacity="0.67" d="M98.0396 150.69H102C102 150.69 102.2 150.81 102.23 150.83L104.02 152.25C104.13 152.34 104.65 152.97 104.51 152.97H100.28C100.28 152.97 100.06 152.83 100.04 152.8L98.4696 151.41C98.3696 151.32 97.9096 150.69 98.0396 150.69Z" fill="#B6B0A7"/>
<path opacity="0.69" d="M98.2691 150.74H102.249C102.249 150.74 102.449 150.86 102.479 150.88L104.269 152.3C104.369 152.38 104.909 153.02 104.779 153.02H100.519C100.519 153.02 100.299 152.87 100.279 152.85L98.7091 151.46C98.6191 151.38 98.1291 150.74 98.2591 150.74H98.2691Z" fill="#B3AEA4"/>
<path opacity="0.71" d="M98.4892 150.79H102.499C102.499 150.79 102.709 150.92 102.729 150.94L104.519 152.36C104.609 152.43 105.179 153.08 105.059 153.08H100.769C100.769 153.08 100.549 152.93 100.529 152.91L98.9592 151.52C98.8692 151.44 98.3692 150.8 98.4892 150.8V150.79Z" fill="#B1ABA1"/>
<path opacity="0.73" d="M98.7193 150.84H102.759C102.759 150.84 102.969 150.97 102.989 150.99L104.779 152.41C104.869 152.48 105.449 153.12 105.339 153.12H101.019C101.019 153.12 100.799 152.97 100.779 152.95L99.2093 151.56C99.1293 151.49 98.5993 150.84 98.7093 150.84H98.7193Z" fill="#AEA89E"/>
<path opacity="0.76" d="M98.9496 150.89H103.02C103.02 150.89 103.23 151.02 103.24 151.04L105.03 152.46C105.11 152.52 105.72 153.17 105.62 153.17H101.27C101.27 153.17 101.05 153.01 101.03 153L99.4696 151.61C99.3996 151.54 98.8496 150.89 98.9496 150.89Z" fill="#ACA69B"/>
<path opacity="0.78" d="M99.1798 150.94H103.28C103.28 150.94 103.49 151.08 103.5 151.09L105.29 152.51C105.36 152.57 106 153.22 105.9 153.22H101.51C101.51 153.22 101.29 153.06 101.28 153.04L99.7198 151.65C99.6498 151.59 99.0798 150.94 99.1698 150.94H99.1798Z" fill="#A9A398"/>
<path opacity="0.8" d="M99.4 150.99H103.53C103.53 150.99 103.74 151.13 103.75 151.14L105.54 152.56C105.61 152.61 106.26 153.27 106.18 153.27H101.76C101.76 153.27 101.54 153.11 101.53 153.09L99.97 151.7C99.91 151.65 99.32 150.99 99.4 150.99Z" fill="#A7A195"/>
<path opacity="0.82" d="M99.6292 151.04H103.789C103.789 151.04 103.999 151.18 104.009 151.19L105.799 152.61C105.859 152.66 106.539 153.32 106.459 153.32H102.009C102.009 153.32 101.789 153.15 101.779 153.14L100.219 151.75C100.169 151.7 99.5492 151.04 99.6292 151.04Z" fill="#A59E92"/>
<path opacity="0.84" d="M99.8592 151.09H104.049C104.049 151.09 104.259 151.24 104.269 151.24L106.059 152.66C106.109 152.7 106.819 153.36 106.749 153.36H102.269C102.269 153.36 102.049 153.19 102.039 153.18L100.479 151.79C100.479 151.79 99.7992 151.08 99.8592 151.08V151.09Z" fill="#A29B90"/>
<path opacity="0.87" d="M100.09 151.14H104.31C104.31 151.14 104.52 151.29 104.53 151.3L106.33 152.72C106.33 152.72 107.1 153.42 107.05 153.42H102.54C102.54 153.42 102.32 153.25 102.31 153.24L100.75 151.85C100.75 151.85 100.05 151.14 100.11 151.14H100.09Z" fill="#A0998D"/>
<path opacity="0.89" d="M100.31 151.2H104.56C104.56 151.2 104.77 151.35 104.78 151.36L106.58 152.78C106.58 152.78 107.37 153.48 107.32 153.48H102.78C102.78 153.48 102.56 153.3 102.55 153.3L100.99 151.91C100.99 151.91 100.28 151.2 100.32 151.2H100.31Z" fill="#9D968A"/>
<path opacity="0.91" d="M100.539 151.25H104.819C104.819 151.25 105.029 151.4 105.029 151.41L106.829 152.83C106.829 152.83 107.629 153.53 107.599 153.53H103.019C103.019 153.53 102.799 153.35 102.799 153.34L101.239 151.95C101.239 151.95 100.509 151.24 100.549 151.24L100.539 151.25Z" fill="#9B9387"/>
<path opacity="0.93" d="M100.77 151.3H105.08L105.29 151.46L107.09 152.89C107.09 152.89 107.91 153.58 107.88 153.58H103.27C103.27 153.58 103.05 153.4 103.05 153.39L101.49 152C101.49 152 100.75 151.3 100.78 151.3H100.77Z" fill="#989184"/>
<path opacity="0.96" d="M100.999 151.35H105.329L105.539 151.51L107.339 152.94C107.339 152.94 108.179 153.63 108.159 153.63H103.519L103.299 153.44L101.739 152.05C101.739 152.05 100.979 151.35 100.999 151.35Z" fill="#968E81"/>
<path opacity="0.98" d="M101.23 151.4H105.59L105.8 151.56L107.6 152.99C107.6 152.99 108.45 153.68 108.44 153.68H103.77L103.55 153.49L101.99 152.1C101.99 152.1 101.22 151.4 101.23 151.4Z" fill="#938C7E"/>
<path d="M108.719 153.73H104.019L101.449 151.45H105.849L108.719 153.73Z" fill="#91897B"/>
</g>
<path style="mix-blend-mode:multiply" d="M77.0204 139.15C77.0204 139.79 73.9804 140.3 70.2304 140.3C66.4804 140.3 63.4404 139.78 63.4404 139.15C63.4404 138.52 66.4804 138 70.2304 138C73.9804 138 77.0204 138.52 77.0204 139.15Z" fill="url(#paint0_radial_53_542)"/>
<path style="mix-blend-mode:multiply" d="M70.22 155.67C97.9557 155.67 120.44 151.855 120.44 147.15C120.44 142.444 97.9557 138.63 70.22 138.63C42.4843 138.63 20 142.444 20 147.15C20 151.855 42.4843 155.67 70.22 155.67Z" fill="url(#paint1_radial_53_542)"/>
<path d="M72.4704 26.96H68.1504V139.15H72.4704V26.96Z" fill="url(#paint2_linear_53_542)"/>
<path style="mix-blend-mode:multiply" d="M72.4704 26.96H68.1504V139.15H72.4704V26.96Z" fill="url(#paint3_linear_53_542)"/>
<path style="mix-blend-mode:multiply" d="M72.4704 26.96H68.1504V44.6H72.4704V26.96Z" fill="url(#paint4_linear_53_542)"/>
<path d="M100.08 128.48H40.5498V132.47H100.08V128.48Z" fill="url(#paint5_linear_53_542)"/>
<path d="M100.08 128.48H40.5498L41.1298 127.74H99.4898L100.08 128.48Z" fill="#F7D89F"/>
<path style="mix-blend-mode:multiply" d="M100.08 128.48L99.4895 127.74H82.5195V132.48H100.08V128.48Z" fill="url(#paint6_linear_53_542)"/>
<path style="mix-blend-mode:multiply" d="M56.4098 127.74H41.1298L40.5498 128.48V132.48H56.4098V127.74Z" fill="url(#paint7_linear_53_542)"/>
<path d="M76.3701 18.8899H80.7901L108.72 153.73H104.02L76.3701 18.8899Z" fill="url(#paint8_linear_53_542)"/>
<path d="M75.2803 19.8799L76.3703 18.8899L104.02 153.73L101.45 151.45L75.2803 19.8799Z" fill="url(#paint9_linear_53_542)"/>
<path style="mix-blend-mode:multiply" d="M89.8398 93.0601L94.8298 118.14H101.35L96.1498 93.0601H89.8398Z" fill="url(#paint10_linear_53_542)"/>
<path style="mix-blend-mode:multiply" d="M75.8896 22.9299L79.0996 39.0799H84.9697L81.6196 22.9299H75.8896Z" fill="url(#paint11_linear_53_542)"/>
<path d="M64.2604 18.8899H59.8404L31.9004 153.73H36.6104L64.2604 18.8899Z" fill="url(#paint12_linear_53_542)"/>
<path d="M65.3503 19.8799L64.2603 18.8899L36.6104 153.73L39.1704 151.45L65.3503 19.8799Z" fill="url(#paint13_linear_53_542)"/>
<path style="mix-blend-mode:multiply" d="M44.4703 93.0601L39.2803 118.14H45.8003L50.7903 93.0601H44.4703Z" fill="url(#paint14_linear_53_542)"/>
<path style="mix-blend-mode:multiply" d="M59.0002 22.9299L55.6602 39.0799H61.5302L64.7402 22.9299H59.0002Z" fill="url(#paint15_linear_53_542)"/>
<path d="M87.5798 33.6899H53.0498V37.3699H87.5798V33.6899Z" fill="url(#paint16_linear_53_542)"/>
<path d="M86.5598 38.4201H54.0598L53.0498 37.3701H87.5798L86.5598 38.4201Z" fill="url(#paint17_linear_53_542)"/>
<path style="mix-blend-mode:multiply" d="M53.0498 33.6899V37.3699L54.0598 38.4199H86.5598L87.5798 37.3699V33.6899H53.0498Z" fill="url(#paint18_linear_53_542)"/>
<path d="M68.1504 101.37H72.4704V2.14C72.4704 0.96 71.5104 0 70.3304 0H70.2904C69.1104 0 68.1504 0.96 68.1504 2.14V101.38V101.37Z" fill="url(#paint19_linear_53_542)"/>
<path style="mix-blend-mode:screen" d="M72.4704 20.91V2.14C72.4704 0.96 71.5104 0 70.3304 0H70.2904C69.1104 0 68.1504 0.96 68.1504 2.14V20.91H72.4704Z" fill="url(#paint20_linear_53_542)"/>
<path style="mix-blend-mode:multiply" d="M72.4704 79.1399H68.1504V97.5599H72.4704V79.1399Z" fill="url(#paint21_linear_53_542)"/>
<path d="M104.02 93.4399H36.6104V97.0099H104.02V93.4399Z" fill="url(#paint22_linear_53_542)"/>
<path d="M102.92 98.22H37.7004L36.6104 97.01H104.02L102.92 98.22Z" fill="url(#paint23_linear_53_542)"/>
<path style="mix-blend-mode:multiply" d="M102.92 98.22H37.7004L36.6104 97.01H104.02L102.92 98.22Z" fill="url(#paint24_linear_53_542)"/>
<path d="M86.1098 98.22H54.5098V101.37H86.1098V98.22Z" fill="url(#paint25_linear_53_542)"/>
<path style="mix-blend-mode:multiply" d="M86.1098 98.22H54.5098V101.37H86.1098V98.22Z" fill="url(#paint26_linear_53_542)"/>
<path d="M85.2603 102.39H55.3703L54.5303 101.38H86.1003L85.2603 102.39Z" fill="url(#paint27_linear_53_542)"/>
<path d="M73.8802 32.54H66.7402V37.36H73.8802V32.54Z" fill="url(#paint28_linear_53_542)"/>
<path d="M72.7602 38.1201L72.4702 38.0401H68.1502L67.7502 38.1001C67.4902 38.1401 67.2302 38.0301 67.0802 37.8301L66.7402 37.3701H73.8802L73.5002 37.8701C73.3302 38.1001 73.0402 38.2001 72.7602 38.1201Z" fill="#A8732F"/>
<path style="mix-blend-mode:multiply" d="M72.4704 38.04H68.1504V42.63H72.4704V38.04Z" fill="url(#paint29_linear_53_542)"/>
<g style="mix-blend-mode:multiply" opacity="0.5">
<path d="M71.6702 35.06C71.6702 35.81 71.0602 36.4199 70.3102 36.4199C69.5602 36.4199 68.9502 35.81 68.9502 35.06C68.9502 34.31 69.5602 33.7 70.3102 33.7C71.0602 33.7 71.6702 34.31 71.6702 35.06Z" fill="#C2965F"/>
</g>
<path d="M71.6702 34.87C71.6702 35.62 71.0602 36.23 70.3102 36.23C69.5602 36.23 68.9502 35.62 68.9502 34.87C68.9502 34.12 69.5602 33.51 70.3102 33.51C71.0602 33.51 71.6702 34.12 71.6702 34.87Z" fill="url(#paint30_linear_53_542)"/>
<path d="M71.4197 34.87C71.4197 35.48 70.9297 35.97 70.3197 35.97C69.7097 35.97 69.2197 35.48 69.2197 34.87C69.2197 34.26 69.7097 33.77 70.3197 33.77C70.9297 33.77 71.4197 34.26 71.4197 34.87Z" fill="url(#paint31_linear_53_542)"/>
<path d="M71.2603 34.8699C71.2603 35.3899 70.8404 35.8199 70.3104 35.8199C69.7804 35.8199 69.3604 35.3999 69.3604 34.8699C69.3604 34.3399 69.7804 33.9199 70.3104 33.9199C70.8404 33.9199 71.2603 34.3399 71.2603 34.8699Z" fill="url(#paint32_radial_53_542)"/>
<g style="mix-blend-mode:multiply">
<path opacity="0.04" d="M69.6502 34.3899C69.4902 34.6499 69.2502 34.8599 68.9802 34.9699C68.8802 34.9999 68.7502 35.0199 68.6402 35.0199H68.1602V35.6599L68.1702 35.7499H68.6502C68.7302 35.7499 68.8202 35.7499 68.9002 35.7799C69.2102 35.8699 69.4802 36.0899 69.6602 36.3799C69.8402 36.6699 70.0702 36.8299 70.3302 36.8199C70.6002 36.8199 70.8302 36.6299 70.9902 36.3499C70.9902 36.3399 71.0102 36.3199 71.0102 36.3099C71.2202 35.9799 71.5902 35.7499 71.9802 35.7499H72.4502V35.0299H71.9902C71.5902 35.0299 71.2202 34.7999 71.0102 34.4599C71.0102 34.4499 71.0002 34.4399 70.9902 34.4299C70.8302 34.1399 70.5902 33.9499 70.3202 33.9399C70.0502 33.9399 69.8102 34.1099 69.6402 34.3999L69.6502 34.3899Z" fill="#EDCFA9"/>
<path opacity="0.09" d="M69.6799 34.3699C69.5099 34.6199 69.2699 34.8399 68.9999 34.9599C68.8999 34.9899 68.7599 35.0099 68.6499 35.0099H68.1699V35.4799L68.1899 35.6399V35.7199H68.6799C68.7599 35.7199 68.8599 35.7199 68.9299 35.7499C69.2299 35.8499 69.4999 36.0799 69.6899 36.3499C69.8799 36.6199 70.0899 36.7799 70.3499 36.7699C70.6099 36.7599 70.8399 36.5799 70.9999 36.2999C70.9999 36.2899 71.0199 36.2699 71.0199 36.2599C71.2199 35.9399 71.5999 35.7299 71.9799 35.7299H72.4499V35.0199H71.9899C71.6099 35.0199 71.2199 34.7999 71.0199 34.4699C71.0199 34.4599 71.0099 34.4499 70.9999 34.4399C70.8399 34.1499 70.6099 33.9599 70.3499 33.9499C70.0899 33.9399 69.8599 34.1099 69.6799 34.3799V34.3699Z" fill="#E9CAA4"/>
<path opacity="0.13" d="M69.7104 34.35C69.5404 34.59 69.2804 34.81 69.0304 34.94C68.9404 34.97 68.7804 34.99 68.6804 34.99H68.1904V35.46L68.2204 35.62V35.7H68.7204C68.7904 35.7 68.9004 35.7 68.9704 35.73C69.2604 35.85 69.5404 36.08 69.7304 36.34C69.9104 36.59 70.1304 36.74 70.3904 36.73C70.6404 36.71 70.8704 36.53 71.0204 36.26C71.0204 36.25 71.0304 36.23 71.0404 36.22C71.2304 35.92 71.6304 35.72 71.9904 35.72H72.4504V35.02H72.0004C71.6404 35.02 71.2304 34.81 71.0404 34.5C71.0404 34.5 71.0304 34.48 71.0204 34.47C70.8704 34.19 70.6404 34 70.3804 33.98C70.1204 33.96 69.9004 34.12 69.7204 34.38L69.7104 34.35Z" fill="#E6C69E"/>
<path opacity="0.17" d="M69.7404 34.3298C69.5604 34.5598 69.3004 34.7798 69.0504 34.9298C68.9604 34.9598 68.7904 34.9798 68.6904 34.9798H68.1904V35.4498L68.2204 35.5998V35.6798H68.7204C68.7904 35.6798 68.9104 35.6798 68.9704 35.6998C69.2504 35.8298 69.5304 36.0598 69.7304 36.3098C69.9104 36.5398 70.1304 36.6898 70.3804 36.6698C70.6304 36.6498 70.8404 36.4698 70.9904 36.1998C70.9904 36.1898 71.0004 36.1698 71.0104 36.1598C71.1904 35.8698 71.6104 35.6798 71.9504 35.6798H72.4004V34.9898H71.9604C71.6204 34.9898 71.1904 34.7898 71.0104 34.4998C71.0104 34.4998 71.0004 34.4798 70.9904 34.4698C70.8404 34.1898 70.6204 33.9998 70.3704 33.9798C70.1204 33.9598 69.9004 34.1098 69.7204 34.3498L69.7404 34.3298Z" fill="#E3C198"/>
<path opacity="0.22" d="M69.7697 34.3099C69.5797 34.5299 69.3197 34.7499 69.0797 34.9199C68.9997 34.9499 68.8097 34.9599 68.7197 34.9599H68.2197V35.4299L68.2597 35.5699L68.2797 35.6399H68.7697C68.8397 35.6399 68.9597 35.6399 69.0197 35.6599C69.2897 35.8099 69.5797 36.0399 69.7797 36.2799C69.9597 36.4999 70.1797 36.6299 70.4197 36.6099C70.6597 36.5799 70.8697 36.3999 71.0097 36.1299C71.0097 36.1199 71.0197 36.0999 71.0297 36.0899C71.1997 35.8199 71.6397 35.6399 71.9597 35.6399H72.4097V34.9599H71.9697C71.6397 34.9599 71.1997 34.7699 71.0297 34.4899C71.0297 34.4899 71.0197 34.4699 71.0097 34.4599C70.8697 34.1799 70.6597 33.9999 70.4097 33.9699C70.1597 33.9399 69.9497 34.0899 69.7697 34.3099Z" fill="#DFBD93"/>
<path opacity="0.26" d="M69.7997 34.2799C69.5997 34.4899 69.3397 34.7199 69.0997 34.8899C69.0197 34.9199 68.8197 34.9299 68.7297 34.9299H68.2197V35.3999L68.2697 35.5299L68.2897 35.5999H68.7797C68.8397 35.5999 68.9797 35.5999 69.0297 35.6199C69.2897 35.7799 69.5797 36.0099 69.7897 36.2399C69.9797 36.4399 70.1797 36.5699 70.4197 36.5399C70.6597 36.5099 70.8597 36.3299 70.9997 36.0599C70.9997 36.0499 71.0097 36.0299 71.0197 36.0199C71.1797 35.7599 71.6397 35.5899 71.9397 35.5899H72.3797V34.9199H71.9497C71.6397 34.9199 71.1797 34.7399 71.0197 34.4799C71.0197 34.4799 71.0197 34.4599 71.0097 34.4499C70.8697 34.1799 70.6697 33.9899 70.4297 33.9599C70.1897 33.9299 69.9797 34.0599 69.7897 34.2699L69.7997 34.2799Z" fill="#DCB98D"/>
<path opacity="0.3" d="M69.8302 34.2599C69.6202 34.4699 69.3502 34.6899 69.1302 34.8799C69.0602 34.8999 68.8402 34.9199 68.7602 34.9199H68.2402V35.3899L68.3002 35.5099L68.3202 35.5699H68.8102C68.8702 35.5699 69.0102 35.5699 69.0702 35.5899C69.3202 35.7699 69.6102 35.9999 69.8302 36.2199C70.0202 36.4099 70.2202 36.5299 70.4502 36.4899C70.6802 36.4499 70.8802 36.2699 71.0102 36.0099C71.0102 35.9999 71.0202 35.9799 71.0302 35.9699C71.1802 35.7299 71.6502 35.5699 71.9402 35.5699H72.3702V34.9099H71.9502C71.6602 34.9099 71.1802 34.7399 71.0302 34.4899C71.0302 34.4899 71.0302 34.4699 71.0202 34.4599C70.8902 34.1899 70.6902 34.0099 70.4602 33.9699C70.2302 33.9299 70.0202 34.0599 69.8302 34.2499V34.2599Z" fill="#D9B487"/>
<path opacity="0.35" d="M69.8605 34.2399C69.6505 34.4399 69.3705 34.6599 69.1605 34.8599C69.0905 34.8799 68.8605 34.8999 68.7905 34.8999H68.2705V35.3699L68.3405 35.4899L68.3705 35.5499H68.8705C68.9305 35.5499 69.0805 35.5499 69.1305 35.5699C69.3705 35.7599 69.6605 35.9899 69.8905 36.1999C70.0805 36.3799 70.2805 36.4799 70.5005 36.4399C70.7205 36.3999 70.9105 36.2199 71.0405 35.9599C71.0405 35.9499 71.0505 35.9399 71.0605 35.9199C71.2005 35.6899 71.6905 35.5399 71.9605 35.5399H72.3905V34.8999H71.9805C71.7105 34.8999 71.2105 34.7399 71.0705 34.5099C71.0705 34.5099 71.0705 34.4899 71.0605 34.4799C70.9305 34.2199 70.7405 34.0299 70.5105 33.9899C70.2805 33.9499 70.0805 34.0599 69.8905 34.2399H69.8605Z" fill="#D6B081"/>
<path opacity="0.39" d="M69.8905 34.22C69.6705 34.41 69.3905 34.63 69.1805 34.85C69.1205 34.87 68.8705 34.88 68.8005 34.88H68.2705V35.35L68.3505 35.46L68.3805 35.52H68.8805C68.9305 35.52 69.0905 35.52 69.1405 35.54C69.3705 35.74 69.6705 35.98 69.9005 36.18C70.0905 36.34 70.2905 36.44 70.5105 36.39C70.7305 36.34 70.9105 36.17 71.0305 35.91C71.0305 35.9 71.0405 35.89 71.0505 35.87C71.1805 35.66 71.6905 35.52 71.9405 35.52H72.3605V34.89H71.9505C71.7005 34.89 71.1805 34.74 71.0505 34.53C71.0505 34.53 71.0505 34.51 71.0405 34.5C70.9205 34.24 70.7305 34.06 70.5105 34.01C70.2905 33.96 70.0905 34.07 69.9005 34.23L69.8905 34.22Z" fill="#D2AB7C"/>
<path opacity="0.43" d="M69.92 34.2C69.69 34.38 69.4 34.61 69.21 34.84C69.15 34.86 68.89 34.87 68.83 34.87H68.29V35.34L68.37 35.44L68.41 35.49H68.91C68.91 35.49 69.13 35.49 69.17 35.51C69.39 35.73 69.69 35.96 69.93 36.15C70.12 36.3 70.31 36.39 70.53 36.33C70.75 36.27 70.92 36.1 71.04 35.85C71.04 35.84 71.05 35.83 71.06 35.81C71.18 35.61 71.71 35.48 71.94 35.48H72.35V34.86H71.95C71.71 34.86 71.18 34.72 71.06 34.52C71.06 34.52 71.06 34.5 71.05 34.49C70.93 34.24 70.75 34.05 70.54 34C70.33 33.95 70.13 34.04 69.94 34.19L69.92 34.2Z" fill="#CFA776"/>
<path opacity="0.48" d="M69.95 34.1799C69.71 34.3499 69.42 34.5799 69.23 34.8199C69.17 34.8399 68.9 34.8499 68.84 34.8499H68.29V35.3199L68.38 35.4099L68.42 35.4599H68.92C68.92 35.4599 69.14 35.4599 69.18 35.4799C69.39 35.7099 69.69 35.9499 69.94 36.1299C70.13 36.2599 70.32 36.3399 70.53 36.2799C70.74 36.2199 70.91 36.0499 71.02 35.7999C71.02 35.7899 71.03 35.7799 71.04 35.7599C71.15 35.5799 71.7 35.4599 71.91 35.4599H72.32V34.8499H71.93C71.71 34.8499 71.16 34.7199 71.05 34.5399C71.05 34.5399 71.05 34.5199 71.04 34.5099C70.93 34.2599 70.76 34.0799 70.55 34.0199C70.34 33.9599 70.15 34.0399 69.96 34.1799H69.95Z" fill="#CCA370"/>
<path opacity="0.52" d="M69.9803 34.1599C69.7303 34.3199 69.4403 34.5499 69.2603 34.8099C69.2103 34.8299 68.9203 34.8399 68.8703 34.8399H68.3203V35.3099L68.4203 35.3999L68.4603 35.4399H68.9603C68.9603 35.4399 69.1903 35.4399 69.2203 35.4499C69.4203 35.6999 69.7203 35.9299 69.9803 36.0999C70.1703 36.2199 70.3603 36.2899 70.5603 36.2199C70.7603 36.1499 70.9203 35.9799 71.0303 35.7399C71.0303 35.7299 71.0403 35.7199 71.0503 35.7099C71.1503 35.5399 71.7103 35.4299 71.9103 35.4299H72.3103V34.8299H71.9203C71.7203 34.8299 71.1503 34.7099 71.0503 34.5399C71.0503 34.5399 71.0503 34.5199 71.0403 34.5099C70.9403 34.2599 70.7703 34.0799 70.5603 34.0199C70.3603 33.9599 70.1703 34.0199 69.9803 34.1499V34.1599Z" fill="#C89E6B"/>
<path opacity="0.57" d="M70.0103 34.14C69.7403 34.29 69.4603 34.52 69.2803 34.8C69.2303 34.82 68.9303 34.82 68.8803 34.82H68.3203V35.29L68.4303 35.37L68.4803 35.41H68.9903C68.9903 35.41 69.2203 35.41 69.2603 35.42C69.4503 35.68 69.7503 35.92 70.0203 36.08C70.2103 36.19 70.4003 36.24 70.5903 36.17C70.7803 36.1 70.9403 35.93 71.0403 35.69C71.0403 35.68 71.0403 35.67 71.0503 35.66C71.1403 35.51 71.7203 35.41 71.9003 35.41H72.2903V34.82H71.9103C71.7303 34.82 71.1403 34.71 71.0503 34.56C71.0503 34.56 71.0503 34.54 71.0403 34.53C70.9403 34.29 70.7803 34.11 70.5803 34.04C70.3803 33.97 70.2003 34.04 70.0103 34.14Z" fill="#C59A65"/>
<path opacity="0.61" d="M70.0398 34.1199C69.7598 34.2599 69.4698 34.4999 69.3098 34.7799C69.2698 34.7899 68.9498 34.7999 68.9098 34.7999H68.3398V35.2699L68.4598 35.3399L68.5098 35.3799H69.0198C69.0198 35.3799 69.2598 35.3799 69.2898 35.3899C69.4698 35.6699 69.7698 35.9099 70.0498 36.0499C70.2398 36.1499 70.4198 36.1899 70.6098 36.1199C70.7998 36.0499 70.9498 35.8699 71.0498 35.6399C71.0498 35.6299 71.0498 35.6199 71.0598 35.6099C71.1398 35.4699 71.7398 35.3799 71.8998 35.3799H72.2898V34.7999H71.9198C71.7598 34.7999 71.1498 34.6999 71.0698 34.5699C71.0698 34.5699 71.0698 34.5499 71.0598 34.5399C70.9698 34.2999 70.8098 34.1199 70.6198 34.0499C70.4298 33.9699 70.2498 34.0199 70.0498 34.1199H70.0398Z" fill="#C2965F"/>
<path opacity="0.65" d="M70.0706 34.09C69.7806 34.22 69.4906 34.46 69.3306 34.76C69.2906 34.77 68.9606 34.78 68.9206 34.78H68.3506V35.25L68.4806 35.31L68.5306 35.34H69.0406C69.0406 35.34 69.2806 35.34 69.3106 35.35C69.4806 35.64 69.7806 35.89 70.0706 36.02C70.2606 36.1 70.4406 36.14 70.6206 36.06C70.8006 35.98 70.9506 35.81 71.0406 35.58C71.0406 35.57 71.0406 35.56 71.0506 35.55C71.1306 35.43 71.7406 35.35 71.8806 35.35H72.2606V34.79H71.8906C71.7506 34.79 71.1206 34.71 71.0506 34.58C71.0506 34.58 71.0506 34.56 71.0506 34.55C70.9606 34.32 70.8106 34.14 70.6306 34.06C70.4506 33.98 70.2606 34.02 70.0706 34.1V34.09Z" fill="#BE915A"/>
<path opacity="0.7" d="M70.1001 34.0698C69.8001 34.1798 69.5101 34.4298 69.3601 34.7398C69.3301 34.7498 68.9801 34.7598 68.9501 34.7598H68.3701V35.2298L68.5001 35.2798L68.5601 35.3098H69.0701C69.0701 35.3098 69.3201 35.3098 69.3401 35.3098C69.5001 35.6098 69.8001 35.8598 70.1101 35.9798C70.3001 36.0498 70.4801 36.0698 70.6601 35.9798C70.8401 35.8898 70.9701 35.7198 71.0601 35.4998C71.0601 35.4898 71.0601 35.4798 71.0701 35.4698C71.1401 35.3598 71.7701 35.2898 71.8901 35.2898H72.2601V34.7398H71.9001C71.7701 34.7398 71.1301 34.6698 71.0701 34.5598C71.0701 34.5598 71.0701 34.5398 71.0701 34.5298C70.9901 34.2998 70.8401 34.1198 70.6701 34.0398C70.4901 33.9498 70.3101 33.9798 70.1201 34.0498L70.1001 34.0698Z" fill="#BB8D54"/>
<path opacity="0.74" d="M70.1301 34.05C69.8201 34.15 69.5201 34.4 69.3801 34.73C69.3501 34.73 68.9901 34.74 68.9601 34.74H68.3701V35.21L68.5101 35.26L68.5701 35.28H69.0801C69.0801 35.28 69.3301 35.28 69.3501 35.28C69.5001 35.6 69.8001 35.85 70.1201 35.96C70.3101 36.02 70.4901 36.03 70.6601 35.94C70.8301 35.85 70.9601 35.68 71.0401 35.46C71.0401 35.45 71.0401 35.44 71.0501 35.43C71.1101 35.34 71.7501 35.28 71.8601 35.28H72.2301V34.74H71.8801C71.7701 34.74 71.1101 34.68 71.0601 34.58C71.0601 34.58 71.0601 34.56 71.0601 34.55C70.9801 34.33 70.8401 34.15 70.6701 34.06C70.5001 33.97 70.3201 33.98 70.1301 34.04V34.05Z" fill="#B8884E"/>
<path opacity="0.78" d="M70.1604 34.0299C69.8404 34.1199 69.5404 34.3799 69.4104 34.7199C69.3904 34.7199 69.0104 34.7299 68.9904 34.7299H68.4004V35.1999L68.5504 35.2399L68.6104 35.2599H69.1304C69.1304 35.2599 69.3904 35.2599 69.4004 35.2599C69.5404 35.5899 69.8404 35.8499 70.1704 35.9399C70.3604 35.9899 70.5304 35.9799 70.7004 35.8899C70.8704 35.7999 70.9904 35.6299 71.0704 35.4099C71.0704 35.3999 71.0704 35.3899 71.0804 35.3799C71.1304 35.2999 71.7904 35.2499 71.8804 35.2499H72.2404V34.7199H71.8904C71.8004 34.7199 71.1204 34.6699 71.0804 34.5899C71.0804 34.5899 71.0804 34.5699 71.0804 34.5599C71.0104 34.3399 70.8804 34.1599 70.7104 34.0699C70.5504 33.9699 70.3704 33.9699 70.1804 34.0199L70.1604 34.0299Z" fill="#B58448"/>
<path opacity="0.83" d="M70.1902 34.01C69.8502 34.08 69.5602 34.35 69.4402 34.7C69.4202 34.7 69.0302 34.7 69.0102 34.7H68.4102V35.17L68.5702 35.2L68.6402 35.22H69.1602C69.1602 35.22 69.4202 35.22 69.4302 35.22C69.5602 35.57 69.8602 35.83 70.2002 35.91C70.3802 35.95 70.5602 35.93 70.7202 35.83C70.8702 35.73 71.0002 35.56 71.0702 35.35C71.0702 35.34 71.0702 35.33 71.0802 35.32C71.1202 35.26 71.8002 35.22 71.8702 35.22H72.2302V34.7H71.8902C71.8202 34.7 71.1202 34.66 71.0902 34.6C71.0902 34.6 71.0902 34.58 71.0902 34.57C71.0202 34.35 70.9002 34.18 70.7402 34.08C70.5802 33.98 70.4002 33.96 70.2202 34L70.1902 34.01Z" fill="#B18043"/>
<path opacity="0.87" d="M70.2199 33.9899C69.8699 34.0399 69.5799 34.3199 69.4599 34.6899C69.4499 34.6899 69.0399 34.6899 69.0299 34.6899H68.4199V35.1599L68.5899 35.1799H68.6599L69.1799 35.1899C69.1899 35.1899 69.4499 35.1899 69.4599 35.1899C69.5799 35.5499 69.8799 35.8299 70.2299 35.8799C70.4099 35.9099 70.5899 35.8799 70.7399 35.7699C70.8899 35.6699 70.9999 35.4999 71.0699 35.2899C71.0699 35.2799 71.0699 35.2699 71.0699 35.2599C71.0999 35.2099 71.7999 35.1799 71.8499 35.1799H72.1999V34.6699H71.8699C71.8199 34.6699 71.0999 34.6399 71.0799 34.5899C71.0799 34.5899 71.0799 34.5699 71.0799 34.5599C71.0199 34.3499 70.8999 34.1699 70.7499 34.0699C70.5999 33.9599 70.4199 33.9299 70.2399 33.9599L70.2199 33.9899Z" fill="#AE7B3D"/>
<path opacity="0.91" d="M70.2497 33.9699C69.8897 34.0099 69.5897 34.2899 69.4897 34.6799C69.4897 34.6799 69.0597 34.6799 69.0497 34.6799H68.4297V35.1499L68.6097 35.1699H68.6797H69.1997C69.1997 35.1699 69.4697 35.1699 69.4797 35.1699C69.5897 35.5399 69.8897 35.8299 70.2497 35.8699C70.4297 35.8899 70.6097 35.8399 70.7497 35.7299C70.8897 35.6199 70.9997 35.4499 71.0597 35.2499C71.0597 35.2399 71.0597 35.2299 71.0597 35.2199C71.0797 35.1899 71.7997 35.1699 71.8297 35.1699H72.1697V34.6699H71.8397C71.8397 34.6699 71.0697 34.6499 71.0597 34.6199V34.5999C70.9997 34.3899 70.8897 34.2199 70.7397 34.1099C70.5897 33.9999 70.4197 33.9499 70.2397 33.9699H70.2497Z" fill="#AB7737"/>
<path opacity="0.96" d="M70.2802 33.95C69.9102 33.97 69.6102 34.27 69.5102 34.66H69.0702H68.4502V35.13H68.6302L68.7102 35.14H69.2302H69.5102C69.6102 35.53 69.9102 35.82 70.2802 35.84C70.4602 35.84 70.6302 35.79 70.7702 35.67C70.9102 35.56 71.0102 35.39 71.0602 35.19C71.0602 35.19 71.0602 35.17 71.0602 35.16C71.0602 35.14 71.8002 35.13 71.8202 35.13H72.1602V34.65H71.8402C71.8402 34.65 71.0702 34.64 71.0702 34.62V34.6C71.0202 34.4 70.9102 34.22 70.7702 34.1C70.6302 33.98 70.4602 33.92 70.2802 33.93V33.95Z" fill="#A77232"/>
<path d="M71.0897 34.6399C70.9997 34.2299 70.6997 33.9199 70.3197 33.9199C69.9397 33.9199 69.6397 34.2299 69.5497 34.6399H68.4697V35.1099H69.5497C69.6397 35.5099 69.9497 35.8199 70.3197 35.8199C70.6897 35.8199 70.9997 35.5199 71.0897 35.1099H72.1697V34.6399H71.0897Z" fill="#A46E2C"/>
</g>
<path d="M71.2603 34.8001C71.2603 35.3201 70.8404 35.7501 70.3104 35.7501C69.7804 35.7501 69.3604 35.3301 69.3604 34.8001C69.3604 34.2701 69.7804 33.8501 70.3104 33.8501C70.8404 33.8501 71.2603 34.2701 71.2603 34.8001Z" fill="url(#paint33_linear_53_542)"/>
<path d="M71.2603 34.8699C71.2603 35.3899 70.8404 35.8199 70.3104 35.8199C69.7804 35.8199 69.3604 35.3999 69.3604 34.8699C69.3604 34.3399 69.7804 33.9199 70.3104 33.9199C70.8404 33.9199 71.2603 34.3399 71.2603 34.8699Z" fill="url(#paint34_linear_53_542)"/>
<path d="M69.6204 34.6399H68.1504V35.1099H69.6204V34.6399Z" fill="url(#paint35_linear_53_542)"/>
<path d="M72.47 34.6399H71V35.1099H72.47V34.6399Z" fill="url(#paint36_linear_53_542)"/>
<path d="M69.6204 34.6299H68.1504V34.9899H69.6204V34.6299Z" fill="url(#paint37_linear_53_542)"/>
<path d="M72.47 34.6299H71V34.9899H72.47V34.6299Z" fill="url(#paint38_linear_53_542)"/>
<path d="M69.6204 34.7H68.1504V35.06H69.6204V34.7Z" fill="url(#paint39_linear_53_542)"/>
<path d="M72.47 34.7H71V35.06H72.47V34.7Z" fill="url(#paint40_linear_53_542)"/>
<path d="M70.7798 34.8001C70.7798 35.0601 70.5698 35.2701 70.3098 35.2701C70.0498 35.2701 69.8398 35.0601 69.8398 34.8001C69.8398 34.5401 70.0498 34.3301 70.3098 34.3301C70.5698 34.3301 70.7798 34.5401 70.7798 34.8001Z" fill="url(#paint41_linear_53_542)"/>
<path d="M70.7798 34.8699C70.7798 35.1299 70.5698 35.3399 70.3098 35.3399C70.0498 35.3399 69.8398 35.1299 69.8398 34.8699C69.8398 34.6099 70.0498 34.3999 70.3098 34.3999C70.5698 34.3999 70.7798 34.6099 70.7798 34.8699Z" fill="url(#paint42_linear_53_542)"/>
<path d="M111.39 93.07H29.2396C29.0496 93.07 28.8896 92.96 28.8896 92.83V37.96C28.8896 37.83 29.0496 37.72 29.2396 37.72H111.4C111.59 37.72 111.75 37.83 111.75 37.96V92.83C111.75 92.96 111.59 93.07 111.4 93.07H111.39Z" fill="url(#paint43_linear_53_542)"/>
<path d="M111.28 93.4399H29.1596C28.9696 93.4399 28.8096 93.3299 28.8096 93.1999V38.3599C28.8096 38.2299 28.9696 38.1199 29.1596 38.1199H111.27C111.46 38.1199 111.62 38.2299 111.62 38.3599V93.1999C111.62 93.3299 111.46 93.4399 111.27 93.4399H111.28Z" fill="url(#paint44_linear_53_542)"/>
<path d="M111.369 93.2299H29.2592C29.0692 93.2299 28.9092 93.1199 28.9092 92.9899V38.1499C28.9092 38.0199 29.0692 37.9099 29.2592 37.9099H111.369C111.559 37.9099 111.719 38.0199 111.719 38.1499V92.9899C111.719 93.1199 111.559 93.2299 111.369 93.2299Z" fill="url(#paint45_linear_53_542)"/>
<path d="M163.89 99.29C163.71 98.68 162.75 96.3 162.14 95.79C160.32 94.26 164.06 100.2 158.33 99.7C152.6 99.2 157.72 105.94 150.56 108.59C144.01 111.01 144.08 124.46 135.22 126.22C130.64 127.13 122.93 127.98 117.3 126.32C111.64 124.64 108.07 120.45 108.12 122.72C108.14 123.6 109.11 125.16 109.49 125.93C112.44 131.76 129.01 133.85 143.78 128.76C146.54 127.81 149.03 126.44 151.24 124.81C151.24 124.81 155.7 121.57 151.81 117.06C151.81 117.06 152.03 117.84 149.82 116.82C149.82 116.82 147.39 116.37 149.85 113.82C149.85 113.82 151.86 111.63 156.47 109.83C156.47 109.83 165.02 105.8 163.87 99.32L163.89 99.29Z" fill="url(#paint46_linear_53_542)"/>
<path d="M132.67 114.79C132.13 114.46 131.72 114.02 131.51 113.48C130.57 111.13 133.48 107.75 138.02 105.94C142.55 104.13 146.99 104.57 147.93 106.92C148.03 107.18 148.09 107.45 148.1 107.72H148.12C146.29 106.59 142.87 106.66 139.38 108.05C135.33 109.67 132.57 112.54 132.7 114.81L132.67 114.79Z" fill="url(#paint47_linear_53_542)"/>
<path d="M163.29 98.1699C162.37 95.1099 159.72 92.5099 152.56 91.8799C147.03 91.3899 139.68 92.9199 132.52 95.5599C117.86 100.97 105.22 113.53 108.03 122.61C109.9 128.64 127.98 131.54 142.75 126.45C145.51 125.5 148 124.13 150.21 122.5C150.21 122.5 153.6 119.83 151.83 117.11C151.83 117.11 151.22 116.16 149.01 115.14C149.01 115.14 146.36 114.05 148.82 111.5C148.82 111.5 150.79 109.24 155.4 107.76C155.4 107.76 164.43 104.65 163.29 98.1699ZM141.41 114.46C137.92 115.86 134.48 115.92 132.66 114.8C132.12 114.47 131.71 114.03 131.5 113.49C130.56 111.14 133.47 107.76 138.01 105.95C142.54 104.14 146.98 104.58 147.92 106.93C148.02 107.19 148.08 107.46 148.09 107.73C148.2 110 145.45 112.85 141.41 114.46Z" fill="url(#paint48_radial_53_542)"/>
<path d="M139.41 97.3599C139.45 97.4999 139.46 97.6499 139.45 97.7999C139.31 99.0299 137.27 100.54 134.52 101.35C132.15 102.06 129.93 102.04 128.87 101.4C128.55 101.21 128.34 100.97 128.25 100.67C127.87 99.3799 130.06 97.5899 133.14 96.6799C136.22 95.7699 139.03 96.0699 139.42 97.3599H139.41Z" fill="url(#paint49_radial_53_542)"/>
<path d="M128.88 101.41C128.56 101.2 128.34 100.94 128.24 100.63C127.83 99.26 130 97.41 133.09 96.49C136.17 95.57 139 95.94 139.41 97.31C139.45 97.46 139.47 97.62 139.45 97.77H139.46C138.58 96.4 135.61 96.66 133.24 97.36C130.48 98.18 127.93 99.86 128.89 101.42H128.87L128.88 101.41Z" fill="url(#paint50_linear_53_542)"/>
<path opacity="0.55" d="M139.29 97.6C139.29 97.6 138.05 96.24 133.83 97.26C133.83 97.26 137.58 96.72 139.29 97.6Z" fill="white"/>
<path d="M155.57 95.8501C155.61 95.9901 155.62 96.1401 155.61 96.2901C155.47 97.5201 153.43 99.0301 150.68 99.8401C148.31 100.55 146.09 100.53 145.03 99.8901C144.71 99.7001 144.5 99.4601 144.41 99.1601C144.03 97.8701 146.22 96.0801 149.3 95.1701C152.38 94.2501 155.19 94.5601 155.58 95.8501H155.57Z" fill="url(#paint51_radial_53_542)"/>
<path d="M145.039 99.89C144.719 99.68 144.499 99.42 144.399 99.11C143.989 97.74 146.159 95.89 149.249 94.97C152.339 94.05 155.159 94.42 155.569 95.79C155.609 95.94 155.629 96.1 155.609 96.25H155.619C154.739 94.88 151.769 95.14 149.399 95.84C146.639 96.66 144.089 98.34 145.049 99.9H145.029L145.039 99.89Z" fill="url(#paint52_linear_53_542)"/>
<path opacity="0.55" d="M155.45 96.0899C155.45 96.0899 154.21 94.7299 149.99 95.7499C149.99 95.7499 153.74 95.2099 155.45 96.0899Z" fill="white"/>
<path d="M127.24 105.43C127.28 105.59 127.3 105.75 127.28 105.92C127.13 107.29 124.99 108.96 122.09 109.86C119.59 110.64 117.26 110.62 116.14 109.92C115.8 109.71 115.58 109.44 115.48 109.11C115.08 107.68 117.38 105.7 120.63 104.68C123.88 103.66 126.84 104 127.24 105.43Z" fill="url(#paint53_radial_53_542)"/>
<path d="M116.15 109.91C115.81 109.68 115.58 109.39 115.48 109.04C115.05 107.52 117.34 105.47 120.58 104.45C123.83 103.43 126.81 103.84 127.24 105.36C127.29 105.53 127.3 105.7 127.29 105.88H127.31C126.38 104.36 123.26 104.65 120.76 105.43C117.86 106.34 115.17 108.21 116.18 109.93H116.16L116.15 109.91Z" fill="url(#paint54_linear_53_542)"/>
<path opacity="0.55" d="M127.11 105.69C127.11 105.69 125.8 104.18 121.36 105.31C121.36 105.31 125.31 104.72 127.11 105.69Z" fill="white"/>
<path d="M124.3 115.41C124.35 115.59 124.36 115.79 124.34 115.99C124.18 117.6 121.82 119.58 118.65 120.65C115.91 121.57 113.35 121.55 112.12 120.72C111.75 120.47 111.5 120.15 111.4 119.76C110.96 118.07 113.49 115.73 117.05 114.53C120.61 113.33 123.86 113.73 124.3 115.42V115.41Z" fill="url(#paint55_radial_53_542)"/>
<path d="M112.14 120.71C111.77 120.44 111.51 120.1 111.4 119.68C110.93 117.88 113.44 115.46 117 114.25C120.56 113.05 123.83 113.53 124.3 115.33C124.35 115.53 124.37 115.73 124.35 115.94H124.37C123.35 114.15 119.93 114.48 117.19 115.4C114.01 116.47 111.06 118.68 112.17 120.72L112.15 120.7L112.14 120.71Z" fill="url(#paint56_linear_53_542)"/>
<path opacity="0.55" d="M124.17 115.72C124.17 115.72 122.74 113.93 117.87 115.27C117.87 115.27 122.2 114.57 124.17 115.72Z" fill="white"/>
<path d="M135.79 119.58C135.84 119.77 135.85 119.97 135.83 120.17C135.66 121.83 133.23 123.87 129.96 124.97C127.13 125.92 124.5 125.9 123.22 125.04C122.84 124.78 122.58 124.45 122.48 124.05C122.02 122.31 124.63 119.9 128.3 118.66C131.97 117.42 135.32 117.83 135.78 119.57L135.79 119.58Z" fill="url(#paint57_radial_53_542)"/>
<path d="M123.24 125.04C122.85 124.76 122.59 124.41 122.48 123.98C122 122.13 124.58 119.63 128.25 118.39C131.92 117.15 135.29 117.65 135.78 119.5C135.83 119.7 135.85 119.91 135.83 120.13H135.85C134.8 118.29 131.27 118.63 128.44 119.58C125.15 120.69 122.11 122.96 123.26 125.05L123.24 125.03V125.04Z" fill="url(#paint58_linear_53_542)"/>
<path opacity="0.55" d="M135.65 119.9C135.65 119.9 134.17 118.06 129.15 119.44C129.15 119.44 133.62 118.72 135.65 119.9Z" fill="white"/>
<path d="M119.49 103.06C119.49 103.06 129.15 96.41 139.25 93.74C139.25 93.74 128.47 95.97 119.49 103.06Z" fill="white"/>
<path d="M161.93 91.77C160.94 93.33 159.38 94.44 157.79 95.38C155.61 96.68 153.28 97.77 150.79 98.23C150.31 98.32 149.78 98.38 149.34 98.15C148.64 97.78 148.5 96.78 148.79 96.04C149.08 95.3 149.68 94.73 150.2 94.13C151.15 93.02 151.75 87.46 152.13 85.8C152.51 84.14 154.37 81.93 155.84 81.06C156.59 80.62 157.45 80.43 158.31 80.33C159.53 80.19 160.83 80.22 161.88 80.85C163.69 81.93 163.85 84.09 163.85 85.85C163.85 87.94 163.07 89.96 161.92 91.76L161.93 91.77Z" fill="url(#paint59_radial_53_542)"/>
<path d="M151.811 87.6699C151.431 89.9899 150.921 93.3199 150.211 94.1499C149.691 94.7499 149.101 95.3199 148.801 96.0599C148.501 96.7999 148.651 97.7899 149.351 98.1699C149.781 98.3999 150.311 98.3399 150.801 98.2499C153.291 97.7899 155.621 96.6999 157.801 95.3999C157.891 95.2399 157.701 94.9899 157.521 94.9399C157.341 94.8899 157.161 94.9399 156.981 94.9799C156.611 95.0799 156.241 95.1799 155.871 95.2799C155.811 95.2999 155.741 95.3099 155.681 95.2999C155.471 95.2499 155.501 94.9299 155.591 94.7299C155.681 94.5299 155.751 94.2299 155.541 94.1399C155.451 94.0999 155.361 94.1299 155.271 94.1099C155.111 94.0699 155.011 93.8899 155.021 93.7299C155.031 93.5699 155.121 93.4199 155.221 93.2799C155.501 92.8999 155.861 92.5999 156.171 92.2499C156.481 91.8999 156.731 91.4599 156.731 90.9999C156.731 90.8099 156.681 90.6099 156.541 90.4799C156.301 90.2399 155.891 90.2999 155.621 90.4899C155.351 90.6799 155.161 90.9699 154.941 91.2199C154.351 91.8899 153.481 92.2599 152.591 92.3399C152.541 92.3399 152.491 92.3399 152.451 92.3299C152.391 92.2999 152.351 92.2399 152.331 92.1799C152.161 91.6999 152.681 91.0899 152.341 90.7199C152.271 90.6399 152.171 90.5899 152.111 90.5099C151.991 90.3399 152.051 90.1099 152.131 89.9199C152.281 89.5699 152.461 89.2199 152.491 88.8399C152.521 88.4599 152.361 88.0299 152.001 87.8999L151.801 87.6599L151.811 87.6699Z" fill="url(#paint60_radial_53_542)"/>
<path d="M176.16 55.91C177.22 56.95 177.51 58.55 176.86 59.89L165.35 83.22C164.44 84.99 161.66 85.37 159.13 84.08C156.6 82.78 155.29 80.3 156.19 78.53L169.39 55.7C170.23 54.28 171.96 53.63 173.52 54.19C174.34 54.48 175.25 55 176.16 55.9V55.91Z" fill="url(#paint61_linear_53_542)"/>
<path d="M156.19 78.53C155.92 78.76 155.7 79.04 155.53 79.36C154.58 81.21 155.95 83.81 158.59 85.17C161.23 86.52 164.14 86.11 165.09 84.26C165.28 83.89 165.38 83.49 165.39 83.08H165.36C164.05 84.14 161.73 84.2 159.59 83.11C157.45 82.02 156.19 80.16 156.23 78.51L156.19 78.53Z" fill="url(#paint62_radial_53_542)"/>
<defs>
<radialGradient id="paint0_radial_53_542" cx="0" cy="0" r="1" gradientUnits="userSpaceOnUse" gradientTransform="translate(70.2472 138.83) scale(6.7848 1.1308)">
<stop stop-color="#919191"/>
<stop offset="0.21" stop-color="#B7B7B7"/>
<stop offset="0.42" stop-color="#D6D6D6"/>
<stop offset="0.63" stop-color="#ECECEC"/>
<stop offset="0.82" stop-color="#FAFAFA"/>
<stop offset="1" stop-color="white"/>
</radialGradient>
<radialGradient id="paint1_radial_53_542" cx="0" cy="0" r="1" gradientUnits="userSpaceOnUse" gradientTransform="translate(70.2468 146.686) scale(50.1402 8.3567)">
<stop stop-color="#DEDEDE"/>
<stop offset="0.56" stop-color="#F3F3F3"/>
<stop offset="1" stop-color="white"/>
</radialGradient>
<linearGradient id="paint2_linear_53_542" x1="68.1504" y1="83.05" x2="72.4704" y2="83.05" gradientUnits="userSpaceOnUse">
<stop stop-color="#BB8034"/>
<stop offset="0.1" stop-color="#DCB170"/>
<stop offset="0.17" stop-color="#E9C386"/>
<stop offset="0.92" stop-color="#CB9852"/>
<stop offset="1" stop-color="#F7D89F"/>
</linearGradient>
<linearGradient id="paint3_linear_53_542" x1="70.3104" y1="140.56" x2="70.3104" y2="113.32" gradientUnits="userSpaceOnUse">
<stop stop-color="white"/>
<stop offset="1" stop-color="#BB8034"/>
</linearGradient>
<linearGradient id="paint4_linear_53_542" x1="20.0004" y1="35.91" x2="21.0004" y2="29.22" gradientUnits="userSpaceOnUse">
<stop stop-color="white"/>
<stop offset="1" stop-color="#BB8034"/>
</linearGradient>
<linearGradient id="paint5_linear_53_542" x1="70.3098" y1="128.21" x2="70.3098" y2="132.44" gradientUnits="userSpaceOnUse">
<stop stop-color="#F7D89F"/>
<stop offset="0.16" stop-color="#D9AC6A"/>
<stop offset="0.73" stop-color="#E9C386"/>
<stop offset="1" stop-color="#BB8034"/>
</linearGradient>
<linearGradient id="paint6_linear_53_542" x1="93.5195" y1="130.11" x2="100.36" y2="130.11" gradientUnits="userSpaceOnUse">
<stop stop-color="white"/>
<stop offset="1" stop-color="#BB8034"/>
</linearGradient>
<linearGradient id="paint7_linear_53_542" x1="45.5998" y1="130.11" x2="41.2898" y2="130.11" gradientUnits="userSpaceOnUse">
<stop stop-color="white"/>
<stop offset="1" stop-color="#BB8034"/>
</linearGradient>
<linearGradient id="paint8_linear_53_542" x1="92.5401" y1="150.26" x2="92.5401" y2="20.1799" gradientUnits="userSpaceOnUse">
<stop stop-color="#F7D89F"/>
<stop offset="0.65" stop-color="#E9C386"/>
<stop offset="1" stop-color="#F2D095"/>
</linearGradient>
<linearGradient id="paint9_linear_53_542" x1="89.6503" y1="150.64" x2="89.6503" y2="27.0599" gradientUnits="userSpaceOnUse">
<stop stop-color="#D4B17A"/>
<stop offset="1" stop-color="#A6712E"/>
</linearGradient>
<linearGradient id="paint10_linear_53_542" x1="94.1398" y1="94.9101" x2="94.9498" y2="100.92" gradientUnits="userSpaceOnUse">
<stop stop-color="white"/>
<stop offset="0.05" stop-color="#F9F7F4"/>
<stop offset="0.13" stop-color="#EAE2D8"/>
<stop offset="0.24" stop-color="#D3C1AB"/>
<stop offset="0.36" stop-color="#B2936D"/>
<stop offset="0.49" stop-color="#8E6128"/>
<stop offset="1" stop-color="white"/>
</linearGradient>
<linearGradient id="paint11_linear_53_542" x1="80.3596" y1="30.5999" x2="82.1296" y2="40.5699" gradientUnits="userSpaceOnUse">
<stop stop-color="white"/>
<stop offset="0.05" stop-color="#FBF8F4"/>
<stop offset="0.13" stop-color="#F2E7D8"/>
<stop offset="0.25" stop-color="#E3CAAB"/>
<stop offset="0.38" stop-color="#CEA46D"/>
<stop offset="0.49" stop-color="#BB8034"/>
<stop offset="1" stop-color="white"/>
</linearGradient>
<linearGradient id="paint12_linear_53_542" x1="48.0804" y1="-0.00010621" x2="48.0804" y2="-0.00010621" gradientUnits="userSpaceOnUse">
<stop stop-color="#F7D89F"/>
<stop offset="0.65" stop-color="#E9C386"/>
<stop offset="1" stop-color="#F2D095"/>
</linearGradient>
<linearGradient id="paint13_linear_53_542" x1="36.6104" y1="86.3099" x2="65.3503" y2="86.3099" gradientUnits="userSpaceOnUse">
<stop stop-color="#D4B17A"/>
<stop offset="1" stop-color="#A6712E"/>
</linearGradient>
<linearGradient id="paint14_linear_53_542" x1="46.5003" y1="93.8601" x2="45.5403" y2="101.51" gradientUnits="userSpaceOnUse">
<stop stop-color="white"/>
<stop offset="0.05" stop-color="#F9F7F4"/>
<stop offset="0.13" stop-color="#EAE2D8"/>
<stop offset="0.24" stop-color="#D3C1AB"/>
<stop offset="0.36" stop-color="#B2936D"/>
<stop offset="0.49" stop-color="#8E6128"/>
<stop offset="1" stop-color="white"/>
</linearGradient>
<linearGradient id="paint15_linear_53_542" x1="60.3402" y1="29.6299" x2="59.3802" y2="39.1899" gradientUnits="userSpaceOnUse">
<stop stop-color="white"/>
<stop offset="0.05" stop-color="#FBF8F4"/>
<stop offset="0.14" stop-color="#F2E7D9"/>
<stop offset="0.18" stop-color="#EDDDC9"/>
<stop offset="0.23" stop-color="#E7D2B8"/>
<stop offset="0.32" stop-color="#D8B78C"/>
<stop offset="0.45" stop-color="#C18C47"/>
<stop offset="0.49" stop-color="#BB8034"/>
<stop offset="1" stop-color="white"/>
</linearGradient>
<linearGradient id="paint16_linear_53_542" x1="70.3098" y1="33.6299" x2="70.3098" y2="37.3699" gradientUnits="userSpaceOnUse">
<stop stop-color="#F7D89F"/>
<stop offset="0.16" stop-color="#D9AC6A"/>
<stop offset="0.73" stop-color="#E9C386"/>
<stop offset="1" stop-color="#BB8034"/>
</linearGradient>
<linearGradient id="paint17_linear_53_542" x1="70.3098" y1="38.5901" x2="70.3098" y2="37.3501" gradientUnits="userSpaceOnUse">
<stop stop-color="#D4B17A"/>
<stop offset="1" stop-color="#A6712E"/>
</linearGradient>
<linearGradient id="paint18_linear_53_542" x1="65.6298" y1="36.0499" x2="75.0598" y2="36.0499" gradientUnits="userSpaceOnUse">
<stop stop-color="white"/>
<stop offset="0.05" stop-color="#FBF8F4"/>
<stop offset="0.13" stop-color="#F2E7D8"/>
<stop offset="0.25" stop-color="#E3CAAB"/>
<stop offset="0.38" stop-color="#CEA46D"/>
<stop offset="0.49" stop-color="#BB8034"/>
<stop offset="1" stop-color="white"/>
</linearGradient>
<linearGradient id="paint19_linear_53_542" x1="20.0004" y1="50.69" x2="21.0004" y2="50.69" gradientUnits="userSpaceOnUse">
<stop stop-color="#BB8034"/>
<stop offset="0.1" stop-color="#DCB170"/>
<stop offset="0.17" stop-color="#E9C386"/>
<stop offset="0.92" stop-color="#CB9852"/>
<stop offset="1" stop-color="#F7D89F"/>
</linearGradient>
<linearGradient id="paint20_linear_53_542" x1="70.3104" y1="21.38" x2="70.3104" y2="1.95" gradientUnits="userSpaceOnUse">
<stop/>
<stop offset="1" stop-color="#827153"/>
</linearGradient>
<linearGradient id="paint21_linear_53_542" x1="70.3104" y1="99.7799" x2="70.3104" y2="90.7799" gradientUnits="userSpaceOnUse">
<stop stop-color="white"/>
<stop offset="0.05" stop-color="#FBF8F4"/>
<stop offset="0.13" stop-color="#F2E7D8"/>
<stop offset="0.25" stop-color="#E3CAAB"/>
<stop offset="0.38" stop-color="#CEA46D"/>
<stop offset="0.49" stop-color="#BB8034"/>
<stop offset="1" stop-color="white"/>
</linearGradient>
<linearGradient id="paint22_linear_53_542" x1="20.0004" y1="93.4299" x2="21.0004" y2="97.0899" gradientUnits="userSpaceOnUse">
<stop stop-color="#F7D89F"/>
<stop offset="0.16" stop-color="#D9AC6A"/>
<stop offset="0.73" stop-color="#E9C386"/>
<stop offset="1" stop-color="#BB8034"/>
</linearGradient>
<linearGradient id="paint23_linear_53_542" x1="70.3104" y1="98.48" x2="70.3104" y2="97.05" gradientUnits="userSpaceOnUse">
<stop stop-color="#D4B17A"/>
<stop offset="1" stop-color="#A6712E"/>
</linearGradient>
<linearGradient id="paint24_linear_53_542" x1="70.3104" y1="98.48" x2="70.3104" y2="97.05" gradientUnits="userSpaceOnUse">
<stop stop-color="#BB8034"/>
<stop offset="1" stop-color="white"/>
</linearGradient>
<linearGradient id="paint25_linear_53_542" x1="70.3098" y1="98.12" x2="70.3098" y2="101.43" gradientUnits="userSpaceOnUse">
<stop stop-color="#A97532"/>
<stop offset="0.27" stop-color="#D9AC6A"/>
<stop offset="0.73" stop-color="#E9C386"/>
<stop offset="1" stop-color="#BB8034"/>
</linearGradient>
<linearGradient id="paint26_linear_53_542" x1="70.3098" y1="101.65" x2="70.3098" y2="98.16" gradientUnits="userSpaceOnUse">
<stop stop-color="white"/>
<stop offset="1" stop-color="#BB8034"/>
</linearGradient>
<linearGradient id="paint27_linear_53_542" x1="70.3103" y1="102.59" x2="70.3103" y2="101.36" gradientUnits="userSpaceOnUse">
<stop stop-color="#D4B17A"/>
<stop offset="1" stop-color="#A6712E"/>
</linearGradient>
<linearGradient id="paint28_linear_53_542" x1="70.3102" y1="37.12" x2="70.3102" y2="32.64" gradientUnits="userSpaceOnUse">
<stop stop-color="#BB8034"/>
<stop offset="0.1" stop-color="#DCB170"/>
<stop offset="0.17" stop-color="#E9C386"/>
<stop offset="0.92" stop-color="#CB9852"/>
<stop offset="1" stop-color="#F7D89F"/>
</linearGradient>
<linearGradient id="paint29_linear_53_542" x1="70.3104" y1="37.98" x2="70.3104" y2="40.3" gradientUnits="userSpaceOnUse">
<stop stop-color="#BB8034"/>
<stop offset="1" stop-color="white"/>
</linearGradient>
<linearGradient id="paint30_linear_53_542" x1="71.3902" y1="33.8" x2="69.5802" y2="35.61" gradientUnits="userSpaceOnUse">
<stop stop-color="#818181"/>
<stop offset="0.41" stop-color="#475055"/>
<stop offset="0.65" stop-color="#6D7073"/>
<stop offset="0.8" stop-color="#5C6166"/>
<stop offset="1" stop-color="#333F45"/>
</linearGradient>
<linearGradient id="paint31_linear_53_542" x1="71.1897" y1="34" x2="69.7097" y2="35.47" gradientUnits="userSpaceOnUse">
<stop stop-color="#333F45"/>
<stop offset="0.2" stop-color="#5C6166"/>
<stop offset="0.35" stop-color="#6D7073"/>
<stop offset="0.59" stop-color="#475055"/>
<stop offset="1" stop-color="#818181"/>
</linearGradient>
<radialGradient id="paint32_radial_53_542" cx="0" cy="0" r="1" gradientUnits="userSpaceOnUse" gradientTransform="translate(70.3104 34.8699) scale(0.949999 0.950001)">
<stop stop-color="#333F45"/>
<stop offset="0.2" stop-color="#5C6166"/>
<stop offset="0.35" stop-color="#6D7073"/>
<stop offset="0.59" stop-color="#475055"/>
<stop offset="1" stop-color="#818181"/>
</radialGradient>
<linearGradient id="paint33_linear_53_542" x1="70.9803" y1="34.1301" x2="69.6403" y2="35.4701" gradientUnits="userSpaceOnUse">
<stop stop-color="#E2E2E2"/>
<stop offset="0.41" stop-color="#98ABB6"/>
<stop offset="0.65" stop-color="#C9CED4"/>
<stop offset="0.8" stop-color="#B3BDC7"/>
<stop offset="1" stop-color="#7B98A6"/>
</linearGradient>
<linearGradient id="paint34_linear_53_542" x1="70.9803" y1="34.1999" x2="69.6403" y2="35.5399" gradientUnits="userSpaceOnUse">
<stop stop-color="#818181"/>
<stop offset="0.41" stop-color="#475055"/>
<stop offset="0.65" stop-color="#6D7073"/>
<stop offset="0.8" stop-color="#5C6166"/>
<stop offset="1" stop-color="#333F45"/>
</linearGradient>
<linearGradient id="paint35_linear_53_542" x1="68.4104" y1="34.3999" x2="69.3804" y2="35.3699" gradientUnits="userSpaceOnUse">
<stop stop-color="#333F45"/>
<stop offset="0.2" stop-color="#5C6166"/>
<stop offset="0.35" stop-color="#6D7073"/>
<stop offset="0.59" stop-color="#475055"/>
<stop offset="1" stop-color="#818181"/>
</linearGradient>
<linearGradient id="paint36_linear_53_542" x1="71.26" y1="34.3999" x2="72.23" y2="35.3699" gradientUnits="userSpaceOnUse">
<stop stop-color="#333F45"/>
<stop offset="0.2" stop-color="#5C6166"/>
<stop offset="0.35" stop-color="#6D7073"/>
<stop offset="0.59" stop-color="#475055"/>
<stop offset="1" stop-color="#818181"/>
</linearGradient>
<linearGradient id="paint37_linear_53_542" x1="68.1904" y1="34.7999" x2="69.6704" y2="34.7999" gradientUnits="userSpaceOnUse">
<stop stop-color="#E2E2E2"/>
<stop offset="0.41" stop-color="#98ABB6"/>
<stop offset="0.65" stop-color="#C9CED4"/>
<stop offset="0.8" stop-color="#B3BDC7"/>
<stop offset="1" stop-color="#7B98A6"/>
</linearGradient>
<linearGradient id="paint38_linear_53_542" x1="72.4" y1="34.7999" x2="71.03" y2="34.7999" gradientUnits="userSpaceOnUse">
<stop stop-color="#E2E2E2"/>
<stop offset="0.41" stop-color="#98ABB6"/>
<stop offset="0.65" stop-color="#C9CED4"/>
<stop offset="0.8" stop-color="#B3BDC7"/>
<stop offset="1" stop-color="#7B98A6"/>
</linearGradient>
<linearGradient id="paint39_linear_53_542" x1="68.1904" y1="34.88" x2="69.6704" y2="34.88" gradientUnits="userSpaceOnUse">
<stop stop-color="#818181"/>
<stop offset="0.3" stop-color="#475055"/>
<stop offset="0.65" stop-color="#B8BDC2"/>
<stop offset="0.8" stop-color="#5C6166"/>
<stop offset="1" stop-color="#333F45"/>
</linearGradient>
<linearGradient id="paint40_linear_53_542" x1="72.4" y1="-0.000106677" x2="71.03" y2="-0.000106677" gradientUnits="userSpaceOnUse">
<stop stop-color="#818181"/>
<stop offset="0.3" stop-color="#475055"/>
<stop offset="0.65" stop-color="#B8BDC2"/>
<stop offset="0.8" stop-color="#5C6166"/>
<stop offset="1" stop-color="#333F45"/>
</linearGradient>
<linearGradient id="paint41_linear_53_542" x1="70.6398" y1="34.4701" x2="69.9798" y2="35.1301" gradientUnits="userSpaceOnUse">
<stop stop-color="#E2E2E2"/>
<stop offset="0.41" stop-color="#98ABB6"/>
<stop offset="0.65" stop-color="#C9CED4"/>
<stop offset="0.8" stop-color="#B3BDC7"/>
<stop offset="1" stop-color="#7B98A6"/>
</linearGradient>
<linearGradient id="paint42_linear_53_542" x1="70.6398" y1="34.5399" x2="69.9798" y2="35.1999" gradientUnits="userSpaceOnUse">
<stop stop-color="#818181"/>
<stop offset="0.41" stop-color="#475055"/>
<stop offset="0.65" stop-color="#6D7073"/>
<stop offset="0.8" stop-color="#5C6166"/>
<stop offset="1" stop-color="#333F45"/>
</linearGradient>
<linearGradient id="paint43_linear_53_542" x1="35.8496" y1="99.87" x2="101.92" y2="33.8" gradientUnits="userSpaceOnUse">
<stop stop-color="white"/>
<stop offset="1" stop-color="#FBFBFB"/>
</linearGradient>
<linearGradient id="paint44_linear_53_542" x1="35.7696" y1="100.24" x2="101.81" y2="34.1999" gradientUnits="userSpaceOnUse">
<stop stop-color="#CECECE"/>
<stop offset="1" stop-color="#C5C5C5"/>
</linearGradient>
<linearGradient id="paint45_linear_53_542" x1="35.8692" y1="100.03" x2="101.899" y2="33.9899" gradientUnits="userSpaceOnUse">
<stop stop-color="#EDEDED"/>
<stop offset="1" stop-color="#E4E4E4"/>
</linearGradient>
<linearGradient id="paint46_linear_53_542" x1="118.43" y1="105.62" x2="158.55" y2="119.92" gradientUnits="userSpaceOnUse">
<stop stop-color="#EFEFEF"/>
<stop offset="0.56" stop-color="#F7F8F8"/>
<stop offset="0.88" stop-color="#DCDDDD"/>
</linearGradient>
<linearGradient id="paint47_linear_53_542" x1="129.62" y1="93.7899" x2="138.81" y2="108.71" gradientUnits="userSpaceOnUse">
<stop stop-color="#B1B9BB"/>
<stop offset="0.35" stop-color="#CFD2D2"/>
<stop offset="0.56" stop-color="#DCDDDD"/>
<stop offset="0.9" stop-color="#BBC1C3"/>
<stop offset="1" stop-color="#B1B9BB"/>
</linearGradient>
<radialGradient id="paint48_radial_53_542" cx="0" cy="0" r="1" gradientUnits="userSpaceOnUse" gradientTransform="translate(129.81 123.58) scale(44.17 44.17)">
<stop offset="0.32" stop-color="white"/>
<stop offset="0.62" stop-color="#FCFCFC"/>
<stop offset="0.78" stop-color="#F5F5F4"/>
<stop offset="0.92" stop-color="#EAE8E6"/>
<stop offset="1" stop-color="#DFDCDA"/>
</radialGradient>
<radialGradient id="paint49_radial_53_542" cx="0" cy="0" r="1" gradientUnits="userSpaceOnUse" gradientTransform="translate(137.02 106.42) scale(11.68 11.68)">
<stop stop-color="#FFE540"/>
<stop offset="0.16" stop-color="#FFDB35"/>
<stop offset="0.41" stop-color="#FFD129"/>
<stop offset="0.69" stop-color="#FFCE26"/>
<stop offset="0.86" stop-color="#F8AE45"/>
</radialGradient>
<linearGradient id="paint50_linear_53_542" x1="126.636" y1="91.3414" x2="130.455" y2="98.5214" gradientUnits="userSpaceOnUse">
<stop stop-color="#B1B9BB"/>
<stop offset="0.35" stop-color="#CFD2D2"/>
<stop offset="0.56" stop-color="#DCDDDD"/>
<stop offset="0.9" stop-color="#BBC1C3"/>
<stop offset="1" stop-color="#B1B9BB"/>
</linearGradient>
<radialGradient id="paint51_radial_53_542" cx="0" cy="0" r="1" gradientUnits="userSpaceOnUse" gradientTransform="translate(153.17 104.9) scale(11.68 11.68)">
<stop stop-color="#FAA3D2"/>
<stop offset="0.04" stop-color="#FA9ACE"/>
<stop offset="0.2" stop-color="#FA80C2"/>
<stop offset="0.36" stop-color="#FA6DB9"/>
<stop offset="0.52" stop-color="#FA61B4"/>
<stop offset="0.69" stop-color="#FA5EB3"/>
<stop offset="0.86" stop-color="#DD4A92"/>
<stop offset="1" stop-color="#C33874"/>
</radialGradient>
<linearGradient id="paint52_linear_53_542" x1="142.924" y1="89.8255" x2="146.754" y2="97.005" gradientUnits="userSpaceOnUse">
<stop stop-color="#B1B9BB"/>
<stop offset="0.35" stop-color="#CFD2D2"/>
<stop offset="0.56" stop-color="#DCDDDD"/>
<stop offset="0.9" stop-color="#BBC1C3"/>
<stop offset="1" stop-color="#B1B9BB"/>
</linearGradient>
<radialGradient id="paint53_radial_53_542" cx="0" cy="0" r="1" gradientUnits="userSpaceOnUse" gradientTransform="translate(124.354 115.598) scale(12.264 12.9648)">
<stop stop-color="#67D56E"/>
<stop offset="0.04" stop-color="#5ED067"/>
<stop offset="0.2" stop-color="#44C052"/>
<stop offset="0.36" stop-color="#31B543"/>
<stop offset="0.52" stop-color="#25AE3A"/>
<stop offset="0.69" stop-color="#22AC38"/>
<stop offset="0.95" stop-color="#058B34"/>
<stop offset="1" stop-color="#008534"/>
</radialGradient>
<linearGradient id="paint54_linear_53_542" x1="113.575" y1="99.082" x2="117.615" y2="106.681" gradientUnits="userSpaceOnUse">
<stop stop-color="#B1B9BB"/>
<stop offset="0.35" stop-color="#CFD2D2"/>
<stop offset="0.56" stop-color="#DCDDDD"/>
<stop offset="0.9" stop-color="#BBC1C3"/>
<stop offset="1" stop-color="#B1B9BB"/>
</linearGradient>
<radialGradient id="paint55_radial_53_542" cx="0" cy="0" r="1" gradientUnits="userSpaceOnUse" gradientTransform="translate(120.949 127.155) scale(13.432 15.3008)">
<stop stop-color="#C9A063"/>
<stop offset="0.19" stop-color="#BD9155"/>
<stop offset="0.43" stop-color="#B4854A"/>
<stop offset="0.69" stop-color="#B28247"/>
<stop offset="1" stop-color="#956134"/>
</radialGradient>
<linearGradient id="paint56_linear_53_542" x1="109.235" y1="108.423" x2="113.709" y2="116.817" gradientUnits="userSpaceOnUse">
<stop stop-color="#B1B9BB"/>
<stop offset="0.35" stop-color="#CFD2D2"/>
<stop offset="0.56" stop-color="#DCDDDD"/>
<stop offset="0.9" stop-color="#BBC1C3"/>
<stop offset="1" stop-color="#B1B9BB"/>
</linearGradient>
<radialGradient id="paint57_radial_53_542" cx="0" cy="0" r="1" gradientUnits="userSpaceOnUse" gradientTransform="translate(132.76 131.894) scale(13.8992 15.768)">
<stop stop-color="#7FD7F8"/>
<stop offset="0.09" stop-color="#6ACBF2"/>
<stop offset="0.23" stop-color="#50BBEA"/>
<stop offset="0.38" stop-color="#3DAFE4"/>
<stop offset="0.53" stop-color="#31A9E1"/>
<stop offset="0.69" stop-color="#2EA7E0"/>
<stop offset="0.88" stop-color="#1586C9"/>
<stop offset="1" stop-color="#036EB8"/>
</radialGradient>
<linearGradient id="paint58_linear_53_542" x1="120.3" y1="112.374" x2="124.911" y2="121.04" gradientUnits="userSpaceOnUse">
<stop stop-color="#B1B9BB"/>
<stop offset="0.35" stop-color="#CFD2D2"/>
<stop offset="0.56" stop-color="#DCDDDD"/>
<stop offset="0.9" stop-color="#BBC1C3"/>
<stop offset="1" stop-color="#B1B9BB"/>
</linearGradient>
<radialGradient id="paint59_radial_53_542" cx="0" cy="0" r="1" gradientUnits="userSpaceOnUse" gradientTransform="translate(154.83 86.38) scale(7.46001 7.46)">
<stop stop-color="#E3B98D"/>
<stop offset="0.48" stop-color="#B28247"/>
<stop offset="0.99" stop-color="#956134"/>
<stop offset="1" stop-color="#956134"/>
</radialGradient>
<radialGradient id="paint60_radial_53_542" cx="0" cy="0" r="1" gradientUnits="userSpaceOnUse" gradientTransform="translate(155.96 98.9474) rotate(-99.69) scale(8.19 8.19)">
<stop offset="0.27" stop-color="#FAA3D2"/>
<stop offset="0.29" stop-color="#FA9ACE"/>
<stop offset="0.39" stop-color="#FA80C2"/>
<stop offset="0.49" stop-color="#FA6DB9"/>
<stop offset="0.59" stop-color="#FA61B4"/>
<stop offset="0.69" stop-color="#FA5EB3"/>
<stop offset="0.96" stop-color="#DE4B92"/>
<stop offset="1" stop-color="#DA488D"/>
</radialGradient>
<linearGradient id="paint61_linear_53_542" x1="162.82" y1="67.24" x2="170.87" y2="71.52" gradientUnits="userSpaceOnUse">
<stop offset="0.2" stop-color="#6E6FD9"/>
<stop offset="0.57" stop-color="#5F57D9"/>
<stop offset="0.86" stop-color="#574BD9"/>
</linearGradient>
<radialGradient id="paint62_radial_53_542" cx="0" cy="0" r="1" gradientUnits="userSpaceOnUse" gradientTransform="translate(156.67 83.81) scale(4.37 4.37)">
<stop stop-color="#6E6FD9"/>
<stop offset="0.17" stop-color="#6360D4"/>
<stop offset="0.62" stop-color="#493EC8"/>
<stop offset="0.86" stop-color="#4032C4"/>
</radialGradient>
</defs>
</svg>
