<svg width="198" height="145" viewBox="0 0 198 145" fill="none" xmlns="http://www.w3.org/2000/svg">
<path d="M198 0.100098H0V144.1H198V0.100098Z" fill="#FFD77C"/>
<path d="M125.99 136.538L128.15 135.378L128.46 15.0176L125.99 14.5176V136.538Z" fill="#363636"/>
<path d="M119.671 139.798L67.4509 133.408C65.4109 133.168 63.8809 131.528 63.8809 129.568V12.3177C63.8809 10.0777 65.7109 8.21769 68.0609 8.08769L119.771 4.99769C124.711 4.67769 127.211 6.97769 127.201 9.34769L126.811 135.798C126.811 137.978 123.821 140.388 119.661 139.798H119.671Z" fill="url(#paint0_linear_71_1330)"/>
<path d="M83.4998 123.688L67.5198 122.058C67.2798 122.038 67.0898 121.828 67.0898 121.578V102.888C67.0898 102.648 67.2998 102.448 67.5398 102.468L83.5398 103.688C83.7898 103.708 83.9798 103.908 83.9798 104.158V123.258C83.9798 123.518 83.7598 123.718 83.4998 123.698V123.688Z" fill="#1D1D1B"/>
<path d="M119.671 139.798L67.2809 133.408C65.3409 133.168 63.8809 131.528 63.8809 129.568V12.3176C63.8809 10.0776 65.6209 8.21758 67.8609 8.08758L119.771 4.99758C122.131 4.85758 124.121 6.73758 124.111 9.09758L123.741 136.188C123.741 138.368 121.831 140.058 119.661 139.788L119.671 139.798Z" fill="url(#paint1_radial_71_1330)"/>
<path d="M120.111 139.908C119.961 139.908 119.811 139.908 119.661 139.878L67.2708 133.488C65.2908 133.248 63.8008 131.558 63.8008 129.568V12.3178C63.7908 10.0378 65.5708 8.13775 67.8508 8.00775L119.771 4.90775C120.931 4.83775 122.041 5.23775 122.891 6.03775C123.741 6.83775 124.201 7.92775 124.201 9.08775L123.831 136.178C123.831 137.238 123.371 138.258 122.571 138.958C121.891 139.558 121.011 139.888 120.101 139.888L120.111 139.908ZM119.681 139.708C120.691 139.828 121.701 139.518 122.461 138.848C123.221 138.178 123.661 137.208 123.661 136.198L124.031 9.10775C124.031 7.98775 123.591 6.94775 122.771 6.17775C121.961 5.40775 120.891 5.01775 119.781 5.08775L67.8608 8.17775C65.6708 8.30775 63.9608 10.1278 63.9608 12.3178V129.568C63.9608 131.478 65.3908 133.088 67.2808 133.318L119.671 139.708H119.681Z" fill="#DADADA"/>
<path d="M83.7111 123.398L67.3711 121.728V102.778L83.7111 104.018V123.398Z" fill="#252527"/>
<path d="M82.6918 105.668L80.8418 105.548V104.578L82.6918 104.698V105.668Z" fill="#191718"/>
<path d="M82.6918 106.878L80.8418 106.758V105.788L82.6918 105.908V106.878Z" fill="#191718"/>
<path d="M82.6918 106.528L80.8418 106.418V105.788L82.6918 105.908V106.528Z" fill="#1A2222"/>
<path d="M82.62 122.577L68.17 121.137C67.94 121.117 67.75 120.877 67.75 120.607V106.617C67.75 106.347 67.94 106.147 68.17 106.167L82.62 107.267C82.86 107.287 83.06 107.527 83.06 107.797V122.117C83.06 122.387 82.86 122.597 82.62 122.567V122.577Z" fill="#050505"/>
<path d="M79.0016 106.318C79.3164 106.318 79.5716 106.036 79.5716 105.688C79.5716 105.34 79.3164 105.058 79.0016 105.058C78.6868 105.058 78.4316 105.34 78.4316 105.688C78.4316 106.036 78.6868 106.318 79.0016 106.318Z" fill="#0B1011"/>
<path d="M75.9202 106.138C76.2958 106.138 76.6002 105.811 76.6002 105.408C76.6002 105.005 76.2958 104.678 75.9202 104.678C75.5447 104.678 75.2402 105.005 75.2402 105.408C75.2402 105.811 75.5447 106.138 75.9202 106.138Z" fill="url(#paint2_radial_71_1330)"/>
<path d="M77.3504 106.078C77.5989 106.078 77.8004 105.849 77.8004 105.568C77.8004 105.286 77.5989 105.058 77.3504 105.058C77.1019 105.058 76.9004 105.286 76.9004 105.568C76.9004 105.849 77.1019 106.078 77.3504 106.078Z" fill="#251A12"/>
<path d="M82.8003 122.318L68.0703 120.858V106.468L69.4703 106.578V107.348L80.3603 108.198V107.408L82.8003 107.598V122.318Z" fill="url(#paint3_linear_71_1330)"/>
<path d="M82.6918 105.318L80.8418 105.208V104.578L82.6918 104.698V105.318Z" fill="#1A2222"/>
<path d="M77.3513 105.838C77.4839 105.838 77.5913 105.717 77.5913 105.568C77.5913 105.419 77.4839 105.298 77.3513 105.298C77.2188 105.298 77.1113 105.419 77.1113 105.568C77.1113 105.717 77.2188 105.838 77.3513 105.838Z" fill="#7A0B09"/>
<path d="M79.0012 106.028C79.1669 106.028 79.3012 105.875 79.3012 105.688C79.3012 105.5 79.1669 105.348 79.0012 105.348C78.8355 105.348 78.7012 105.5 78.7012 105.688C78.7012 105.875 78.8355 106.028 79.0012 106.028Z" fill="#414047"/>
<path d="M104.092 131.498L88.5117 129.958V99.9077L104.092 100.928V131.498Z" fill="url(#paint4_radial_71_1330)"/>
<path d="M88.5117 129.958L91.9517 128.348L92.8617 116.738L95.5417 110.808L88.5117 99.9077V129.958Z" fill="#CFCFCF"/>
<path d="M95.5417 110.808L104.092 111.688V100.928L88.5117 99.9077L95.5417 110.808Z" fill="#C2C2C2"/>
<path d="M116.75 121.068L109.83 120.288C109.5 120.248 109.23 119.928 109.23 119.578V113.308C109.23 112.948 109.5 112.678 109.83 112.698L116.75 113.088C117.12 113.108 117.42 113.428 117.42 113.808V120.458C117.42 120.838 117.12 121.108 116.75 121.068Z" fill="#F9FAFC"/>
<path d="M116.851 120.838L109.831 120.058C109.661 120.038 109.531 119.878 109.531 119.698V113.378C109.531 113.198 109.671 113.058 109.831 113.068L116.851 113.488C117.041 113.498 117.191 113.668 117.191 113.858V120.528C117.191 120.718 117.041 120.858 116.851 120.838Z" fill="#242527"/>
<path d="M116.851 120.438L109.831 119.678C109.661 119.658 109.531 119.498 109.531 119.318V113.748C109.531 113.568 109.671 113.428 109.831 113.438L116.851 113.878C117.041 113.888 117.191 114.058 117.191 114.248V120.138C117.191 120.328 117.041 120.468 116.851 120.448V120.438Z" fill="#D9DADC"/>
<path d="M115.741 116.548C115.741 117.298 115.221 117.868 114.591 117.808C113.961 117.748 113.451 117.098 113.451 116.358C113.451 115.618 113.961 115.048 114.591 115.098C115.221 115.148 115.741 115.788 115.741 116.548Z" fill="#434544"/>
<path d="M118.131 95.8478L69.0513 92.5478C67.7713 92.4578 66.7812 91.3978 66.7812 90.1178V16.1178C66.7812 14.7078 67.8813 13.5478 69.2912 13.4778L118.311 10.9578C119.481 10.8978 120.471 11.8378 120.471 13.0078V93.6578C120.471 94.9278 119.391 95.9378 118.131 95.8478Z" fill="#1D1D1B"/>
<path d="M118.281 95.9376C118.231 95.9376 118.171 95.9376 118.121 95.9376L69.0414 92.6376C67.7214 92.5476 66.6914 91.4476 66.6914 90.1176V16.1176C66.6914 14.6676 67.8314 13.4676 69.2814 13.3876L118.301 10.8676C118.891 10.8376 119.451 11.0476 119.881 11.4576C120.311 11.8676 120.551 12.4176 120.551 13.0076V93.6576C120.551 94.2976 120.291 94.8876 119.831 95.3276C119.401 95.7276 118.861 95.9476 118.281 95.9476V95.9376ZM118.131 95.7576C118.721 95.7976 119.281 95.5976 119.711 95.1976C120.141 94.7976 120.381 94.2476 120.381 93.6576V13.0076C120.381 12.4576 120.161 11.9576 119.771 11.5776C119.371 11.1976 118.861 11.0076 118.311 11.0376L69.3014 13.5576C67.9414 13.6276 66.8714 14.7476 66.8714 16.1176V90.1276C66.8714 91.3576 67.8314 92.3876 69.0614 92.4776L118.141 95.7776L118.131 95.7576Z" fill="#F6F6F6"/>
<path d="M117.141 91.8979L70.1211 88.7478V17.2079L117.141 14.7979V91.8979Z" fill="white"/>
<path d="M117.221 91.9875H117.131L70.041 88.8175V17.1275H70.121L117.221 14.7075V91.9875ZM70.211 88.6575L117.051 91.8075V14.8875L70.211 17.2875V88.6575Z" fill="#B2B2B2"/>
<defs>
<linearGradient id="paint0_linear_71_1330" x1="95.5409" y1="139.888" x2="95.5409" y2="4.96769" gradientUnits="userSpaceOnUse">
<stop stop-color="#B7B7B7"/>
<stop offset="0.03" stop-color="#E2E3E5"/>
<stop offset="0.92" stop-color="#E2E2E2"/>
<stop offset="0.96" stop-color="#E0E0E0"/>
<stop offset="0.98" stop-color="#D9D9D9"/>
<stop offset="0.99" stop-color="#CDCDCD"/>
<stop offset="1" stop-color="#B7B7B7"/>
</linearGradient>
<radialGradient id="paint1_radial_71_1330" cx="0" cy="0" r="1" gradientUnits="userSpaceOnUse" gradientTransform="translate(93.9909 72.4076) scale(52.21 52.21)">
<stop stop-color="#D9DADC"/>
<stop offset="1" stop-color="#E2E3E5"/>
</radialGradient>
<radialGradient id="paint2_radial_71_1330" cx="0" cy="0" r="1" gradientUnits="userSpaceOnUse" gradientTransform="translate(75.9202 105.408) scale(0.71 0.710003)">
<stop stop-color="white"/>
<stop offset="0.22" stop-color="#FAFE96"/>
<stop offset="0.56" stop-color="#77D100"/>
<stop offset="0.88" stop-color="#2B7812"/>
</radialGradient>
<linearGradient id="paint3_linear_71_1330" x1="68.0703" y1="114.388" x2="82.8003" y2="114.388" gradientUnits="userSpaceOnUse">
<stop stop-color="#050505"/>
<stop offset="1" stop-color="#1F1E23"/>
</linearGradient>
<radialGradient id="paint4_radial_71_1330" cx="0" cy="0" r="1" gradientUnits="userSpaceOnUse" gradientTransform="translate(96.3017 115.708) scale(12.45 12.45)">
<stop offset="0.51" stop-color="#E6E6E6"/>
<stop offset="1" stop-color="#D9DADC"/>
</radialGradient>
</defs>
</svg>
