<svg width="199" height="145" viewBox="0 0 199 145" fill="none" xmlns="http://www.w3.org/2000/svg">
<path d="M198.199 0.199951H0.199219V144.2H198.199V0.199951Z" fill="#72ABDF"/>
<path d="M36.9155 52.0758C37.475 51.7205 37.5997 50.9147 37.194 50.276C36.7884 49.6373 36.006 49.4076 35.4466 49.7629C34.8871 50.1182 34.7624 50.924 35.1681 51.5627C35.5737 52.2014 36.3561 52.4312 36.9155 52.0758Z" fill="#67AFEF"/>
<path d="M148.882 72.2277C155.392 75.2877 156.362 84.0677 156.362 84.0677C157.052 97.4277 151.942 98.4477 151.942 98.4477C151.942 98.4477 145.742 101.138 140.052 98.5277L136.242 73.7477C136.242 73.7477 140.192 68.1477 148.882 72.2377V72.2277Z" fill="url(#paint0_radial_53_540)"/>
<path d="M139.083 72.3677C134.493 72.7077 132.063 79.9877 133.503 87.4177C134.943 94.8477 139.783 100.158 144.313 99.2877C144.313 99.2877 149.643 97.8177 147.893 84.0277C147.893 84.0277 146.623 71.8277 139.093 72.3777L139.083 72.3677Z" fill="#231815"/>
<path d="M99.9624 91.0776C105.112 93.6276 105.902 100.898 105.902 100.898C106.472 111.968 102.432 112.798 102.432 112.798C102.432 112.798 97.5324 115.018 93.0324 112.838L89.9824 92.3076C89.9824 92.3076 93.0924 87.6776 99.9724 91.0776H99.9624Z" fill="url(#paint1_radial_53_540)"/>
<path d="M92.2224 91.1777C88.5924 91.4477 86.6824 97.4677 87.8424 103.628C88.9924 109.788 92.8324 114.198 96.4024 113.478C96.4024 113.478 100.612 112.268 99.2024 100.848C99.2024 100.848 98.1824 90.7377 92.2224 91.1877V91.1777Z" fill="#231815"/>
<path d="M40.9414 113.688L41.3114 116.008C41.3114 116.008 61.1514 115.978 79.7914 111.168C79.7914 111.168 82.5714 110.168 86.7514 106.408C86.7514 106.408 90.2914 100.068 120.651 91.5676L102.071 70.3276L82.3814 71.2776L51.5014 90.1776L42.0314 92.3776C42.0314 92.3776 37.3414 97.5376 40.9514 113.698L40.9414 113.688Z" fill="url(#paint2_linear_53_540)"/>
<path d="M167.832 61.8477C169.452 65.9577 168.422 70.2177 165.542 71.3477C162.662 72.4777 156.262 72.4477 154.142 66.1577C152.732 61.9677 156.792 57.5877 159.682 56.4577C162.572 55.3277 166.212 57.7377 167.832 61.8477Z" fill="url(#paint3_linear_53_540)"/>
<path d="M166.601 71.2217C169.484 70.0872 170.509 65.8345 168.892 61.7231C167.274 57.6117 163.625 55.1984 160.742 56.333C157.859 57.4675 156.833 61.7202 158.451 65.8316C160.069 69.943 163.718 72.3562 166.601 71.2217Z" fill="url(#paint4_radial_53_540)"/>
<path d="M167.15 70.2963C169.669 69.3053 170.508 65.4482 169.026 61.6811C167.544 57.914 164.301 55.6635 161.782 56.6545C159.264 57.6454 158.424 61.5026 159.907 65.2696C161.389 69.0367 164.632 71.2872 167.15 70.2963Z" fill="url(#paint5_radial_53_540)"/>
<path d="M166.839 69.4746C168.951 68.6434 169.593 65.2491 168.273 61.8932C166.952 58.5372 164.169 56.4905 162.057 57.3217C159.945 58.1529 159.303 61.5472 160.624 64.9031C161.944 68.2591 164.727 70.3058 166.839 69.4746Z" fill="#8B8895"/>
<path d="M166.393 69.2091C168.166 68.5114 168.658 65.5419 167.491 62.5765C166.324 59.6112 163.94 57.7729 162.167 58.4706C160.394 59.1683 159.903 62.1378 161.07 65.1031C162.237 68.0685 164.62 69.9068 166.393 69.2091Z" fill="url(#paint6_radial_53_540)"/>
<path d="M134.002 31.2077C134.002 31.2077 135.092 29.7077 132.642 23.1477C132.642 23.1477 130.352 17.7377 129.242 16.8277C129.242 16.8277 126.292 12.7577 117.402 12.1677C117.402 12.1677 104.142 11.1077 94.8624 14.3177C94.8624 14.3177 85.4524 17.7677 67.9624 29.3477C67.9624 29.3477 50.7224 40.0477 28.8624 62.2877C28.8624 62.2877 23.9324 66.4877 27.0124 74.0877C27.0124 74.0877 38.8324 114.738 39.1624 115.498C39.1624 115.498 42.4524 112.488 42.7324 112.228C42.7324 112.228 39.5924 105.368 41.1724 98.9477C41.1724 98.9477 43.6324 90.6577 49.1324 95.4677C49.1324 95.4677 51.3124 97.4877 52.7124 102.508C52.7124 102.508 53.1524 104.668 56.4624 103.008L82.3224 92.3777C82.3224 92.3777 78.5324 76.9377 87.8624 73.7777C87.8624 73.7777 96.1724 71.4477 99.1324 84.8477L117.962 82.1077L89.9524 61.0077L92.3524 58.5677L118.942 48.0977L99.1024 50.1177C99.1024 50.1177 94.4824 50.7277 93.2524 51.2677L84.7824 54.1877C84.7824 54.1877 81.9524 55.6777 81.0124 52.3377C81.0124 52.3377 77.5124 43.9877 78.2624 37.3777C78.2624 37.3777 78.4024 34.2777 85.8524 32.1777C85.8524 32.1777 108.732 24.9777 129.482 30.0777C129.482 30.0777 131.322 30.0777 131.762 33.2577C131.762 33.2577 133.912 31.7077 133.982 31.2177L134.002 31.2077Z" fill="url(#paint7_linear_53_540)"/>
<path d="M84.7827 54.1378C84.7827 54.1378 81.9527 55.6278 81.0127 52.2878C81.0127 52.2878 77.5127 43.9378 78.2627 37.3278C78.2627 37.3278 78.4027 34.2278 85.8527 32.1278C85.8527 32.1278 108.733 24.9278 129.483 30.0278C129.483 30.0278 131.323 30.0278 131.763 33.2078C131.763 33.2078 133.913 31.6578 133.983 31.1678L134.123 30.5978C134.123 30.5978 133.913 28.3378 126.083 27.5478C126.083 27.5478 91.9027 24.1078 77.6227 34.9578C77.6227 34.9578 74.9727 36.3178 75.7327 41.9878C75.7327 41.9878 76.7627 57.7978 83.8327 54.8478L85.2427 54.1578" fill="#934D15"/>
<path d="M84.9733 54.4078C84.9733 54.4078 81.9533 55.6478 81.0233 52.3078C81.0233 52.3078 77.5233 43.9578 78.2733 37.3478C78.2733 37.3478 78.4133 34.2478 85.8633 32.1478C85.8633 32.1478 108.743 24.9478 129.493 30.0478C129.493 30.0478 131.333 30.0478 131.773 33.2278L134.633 44.4078C134.633 44.4078 127.393 44.8278 123.543 46.2478C123.543 46.2478 119.293 47.4178 118.943 48.1178L99.1033 50.1378C99.1033 50.1378 91.9733 50.7478 84.9633 54.4178L84.9733 54.4078Z" fill="url(#paint8_linear_53_540)"/>
<path d="M109.052 15.4578C109.052 15.4578 105.622 15.7178 106.352 19.6278C106.352 19.6278 107.562 25.4278 111.552 25.3878C111.552 25.3878 123.842 26.0278 125.812 26.1778C125.812 26.1778 129.362 26.3978 128.862 22.9778C128.862 22.9778 128.192 17.2478 123.782 16.5278C123.782 16.5278 116.232 15.1678 109.062 15.4678L109.052 15.4578Z" fill="#D09037"/>
<path d="M107.973 16.8478C107.973 16.8478 105.703 16.5578 106.413 20.0278C106.413 20.0278 107.703 25.2778 111.193 25.3578C111.193 25.3578 123.043 25.9978 125.013 26.1178C125.013 26.1178 128.153 26.4478 127.663 23.4178C127.663 23.4178 127.023 18.3378 122.633 17.7178C122.633 17.7178 115.123 16.5478 107.973 16.8478Z" fill="#F7F8F8"/>
<path d="M71.1817 40.7577C71.1817 40.7577 71.0117 38.7377 68.6017 40.0077C68.6017 40.0077 61.6017 43.8277 61.0017 45.0177C61.0017 45.0177 59.5917 45.8077 61.1617 51.3277L70.4017 89.4877C70.4017 89.4877 70.9117 92.5077 74.6217 91.3177L79.7517 89.3977L71.1717 40.7477L71.1817 40.7577Z" fill="#DF832E"/>
<path d="M71.0219 40.7079C71.0219 40.7079 70.6719 39.6179 69.7819 40.2179C69.7819 40.2179 63.5319 43.9579 62.7919 44.7279C62.7919 44.7279 60.5519 45.6679 61.1619 48.4079L71.4519 89.4879C71.4519 89.4879 72.0019 91.5879 74.2319 91.2979L79.5919 89.1179L71.0219 40.7179V40.7079Z" fill="#9E5A34"/>
<path d="M49.293 52.9278C49.293 52.9278 47.453 53.8278 48.463 57.2778L51.263 69.1478C51.263 69.1478 51.923 71.7578 54.933 70.1178L60.343 66.5378C60.343 66.5378 61.683 65.5278 61.353 63.7578C61.353 63.7578 58.333 50.5078 58.263 50.2178C58.263 50.2178 57.403 47.5378 55.053 48.9078L49.283 52.9078L49.293 52.9278Z" fill="#9C4606"/>
<path d="M38.3624 61.6678C38.3624 61.6678 36.7424 62.5278 37.6524 65.8778L40.4524 76.9178C40.4524 76.9178 41.0424 79.4478 43.6924 77.8778L48.2024 74.5378C48.2024 74.5378 49.3824 73.5678 49.0824 71.8478C49.0824 71.8478 46.3624 59.0078 46.3024 58.7278C46.3024 58.7278 45.5324 56.1278 43.4624 57.4478L38.3624 61.6578V61.6678Z" fill="#934D15"/>
<path d="M28.963 70.3678C28.963 70.3678 27.503 71.2478 28.483 74.3978L31.523 84.6278C31.523 84.6278 32.183 87.0078 34.563 85.4078L38.593 82.0578C38.593 82.0578 39.643 81.0878 39.293 79.4678C39.293 79.4678 36.233 67.3678 36.163 67.1078C36.163 67.1078 35.343 64.6678 33.483 65.9978L28.963 70.3578V70.3678Z" fill="#934D15"/>
<path d="M85.322 107.788C85.322 107.788 86.132 109.888 86.262 111.008C86.262 111.008 86.682 112.788 84.492 113.998L83.832 108.428L85.322 107.788Z" fill="url(#paint9_radial_53_540)"/>
<path d="M41.3024 116.018C40.5724 110.488 39.4024 109.728 39.4024 109.728C38.3124 109.518 37.3124 110.238 37.3124 110.238L38.0324 115.608L36.7324 120.718C40.4524 125.228 80.1724 116.108 80.1724 116.108C85.5024 114.408 85.1524 112.678 85.1524 112.678C85.4224 110.858 84.1224 108.398 84.1224 108.398C84.1224 108.398 78.6124 111.378 42.9824 115.848L41.2924 116.018H41.3024Z" fill="#231815"/>
<path d="M37.3218 110.238C37.3218 110.238 34.6818 111.088 34.9418 113.288L36.7418 120.718C36.7418 120.718 38.3018 117.858 39.5518 117.028L38.5618 112.488C38.5618 112.488 38.0418 110.198 37.3218 110.228V110.238Z" fill="url(#paint10_radial_53_540)"/>
<path d="M162.593 74.5378C162.593 74.5378 158.033 52.2078 157.823 51.7378C157.823 51.7378 155.793 43.8078 142.453 44.0578C142.453 44.0578 133.083 44.4078 129.333 44.8778C129.333 44.8778 122.633 45.8978 116.873 48.7678L92.9327 58.4378C92.9327 58.4378 88.3027 60.6878 87.3027 61.9978L101.713 79.4978L117.833 78.2178C117.833 78.2178 130.603 76.6578 131.763 76.6078L162.603 74.5478L162.593 74.5378Z" fill="url(#paint11_linear_53_540)"/>
<path d="M51.0425 53.1978C51.0425 53.1978 49.5625 54.0278 50.4025 57.2878L53.1925 68.1078C53.1925 68.1078 53.7425 70.5678 56.1725 69.0478L60.2625 66.3378C60.2625 66.3378 61.5925 65.6578 61.2625 63.4878C61.2625 63.4878 58.5425 51.2378 58.4825 50.9778C58.4825 50.9778 57.7725 48.4578 55.8825 49.7278L51.0525 53.2078L51.0425 53.1978Z" fill="url(#paint12_radial_53_540)"/>
<path d="M40.1234 62.0378C40.1234 62.0378 38.9034 63.3078 39.6634 66.4578L42.2034 75.9678C42.2034 75.9678 42.7634 78.1678 44.9034 76.7078L48.1434 74.3278C48.1434 74.3278 49.3134 73.6778 49.0134 71.5678C49.0134 71.5678 46.5534 59.6978 46.5034 59.4378C46.5034 59.4378 46.0734 57.2578 44.4134 58.4878L40.1334 62.0278L40.1234 62.0378Z" fill="url(#paint13_radial_53_540)"/>
<path d="M30.5926 70.5378C30.5926 70.5378 29.5226 71.7878 30.3526 74.7478L33.1026 83.6578C33.1026 83.6578 33.7126 85.7178 35.6226 84.2578L38.5226 81.8778C38.5226 81.8778 39.5826 81.2178 39.2126 79.2278C39.2126 79.2278 36.4426 68.0778 36.3826 67.8378C36.3826 67.8378 35.8926 65.7878 34.4126 67.0178L30.6026 70.5478L30.5926 70.5378Z" fill="url(#paint14_radial_53_540)"/>
<path d="M71.1922 41.1577C71.1922 41.1577 70.8522 40.0877 69.9722 40.6677C69.9722 40.6677 63.8322 44.3377 63.1122 45.0977C63.1122 45.0977 61.2722 46.0177 61.8722 48.7177L71.9722 89.0577C71.9722 89.0577 72.5422 91.1377 74.3422 90.8277L79.6122 88.6877L71.1922 41.1577Z" fill="url(#paint15_linear_53_540)"/>
<path d="M64.7922 47.5077C64.7922 47.5077 63.5222 48.1277 64.2222 50.5277L66.5422 58.4777C66.5422 58.4777 66.9922 60.2877 69.0722 59.1577L72.5822 57.1377C72.5822 57.1377 73.7222 56.6277 73.4522 55.0277C73.4522 55.0277 71.2022 46.0177 71.1522 45.8177C71.1522 45.8177 70.5622 43.9577 68.9422 44.9077L64.8022 47.4977L64.7922 47.5077Z" fill="#934D15"/>
<path d="M73.5522 56.8978C73.5522 56.8978 72.3122 58.2978 68.4022 60.0478C68.4022 60.0478 67.4122 60.2578 66.9922 59.7478C66.9922 59.7478 67.8222 59.9578 68.4522 59.5878C68.4522 59.5878 71.4322 58.2478 73.3022 56.7578C73.3022 56.7578 73.6422 56.5778 73.5422 56.8878L73.5522 56.8978Z" fill="#F9D05A"/>
<path d="M65.6521 47.6877C65.6521 47.6877 64.5121 48.2777 65.1521 50.5777L67.2521 58.2077C67.2521 58.2077 67.6621 59.9477 69.5221 58.8677L72.6621 56.9477C72.6621 56.9477 73.6821 56.4677 73.4321 54.9277C73.4321 54.9277 71.3821 46.2877 71.3421 46.0977C71.3421 46.0977 70.8021 44.3177 69.3521 45.2177L65.6521 47.6877Z" fill="url(#paint16_radial_53_540)"/>
<path d="M140.075 57.7713C149.271 57.3296 156.588 54.1005 156.418 50.5589C156.248 47.0173 148.655 44.5043 139.459 44.9461C130.263 45.3878 122.946 48.6169 123.117 52.1585C123.287 55.7 130.879 58.213 140.075 57.7713Z" fill="url(#paint17_radial_53_540)"/>
<path d="M144.482 60.6676C144.482 60.6676 144.502 60.7176 144.512 60.7476C144.802 61.4176 144.312 62.1776 143.582 62.2776C141.902 62.5076 137.862 62.9276 129.342 63.1776C128.932 63.1876 128.532 62.9876 128.322 62.6276C128.022 62.1276 127.812 61.4176 128.652 60.9576C128.652 60.9576 140.482 60.2676 143.342 60.0276C143.822 59.9876 144.272 60.2376 144.472 60.6676H144.482Z" fill="url(#paint18_radial_53_540)"/>
<path d="M145.271 64.8978C145.271 64.8978 145.291 64.9478 145.301 64.9778C145.591 65.6478 145.101 66.4078 144.371 66.5078C142.691 66.7378 138.651 67.1578 130.131 67.4078C129.721 67.4178 129.321 67.2178 129.111 66.8578C128.811 66.3578 128.601 65.6478 129.441 65.1878C129.441 65.1878 141.271 64.4978 144.131 64.2578C144.611 64.2178 145.061 64.4678 145.261 64.8978H145.271Z" fill="url(#paint19_radial_53_540)"/>
<path d="M146.271 69.0577C146.271 69.0577 146.291 69.1078 146.301 69.1378C146.591 69.8078 146.101 70.5677 145.371 70.6677C143.691 70.8977 139.651 71.3178 131.131 71.5678C130.721 71.5778 130.321 71.3777 130.111 71.0177C129.811 70.5177 129.601 69.8077 130.441 69.3477C130.441 69.3477 142.271 68.6577 145.131 68.4177C145.611 68.3777 146.061 68.6277 146.261 69.0577H146.271Z" fill="url(#paint20_radial_53_540)"/>
<path d="M152.292 60.0877C152.292 60.0877 151.332 60.0277 151.552 61.2477C151.552 61.2477 151.612 62.4177 152.722 62.2577C152.722 62.2577 158.052 62.1577 159.932 62.4477L159.572 60.4377C159.572 60.4377 154.732 59.6077 152.302 60.0977L152.292 60.0877Z" fill="url(#paint21_radial_53_540)"/>
<path d="M152.902 63.9978C152.902 63.9978 151.942 63.9378 152.162 65.1578C152.162 65.1578 152.272 66.2678 153.332 66.1678C153.332 66.1678 158.662 66.0678 160.542 66.3578L160.182 64.3478C160.182 64.3478 155.342 63.5178 152.912 64.0078L152.902 63.9978Z" fill="url(#paint22_radial_53_540)"/>
<path d="M153.742 68.0676C153.742 68.0676 152.782 68.0076 153.002 69.2276C153.002 69.2276 153.112 70.3376 154.172 70.2376C154.172 70.2376 159.502 70.1376 161.382 70.4276L161.022 68.4176C161.022 68.4176 156.182 67.5876 153.752 68.0776L153.742 68.0676Z" fill="url(#paint23_radial_53_540)"/>
<path d="M94.0021 22.4877C92.4021 19.4177 94.8721 17.1477 96.6821 16.2877C98.4921 15.4277 100.842 16.5577 101.922 18.8277C103.002 21.0977 102.312 23.4477 100.602 24.4977C97.9021 26.1677 95.1621 24.7077 94.0021 22.4877Z" fill="url(#paint24_linear_53_540)"/>
<path d="M100.19 23.8852C101.735 23.1481 102.253 21.0109 101.348 19.1117C100.442 17.2125 98.4546 16.2704 96.9093 17.0075C95.364 17.7445 94.8457 19.8817 95.7516 21.7809C96.6575 23.6801 98.6445 24.6222 100.19 23.8852Z" fill="url(#paint25_radial_53_540)"/>
<path d="M130.703 23.3977C129.983 21.1677 130.263 19.3577 131.473 18.9677C132.023 18.7877 132.743 18.7577 133.323 19.2477C134.023 19.8377 134.573 21.0777 134.963 22.2977C135.353 23.5177 135.673 24.7177 135.443 25.6077C135.253 26.3377 134.593 26.9577 133.763 27.1377C132.213 27.4677 131.423 25.6277 130.703 23.4077V23.3977Z" fill="url(#paint26_linear_53_540)"/>
<path d="M134.779 26.3026C135.772 25.9821 136.054 24.0989 135.408 22.0963C134.762 20.0937 133.433 18.7301 132.439 19.0506C131.446 19.3711 131.164 21.2543 131.81 23.2568C132.456 25.2594 133.785 26.623 134.779 26.3026Z" fill="url(#paint27_radial_53_540)"/>
<path d="M55.0127 102.158L42.7327 112.228L40.5527 105.608L40.9627 95.7077L45.0627 92.8077L51.3227 92.3977L55.0127 102.158Z" fill="url(#paint28_radial_53_540)"/>
<path d="M100.773 83.7479L82.303 92.5379L80.123 85.9179L80.543 76.0179L84.633 73.1179L96.213 71.8179L100.773 83.7479Z" fill="url(#paint29_radial_53_540)"/>
<path d="M57.0125 96.5677C62.3925 99.1377 63.1825 106.518 63.1825 106.518C63.7425 117.758 59.5125 118.618 59.5125 118.618C59.5125 118.618 54.3825 120.888 49.6825 118.698L46.5625 97.8577C46.5625 97.8577 49.8325 93.1377 57.0125 96.5677Z" fill="url(#paint30_linear_53_540)"/>
<path d="M47.8919 97.2877C44.7819 97.4677 43.2619 103.288 44.3919 109.298C45.5119 115.318 48.9119 119.688 51.9619 119.078C51.9619 119.078 55.5519 117.998 54.1019 106.848C54.1019 106.848 53.0019 96.9877 47.8919 97.2877Z" fill="url(#paint31_radial_53_540)"/>
<path d="M48.8519 101.008C46.2419 101.408 44.9819 105.388 45.9419 109.258C46.8919 113.128 49.7418 115.708 52.3118 115.018C52.3118 115.018 55.3219 113.978 54.0819 106.758C54.0819 106.758 53.1419 100.358 48.8619 101.018L48.8519 101.008Z" fill="#1C0F25"/>
<path d="M50.0117 101.488C48.1717 101.718 47.4617 105.158 48.3117 108.618C49.1617 112.078 51.3017 114.488 53.1017 114.008C53.1017 114.008 55.1917 113.238 53.9917 106.808C53.9917 106.808 53.0417 101.118 50.0217 101.488H50.0117Z" fill="url(#paint32_radial_53_540)"/>
<path d="M60.6427 101.658L57.3327 102.958C53.8627 104.628 53.4027 102.468 53.4027 102.468C51.9427 97.4577 49.6627 95.4377 49.6627 95.4377C43.9027 90.6377 41.3127 98.9377 41.3127 98.9377C39.6427 105.358 42.9127 112.218 42.9127 112.218C42.8027 112.318 42.6527 112.418 42.0027 112.998L41.9827 112.848C32.2727 88.1577 47.1527 83.1877 47.1527 83.1877C58.3027 76.8177 61.6827 98.5477 61.6827 98.5477C62.3127 101.038 61.4827 101.168 61.4827 101.168L60.6427 101.658Z" fill="url(#paint33_radial_53_540)"/>
<path d="M102.832 77.1777C109.562 80.2177 110.522 88.9877 110.522 88.9877C111.182 102.358 105.892 103.388 105.892 103.388C105.892 103.388 99.4619 106.108 93.5919 103.518L89.752 78.7377C89.752 78.7377 93.852 73.1177 102.832 77.1777Z" fill="url(#paint34_linear_53_540)"/>
<path d="M91.4132 78.0677C87.5132 78.2877 85.6032 85.2177 86.9932 92.3677C88.3832 99.5277 92.6132 104.718 96.4432 103.978C96.4432 103.978 100.943 102.678 99.1532 89.4277C99.1532 89.4277 97.8132 77.7077 91.4132 78.0677Z" fill="url(#paint35_radial_53_540)"/>
<path d="M92.6025 82.4878C89.3325 82.9778 87.7525 87.7078 88.9325 92.3078C90.1125 96.9078 93.6725 99.9678 96.8825 99.1378C96.8825 99.1378 100.653 97.8878 99.1225 89.2978C99.1225 89.2978 97.9625 81.6778 92.6025 82.4778V82.4878Z" fill="#1C0F25"/>
<path d="M94.0527 83.0578C91.7527 83.3378 90.8427 87.4278 91.9027 91.5378C92.9627 95.6478 95.6327 98.5078 97.8827 97.9278C97.8827 97.9278 100.503 97.0078 99.0127 89.3678C99.0127 89.3678 97.8327 82.5978 94.0527 83.0578Z" fill="url(#paint36_radial_53_540)"/>
<path d="M80.8632 92.7878C80.8632 92.7878 71.5732 66.6278 89.3832 60.6378C89.3832 60.6378 112.293 50.0578 117.673 77.5678L117.983 82.0978L99.1532 84.8378C96.1832 71.4378 87.8832 73.7678 87.8832 73.7678C78.5532 76.9278 82.3432 92.3678 82.3432 92.3678L80.8632 92.7778V92.7878Z" fill="url(#paint37_radial_53_540)"/>
<path d="M110.242 92.5779C141.502 89.2579 167.112 87.5179 167.112 87.5179C171.012 87.0379 170.572 83.9379 170.572 83.9379L169.382 77.3879C169.382 77.3879 169.582 74.0379 165.022 74.3279C165.022 74.3279 141.072 74.3179 101.622 79.4079C101.622 79.4079 98.522 79.7779 98.892 83.0979L99.602 88.7979C99.602 88.7979 99.402 93.5979 104.602 93.1279L110.232 92.5679L110.242 92.5779Z" fill="url(#paint38_linear_53_540)"/>
<path opacity="0.28" d="M122.113 77.8977C122.113 77.8977 120.213 79.7277 127.993 79.7877C127.993 79.7877 164.193 76.1577 167.653 76.5777C167.653 76.5777 172.003 72.8877 122.113 77.8977Z" fill="url(#paint39_radial_53_540)"/>
<path opacity="0.27" d="M105.672 80.1077C105.672 80.1077 113.992 78.4377 117.062 78.9277C117.062 78.9277 119.012 87.7377 117.562 89.3377C116.152 89.6877 114.522 90.2877 113.092 90.0477C111.662 89.8077 110.252 88.8077 110.012 87.3777C109.912 86.7777 110.012 86.1677 109.932 85.5677C109.872 85.1377 109.692 84.7177 109.442 84.3577C108.982 83.7077 108.882 82.8877 108.852 82.0877C108.852 81.9477 108.802 81.8177 108.712 81.6977C107.862 80.9077 106.832 80.0577 105.672 80.1077Z" fill="url(#paint40_radial_53_540)"/>
<path d="M115.293 63.3777C117.103 67.9677 115.603 72.8577 111.943 74.2977C108.283 75.7377 100.313 76.0277 97.9826 68.9877C96.4426 64.2977 101.743 59.1077 105.393 57.6677C109.043 56.2277 113.483 58.7877 115.283 63.3777H115.293Z" fill="url(#paint41_linear_53_540)"/>
<path d="M113.279 74.1059C116.938 72.666 118.44 67.7783 116.634 63.1889C114.828 58.5996 110.398 56.0464 106.739 57.4863C103.08 58.9262 101.577 63.8139 103.383 68.4033C105.189 72.9926 109.62 75.5458 113.279 74.1059Z" fill="url(#paint42_radial_53_540)"/>
<path d="M114.014 73.0245C117.211 71.7666 118.46 67.3348 116.803 63.1258C115.147 58.9167 111.213 56.5243 108.017 57.7822C104.82 59.0401 103.571 63.4719 105.228 67.681C106.884 71.89 110.818 74.2824 114.014 73.0245Z" fill="url(#paint43_radial_53_540)"/>
<path d="M113.673 72.1005C116.351 71.0469 117.326 67.1556 115.852 63.409C114.378 59.6625 111.012 57.4795 108.334 58.5331C105.657 59.5868 104.681 63.4781 106.156 67.2246C107.63 70.9711 110.996 73.1541 113.673 72.1005Z" fill="#8B8895"/>
<path d="M113.116 71.822C115.367 70.9362 116.136 67.5351 114.834 64.2254C113.532 60.9158 110.651 58.9508 108.4 59.8366C106.149 60.7224 105.38 64.1235 106.682 67.4331C107.985 70.7428 110.865 72.7078 113.116 71.822Z" fill="url(#paint44_radial_53_540)"/>
<defs>
<radialGradient id="paint0_radial_53_540" cx="0" cy="0" r="1" gradientUnits="userSpaceOnUse" gradientTransform="translate(149.064 101.197) rotate(-2.62) scale(29.7305 30.65)">
<stop stop-color="#231815"/>
<stop offset="0.22" stop-color="#2B2727"/>
<stop offset="0.49" stop-color="#343538"/>
<stop offset="0.7" stop-color="#373A3F"/>
</radialGradient>
<radialGradient id="paint1_radial_53_540" cx="0" cy="0" r="1" gradientUnits="userSpaceOnUse" gradientTransform="translate(99.0484 114.776) rotate(-2.61) scale(23.3244 25.3308)">
<stop stop-color="#231815"/>
<stop offset="0.22" stop-color="#2B2727"/>
<stop offset="0.49" stop-color="#343538"/>
<stop offset="0.7" stop-color="#373A3F"/>
</radialGradient>
<linearGradient id="paint2_linear_53_540" x1="71.1814" y1="83.2476" x2="89.3414" y2="121.348" gradientUnits="userSpaceOnUse">
<stop stop-color="#C28158"/>
<stop offset="0.5" stop-color="#775339"/>
<stop offset="0.67" stop-color="#795438"/>
<stop offset="0.76" stop-color="#805938"/>
<stop offset="0.82" stop-color="#8D6236"/>
<stop offset="0.88" stop-color="#A06E35"/>
<stop offset="0.92" stop-color="#B87E33"/>
<stop offset="0.97" stop-color="#D59130"/>
<stop offset="1" stop-color="#F2A42E"/>
</linearGradient>
<linearGradient id="paint3_linear_53_540" x1="159.6" y1="70.9145" x2="149.462" y2="57.7022" gradientUnits="userSpaceOnUse">
<stop offset="0.64" stop-color="#F2911D"/>
<stop offset="0.83" stop-color="#FFCD46"/>
</linearGradient>
<radialGradient id="paint4_radial_53_540" cx="0" cy="0" r="1" gradientUnits="userSpaceOnUse" gradientTransform="translate(152.121 63.7852) rotate(-0.410001) scale(5.22 5.76)">
<stop stop-color="#F5F1F9"/>
<stop offset="0.59" stop-color="#61667F"/>
</radialGradient>
<radialGradient id="paint5_radial_53_540" cx="0" cy="0" r="1" gradientUnits="userSpaceOnUse" gradientTransform="translate(158.687 63.2678) rotate(-0.409969) scale(5.79419 6.3936)">
<stop offset="0.26" stop-color="#F5F1F9"/>
<stop offset="0.83" stop-color="#C9CACA"/>
</radialGradient>
<radialGradient id="paint6_radial_53_540" cx="0" cy="0" r="1" gradientUnits="userSpaceOnUse" gradientTransform="translate(160.955 62.4737) rotate(-0.409982) scale(7.42109 8.1888)">
<stop offset="0.26" stop-color="#F5F1F9"/>
<stop offset="0.83" stop-color="#C9CACA"/>
</radialGradient>
<linearGradient id="paint7_linear_53_540" x1="78.1095" y1="61.2594" x2="111.362" y2="50.3114" gradientUnits="userSpaceOnUse">
<stop offset="0.64" stop-color="#F2A42E"/>
<stop offset="0.84" stop-color="#FFC846"/>
</linearGradient>
<linearGradient id="paint8_linear_53_540" x1="139.722" y1="32.0999" x2="94.4894" y2="41.6711" gradientUnits="userSpaceOnUse">
<stop offset="0.09" stop-color="#231815"/>
<stop offset="0.28" stop-color="#2D2A2B"/>
<stop offset="0.46" stop-color="#343539"/>
<stop offset="0.61" stop-color="#373A3F"/>
<stop offset="0.72" stop-color="#323235"/>
<stop offset="0.9" stop-color="#261E1D"/>
<stop offset="0.95" stop-color="#231815"/>
</linearGradient>
<radialGradient id="paint9_radial_53_540" cx="0" cy="0" r="1" gradientUnits="userSpaceOnUse" gradientTransform="translate(85.1079 110.881) rotate(-2.75001) scale(2.33 2.33)">
<stop offset="0.09" stop-color="#545963"/>
<stop offset="0.38" stop-color="#3D3D3F"/>
<stop offset="0.59" stop-color="#302D2B"/>
</radialGradient>
<radialGradient id="paint10_radial_53_540" cx="0" cy="0" r="1" gradientUnits="userSpaceOnUse" gradientTransform="translate(36.7085 112.685) rotate(-2.75) scale(3.9 3.9)">
<stop offset="0.09" stop-color="#545963"/>
<stop offset="0.38" stop-color="#3D3D3F"/>
<stop offset="0.59" stop-color="#302D2B"/>
</radialGradient>
<linearGradient id="paint11_linear_53_540" x1="111.394" y1="66.7989" x2="127.534" y2="63.4908" gradientUnits="userSpaceOnUse">
<stop offset="0.36" stop-color="#F2A42E"/>
<stop offset="0.94" stop-color="#FFC846"/>
</linearGradient>
<radialGradient id="paint12_radial_53_540" cx="0" cy="0" r="1" gradientUnits="userSpaceOnUse" gradientTransform="translate(66.0518 60.1367) rotate(-2.75) scale(18.02 18.02)">
<stop offset="0.53" stop-color="#545963"/>
<stop offset="0.54" stop-color="#51555E"/>
<stop offset="0.69" stop-color="#2F2929"/>
<stop offset="0.76" stop-color="#231815"/>
</radialGradient>
<radialGradient id="paint13_radial_53_540" cx="0" cy="0" r="1" gradientUnits="userSpaceOnUse" gradientTransform="translate(52.222 67.749) rotate(-2.75) scale(15.22)">
<stop offset="0.51" stop-color="#545963"/>
<stop offset="0.52" stop-color="#51555E"/>
<stop offset="0.68" stop-color="#2F2929"/>
<stop offset="0.76" stop-color="#231815"/>
</radialGradient>
<radialGradient id="paint14_radial_53_540" cx="0" cy="0" r="1" gradientUnits="userSpaceOnUse" gradientTransform="translate(43.7761 73.681) rotate(-2.75) scale(17.67 17.67)">
<stop offset="0.53" stop-color="#545963"/>
<stop offset="0.54" stop-color="#51555E"/>
<stop offset="0.69" stop-color="#2F2929"/>
<stop offset="0.76" stop-color="#231815"/>
</radialGradient>
<linearGradient id="paint15_linear_53_540" x1="82.7021" y1="63.5016" x2="61.0347" y2="68.0364" gradientUnits="userSpaceOnUse">
<stop offset="0.64" stop-color="#F2911D"/>
<stop offset="0.83" stop-color="#FFCD46"/>
</linearGradient>
<radialGradient id="paint16_radial_53_540" cx="0" cy="0" r="1" gradientUnits="userSpaceOnUse" gradientTransform="translate(77.9053 51.3878) rotate(-2.75) scale(14.21 14.21)">
<stop offset="0.65" stop-color="#51555E"/>
<stop offset="0.75" stop-color="#2F2929"/>
<stop offset="0.79" stop-color="#231815"/>
</radialGradient>
<radialGradient id="paint17_radial_53_540" cx="0" cy="0" r="1" gradientUnits="userSpaceOnUse" gradientTransform="translate(143.173 50.1338) rotate(-2.75) scale(14.0007 12.39)">
<stop offset="0.11" stop-color="#FFE487"/>
<stop offset="0.38" stop-color="#FFD463"/>
<stop offset="0.61" stop-color="#FFCB4D"/>
<stop offset="0.76" stop-color="#FFC846"/>
</radialGradient>
<radialGradient id="paint18_radial_53_540" cx="0" cy="0" r="1" gradientUnits="userSpaceOnUse" gradientTransform="translate(136.334 61.6362) rotate(-2.75) scale(5.92 5.92)">
<stop offset="0.33" stop-color="#9A2403"/>
<stop offset="0.69" stop-color="#B94302"/>
</radialGradient>
<radialGradient id="paint19_radial_53_540" cx="0" cy="0" r="1" gradientUnits="userSpaceOnUse" gradientTransform="translate(137.127 65.8632) rotate(-2.75) scale(5.92 5.92)">
<stop offset="0.33" stop-color="#9A2403"/>
<stop offset="0.69" stop-color="#B94302"/>
</radialGradient>
<radialGradient id="paint20_radial_53_540" cx="0" cy="0" r="1" gradientUnits="userSpaceOnUse" gradientTransform="translate(138.128 70.0199) rotate(-2.75) scale(5.92 5.92)">
<stop offset="0.33" stop-color="#9A2403"/>
<stop offset="0.69" stop-color="#B94302"/>
</radialGradient>
<radialGradient id="paint21_radial_53_540" cx="0" cy="0" r="1" gradientUnits="userSpaceOnUse" gradientTransform="translate(155.688 61.2472) rotate(-2.75) scale(3.1 3.1)">
<stop offset="0.33" stop-color="#9A2403"/>
<stop offset="0.69" stop-color="#B94302"/>
</radialGradient>
<radialGradient id="paint22_radial_53_540" cx="0" cy="0" r="1" gradientUnits="userSpaceOnUse" gradientTransform="translate(156.306 65.1622) rotate(-2.75) scale(3.1 3.1)">
<stop offset="0.33" stop-color="#9A2403"/>
<stop offset="0.69" stop-color="#B94302"/>
</radialGradient>
<radialGradient id="paint23_radial_53_540" cx="0" cy="0" r="1" gradientUnits="userSpaceOnUse" gradientTransform="translate(157.142 69.2266) rotate(-2.75) scale(3.1 3.1)">
<stop offset="0.33" stop-color="#9A2403"/>
<stop offset="0.69" stop-color="#B94302"/>
</radialGradient>
<linearGradient id="paint24_linear_53_540" x1="94.7528" y1="23.797" x2="102.59" y2="20.0589" gradientUnits="userSpaceOnUse">
<stop stop-color="#231815"/>
<stop offset="0.17" stop-color="#261D1B"/>
<stop offset="0.4" stop-color="#2E2B2D"/>
<stop offset="0.57" stop-color="#373A3F"/>
<stop offset="1" stop-color="#231815"/>
</linearGradient>
<radialGradient id="paint25_radial_53_540" cx="0" cy="0" r="1" gradientUnits="userSpaceOnUse" gradientTransform="translate(95.5118 16.1894) rotate(-25.5) scale(8.2863 10.23)">
<stop offset="0.02" stop-color="#FFA988"/>
<stop offset="0.33" stop-color="#F64B2F"/>
<stop offset="0.49" stop-color="#ED462C"/>
<stop offset="0.73" stop-color="#D53926"/>
<stop offset="1" stop-color="#B5271D"/>
</radialGradient>
<linearGradient id="paint26_linear_53_540" x1="133.3" y1="20.0692" x2="132.973" y2="22.6106" gradientUnits="userSpaceOnUse">
<stop stop-color="#231815"/>
<stop offset="0.17" stop-color="#261D1B"/>
<stop offset="0.4" stop-color="#2E2B2D"/>
<stop offset="0.57" stop-color="#373A3F"/>
<stop offset="1" stop-color="#231815"/>
</linearGradient>
<radialGradient id="paint27_radial_53_540" cx="0" cy="0" r="1" gradientUnits="userSpaceOnUse" gradientTransform="translate(135.284 20.4588) rotate(4.86001) scale(4.62 4.62)">
<stop offset="0.02" stop-color="#FFA988"/>
<stop offset="0.66" stop-color="#F64B2F"/>
<stop offset="0.74" stop-color="#ED462C"/>
<stop offset="0.86" stop-color="#D53926"/>
<stop offset="1" stop-color="#B5271D"/>
</radialGradient>
<radialGradient id="paint28_radial_53_540" cx="0" cy="0" r="1" gradientUnits="userSpaceOnUse" gradientTransform="translate(52.8027 108.278) scale(14.18 14.18)">
<stop offset="0.36" stop-color="#9E5A34"/>
<stop offset="0.48" stop-color="#965634"/>
<stop offset="0.65" stop-color="#804E34"/>
<stop offset="0.87" stop-color="#5C3F34"/>
<stop offset="1" stop-color="#443634"/>
</radialGradient>
<radialGradient id="paint29_radial_53_540" cx="0" cy="0" r="1" gradientUnits="userSpaceOnUse" gradientTransform="translate(97.623 88.4079) scale(16.28 16.28)">
<stop offset="0.36" stop-color="#9E5A34"/>
<stop offset="0.48" stop-color="#965634"/>
<stop offset="0.65" stop-color="#804E34"/>
<stop offset="0.87" stop-color="#5C3F34"/>
<stop offset="1" stop-color="#443634"/>
</radialGradient>
<linearGradient id="paint30_linear_53_540" x1="56.1927" y1="107.915" x2="65.4342" y2="109.183" gradientUnits="userSpaceOnUse">
<stop stop-color="#231815"/>
<stop offset="0.21" stop-color="#261D1B"/>
<stop offset="0.49" stop-color="#2E2B2D"/>
<stop offset="0.7" stop-color="#373A3F"/>
</linearGradient>
<radialGradient id="paint31_radial_53_540" cx="0" cy="0" r="1" gradientUnits="userSpaceOnUse" gradientTransform="translate(53.7168 107.177) rotate(-2.75) scale(10.06 10.563)">
<stop stop-color="#231815"/>
<stop offset="0.23" stop-color="#261D1B"/>
<stop offset="0.56" stop-color="#2E2B2D"/>
<stop offset="0.79" stop-color="#373A3F"/>
<stop offset="1" stop-color="#231815"/>
</radialGradient>
<radialGradient id="paint32_radial_53_540" cx="0" cy="0" r="1" gradientUnits="userSpaceOnUse" gradientTransform="translate(59.0612 107.666) rotate(9.05) scale(7.2963 8.9914)">
<stop offset="0.26" stop-color="#F5F1F9"/>
<stop offset="0.83" stop-color="#C9CACA"/>
</radialGradient>
<radialGradient id="paint33_radial_53_540" cx="0" cy="0" r="1" gradientUnits="userSpaceOnUse" gradientTransform="translate(40.9005 88.9834) rotate(-2.75) scale(21.3465 20.33)">
<stop offset="0.47" stop-color="#FFC846"/>
<stop offset="1" stop-color="#F2A42E"/>
</radialGradient>
<linearGradient id="paint34_linear_53_540" x1="101.78" y1="90.7276" x2="113.279" y2="92.2977" gradientUnits="userSpaceOnUse">
<stop stop-color="#231815"/>
<stop offset="0.21" stop-color="#261D1B"/>
<stop offset="0.49" stop-color="#2E2B2D"/>
<stop offset="0.7" stop-color="#373A3F"/>
</linearGradient>
<radialGradient id="paint35_radial_53_540" cx="0" cy="0" r="1" gradientUnits="userSpaceOnUse" gradientTransform="translate(98.7136 90.2242) rotate(-2.75) scale(12.6 12.6)">
<stop stop-color="#231815"/>
<stop offset="0.23" stop-color="#261D1B"/>
<stop offset="0.56" stop-color="#2E2B2D"/>
<stop offset="0.79" stop-color="#373A3F"/>
<stop offset="1" stop-color="#231815"/>
</radialGradient>
<radialGradient id="paint36_radial_53_540" cx="0" cy="0" r="1" gradientUnits="userSpaceOnUse" gradientTransform="translate(104.87 90.3577) rotate(8.47) scale(9.0356 10.6952)">
<stop offset="0.26" stop-color="#F5F1F9"/>
<stop offset="0.83" stop-color="#C9CACA"/>
</radialGradient>
<radialGradient id="paint37_radial_53_540" cx="0" cy="0" r="1" gradientUnits="userSpaceOnUse" gradientTransform="translate(111.545 54.928) rotate(-2.75) scale(36 36)">
<stop offset="0.47" stop-color="#FFC846"/>
<stop offset="1" stop-color="#F2A42E"/>
</radialGradient>
<linearGradient id="paint38_linear_53_540" x1="105.203" y1="85.077" x2="176.681" y2="81.6437" gradientUnits="userSpaceOnUse">
<stop stop-color="#231815"/>
<stop offset="0.17" stop-color="#261D1B"/>
<stop offset="0.4" stop-color="#2E2B2D"/>
<stop offset="0.57" stop-color="#373A3F"/>
<stop offset="1" stop-color="#231815"/>
</linearGradient>
<radialGradient id="paint39_radial_53_540" cx="0" cy="0" r="1" gradientUnits="userSpaceOnUse" gradientTransform="translate(144.674 77.4018) rotate(-2.75) scale(16.325 13.06)">
<stop offset="0.33" stop-color="#EFEFEF"/>
<stop offset="0.54" stop-color="#ADA9A8"/>
<stop offset="1" stop-color="#231815"/>
</radialGradient>
<radialGradient id="paint40_radial_53_540" cx="0" cy="0" r="1" gradientUnits="userSpaceOnUse" gradientTransform="translate(104.764 85.118) rotate(-2.75) scale(13.92 13.92)">
<stop offset="0.33" stop-color="#EFEFEF"/>
<stop offset="0.49" stop-color="#ADA9A8"/>
<stop offset="0.84" stop-color="#231815"/>
</radialGradient>
<linearGradient id="paint41_linear_53_540" x1="112.512" y1="74.0236" x2="100.69" y2="58.4228" gradientUnits="userSpaceOnUse">
<stop offset="0.64" stop-color="#F2911D"/>
<stop offset="0.83" stop-color="#FFCD46"/>
</linearGradient>
<radialGradient id="paint42_radial_53_540" cx="0" cy="0" r="1" gradientUnits="userSpaceOnUse" gradientTransform="translate(102.817 66.3315) rotate(-2.75) scale(6.55)">
<stop stop-color="#F5F1F9"/>
<stop offset="0.59" stop-color="#61667F"/>
</radialGradient>
<radialGradient id="paint43_radial_53_540" cx="0" cy="0" r="1" gradientUnits="userSpaceOnUse" gradientTransform="translate(111.01 65.4007) rotate(-2.74999) scale(7.27 7.27)">
<stop offset="0.26" stop-color="#F5F1F9"/>
<stop offset="0.83" stop-color="#C9CACA"/>
</radialGradient>
<radialGradient id="paint44_radial_53_540" cx="0" cy="0" r="1" gradientUnits="userSpaceOnUse" gradientTransform="translate(113.823 64.3846) rotate(-2.75) scale(9.31 9.31)">
<stop offset="0.26" stop-color="#F5F1F9"/>
<stop offset="0.83" stop-color="#C9CACA"/>
</radialGradient>
</defs>
</svg>
