<svg width="198" height="145" viewBox="0 0 198 145" fill="none" xmlns="http://www.w3.org/2000/svg">
<path d="M198 0.100098H0V144.1H198V0.100098Z" fill="#F6899A"/>
<path d="M19.7163 52.9758C20.2758 52.6204 20.4004 51.8146 19.9948 51.1759C19.5892 50.5372 18.8068 50.3075 18.2473 50.6628C17.6879 51.0181 17.5632 51.8239 17.9689 52.4626C18.3745 53.1013 19.1569 53.3311 19.7163 52.9758Z" fill="#67AFEF"/>
<path d="M131.683 73.1273C138.193 76.1873 139.163 84.9673 139.163 84.9673C139.853 98.3273 134.743 99.3473 134.743 99.3473C134.743 99.3473 128.543 102.037 122.853 99.4273L119.043 74.6473C119.043 74.6473 122.993 69.0473 131.683 73.1373V73.1273Z" fill="url(#paint0_radial_71_1326)"/>
<path d="M121.884 73.2678C117.294 73.6078 114.864 80.8878 116.304 88.3178C117.744 95.7478 122.584 101.058 127.114 100.188C127.114 100.188 132.444 98.7178 130.694 84.9278C130.694 84.9278 129.424 72.7278 121.894 73.2778L121.884 73.2678Z" fill="#231815"/>
<path d="M82.7632 91.9775C87.9132 94.5275 88.7032 101.798 88.7032 101.798C89.2732 112.868 85.2332 113.698 85.2332 113.698C85.2332 113.698 80.3332 115.918 75.8332 113.738L72.7832 93.2075C72.7832 93.2075 75.8932 88.5775 82.7732 91.9775H82.7632Z" fill="url(#paint1_radial_71_1326)"/>
<path d="M75.0231 92.0778C71.3931 92.3478 69.4831 98.3678 70.6431 104.528C71.7931 110.688 75.6331 115.098 79.2031 114.378C79.2031 114.378 83.4131 113.168 82.0031 101.748C82.0031 101.748 80.9831 91.6378 75.0231 92.0878V92.0778Z" fill="#231815"/>
<path d="M23.7422 114.588L24.1122 116.908C24.1122 116.908 43.9522 116.878 62.5922 112.068C62.5922 112.068 65.3722 111.068 69.5522 107.308C69.5522 107.308 73.0922 100.968 103.452 92.4675L84.8722 71.2275L65.1822 72.1775L34.3022 91.0775L24.8322 93.2775C24.8322 93.2775 20.1422 98.4375 23.7522 114.598L23.7422 114.588Z" fill="url(#paint2_linear_71_1326)"/>
<path d="M150.633 62.7476C152.253 66.8576 151.223 71.1176 148.343 72.2476C145.463 73.3776 139.063 73.3476 136.943 67.0576C135.533 62.8676 139.593 58.4876 142.483 57.3576C145.373 56.2276 149.013 58.6376 150.633 62.7476Z" fill="url(#paint3_linear_71_1326)"/>
<path d="M149.401 72.1216C152.285 70.9871 153.31 66.7344 151.692 62.623C150.075 58.5116 146.426 56.0983 143.543 57.2329C140.66 58.3674 139.634 62.6201 141.252 66.7315C142.87 70.8429 146.518 73.2561 149.401 72.1216Z" fill="url(#paint4_radial_71_1326)"/>
<path d="M149.951 71.1962C152.469 70.2052 153.309 66.3481 151.827 62.581C150.344 58.8139 147.101 56.5634 144.583 57.5544C142.065 58.5453 141.225 62.4025 142.708 66.1695C144.19 69.9366 147.433 72.1871 149.951 71.1962Z" fill="url(#paint5_radial_71_1326)"/>
<path d="M149.64 70.3745C151.752 69.5433 152.394 66.149 151.073 62.7931C149.753 59.4371 146.97 57.3904 144.858 58.2216C142.746 59.0528 142.104 62.4471 143.424 65.803C144.745 69.159 147.528 71.2057 149.64 70.3745Z" fill="#8B8895"/>
<path d="M149.194 70.109C150.967 69.4113 151.458 66.4418 150.291 63.4764C149.125 60.5111 146.741 58.6728 144.968 59.3705C143.195 60.0682 142.704 63.0377 143.871 66.003C145.038 68.9684 147.421 70.8067 149.194 70.109Z" fill="url(#paint6_radial_71_1326)"/>
<path d="M116.803 32.1076C116.803 32.1076 117.893 30.6076 115.443 24.0476C115.443 24.0476 113.153 18.6376 112.043 17.7276C112.043 17.7276 109.093 13.6576 100.203 13.0676C100.203 13.0676 86.9432 12.0076 77.6632 15.2176C77.6632 15.2176 68.2532 18.6676 50.7632 30.2476C50.7632 30.2476 33.5232 40.9476 11.6632 63.1876C11.6632 63.1876 6.73319 67.3876 9.81319 74.9876C9.81319 74.9876 21.6332 115.638 21.9632 116.398C21.9632 116.398 25.2532 113.388 25.5332 113.128C25.5332 113.128 22.3932 106.268 23.9732 99.8476C23.9732 99.8476 26.4332 91.5576 31.9332 96.3676C31.9332 96.3676 34.1132 98.3876 35.5132 103.408C35.5132 103.408 35.9532 105.568 39.2632 103.908L65.1232 93.2776C65.1232 93.2776 61.3332 77.8376 70.6632 74.6776C70.6632 74.6776 78.9732 72.3476 81.9332 85.7476L100.763 83.0076L72.7532 61.9076L75.1532 59.4676L101.743 48.9976L81.9032 51.0176C81.9032 51.0176 77.2832 51.6276 76.0532 52.1676L67.5832 55.0876C67.5832 55.0876 64.7532 56.5776 63.8132 53.2376C63.8132 53.2376 60.3132 44.8876 61.0632 38.2776C61.0632 38.2776 61.2032 35.1776 68.6532 33.0776C68.6532 33.0776 91.5332 25.8776 112.283 30.9776C112.283 30.9776 114.123 30.9776 114.563 34.1576C114.563 34.1576 116.713 32.6076 116.783 32.1176L116.803 32.1076Z" fill="url(#paint7_linear_71_1326)"/>
<path d="M67.5835 55.0377C67.5835 55.0377 64.7535 56.5277 63.8135 53.1877C63.8135 53.1877 60.3135 44.8377 61.0635 38.2277C61.0635 38.2277 61.2035 35.1277 68.6535 33.0277C68.6535 33.0277 91.5335 25.8277 112.283 30.9277C112.283 30.9277 114.123 30.9277 114.563 34.1077C114.563 34.1077 116.713 32.5577 116.783 32.0677L116.923 31.4977C116.923 31.4977 116.713 29.2377 108.883 28.4477C108.883 28.4477 74.7035 25.0077 60.4235 35.8577C60.4235 35.8577 57.7735 37.2177 58.5335 42.8877C58.5335 42.8877 59.5635 58.6977 66.6335 55.7477L68.0435 55.0577" fill="#934D15"/>
<path d="M67.7741 55.3074C67.7741 55.3074 64.7541 56.5474 63.8241 53.2074C63.8241 53.2074 60.3241 44.8574 61.0741 38.2474C61.0741 38.2474 61.2141 35.1474 68.6641 33.0474C68.6641 33.0474 91.5441 25.8474 112.294 30.9474C112.294 30.9474 114.134 30.9474 114.574 34.1274L117.434 45.3074C117.434 45.3074 110.194 45.7274 106.344 47.1474C106.344 47.1474 102.094 48.3174 101.744 49.0174L81.9041 51.0374C81.9041 51.0374 74.7741 51.6474 67.7641 55.3174L67.7741 55.3074Z" fill="url(#paint8_linear_71_1326)"/>
<path d="M91.8527 16.3574C91.8527 16.3574 88.4227 16.6174 89.1527 20.5274C89.1527 20.5274 90.3627 26.3274 94.3527 26.2874C94.3527 26.2874 106.643 26.9274 108.613 27.0774C108.613 27.0774 112.163 27.2974 111.663 23.8774C111.663 23.8774 110.993 18.1474 106.583 17.4274C106.583 17.4274 99.0327 16.0674 91.8627 16.3674L91.8527 16.3574Z" fill="#D09037"/>
<path d="M90.7737 17.7474C90.7737 17.7474 88.5037 17.4574 89.2137 20.9274C89.2137 20.9274 90.5037 26.1774 93.9937 26.2574C93.9937 26.2574 105.844 26.8974 107.814 27.0174C107.814 27.0174 110.954 27.3474 110.464 24.3174C110.464 24.3174 109.824 19.2374 105.434 18.6174C105.434 18.6174 97.9237 17.4474 90.7737 17.7474Z" fill="#F7F8F8"/>
<path d="M53.9825 41.6576C53.9825 41.6576 53.8125 39.6376 51.4025 40.9076C51.4025 40.9076 44.4025 44.7276 43.8025 45.9176C43.8025 45.9176 42.3925 46.7076 43.9625 52.2276L53.2025 90.3876C53.2025 90.3876 53.7125 93.4076 57.4225 92.2176L62.5525 90.2976L53.9725 41.6476L53.9825 41.6576Z" fill="#DF832E"/>
<path d="M53.8227 41.6078C53.8227 41.6078 53.4727 40.5178 52.5827 41.1178C52.5827 41.1178 46.3327 44.8578 45.5927 45.6278C45.5927 45.6278 43.3527 46.5678 43.9627 49.3078L54.2527 90.3878C54.2527 90.3878 54.8027 92.4878 57.0327 92.1978L62.3927 90.0178L53.8227 41.6178V41.6078Z" fill="#9E5A34"/>
<path d="M32.0938 53.8279C32.0938 53.8279 30.2538 54.7279 31.2638 58.1779L34.0638 70.0479C34.0638 70.0479 34.7238 72.6579 37.7338 71.0179L43.1438 67.4379C43.1438 67.4379 44.4838 66.4279 44.1538 64.6579C44.1538 64.6579 41.1338 51.4079 41.0638 51.1179C41.0638 51.1179 40.2038 48.4379 37.8538 49.8079L32.0838 53.8079L32.0938 53.8279Z" fill="#9C4606"/>
<path d="M21.1632 62.5674C21.1632 62.5674 19.5432 63.4274 20.4532 66.7774L23.2532 77.8174C23.2532 77.8174 23.8432 80.3474 26.4932 78.7774L31.0032 75.4374C31.0032 75.4374 32.1832 74.4674 31.8832 72.7474C31.8832 72.7474 29.1632 59.9074 29.1032 59.6274C29.1032 59.6274 28.3332 57.0274 26.2632 58.3474L21.1632 62.5574V62.5674Z" fill="#934D15"/>
<path d="M11.7638 71.2677C11.7638 71.2677 10.3038 72.1477 11.2838 75.2977L14.3238 85.5277C14.3238 85.5277 14.9838 87.9077 17.3638 86.3077L21.3938 82.9577C21.3938 82.9577 22.4438 81.9877 22.0938 80.3677C22.0938 80.3677 19.0338 68.2677 18.9638 68.0077C18.9638 68.0077 18.1438 65.5677 16.2838 66.8977L11.7638 71.2577V71.2677Z" fill="#934D15"/>
<path d="M68.1228 108.688C68.1228 108.688 68.9328 110.788 69.0628 111.908C69.0628 111.908 69.4828 113.688 67.2928 114.898L66.6328 109.327L68.1228 108.688Z" fill="url(#paint9_radial_71_1326)"/>
<path d="M24.1032 116.918C23.3732 111.388 22.2032 110.628 22.2032 110.628C21.1132 110.418 20.1132 111.138 20.1132 111.138L20.8332 116.508L19.5332 121.618C23.2532 126.128 62.9732 117.008 62.9732 117.008C68.3032 115.308 67.9532 113.578 67.9532 113.578C68.2232 111.758 66.9232 109.298 66.9232 109.298C66.9232 109.298 61.4132 112.278 25.7832 116.748L24.0932 116.918H24.1032Z" fill="#231815"/>
<path d="M20.1226 111.138C20.1226 111.138 17.4826 111.988 17.7426 114.188L19.5426 121.618C19.5426 121.618 21.1026 118.758 22.3526 117.928L21.3626 113.388C21.3626 113.388 20.8426 111.098 20.1226 111.128V111.138Z" fill="url(#paint10_radial_71_1326)"/>
<path d="M145.394 75.4379C145.394 75.4379 140.834 53.1079 140.624 52.6379C140.624 52.6379 138.594 44.7079 125.254 44.9579C125.254 44.9579 115.884 45.3079 112.134 45.7779C112.134 45.7779 105.434 46.7979 99.6735 49.6679L75.7335 59.3379C75.7335 59.3379 71.1035 61.5879 70.1035 62.8979L84.5135 80.3979L100.634 79.1179C100.634 79.1179 113.404 77.5579 114.564 77.5079L145.404 75.4479L145.394 75.4379Z" fill="url(#paint11_linear_71_1326)"/>
<path d="M33.8433 54.0977C33.8433 54.0977 32.3633 54.9277 33.2033 58.1877L35.9933 69.0077C35.9933 69.0077 36.5433 71.4677 38.9733 69.9477L43.0633 67.2377C43.0633 67.2377 44.3933 66.5577 44.0633 64.3877C44.0633 64.3877 41.3433 52.1377 41.2833 51.8777C41.2833 51.8777 40.5733 49.3577 38.6833 50.6277L33.8533 54.1077L33.8433 54.0977Z" fill="url(#paint12_radial_71_1326)"/>
<path d="M22.9242 62.9379C22.9242 62.9379 21.7042 64.2079 22.4642 67.3579L25.0042 76.8679C25.0042 76.8679 25.5642 79.0679 27.7042 77.6079L30.9442 75.2279C30.9442 75.2279 32.1142 74.5779 31.8142 72.4679C31.8142 72.4679 29.3542 60.5979 29.3042 60.3379C29.3042 60.3379 28.8742 58.1579 27.2142 59.3879L22.9342 62.9279L22.9242 62.9379Z" fill="url(#paint13_radial_71_1326)"/>
<path d="M13.3934 71.4374C13.3934 71.4374 12.3234 72.6874 13.1534 75.6474L15.9034 84.5574C15.9034 84.5574 16.5134 86.6174 18.4234 85.1574L21.3234 82.7774C21.3234 82.7774 22.3834 82.1174 22.0134 80.1274C22.0134 80.1274 19.2434 68.9774 19.1834 68.7374C19.1834 68.7374 18.6934 66.6874 17.2134 67.9174L13.4034 71.4474L13.3934 71.4374Z" fill="url(#paint14_radial_71_1326)"/>
<path d="M53.993 42.0578C53.993 42.0578 53.653 40.9878 52.773 41.5678C52.773 41.5678 46.633 45.2378 45.913 45.9978C45.913 45.9978 44.073 46.9178 44.673 49.6178L54.773 89.9578C54.773 89.9578 55.343 92.0378 57.143 91.7278L62.413 89.5878L53.993 42.0578Z" fill="url(#paint15_linear_71_1326)"/>
<path d="M47.593 48.4073C47.593 48.4073 46.323 49.0273 47.023 51.4273L49.343 59.3773C49.343 59.3773 49.793 61.1873 51.873 60.0573L55.383 58.0373C55.383 58.0373 56.523 57.5273 56.253 55.9273C56.253 55.9273 54.003 46.9173 53.953 46.7173C53.953 46.7173 53.363 44.8573 51.743 45.8073L47.603 48.3973L47.593 48.4073Z" fill="#934D15"/>
<path d="M56.353 57.7974C56.353 57.7974 55.113 59.1974 51.203 60.9474C51.203 60.9474 50.213 61.1574 49.793 60.6474C49.793 60.6474 50.623 60.8574 51.253 60.4874C51.253 60.4874 54.233 59.1474 56.103 57.6574C56.103 57.6574 56.443 57.4774 56.343 57.7874L56.353 57.7974Z" fill="#F9D05A"/>
<path d="M48.4529 48.5874C48.4529 48.5874 47.3129 49.1774 47.9529 51.4774L50.0528 59.1074C50.0528 59.1074 50.4628 60.8474 52.3228 59.7674L55.4628 57.8474C55.4628 57.8474 56.4829 57.3674 56.2329 55.8274C56.2329 55.8274 54.1828 47.1874 54.1428 46.9974C54.1428 46.9974 53.6028 45.2174 52.1528 46.1174L48.4529 48.5874Z" fill="url(#paint16_radial_71_1326)"/>
<path d="M122.876 58.6709C132.072 58.2292 139.389 55.0001 139.219 51.4585C139.049 47.9169 131.456 45.404 122.26 45.8457C113.064 46.2874 105.747 49.5165 105.917 53.0581C106.088 56.5997 113.68 59.1126 122.876 58.6709Z" fill="url(#paint17_radial_71_1326)"/>
<path d="M127.283 61.5675C127.283 61.5675 127.303 61.6175 127.313 61.6475C127.603 62.3175 127.113 63.0775 126.383 63.1775C124.703 63.4075 120.663 63.8275 112.143 64.0775C111.733 64.0875 111.333 63.8875 111.123 63.5275C110.823 63.0275 110.613 62.3175 111.453 61.8575C111.453 61.8575 123.283 61.1675 126.143 60.9275C126.623 60.8875 127.073 61.1375 127.273 61.5675H127.283Z" fill="url(#paint18_radial_71_1326)"/>
<path d="M128.072 65.7975C128.072 65.7975 128.092 65.8475 128.102 65.8775C128.392 66.5475 127.902 67.3075 127.172 67.4075C125.492 67.6375 121.452 68.0575 112.932 68.3075C112.522 68.3175 112.122 68.1175 111.912 67.7575C111.612 67.2575 111.402 66.5475 112.242 66.0875C112.242 66.0875 124.072 65.3975 126.932 65.1575C127.412 65.1175 127.862 65.3675 128.062 65.7975H128.072Z" fill="url(#paint19_radial_71_1326)"/>
<path d="M129.072 69.9577C129.072 69.9577 129.092 70.0077 129.102 70.0377C129.392 70.7077 128.902 71.4677 128.172 71.5677C126.492 71.7977 122.452 72.2177 113.932 72.4677C113.522 72.4777 113.122 72.2776 112.912 71.9176C112.612 71.4176 112.402 70.7077 113.242 70.2477C113.242 70.2477 125.072 69.5577 127.932 69.3177C128.412 69.2777 128.862 69.5277 129.062 69.9577H129.072Z" fill="url(#paint20_radial_71_1326)"/>
<path d="M135.093 60.9876C135.093 60.9876 134.133 60.9276 134.353 62.1476C134.353 62.1476 134.413 63.3176 135.523 63.1576C135.523 63.1576 140.853 63.0576 142.733 63.3476L142.373 61.3376C142.373 61.3376 137.533 60.5076 135.103 60.9976L135.093 60.9876Z" fill="url(#paint21_radial_71_1326)"/>
<path d="M135.702 64.8977C135.702 64.8977 134.742 64.8377 134.962 66.0577C134.962 66.0577 135.072 67.1677 136.132 67.0677C136.132 67.0677 141.462 66.9677 143.342 67.2577L142.982 65.2477C142.982 65.2477 138.142 64.4177 135.712 64.9077L135.702 64.8977Z" fill="url(#paint22_radial_71_1326)"/>
<path d="M136.542 68.9675C136.542 68.9675 135.582 68.9075 135.802 70.1275C135.802 70.1275 135.912 71.2375 136.972 71.1375C136.972 71.1375 142.302 71.0375 144.182 71.3275L143.822 69.3175C143.822 69.3175 138.982 68.4875 136.552 68.9775L136.542 68.9675Z" fill="url(#paint23_radial_71_1326)"/>
<path d="M76.8029 23.3874C75.2029 20.3174 77.6729 18.0474 79.4829 17.1874C81.2929 16.3274 83.6429 17.4574 84.7229 19.7274C85.8029 21.9974 85.1129 24.3474 83.4029 25.3974C80.7029 27.0674 77.9629 25.6074 76.8029 23.3874Z" fill="url(#paint24_linear_71_1326)"/>
<path d="M82.9906 24.7853C84.5359 24.0482 85.0543 21.9111 84.1484 20.0119C83.2425 18.1126 81.2554 17.1705 79.7101 17.9076C78.1648 18.6447 77.6465 20.7818 78.5524 22.681C79.4582 24.5803 81.4453 25.5224 82.9906 24.7853Z" fill="url(#paint25_radial_71_1326)"/>
<path d="M113.503 24.2974C112.783 22.0674 113.063 20.2574 114.273 19.8674C114.823 19.6874 115.543 19.6574 116.123 20.1474C116.823 20.7374 117.373 21.9774 117.763 23.1974C118.153 24.4174 118.473 25.6174 118.243 26.5074C118.053 27.2374 117.393 27.8574 116.563 28.0374C115.013 28.3674 114.223 26.5274 113.503 24.3074V24.2974Z" fill="url(#paint26_linear_71_1326)"/>
<path d="M117.58 27.2025C118.573 26.882 118.855 24.9988 118.209 22.9962C117.563 20.9936 116.234 19.63 115.24 19.9505C114.247 20.271 113.965 22.1542 114.611 24.1567C115.257 26.1593 116.586 27.5229 117.58 27.2025Z" fill="url(#paint27_radial_71_1326)"/>
<path d="M37.8135 103.058L25.5335 113.128L23.3535 106.508L23.7635 96.6078L27.8635 93.7078L34.1235 93.2979L37.8135 103.058Z" fill="url(#paint28_radial_71_1326)"/>
<path d="M83.5738 84.6478L65.1038 93.4378L62.9238 86.8178L63.3438 76.9178L67.4338 74.0178L79.0138 72.7178L83.5738 84.6478Z" fill="url(#paint29_radial_71_1326)"/>
<path d="M39.8133 97.4676C45.1933 100.038 45.9833 107.418 45.9833 107.418C46.5433 118.658 42.3133 119.518 42.3133 119.518C42.3133 119.518 37.1833 121.788 32.4833 119.598L29.3633 98.7576C29.3633 98.7576 32.6333 94.0376 39.8133 97.4676Z" fill="url(#paint30_linear_71_1326)"/>
<path d="M30.6927 98.1874C27.5827 98.3674 26.0627 104.187 27.1927 110.197C28.3127 116.217 31.7127 120.587 34.7627 119.977C34.7627 119.977 38.3527 118.897 36.9027 107.747C36.9027 107.747 35.8027 97.8874 30.6927 98.1874Z" fill="url(#paint31_radial_71_1326)"/>
<path d="M31.6526 101.908C29.0426 102.308 27.7826 106.288 28.7426 110.158C29.6926 114.028 32.5426 116.608 35.1126 115.918C35.1126 115.918 38.1226 114.878 36.8826 107.658C36.8826 107.658 35.9426 101.258 31.6626 101.918L31.6526 101.908Z" fill="#1C0F25"/>
<path d="M32.8124 102.387C30.9724 102.617 30.2624 106.057 31.1124 109.517C31.9624 112.977 34.1024 115.387 35.9024 114.907C35.9024 114.907 37.9924 114.137 36.7924 107.707C36.7924 107.707 35.8424 102.017 32.8224 102.387H32.8124Z" fill="url(#paint32_radial_71_1326)"/>
<path d="M43.4434 102.557L40.1334 103.857C36.6634 105.527 36.2034 103.367 36.2034 103.367C34.7434 98.3574 32.4634 96.3374 32.4634 96.3374C26.7034 91.5374 24.1134 99.8374 24.1134 99.8374C22.4434 106.257 25.7134 113.117 25.7134 113.117C25.6034 113.217 25.4534 113.317 24.8034 113.897L24.7834 113.747C15.0734 89.0574 29.9534 84.0874 29.9534 84.0874C41.1034 77.7174 44.4834 99.4474 44.4834 99.4474C45.1134 101.937 44.2834 102.067 44.2834 102.067L43.4434 102.557Z" fill="url(#paint33_radial_71_1326)"/>
<path d="M85.6327 78.0776C92.3627 81.1176 93.3227 89.8876 93.3227 89.8876C93.9827 103.258 88.6927 104.288 88.6927 104.288C88.6927 104.288 82.2627 107.008 76.3927 104.418L72.5527 79.6376C72.5527 79.6376 76.6527 74.0176 85.6327 78.0776Z" fill="url(#paint34_linear_71_1326)"/>
<path d="M74.214 78.9676C70.314 79.1876 68.404 86.1176 69.794 93.2676C71.184 100.428 75.414 105.618 79.244 104.878C79.244 104.878 83.744 103.578 81.954 90.3276C81.954 90.3276 80.614 78.6076 74.214 78.9676Z" fill="url(#paint35_radial_71_1326)"/>
<path d="M75.4033 83.3877C72.1333 83.8777 70.5533 88.6077 71.7333 93.2077C72.9133 97.8077 76.4733 100.868 79.6833 100.038C79.6833 100.038 83.4533 98.7877 81.9233 90.1977C81.9233 90.1977 80.7633 82.5777 75.4033 83.3777V83.3877Z" fill="#1C0F25"/>
<path d="M76.8535 83.958C74.5535 84.238 73.6435 88.328 74.7035 92.438C75.7635 96.548 78.4335 99.408 80.6835 98.828C80.6835 98.828 83.3035 97.908 81.8135 90.268C81.8135 90.268 80.6335 83.498 76.8535 83.958Z" fill="url(#paint36_radial_71_1326)"/>
<path d="M63.664 93.6879C63.664 93.6879 54.374 67.5279 72.184 61.5379C72.184 61.5379 95.094 50.9579 100.474 78.4679L100.784 82.9979L81.954 85.7379C78.984 72.3379 70.684 74.6679 70.684 74.6679C61.354 77.8279 65.144 93.2679 65.144 93.2679L63.664 93.6779V93.6879Z" fill="url(#paint37_radial_71_1326)"/>
<path d="M93.0428 93.4778C124.303 90.1578 149.913 88.4178 149.913 88.4178C153.813 87.9378 153.373 84.8378 153.373 84.8378L152.183 78.2878C152.183 78.2878 152.383 74.9378 147.823 75.2278C147.823 75.2278 123.873 75.2178 84.4228 80.3078C84.4228 80.3078 81.3228 80.6778 81.6928 83.9978L82.4028 89.6978C82.4028 89.6978 82.2028 94.4978 87.4028 94.0278L93.0328 93.4678L93.0428 93.4778Z" fill="url(#paint38_linear_71_1326)"/>
<path opacity="0.28" d="M104.914 78.7976C104.914 78.7976 103.014 80.6276 110.794 80.6876C110.794 80.6876 146.994 77.0576 150.454 77.4776C150.454 77.4776 154.804 73.7876 104.914 78.7976Z" fill="url(#paint39_radial_71_1326)"/>
<path opacity="0.27" d="M88.4727 81.0073C88.4727 81.0073 96.7927 79.3373 99.8627 79.8273C99.8627 79.8273 101.813 88.6373 100.363 90.2373C98.9527 90.5873 97.3227 91.1873 95.8927 90.9473C94.4627 90.7073 93.0527 89.7073 92.8127 88.2773C92.7127 87.6773 92.8127 87.0673 92.7327 86.4673C92.6727 86.0373 92.4927 85.6173 92.2427 85.2573C91.7827 84.6073 91.6827 83.7873 91.6527 82.9873C91.6527 82.8473 91.6027 82.7173 91.5127 82.5973C90.6627 81.8073 89.6327 80.9573 88.4727 81.0073Z" fill="url(#paint40_radial_71_1326)"/>
<path d="M98.0934 64.2776C99.9034 68.8676 98.4034 73.7576 94.7434 75.1976C91.0834 76.6376 83.1134 76.9276 80.7834 69.8876C79.2434 65.1976 84.5434 60.0076 88.1934 58.5676C91.8434 57.1276 96.2834 59.6876 98.0834 64.2776H98.0934Z" fill="url(#paint41_linear_71_1326)"/>
<path d="M96.0795 75.0055C99.7386 73.5656 101.241 68.6779 99.435 64.0886C97.629 59.4992 93.1987 56.9461 89.5395 58.386C85.8804 59.8259 84.3781 64.7136 86.184 69.3029C87.99 73.8923 92.4203 76.4454 96.0795 75.0055Z" fill="url(#paint42_radial_71_1326)"/>
<path d="M96.8153 73.9247C100.012 72.6668 101.261 68.235 99.6043 64.0259C97.948 59.8168 94.0139 57.4245 90.8173 58.6823C87.6207 59.9402 86.372 64.3721 88.0283 68.5811C89.6846 72.7902 93.6186 75.1826 96.8153 73.9247Z" fill="url(#paint43_radial_71_1326)"/>
<path d="M96.4741 73.0004C99.1517 71.9468 100.127 68.0555 98.6528 64.3089C97.1785 60.5624 93.8128 58.3794 91.1353 59.433C88.4577 60.4867 87.4823 64.378 88.9565 68.1245C90.4308 71.871 93.7965 74.054 96.4741 73.0004Z" fill="#8B8895"/>
<path d="M95.9171 72.7219C98.1681 71.8361 98.9371 68.435 97.6348 65.1253C96.3324 61.8157 93.4518 59.8507 91.2008 60.7365C88.9498 61.6223 88.1808 65.0234 89.4832 68.333C90.7856 71.6427 93.6662 73.6077 95.9171 72.7219Z" fill="url(#paint44_radial_71_1326)"/>
<defs>
<radialGradient id="paint0_radial_71_1326" cx="0" cy="0" r="1" gradientUnits="userSpaceOnUse" gradientTransform="translate(131.865 102.097) rotate(-2.62) scale(29.7305 30.65)">
<stop stop-color="#231815"/>
<stop offset="0.22" stop-color="#2B2727"/>
<stop offset="0.49" stop-color="#343538"/>
<stop offset="0.7" stop-color="#373A3F"/>
</radialGradient>
<radialGradient id="paint1_radial_71_1326" cx="0" cy="0" r="1" gradientUnits="userSpaceOnUse" gradientTransform="translate(81.8492 115.676) rotate(-2.61) scale(23.3244 25.3308)">
<stop stop-color="#231815"/>
<stop offset="0.22" stop-color="#2B2727"/>
<stop offset="0.49" stop-color="#343538"/>
<stop offset="0.7" stop-color="#373A3F"/>
</radialGradient>
<linearGradient id="paint2_linear_71_1326" x1="53.9822" y1="84.1475" x2="72.1422" y2="122.248" gradientUnits="userSpaceOnUse">
<stop stop-color="#C28158"/>
<stop offset="0.5" stop-color="#775339"/>
<stop offset="0.67" stop-color="#795438"/>
<stop offset="0.76" stop-color="#805938"/>
<stop offset="0.82" stop-color="#8D6236"/>
<stop offset="0.88" stop-color="#A06E35"/>
<stop offset="0.92" stop-color="#B87E33"/>
<stop offset="0.97" stop-color="#D59130"/>
<stop offset="1" stop-color="#F2A42E"/>
</linearGradient>
<linearGradient id="paint3_linear_71_1326" x1="142.401" y1="71.8144" x2="132.263" y2="58.6021" gradientUnits="userSpaceOnUse">
<stop offset="0.64" stop-color="#F2911D"/>
<stop offset="0.83" stop-color="#FFCD46"/>
</linearGradient>
<radialGradient id="paint4_radial_71_1326" cx="0" cy="0" r="1" gradientUnits="userSpaceOnUse" gradientTransform="translate(134.922 64.6851) rotate(-0.410001) scale(5.22 5.76)">
<stop stop-color="#F5F1F9"/>
<stop offset="0.59" stop-color="#61667F"/>
</radialGradient>
<radialGradient id="paint5_radial_71_1326" cx="0" cy="0" r="1" gradientUnits="userSpaceOnUse" gradientTransform="translate(141.488 64.1677) rotate(-0.409969) scale(5.79419 6.3936)">
<stop offset="0.26" stop-color="#F5F1F9"/>
<stop offset="0.83" stop-color="#C9CACA"/>
</radialGradient>
<radialGradient id="paint6_radial_71_1326" cx="0" cy="0" r="1" gradientUnits="userSpaceOnUse" gradientTransform="translate(143.756 63.3736) rotate(-0.409982) scale(7.42109 8.1888)">
<stop offset="0.26" stop-color="#F5F1F9"/>
<stop offset="0.83" stop-color="#C9CACA"/>
</radialGradient>
<linearGradient id="paint7_linear_71_1326" x1="60.9102" y1="62.1593" x2="94.1633" y2="51.2113" gradientUnits="userSpaceOnUse">
<stop offset="0.64" stop-color="#F2A42E"/>
<stop offset="0.84" stop-color="#FFC846"/>
</linearGradient>
<linearGradient id="paint8_linear_71_1326" x1="122.523" y1="32.9995" x2="77.2902" y2="42.5707" gradientUnits="userSpaceOnUse">
<stop offset="0.09" stop-color="#231815"/>
<stop offset="0.28" stop-color="#2D2A2B"/>
<stop offset="0.46" stop-color="#343539"/>
<stop offset="0.61" stop-color="#373A3F"/>
<stop offset="0.72" stop-color="#323235"/>
<stop offset="0.9" stop-color="#261E1D"/>
<stop offset="0.95" stop-color="#231815"/>
</linearGradient>
<radialGradient id="paint9_radial_71_1326" cx="0" cy="0" r="1" gradientUnits="userSpaceOnUse" gradientTransform="translate(67.9086 111.781) rotate(-2.75001) scale(2.33 2.33)">
<stop offset="0.09" stop-color="#545963"/>
<stop offset="0.38" stop-color="#3D3D3F"/>
<stop offset="0.59" stop-color="#302D2B"/>
</radialGradient>
<radialGradient id="paint10_radial_71_1326" cx="0" cy="0" r="1" gradientUnits="userSpaceOnUse" gradientTransform="translate(19.5093 113.585) rotate(-2.75) scale(3.9 3.9)">
<stop offset="0.09" stop-color="#545963"/>
<stop offset="0.38" stop-color="#3D3D3F"/>
<stop offset="0.59" stop-color="#302D2B"/>
</radialGradient>
<linearGradient id="paint11_linear_71_1326" x1="94.1947" y1="67.6991" x2="110.335" y2="64.3909" gradientUnits="userSpaceOnUse">
<stop offset="0.36" stop-color="#F2A42E"/>
<stop offset="0.94" stop-color="#FFC846"/>
</linearGradient>
<radialGradient id="paint12_radial_71_1326" cx="0" cy="0" r="1" gradientUnits="userSpaceOnUse" gradientTransform="translate(48.8526 61.0366) rotate(-2.75) scale(18.02 18.02)">
<stop offset="0.53" stop-color="#545963"/>
<stop offset="0.54" stop-color="#51555E"/>
<stop offset="0.69" stop-color="#2F2929"/>
<stop offset="0.76" stop-color="#231815"/>
</radialGradient>
<radialGradient id="paint13_radial_71_1326" cx="0" cy="0" r="1" gradientUnits="userSpaceOnUse" gradientTransform="translate(35.0227 68.6491) rotate(-2.75) scale(15.22)">
<stop offset="0.51" stop-color="#545963"/>
<stop offset="0.52" stop-color="#51555E"/>
<stop offset="0.68" stop-color="#2F2929"/>
<stop offset="0.76" stop-color="#231815"/>
</radialGradient>
<radialGradient id="paint14_radial_71_1326" cx="0" cy="0" r="1" gradientUnits="userSpaceOnUse" gradientTransform="translate(26.5769 74.5807) rotate(-2.75) scale(17.67 17.67)">
<stop offset="0.53" stop-color="#545963"/>
<stop offset="0.54" stop-color="#51555E"/>
<stop offset="0.69" stop-color="#2F2929"/>
<stop offset="0.76" stop-color="#231815"/>
</radialGradient>
<linearGradient id="paint15_linear_71_1326" x1="65.5029" y1="64.4017" x2="43.8355" y2="68.9365" gradientUnits="userSpaceOnUse">
<stop offset="0.64" stop-color="#F2911D"/>
<stop offset="0.83" stop-color="#FFCD46"/>
</linearGradient>
<radialGradient id="paint16_radial_71_1326" cx="0" cy="0" r="1" gradientUnits="userSpaceOnUse" gradientTransform="translate(60.706 52.2875) rotate(-2.75) scale(14.21 14.21)">
<stop offset="0.65" stop-color="#51555E"/>
<stop offset="0.75" stop-color="#2F2929"/>
<stop offset="0.79" stop-color="#231815"/>
</radialGradient>
<radialGradient id="paint17_radial_71_1326" cx="0" cy="0" r="1" gradientUnits="userSpaceOnUse" gradientTransform="translate(125.974 51.0335) rotate(-2.75) scale(14.0007 12.39)">
<stop offset="0.11" stop-color="#FFE487"/>
<stop offset="0.38" stop-color="#FFD463"/>
<stop offset="0.61" stop-color="#FFCB4D"/>
<stop offset="0.76" stop-color="#FFC846"/>
</radialGradient>
<radialGradient id="paint18_radial_71_1326" cx="0" cy="0" r="1" gradientUnits="userSpaceOnUse" gradientTransform="translate(119.135 62.5361) rotate(-2.75) scale(5.92 5.92)">
<stop offset="0.33" stop-color="#9A2403"/>
<stop offset="0.69" stop-color="#B94302"/>
</radialGradient>
<radialGradient id="paint19_radial_71_1326" cx="0" cy="0" r="1" gradientUnits="userSpaceOnUse" gradientTransform="translate(119.928 66.7629) rotate(-2.75) scale(5.92 5.92)">
<stop offset="0.33" stop-color="#9A2403"/>
<stop offset="0.69" stop-color="#B94302"/>
</radialGradient>
<radialGradient id="paint20_radial_71_1326" cx="0" cy="0" r="1" gradientUnits="userSpaceOnUse" gradientTransform="translate(120.929 70.9198) rotate(-2.75) scale(5.92 5.92)">
<stop offset="0.33" stop-color="#9A2403"/>
<stop offset="0.69" stop-color="#B94302"/>
</radialGradient>
<radialGradient id="paint21_radial_71_1326" cx="0" cy="0" r="1" gradientUnits="userSpaceOnUse" gradientTransform="translate(138.489 62.1471) rotate(-2.75) scale(3.1 3.1)">
<stop offset="0.33" stop-color="#9A2403"/>
<stop offset="0.69" stop-color="#B94302"/>
</radialGradient>
<radialGradient id="paint22_radial_71_1326" cx="0" cy="0" r="1" gradientUnits="userSpaceOnUse" gradientTransform="translate(139.107 66.0621) rotate(-2.75) scale(3.1 3.1)">
<stop offset="0.33" stop-color="#9A2403"/>
<stop offset="0.69" stop-color="#B94302"/>
</radialGradient>
<radialGradient id="paint23_radial_71_1326" cx="0" cy="0" r="1" gradientUnits="userSpaceOnUse" gradientTransform="translate(139.943 70.1265) rotate(-2.75) scale(3.1 3.1)">
<stop offset="0.33" stop-color="#9A2403"/>
<stop offset="0.69" stop-color="#B94302"/>
</radialGradient>
<linearGradient id="paint24_linear_71_1326" x1="77.5536" y1="24.6967" x2="85.3907" y2="20.9586" gradientUnits="userSpaceOnUse">
<stop stop-color="#231815"/>
<stop offset="0.17" stop-color="#261D1B"/>
<stop offset="0.4" stop-color="#2E2B2D"/>
<stop offset="0.57" stop-color="#373A3F"/>
<stop offset="1" stop-color="#231815"/>
</linearGradient>
<radialGradient id="paint25_radial_71_1326" cx="0" cy="0" r="1" gradientUnits="userSpaceOnUse" gradientTransform="translate(78.3126 17.0896) rotate(-25.5) scale(8.2863 10.23)">
<stop offset="0.02" stop-color="#FFA988"/>
<stop offset="0.33" stop-color="#F64B2F"/>
<stop offset="0.49" stop-color="#ED462C"/>
<stop offset="0.73" stop-color="#D53926"/>
<stop offset="1" stop-color="#B5271D"/>
</radialGradient>
<linearGradient id="paint26_linear_71_1326" x1="116.101" y1="20.9688" x2="115.774" y2="23.5103" gradientUnits="userSpaceOnUse">
<stop stop-color="#231815"/>
<stop offset="0.17" stop-color="#261D1B"/>
<stop offset="0.4" stop-color="#2E2B2D"/>
<stop offset="0.57" stop-color="#373A3F"/>
<stop offset="1" stop-color="#231815"/>
</linearGradient>
<radialGradient id="paint27_radial_71_1326" cx="0" cy="0" r="1" gradientUnits="userSpaceOnUse" gradientTransform="translate(118.085 21.3587) rotate(4.86001) scale(4.62 4.62)">
<stop offset="0.02" stop-color="#FFA988"/>
<stop offset="0.66" stop-color="#F64B2F"/>
<stop offset="0.74" stop-color="#ED462C"/>
<stop offset="0.86" stop-color="#D53926"/>
<stop offset="1" stop-color="#B5271D"/>
</radialGradient>
<radialGradient id="paint28_radial_71_1326" cx="0" cy="0" r="1" gradientUnits="userSpaceOnUse" gradientTransform="translate(35.6035 109.178) scale(14.18 14.18)">
<stop offset="0.36" stop-color="#9E5A34"/>
<stop offset="0.48" stop-color="#965634"/>
<stop offset="0.65" stop-color="#804E34"/>
<stop offset="0.87" stop-color="#5C3F34"/>
<stop offset="1" stop-color="#443634"/>
</radialGradient>
<radialGradient id="paint29_radial_71_1326" cx="0" cy="0" r="1" gradientUnits="userSpaceOnUse" gradientTransform="translate(80.4238 89.3078) scale(16.28 16.28)">
<stop offset="0.36" stop-color="#9E5A34"/>
<stop offset="0.48" stop-color="#965634"/>
<stop offset="0.65" stop-color="#804E34"/>
<stop offset="0.87" stop-color="#5C3F34"/>
<stop offset="1" stop-color="#443634"/>
</radialGradient>
<linearGradient id="paint30_linear_71_1326" x1="38.9935" y1="108.815" x2="48.235" y2="110.083" gradientUnits="userSpaceOnUse">
<stop stop-color="#231815"/>
<stop offset="0.21" stop-color="#261D1B"/>
<stop offset="0.49" stop-color="#2E2B2D"/>
<stop offset="0.7" stop-color="#373A3F"/>
</linearGradient>
<radialGradient id="paint31_radial_71_1326" cx="0" cy="0" r="1" gradientUnits="userSpaceOnUse" gradientTransform="translate(36.5176 108.077) rotate(-2.75) scale(10.06 10.563)">
<stop stop-color="#231815"/>
<stop offset="0.23" stop-color="#261D1B"/>
<stop offset="0.56" stop-color="#2E2B2D"/>
<stop offset="0.79" stop-color="#373A3F"/>
<stop offset="1" stop-color="#231815"/>
</radialGradient>
<radialGradient id="paint32_radial_71_1326" cx="0" cy="0" r="1" gradientUnits="userSpaceOnUse" gradientTransform="translate(41.862 108.566) rotate(9.05) scale(7.2963 8.9914)">
<stop offset="0.26" stop-color="#F5F1F9"/>
<stop offset="0.83" stop-color="#C9CACA"/>
</radialGradient>
<radialGradient id="paint33_radial_71_1326" cx="0" cy="0" r="1" gradientUnits="userSpaceOnUse" gradientTransform="translate(23.7013 89.8831) rotate(-2.75) scale(21.3465 20.33)">
<stop offset="0.47" stop-color="#FFC846"/>
<stop offset="1" stop-color="#F2A42E"/>
</radialGradient>
<linearGradient id="paint34_linear_71_1326" x1="84.5809" y1="91.6275" x2="96.0794" y2="93.1976" gradientUnits="userSpaceOnUse">
<stop stop-color="#231815"/>
<stop offset="0.21" stop-color="#261D1B"/>
<stop offset="0.49" stop-color="#2E2B2D"/>
<stop offset="0.7" stop-color="#373A3F"/>
</linearGradient>
<radialGradient id="paint35_radial_71_1326" cx="0" cy="0" r="1" gradientUnits="userSpaceOnUse" gradientTransform="translate(81.5144 91.1241) rotate(-2.75) scale(12.6 12.6)">
<stop stop-color="#231815"/>
<stop offset="0.23" stop-color="#261D1B"/>
<stop offset="0.56" stop-color="#2E2B2D"/>
<stop offset="0.79" stop-color="#373A3F"/>
<stop offset="1" stop-color="#231815"/>
</radialGradient>
<radialGradient id="paint36_radial_71_1326" cx="0" cy="0" r="1" gradientUnits="userSpaceOnUse" gradientTransform="translate(87.6709 91.2578) rotate(8.47) scale(9.0356 10.6952)">
<stop offset="0.26" stop-color="#F5F1F9"/>
<stop offset="0.83" stop-color="#C9CACA"/>
</radialGradient>
<radialGradient id="paint37_radial_71_1326" cx="0" cy="0" r="1" gradientUnits="userSpaceOnUse" gradientTransform="translate(94.3458 55.8282) rotate(-2.75) scale(36 36)">
<stop offset="0.47" stop-color="#FFC846"/>
<stop offset="1" stop-color="#F2A42E"/>
</radialGradient>
<linearGradient id="paint38_linear_71_1326" x1="88.0037" y1="85.977" x2="159.481" y2="82.5436" gradientUnits="userSpaceOnUse">
<stop stop-color="#231815"/>
<stop offset="0.17" stop-color="#261D1B"/>
<stop offset="0.4" stop-color="#2E2B2D"/>
<stop offset="0.57" stop-color="#373A3F"/>
<stop offset="1" stop-color="#231815"/>
</linearGradient>
<radialGradient id="paint39_radial_71_1326" cx="0" cy="0" r="1" gradientUnits="userSpaceOnUse" gradientTransform="translate(127.475 78.3017) rotate(-2.75) scale(16.325 13.06)">
<stop offset="0.33" stop-color="#EFEFEF"/>
<stop offset="0.54" stop-color="#ADA9A8"/>
<stop offset="1" stop-color="#231815"/>
</radialGradient>
<radialGradient id="paint40_radial_71_1326" cx="0" cy="0" r="1" gradientUnits="userSpaceOnUse" gradientTransform="translate(87.5651 86.0176) rotate(-2.75) scale(13.92 13.92)">
<stop offset="0.33" stop-color="#EFEFEF"/>
<stop offset="0.49" stop-color="#ADA9A8"/>
<stop offset="0.84" stop-color="#231815"/>
</radialGradient>
<linearGradient id="paint41_linear_71_1326" x1="95.3125" y1="74.9235" x2="83.4903" y2="59.3227" gradientUnits="userSpaceOnUse">
<stop offset="0.64" stop-color="#F2911D"/>
<stop offset="0.83" stop-color="#FFCD46"/>
</linearGradient>
<radialGradient id="paint42_radial_71_1326" cx="0" cy="0" r="1" gradientUnits="userSpaceOnUse" gradientTransform="translate(85.6176 67.2312) rotate(-2.75) scale(6.55)">
<stop stop-color="#F5F1F9"/>
<stop offset="0.59" stop-color="#61667F"/>
</radialGradient>
<radialGradient id="paint43_radial_71_1326" cx="0" cy="0" r="1" gradientUnits="userSpaceOnUse" gradientTransform="translate(93.8109 66.3008) rotate(-2.74999) scale(7.27 7.27)">
<stop offset="0.26" stop-color="#F5F1F9"/>
<stop offset="0.83" stop-color="#C9CACA"/>
</radialGradient>
<radialGradient id="paint44_radial_71_1326" cx="0" cy="0" r="1" gradientUnits="userSpaceOnUse" gradientTransform="translate(96.6236 65.2845) rotate(-2.75) scale(9.31 9.31)">
<stop offset="0.26" stop-color="#F5F1F9"/>
<stop offset="0.83" stop-color="#C9CACA"/>
</radialGradient>
</defs>
</svg>
