<svg width="198" height="145" viewBox="0 0 198 145" fill="none" xmlns="http://www.w3.org/2000/svg">
<path d="M198 0.100098H0V144.1H198V0.100098Z" fill="#F6899A"/>
<path d="M77.5314 42.1915C74.5814 41.5515 67.4014 39.7715 61.1614 36.5715C59.2414 35.5815 56.9114 36.8615 56.7214 39.0115C56.5714 40.7015 56.5214 42.6815 56.7814 44.6215C56.9314 45.7715 57.6914 46.7515 58.7914 47.1415C62.0714 48.3115 69.7914 50.4815 77.8014 48.5315C79.7314 48.0615 80.6914 45.8815 79.7714 44.1215L79.5814 43.7715C79.1614 42.9715 78.4114 42.3915 77.5314 42.2015V42.1915Z" fill="url(#paint0_linear_71_1333)"/>
<path d="M125.131 41.8913C126.461 41.2413 131.401 38.4913 135.111 32.4513C135.941 31.1013 137.911 31.1213 138.721 32.4913C140.031 34.7013 141.601 37.6713 142.181 40.0213C142.321 40.6113 142.201 41.2213 141.861 41.7113C140.591 43.5513 136.461 47.6613 125.211 46.5913C123.491 46.4213 122.701 44.3513 123.861 43.0713L124.491 42.3713C124.671 42.1713 124.881 42.0113 125.121 41.8913H125.131Z" fill="url(#paint1_linear_71_1333)"/>
<path d="M146.811 66.0716L146.121 113.232C146.121 113.232 145.841 117.362 141.781 118.632L114.821 124.862C114.821 124.862 108.921 125.272 105.061 124.722L55.1215 119.792C55.1215 119.792 50.7715 119.292 50.0215 113.322L50.7515 63.3516L146.811 66.0816V66.0716Z" fill="url(#paint2_linear_71_1333)"/>
<g style="mix-blend-mode:multiply" opacity="0.3">
<path d="M50.6509 69.6815L50.6309 71.3115L106.911 75.0615C106.911 75.0615 112.741 75.1515 116.461 74.4715L146.761 69.1915L146.821 64.7515L50.6409 69.6815H50.6509Z" fill="#595959"/>
</g>
<path d="M99.0908 43.6616L54.0208 45.3316C54.0208 45.3316 49.1508 45.9016 49.0808 50.7216L48.8008 69.5716L107.761 73.2216C107.761 73.2216 111.561 73.3916 117.531 72.3516L148.621 68.0616L148.871 51.0916C148.871 51.0916 149.091 46.9516 144.781 46.0116L99.0708 43.6716L99.0908 43.6616Z" fill="url(#paint3_linear_71_1333)"/>
<path d="M98.9102 43.3015C98.9102 43.3015 104.34 34.6315 105.11 31.7115C105.11 31.7115 107.68 27.0815 112.33 29.8015L118.28 36.1215C118.28 36.1215 114.04 52.7716 98.9202 43.2916L98.9102 43.3015Z" fill="url(#paint4_linear_71_1333)"/>
<g style="mix-blend-mode:multiply">
<path d="M120.34 46.0817L124.88 47.4417L131.84 45.7517L125.82 45.0317L120.34 46.0817Z" fill="#FFCC6E"/>
</g>
<path d="M130.522 33.8714C128.922 26.0114 123.102 26.6214 123.102 26.6214L110.762 27.2614C105.322 27.3114 104.182 31.9714 104.182 31.9714C103.702 34.5614 98.7617 43.4614 98.7617 43.4614C107.022 48.4914 114.132 47.2214 114.132 47.2214L124.392 45.6414C132.072 43.0014 130.512 33.8714 130.512 33.8714H130.522ZM113.502 43.1414C113.502 43.1414 110.312 47.6414 99.1817 43.2214C99.1817 43.2214 104.222 35.7114 105.122 32.3114C105.122 32.3114 107.582 26.3714 112.822 30.9114C112.822 30.9114 118.792 37.9214 113.492 43.1514L113.502 43.1414Z" fill="url(#paint5_linear_71_1333)"/>
<path d="M117.871 46.4314C117.871 46.4314 123.611 45.4414 124.751 48.8914L123.741 117.251C123.741 117.251 123.741 121.461 119.981 123.671L133.041 120.331C133.041 120.331 136.591 120.071 136.501 116.271L137.451 51.2014C137.451 51.2014 137.651 47.1814 134.021 45.7414C134.021 45.7414 127.681 44.4814 123.641 45.0414C123.641 45.0414 120.101 45.4314 117.871 46.4414V46.4314Z" fill="#5A557E"/>
<path d="M117.91 46.4317C117.91 46.4317 123.65 45.4417 124.79 48.8917L123.78 117.252C123.78 117.252 123.78 121.472 120.03 123.652L133.08 120.322C133.08 120.322 136.63 120.062 136.54 116.262L137.49 51.1917C137.49 51.1917 137.69 47.1717 134.06 45.7317C134.06 45.7317 127.72 44.4717 123.68 45.0317C123.68 45.0317 120.14 45.4217 117.91 46.4317Z" fill="#5C5881"/>
<path d="M117.951 46.4314C117.951 46.4314 123.691 45.4414 124.831 48.8914L123.831 117.251C123.831 117.251 123.821 121.481 120.081 123.641L133.121 120.331C133.121 120.331 136.671 120.071 136.581 116.271L137.531 51.2014C137.531 51.2014 137.731 47.1814 134.101 45.7414C134.101 45.7414 127.761 44.4814 123.721 45.0414C123.721 45.0414 120.181 45.4314 117.951 46.4414V46.4314Z" fill="#5F5A83"/>
<path d="M117.99 46.4314C117.99 46.4314 123.73 45.4414 124.87 48.8914L123.87 117.251C123.87 117.251 123.86 121.491 120.13 123.631L133.17 120.331C133.17 120.331 136.72 120.071 136.63 116.271L137.58 51.2014C137.58 51.2014 137.78 47.1814 134.15 45.7414C134.15 45.7414 127.81 44.4814 123.77 45.0414C123.77 45.0414 120.23 45.4314 118 46.4414L117.99 46.4314Z" fill="#615D86"/>
<path d="M118.031 46.4314C118.031 46.4314 123.771 45.4414 124.911 48.8914L123.911 117.251C123.911 117.251 123.901 121.501 120.181 123.621L133.211 120.331C133.211 120.331 136.761 120.071 136.671 116.271L137.621 51.2014C137.621 51.2014 137.821 47.1814 134.191 45.7414C134.191 45.7414 127.851 44.4814 123.811 45.0414C123.811 45.0414 120.271 45.4314 118.041 46.4414L118.031 46.4314Z" fill="#636089"/>
<path d="M118.08 46.4314C118.08 46.4314 123.82 45.4414 124.96 48.8914L123.96 117.251C123.96 117.251 123.95 121.511 120.24 123.611L133.26 120.331C133.26 120.331 136.81 120.071 136.72 116.271L137.67 51.2014C137.67 51.2014 137.87 47.1814 134.24 45.7414C134.24 45.7414 127.9 44.4814 123.86 45.0414C123.86 45.0414 120.32 45.4314 118.09 46.4414L118.08 46.4314Z" fill="#65638C"/>
<path d="M118.121 46.4317C118.121 46.4317 123.861 45.4417 125.001 48.8917L124.001 117.252C124.001 117.252 123.991 121.522 120.281 123.592L133.291 120.322C133.291 120.322 136.841 120.062 136.751 116.262L137.701 51.1917C137.701 51.1917 137.901 47.1717 134.271 45.7317C134.271 45.7317 127.931 44.4717 123.891 45.0317C123.891 45.0317 120.351 45.4217 118.121 46.4317Z" fill="#68658E"/>
<path d="M118.16 46.4314C118.16 46.4314 123.9 45.4414 125.04 48.8914L124.04 117.251C124.04 117.251 124.02 121.531 120.33 123.581L133.34 120.331C133.34 120.331 136.89 120.071 136.8 116.271L137.75 51.2014C137.75 51.2014 137.95 47.1814 134.32 45.7414C134.32 45.7414 127.98 44.4814 123.94 45.0414C123.94 45.0414 120.4 45.4314 118.17 46.4414L118.16 46.4314Z" fill="#6A6891"/>
<path d="M118.201 46.4314C118.201 46.4314 123.941 45.4414 125.081 48.8914L124.081 117.251C124.081 117.251 124.061 121.541 120.381 123.571L133.381 120.331C133.381 120.331 136.931 120.071 136.841 116.271L137.791 51.2014C137.791 51.2014 137.991 47.1814 134.361 45.7414C134.361 45.7414 128.021 44.4814 123.981 45.0414C123.981 45.0414 120.441 45.4314 118.211 46.4414L118.201 46.4314Z" fill="#6C6B94"/>
<path d="M118.25 46.4314C118.25 46.4314 123.99 45.4414 125.13 48.8914L124.13 117.251C124.13 117.251 124.11 121.551 120.43 123.561L133.42 120.331C133.42 120.331 136.97 120.071 136.88 116.271L137.83 51.2014C137.83 51.2014 138.03 47.1814 134.4 45.7414C134.4 45.7414 128.06 44.4814 124.02 45.0414C124.02 45.0414 120.48 45.4314 118.25 46.4414V46.4314Z" fill="#6E6D97"/>
<path d="M118.291 46.4314C118.291 46.4314 124.031 45.4414 125.171 48.8914L124.171 117.251C124.171 117.251 124.151 121.561 120.481 123.551L133.471 120.331C133.471 120.331 137.021 120.071 136.931 116.271L137.881 51.2014C137.881 51.2014 138.081 47.1814 134.451 45.7414C134.451 45.7414 128.111 44.4814 124.071 45.0414C124.071 45.0414 120.531 45.4314 118.301 46.4414L118.291 46.4314Z" fill="#717099"/>
<path d="M118.33 46.4317C118.33 46.4317 124.07 45.4417 125.21 48.8917L124.21 117.252C124.21 117.252 124.19 121.572 120.53 123.532L133.51 120.322C133.51 120.322 137.06 120.062 136.97 116.262L137.92 51.1917C137.92 51.1917 138.12 47.1717 134.49 45.7317C134.49 45.7317 128.15 44.4717 124.11 45.0317C124.11 45.0317 120.57 45.4217 118.34 46.4317H118.33Z" fill="#73739C"/>
<path d="M118.371 46.4314C118.371 46.4314 124.111 45.4414 125.251 48.8914L124.251 117.251C124.251 117.251 124.231 121.581 120.571 123.521L133.541 120.331C133.541 120.331 137.091 120.071 137.001 116.271L137.951 51.2014C137.951 51.2014 138.151 47.1814 134.521 45.7414C134.521 45.7414 128.181 44.4814 124.141 45.0414C124.141 45.0414 120.601 45.4314 118.371 46.4414V46.4314Z" fill="#75769F"/>
<path d="M118.42 46.4314C118.42 46.4314 124.16 45.4414 125.3 48.8914L124.3 117.251C124.3 117.251 124.28 121.591 120.63 123.511L133.6 120.331C133.6 120.331 137.15 120.071 137.06 116.271L138.01 51.2014C138.01 51.2014 138.21 47.1814 134.58 45.7414C134.58 45.7414 128.24 44.4814 124.2 45.0414C124.2 45.0414 120.66 45.4314 118.43 46.4414L118.42 46.4314Z" fill="#7778A2"/>
<path d="M118.461 46.4417C118.461 46.4417 124.201 45.4517 125.341 48.9017L124.341 117.262C124.341 117.262 124.321 121.612 120.681 123.512L133.641 120.342C133.641 120.342 137.191 120.082 137.101 116.282L138.051 51.2117C138.051 51.2117 138.251 47.1917 134.621 45.7517C134.621 45.7517 128.281 44.4917 124.241 45.0517C124.241 45.0517 120.701 45.4417 118.471 46.4517L118.461 46.4417Z" fill="#7A7BA4"/>
<path d="M118.5 46.4417C118.5 46.4417 124.24 45.4517 125.38 48.9017L124.38 117.262C124.38 117.262 124.36 121.622 120.72 123.502L133.67 120.342C133.67 120.342 137.22 120.082 137.13 116.282L138.08 51.2117C138.08 51.2117 138.28 47.1917 134.65 45.7517C134.65 45.7517 128.31 44.4917 124.27 45.0517C124.27 45.0517 120.73 45.4417 118.5 46.4517V46.4417Z" fill="#7C7EA7"/>
<path d="M118.541 46.4414C118.541 46.4414 124.281 45.4514 125.421 48.9014L124.421 117.261C124.421 117.261 124.391 121.631 120.771 123.481L133.711 120.331C133.711 120.331 137.261 120.071 137.171 116.271L138.121 51.2014C138.121 51.2014 138.321 47.1814 134.691 45.7414C134.691 45.7414 128.351 44.4814 124.311 45.0414C124.311 45.0414 120.771 45.4314 118.541 46.4414Z" fill="#7E80AA"/>
<path d="M118.58 46.4417C118.58 46.4417 124.32 45.4517 125.45 48.9017L124.45 117.262C124.45 117.262 124.42 121.642 120.81 123.472L133.75 120.342C133.75 120.342 137.3 120.082 137.21 116.282L138.16 51.2117C138.16 51.2117 138.37 47.1917 134.73 45.7517C134.73 45.7517 128.39 44.4917 124.35 45.0517C124.35 45.0517 120.81 45.4417 118.58 46.4517V46.4417Z" fill="#8083AD"/>
<path d="M118.631 46.4417C118.631 46.4417 124.371 45.4517 125.501 48.9017L124.501 117.262C124.501 117.262 124.471 121.652 120.861 123.462L133.791 120.342C133.791 120.342 137.341 120.082 137.251 116.282L138.201 51.2117C138.201 51.2117 138.411 47.1917 134.771 45.7517C134.771 45.7517 128.431 44.4917 124.391 45.0517C124.391 45.0517 120.851 45.4417 118.621 46.4517L118.631 46.4417Z" fill="#8386AF"/>
<path d="M118.67 46.4417C118.67 46.4417 124.41 45.4517 125.54 48.9017L124.54 117.262C124.54 117.262 124.51 121.662 120.91 123.452L133.83 120.342C133.83 120.342 137.38 120.082 137.29 116.282L138.24 51.2117C138.24 51.2117 138.45 47.1917 134.81 45.7517C134.81 45.7517 128.47 44.4917 124.43 45.0517C124.43 45.0517 120.89 45.4417 118.66 46.4517L118.67 46.4417Z" fill="#8588B2"/>
<path d="M118.711 46.4417C118.711 46.4417 124.451 45.4517 125.581 48.9017L124.581 117.262C124.581 117.262 124.551 121.672 120.961 123.442L133.881 120.342C133.881 120.342 137.431 120.082 137.341 116.282L138.291 51.2117C138.291 51.2117 138.501 47.1917 134.861 45.7517C134.861 45.7517 128.521 44.4917 124.481 45.0517C124.481 45.0517 120.941 45.4417 118.711 46.4517V46.4417Z" fill="#878BB5"/>
<path d="M118.75 46.4414C118.75 46.4414 124.49 45.4514 125.62 48.9014L124.62 117.261C124.62 117.261 124.59 121.681 121.01 123.421L133.92 120.331C133.92 120.331 137.47 120.071 137.38 116.271L138.33 51.2014C138.33 51.2014 138.54 47.1814 134.9 45.7414C134.9 45.7414 128.56 44.4814 124.52 45.0414C124.52 45.0414 120.98 45.4314 118.75 46.4414Z" fill="#898EB8"/>
<path d="M118.801 46.4417C118.801 46.4417 124.541 45.4517 125.671 48.9017L124.671 117.262C124.671 117.262 124.641 121.692 121.061 123.412L133.961 120.342C133.961 120.342 137.511 120.082 137.421 116.282L138.371 51.2117C138.371 51.2117 138.581 47.1917 134.941 45.7517C134.941 45.7517 128.601 44.4917 124.561 45.0517C124.561 45.0517 121.021 45.4417 118.791 46.4517L118.801 46.4417Z" fill="#8C91BA"/>
<path d="M118.84 46.4417C118.84 46.4417 124.58 45.4517 125.71 48.9017L124.71 117.262C124.71 117.262 124.68 121.702 121.11 123.402L134.01 120.342C134.01 120.342 137.56 120.082 137.47 116.282L138.42 51.2117C138.42 51.2117 138.63 47.1917 134.99 45.7517C134.99 45.7517 128.65 44.4917 124.61 45.0517C124.61 45.0517 121.07 45.4417 118.84 46.4517V46.4417Z" fill="#8E93BD"/>
<path d="M118.881 46.4417C118.881 46.4417 124.621 45.4517 125.751 48.9017L124.751 117.262C124.751 117.262 124.721 121.712 121.161 123.392L134.051 120.342C134.051 120.342 137.601 120.082 137.511 116.282L138.461 51.2117C138.461 51.2117 138.671 47.1917 135.031 45.7517C135.031 45.7517 128.691 44.4917 124.651 45.0517C124.651 45.0517 121.111 45.4417 118.881 46.4517V46.4417Z" fill="#9096C0"/>
<path d="M118.92 46.4417C118.92 46.4417 124.66 45.4517 125.79 48.9017L124.79 117.262C124.79 117.262 124.75 121.722 121.2 123.382L134.08 120.342C134.08 120.342 137.63 120.082 137.54 116.282L138.49 51.2117C138.49 51.2117 138.7 47.1917 135.06 45.7517C135.06 45.7517 128.72 44.4917 124.68 45.0517C124.68 45.0517 121.14 45.4417 118.91 46.4517L118.92 46.4417Z" fill="#9299C3"/>
<path d="M118.961 46.4414C118.961 46.4414 124.701 45.4514 125.831 48.9014L124.831 117.261C124.831 117.261 124.791 121.731 121.251 123.361L134.131 120.331C134.131 120.331 137.681 120.071 137.591 116.271L138.541 51.2014C138.541 51.2014 138.751 47.1814 135.111 45.7414C135.111 45.7414 128.771 44.4814 124.731 45.0414C124.731 45.0414 121.191 45.4314 118.961 46.4414Z" fill="#959BC5"/>
<path d="M119.012 46.4417C119.012 46.4417 124.752 45.4517 125.882 48.9017L124.882 117.262C124.882 117.262 124.842 121.742 121.312 123.352L134.182 120.342C134.182 120.342 137.732 120.082 137.642 116.282L138.592 51.2117C138.592 51.2117 138.802 47.1917 135.162 45.7517C135.162 45.7517 128.822 44.4917 124.782 45.0517C124.782 45.0517 121.242 45.4417 119.012 46.4517V46.4417Z" fill="#979EC8"/>
<path d="M119.051 46.4417C119.051 46.4417 124.791 45.4517 125.921 48.9017L124.921 117.262C124.921 117.262 124.881 121.752 121.351 123.342L134.211 120.342C134.211 120.342 137.761 120.082 137.671 116.282L138.621 51.2117C138.621 51.2117 138.831 47.1917 135.191 45.7517C135.191 45.7517 128.851 44.4917 124.811 45.0517C124.811 45.0517 121.271 45.4417 119.041 46.4517L119.051 46.4417Z" fill="#99A1CB"/>
<path d="M119.09 46.4417C119.09 46.4417 124.83 45.4517 125.96 48.9017L124.96 117.262C124.96 117.262 124.92 121.762 121.4 123.332L134.25 120.342C134.25 120.342 137.8 120.082 137.71 116.282L138.66 51.2117C138.66 51.2117 138.87 47.1917 135.23 45.7517C135.23 45.7517 128.89 44.4917 124.85 45.0517C124.85 45.0517 121.31 45.4417 119.08 46.4517L119.09 46.4417Z" fill="#9BA4CE"/>
<path d="M119.131 46.4514C119.131 46.4514 124.871 45.4614 126.001 48.9114L125.001 117.271C125.001 117.271 124.961 121.781 121.451 123.331L134.301 120.351C134.301 120.351 137.851 120.091 137.761 116.291L138.711 51.2214C138.711 51.2214 138.921 47.2014 135.281 45.7614C135.281 45.7614 128.941 44.5014 124.901 45.0614C124.901 45.0614 121.361 45.4514 119.131 46.4614V46.4514Z" fill="#9EA6D0"/>
<path d="M119.18 46.4517C119.18 46.4517 124.92 45.4617 126.05 48.9117L125.05 117.272C125.05 117.272 125.01 121.792 121.5 123.312L134.34 120.342C134.34 120.342 137.89 120.082 137.8 116.282L138.75 51.2117C138.75 51.2117 138.96 47.1917 135.32 45.7517C135.32 45.7517 128.98 44.4917 124.94 45.0517C124.94 45.0517 121.4 45.4417 119.17 46.4517H119.18Z" fill="#A0A9D3"/>
<path d="M98.64 43.2914C98.64 43.2914 93.47 34.4614 92.79 31.5314C92.79 31.5314 90.35 26.8214 85.63 29.4114L79.5 35.5514C79.5 35.5514 83.25 52.3114 98.65 43.2914H98.64Z" fill="url(#paint6_linear_71_1333)"/>
<path d="M73.0907 44.8915L83.3007 46.7715C83.3007 46.7715 90.3707 48.2515 98.7707 43.4615C98.7707 43.4615 94.1007 34.4215 93.6907 31.8215C93.6907 31.8215 92.6807 27.1315 87.2507 26.9215L74.9407 25.9215C74.9407 25.9215 69.1407 25.1415 67.3107 32.9515C67.3107 32.9515 65.4707 42.0315 73.0807 44.8915H73.0907ZM85.0907 30.5015C90.4607 26.1215 92.7407 32.1315 92.7407 32.1315C93.5407 35.5515 98.3607 43.2115 98.3607 43.2115C87.1107 47.3115 84.0507 42.7215 84.0507 42.7215C78.9107 37.3315 85.0807 30.5115 85.0807 30.5115L85.0907 30.5015Z" fill="url(#paint7_linear_71_1333)"/>
<g style="mix-blend-mode:multiply" opacity="0.3">
<path d="M98.3709 43.2017C98.3709 43.2017 92.4209 44.4117 91.1709 55.4217L90.1709 114.622C90.1709 114.622 91.6409 122.492 95.4009 123.312H76.3809V49.3117C76.3809 49.3117 81.3009 43.8717 98.3809 43.2017H98.3709Z" fill="#595959"/>
</g>
<path d="M98.4109 44.4817C89.2709 47.6617 89.5509 55.2517 89.5509 55.2517L88.6709 115.522C88.6709 115.522 89.0609 121.412 93.1809 123.432L74.2109 121.562C74.2109 121.562 71.1509 120.862 70.8809 116.802L71.8109 53.3417C71.8109 53.3417 71.8909 47.9317 76.3709 45.6417C76.3709 45.6417 85.2409 44.2617 98.4109 44.4917V44.4817Z" fill="#9183C2"/>
<path d="M98.3601 44.4817C89.2201 47.6617 89.5001 55.2517 89.5001 55.2517L88.6201 115.522C88.6201 115.522 89.0101 121.412 93.1301 123.432L74.1601 121.562C74.1601 121.562 71.1001 120.862 70.8301 116.802L71.7601 53.3417C71.7601 53.3417 71.8401 47.9317 76.3201 45.6417C76.3201 45.6417 85.1901 44.2617 98.3601 44.4917V44.4817Z" fill="#9386C3"/>
<path d="M98.3113 44.4817C89.1713 47.6617 89.4513 55.2517 89.4513 55.2517L88.5713 115.522C88.5713 115.522 88.9613 121.412 93.0813 123.432L74.1113 121.562C74.1113 121.562 71.0513 120.862 70.7812 116.802L71.7113 53.3417C71.7113 53.3417 71.7913 47.9317 76.2713 45.6417C76.2713 45.6417 85.1413 44.2617 98.3113 44.4917V44.4817Z" fill="#9589C5"/>
<path d="M98.2605 44.4817C89.1205 47.6617 89.4005 55.2517 89.4005 55.2517L88.5205 115.522C88.5205 115.522 88.9105 121.412 93.0305 123.432L74.0605 121.562C74.0605 121.562 71.0005 120.862 70.7305 116.802L71.6605 53.3417C71.6605 53.3417 71.7405 47.9317 76.2205 45.6417C76.2205 45.6417 85.0905 44.2617 98.2605 44.4917V44.4817Z" fill="#988CC6"/>
<path d="M98.2116 44.4817C89.0716 47.6617 89.3516 55.2517 89.3516 55.2517L88.4716 115.522C88.4716 115.522 88.8616 121.412 92.9816 123.432L74.0116 121.562C74.0116 121.562 70.9516 120.862 70.6816 116.802L71.6116 53.3417C71.6116 53.3417 71.6916 47.9317 76.1716 45.6417C76.1716 45.6417 85.0416 44.2617 98.2116 44.4917V44.4817Z" fill="#9A8FC8"/>
<path d="M98.1609 44.4817C89.0209 47.6617 89.3009 55.2517 89.3009 55.2517L88.4209 115.522C88.4209 115.522 88.8109 121.412 92.9309 123.432L73.9609 121.562C73.9609 121.562 70.9009 120.862 70.6309 116.802L71.5609 53.3417C71.5609 53.3417 71.6409 47.9317 76.1209 45.6417C76.1209 45.6417 84.9909 44.2617 98.1609 44.4917V44.4817Z" fill="#9C92C9"/>
<path d="M98.1101 44.4817C88.9701 47.6617 89.2501 55.2517 89.2501 55.2517L88.3701 115.522C88.3701 115.522 88.7601 121.412 92.8801 123.432L73.9101 121.562C73.9101 121.562 70.8501 120.862 70.5801 116.802L71.5101 53.3417C71.5101 53.3417 71.5901 47.9317 76.0701 45.6417C76.0701 45.6417 84.9401 44.2617 98.1101 44.4917V44.4817Z" fill="#9E96CB"/>
<path d="M98.0613 44.4817C88.9213 47.6617 89.2013 55.2517 89.2013 55.2517L88.3213 115.522C88.3213 115.522 88.7113 121.412 92.8313 123.432L73.8613 121.562C73.8613 121.562 70.8013 120.862 70.5312 116.802L71.4613 53.3417C71.4613 53.3417 71.5413 47.9317 76.0213 45.6417C76.0213 45.6417 84.8913 44.2617 98.0613 44.4917V44.4817Z" fill="#A099CC"/>
<path d="M98.0105 44.4817C88.8705 47.6617 89.1505 55.2517 89.1505 55.2517L88.2705 115.522C88.2705 115.522 88.6605 121.412 92.7805 123.432L73.8105 121.562C73.8105 121.562 70.7505 120.862 70.4805 116.802L71.4105 53.3417C71.4105 53.3417 71.4905 47.9317 75.9705 45.6417C75.9705 45.6417 84.8405 44.2617 98.0105 44.4917V44.4817Z" fill="#A39CCE"/>
<path d="M97.9616 44.4714C88.8216 47.6514 89.1016 55.2414 89.1016 55.2414L88.2216 115.511C88.2216 115.511 88.6116 121.401 92.7316 123.421L73.7616 121.551C73.7616 121.551 70.7016 120.851 70.4316 116.791L71.3616 53.3314C71.3616 53.3314 71.4416 47.9214 75.9216 45.6314C75.9216 45.6314 84.7916 44.2514 97.9616 44.4814V44.4714Z" fill="#A59FCF"/>
<path d="M97.9109 44.4714C88.7709 47.6514 89.0509 55.2414 89.0509 55.2414L88.1709 115.511C88.1709 115.511 88.5609 121.401 92.6809 123.421L73.7109 121.551C73.7109 121.551 70.6509 120.851 70.3809 116.791L71.3109 53.3314C71.3109 53.3314 71.3909 47.9214 75.8709 45.6314C75.8709 45.6314 84.7409 44.2514 97.9109 44.4814V44.4714Z" fill="#A7A2D1"/>
<path d="M97.8601 44.4714C88.7201 47.6514 89.0001 55.2414 89.0001 55.2414L88.1201 115.511C88.1201 115.511 88.5101 121.401 92.6301 123.421L73.6601 121.551C73.6601 121.551 70.6001 120.851 70.3301 116.791L71.2601 53.3314C71.2601 53.3314 71.3401 47.9214 75.8201 45.6314C75.8201 45.6314 84.6901 44.2514 97.8601 44.4814V44.4714Z" fill="#A9A5D2"/>
<path d="M97.8113 44.4714C88.6713 47.6514 88.9513 55.2414 88.9513 55.2414L88.0713 115.511C88.0713 115.511 88.4613 121.401 92.5813 123.421L73.6113 121.551C73.6113 121.551 70.5513 120.851 70.2812 116.791L71.2113 53.3314C71.2113 53.3314 71.2913 47.9214 75.7713 45.6314C75.7713 45.6314 84.6413 44.2514 97.8113 44.4814V44.4714Z" fill="#ABA8D3"/>
<path d="M97.7507 44.4714C88.6107 47.6514 88.8907 55.2414 88.8907 55.2414L88.0107 115.511C88.0107 115.511 88.4007 121.401 92.5207 123.421L73.5507 121.551C73.5507 121.551 70.4907 120.851 70.2207 116.791L71.1507 53.3314C71.1507 53.3314 71.2307 47.9214 75.7107 45.6314C75.7107 45.6314 84.5807 44.2514 97.7507 44.4814V44.4714Z" fill="#AEABD5"/>
<path d="M97.6999 44.4714C88.5599 47.6514 88.8399 55.2414 88.8399 55.2414L87.9599 115.511C87.9599 115.511 88.3499 121.401 92.4699 123.421L73.4999 121.551C73.4999 121.551 70.4399 120.851 70.1699 116.791L71.0999 53.3314C71.0999 53.3314 71.1799 47.9214 75.6599 45.6314C75.6599 45.6314 84.5299 44.2514 97.6999 44.4814V44.4714Z" fill="#B0AED6"/>
<path d="M97.6511 44.4714C88.5111 47.6514 88.7911 55.2414 88.7911 55.2414L87.9111 115.511C87.9111 115.511 88.3011 121.401 92.4211 123.421L73.4511 121.551C73.4511 121.551 70.3911 120.851 70.1211 116.791L71.0511 53.3314C71.0511 53.3314 71.1311 47.9214 75.6111 45.6314C75.6111 45.6314 84.4811 44.2514 97.6511 44.4814V44.4714Z" fill="#B2B1D8"/>
<path d="M97.6003 44.4714C88.4603 47.6514 88.7403 55.2414 88.7403 55.2414L87.8603 115.511C87.8603 115.511 88.2503 121.401 92.3703 123.421L73.4003 121.551C73.4003 121.551 70.3403 120.851 70.0703 116.791L71.0003 53.3314C71.0003 53.3314 71.0803 47.9214 75.5603 45.6314C75.5603 45.6314 84.4303 44.2514 97.6003 44.4814V44.4714Z" fill="#B4B5D9"/>
<path d="M97.5515 44.4714C88.4115 47.6514 88.6915 55.2414 88.6915 55.2414L87.8115 115.511C87.8115 115.511 88.2015 121.401 92.3215 123.421L73.3515 121.551C73.3515 121.551 70.2915 120.851 70.0215 116.791L70.9515 53.3314C70.9515 53.3314 71.0315 47.9214 75.5115 45.6314C75.5115 45.6314 84.3815 44.2514 97.5515 44.4814V44.4714Z" fill="#B6B8DB"/>
<path d="M97.5007 44.4714C88.3607 47.6514 88.6407 55.2414 88.6407 55.2414L87.7607 115.511C87.7607 115.511 88.1507 121.401 92.2707 123.421L73.3007 121.551C73.3007 121.551 70.2407 120.851 69.9707 116.791L70.9007 53.3314C70.9007 53.3314 70.9807 47.9214 75.4607 45.6314C75.4607 45.6314 84.3307 44.2514 97.5007 44.4814V44.4714Z" fill="#B8BBDC"/>
<path d="M97.4499 44.4714C88.3099 47.6514 88.5899 55.2414 88.5899 55.2414L87.7099 115.511C87.7099 115.511 88.0999 121.401 92.2199 123.421L73.2499 121.551C73.2499 121.551 70.1899 120.851 69.9199 116.791L70.8499 53.3314C70.8499 53.3314 70.9299 47.9214 75.4099 45.6314C75.4099 45.6314 84.2799 44.2514 97.4499 44.4814V44.4714Z" fill="#BBBEDE"/>
<path d="M97.4011 44.4714C88.2611 47.6514 88.5411 55.2414 88.5411 55.2414L87.6611 115.511C87.6611 115.511 88.0511 121.401 92.1711 123.421L73.2011 121.551C73.2011 121.551 70.1411 120.851 69.8711 116.791L70.8011 53.3314C70.8011 53.3314 70.8811 47.9214 75.3611 45.6314C75.3611 45.6314 84.2311 44.2514 97.4011 44.4814V44.4714Z" fill="#BDC1DF"/>
<path d="M97.3503 44.4714C88.2103 47.6514 88.4903 55.2414 88.4903 55.2414L87.6103 115.511C87.6103 115.511 88.0003 121.401 92.1203 123.421L73.1503 121.551C73.1503 121.551 70.0903 120.851 69.8203 116.791L70.7503 53.3314C70.7503 53.3314 70.8303 47.9214 75.3103 45.6314C75.3103 45.6314 84.1803 44.2514 97.3503 44.4814V44.4714Z" fill="#BFC4E0"/>
<path d="M97.3015 44.4617C88.1615 47.6417 88.4415 55.2317 88.4415 55.2317L87.5615 115.502C87.5615 115.502 87.9515 121.392 92.0715 123.412L73.1015 121.542C73.1015 121.542 70.0415 120.842 69.7715 116.782L70.7015 53.3217C70.7015 53.3217 70.7815 47.9117 75.2615 45.6217C75.2615 45.6217 84.1315 44.2417 97.3015 44.4717V44.4617Z" fill="#C1C7E2"/>
<path d="M97.2507 44.4617C88.1107 47.6417 88.3907 55.2317 88.3907 55.2317L87.5107 115.502C87.5107 115.502 87.9007 121.392 92.0207 123.412L73.0507 121.542C73.0507 121.542 69.9907 120.842 69.7207 116.782L70.6507 53.3217C70.6507 53.3217 70.7307 47.9117 75.2107 45.6217C75.2107 45.6217 84.0807 44.2417 97.2507 44.4717V44.4617Z" fill="#C3CAE3"/>
<path d="M97.1999 44.4617C88.0599 47.6417 88.3399 55.2317 88.3399 55.2317L87.4599 115.502C87.4599 115.502 87.8499 121.392 91.9699 123.412L72.9999 121.542C72.9999 121.542 69.9399 120.842 69.6699 116.782L70.5999 53.3217C70.5999 53.3217 70.6799 47.9117 75.1599 45.6217C75.1599 45.6217 84.0299 44.2417 97.1999 44.4717V44.4617Z" fill="#C6CDE5"/>
<path d="M97.1511 44.4617C88.0111 47.6417 88.2911 55.2317 88.2911 55.2317L87.4111 115.502C87.4111 115.502 87.8011 121.392 91.9211 123.412L72.9511 121.542C72.9511 121.542 69.8911 120.842 69.6211 116.782L70.5511 53.3217C70.5511 53.3217 70.6311 47.9117 75.1111 45.6217C75.1111 45.6217 83.9811 44.2417 97.1511 44.4717V44.4617Z" fill="#C8D0E6"/>
<path d="M97.1003 44.4617C87.9603 47.6417 88.2403 55.2317 88.2403 55.2317L87.3603 115.502C87.3603 115.502 87.7503 121.392 91.8703 123.412L72.9003 121.542C72.9003 121.542 69.8403 120.842 69.5703 116.782L70.5003 53.3217C70.5003 53.3217 70.5803 47.9117 75.0603 45.6217C75.0603 45.6217 83.9303 44.2417 97.1003 44.4717V44.4617Z" fill="#CAD4E8"/>
<path d="M97.0515 44.4617C87.9115 47.6417 88.1915 55.2317 88.1915 55.2317L87.3115 115.502C87.3115 115.502 87.7015 121.392 91.8215 123.412L72.8515 121.542C72.8515 121.542 69.7915 120.842 69.5215 116.782L70.4515 53.3217C70.4515 53.3217 70.5315 47.9117 75.0115 45.6217C75.0115 45.6217 83.8815 44.2417 97.0515 44.4717V44.4617Z" fill="#CCD7E9"/>
<path d="M97.0007 44.4617C87.8607 47.6417 88.1407 55.2317 88.1407 55.2317L87.2607 115.502C87.2607 115.502 87.6507 121.392 91.7707 123.412L72.8007 121.542C72.8007 121.542 69.7407 120.842 69.4707 116.782L70.4007 53.3217C70.4007 53.3217 70.4807 47.9117 74.9607 45.6217C74.9607 45.6217 83.8307 44.2417 97.0007 44.4717V44.4617Z" fill="#CEDAEB"/>
<path d="M96.9499 44.4617C87.8099 47.6417 88.0899 55.2317 88.0899 55.2317L87.2099 115.502C87.2099 115.502 87.5999 121.392 91.7199 123.412L72.7499 121.542C72.7499 121.542 69.6899 120.842 69.4199 116.782L70.3499 53.3217C70.3499 53.3217 70.4299 47.9117 74.9099 45.6217C74.9099 45.6217 83.7799 44.2417 96.9499 44.4717V44.4617Z" fill="#D1DDEC"/>
<path d="M96.9011 44.4617C87.7611 47.6417 88.0411 55.2317 88.0411 55.2317L87.1611 115.502C87.1611 115.502 87.5511 121.392 91.6711 123.412L72.7011 121.542C72.7011 121.542 69.6411 120.842 69.3711 116.782L70.3011 53.3217C70.3011 53.3217 70.3811 47.9117 74.8611 45.6217C74.8611 45.6217 83.7311 44.2417 96.9011 44.4717V44.4617Z" fill="#D3E0EE"/>
<path d="M96.8503 44.4617C87.7103 47.6417 87.9903 55.2317 87.9903 55.2317L87.1103 115.502C87.1103 115.502 87.5003 121.392 91.6203 123.412L72.6503 121.542C72.6503 121.542 69.5903 120.842 69.3203 116.782L70.2503 53.3217C70.2503 53.3217 70.3303 47.9117 74.8103 45.6217C74.8103 45.6217 83.6803 44.2417 96.8503 44.4717V44.4617Z" fill="#D5E3EF"/>
<path opacity="0.5" d="M76.3714 45.6316C76.3714 45.6316 71.4914 44.0616 70.2514 53.3116V115.562C70.2514 115.562 69.6014 119.812 72.6514 121.532C72.6514 121.532 71.8014 119.312 72.0614 115.742V53.7916C72.0614 53.7916 71.9614 49.2916 76.3714 45.6316Z" fill="white"/>
<defs>
<linearGradient id="paint0_linear_71_1333" x1="52.2914" y1="40.8015" x2="75.5014" y2="44.6615" gradientUnits="userSpaceOnUse">
<stop stop-color="#D5E3EF"/>
<stop offset="0.43" stop-color="#D5E3EF"/>
<stop offset="0.79" stop-color="#A3B2D7"/>
<stop offset="1" stop-color="#65709A"/>
</linearGradient>
<linearGradient id="paint1_linear_71_1333" x1="148.201" y1="31.6313" x2="124.171" y2="45.9013" gradientUnits="userSpaceOnUse">
<stop stop-color="#D5E3EF"/>
<stop offset="0.43" stop-color="#D5E3EF"/>
<stop offset="0.79" stop-color="#A3B2D7"/>
<stop offset="1" stop-color="#65709A"/>
</linearGradient>
<linearGradient id="paint2_linear_71_1333" x1="50.0115" y1="94.1716" x2="146.811" y2="94.1716" gradientUnits="userSpaceOnUse">
<stop stop-color="#A58FF2"/>
<stop offset="0.43" stop-color="#A79AF7"/>
<stop offset="0.59" stop-color="#B6A7F7"/>
<stop offset="0.71" stop-color="#7C6DEE"/>
<stop offset="1" stop-color="#4D45E0"/>
</linearGradient>
<linearGradient id="paint3_linear_71_1333" x1="48.9462" y1="57.6814" x2="148.726" y2="59.1444" gradientUnits="userSpaceOnUse">
<stop stop-color="#A58FF2"/>
<stop offset="0.43" stop-color="#A79AF7"/>
<stop offset="0.59" stop-color="#B6A7F7"/>
<stop offset="0.71" stop-color="#7C6DEE"/>
<stop offset="1" stop-color="#4D45E0"/>
</linearGradient>
<linearGradient id="paint4_linear_71_1333" x1="98.9102" y1="37.5815" x2="118.27" y2="37.5815" gradientUnits="userSpaceOnUse">
<stop stop-color="#D5E3EF"/>
<stop offset="1" stop-color="#4C496F"/>
</linearGradient>
<linearGradient id="paint5_linear_71_1333" x1="113.518" y1="27.4346" x2="115.503" y2="47.5458" gradientUnits="userSpaceOnUse">
<stop stop-color="#D5E3EF"/>
<stop offset="0.43" stop-color="#D5E3EF"/>
<stop offset="0.6" stop-color="#A3B2D7"/>
<stop offset="0.72" stop-color="#9098C8"/>
<stop offset="1" stop-color="#65709A"/>
</linearGradient>
<linearGradient id="paint6_linear_71_1333" x1="96.23" y1="41.5914" x2="79.71" y2="32.2014" gradientUnits="userSpaceOnUse">
<stop stop-color="#D5E3EF"/>
<stop offset="1" stop-color="#4C496F"/>
</linearGradient>
<linearGradient id="paint7_linear_71_1333" x1="84.4496" y1="27.0289" x2="81.8755" y2="47.0733" gradientUnits="userSpaceOnUse">
<stop stop-color="#D5E3EF"/>
<stop offset="0.43" stop-color="#D5E3EF"/>
<stop offset="0.6" stop-color="#A3B2D7"/>
<stop offset="0.72" stop-color="#9098C8"/>
<stop offset="1" stop-color="#65709A"/>
</linearGradient>
</defs>
</svg>
