<svg width="199" height="147" viewBox="0 0 199 147" fill="none" xmlns="http://www.w3.org/2000/svg">
<path d="M198.2 2.19995H0.200195V146.2H198.2V2.19995Z" fill="#6DC7C3"/>
<path d="M47.7487 22.7001C47.7487 22.7001 42.1587 26.1901 43.1087 32.1901L61.7887 125.73C61.7887 125.73 64.5187 134.73 73.3787 134.87L108.289 132.01C108.289 132.01 118.379 129.56 116.469 120.28L96.8387 28.7901C96.8387 28.7901 94.9487 21.5301 86.8287 20.6001L52.2987 21.0901C52.2987 21.0901 49.5487 21.2901 47.7587 22.7101L47.7487 22.7001Z" fill="url(#paint0_linear_53_535)"/>
<path d="M46.1589 30.6701C46.1589 30.6701 44.8189 23.3401 52.3389 21.5701L87.0289 21.0801C87.0289 21.0801 93.3289 21.5701 96.3089 28.2301L116.029 120.64C116.029 120.64 117.249 127.33 110.459 129.46L77.4089 132.29C77.4089 132.29 68.0089 133.48 65.2689 123.53L46.1589 30.6701Z" fill="#67AFEF"/>
<path d="M46.7992 30.6699C46.7992 30.6699 45.7992 23.3999 52.6392 22.0599L87.2992 21.6299L52.7892 22.5399C52.7892 22.5399 47.2492 23.2699 47.8592 30.1799L67.1792 124.45C67.1792 124.45 67.9692 127.68 71.7692 130.26C71.7692 130.26 67.5092 129.71 65.6792 123.72L46.7992 30.6699Z" fill="url(#paint1_linear_53_535)"/>
<path d="M70.1387 134.24L112.739 129.76C112.739 129.76 111.179 131.46 108.289 132L74.6187 135.1C74.6187 135.1 70.7987 135.05 70.1387 134.24Z" fill="url(#paint2_linear_53_535)"/>
<path d="M49.2691 29.5301L67.8691 122.78C68.7591 127.22 72.8391 130.29 77.3591 129.89L109.009 127.1C112.859 126.76 115.529 123.13 114.719 119.35L95.2991 29.3101C94.4991 25.5801 91.1491 22.9401 87.3391 23.0301L53.8591 23.8101C50.8891 23.8801 48.6991 26.6101 49.2791 29.5301H49.2691Z" fill="white"/>
<path d="M49.6587 29.5301L68.2587 122.78C69.1487 127.22 73.2287 130.29 77.7487 129.89L109.399 127.1C113.249 126.76 115.919 123.13 115.109 119.35L95.6887 29.3101C94.8887 25.5801 91.5387 22.9401 87.7287 23.0301L54.2487 23.8101C51.2787 23.8801 49.0887 26.6101 49.6687 29.5301H49.6587Z" fill="url(#paint3_linear_53_535)"/>
<path d="M46.1483 45.59C46.1483 45.59 45.9583 44.94 46.7683 44.86C46.7683 44.86 47.4583 44.78 47.6183 45.67L50.3883 59.5C50.3883 59.5 50.6583 60.93 49.7383 61.04C49.7383 61.04 49.0083 60.96 48.8483 60.23L46.1483 45.59Z" fill="url(#paint4_linear_53_535)"/>
<path d="M125.188 27.74C132.849 27.74 139.058 21.5302 139.058 13.87C139.058 6.20981 132.849 0 125.188 0C117.528 0 111.318 6.20981 111.318 13.87C111.318 21.5302 117.528 27.74 125.188 27.74Z" fill="url(#paint5_radial_53_535)"/>
<path d="M123.979 7.65C124.289 6.88 124.859 6.5 125.689 6.5C126.269 6.5 126.739 6.67 127.109 7C127.479 7.33 127.659 7.83 127.659 8.49V20.49C127.659 21.58 126.779 22.46 125.689 22.46C124.599 22.46 123.719 21.58 123.719 20.49V12.62H121.869C121.319 12.62 120.839 12.48 120.439 12.21C120.039 11.93 119.839 11.52 119.839 10.97C119.839 10.51 119.979 10.14 120.249 9.86C120.519 9.58 120.859 9.42 121.259 9.37C121.889 9.29 122.449 9.13 122.949 8.89C123.449 8.65 123.789 8.18 123.989 7.66L123.979 7.65Z" fill="white"/>
<path d="M106.249 19.1901C107.58 19.1901 108.659 18.1111 108.659 16.7801C108.659 15.4491 107.58 14.3701 106.249 14.3701C104.918 14.3701 103.839 15.4491 103.839 16.7801C103.839 18.1111 104.918 19.1901 106.249 19.1901Z" fill="url(#paint6_radial_53_535)"/>
<path d="M94.9084 35.3299L95.1384 25.5999C95.9184 19.9499 100.158 16.3999 106.358 16.3999C112.558 16.3999 116.678 20.4499 117.578 25.5999L117.498 35.0799L94.8984 35.3199L94.9084 35.3299Z" fill="url(#paint7_radial_53_535)"/>
<path opacity="0.5" d="M103.869 23.55H106.159L106.269 26.8101H103.699L103.869 23.55Z" fill="url(#paint8_linear_53_535)"/>
<path d="M106.299 46.5C115.041 46.5 122.129 43.1511 122.129 39.02C122.129 34.8889 115.041 31.54 106.299 31.54C97.5561 31.54 90.4688 34.8889 90.4688 39.02C90.4688 43.1511 97.5561 46.5 106.299 46.5Z" fill="url(#paint9_radial_53_535)"/>
<path d="M106.299 45.3301C112.418 45.3301 117.379 43.7139 117.379 41.7201C117.379 39.7264 112.418 38.1101 106.299 38.1101C100.179 38.1101 95.2188 39.7264 95.2188 41.7201C95.2188 43.7139 100.179 45.3301 106.299 45.3301Z" fill="url(#paint10_radial_53_535)"/>
<path d="M101.069 38.55C100.789 39.22 100.629 39.96 100.629 40.74C100.629 43.85 103.149 46.36 106.249 46.36C109.349 46.36 111.869 43.84 111.869 40.74C111.869 39.95 111.709 39.19 111.409 38.51C111.409 38.51 109.219 38.1 106.189 38.09C106.189 38.09 103.479 38.07 101.279 38.48L101.069 38.55Z" fill="url(#paint11_radial_53_535)"/>
<path opacity="0.5" d="M107.129 31.5701C107.129 31.5701 102.439 31.6301 101.979 31.9101L102.439 33.9701L107.079 33.6801L107.139 31.5601L107.129 31.5701Z" fill="url(#paint12_linear_53_535)"/>
<path opacity="0.25" d="M95.9189 35.9201C95.9189 35.9201 105.899 31.8901 117.239 35.9201C117.239 35.9201 107.429 31.3801 95.9189 35.9201Z" fill="url(#paint13_linear_53_535)"/>
<defs>
<linearGradient id="paint0_linear_53_535" x1="53.2987" y1="82.0901" x2="57.8887" y2="81.1401" gradientUnits="userSpaceOnUse">
<stop stop-color="#5A78B5"/>
<stop offset="0.61" stop-color="#558DD1"/>
</linearGradient>
<linearGradient id="paint1_linear_53_535" x1="46.7492" y1="75.9499" x2="87.2992" y2="75.9499" gradientUnits="userSpaceOnUse">
<stop offset="0.23" stop-color="#B8DEFA"/>
<stop offset="0.29" stop-color="#B2DBF8"/>
<stop offset="0.37" stop-color="#A3D3F5"/>
<stop offset="0.45" stop-color="#8AC7F0"/>
<stop offset="0.54" stop-color="#68B6E9"/>
<stop offset="0.61" stop-color="#47A6E3"/>
</linearGradient>
<linearGradient id="paint2_linear_53_535" x1="91.5487" y1="133.27" x2="91.4087" y2="131.67" gradientUnits="userSpaceOnUse">
<stop stop-color="#294A90"/>
<stop offset="0.61" stop-color="#558DD1"/>
</linearGradient>
<linearGradient id="paint3_linear_53_535" x1="140.589" y1="27.5001" x2="75.7387" y2="80.4901" gradientUnits="userSpaceOnUse">
<stop offset="0.07" stop-color="#DCDDDD"/>
<stop offset="0.08" stop-color="#DCDDDD"/>
<stop offset="0.23" stop-color="#EBE9E8"/>
<stop offset="0.42" stop-color="#F4F0EF"/>
<stop offset="0.7" stop-color="#F7F3F1"/>
</linearGradient>
<linearGradient id="paint4_linear_53_535" x1="47.1183" y1="53.16" x2="49.5683" y2="52.69" gradientUnits="userSpaceOnUse">
<stop offset="0.47" stop-color="#80C4FF"/>
<stop offset="0.7" stop-color="#386FC4"/>
</linearGradient>
<radialGradient id="paint5_radial_53_535" cx="0" cy="0" r="1" gradientUnits="userSpaceOnUse" gradientTransform="translate(123.018 -4.88) scale(37.26 37.26)">
<stop offset="0.02" stop-color="#FFA988"/>
<stop offset="0.33" stop-color="#F64B2F"/>
<stop offset="0.49" stop-color="#ED462C"/>
<stop offset="0.73" stop-color="#D53926"/>
<stop offset="1" stop-color="#B5271D"/>
</radialGradient>
<radialGradient id="paint6_radial_53_535" cx="0" cy="0" r="1" gradientUnits="userSpaceOnUse" gradientTransform="translate(106.069 15.2301) scale(2.63 2.63)">
<stop offset="0.03" stop-color="#FFF0AF"/>
<stop offset="0.1" stop-color="#FFE99D"/>
<stop offset="0.23" stop-color="#FFDE82"/>
<stop offset="0.35" stop-color="#FFD872"/>
<stop offset="0.43" stop-color="#FFD66D"/>
<stop offset="0.49" stop-color="#FFCD67"/>
<stop offset="0.67" stop-color="#FFB456"/>
<stop offset="0.83" stop-color="#FFA54B"/>
<stop offset="0.97" stop-color="#FFA048"/>
</radialGradient>
<radialGradient id="paint7_radial_53_535" cx="0" cy="0" r="1" gradientUnits="userSpaceOnUse" gradientTransform="translate(101.588 24.4499) scale(20.49)">
<stop offset="0.19" stop-color="#FFD66D"/>
<stop offset="0.39" stop-color="#FDD169"/>
<stop offset="0.62" stop-color="#F9C360"/>
<stop offset="0.85" stop-color="#F3AE53"/>
</radialGradient>
<linearGradient id="paint8_linear_53_535" x1="104.989" y1="28.2001" x2="104.989" y2="22.1" gradientUnits="userSpaceOnUse">
<stop offset="0.23" stop-color="#FFDE72"/>
<stop offset="0.61" stop-color="white"/>
</linearGradient>
<radialGradient id="paint9_radial_53_535" cx="0" cy="0" r="1" gradientUnits="userSpaceOnUse" gradientTransform="translate(104.639 33.43) scale(19.26)">
<stop offset="0.06" stop-color="#FFE67F"/>
<stop offset="0.12" stop-color="#FFDD74"/>
<stop offset="0.24" stop-color="#FFD165"/>
<stop offset="0.39" stop-color="#FFCB5C"/>
<stop offset="0.61" stop-color="#FFC95A"/>
<stop offset="0.98" stop-color="#D97D4E"/>
</radialGradient>
<radialGradient id="paint10_radial_53_535" cx="0" cy="0" r="1" gradientUnits="userSpaceOnUse" gradientTransform="translate(106.329 33.5401) scale(23.16 23.16)">
<stop offset="0.44" stop-color="#56120D"/>
<stop offset="0.45" stop-color="#59130C"/>
<stop offset="0.46" stop-color="#7A200C"/>
<stop offset="0.49" stop-color="#952A0C"/>
<stop offset="0.51" stop-color="#AA320C"/>
<stop offset="0.53" stop-color="#B9380C"/>
<stop offset="0.56" stop-color="#C23B0C"/>
<stop offset="0.61" stop-color="#C53D0C"/>
</radialGradient>
<radialGradient id="paint11_radial_53_535" cx="0" cy="0" r="1" gradientUnits="userSpaceOnUse" gradientTransform="translate(105.239 44.05) scale(7.13)">
<stop offset="0.33" stop-color="#EF992D"/>
<stop offset="0.44" stop-color="#ED922A"/>
<stop offset="0.6" stop-color="#E87F25"/>
<stop offset="0.79" stop-color="#DF611B"/>
<stop offset="0.86" stop-color="#DC5417"/>
</radialGradient>
<linearGradient id="paint12_linear_53_535" x1="104.619" y1="34.0301" x2="104.389" y2="25.3301" gradientUnits="userSpaceOnUse">
<stop offset="0.07" stop-color="#FFE67F"/>
<stop offset="0.1" stop-color="#FFE993"/>
<stop offset="0.16" stop-color="#FFF0B4"/>
<stop offset="0.23" stop-color="#FFF5CF"/>
<stop offset="0.3" stop-color="#FFF9E4"/>
<stop offset="0.38" stop-color="#FFFCF3"/>
<stop offset="0.47" stop-color="#FFFEFC"/>
<stop offset="0.61" stop-color="white"/>
</linearGradient>
<linearGradient id="paint13_linear_53_535" x1="82.7189" y1="29.8501" x2="115.139" y2="37.9201" gradientUnits="userSpaceOnUse">
<stop offset="0.07" stop-color="#FFE67F"/>
<stop offset="0.1" stop-color="#FFE993"/>
<stop offset="0.16" stop-color="#FFF0B4"/>
<stop offset="0.23" stop-color="#FFF5CF"/>
<stop offset="0.3" stop-color="#FFF9E4"/>
<stop offset="0.38" stop-color="#FFFCF3"/>
<stop offset="0.47" stop-color="#FFFEFC"/>
<stop offset="0.61" stop-color="white"/>
</linearGradient>
</defs>
</svg>
