<svg width="198" height="145" viewBox="0 0 198 145" fill="none" xmlns="http://www.w3.org/2000/svg">
<path d="M198 0.100098H0V144.1H198V0.100098Z" fill="#FFD77C"/>
<path d="M27.8008 37.2197L27.9508 112.74L68.0808 118.19L67.9308 42.6697L27.8008 37.2197Z" fill="#B7B7B7"/>
<path d="M41.2305 105.41L41.2505 114.55L54.7705 116.39L54.7605 107.24L41.2305 105.41Z" fill="#B0DDFC"/>
<path d="M38.6602 101.37L38.6702 105.06L57.3202 107.59L57.3102 103.91L38.6602 101.37Z" fill="#A0A0A0"/>
<path d="M67.9316 42.6701L68.0816 118.19L74.0616 115.05L97.2216 102.87L97.0716 27.3501L67.9316 42.6701Z" fill="#777777"/>
<path d="M27.8008 37.2199L67.9308 42.6699L97.0708 27.3499L56.9408 21.8999L27.8008 37.2199Z" fill="#999999"/>
<path d="M93.5508 66.69L93.6508 117.71L116.801 105.53L116.701 54.52L93.5508 66.69Z" fill="#767676"/>
<path d="M93.6113 95.92L93.6213 101.05L116.771 88.88L116.761 83.75L93.6113 95.92Z" fill="#7796AB"/>
<path d="M93.5898 85.3299L93.5998 90.4599L116.75 78.2799L116.74 73.1499L93.5898 85.3299Z" fill="#7796AB"/>
<path d="M93.5703 74.7301L93.5803 79.8601L116.73 67.6901L116.72 62.5601L93.5703 74.7301Z" fill="#7796AB"/>
<path d="M73.9707 64.0401L93.5507 66.6901L116.701 54.5201L97.1207 51.8701L73.9707 64.0401Z" fill="#878787"/>
<path d="M73.9707 64.04L74.0607 115.05L93.6507 117.71L93.5507 66.69L73.9707 64.04Z" fill="#A0A0A0"/>
<path d="M74.0215 93.2598L74.0315 98.3898L93.6215 101.05L93.6115 95.9198L74.0215 93.2598Z" fill="#B0DDFC"/>
<path d="M74 82.6699L74.01 87.7999L93.6 90.4599L93.59 85.3299L74 82.6699Z" fill="#B0DDFC"/>
<path d="M73.9805 72.0698L73.9905 77.1998L93.5805 79.8598L93.5705 74.7298L73.9805 72.0698Z" fill="#B0DDFC"/>
<path d="M34.7402 83.8701L34.7502 91.3801L44.3002 92.6801L44.2902 85.1601L34.7402 83.8701Z" fill="#B0DDFC"/>
<path d="M34.6914 59.3799L34.7114 66.8999L44.2614 68.1999L44.2414 60.6799L34.6914 59.3799Z" fill="#B0DDFC"/>
<path d="M51.5215 86.1499L51.5315 93.6599L61.0815 94.9599L61.0715 87.4399L51.5215 86.1499Z" fill="#B0DDFC"/>
<path d="M34.6699 47.1499L34.6799 54.6699L44.2299 55.9599L44.2199 48.4499L34.6699 47.1499Z" fill="#B0DDFC"/>
<path d="M51.4902 73.8999L51.5102 81.4199L61.0602 82.7199L61.0402 75.1999L51.4902 73.8999Z" fill="#B0DDFC"/>
<path d="M51.4707 61.6602L51.4807 69.1802L61.0307 70.4702L61.0207 62.9602L51.4707 61.6602Z" fill="#B0DDFC"/>
<path d="M51.4512 49.4297L51.4612 56.9397L61.0112 58.2397L61.0012 50.7297L51.4512 49.4297Z" fill="#B0DDFC"/>
<path d="M34.7207 71.6299L34.7307 79.1399L44.2807 80.4399L44.2707 72.9199L34.7207 71.6299Z" fill="#B0DDFC"/>
<path d="M140.531 60.9299L140.661 129.25L169.801 113.93L169.671 45.6099L140.531 60.9299Z" fill="#767676"/>
<path d="M100.281 41.9499L140.531 60.9299L169.671 45.6099L129.421 26.6299L100.281 41.9499Z" fill="#989898"/>
<path d="M100.281 41.9497L100.441 123.78L140.661 129.25L140.531 60.9297L100.281 41.9497Z" fill="#B7B7B7"/>
<path d="M113.111 118.22L113.121 125.51L127.971 127.52L127.961 120.24L113.111 118.22Z" fill="#B0DDFC"/>
<path d="M110.311 114.91V117.84L113.111 118.22L127.961 120.24L130.761 120.62L130.751 117.68L110.311 114.91Z" fill="#A0A0A0"/>
<path d="M103.91 98.8198L103.92 103.21L137.1 107.71L137.09 103.32L103.91 98.8198Z" fill="#B0DDFC"/>
<path d="M103.891 89.73L103.901 94.13L137.081 98.63L137.071 94.24L103.891 89.73Z" fill="#B0DDFC"/>
<path d="M103.881 80.6499V85.0499L137.061 89.5499L137.051 85.1499L103.881 80.6499Z" fill="#B0DDFC"/>
<path d="M103.861 71.5698L103.871 75.9598L137.041 80.4598V76.0698L103.861 71.5698Z" fill="#B0DDFC"/>
<path d="M103.84 62.48L103.85 66.88L137.03 71.38L137.02 66.98L103.84 62.48Z" fill="#B0DDFC"/>
<path d="M143.15 93.3697L143.16 97.7697L167.19 85.1297L167.18 80.7397L143.15 93.3697Z" fill="#7796AB"/>
<path d="M143.17 102.46L143.18 106.85L167.2 94.2198V89.8198L143.17 102.46Z" fill="#7796AB"/>
<path d="M143.17 111.54L143.18 115.94L167.2 103.3V98.9102L143.17 111.54Z" fill="#7796AB"/>
<path d="M143.121 75.2098V79.5998L167.151 66.9698L167.141 62.5698L143.121 75.2098Z" fill="#7796AB"/>
<path d="M143.131 84.2902L143.141 88.6802L167.171 76.0502L167.161 71.6602L143.131 84.2902Z" fill="#7796AB"/>
<path d="M143.102 66.1197L143.112 70.5197L167.132 57.8797V53.4897L143.102 66.1197Z" fill="#7796AB"/>
<mask id="mask0_71_1325" style="mask-type:luminance" maskUnits="userSpaceOnUse" x="32" y="31" width="2" height="2">
<path d="M33.4997 31.5498L32.4197 32.1998C32.3397 32.2498 32.2597 32.2898 32.1797 32.3398L33.2597 31.6898C33.3397 31.6498 33.4197 31.5998 33.4997 31.5498Z" fill="white"/>
</mask>
<g mask="url(#mask0_71_1325)">
<path d="M32.1797 32.3398L33.2597 31.6898C33.3397 31.6498 33.4197 31.5998 33.4997 31.5498L32.4197 32.1998C32.3397 32.2498 32.2597 32.2898 32.1797 32.3398Z" fill="#8A8A8A"/>
</g>
<mask id="mask1_71_1325" style="mask-type:luminance" maskUnits="userSpaceOnUse" x="33" y="30" width="5" height="5">
<path d="M34.7109 34.1597L33.6309 34.8097C34.8509 34.0797 35.9009 33.0497 36.5609 31.6397L37.6409 30.9897C36.9809 32.3997 35.9309 33.4297 34.7109 34.1597Z" fill="white"/>
</mask>
<g mask="url(#mask1_71_1325)">
<path d="M36.5609 31.6397L37.6409 30.9897C36.9809 32.3997 35.9309 33.4297 34.7109 34.1597L33.6309 34.8097C34.8509 34.0797 35.9009 33.0497 36.5609 31.6397Z" fill="#858585"/>
</g>
<path d="M40.9397 33.4798L42.0197 32.8198V36.0098L40.9297 36.6698L40.9397 33.4798Z" fill="#808080"/>
<mask id="mask2_71_1325" style="mask-type:luminance" maskUnits="userSpaceOnUse" x="37" y="25" width="6" height="9">
<path d="M37.92 26.1798L39 25.5298C39 29.7598 40.5 31.5898 42.02 32.8198L40.94 33.4698C39.42 32.2298 37.91 30.4098 37.92 26.1798Z" fill="white"/>
</mask>
<g mask="url(#mask2_71_1325)">
<path d="M37.92 26.1798L39 25.5298C39 29.7598 40.5 31.5898 42.02 32.8198L40.94 33.4698C39.42 32.2298 37.91 30.4098 37.92 26.1798Z" fill="#858585"/>
</g>
<path d="M37.9199 26.1801C37.9199 30.4101 39.4199 32.2401 40.9399 33.4701V36.6601C39.1299 35.4701 37.4599 33.8301 36.5599 31.6401C35.6399 33.5901 33.9899 34.8001 32.1699 35.5301V32.3401C33.6899 31.5001 35.2199 30.0601 35.2299 25.8301V22.8901L37.9199 23.2401V26.1901V26.1801Z" fill="#F7F7F7"/>
<path d="M35.2402 22.89L36.3202 22.23L39.0102 22.58L37.9202 23.23L35.2402 22.89Z" fill="#8C8C8C"/>
<path d="M37.9199 23.2301L39.0099 22.5801L38.9999 25.5301L37.9199 26.1801V23.2301Z" fill="#808080"/>
<path d="M42.0202 23.4497L44.7602 23.8097L44.7402 37.6497L41.9902 37.2997L42.0202 23.4497Z" fill="#F7F7F7"/>
<path d="M42.0195 23.4498L43.0995 22.7998L45.8495 23.1498L44.7595 23.8098L42.0195 23.4498Z" fill="#8C8C8C"/>
<path d="M44.7602 23.8099L45.8502 23.1499L45.8202 36.9999L44.7402 37.6499L44.7602 23.8099Z" fill="#808080"/>
<mask id="mask3_71_1325" style="mask-type:luminance" maskUnits="userSpaceOnUse" x="46" y="28" width="3" height="2">
<path d="M46.8496 29.6697L47.9296 29.0197C48.1896 28.8697 48.4996 28.7997 48.8396 28.8397L47.7596 29.4897C47.4196 29.4497 47.1096 29.5097 46.8496 29.6697Z" fill="white"/>
</mask>
<g mask="url(#mask3_71_1325)">
<path d="M46.8496 29.6697L47.9296 29.0197C48.1896 28.8697 48.4996 28.7997 48.8396 28.8397L47.7596 29.4897C47.4196 29.4497 47.1096 29.5097 46.8496 29.6697Z" fill="#8A8A8A"/>
</g>
<mask id="mask4_71_1325" style="mask-type:luminance" maskUnits="userSpaceOnUse" x="47" y="28" width="4" height="5">
<path d="M49.7398 31.9998L48.6598 32.6498C49.0698 32.3998 49.3398 31.9298 49.3398 31.3598C49.3398 30.4398 48.6398 29.5998 47.7598 29.4898L48.8398 28.8398C49.7198 28.9498 50.4198 29.7898 50.4198 30.7098C50.4198 31.2798 50.1498 31.7498 49.7398 31.9998Z" fill="white"/>
</mask>
<g mask="url(#mask4_71_1325)">
<path d="M47.75 29.4898L48.83 28.8398C48.83 28.8398 48.9 28.8498 48.94 28.8598L47.86 29.5098C47.86 29.5098 47.79 29.4998 47.75 29.4898Z" fill="#8A8A8A"/>
<path d="M47.8594 29.5099L48.9394 28.8599C49.7694 29.0299 50.4094 29.8299 50.4094 30.7099C50.4094 31.2799 50.1394 31.7499 49.7294 31.9999L48.6494 32.6499C49.0594 32.3999 49.3294 31.9299 49.3294 31.3599C49.3294 30.4799 48.6894 29.6699 47.8594 29.5099Z" fill="#858585"/>
</g>
<path d="M47.7499 29.4895C48.6299 29.5995 49.3299 30.4395 49.3299 31.3595C49.3299 32.2795 48.6199 32.9395 47.7399 32.8295C46.8599 32.7195 46.1699 31.8595 46.1699 30.9495C46.1699 30.0395 46.8799 29.3695 47.7499 29.4895Z" fill="#F7F7F7"/>
<path d="M50.4902 35.6998L51.5702 35.0498L56.6702 35.7098L55.5902 36.3598L50.4902 35.6998Z" fill="#8C8C8C"/>
<path d="M55.5898 33.69L56.6798 33.04L59.4298 33.39L58.3398 34.04L55.5898 33.69Z" fill="#8C8C8C"/>
<path d="M58.3398 34.0401L59.4298 33.3901L59.4198 36.0601L58.3398 36.7201V34.0401Z" fill="#808080"/>
<path d="M58.3405 36.7199L63.4505 37.3799V39.8199L50.4805 38.1399L50.4905 35.6999L55.5905 36.3599V33.6899L58.3405 34.0399V36.7199Z" fill="#F7F7F7"/>
<path d="M58.3398 36.7201L59.4198 36.0601L64.5398 36.7301L63.4498 37.3801L58.3398 36.7201Z" fill="#8C8C8C"/>
<path d="M63.4512 37.38L64.5412 36.73L64.5312 39.16L63.4512 39.82V37.38Z" fill="#808080"/>
<path d="M53.8205 27.5499L54.9005 26.8999V29.9199L53.8105 30.5699L53.8205 27.5499Z" fill="#808080"/>
<path d="M63.01 31.7599L64.09 31.1099V33.4799L63 34.1399L63.01 31.7599Z" fill="#808080"/>
<path d="M53.8105 30.5699L54.9005 29.9199L64.0905 31.1099L63.0105 31.7599L53.8105 30.5699Z" fill="#8C8C8C"/>
<path d="M63.0101 31.7596L63.0001 34.1396L51.0801 32.5896L51.0901 24.8696L62.8801 26.3996V28.7296L53.8201 27.5496L53.8101 30.5696L63.0101 31.7596Z" fill="#F7F7F7"/>
<path d="M51.0898 24.8697L52.1798 24.2197L63.9698 25.7397L62.8798 26.3997L51.0898 24.8697Z" fill="#8C8C8C"/>
<path d="M62.8809 26.3997L63.9709 25.7397L63.9609 28.0697L62.8809 28.7297V26.3997Z" fill="#808080"/>
<path d="M69.4609 36.13L70.5409 35.48L73.2009 35.82L72.1209 36.47L69.4609 36.13Z" fill="#8C8C8C"/>
<path d="M72.1213 36.4698L73.2013 35.8198V38.4898L72.1113 39.1498L72.1213 36.4698Z" fill="#808080"/>
<path d="M76.7109 36.3202L77.8009 35.6602L77.7909 37.7602L76.7109 38.4102V36.3202Z" fill="#808080"/>
<path d="M72.1212 36.4699L72.1112 39.1499L81.4512 40.3499V42.4099L69.4512 40.8499L69.4612 36.1299L72.1212 36.4699Z" fill="#F7F7F7"/>
<path d="M72.1113 39.1497L73.2013 38.4897L82.5413 39.6997L81.4513 40.3497L72.1113 39.1497Z" fill="#8C8C8C"/>
<path d="M81.4512 40.3502L82.5412 39.7002L82.5312 41.7502L81.4512 42.4102V40.3502Z" fill="#808080"/>
<path d="M68.8906 33.13L69.9706 32.48L82.9306 34.16L81.8406 34.81L68.8906 33.13Z" fill="#8C8C8C"/>
<path d="M68.8909 33.1299L81.8409 34.8099V36.9799L76.7109 36.3199V38.4099L74.1209 38.0799L74.1309 35.9799L68.8809 35.2999L68.8909 33.1299Z" fill="#F7F7F7"/>
<path d="M81.8418 34.8102L82.9318 34.1602L82.9218 36.3302L81.8418 36.9802V34.8102Z" fill="#808080"/>
<path d="M72.0703 29.2701L73.1603 28.6201L73.1503 30.1401L72.0703 30.7901V29.2701Z" fill="#808080"/>
<path d="M72.0703 30.7896L73.1503 30.1396L79.7603 30.9996L78.6703 31.6496L72.0703 30.7896Z" fill="#8C8C8C"/>
<path d="M81.2609 28.5598V33.8798L69.4609 32.3498V27.0298L81.2609 28.5598ZM78.6709 31.6498V30.1298L72.0709 29.2698V30.7898L78.6709 31.6498Z" fill="#F7F7F7"/>
<path d="M81.26 28.5597L82.35 27.9097L82.34 33.2297L81.25 33.8797L81.26 28.5597Z" fill="#808080"/>
<path d="M69.4707 27.0299L70.5607 26.3799L82.3507 27.9099L81.2607 28.5599L69.4707 27.0299Z" fill="#8C8C8C"/>
<mask id="mask5_71_1325" style="mask-type:luminance" maskUnits="userSpaceOnUse" x="85" y="38" width="4" height="3">
<path d="M88.102 39.8797L87.022 40.5297C86.862 40.6297 86.662 40.6697 86.442 40.6397C85.932 40.5697 85.502 40.1297 85.502 39.5997L86.582 38.9497C86.582 39.4897 87.012 39.9297 87.522 39.9897C87.742 40.0197 87.942 39.9797 88.102 39.8797Z" fill="white"/>
</mask>
<g mask="url(#mask5_71_1325)">
<path d="M85.502 39.5997L86.582 38.9497C86.582 39.4597 86.972 39.8897 87.452 39.9797L86.372 40.6297C85.892 40.5297 85.502 40.1097 85.502 39.5997Z" fill="#858585"/>
<path d="M86.3613 40.6299L87.4413 39.9799C87.4413 39.9799 87.4913 39.9799 87.5113 39.9899C87.7313 40.0199 87.9313 39.9799 88.0913 39.8799L87.0113 40.5299C86.8513 40.6299 86.6513 40.6699 86.4313 40.6399C86.4113 40.6399 86.3813 40.6399 86.3613 40.6299Z" fill="#8A8A8A"/>
</g>
<path d="M85.502 36.42L86.592 35.77L86.582 38.94L85.502 39.6V36.42Z" fill="#808080"/>
<mask id="mask6_71_1325" style="mask-type:luminance" maskUnits="userSpaceOnUse" x="85" y="35" width="2" height="2">
<path d="M85.872 35.7301L86.952 35.0801C86.732 35.2101 86.592 35.4501 86.582 35.7701L85.502 36.4201C85.502 36.1001 85.652 35.8601 85.872 35.7301Z" fill="white"/>
</mask>
<g mask="url(#mask6_71_1325)">
<path d="M85.872 35.7301L86.952 35.0801C86.732 35.2101 86.592 35.4501 86.582 35.7701L85.502 36.4201C85.502 36.1001 85.652 35.8601 85.872 35.7301Z" fill="#858585"/>
</g>
<mask id="mask7_71_1325" style="mask-type:luminance" maskUnits="userSpaceOnUse" x="88" y="39" width="3" height="4">
<path d="M89.4218 41.7701L88.3418 42.4201C89.0518 41.9901 89.5218 41.2301 89.5218 40.2501L90.6018 39.6001C90.6018 40.5901 90.1318 41.3401 89.4218 41.7701Z" fill="white"/>
</mask>
<g mask="url(#mask7_71_1325)">
<path d="M89.5218 40.2501L90.6018 39.6001C90.6018 40.5901 90.1318 41.3401 89.4218 41.7701L88.3418 42.4201C89.0518 41.9901 89.5218 41.2301 89.5218 40.2501Z" fill="#858585"/>
</g>
<mask id="mask8_71_1325" style="mask-type:luminance" maskUnits="userSpaceOnUse" x="84" y="32" width="4" height="2">
<path d="M84.5508 33.8299L85.6308 33.1799C86.1608 32.8599 86.8208 32.7299 87.5208 32.8199L86.4408 33.4699C85.7408 33.3799 85.0808 33.5099 84.5508 33.8299Z" fill="white"/>
</mask>
<g mask="url(#mask8_71_1325)">
<path d="M84.5508 33.8299L85.6308 33.1799C86.1608 32.8599 86.8208 32.7299 87.5208 32.8199L86.4408 33.4699C85.7408 33.3799 85.0808 33.5099 84.5508 33.8299Z" fill="#8A8A8A"/>
</g>
<path d="M89.5315 36.8297L90.6115 36.1797V39.5997L89.5215 40.2497L89.5315 36.8297Z" fill="#808080"/>
<path d="M86.4416 33.4599C88.0916 33.6699 89.5316 35.0899 89.5316 36.8299V40.2499C89.5316 41.9799 88.0816 42.9999 86.4316 42.7899C84.7816 42.5799 83.3516 41.1799 83.3516 39.4499V36.0299C83.3516 34.2899 84.7916 33.2499 86.4516 33.4599H86.4416ZM87.3916 39.8399V36.6699C87.3916 36.1099 86.9716 35.6899 86.4516 35.6199C85.9316 35.5499 85.5116 35.8699 85.5116 36.4199V39.5899C85.5116 40.1299 85.9316 40.5699 86.4416 40.6299C86.9516 40.6899 87.3916 40.3699 87.3916 39.8299" fill="#F7F7F7"/>
<mask id="mask9_71_1325" style="mask-type:luminance" maskUnits="userSpaceOnUse" x="86" y="32" width="5" height="5">
<path d="M86.4414 33.4601L87.5214 32.8101C89.1714 33.0201 90.6114 34.4401 90.6114 36.1801L89.5314 36.8301C89.5314 35.0901 88.0914 33.6801 86.4414 33.4601Z" fill="white"/>
</mask>
<g mask="url(#mask9_71_1325)">
<path d="M86.4414 33.4601L87.5214 32.8101C87.6014 32.8201 87.6814 32.8301 87.7614 32.8501L86.6814 33.5001C86.6014 33.4801 86.5214 33.4701 86.4414 33.4601Z" fill="#8A8A8A"/>
<path d="M86.6816 33.5001L87.7616 32.8501C89.3116 33.1601 90.6116 34.5201 90.6116 36.1801L89.5316 36.8301C89.5316 35.1801 88.2316 33.8101 86.6816 33.5001Z" fill="#858585"/>
</g>
<path d="M83.1914 30.3897L84.2814 29.7397L86.3414 29.9997L85.2614 30.6597L83.1914 30.3897Z" fill="#8C8C8C"/>
<path d="M87.6309 29.1998L88.7209 28.5498V30.3098L87.6309 30.9598V29.1998Z" fill="#808080"/>
<path d="M85.2617 28.8897L86.3517 28.2397L88.7217 28.5497L87.6317 29.1997L85.2617 28.8897Z" fill="#8C8C8C"/>
<path d="M87.6314 29.1996V30.9596L89.6914 31.2296V33.4096L83.1914 32.5696V30.3896L85.2614 30.6596V28.8896L87.6314 29.1996Z" fill="#F7F7F7"/>
<path d="M87.6309 30.9596L88.7209 30.3096L90.7809 30.5796L89.6909 31.2296L87.6309 30.9596Z" fill="#8C8C8C"/>
<path d="M89.6914 31.2296L90.7814 30.5796L90.7714 32.7596L89.6914 33.4096V31.2296Z" fill="#808080"/>
<path d="M92.6819 37.65L93.7619 37L93.7519 43.21L92.6719 43.86L92.6819 37.65Z" fill="#808080"/>
<path d="M92.6816 35.2203L93.7716 34.5703L94.7316 34.6903L93.6416 35.3503L92.6816 35.2203Z" fill="#8C8C8C"/>
<path d="M90.4902 29.7301L91.5702 29.0801L93.7802 29.3601L92.6902 30.0101L90.4902 29.7301Z" fill="#8C8C8C"/>
<path d="M92.6916 30.0099L93.7816 29.3599L93.7716 34.5699L92.6816 35.2199L92.6916 30.0099Z" fill="#808080"/>
<path d="M93.6509 30.14L95.9109 30.43L95.8909 44.28L93.6309 43.98L93.6409 37.77L92.6809 37.65L92.6709 43.86L90.4609 43.57L90.4909 29.73L92.6909 30.01L92.6809 35.22L93.6409 35.35L93.6509 30.14Z" fill="#F7F7F7"/>
<path d="M93.6504 30.1402L94.7404 29.4902L97.0004 29.7802L95.9104 30.4302L93.6504 30.1402Z" fill="#8C8C8C"/>
<path d="M95.9106 30.4303L97.0006 29.7803L96.9706 43.6203L95.8906 44.2803L95.9106 30.4303Z" fill="#808080"/>
<path d="M97.1602 41.7799L98.2502 41.1299L100.41 41.4099L99.3202 42.0599L97.1602 41.7799Z" fill="#8C8C8C"/>
<path d="M101.66 42.36L102.74 41.71L104.18 41.9L103.1 42.55L101.66 42.36Z" fill="#8C8C8C"/>
<path d="M99.3301 36.7101L100.42 36.0601L102.75 36.3601L101.67 37.0101L99.3301 36.7101Z" fill="#8C8C8C"/>
<path d="M101.67 37.0099L102.75 36.3599L102.74 41.7099L101.66 42.3599L101.67 37.0099Z" fill="#808080"/>
<path d="M103.109 37.1998L104.189 36.5498L106.509 36.8498L105.429 37.4998L103.109 37.1998Z" fill="#8C8C8C"/>
<path d="M105.43 37.5001L106.51 36.8501L106.5 42.2001L105.42 42.8501L105.43 37.5001Z" fill="#808080"/>
<path d="M105.42 42.85L110.12 43.46V45.86L97.1602 44.18V41.78L99.3202 42.06L99.3302 36.71L101.67 37.01L101.66 42.36L103.1 42.55L103.11 37.2L105.43 37.5L105.42 42.85Z" fill="#F7F7F7"/>
<path d="M105.42 42.8502L106.5 42.2002L111.21 42.8102L110.12 43.4602L105.42 42.8502Z" fill="#8C8C8C"/>
<path d="M110.121 43.4601L111.211 42.8101L111.201 45.2101L110.121 45.8601V43.4601Z" fill="#808080"/>
<path d="M106.459 42.2699L106.939 34.2999L97.6895 33.0999V30.8999L109.619 32.4499L108.979 42.5899L106.459 42.2699Z" fill="#F7F7F7"/>
<path d="M97.6895 30.9L98.7795 30.25L110.709 31.8L109.619 32.45L97.6895 30.9Z" fill="#8C8C8C"/>
<path d="M109.62 32.4498L110.71 31.7998L110.06 41.9398L108.98 42.5898L109.62 32.4498Z" fill="#808080"/>
<path d="M111.82 41.9098L112.9 41.2598L114.79 41.4998L113.7 42.1598L111.82 41.9098Z" fill="#8C8C8C"/>
<path d="M116.461 41.2096L117.541 40.5596L120.301 40.9196L119.211 41.5696L116.461 41.2096Z" fill="#8C8C8C"/>
<path d="M119.211 41.5699L120.301 40.9199L120.291 42.2199L119.211 42.8699V41.5699Z" fill="#808080"/>
<path d="M121.701 41.8897L122.791 41.2397L122.781 42.5397L121.701 43.1897V41.8897Z" fill="#808080"/>
<path d="M124.271 42.2299L121.701 41.8899V43.1899L123.671 43.4499V48.0199L121.021 47.6799L121.031 45.1199L111.821 43.9299V41.9099L113.701 42.1599L113.961 40.8899L111.311 40.5499L111.321 38.3999L124.271 40.0799V42.2299Z" fill="#F7F7F7"/>
<path d="M119.21 42.87L116.18 42.48L116.46 41.21L119.21 41.57V42.87Z" fill="#808080"/>
<path d="M123.67 43.4498L124.76 42.7998L124.75 47.3698L123.67 48.0198V43.4498Z" fill="#808080"/>
<path d="M121.701 43.1896L122.781 42.5396L124.761 42.7996L123.671 43.4496L121.701 43.1896Z" fill="#8C8C8C"/>
<path d="M111.32 38.3997L112.4 37.7397L125.36 39.4197L124.27 40.0797L111.32 38.3997Z" fill="#8C8C8C"/>
<path d="M124.271 40.0799L125.361 39.4199L125.351 41.5699L124.271 42.2299V40.0799Z" fill="#808080"/>
<mask id="mask10_71_1325" style="mask-type:luminance" maskUnits="userSpaceOnUse" x="114" y="34" width="2" height="3">
<path d="M114.49 34.9601L115.57 34.3101C115.44 34.3901 115.35 34.5401 115.35 34.7301C115.35 35.0401 115.59 35.3201 115.89 35.3601L114.81 36.0101C114.51 35.9701 114.27 35.7001 114.27 35.3801C114.27 35.1801 114.36 35.0401 114.49 34.9601Z" fill="white"/>
</mask>
<g mask="url(#mask10_71_1325)">
<path d="M114.49 34.9601L115.57 34.3101C115.44 34.3901 115.35 34.5401 115.35 34.7301C115.35 35.0301 115.57 35.2901 115.85 35.3501L114.77 36.0001C114.49 35.9401 114.27 35.6801 114.27 35.3801C114.27 35.1801 114.36 35.0401 114.49 34.9601Z" fill="#858585"/>
<path d="M114.779 36.0001L115.859 35.3501C115.859 35.3501 115.889 35.3501 115.899 35.3501L114.819 36.0001C114.819 36.0001 114.789 36.0001 114.779 36.0001Z" fill="#8A8A8A"/>
</g>
<mask id="mask11_71_1325" style="mask-type:luminance" maskUnits="userSpaceOnUse" x="112" y="32" width="4" height="1">
<path d="M112.83 32.9901L113.91 32.3401C114.29 32.1101 114.74 32.0101 115.22 32.0801L114.14 32.7301C113.66 32.6701 113.21 32.7701 112.83 32.9901Z" fill="white"/>
</mask>
<g mask="url(#mask11_71_1325)">
<path d="M112.83 32.9901L113.91 32.3401C114.29 32.1101 114.74 32.0101 115.22 32.0801L114.14 32.7301C113.66 32.6701 113.21 32.7701 112.83 32.9901Z" fill="#8A8A8A"/>
</g>
<path d="M114.811 36.0099L115.901 35.3599L121.851 36.1299L120.761 36.7799L114.811 36.0099Z" fill="#8C8C8C"/>
<mask id="mask12_71_1325" style="mask-type:luminance" maskUnits="userSpaceOnUse" x="120" y="36" width="3" height="1">
<path d="M122.15 36.0703L121.07 36.7203C120.98 36.7703 120.88 36.7903 120.77 36.7803L121.85 36.1303C121.96 36.1403 122.07 36.1303 122.15 36.0703Z" fill="white"/>
</mask>
<g mask="url(#mask12_71_1325)">
<path d="M120.76 36.7803L121.84 36.1303C121.95 36.1403 122.06 36.1303 122.14 36.0703L121.06 36.7203C120.97 36.7703 120.87 36.7903 120.76 36.7803Z" fill="#8A8A8A"/>
</g>
<path d="M114.141 32.7301L115.231 32.0801L122.531 33.0201L121.451 33.6801L114.141 32.7301Z" fill="#8C8C8C"/>
<mask id="mask13_71_1325" style="mask-type:luminance" maskUnits="userSpaceOnUse" x="121" y="33" width="4" height="6">
<path d="M123.841 38.0803L122.761 38.7303C123.401 38.3403 123.841 37.5903 123.841 36.6503C123.841 35.1703 122.751 33.8503 121.461 33.6803L122.541 33.0303C123.841 33.2003 124.931 34.5203 124.921 36.0003C124.921 36.9403 124.481 37.7003 123.841 38.0803Z" fill="white"/>
</mask>
<g mask="url(#mask13_71_1325)">
<path d="M121.451 33.6803L122.531 33.0303C122.581 33.0303 122.631 33.0403 122.681 33.0503L121.601 33.7003C121.601 33.7003 121.501 33.6803 121.451 33.6803Z" fill="#8A8A8A"/>
<path d="M121.602 33.7003L122.682 33.0503C123.912 33.3003 124.922 34.5803 124.912 36.0003C124.912 36.9403 124.472 37.7003 123.832 38.0803L122.752 38.7303C123.392 38.3403 123.832 37.5903 123.832 36.6503C123.832 35.2303 122.822 33.9503 121.602 33.7003Z" fill="#858585"/>
</g>
<path d="M114.13 38.0499C112.81 37.8799 111.75 36.5799 111.75 35.0799C111.75 33.5799 112.81 32.5599 114.14 32.7299L121.44 33.6799C122.74 33.8499 123.83 35.1699 123.82 36.6499C123.81 38.1299 122.72 39.1699 121.43 38.9999L114.13 38.0499ZM114.81 34.8899C114.51 34.8499 114.27 35.0399 114.27 35.3799C114.27 35.6899 114.51 35.9699 114.81 36.0099L120.76 36.7799C121.06 36.8199 121.29 36.6099 121.29 36.2899C121.29 35.9599 121.06 35.6999 120.77 35.6699L114.82 34.8999" fill="#F7F7F7"/>
<mask id="mask14_71_1325" style="mask-type:luminance" maskUnits="userSpaceOnUse" x="125" y="39" width="3" height="2">
<path d="M127.371 39.3101L126.291 39.9601C126.071 40.0901 125.851 40.1801 125.611 40.2501L126.691 39.6001C126.921 39.5301 127.151 39.4401 127.371 39.3101Z" fill="white"/>
</mask>
<g mask="url(#mask14_71_1325)">
<path d="M125.611 40.2598L126.691 39.6098C126.921 39.5398 127.151 39.4498 127.371 39.3198L126.291 39.9698C126.071 40.0998 125.851 40.1898 125.611 40.2598Z" fill="#8A8A8A"/>
</g>
<path d="M126.412 43.5802L127.502 42.9302L130.242 43.2802L129.162 43.9302L126.412 43.5802Z" fill="#8C8C8C"/>
<path d="M129.16 43.9298L130.24 43.2798V45.6598L129.15 46.3098L129.16 43.9298Z" fill="#808080"/>
<mask id="mask15_71_1325" style="mask-type:luminance" maskUnits="userSpaceOnUse" x="127" y="39" width="4" height="4">
<path d="M128.541 41.4302L127.461 42.0802C128.081 41.7102 128.591 41.2202 128.961 40.6002L130.041 39.9502C129.671 40.5702 129.161 41.0602 128.541 41.4302Z" fill="white"/>
</mask>
<g mask="url(#mask15_71_1325)">
<path d="M128.951 40.6002L130.031 39.9502C129.661 40.5702 129.151 41.0602 128.531 41.4302L127.451 42.0802C128.071 41.7102 128.581 41.2202 128.951 40.6002Z" fill="#858585"/>
</g>
<path d="M132.301 41.1202L133.381 40.4702V43.0002L132.291 43.6502L132.301 41.1202Z" fill="#808080"/>
<mask id="mask16_71_1325" style="mask-type:luminance" maskUnits="userSpaceOnUse" x="130" y="35" width="4" height="7">
<path d="M130.112 36.5201L131.192 35.8701C131.162 38.5501 132.232 39.8501 133.382 40.4701L132.302 41.1201C131.162 40.5001 130.082 39.1901 130.112 36.5201Z" fill="white"/>
</mask>
<g mask="url(#mask16_71_1325)">
<path d="M130.112 36.5201L131.192 35.8701C131.162 38.5501 132.232 39.8501 133.382 40.4701L132.302 41.1201C131.162 40.5001 130.082 39.1901 130.112 36.5201Z" fill="#858585"/>
</g>
<path d="M127.811 34.65L128.901 34L131.201 34.3L130.121 34.95L127.811 34.65Z" fill="#8C8C8C"/>
<path d="M128.951 40.6001C128.251 41.7601 127.051 42.4801 125.611 42.7801V40.2501C126.761 39.9201 127.841 38.9001 127.811 36.2101V34.6401L130.121 34.9401V36.5101C130.091 39.1901 131.161 40.4901 132.301 41.1101V43.6401C130.861 42.9601 129.651 41.9401 128.951 40.5901V40.6001Z" fill="#F7F7F7"/>
<path d="M130.121 34.9498L131.201 34.2998V35.8698L130.111 36.5198L130.121 34.9498Z" fill="#808080"/>
<path d="M129.15 46.3101L138.53 47.5201V49.8001L126.4 48.2301L126.41 43.5801L129.16 43.9301L129.15 46.3101Z" fill="#F7F7F7"/>
<path d="M129.15 46.3102L130.24 45.6602L139.62 46.8702L138.53 47.5202L129.15 46.3102Z" fill="#8C8C8C"/>
<path d="M138.531 47.5201L139.621 46.8701L139.611 49.1501L138.531 49.8001V47.5201Z" fill="#808080"/>
<path d="M131.291 37.2498L132.371 36.5898L134.181 36.8298L133.091 37.4798L131.291 37.2498Z" fill="#8C8C8C"/>
<path d="M133.081 45.5L133.091 39.79L131.281 39.56L131.291 37.25L133.091 37.48L133.101 35.25L135.301 35.53L135.281 45.79L133.081 45.5Z" fill="#F7F7F7"/>
<path d="M133.102 35.2501L134.182 34.6001L136.392 34.8801L135.302 35.5301L133.102 35.2501Z" fill="#8C8C8C"/>
<path d="M135.301 35.5299L136.391 34.8799L136.371 45.1299L135.281 45.7899L135.301 35.5299Z" fill="#808080"/>
<path d="M138.341 35.9299L138.321 46.1799L136.061 45.8899L136.081 35.6299L138.341 35.9299Z" fill="#F7F7F7"/>
<path d="M138.342 35.9298L139.432 35.2798L139.412 45.5298L138.322 46.1798L138.342 35.9298Z" fill="#808080"/>
<path d="M136.082 35.63L137.172 34.98L139.432 35.28L138.342 35.93L136.082 35.63Z" fill="#8C8C8C"/>
<path d="M142.641 42.4601L143.721 41.8101L143.711 46.5801L142.631 47.2301L142.641 42.4601Z" fill="#808080"/>
<path d="M148.6 47.5501L149.68 46.8901V49.3401L148.59 49.9901L148.6 47.5501Z" fill="#808080"/>
<path d="M142.631 47.2301L143.711 46.5801L149.681 46.8901L148.601 47.5501L142.631 47.2301Z" fill="#8B8B8B"/>
<path d="M147.48 40.8502L148.57 40.2002L148.56 42.4402L147.48 43.0902V40.8502Z" fill="#808080"/>
<path d="M139.939 39.8697L141.019 39.2197L148.569 40.1997L147.479 40.8497L139.939 39.8697Z" fill="#8C8C8C"/>
<path d="M142.64 42.4601L142.63 47.2301L148.6 47.5501L148.59 49.9901L139.92 49.5001L139.94 39.8701L147.48 40.8501V43.0901L142.64 42.4601Z" fill="#F7F7F7"/>
<path d="M146.359 43.7398L147.439 43.0898L150.719 43.5098L149.639 44.1698L146.359 43.7398Z" fill="#8C8C8C"/>
<path d="M139.939 36.61L141.029 35.96L148.739 36.96L147.659 37.61L139.939 36.61Z" fill="#8C8C8C"/>
<path d="M147.659 37.6099L147.649 39.9099L139.939 38.9099V36.6099L147.659 37.6099Z" fill="#F7F7F7"/>
<path d="M147.66 37.61L148.74 36.96V39.26L147.65 39.91L147.66 37.61Z" fill="#808080"/>
<path d="M149.65 37.3901L152.33 37.7401L152.31 51.5901L149.62 51.2401L149.63 46.5401L146.35 46.1201L146.36 43.7401L149.64 44.1701L149.65 37.3901Z" fill="#F7F7F7"/>
<path d="M152.331 37.7398L153.421 37.0898L153.391 50.9298L152.311 51.5898L152.331 37.7398Z" fill="#808080"/>
<path d="M149.65 37.3897L150.73 36.7397L153.42 37.0897L152.33 37.7397L149.65 37.3897Z" fill="#8C8C8C"/>
</svg>
