<svg width="198" height="144" viewBox="0 0 198 144" fill="none" xmlns="http://www.w3.org/2000/svg">
<path d="M198 0H0V144H198V0Z" fill="#E8DFCE"/>
<path opacity="0.2" d="M169.451 104.803V107.263C169.331 108.053 168.831 108.793 167.931 109.113L101.201 134.313C96.2608 136.113 90.8408 136.113 85.8908 134.323L31.9508 113.653C30.5208 113.133 29.8008 111.863 29.8008 110.593V108.333L103.121 87.0635L169.451 104.803Z" fill="#40220F"/>
<path d="M169.451 104.034V106.494C169.331 107.284 168.831 108.024 167.931 108.344L101.201 133.544C96.2608 135.344 90.8408 135.344 85.8908 133.554L31.9508 112.894C30.5208 112.374 29.8008 111.104 29.8008 109.834V107.574L103.121 86.3037L169.451 104.044V104.034Z" fill="url(#paint0_linear_71_1331)"/>
<path d="M167.95 101.804L105.51 79.9337C103.75 79.2737 101.8 79.2837 100.05 79.9737L31.8599 104.664C29.0699 105.764 29.1299 109.734 31.9499 110.754L85.8899 131.414C90.8399 133.204 96.2599 133.204 101.2 131.404L167.93 106.204C169.98 105.464 170 102.564 167.96 101.804H167.95Z" fill="#373A3F"/>
<path d="M163.122 101.194L105.512 81.1537C103.862 80.5337 102.042 80.5437 100.412 81.1937L36.6517 104.134C34.0417 105.164 34.0917 108.874 36.7317 109.824L86.4017 128.944C91.0217 130.614 96.0917 130.614 100.712 128.934L163.092 105.314C165.012 104.624 165.022 101.914 163.122 101.194Z" fill="url(#paint1_linear_71_1331)"/>
<path d="M136.941 31.5933V96.7233C136.881 97.8433 135.931 98.2333 135.931 98.2333L124.051 102.433L124.391 35.1133C124.391 34.6833 124.651 34.2933 125.051 34.1233L136.621 29.9233C136.621 29.9233 137.011 30.3333 136.941 31.5833V31.5933Z" fill="url(#paint2_linear_71_1331)"/>
<path d="M136.622 29.9338C136.622 29.9338 136.192 29.6238 135.452 29.3738L125.062 25.4938C125.062 25.4938 123.472 25.1438 122.232 25.7038L112.012 29.4638L124.402 35.1238L136.632 29.9338H136.622Z" fill="url(#paint3_linear_71_1331)"/>
<path d="M112.011 29.4634C112.011 29.4634 111.231 29.9134 111.231 31.2034V96.2234C111.231 96.2234 111.011 97.9034 112.461 98.3534L123.501 102.443C123.501 102.443 124.901 102.833 124.731 101.103V35.4934C124.731 35.4934 124.791 34.3734 123.331 33.8734L112.011 29.4634Z" fill="url(#paint4_linear_71_1331)"/>
<path d="M114.201 58.3036V105.504C114.141 106.624 113.191 107.014 113.191 107.014L101.521 111.144L101.651 62.4636C101.651 62.0336 101.911 61.6436 102.311 61.4736L113.881 56.6436C113.881 56.6436 114.271 57.0536 114.201 58.3036Z" fill="url(#paint5_linear_71_1331)"/>
<path d="M113.891 56.6237C113.891 56.6237 113.461 56.3137 112.721 56.0637L102.331 52.1837C102.331 52.1837 100.741 51.8337 99.5013 52.3937L89.2812 56.1537L101.671 62.4437L113.901 56.6237H113.891Z" fill="url(#paint6_linear_71_1331)"/>
<path d="M89.2704 56.1733C89.2704 56.1733 88.4904 56.6233 88.4904 57.9133V105.003C88.4904 105.003 88.2704 106.683 89.7204 107.133L100.76 111.223C100.76 111.223 102.16 111.613 101.99 109.883V62.8433C101.99 62.8433 102.05 61.7233 100.59 61.2233L89.2704 56.1833V56.1733Z" fill="url(#paint7_linear_71_1331)"/>
<path d="M91.241 87.0037V114.294C91.181 115.414 90.231 115.804 90.231 115.804L78.291 120.024L78.691 91.1637C78.691 90.7337 78.951 90.3437 79.351 90.1737L90.921 85.3438C90.921 85.3438 91.311 85.7537 91.241 87.0037Z" fill="url(#paint8_linear_71_1331)"/>
<path d="M90.9108 85.3434C90.9108 85.3434 90.4808 85.0334 89.7408 84.7834L79.3508 80.9034C79.3508 80.9034 77.7608 80.5534 76.5208 81.1134L66.3008 84.8734L78.6908 91.1634L90.9208 85.3434H90.9108Z" fill="url(#paint9_linear_71_1331)"/>
<path d="M66.2997 84.8735C66.2997 84.8735 65.5197 85.3235 65.5197 86.6135V113.784C65.5197 113.784 65.2997 115.464 66.7497 115.914L77.7897 120.004C77.7897 120.004 79.1897 120.394 79.0197 118.664V91.5435C79.0197 91.5435 79.0797 90.4235 77.6197 89.9235L66.2997 84.8835V84.8735Z" fill="url(#paint10_linear_71_1331)"/>
<path d="M78.3203 129.354V129.964L82.6703 131.624V131.054L78.3203 129.354Z" fill="#373A3F"/>
<path d="M132 3.23719C132 3.23719 131.734 2.44386 131.005 2.99407L127.163 6.13541C127.163 6.13541 126.281 6.7368 127.372 7.26142C127.372 7.26142 127.733 7.3382 127.448 7.914L124.57 15.1691C124.57 15.1691 123.923 16.244 123.219 16.1096L121.641 14.523C121.641 14.523 120.417 13.8064 119.529 13.672C119.529 13.672 117.444 13.3138 115.662 16.6214L113.031 22.8721C112.949 23.0513 113.037 23.2688 113.221 23.3328L114.476 23.7998L116.125 21.9508L118.591 15.8473L120.981 16.0328L123.733 18.6496L127.34 16.5511L132 3.23719Z" fill="url(#paint11_linear_71_1331)"/>
<path d="M131.183 2.88697L127.856 6.65643C127.684 6.85352 127.754 7.15533 127.996 7.26003L128.678 7.55568L125.836 14.5341C125.836 14.5341 124.95 16.7514 123.516 15.9692C123.516 15.9692 122.968 15.7906 121.82 14.4356C121.82 14.4356 120.437 12.5693 118.328 14.3124C118.328 14.3124 115.568 16.8315 114 22.7998L116.097 22.0915C116.186 22.0607 116.256 21.9929 116.288 21.9006C116.505 21.2292 117.474 18.3405 118.277 17.4289C118.277 17.4289 119.449 15.7413 120.724 17.275C120.724 17.275 122.419 20.0959 125.026 18.8394C125.026 18.8394 126.926 18.359 127.843 15.9446L130.788 8.28863L131.515 8.49188C131.77 8.56579 132.018 8.3687 131.999 8.11001L131.617 3.02248C131.597 2.8069 131.323 2.72067 131.183 2.88697Z" fill="url(#paint12_linear_71_1331)"/>
<path d="M131.183 2.89133L127.856 6.84926C127.684 7.05621 127.754 7.3731 127.996 7.48305L128.678 7.79347L125.836 15.1208C125.836 15.1208 124.95 17.449 123.516 16.6277C123.516 16.6277 122.968 16.4401 121.82 15.0173C121.82 15.0173 120.437 13.0578 118.328 14.888C118.328 14.888 115.568 17.5331 114 23.7998L116.097 23.0561C116.186 23.0237 116.256 22.9526 116.288 22.8556C116.505 22.1507 117.474 19.1176 118.277 18.1604C118.277 18.1604 119.449 16.3884 120.724 17.9987C120.724 17.9987 122.419 20.9607 125.026 19.6414C125.026 19.6414 126.926 19.137 127.843 16.6018L130.788 8.56307L131.515 8.77649C131.77 8.85409 132.018 8.64714 131.999 8.37552L131.617 3.03361C131.597 2.80726 131.323 2.71672 131.183 2.89133Z" fill="url(#paint13_linear_71_1331)"/>
<defs>
<linearGradient id="paint0_linear_71_1331" x1="76.5408" y1="112.594" x2="167.951" y2="104.394" gradientUnits="userSpaceOnUse">
<stop offset="0.09" stop-color="#B5B5B6"/>
<stop offset="0.26" stop-color="#F7F8F8"/>
<stop offset="0.38" stop-color="#E8E9E9"/>
<stop offset="0.46" stop-color="#DCDDDD"/>
<stop offset="0.66" stop-color="#DCDDDD"/>
<stop offset="0.76" stop-color="#EAEBEB"/>
<stop offset="0.83" stop-color="#F7F8F8"/>
<stop offset="0.87" stop-color="#E9E9EA"/>
<stop offset="0.93" stop-color="#C4C4C5"/>
<stop offset="0.96" stop-color="#B5B5B6"/>
</linearGradient>
<linearGradient id="paint1_linear_71_1331" x1="98.7517" y1="75.8237" x2="100.362" y2="128.964" gradientUnits="userSpaceOnUse">
<stop offset="0.18" stop-color="#DCDDDD"/>
<stop offset="0.7" stop-color="#F7F3F1"/>
</linearGradient>
<linearGradient id="paint2_linear_71_1331" x1="141.401" y1="66.1833" x2="118.821" y2="66.1833" gradientUnits="userSpaceOnUse">
<stop offset="0.67" stop-color="#E14E77"/>
<stop offset="0.7" stop-color="#E55985"/>
<stop offset="0.77" stop-color="#F278AA"/>
<stop offset="0.82" stop-color="#FE96CD"/>
</linearGradient>
<linearGradient id="paint3_linear_71_1331" x1="126.462" y1="25.3238" x2="121.612" y2="35.1938" gradientUnits="userSpaceOnUse">
<stop offset="0.42" stop-color="#F55886"/>
<stop offset="0.55" stop-color="#F55A89"/>
<stop offset="0.66" stop-color="#F66393"/>
<stop offset="0.75" stop-color="#F872A3"/>
<stop offset="0.84" stop-color="#FB86BB"/>
<stop offset="0.89" stop-color="#FE96CD"/>
</linearGradient>
<linearGradient id="paint4_linear_71_1331" x1="128.311" y1="42.1634" x2="130.301" y2="37.5434" gradientUnits="userSpaceOnUse">
<stop offset="0.43" stop-color="#F55886"/>
<stop offset="0.55" stop-color="#F66494"/>
<stop offset="0.78" stop-color="#FB84B9"/>
<stop offset="0.89" stop-color="#FE96CD"/>
</linearGradient>
<linearGradient id="paint5_linear_71_1331" x1="118.591" y1="83.8936" x2="96.3815" y2="83.8936" gradientUnits="userSpaceOnUse">
<stop offset="0.42" stop-color="#F8BD2E"/>
<stop offset="0.53" stop-color="#F8BE31"/>
<stop offset="0.61" stop-color="#F8C33B"/>
<stop offset="0.69" stop-color="#F9CA4B"/>
<stop offset="0.76" stop-color="#FBD563"/>
<stop offset="0.83" stop-color="#FDE381"/>
<stop offset="0.89" stop-color="#FFF3A3"/>
</linearGradient>
<linearGradient id="paint6_linear_71_1331" x1="103.731" y1="52.0137" x2="98.7912" y2="62.0537" gradientUnits="userSpaceOnUse">
<stop offset="0.42" stop-color="#FFD637"/>
<stop offset="0.53" stop-color="#FFD63A"/>
<stop offset="0.62" stop-color="#FFD944"/>
<stop offset="0.7" stop-color="#FFDE54"/>
<stop offset="0.77" stop-color="#FFE46C"/>
<stop offset="0.85" stop-color="#FFEC8A"/>
<stop offset="0.89" stop-color="#FFF3A3"/>
</linearGradient>
<linearGradient id="paint7_linear_71_1331" x1="102.96" y1="66.9633" x2="104.48" y2="63.6033" gradientUnits="userSpaceOnUse">
<stop offset="0.42" stop-color="#FFD637"/>
<stop offset="0.53" stop-color="#FFD63A"/>
<stop offset="0.62" stop-color="#FFD944"/>
<stop offset="0.7" stop-color="#FFDE54"/>
<stop offset="0.77" stop-color="#FFE46C"/>
<stop offset="0.85" stop-color="#FFEC8A"/>
<stop offset="0.89" stop-color="#FFF3A3"/>
</linearGradient>
<linearGradient id="paint8_linear_71_1331" x1="95.721" y1="102.684" x2="73.021" y2="102.684" gradientUnits="userSpaceOnUse">
<stop offset="0.67" stop-color="#53C2A8"/>
<stop offset="0.72" stop-color="#57D0B0"/>
<stop offset="0.8" stop-color="#64F5C8"/>
<stop offset="0.82" stop-color="#67FCCD"/>
</linearGradient>
<linearGradient id="paint9_linear_71_1331" x1="80.7608" y1="80.7434" x2="75.8208" y2="90.7734" gradientUnits="userSpaceOnUse">
<stop offset="0.42" stop-color="#67E0B4"/>
<stop offset="0.55" stop-color="#6AE1B5"/>
<stop offset="0.65" stop-color="#74E5BA"/>
<stop offset="0.75" stop-color="#84ECC3"/>
<stop offset="0.84" stop-color="#9CF6CF"/>
<stop offset="0.89" stop-color="#B0FFD9"/>
</linearGradient>
<linearGradient id="paint10_linear_71_1331" x1="76.9297" y1="92.4435" x2="77.8597" y2="90.3935" gradientUnits="userSpaceOnUse">
<stop offset="0.43" stop-color="#67E0B4"/>
<stop offset="0.55" stop-color="#75E5BB"/>
<stop offset="0.77" stop-color="#9AF5CD"/>
<stop offset="0.89" stop-color="#B0FFD9"/>
</linearGradient>
<linearGradient id="paint11_linear_71_1331" x1="125.445" y1="6.27616" x2="125.097" y2="7.13768" gradientUnits="userSpaceOnUse">
<stop stop-color="#F55886"/>
<stop offset="0.17" stop-color="#E34B74"/>
<stop offset="0.32" stop-color="#D9446A"/>
<stop offset="0.58" stop-color="#DD476E"/>
<stop offset="0.85" stop-color="#EA507B"/>
<stop offset="1" stop-color="#F55886"/>
</linearGradient>
<linearGradient id="paint12_linear_71_1331" x1="125.81" y1="17.8355" x2="121.699" y2="10.562" gradientUnits="userSpaceOnUse">
<stop offset="0.19" stop-color="#F55886"/>
<stop offset="0.37" stop-color="#F66494"/>
<stop offset="0.73" stop-color="#FB84B9"/>
<stop offset="0.89" stop-color="#FE96CD"/>
</linearGradient>
<linearGradient id="paint13_linear_71_1331" x1="121.871" y1="12.1653" x2="119.867" y2="9.67156" gradientUnits="userSpaceOnUse">
<stop offset="0.19" stop-color="#F55886"/>
<stop offset="0.37" stop-color="#F66494"/>
<stop offset="0.73" stop-color="#FB84B9"/>
<stop offset="0.89" stop-color="#FE96CD"/>
</linearGradient>
</defs>
</svg>
