<svg width="199" height="145" viewBox="0 0 199 145" fill="none" xmlns="http://www.w3.org/2000/svg">
<path d="M198.2 0.199951H0.200195V144.2H198.2V0.199951Z" fill="#E8DFCE"/>
<path d="M158.436 37.4726C158.436 37.4726 158.256 38.2626 156.516 38.1526L148.286 38.5326L149.196 33.9026L152.536 25.8226L155.006 25.1426L156.826 26.6226L158.446 37.4826L158.436 37.4726Z" fill="url(#paint0_linear_53_534)"/>
<path d="M87.6252 28.1825C87.6252 28.1825 83.5252 29.5025 82.8652 34.1325L66.6152 99.2625L125.275 116.702C125.275 116.702 131.225 118.422 133.465 104.282L148.595 31.4225C148.595 31.4225 150.515 21.6425 156.195 24.8125C156.195 24.8125 155.535 23.6925 152.235 24.0825L87.6352 28.1825H87.6252Z" fill="url(#paint1_linear_53_534)"/>
<path d="M124.656 118.962L57.6756 112.252C57.6756 112.252 51.5556 111.202 52.7156 99.6724C52.8556 98.2424 54.1656 97.1824 55.6456 97.2624L119.416 100.832C120.936 100.922 122.106 102.172 122.036 103.652C121.866 107.202 122.036 113.372 124.856 116.112C124.856 116.112 129.286 118.962 132.386 108.902L148.546 30.7624C148.546 30.7624 151.026 21.3524 156.186 24.8124C156.186 24.8124 159.976 27.8424 158.426 37.4724C158.426 37.4724 157.136 38.1624 156.876 36.6124C156.876 36.6124 158.506 26.6424 154.296 25.9524C154.296 25.9524 151.206 26.1224 149.656 35.0624L133.926 109.852C133.926 109.852 131.686 119.562 124.646 118.962H124.656Z" fill="white"/>
<path d="M117.336 101.952C118.816 102.042 119.946 103.292 119.876 104.772C119.636 109.942 120.086 120.642 128.166 118.272C128.166 118.272 127.646 119.562 123.266 118.872L57.4159 113.372C57.4159 113.372 51.4758 112.322 52.6058 100.792C52.7458 99.3624 54.0159 98.3024 55.4559 98.3824L117.336 101.952Z" fill="url(#paint2_linear_53_534)"/>
<path d="M91.1152 57.7524L125.925 58.2724" stroke="url(#paint3_linear_53_534)" stroke-width="2.2" stroke-linecap="round" stroke-linejoin="round"/>
<path d="M88.2461 69.2224L122.226 70.3624" stroke="url(#paint4_linear_53_534)" stroke-width="2.2" stroke-linecap="round" stroke-linejoin="round"/>
<path d="M85.1465 81.8025L119.606 83.4325" stroke="url(#paint5_linear_53_534)" stroke-width="2.2" stroke-linecap="round" stroke-linejoin="round"/>
<path d="M119.796 41.2323C119.986 40.8723 120.286 40.6123 120.696 40.4423C121.096 40.2823 121.516 40.2123 121.956 40.2323C122.356 40.2523 122.746 40.3623 123.106 40.5623C123.466 40.7623 123.706 41.0423 123.826 41.4123L127.126 51.1523L123.616 50.9923L123.146 49.3323L119.046 49.1523L118.296 50.7623L114.846 50.6023L119.816 41.2323H119.796ZM120.096 46.9823L122.536 47.0223L121.516 43.7223L120.086 46.9923L120.096 46.9823Z" fill="white"/>
<path d="M75.2353 69.5825C75.2353 69.5825 76.2853 70.5225 76.8753 71.7725L80.8053 83.0025L77.7753 85.5725C77.7753 85.5725 66.8653 79.7925 66.6153 79.5125L64.6953 76.6325L68.0953 71.0925L75.2353 69.5625V69.5825Z" fill="url(#paint6_linear_53_534)"/>
<path d="M57.1362 47.9925L75.2362 69.5825C75.2362 69.5825 74.4062 69.7625 74.8562 71.3925C74.8562 71.3925 75.2462 73.3925 72.2962 72.7625C72.2962 72.7625 70.7562 71.8525 69.6362 72.4825L50.8262 50.0725C50.8262 50.0725 56.0762 46.9225 57.1362 47.9925Z" fill="url(#paint7_linear_53_534)"/>
<path d="M47.2659 56.4226L66.6159 79.5226L67.5159 79.6526C67.5159 79.6526 65.1759 77.4826 66.1259 76.8326C66.1259 76.8326 66.6659 76.4526 68.1759 77.2326C68.1759 77.2326 70.4559 77.2626 69.7659 74.8126C69.7659 74.8126 69.1359 73.1126 69.6559 72.4826L51.0159 50.1226C51.0159 50.1226 46.8059 53.8026 47.2759 56.4226H47.2659Z" fill="#7F22B1"/>
<path d="M80.2758 81.5225C80.2758 81.5225 80.6358 82.5525 80.2558 82.7725C80.2558 82.7725 80.0358 82.9025 79.4858 82.5525C79.4858 82.5525 78.6158 82.4725 78.8058 83.4225C78.8058 83.4225 78.9958 84.0925 78.7758 84.3125C78.3258 84.5225 77.7658 84.1225 77.7658 84.1225C76.6558 83.7925 76.7458 84.5625 76.7458 84.5625C77.0658 85.0925 76.6758 85.0025 76.6758 85.0025C76.6958 85.0025 82.1758 88.1425 82.1758 88.1425C82.1758 88.1425 82.6958 88.1425 82.5658 87.7325L80.2758 81.5125V81.5225Z" fill="url(#paint8_linear_53_534)"/>
<path d="M41.4457 42.2325C41.4457 42.2325 42.3857 41.2825 43.2857 40.6525C44.1057 40.0025 45.1257 39.4225 45.1257 39.4225C49.4357 36.6625 52.9757 42.6725 52.9757 42.6725L47.2657 46.0725L42.5157 50.6525C42.5157 50.6525 37.6557 45.6525 41.4457 42.2225V42.2325Z" fill="url(#paint9_radial_53_534)"/>
<path d="M57.1359 47.9925C57.1359 47.9925 53.8259 48.0125 50.4159 51.2425C50.4159 51.2425 46.7459 54.6925 47.2659 56.4225L46.3259 55.0125C46.3259 55.0125 44.7359 54.8225 44.4459 52.6325C44.4459 52.6325 42.6159 52.8525 42.5059 50.6525C42.5059 50.6525 42.9459 48.0825 46.6559 45.3325C46.6559 45.3325 51.7359 41.6625 53.2759 42.7225C53.2759 42.7225 54.4059 43.1925 54.1459 44.3725C54.1459 44.3725 55.8259 44.4425 56.0159 46.3925C56.0159 46.3925 57.3159 47.6925 57.1359 47.9925Z" fill="url(#paint10_linear_53_534)"/>
<path d="M44.4857 52.7725C44.4857 52.7725 44.5557 52.7325 44.5757 52.6925C46.8457 46.1725 54.1057 44.5325 54.1757 44.5225C54.2457 44.5025 54.2957 44.4325 54.2757 44.3625C54.2557 44.2925 54.1857 44.2425 54.1157 44.2625C54.0457 44.2825 46.6357 45.9425 44.3157 52.6125C44.2957 52.6825 44.3257 52.7625 44.3957 52.7825C44.4257 52.7925 44.4557 52.7825 44.4857 52.7825V52.7725Z" fill="url(#paint11_linear_53_534)"/>
<path d="M46.2657 55.1425C46.2657 55.1425 46.3357 55.0925 46.3557 55.0525C48.3757 48.2525 55.9757 46.5625 56.0557 46.5525C56.1357 46.5525 56.1757 46.4625 56.1657 46.3925C56.1457 46.3225 56.0757 46.2725 56.0057 46.2925C55.9257 46.3125 48.1757 48.0325 46.1057 54.9825C46.0857 55.0525 46.1257 55.1325 46.1957 55.1525C46.2257 55.1525 46.2557 55.1525 46.2757 55.1525L46.2657 55.1425Z" fill="url(#paint12_linear_53_534)"/>
<defs>
<linearGradient id="paint0_linear_53_534" x1="153.096" y1="41.7626" x2="153.976" y2="28.9526" gradientUnits="userSpaceOnUse">
<stop offset="0.49" stop-color="#5D85E2"/>
<stop offset="0.73" stop-color="#6690E0"/>
<stop offset="1" stop-color="#6D97DF"/>
</linearGradient>
<linearGradient id="paint1_linear_53_534" x1="109.195" y1="26.4825" x2="114.425" y2="110.572" gradientUnits="userSpaceOnUse">
<stop offset="0.04" stop-color="#B6D3FF"/>
<stop offset="0.05" stop-color="#B4D1FE"/>
<stop offset="0.14" stop-color="#A2C2F8"/>
<stop offset="0.24" stop-color="#94B8F4"/>
<stop offset="0.37" stop-color="#8DB1F2"/>
<stop offset="0.63" stop-color="#8BB0F2"/>
<stop offset="0.66" stop-color="#87ACEF"/>
<stop offset="0.86" stop-color="#739CE3"/>
<stop offset="1" stop-color="#6D97DF"/>
</linearGradient>
<linearGradient id="paint2_linear_53_534" x1="89.6558" y1="120.682" x2="90.7258" y2="104.382" gradientUnits="userSpaceOnUse">
<stop offset="0.49" stop-color="#5D85E2"/>
<stop offset="0.73" stop-color="#6690E0"/>
<stop offset="1" stop-color="#6D97DF"/>
</linearGradient>
<linearGradient id="paint3_linear_53_534" x1="108.305" y1="60.4224" x2="108.735" y2="55.6124" gradientUnits="userSpaceOnUse">
<stop offset="0.38" stop-color="#D0D3E1"/>
<stop offset="0.4" stop-color="#D4D7E3"/>
<stop offset="0.52" stop-color="#F3F4F7"/>
<stop offset="0.59" stop-color="white"/>
</linearGradient>
<linearGradient id="paint4_linear_53_534" x1="105.046" y1="71.8524" x2="105.426" y2="67.7324" gradientUnits="userSpaceOnUse">
<stop offset="0.38" stop-color="#D0D3E1"/>
<stop offset="0.4" stop-color="#D4D7E3"/>
<stop offset="0.52" stop-color="#F3F4F7"/>
<stop offset="0.59" stop-color="white"/>
</linearGradient>
<linearGradient id="paint5_linear_53_534" x1="102.216" y1="84.4525" x2="102.546" y2="80.7725" gradientUnits="userSpaceOnUse">
<stop offset="0.38" stop-color="#D0D3E1"/>
<stop offset="0.4" stop-color="#D4D7E3"/>
<stop offset="0.52" stop-color="#F3F4F7"/>
<stop offset="0.59" stop-color="white"/>
</linearGradient>
<linearGradient id="paint6_linear_53_534" x1="77.3147" y1="73.8653" x2="71.1882" y2="80.7067" gradientUnits="userSpaceOnUse">
<stop offset="0.18" stop-color="#ECBA7B"/>
<stop offset="0.36" stop-color="#E8B173"/>
<stop offset="0.63" stop-color="#DD9B5E"/>
<stop offset="0.92" stop-color="#CE7D42"/>
</linearGradient>
<linearGradient id="paint7_linear_53_534" x1="66.1897" y1="58.348" x2="64.715" y2="59.5921" gradientUnits="userSpaceOnUse">
<stop offset="0.31" stop-color="#DEAAF8"/>
<stop offset="0.72" stop-color="#A564E5"/>
</linearGradient>
<linearGradient id="paint8_linear_53_534" x1="81.4622" y1="84.6597" x2="79.9876" y2="85.8721" gradientUnits="userSpaceOnUse">
<stop offset="0.09" stop-color="#231815"/>
<stop offset="0.21" stop-color="#2A201E"/>
<stop offset="0.41" stop-color="#3F3937"/>
<stop offset="0.61" stop-color="#595757"/>
<stop offset="0.69" stop-color="#514E4D"/>
<stop offset="0.82" stop-color="#3D3635"/>
<stop offset="0.95" stop-color="#231815"/>
</linearGradient>
<radialGradient id="paint9_radial_53_534" cx="0" cy="0" r="1" gradientUnits="userSpaceOnUse" gradientTransform="translate(45.9135 43.2139) rotate(161.76) scale(8)">
<stop offset="0.26" stop-color="#F2ECE7"/>
<stop offset="0.53" stop-color="#EBE2D8"/>
<stop offset="0.66" stop-color="#E8DCD0"/>
</radialGradient>
<linearGradient id="paint10_linear_53_534" x1="53.9057" y1="44.7811" x2="44.8239" y2="53.0702" gradientUnits="userSpaceOnUse">
<stop offset="0.08" stop-color="#B5B5B6"/>
<stop offset="0.16" stop-color="#C0C0BE"/>
<stop offset="0.29" stop-color="#CCCBC6"/>
<stop offset="0.43" stop-color="#D0CFC9"/>
<stop offset="0.53" stop-color="#C9C8C3"/>
<stop offset="0.66" stop-color="#B6B6B2"/>
<stop offset="0.82" stop-color="#989897"/>
<stop offset="0.88" stop-color="#898989"/>
</linearGradient>
<linearGradient id="paint11_linear_53_534" x1="55.0251" y1="46.6127" x2="43.5616" y2="50.3906" gradientUnits="userSpaceOnUse">
<stop offset="0.08" stop-color="#B5B5B6"/>
<stop offset="0.09" stop-color="#B9B9BA"/>
<stop offset="0.17" stop-color="#D4D5D5"/>
<stop offset="0.26" stop-color="#E7E8E8"/>
<stop offset="0.34" stop-color="#F3F4F4"/>
<stop offset="0.43" stop-color="#F7F8F8"/>
<stop offset="0.5" stop-color="#F0F1F1"/>
<stop offset="0.6" stop-color="#DEDEDE"/>
<stop offset="0.72" stop-color="#BFC0C0"/>
<stop offset="0.85" stop-color="#969696"/>
<stop offset="0.88" stop-color="#898989"/>
</linearGradient>
<linearGradient id="paint12_linear_53_534" x1="56.9436" y1="48.7918" x2="45.2901" y2="52.6323" gradientUnits="userSpaceOnUse">
<stop offset="0.08" stop-color="#B5B5B6"/>
<stop offset="0.09" stop-color="#B9B9BA"/>
<stop offset="0.17" stop-color="#D4D5D5"/>
<stop offset="0.26" stop-color="#E7E8E8"/>
<stop offset="0.34" stop-color="#F3F4F4"/>
<stop offset="0.43" stop-color="#F7F8F8"/>
<stop offset="0.5" stop-color="#F0F1F1"/>
<stop offset="0.6" stop-color="#DEDEDE"/>
<stop offset="0.72" stop-color="#BFC0C0"/>
<stop offset="0.85" stop-color="#969696"/>
<stop offset="0.88" stop-color="#898989"/>
</linearGradient>
</defs>
</svg>
