<svg width="198" height="145" viewBox="0 0 198 145" fill="none" xmlns="http://www.w3.org/2000/svg">
<path d="M198 0.100098H0V144.1H198V0.100098Z" fill="#E8DFCE"/>
<path d="M158.236 38.3725C158.236 38.3725 158.056 39.1625 156.316 39.0525L148.086 39.4325L148.996 34.8025L152.336 26.7225L154.806 26.0425L156.626 27.5225L158.246 38.3825L158.236 38.3725Z" fill="url(#paint0_linear_71_1321)"/>
<path d="M87.426 29.0824C87.426 29.0824 83.326 30.4024 82.666 35.0324L66.416 100.162L125.076 117.602C125.076 117.602 131.026 119.322 133.266 105.182L148.396 32.3224C148.396 32.3224 150.316 22.5424 155.996 25.7124C155.996 25.7124 155.336 24.5924 152.036 24.9824L87.436 29.0824H87.426Z" fill="url(#paint1_linear_71_1321)"/>
<path d="M124.457 119.863L57.4774 113.153C57.4774 113.153 51.3574 112.103 52.5174 100.573C52.6574 99.1425 53.9674 98.0825 55.4474 98.1625L119.217 101.733C120.737 101.823 121.907 103.073 121.837 104.553C121.667 108.103 121.837 114.273 124.657 117.013C124.657 117.013 129.087 119.863 132.187 109.803L148.347 31.6625C148.347 31.6625 150.827 22.2525 155.987 25.7125C155.987 25.7125 159.777 28.7425 158.227 38.3725C158.227 38.3725 156.937 39.0625 156.677 37.5125C156.677 37.5125 158.307 27.5425 154.097 26.8525C154.097 26.8525 151.007 27.0225 149.457 35.9625L133.727 110.753C133.727 110.753 131.487 120.463 124.447 119.863H124.457Z" fill="white"/>
<path d="M117.146 102.852C118.626 102.942 119.756 104.192 119.686 105.672C119.446 110.842 119.896 121.542 127.976 119.172C127.976 119.172 127.456 120.462 123.076 119.772L57.2264 114.272C57.2264 114.272 51.2864 113.222 52.4164 101.692C52.5564 100.262 53.8264 99.2021 55.2664 99.2821L117.146 102.852Z" fill="url(#paint2_linear_71_1321)"/>
<path d="M90.916 58.6523L125.726 59.1723" stroke="url(#paint3_linear_71_1321)" stroke-width="2.2" stroke-linecap="round" stroke-linejoin="round"/>
<path d="M88.0469 70.1226L122.027 71.2626" stroke="url(#paint4_linear_71_1321)" stroke-width="2.2" stroke-linecap="round" stroke-linejoin="round"/>
<path d="M84.9473 82.7021L119.417 84.3321" stroke="url(#paint5_linear_71_1321)" stroke-width="2.2" stroke-linecap="round" stroke-linejoin="round"/>
<path d="M115.297 49.1821C118.177 48.5521 119.717 46.5921 119.837 42.8921L115.587 42.7421L115.657 40.8021L122.077 41.0221L122.017 42.6521C121.837 47.9221 119.347 50.7121 115.227 51.2521L115.297 49.1821ZM122.897 51.7821L123.287 40.6821L125.567 40.7621L125.427 44.8821L126.987 44.9321L126.917 46.9821L125.357 46.9321L125.187 51.8621L122.907 51.7821H122.897Z" fill="white"/>
<path d="M75.0361 70.4824C75.0361 70.4824 76.0861 71.4224 76.6761 72.6724L80.6061 83.9024L77.5761 86.4724C77.5761 86.4724 66.6661 80.6924 66.4161 80.4124L64.4961 77.5324L67.8961 71.9924L75.0361 70.4624V70.4824Z" fill="url(#paint6_linear_71_1321)"/>
<path d="M56.937 48.8922L75.037 70.4822C75.037 70.4822 74.207 70.6622 74.657 72.2922C74.657 72.2922 75.047 74.2922 72.097 73.6622C72.097 73.6622 70.557 72.7522 69.437 73.3822L50.627 50.9722C50.627 50.9722 55.877 47.8222 56.937 48.8922Z" fill="url(#paint7_linear_71_1321)"/>
<path d="M47.0657 57.3225L66.4157 80.4225L67.3157 80.5525C67.3157 80.5525 64.9757 78.3825 65.9257 77.7325C65.9257 77.7325 66.4657 77.3525 67.9757 78.1325C67.9757 78.1325 70.2557 78.1625 69.5657 75.7125C69.5657 75.7125 68.9357 74.0125 69.4557 73.3825L50.8157 51.0225C50.8157 51.0225 46.6057 54.7025 47.0757 57.3225H47.0657Z" fill="#7F22B1"/>
<path d="M80.0766 82.4226C80.0766 82.4226 80.4366 83.4526 80.0566 83.6726C80.0566 83.6726 79.8366 83.8026 79.2866 83.4526C79.2866 83.4526 78.4166 83.3726 78.6066 84.3226C78.6066 84.3226 78.7966 84.9926 78.5766 85.2126C78.1266 85.4226 77.5666 85.0226 77.5666 85.0226C76.4566 84.6926 76.5466 85.4626 76.5466 85.4626C76.8666 85.9926 76.4766 85.9026 76.4766 85.9026C76.4966 85.9026 81.9766 89.0426 81.9766 89.0426C81.9766 89.0426 82.4966 89.0426 82.3666 88.6326L80.0766 82.4126V82.4226Z" fill="url(#paint8_linear_71_1321)"/>
<path d="M41.2465 43.1321C41.2465 43.1321 42.1865 42.1821 43.0865 41.5521C43.9065 40.9021 44.9265 40.3221 44.9265 40.3221C49.2365 37.5621 52.7765 43.5721 52.7765 43.5721L47.0665 46.9721L42.3165 51.5521C42.3165 51.5521 37.4565 46.5521 41.2465 43.1221V43.1321Z" fill="url(#paint9_radial_71_1321)"/>
<path d="M56.9366 48.8924C56.9366 48.8924 53.6266 48.9124 50.2166 52.1424C50.2166 52.1424 46.5466 55.5924 47.0666 57.3224L46.1266 55.9124C46.1266 55.9124 44.5366 55.7224 44.2466 53.5324C44.2466 53.5324 42.4166 53.7524 42.3066 51.5524C42.3066 51.5524 42.7466 48.9824 46.4566 46.2324C46.4566 46.2324 51.5366 42.5624 53.0766 43.6224C53.0766 43.6224 54.2066 44.0924 53.9466 45.2724C53.9466 45.2724 55.6266 45.3424 55.8166 47.2924C55.8166 47.2924 57.1166 48.5924 56.9366 48.8924Z" fill="url(#paint10_linear_71_1321)"/>
<path d="M44.2874 53.6722C44.2874 53.6722 44.3574 53.6322 44.3774 53.5922C46.6474 47.0722 53.9074 45.4322 53.9774 45.4222C54.0474 45.4022 54.0974 45.3322 54.0774 45.2622C54.0574 45.1922 53.9874 45.1422 53.9174 45.1622C53.8474 45.1822 46.4374 46.8422 44.1174 53.5122C44.0974 53.5822 44.1274 53.6622 44.1974 53.6822C44.2274 53.6922 44.2574 53.6822 44.2874 53.6822V53.6722Z" fill="url(#paint11_linear_71_1321)"/>
<path d="M46.0655 56.0424C46.0655 56.0424 46.1355 55.9924 46.1555 55.9524C48.1755 49.1524 55.7755 47.4624 55.8555 47.4524C55.9355 47.4524 55.9755 47.3624 55.9655 47.2924C55.9455 47.2224 55.8755 47.1724 55.8055 47.1924C55.7255 47.2124 47.9755 48.9324 45.9055 55.8824C45.8855 55.9524 45.9255 56.0324 45.9955 56.0524C46.0255 56.0524 46.0555 56.0524 46.0755 56.0524L46.0655 56.0424Z" fill="url(#paint12_linear_71_1321)"/>
<defs>
<linearGradient id="paint0_linear_71_1321" x1="152.896" y1="42.6625" x2="153.776" y2="29.8525" gradientUnits="userSpaceOnUse">
<stop offset="0.49" stop-color="#5D85E2"/>
<stop offset="0.73" stop-color="#6690E0"/>
<stop offset="1" stop-color="#6D97DF"/>
</linearGradient>
<linearGradient id="paint1_linear_71_1321" x1="108.996" y1="27.3824" x2="114.226" y2="111.472" gradientUnits="userSpaceOnUse">
<stop offset="0.04" stop-color="#B6D3FF"/>
<stop offset="0.05" stop-color="#B4D1FE"/>
<stop offset="0.14" stop-color="#A2C2F8"/>
<stop offset="0.24" stop-color="#94B8F4"/>
<stop offset="0.37" stop-color="#8DB1F2"/>
<stop offset="0.63" stop-color="#8BB0F2"/>
<stop offset="0.66" stop-color="#87ACEF"/>
<stop offset="0.86" stop-color="#739CE3"/>
<stop offset="1" stop-color="#6D97DF"/>
</linearGradient>
<linearGradient id="paint2_linear_71_1321" x1="89.4564" y1="121.582" x2="90.5264" y2="105.282" gradientUnits="userSpaceOnUse">
<stop offset="0.49" stop-color="#5D85E2"/>
<stop offset="0.73" stop-color="#6690E0"/>
<stop offset="1" stop-color="#6D97DF"/>
</linearGradient>
<linearGradient id="paint3_linear_71_1321" x1="108.106" y1="61.3223" x2="108.536" y2="56.5123" gradientUnits="userSpaceOnUse">
<stop offset="0.38" stop-color="#D0D3E1"/>
<stop offset="0.4" stop-color="#D4D7E3"/>
<stop offset="0.52" stop-color="#F3F4F7"/>
<stop offset="0.59" stop-color="white"/>
</linearGradient>
<linearGradient id="paint4_linear_71_1321" x1="104.847" y1="72.7526" x2="105.227" y2="68.6326" gradientUnits="userSpaceOnUse">
<stop offset="0.38" stop-color="#D0D3E1"/>
<stop offset="0.4" stop-color="#D4D7E3"/>
<stop offset="0.52" stop-color="#F3F4F7"/>
<stop offset="0.59" stop-color="white"/>
</linearGradient>
<linearGradient id="paint5_linear_71_1321" x1="102.017" y1="85.3522" x2="102.347" y2="81.6721" gradientUnits="userSpaceOnUse">
<stop offset="0.38" stop-color="#D0D3E1"/>
<stop offset="0.4" stop-color="#D4D7E3"/>
<stop offset="0.52" stop-color="#F3F4F7"/>
<stop offset="0.59" stop-color="white"/>
</linearGradient>
<linearGradient id="paint6_linear_71_1321" x1="77.1069" y1="74.754" x2="70.9804" y2="81.5953" gradientUnits="userSpaceOnUse">
<stop offset="0.18" stop-color="#ECBA7B"/>
<stop offset="0.36" stop-color="#E8B173"/>
<stop offset="0.63" stop-color="#DD9B5E"/>
<stop offset="0.92" stop-color="#CE7D42"/>
</linearGradient>
<linearGradient id="paint7_linear_71_1321" x1="65.985" y1="59.2459" x2="64.5167" y2="60.4774" gradientUnits="userSpaceOnUse">
<stop offset="0.31" stop-color="#DEAAF8"/>
<stop offset="0.72" stop-color="#A564E5"/>
</linearGradient>
<linearGradient id="paint8_linear_71_1321" x1="81.2544" y1="85.5486" x2="79.7924" y2="86.7674" gradientUnits="userSpaceOnUse">
<stop offset="0.09" stop-color="#231815"/>
<stop offset="0.21" stop-color="#2A201E"/>
<stop offset="0.41" stop-color="#3F3937"/>
<stop offset="0.61" stop-color="#595757"/>
<stop offset="0.69" stop-color="#514E4D"/>
<stop offset="0.82" stop-color="#3D3635"/>
<stop offset="0.95" stop-color="#231815"/>
</linearGradient>
<radialGradient id="paint9_radial_71_1321" cx="0" cy="0" r="1" gradientUnits="userSpaceOnUse" gradientTransform="translate(45.7183 44.1086) rotate(161.76) scale(8)">
<stop offset="0.26" stop-color="#F2ECE7"/>
<stop offset="0.53" stop-color="#EBE2D8"/>
<stop offset="0.66" stop-color="#E8DCD0"/>
</radialGradient>
<linearGradient id="paint10_linear_71_1321" x1="53.7106" y1="45.6761" x2="44.6256" y2="53.9557" gradientUnits="userSpaceOnUse">
<stop offset="0.08" stop-color="#B5B5B6"/>
<stop offset="0.16" stop-color="#C0C0BE"/>
<stop offset="0.29" stop-color="#CCCBC6"/>
<stop offset="0.43" stop-color="#D0CFC9"/>
<stop offset="0.53" stop-color="#C9C8C3"/>
<stop offset="0.66" stop-color="#B6B6B2"/>
<stop offset="0.82" stop-color="#989897"/>
<stop offset="0.88" stop-color="#898989"/>
</linearGradient>
<linearGradient id="paint11_linear_71_1321" x1="54.8277" y1="47.498" x2="43.3547" y2="51.279" gradientUnits="userSpaceOnUse">
<stop offset="0.08" stop-color="#B5B5B6"/>
<stop offset="0.09" stop-color="#B9B9BA"/>
<stop offset="0.17" stop-color="#D4D5D5"/>
<stop offset="0.26" stop-color="#E7E8E8"/>
<stop offset="0.34" stop-color="#F3F4F4"/>
<stop offset="0.43" stop-color="#F7F8F8"/>
<stop offset="0.5" stop-color="#F0F1F1"/>
<stop offset="0.6" stop-color="#DEDEDE"/>
<stop offset="0.72" stop-color="#BFC0C0"/>
<stop offset="0.85" stop-color="#969696"/>
<stop offset="0.88" stop-color="#898989"/>
</linearGradient>
<linearGradient id="paint12_linear_71_1321" x1="56.7443" y1="49.6773" x2="45.0908" y2="53.5178" gradientUnits="userSpaceOnUse">
<stop offset="0.08" stop-color="#B5B5B6"/>
<stop offset="0.09" stop-color="#B9B9BA"/>
<stop offset="0.17" stop-color="#D4D5D5"/>
<stop offset="0.26" stop-color="#E7E8E8"/>
<stop offset="0.34" stop-color="#F3F4F4"/>
<stop offset="0.43" stop-color="#F7F8F8"/>
<stop offset="0.5" stop-color="#F0F1F1"/>
<stop offset="0.6" stop-color="#DEDEDE"/>
<stop offset="0.72" stop-color="#BFC0C0"/>
<stop offset="0.85" stop-color="#969696"/>
<stop offset="0.88" stop-color="#898989"/>
</linearGradient>
</defs>
</svg>
