<svg width="199" height="145" viewBox="0 0 199 145" fill="none" xmlns="http://www.w3.org/2000/svg">
<path d="M198.199 0.199951H0.199219V144.2H198.199V0.199951Z" fill="#F6899A"/>
<path d="M46.6457 80.0009C48.8157 84.7609 61.7957 83.5209 75.6357 77.2209C89.4757 70.9209 98.9457 61.9509 96.7757 57.1909L90.8557 38.1909L57.0857 43.4309L37.3457 65.4209L46.6457 80.0109V80.0009Z" fill="url(#paint0_linear_53_536)"/>
<path d="M76.2969 59.4009L78.3069 62.7309C78.3069 62.7309 77.2369 63.7409 74.6669 63.8009C74.6669 63.8009 21.8169 69.3809 12.9069 68.7609C12.9069 68.7609 11.3069 68.8009 10.0469 65.2209L76.2969 59.4009Z" fill="#231815"/>
<path d="M76.2461 59.4208L78.2261 62.7708C78.2261 62.7708 79.6161 62.3109 80.8961 60.0709C80.8961 60.0709 103.306 27.4509 106.996 19.3209C106.996 19.3209 107.796 17.9308 105.236 15.1208L76.2461 59.4208Z" fill="url(#paint1_linear_53_536)"/>
<path d="M105.286 15.9207L77.7961 58.2407C77.0661 59.3707 75.8861 60.1207 74.5561 60.2907C65.9061 61.4407 32.3961 65.6907 10.8061 65.7807C10.0661 65.7807 9.71605 64.8707 10.2761 64.3707C16.1161 59.2107 36.5561 41.0107 46.1061 30.6607C46.6361 30.0907 47.3261 29.7007 48.0961 29.5507C54.5161 28.3007 85.416 22.0807 104.436 14.8407C105.096 14.5907 105.676 15.3307 105.296 15.9207H105.286Z" fill="url(#paint2_linear_53_536)"/>
<path d="M62.966 39.3708L63.786 40.8308C64.146 41.4708 63.136 42.7208 61.536 43.6208C59.936 44.5208 58.346 44.7308 57.986 44.0808L57.166 42.6208L62.966 39.3708Z" fill="url(#paint3_linear_53_536)"/>
<path d="M60.7188 42.1669C62.3234 41.2682 63.3333 40.0202 62.9744 39.3793C62.6155 38.7385 61.0237 38.9474 59.4191 39.846C57.8145 40.7447 56.8046 41.9927 57.1635 42.6336C57.5225 43.2744 59.1142 43.0655 60.7188 42.1669Z" fill="#FFF766"/>
<path d="M65.1665 94.9107C62.8565 91.3007 61.5765 90.2807 61.5765 90.2807C60.2565 89.1907 54.6465 86.2507 54.6465 86.2507L53.6665 86.6507L53.6265 86.5707L52.3465 87.4307C52.3465 87.4307 51.4265 93.7407 51.5365 95.4607C51.5365 95.4607 51.6065 97.1007 53.1665 101.101C53.1665 101.101 54.5365 103.891 60.3665 100.951C66.7165 97.8107 65.1765 94.9007 65.1765 94.9007L65.1665 94.9107Z" fill="url(#paint4_linear_53_536)"/>
<path d="M53.4967 84.0508L54.6467 86.1408C54.8167 86.4508 54.4267 86.9908 53.7767 87.3608C53.1267 87.7308 52.4567 87.7808 52.2867 87.4708L51.1367 85.3808L53.5067 84.0508H53.4967Z" fill="url(#paint5_linear_53_536)"/>
<path d="M52.6167 85.2786C53.272 84.9116 53.6655 84.368 53.4955 84.0644C53.3255 83.7608 52.6564 83.8122 52.001 84.1792C51.3457 84.5462 50.9523 85.0899 51.1223 85.3934C51.2923 85.697 51.9614 85.6456 52.6167 85.2786Z" fill="#FFF766"/>
<path d="M60.4555 44.1909L43.0555 64.1909H41.9355L59.3355 43.6309C59.3355 43.6309 60.1055 42.9309 60.4555 44.1909Z" fill="url(#paint6_linear_53_536)"/>
<path d="M43.0468 64.1908L52.8568 84.3308C52.8568 84.3308 52.7968 84.8108 51.9968 84.9108C51.8568 84.9308 41.7268 64.5208 41.9268 64.1808C41.9268 64.1808 42.7768 63.9008 43.0468 64.1808V64.1908Z" fill="url(#paint7_linear_53_536)"/>
<path d="M116.146 122.291C116.146 122.291 129.976 107.801 138.476 93.6808C138.476 93.6808 146.016 79.9008 148.486 74.5508C148.486 74.5508 155.066 68.4508 160.416 65.4308C160.416 65.4308 168.776 58.3008 171.176 55.0808L188.796 34.0308C188.796 34.0308 190.926 29.5708 188.046 26.5608C188.046 26.5608 182.696 21.2108 181.946 21.0808L136.566 66.7408L108.186 102.711L116.156 122.301L116.146 122.291Z" fill="url(#paint8_linear_53_536)"/>
<path d="M115.335 121.151C111.335 125.941 102.105 124.831 94.725 118.671C87.345 112.511 84.595 103.631 88.595 98.8409C92.595 94.0509 101.825 95.1609 109.205 101.321C111.055 102.861 109.825 102.201 111.055 103.971C111.455 104.541 109.805 104.971 110.365 105.461C119.905 113.851 118.005 117.941 115.335 121.151Z" fill="url(#paint9_radial_53_536)"/>
<path d="M111.816 102.951L184.006 19.2209C184.006 19.2209 174.136 9.0709 163.306 14.7009C163.306 14.7009 144.656 33.9009 141.916 38.2809C141.916 38.2809 134.376 54.0509 126.016 62.1409C126.016 62.1409 115.596 69.9609 113.816 70.9209C113.816 70.9209 108.336 75.1709 104.626 79.5609L89.0156 97.6609C89.0156 97.6609 97.4956 91.4909 111.826 102.961L111.816 102.951Z" fill="url(#paint10_linear_53_536)"/>
<path d="M108.316 125.391C101.956 125.391 96.0757 120.761 95.9957 120.691C89.2757 114.881 85.9157 109.421 86.0057 104.451C86.0857 100.051 88.8857 97.7409 89.0057 97.6509C97.4757 90.2009 111.236 102.431 111.816 102.951L110.986 103.871C110.856 103.751 98.1257 92.0409 90.4557 98.7709C90.3357 98.8709 87.9557 100.851 87.8957 104.681C87.8357 109.201 90.7857 114.291 97.0957 119.751C97.1857 119.821 107.696 127.981 115.096 121.041C115.096 121.041 117.776 117.521 116.026 112.971C115.386 112.151 109.206 104.101 101.266 100.351C101.236 100.351 93.7257 97.5509 91.5357 102.181C91.4357 102.341 87.0157 109.141 100.516 119.101C101.186 119.591 103.096 120.351 104.006 120.711C104.006 120.711 109.076 122.091 111.876 120.011C113.066 119.131 113.686 117.721 113.736 115.811C113.736 115.751 113.866 111.991 108.236 107.891C108.076 107.751 99.2057 99.2209 94.5057 103.641C94.5057 103.651 93.1157 105.391 93.7057 108.091C94.2457 110.591 96.7057 115.061 104.996 118.571C105.056 118.571 108.996 119.621 110.156 116.691C110.246 116.511 111.786 113.261 108.516 110.891C105.466 108.371 99.9157 104.671 97.8857 105.421C97.8257 105.441 96.5957 105.791 96.1957 106.861C95.8457 107.791 96.1757 109.091 97.1757 110.611C97.2057 110.651 102.026 117.261 106.496 115.361C106.506 115.361 107.236 115.041 107.346 114.361C107.476 113.601 106.306 112.021 104.986 110.841L106.326 110.431C108.026 111.961 108.776 113.361 108.566 114.591C108.326 115.941 107.026 116.491 106.966 116.511C101.596 118.781 96.3657 111.621 96.1557 111.311C94.9057 109.381 94.5357 107.741 95.0457 106.401C95.6857 104.731 97.4457 104.251 97.5257 104.231C100.846 103.041 108.436 109.201 109.286 109.911C113.386 112.881 111.316 117.151 111.296 117.191C110.056 120.321 106.346 120.221 104.556 119.721C96.4457 116.651 93.3457 112.351 92.4857 108.321C91.7857 105.031 93.5257 102.881 93.6057 102.791C99.2157 97.5009 108.636 106.551 109.036 106.941C115.206 111.421 114.996 115.681 114.976 115.861C114.916 118.151 114.126 119.891 112.616 121.011C109.326 123.441 103.866 121.951 103.636 121.891C102.116 121.291 100.526 120.641 99.7857 120.091C85.2357 109.351 90.2557 101.861 90.4757 101.551C93.1057 95.9809 101.406 99.0709 101.766 99.2009C110.416 103.281 117.046 111.931 117.326 112.291L117.406 112.441C119.496 117.711 116.296 122.111 116.166 122.291C113.736 124.581 110.996 125.391 108.336 125.391H108.316Z" fill="url(#paint11_linear_53_536)"/>
<path d="M125.326 62.5708C125.326 62.5708 126.996 57.8408 130.736 57.0908C130.736 57.0908 144.896 52.6608 151.906 67.4408C151.906 67.4408 154.836 73.7008 147.686 79.8308C147.686 79.8308 144.676 82.1808 144.966 81.3308C145.036 81.1308 148.306 77.2508 148.026 73.0908C148.026 73.0908 148.226 67.9808 142.986 63.7608C142.986 63.7608 137.196 58.6508 130.326 59.8108C130.326 59.8108 128.246 60.7908 125.316 62.5608L125.326 62.5708Z" fill="url(#paint12_radial_53_536)"/>
<defs>
<linearGradient id="paint0_linear_53_536" x1="45.9357" y1="68.8209" x2="92.9757" y2="49.2909" gradientUnits="userSpaceOnUse">
<stop offset="0.09" stop-color="#231815"/>
<stop offset="0.26" stop-color="#271F1E"/>
<stop offset="0.54" stop-color="#333437"/>
<stop offset="0.61" stop-color="#373A3F"/>
<stop offset="0.72" stop-color="#323235"/>
<stop offset="0.9" stop-color="#261E1D"/>
<stop offset="0.95" stop-color="#231815"/>
</linearGradient>
<linearGradient id="paint1_linear_53_536" x1="69.8061" y1="50.7908" x2="73.9261" y2="48.5608" gradientUnits="userSpaceOnUse">
<stop offset="0.09" stop-color="#231815"/>
<stop offset="0.26" stop-color="#271F1E"/>
<stop offset="0.54" stop-color="#333437"/>
<stop offset="0.61" stop-color="#373A3F"/>
</linearGradient>
<linearGradient id="paint2_linear_53_536" x1="48.0561" y1="23.7107" x2="77.8061" y2="74.8007" gradientUnits="userSpaceOnUse">
<stop offset="0.09" stop-color="#231815"/>
<stop offset="0.26" stop-color="#271F1E"/>
<stop offset="0.54" stop-color="#333437"/>
<stop offset="0.61" stop-color="#373A3F"/>
</linearGradient>
<linearGradient id="paint3_linear_53_536" x1="59.806" y1="42.8308" x2="63.636" y2="40.2208" gradientUnits="userSpaceOnUse">
<stop stop-color="#DFA91C"/>
<stop offset="0.53" stop-color="#FDA937"/>
<stop offset="0.83" stop-color="#FFE47A"/>
</linearGradient>
<linearGradient id="paint4_linear_53_536" x1="54.6265" y1="95.4907" x2="62.2265" y2="90.3107" gradientUnits="userSpaceOnUse">
<stop stop-color="#DFA91C"/>
<stop offset="0.53" stop-color="#FDA937"/>
<stop offset="0.83" stop-color="#FFE47A"/>
</linearGradient>
<linearGradient id="paint5_linear_53_536" x1="51.9867" y1="86.6408" x2="54.5367" y2="85.1608" gradientUnits="userSpaceOnUse">
<stop stop-color="#DFA91C"/>
<stop offset="0.53" stop-color="#FDA937"/>
<stop offset="0.83" stop-color="#FFE47A"/>
</linearGradient>
<linearGradient id="paint6_linear_53_536" x1="50.6555" y1="53.5409" x2="51.2955" y2="54.1309" gradientUnits="userSpaceOnUse">
<stop offset="0.09" stop-color="#F39800"/>
<stop offset="0.22" stop-color="#F39F09"/>
<stop offset="0.43" stop-color="#F6B222"/>
<stop offset="0.61" stop-color="#F9C73D"/>
<stop offset="0.66" stop-color="#F3BD37"/>
<stop offset="0.75" stop-color="#E3A52A"/>
<stop offset="0.87" stop-color="#C97C13"/>
<stop offset="0.95" stop-color="#B35A00"/>
</linearGradient>
<linearGradient id="paint7_linear_53_536" x1="46.8868" y1="74.6408" x2="47.7068" y2="74.2208" gradientUnits="userSpaceOnUse">
<stop offset="0.09" stop-color="#F39800"/>
<stop offset="0.22" stop-color="#F39F09"/>
<stop offset="0.43" stop-color="#F6B222"/>
<stop offset="0.61" stop-color="#F9C73D"/>
<stop offset="0.66" stop-color="#F3BD37"/>
<stop offset="0.75" stop-color="#E3A52A"/>
<stop offset="0.87" stop-color="#C97C13"/>
<stop offset="0.95" stop-color="#B35A00"/>
</linearGradient>
<linearGradient id="paint8_linear_53_536" x1="139.186" y1="63.1408" x2="156.886" y2="78.3108" gradientUnits="userSpaceOnUse">
<stop offset="0.16" stop-color="#F7DDBF"/>
<stop offset="0.45" stop-color="#FFFFEA"/>
<stop offset="0.56" stop-color="#F9F5DD"/>
<stop offset="0.77" stop-color="#ECDCBC"/>
<stop offset="1" stop-color="#DCBD92"/>
</linearGradient>
<radialGradient id="paint9_radial_53_536" cx="0" cy="0" r="1" gradientUnits="userSpaceOnUse" gradientTransform="translate(94.865 100.121) scale(52.1 52.1)">
<stop stop-color="#A27C5D"/>
<stop offset="0.35" stop-color="#F2D1B2"/>
<stop offset="0.39" stop-color="#CFAC8D"/>
<stop offset="0.43" stop-color="#B69172"/>
<stop offset="0.47" stop-color="#A78162"/>
<stop offset="0.49" stop-color="#A27C5D"/>
</radialGradient>
<linearGradient id="paint10_linear_53_536" x1="123.816" y1="46.8509" x2="152.536" y2="73.0509" gradientUnits="userSpaceOnUse">
<stop offset="0.3" stop-color="white"/>
<stop offset="0.43" stop-color="#FFFFEF"/>
<stop offset="0.53" stop-color="#FFFFEA"/>
<stop offset="0.69" stop-color="#FBEED4"/>
<stop offset="0.86" stop-color="#F8E1C4"/>
<stop offset="1" stop-color="#F7DDBF"/>
</linearGradient>
<linearGradient id="paint11_linear_53_536" x1="86.0057" y1="110.321" x2="118.096" y2="110.321" gradientUnits="userSpaceOnUse">
<stop offset="0.45" stop-color="#F3D89E"/>
<stop offset="0.63" stop-color="#E9D191"/>
<stop offset="0.7" stop-color="#E5CE8C"/>
</linearGradient>
<radialGradient id="paint12_radial_53_536" cx="0" cy="0" r="1" gradientUnits="userSpaceOnUse" gradientTransform="translate(141.386 58.3308) scale(10.77)">
<stop offset="0.02" stop-color="#FFA988"/>
<stop offset="0.33" stop-color="#F64B2F"/>
<stop offset="0.49" stop-color="#ED462C"/>
<stop offset="0.73" stop-color="#D53926"/>
<stop offset="1" stop-color="#B5271D"/>
</radialGradient>
</defs>
</svg>
