<svg width="198" height="145" viewBox="0 0 198 145" fill="none" xmlns="http://www.w3.org/2000/svg">
<path d="M198 0.100098H0V144.1H198V0.100098Z" fill="#6DC7C3"/>
<path d="M90.0974 64.1901L46.4674 33.0401C42.0074 32.4401 39.8574 36.2301 39.8574 38.6201V98.8301C39.3174 103.94 42.6674 112.42 48.7674 110.61L89.7574 81.0201C98.2274 75.9901 98.3574 69.2801 90.0874 64.1901H90.0974Z" fill="url(#paint0_linear_71_1320)"/>
<path d="M42.377 106.44C44.237 109.45 46.857 111.48 49.197 110.09L89.757 80.7801C98.227 75.7501 96.277 67.1701 88.007 62.0801" fill="url(#paint1_linear_71_1320)"/>
<path d="M107.897 64.1901L151.527 33.0401C155.987 32.4401 158.137 36.2301 158.137 38.6201V98.8301C158.877 105.75 155.187 111.19 148.537 110.76L108.237 81.0201C99.7667 75.9901 99.6367 69.2801 107.907 64.1901H107.897Z" fill="url(#paint2_linear_71_1320)"/>
<path d="M156.078 107.51C154.678 109.35 151.058 111.72 148.718 110.33L108.158 81.0198C99.6882 75.9898 101.638 67.4098 109.908 62.3198" fill="url(#paint3_linear_71_1320)"/>
<path d="M88.7471 73.51L46.0871 106.11C44.2071 107.54 45.1171 110.82 47.3971 110.82H149.987C151.947 110.82 152.757 108.01 151.157 106.74L109.447 73.71C103.267 68.81 94.9971 68.74 88.7471 73.52V73.51Z" fill="url(#paint4_linear_71_1320)"/>
<path d="M152.387 33.2598C152.387 33.2598 155.367 34.3598 154.657 37.3398L115.747 69.2298C113.957 70.6998 108.957 71.8398 106.657 71.5798L104.557 70.5798L152.387 33.2598Z" fill="url(#paint5_linear_71_1320)"/>
<path d="M44.3872 33.2598C44.3872 33.2598 41.4072 34.3598 42.1172 37.3398L81.0272 69.2298C82.8172 70.6998 89.2472 72.0098 91.5472 71.7498L92.2172 70.5798L44.3872 33.2598Z" fill="url(#paint6_linear_71_1320)"/>
<path d="M87.0767 68.9299L44.3767 36.2999C43.0267 35.2699 43.6767 32.8999 45.3167 32.8999H151.427C152.947 32.8999 153.567 35.0699 152.327 36.0499L111.087 68.7099C103.917 74.3899 94.3267 74.4799 87.0667 68.9299H87.0767Z" fill="url(#paint7_radial_71_1320)"/>
<defs>
<linearGradient id="paint0_linear_71_1320" x1="109.027" y1="71.91" x2="37.1274" y2="71.91" gradientUnits="userSpaceOnUse">
<stop offset="0.8" stop-color="#FFD66D"/>
<stop offset="0.83" stop-color="#FDD169"/>
<stop offset="0.88" stop-color="#F9C360"/>
<stop offset="0.92" stop-color="#F3AE53"/>
<stop offset="0.98" stop-color="#DC8B53"/>
</linearGradient>
<linearGradient id="paint1_linear_71_1320" x1="62.867" y1="79.7901" x2="69.217" y2="88.6201" gradientUnits="userSpaceOnUse">
<stop offset="0.46" stop-color="#FFD66D"/>
<stop offset="0.6" stop-color="#FDD169"/>
<stop offset="0.77" stop-color="#F9C360"/>
<stop offset="0.94" stop-color="#F3AE53"/>
</linearGradient>
<linearGradient id="paint2_linear_71_1320" x1="88.9567" y1="71.88" x2="160.897" y2="71.88" gradientUnits="userSpaceOnUse">
<stop offset="0.8" stop-color="#FFD66D"/>
<stop offset="0.83" stop-color="#FDD169"/>
<stop offset="0.88" stop-color="#F9C360"/>
<stop offset="0.92" stop-color="#F3AE53"/>
<stop offset="0.98" stop-color="#DC8B53"/>
</linearGradient>
<linearGradient id="paint3_linear_71_1320" x1="135.408" y1="80.2898" x2="129.058" y2="89.1198" gradientUnits="userSpaceOnUse">
<stop offset="0.46" stop-color="#FFD66D"/>
<stop offset="0.6" stop-color="#FDD169"/>
<stop offset="0.77" stop-color="#F9C360"/>
<stop offset="0.94" stop-color="#F3AE53"/>
</linearGradient>
<linearGradient id="paint4_linear_71_1320" x1="98.5371" y1="60.69" x2="98.5371" y2="112.75" gradientUnits="userSpaceOnUse">
<stop offset="0.48" stop-color="#FFD66D"/>
<stop offset="0.6" stop-color="#FDD169"/>
<stop offset="0.73" stop-color="#F9C360"/>
<stop offset="0.86" stop-color="#F3AE53"/>
<stop offset="0.98" stop-color="#DC8B53"/>
</linearGradient>
<linearGradient id="paint5_linear_71_1320" x1="139.417" y1="65.5198" x2="128.227" y2="51.1398" gradientUnits="userSpaceOnUse">
<stop offset="0.46" stop-color="#FFD66D"/>
<stop offset="0.56" stop-color="#FCD16B"/>
<stop offset="0.68" stop-color="#F6C366"/>
<stop offset="0.8" stop-color="#EBAC5E"/>
<stop offset="0.93" stop-color="#DC8C53"/>
<stop offset="0.94" stop-color="#DC8B53"/>
</linearGradient>
<linearGradient id="paint6_linear_71_1320" x1="57.4372" y1="65.5798" x2="68.6272" y2="51.1998" gradientUnits="userSpaceOnUse">
<stop offset="0.46" stop-color="#FFD66D"/>
<stop offset="0.56" stop-color="#FCD16B"/>
<stop offset="0.68" stop-color="#F6C366"/>
<stop offset="0.8" stop-color="#EBAC5E"/>
<stop offset="0.93" stop-color="#DC8C53"/>
<stop offset="0.94" stop-color="#DC8B53"/>
</linearGradient>
<radialGradient id="paint7_radial_71_1320" cx="0" cy="0" r="1" gradientUnits="userSpaceOnUse" gradientTransform="translate(99.6547 14.8399) scale(56.898 63.22)">
<stop offset="0.86" stop-color="#FFD66D"/>
<stop offset="0.9" stop-color="#FDD169"/>
<stop offset="0.95" stop-color="#F9C360"/>
<stop offset="1" stop-color="#F3AE53"/>
</radialGradient>
</defs>
</svg>
