<svg width="199" height="145" viewBox="0 0 199 145" fill="none" xmlns="http://www.w3.org/2000/svg">
<path d="M198.2 0.199951H0.200195V144.2H198.2V0.199951Z" fill="white"/>
<path d="M44.2907 28.2478H161.311C164.381 28.2478 166.881 30.7378 166.881 33.8178V36.6378H38.7207V33.8178C38.7207 30.7478 41.2107 28.2478 44.2907 28.2478Z" fill="#B9BEC1"/>
<path d="M38.7207 36.8379L166.871 36.6179V122.368C166.871 124.738 164.951 126.648 162.591 126.648H43.0107C40.6407 126.648 38.7307 124.728 38.7307 122.368V36.8279L38.7207 36.8379Z" fill="#B9BEC1"/>
<path d="M43.9897 28.1379H161.01C164.08 28.1379 166.58 30.6279 166.58 33.7079V36.5279H38.4297V33.7079C38.4297 30.6379 40.9197 28.1379 43.9997 28.1379H43.9897Z" fill="white"/>
<path d="M43.9897 28.2478H161.01C164.08 28.2478 166.58 30.7378 166.58 33.8178V36.6378H38.4297V33.8178C38.4297 30.7478 40.9197 28.2478 43.9997 28.2478H43.9897Z" fill="#BAC8D3"/>
<path d="M161.01 126.478L43.9901 126.478C40.9201 126.478 38.4201 123.988 38.4201 120.908V36.6578L166.58 36.6578V120.908C166.58 123.978 164.09 126.478 161.01 126.478Z" fill="#D7DCE0"/>
<path d="M45.2603 34.6977C46.3097 34.6977 47.1604 33.847 47.1604 32.7977C47.1604 31.7484 46.3097 30.8977 45.2603 30.8977C44.211 30.8977 43.3604 31.7484 43.3604 32.7977C43.3604 33.847 44.211 34.6977 45.2603 34.6977Z" fill="url(#paint0_radial_53_541)"/>
<path d="M49.94 34.6977C50.9894 34.6977 51.84 33.847 51.84 32.7977C51.84 31.7484 50.9894 30.8977 49.94 30.8977C48.8907 30.8977 48.04 31.7484 48.04 32.7977C48.04 33.847 48.8907 34.6977 49.94 34.6977Z" fill="url(#paint1_radial_53_541)"/>
<path d="M54.6305 34.6977C55.6798 34.6977 56.5305 33.847 56.5305 32.7977C56.5305 31.7484 55.6798 30.8977 54.6305 30.8977C53.5811 30.8977 52.7305 31.7484 52.7305 32.7977C52.7305 33.847 53.5811 34.6977 54.6305 34.6977Z" fill="url(#paint2_radial_53_541)"/>
<path d="M157.28 40.4978H48.1199C46.1924 40.4978 44.6299 42.0603 44.6299 43.9878V44.4178C44.6299 46.3453 46.1924 47.9078 48.1199 47.9078H157.28C159.207 47.9078 160.77 46.3453 160.77 44.4178V43.9878C160.77 42.0603 159.207 40.4978 157.28 40.4978Z" fill="#C9CACA"/>
<path d="M156.66 39.9478H47.4998C45.5723 39.9478 44.0098 41.5103 44.0098 43.4378V43.8678C44.0098 45.7952 45.5723 47.3578 47.4998 47.3578H156.66C158.587 47.3578 160.15 45.7952 160.15 43.8678V43.4378C160.15 41.5103 158.587 39.9478 156.66 39.9478Z" fill="white"/>
<path d="M157.28 39.9478H48.1199C46.1924 39.9478 44.6299 41.5103 44.6299 43.4378V43.8678C44.6299 45.7952 46.1924 47.3578 48.1199 47.3578H157.28C159.207 47.3578 160.77 45.7952 160.77 43.8678V43.4378C160.77 41.5103 159.207 39.9478 157.28 39.9478Z" fill="url(#paint3_radial_53_541)"/>
<path d="M157.45 85.3479H127.51C127.218 85.3479 126.98 85.5852 126.98 85.8779V85.9379C126.98 86.2306 127.218 86.4679 127.51 86.4679H157.45C157.743 86.4679 157.98 86.2306 157.98 85.9379V85.8779C157.98 85.5852 157.743 85.3479 157.45 85.3479Z" fill="white"/>
<path d="M157.54 85.4277H127.6C127.308 85.4277 127.07 85.665 127.07 85.9577V86.0177C127.07 86.3105 127.308 86.5477 127.6 86.5477H157.54C157.833 86.5477 158.07 86.3105 158.07 86.0177V85.9577C158.07 85.665 157.833 85.4277 157.54 85.4277Z" fill="url(#paint4_linear_53_541)"/>
<path d="M157.45 93.3577H127.51C127.218 93.3577 126.98 93.595 126.98 93.8877V93.9477C126.98 94.2404 127.218 94.4777 127.51 94.4777H157.45C157.743 94.4777 157.98 94.2404 157.98 93.9477V93.8877C157.98 93.595 157.743 93.3577 157.45 93.3577Z" fill="white"/>
<path d="M157.54 93.4377H127.6C127.308 93.4377 127.07 93.675 127.07 93.9677V94.0277C127.07 94.3205 127.308 94.5577 127.6 94.5577H157.54C157.833 94.5577 158.07 94.3205 158.07 94.0277V93.9677C158.07 93.675 157.833 93.4377 157.54 93.4377Z" fill="url(#paint5_linear_53_541)"/>
<path d="M157.45 101.368H127.51C127.218 101.368 126.98 101.605 126.98 101.898V101.958C126.98 102.251 127.218 102.488 127.51 102.488H157.45C157.743 102.488 157.98 102.251 157.98 101.958V101.898C157.98 101.605 157.743 101.368 157.45 101.368Z" fill="white"/>
<path d="M157.54 101.448H127.6C127.308 101.448 127.07 101.685 127.07 101.978V102.038C127.07 102.33 127.308 102.568 127.6 102.568H157.54C157.833 102.568 158.07 102.33 158.07 102.038V101.978C158.07 101.685 157.833 101.448 157.54 101.448Z" fill="url(#paint6_linear_53_541)"/>
<path d="M157.45 109.378H127.51C127.218 109.378 126.98 109.615 126.98 109.908V109.968C126.98 110.26 127.218 110.498 127.51 110.498H157.45C157.743 110.498 157.98 110.26 157.98 109.968V109.908C157.98 109.615 157.743 109.378 157.45 109.378Z" fill="white"/>
<path d="M157.54 109.458H127.6C127.308 109.458 127.07 109.695 127.07 109.988V110.048C127.07 110.34 127.308 110.578 127.6 110.578H157.54C157.833 110.578 158.07 110.34 158.07 110.048V109.988C158.07 109.695 157.833 109.458 157.54 109.458Z" fill="url(#paint7_linear_53_541)"/>
<path d="M157.45 117.388H47.9402C47.6474 117.388 47.4102 117.625 47.4102 117.918V117.978C47.4102 118.271 47.6474 118.508 47.9402 118.508H157.45C157.743 118.508 157.98 118.271 157.98 117.978V117.918C157.98 117.625 157.743 117.388 157.45 117.388Z" fill="white"/>
<path d="M157.54 117.468H48.03C47.7373 117.468 47.5 117.705 47.5 117.998V118.058C47.5 118.35 47.7373 118.588 48.03 118.588H157.54C157.833 118.588 158.07 118.35 158.07 118.058V117.998C158.07 117.705 157.833 117.468 157.54 117.468Z" fill="url(#paint8_linear_53_541)"/>
<path d="M118.6 50.4678H47.2398C45.594 50.4678 44.2598 51.802 44.2598 53.4478V102.268C44.2598 103.914 45.594 105.248 47.2398 105.248H118.6C120.246 105.248 121.58 103.914 121.58 102.268V53.4478C121.58 51.802 120.246 50.4678 118.6 50.4678Z" fill="#C3CBD1"/>
<path d="M117.66 50.6077H47.3501C45.7043 50.6077 44.3701 51.9419 44.3701 53.5877V101.878C44.3701 103.523 45.7043 104.858 47.3501 104.858H117.66C119.306 104.858 120.64 103.523 120.64 101.878V53.5877C120.64 51.9419 119.306 50.6077 117.66 50.6077Z" fill="white"/>
<path d="M155.66 50.8179H129.1C127.454 50.8179 126.12 52.1521 126.12 53.7979V74.4679C126.12 76.1137 127.454 77.4479 129.1 77.4479H155.66C157.306 77.4479 158.64 76.1137 158.64 74.4679V53.7979C158.64 52.1521 157.306 50.8179 155.66 50.8179Z" fill="#1E68C1"/>
<path d="M155.101 50.9377H129.201C127.555 50.9377 126.221 52.2719 126.221 53.9177V74.1277C126.221 75.7735 127.555 77.1077 129.201 77.1077H155.101C156.747 77.1077 158.081 75.7735 158.081 74.1277V53.9177C158.081 52.2719 156.747 50.9377 155.101 50.9377Z" fill="#488EFF"/>
<path d="M116.7 53.2478H48.7398C47.9666 53.2478 47.3398 53.8746 47.3398 54.6478V100.828C47.3398 101.601 47.9666 102.228 48.7398 102.228H116.7C117.473 102.228 118.1 101.601 118.1 100.828V54.6478C118.1 53.8746 117.473 53.2478 116.7 53.2478Z" fill="#373A3F"/>
<path d="M118.14 89.7277V101.218C118.14 101.778 117.69 102.228 117.13 102.228H74.3799L101.87 75.1877L118.14 89.7277Z" fill="url(#paint9_linear_53_541)"/>
<path d="M101.9 75.2478L85.5703 91.1278V92.2778L102.48 75.8378L101.9 75.2478Z" fill="#94E6FF"/>
<path d="M47.3398 86.3577V101.258C47.3398 101.788 47.7698 102.228 48.3098 102.228H104.19L67.9898 67.9077L47.3398 86.3677V86.3577Z" fill="url(#paint10_linear_53_541)"/>
<path d="M67.9898 67.9077L47.3398 86.3577V87.8177L68.7298 68.6577L67.9898 67.9077Z" fill="#95FFD0"/>
<path d="M86.9096 70.4977C89.428 70.4977 91.4696 68.4561 91.4696 65.9377C91.4696 63.4193 89.428 61.3777 86.9096 61.3777C84.3912 61.3777 82.3496 63.4193 82.3496 65.9377C82.3496 68.4561 84.3912 70.4977 86.9096 70.4977Z" fill="#231815"/>
<path d="M86.6407 69.8078C88.9437 69.8078 90.8107 67.9408 90.8107 65.6378C90.8107 63.3347 88.9437 61.4678 86.6407 61.4678C84.3377 61.4678 82.4707 63.3347 82.4707 65.6378C82.4707 67.9408 84.3377 69.8078 86.6407 69.8078Z" fill="url(#paint11_radial_53_541)"/>
<path d="M142.61 66.5279C145.256 66.5279 147.4 64.4684 147.4 61.9279C147.4 59.3874 145.256 57.3279 142.61 57.3279C139.965 57.3279 137.82 59.3874 137.82 61.9279C137.82 64.4684 139.965 66.5279 142.61 66.5279Z" fill="#1E68C1"/>
<path d="M142.411 65.8679C144.769 65.8679 146.681 63.9561 146.681 61.5979C146.681 59.2396 144.769 57.3279 142.411 57.3279C140.052 57.3279 138.141 59.2396 138.141 61.5979C138.141 63.9561 140.052 65.8679 142.411 65.8679Z" fill="url(#paint12_radial_53_541)"/>
<path d="M130.54 77.1377C130.54 71.6277 135.85 67.1677 142.41 67.1677C148.97 67.1677 154.28 71.6277 154.28 77.1377" fill="url(#paint13_radial_53_541)"/>
<path d="M72.9704 91.5178H31.9004V59.4478H73.6704" stroke="white" stroke-width="0.44" stroke-miterlimit="10"/>
<path d="M74.4297 60.1577V90.2277" stroke="white" stroke-width="0.44" stroke-miterlimit="10"/>
<path d="M31.91 60.2577C32.4126 60.2577 32.82 59.8503 32.82 59.3477C32.82 58.8452 32.4126 58.4377 31.91 58.4377C31.4074 58.4377 31 58.8452 31 59.3477C31 59.8503 31.4074 60.2577 31.91 60.2577Z" fill="white"/>
<path d="M74.3905 60.2577C74.893 60.2577 75.3005 59.8503 75.3005 59.3477C75.3005 58.8452 74.893 58.4377 74.3905 58.4377C73.8879 58.4377 73.4805 58.8452 73.4805 59.3477C73.4805 59.8503 73.8879 60.2577 74.3905 60.2577Z" fill="white"/>
<path d="M31.91 92.5678C32.4126 92.5678 32.82 92.1604 32.82 91.6578C32.82 91.1552 32.4126 90.7478 31.91 90.7478C31.4074 90.7478 31 91.1552 31 91.6578C31 92.1604 31.4074 92.5678 31.91 92.5678Z" fill="white"/>
<path d="M74.3804 93.0978C75.1757 93.0978 75.8204 92.4531 75.8204 91.6578C75.8204 90.8625 75.1757 90.2178 74.3804 90.2178C73.5851 90.2178 72.9404 90.8625 72.9404 91.6578C72.9404 92.4531 73.5851 93.0978 74.3804 93.0978Z" stroke="white" stroke-width="0.44" stroke-miterlimit="10"/>
<path d="M75.2402 92.8777L76.8002 100.138L77.9902 96.9677L80.5602 100.028L81.9802 98.7577L79.2702 95.9077L82.2202 94.9277L75.2402 92.8777Z" fill="#010204" stroke="white" stroke-width="0.22" stroke-linecap="round" stroke-linejoin="round"/>
<path opacity="0.77" d="M145.08 43.9079C152.15 43.9079 157.88 38.1771 157.88 31.1079C157.88 24.0386 152.15 18.3079 145.08 18.3079C138.011 18.3079 132.28 24.0386 132.28 31.1079C132.28 38.1771 138.011 43.9079 145.08 43.9079Z" fill="url(#paint14_radial_53_541)"/>
<path opacity="0.2" d="M139.541 21.3178C139.541 21.3178 146.881 16.8078 153.961 23.3778C153.961 23.3778 153.831 26.5978 151.511 26.7278C151.511 26.7278 147.901 24.0278 142.751 26.1478C142.751 26.1478 137.981 23.5078 139.531 21.3178H139.541Z" fill="white"/>
<path d="M133.58 9.20772L132.7 13.0977L118.34 0.107719C118.34 0.107719 118.34 -0.0522814 118.52 0.0177186L133.58 9.20772Z" fill="url(#paint15_linear_53_541)"/>
<path d="M132.31 10.4277L132.7 13.0977L130.69 11.2877L132.31 10.4277Z" fill="url(#paint16_linear_53_541)"/>
<path d="M132.311 10.4277L132.701 13.0977L132.581 12.9977L132.221 10.4877L132.311 10.4277Z" fill="#5093CF"/>
<path d="M118.33 0.10791L132.25 10.2579L132.31 10.4279L128.44 13.6379C128.12 13.9079 127.64 13.8379 127.4 13.4979L118.33 0.10791Z" fill="url(#paint17_linear_53_541)"/>
<path d="M118.34 0.11792L132.25 10.2779L128.49 13.3979C128.16 13.6679 127.68 13.5979 127.44 13.2479L118.34 0.11792Z" fill="#8ACAF4"/>
<path d="M133.5 9.17773L132.58 12.9977L132.7 13.0977L133.58 9.23774L133.5 9.17773Z" fill="#56A2DB"/>
<path d="M118.52 0.027832L133.55 9.22783L133.75 9.30783L137.73 6.16783C138 5.95783 137.92 5.52783 137.59 5.42783L118.53 0.027832H118.52Z" fill="url(#paint18_linear_53_541)"/>
<path d="M118.5 0.0078125L133.58 9.23782L137.56 6.09781C137.83 5.88781 137.75 5.45781 137.42 5.35781L118.51 0.0078125H118.5Z" fill="#8ACAF4"/>
<defs>
<radialGradient id="paint0_radial_53_541" cx="0" cy="0" r="1" gradientUnits="userSpaceOnUse" gradientTransform="translate(45.1704 32.6577) scale(2.32 2.32)">
<stop offset="0.57" stop-color="#3CEFAB"/>
<stop offset="0.78" stop-color="#5BB296"/>
</radialGradient>
<radialGradient id="paint1_radial_53_541" cx="0" cy="0" r="1" gradientUnits="userSpaceOnUse" gradientTransform="translate(49.85 32.6577) scale(2.32 2.32)">
<stop offset="0.57" stop-color="#FFDE06"/>
<stop offset="0.8" stop-color="#F2A42E"/>
</radialGradient>
<radialGradient id="paint2_radial_53_541" cx="0" cy="0" r="1" gradientUnits="userSpaceOnUse" gradientTransform="translate(54.5305 32.6577) scale(2.32 2.32)">
<stop offset="0.57" stop-color="#FF7134"/>
<stop offset="0.8" stop-color="#B95434"/>
</radialGradient>
<radialGradient id="paint3_radial_53_541" cx="0" cy="0" r="1" gradientUnits="userSpaceOnUse" gradientTransform="translate(66.2899 76.8178) scale(131.1 131.1)">
<stop offset="0.23" stop-color="#F8FBFA"/>
<stop offset="0.47" stop-color="#F3F5F4"/>
<stop offset="0.76" stop-color="#E5E6E6"/>
<stop offset="0.9" stop-color="#DCDDDD"/>
</radialGradient>
<linearGradient id="paint4_linear_53_541" x1="142.57" y1="85.3477" x2="142.57" y2="86.7777" gradientUnits="userSpaceOnUse">
<stop offset="0.23" stop-color="#F8FBFA"/>
<stop offset="0.43" stop-color="#F3F5F4"/>
<stop offset="0.68" stop-color="#E5E6E6"/>
<stop offset="0.79" stop-color="#DCDDDD"/>
</linearGradient>
<linearGradient id="paint5_linear_53_541" x1="142.57" y1="93.3577" x2="142.57" y2="94.7877" gradientUnits="userSpaceOnUse">
<stop offset="0.23" stop-color="#F8FBFA"/>
<stop offset="0.43" stop-color="#F3F5F4"/>
<stop offset="0.68" stop-color="#E5E6E6"/>
<stop offset="0.79" stop-color="#DCDDDD"/>
</linearGradient>
<linearGradient id="paint6_linear_53_541" x1="142.57" y1="101.368" x2="142.57" y2="102.798" gradientUnits="userSpaceOnUse">
<stop offset="0.23" stop-color="#F8FBFA"/>
<stop offset="0.43" stop-color="#F3F5F4"/>
<stop offset="0.68" stop-color="#E5E6E6"/>
<stop offset="0.79" stop-color="#DCDDDD"/>
</linearGradient>
<linearGradient id="paint7_linear_53_541" x1="142.57" y1="109.378" x2="142.57" y2="110.808" gradientUnits="userSpaceOnUse">
<stop offset="0.23" stop-color="#F8FBFA"/>
<stop offset="0.43" stop-color="#F3F5F4"/>
<stop offset="0.68" stop-color="#E5E6E6"/>
<stop offset="0.79" stop-color="#DCDDDD"/>
</linearGradient>
<linearGradient id="paint8_linear_53_541" x1="102.79" y1="117.388" x2="102.79" y2="118.818" gradientUnits="userSpaceOnUse">
<stop offset="0.23" stop-color="#F8FBFA"/>
<stop offset="0.43" stop-color="#F3F5F4"/>
<stop offset="0.68" stop-color="#E5E6E6"/>
<stop offset="0.79" stop-color="#DCDDDD"/>
</linearGradient>
<linearGradient id="paint9_linear_53_541" x1="110.86" y1="85.7477" x2="113.5" y2="82.8177" gradientUnits="userSpaceOnUse">
<stop offset="0.21" stop-color="#57BDE8"/>
<stop offset="0.25" stop-color="#4AB1E1"/>
<stop offset="0.32" stop-color="#2A93CE"/>
<stop offset="0.39" stop-color="#036EB8"/>
</linearGradient>
<linearGradient id="paint10_linear_53_541" x1="83.4098" y1="86.2877" x2="86.8498" y2="82.6777" gradientUnits="userSpaceOnUse">
<stop offset="0.33" stop-color="#43D796"/>
<stop offset="0.36" stop-color="#3DCA8E"/>
<stop offset="0.41" stop-color="#2EAA79"/>
<stop offset="0.44" stop-color="#23936A"/>
</linearGradient>
<radialGradient id="paint11_radial_53_541" cx="0" cy="0" r="1" gradientUnits="userSpaceOnUse" gradientTransform="translate(86.4307 65.3278) scale(5.08)">
<stop offset="0.57" stop-color="#FFDE06"/>
<stop offset="0.63" stop-color="#FCD40C"/>
<stop offset="0.73" stop-color="#F6BA1E"/>
<stop offset="0.8" stop-color="#F2A42E"/>
</radialGradient>
<radialGradient id="paint12_radial_53_541" cx="0" cy="0" r="1" gradientUnits="userSpaceOnUse" gradientTransform="translate(142.221 60.3679) scale(7.86999 7.87)">
<stop offset="0.24" stop-color="white"/>
<stop offset="0.35" stop-color="#F5F5F5"/>
<stop offset="0.53" stop-color="#DCDDDD"/>
</radialGradient>
<radialGradient id="paint13_radial_53_541" cx="0" cy="0" r="1" gradientUnits="userSpaceOnUse" gradientTransform="translate(142.648 66.4477) scale(33.6413 28.27)">
<stop offset="0.24" stop-color="white"/>
<stop offset="0.35" stop-color="#F5F5F5"/>
<stop offset="0.53" stop-color="#DCDDDD"/>
</radialGradient>
<radialGradient id="paint14_radial_53_541" cx="0" cy="0" r="1" gradientUnits="userSpaceOnUse" gradientTransform="translate(141.25 26.188) rotate(-12.64) scale(18.35 18.35)">
<stop offset="0.27" stop-color="#81FFE4"/>
<stop offset="0.3" stop-color="#79FDDE"/>
<stop offset="0.41" stop-color="#5EF7C7"/>
<stop offset="0.53" stop-color="#4BF2B7"/>
<stop offset="0.64" stop-color="#3FEFAE"/>
<stop offset="0.76" stop-color="#3CEFAB"/>
<stop offset="0.82" stop-color="#3EEAA9"/>
<stop offset="0.89" stop-color="#45DCA4"/>
<stop offset="0.95" stop-color="#50C69D"/>
<stop offset="1" stop-color="#5BB296"/>
</radialGradient>
<linearGradient id="paint15_linear_53_541" x1="124.355" y1="8.14458" x2="127.449" y2="3.86849" gradientUnits="userSpaceOnUse">
<stop offset="0.25" stop-color="#2C388E"/>
<stop offset="0.34" stop-color="#2C3D94"/>
<stop offset="0.45" stop-color="#2F4DA6"/>
<stop offset="0.59" stop-color="#3367C3"/>
<stop offset="0.71" stop-color="#3884E4"/>
</linearGradient>
<linearGradient id="paint16_linear_53_541" x1="131.076" y1="9.96423" x2="132.633" y2="13.0995" gradientUnits="userSpaceOnUse">
<stop offset="0.03" stop-color="#2C388E"/>
<stop offset="0.23" stop-color="#2C45A3"/>
<stop offset="0.48" stop-color="#2C51B6"/>
<stop offset="0.73" stop-color="#2C58C2"/>
<stop offset="1" stop-color="#2C5BC6"/>
</linearGradient>
<linearGradient id="paint17_linear_53_541" x1="132.763" y1="19.7347" x2="125.701" y2="5.95263" gradientUnits="userSpaceOnUse">
<stop offset="0.44" stop-color="#5C7EAA"/>
<stop offset="0.71" stop-color="#66AAEB"/>
</linearGradient>
<linearGradient id="paint18_linear_53_541" x1="135.07" y1="17.8298" x2="128.333" y2="3.11802" gradientUnits="userSpaceOnUse">
<stop offset="0.44" stop-color="#5C7EAA"/>
<stop offset="0.71" stop-color="#66AAEB"/>
</linearGradient>
</defs>
</svg>
