<svg width="499" height="143" viewBox="0 0 499 143" fill="none" xmlns="http://www.w3.org/2000/svg">
<path d="M206.99 24.45C210.74 20.87 214.5 17.01 216.82 14.33C219.07 11.76 219.5 10.54 219.5 8.72C219.5 6.57 218.18 5.11 215.82 5.11C213.64 5.11 212.39 6.25 211.46 8.11C210.03 7.61 208.03 6.43 206.81 5.43C208.67 1.82 211.6 0 215.82 0C221.86 0 225.01 3.47 225.01 8.26C225.01 11.41 224.26 13.98 221.22 17.48C219.9 19.02 217.5 21.52 214.61 24.34C217.25 24.27 223.33 24.27 225.51 24.34C225.62 25.88 225.62 28.13 225.51 29.42C223.29 29.56 209.85 29.56 206.99 29.42C206.88 27.7 206.88 26.17 206.99 24.45Z" fill="#B265A3"/>
<path d="M228.22 14.98C228.22 4 231.58 0 238.41 0C244.7 0 248.6 3.43 248.6 14.98C248.6 26.53 244.88 29.96 238.41 29.96C231.94 29.96 228.22 25.96 228.22 14.98ZM243.06 14.98C243.06 6.76 241.34 5.11 238.41 5.11C235.16 5.11 233.76 7.33 233.76 14.98C233.76 22.63 235.26 24.85 238.41 24.85C241.56 24.85 243.06 22.85 243.06 14.98Z" fill="#B265A3"/>
<path d="M251.07 24.45C254.82 20.87 258.58 17.01 260.9 14.33C263.15 11.76 263.58 10.54 263.58 8.72C263.58 6.57 262.26 5.11 259.9 5.11C257.72 5.11 256.47 6.25 255.54 8.11C254.11 7.61 252.11 6.43 250.89 5.43C252.75 1.82 255.68 0 259.9 0C265.94 0 269.09 3.47 269.09 8.26C269.09 11.41 268.34 13.98 265.3 17.48C263.98 19.02 261.58 21.52 258.69 24.34C261.34 24.27 267.41 24.27 269.59 24.34C269.7 25.88 269.7 28.13 269.59 29.42C267.37 29.56 253.93 29.56 251.07 29.42C250.96 27.7 250.96 26.17 251.07 24.45Z" fill="#B265A3"/>
<path d="M292.79 24.0302C292.25 24.0702 290.86 24.0702 289.04 24.1002C289.04 26.6402 289 28.6002 288.97 29.5702C288.01 29.6802 284.82 29.6802 283.86 29.5702C283.82 28.5302 283.79 26.5002 283.79 24.1002C278.68 24.1002 273.1 24.1002 271.81 24.0302C271.74 22.4902 271.74 20.7802 271.81 19.2002C274.31 14.6602 280.03 4.33016 282.36 0.430156C284.4 0.320156 287.04 0.320156 288.97 0.430156C289.04 4.15016 289.08 12.3702 289.08 19.2402C290.69 19.2802 292.08 19.2802 292.8 19.2802C292.91 20.8202 292.91 22.5302 292.8 24.0302H292.79ZM283.78 19.2402C283.78 14.4102 283.82 9.44016 283.85 7.51016C281.74 11.6902 279.52 15.7302 277.49 19.2702C278.42 19.2702 280.96 19.2302 283.78 19.2302V19.2402Z" fill="#B265A3"/>
<path d="M4.07 68.76C2.98 67.88 0.75 65.43 0 64.12C2.62 61.67 6.52 58.13 9.62 55.28C9.58 52.96 9.62 49.55 9.66 47.8C10.84 47.58 14.91 47.54 16.44 47.8C16.48 49.51 16.53 52.92 16.48 55.24C19.94 57.82 24.27 61.06 26.45 62.72C25.84 64.08 23.87 66.74 22.86 67.71C19.8 65.61 16.34 63.03 13.15 60.49C10.18 63.38 6.89 66.31 4.05 68.76H4.07ZM37.32 78.95C37.32 85.25 33.29 87.57 20.35 87.57C6.75 87.57 3.38 84.68 3.38 78.95C3.38 72.65 7.4 70.33 20.35 70.33C33.96 70.33 37.32 73.22 37.32 78.95ZM30.67 78.95C30.67 77.07 29.53 75.93 20.35 75.93C11.17 75.93 10.03 76.94 10.03 78.95C10.03 80.83 11.17 81.97 20.35 81.97C29.53 81.97 30.67 80.96 30.67 78.95ZM23.06 58.34C22.93 56.68 22.93 53.97 23.06 52.3C24.28 52.26 27.39 52.26 29.97 52.26C30.01 50.07 30.01 48.28 30.06 47.36C31.24 47.19 35.05 47.14 36.58 47.36C36.67 52.08 36.71 64.99 36.58 69.32C35.22 69.5 31.59 69.45 30.06 69.32C30.02 67.48 29.97 62.93 29.97 58.43C27.43 58.43 24.33 58.39 23.06 58.34Z" fill="#B265A3"/>
<path d="M40.8201 58.83C40.8201 51.61 44.4901 47.67 52.9801 47.67C61.4701 47.67 65.1401 51.61 65.1401 58.83C65.1401 66.05 61.4701 69.99 52.9801 69.99C44.4901 69.99 40.8201 66.1 40.8201 58.83ZM44.9801 72.57C46.3401 72.44 49.9201 72.44 51.5001 72.57C51.5901 74.76 51.5901 78.83 51.5001 81.19C61.1701 81.15 74.2901 81.1 77.5701 81.19C77.7401 82.77 77.7401 85.26 77.5701 86.88C74.0701 87.1 48.9601 87.1 44.9801 86.88C44.7601 83.64 44.8501 75.16 44.9801 72.57ZM58.6301 58.83C58.6301 55.02 56.9701 53.23 52.9901 53.23C49.0101 53.23 47.3501 55.02 47.3501 58.83C47.3501 62.64 48.9301 64.43 52.9901 64.43C57.0501 64.43 58.6301 62.64 58.6301 58.83ZM70.3101 47.37C71.4901 47.2 75.3001 47.15 76.8301 47.37C76.9201 52.09 76.9601 71.26 76.8301 75.59C75.4701 75.77 71.8401 75.72 70.3101 75.59C70.1801 71.83 70.1801 50.7 70.3101 47.37Z" fill="#B265A3"/>
<path d="M118.39 71.2502C116.77 71.3802 110.6 71.4302 103.65 71.4302C103.65 73.5702 103.65 75.8002 103.61 77.3402C101.99 77.4702 98.67 77.4702 96.92 77.3402C96.88 76.0302 96.83 73.7102 96.83 71.4302C89.7 71.3902 83.01 71.3402 80.78 71.2502C80.6 69.7602 80.6 67.4002 80.78 65.7802C89.88 65.6102 114.29 65.6902 118.4 65.7802C118.57 67.3102 118.57 69.5402 118.4 71.2502H118.39ZM116.86 81.1802C117.03 82.7602 117.03 85.2502 116.86 86.8702C113.36 87.0902 87.15 87.0902 83.17 86.8702C82.95 83.6302 83.04 76.7202 83.17 74.1402C84.53 74.0102 88.29 74.0502 89.86 74.1802C89.95 76.3702 89.95 79.2502 89.86 81.1802C99.53 81.1402 113.57 81.0902 116.85 81.1802H116.86ZM83.61 62.8502C83.3 58.0402 83.39 52.1802 83.61 47.7102C86.32 47.5402 113.1 47.5802 115.55 47.7102C115.81 52.4802 115.81 60.4402 115.55 62.8502C112.62 63.0302 87.03 63.0702 83.61 62.8502ZM89.91 57.6002C91.92 57.6902 107.41 57.6902 109.25 57.6002V53.0102C106.8 52.9702 92.8 52.9202 89.91 53.0102V57.6002Z" fill="#B265A3"/>
<path d="M141.06 50.5599C141.19 52.2199 141.19 54.6699 141.06 56.1999C136.6 56.2899 124.26 56.3699 121.02 56.1999C120.84 54.4499 120.84 52.1299 121.02 50.5599C122.46 50.5199 124.82 50.4699 127.58 50.4699C127.58 48.9399 127.62 47.4099 127.67 46.4899C128.85 46.2699 132.88 46.2299 134.41 46.4899C134.45 47.4099 134.5 48.9399 134.45 50.4699C136.64 50.4699 138.87 50.5099 141.06 50.5599ZM140.71 71.7799C140.71 81.6199 138.3 85.5599 131.04 85.5599C123.78 85.5599 121.37 81.6199 121.37 71.7799C121.37 61.9399 123.78 57.9999 131.04 57.9999C138.3 57.9999 140.71 61.9399 140.71 71.7799ZM134.54 71.7799C134.54 65.3899 133.75 63.5099 131.04 63.5099C128.33 63.5099 127.54 65.3899 127.54 71.7799C127.54 78.1699 128.28 80.0499 131.04 80.0499C133.8 80.0499 134.54 78.1699 134.54 71.7799ZM157.81 86.7399C156.63 86.9099 153.09 86.8299 151.55 86.7399C151.51 84.2499 151.51 76.3299 151.51 68.1899H149.1C149.1 76.1499 149.06 83.8499 149.06 86.3399C147.88 86.4699 144.34 86.4699 142.8 86.3399C142.63 81.0499 142.67 52.1699 142.8 47.5799C143.98 47.3199 147.74 47.3599 149.06 47.5799C149.1 49.7699 149.15 55.6299 149.15 62.1499C149.94 62.1499 150.77 62.1499 151.51 62.1899C151.51 55.3199 151.55 49.2399 151.55 47.3599C152.73 47.0999 156.49 47.0999 157.81 47.3599C157.9 52.8299 157.9 81.4399 157.81 86.7299V86.7399Z" fill="#B265A3"/>
<path d="M198.9 85.69C195.14 85.95 166.44 85.87 161.28 85.69C161.11 84.12 161.11 81.71 161.28 80C163.07 79.96 165.48 79.96 168.19 79.91C168.1 74.53 168.15 64.51 168.23 62.89C169.54 62.72 173.17 62.72 174.79 62.89C174.88 64.77 174.83 74.61 174.83 79.91H178.72C178.63 74.49 178.68 64.51 178.76 62.89C180.07 62.72 183.7 62.72 185.32 62.89C185.41 64.77 185.36 74.61 185.36 79.91C191.7 79.91 197.13 79.95 198.88 80C199.06 81.62 199.06 83.85 198.88 85.69H198.9ZM163.68 54.81C163.51 53.15 163.51 50.61 163.68 48.95C167.18 48.82 191.68 48.73 195.66 48.95C195.88 52.62 195.88 72.18 195.66 74.76C194.3 74.93 190.54 74.93 188.97 74.76C188.88 72.31 188.88 56.96 188.97 54.81C179.3 54.81 166.96 54.94 163.68 54.81Z" fill="#B265A3"/>
<path d="M239.15 70.1601C238.19 70.2501 235.52 70.2901 232.06 70.2901C232.1 71.3801 232.1 72.4301 232.06 73.4801C234.25 73.4801 235.95 73.5201 236.74 73.5701C237 77.2001 236.87 84.7301 236.74 86.8701C235.16 86.9601 231.62 86.9601 230.05 86.8701C229.96 84.6401 230.05 81.7901 230.05 79.1301C220.38 79.1301 207.08 79.2601 203.8 79.1301C203.62 77.4701 203.62 75.2401 203.8 73.5701C204.54 73.5301 206.29 73.4801 208.61 73.4801V70.2401C205.37 70.2401 202.75 70.2001 201.52 70.1501C201.35 68.6601 201.35 66.3001 201.52 64.6801C210.62 64.5101 235.03 64.5901 239.14 64.6801C239.31 66.2101 239.31 68.4401 239.14 70.1501L239.15 70.1601ZM203.41 54.8501C203.41 49.4301 206.87 46.8901 220.34 46.8901C233.81 46.8901 237.27 49.4301 237.27 54.8501C237.27 60.2701 233.81 62.8501 220.34 62.8501C206.87 62.8501 203.41 60.3101 203.41 54.8501ZM210.19 54.8501C210.19 56.2501 211.24 57.1201 220.34 57.1201C229.44 57.1201 230.49 56.2401 230.49 54.8501C230.49 53.4601 229.44 52.6201 220.34 52.6201C211.24 52.6201 210.19 53.5001 210.19 54.8501ZM225.24 70.3401C222.05 70.3401 218.68 70.3401 215.44 70.3001C215.48 71.3901 215.48 72.4401 215.44 73.4501H225.24V70.3401Z" fill="#B265A3"/>
<path d="M267.11 65.17C270.61 70.16 274.77 76.19 277.17 79.87C275.99 81.45 274.2 82.76 272.23 83.54C269.43 79.73 266.59 75.49 263.7 70.99C260.81 76.28 257.71 81.71 256 84.42C254.47 84.03 251.67 82.36 250.57 81.27C252.76 77.38 256.26 71.34 260.06 64.95C260.02 61.41 260.06 57.38 260.1 54.49C256.29 54.49 252.97 54.49 251.7 54.4C251.52 52.65 251.52 50.16 251.7 48.58C255.24 48.49 267.58 48.4 275.41 48.58C275.54 50.24 275.54 52.87 275.41 54.4C273.79 54.44 270.6 54.44 267.05 54.49C267.09 57.51 267.14 61.66 267.09 65.16L267.11 65.17ZM286.84 86.74C285.48 86.91 281.81 86.87 280.28 86.74C280.1 81.66 280.15 52.44 280.28 47.37C281.46 47.11 285.31 47.15 286.84 47.37C287.01 53.36 287.01 81.54 286.84 86.74Z" fill="#B265A3"/>
<path d="M302.47 69.64C297.88 69.64 293.55 69.6001 291.27 69.5501C291.05 67.9301 291.05 65.6601 291.27 64.0401C294.86 63.9101 314.89 63.9501 318.66 64.0401C318.83 65.8801 318.83 67.9801 318.66 69.5501C317.3 69.5901 313.54 69.64 309.12 69.64C309.12 71.96 309.12 74.7101 309.08 75.9001C307.33 76.1201 304.18 76.1201 302.56 75.9001C302.52 74.6301 302.47 71.96 302.47 69.64ZM292.5 55.03C292.5 50.04 296.26 47.2401 304.88 47.2401C313.5 47.2401 317.26 50.04 317.26 55.03C317.26 60.02 313.5 62.82 304.88 62.82C296.26 62.82 292.5 60.11 292.5 55.03ZM328.29 86.88C324.79 87.1 298.37 87.1 294.39 86.88C294.17 83.21 294.26 76.16 294.39 74.02C295.75 73.89 299.33 73.89 300.91 74.02C300.95 75.24 300.95 79.6601 300.91 81.1901C310.58 81.1501 325.01 81.1001 328.29 81.1901C328.47 82.9001 328.47 85.26 328.29 86.88ZM298.67 55.03C298.67 56.56 300.07 57.2201 304.88 57.2201C309.69 57.2201 311.09 56.56 311.09 55.03C311.09 53.5 309.6 52.8401 304.88 52.8401C300.16 52.8401 298.67 53.54 298.67 55.03ZM320.98 70.95C320.94 62.59 320.98 50.65 321.02 47.37C322.2 47.11 326.01 47.11 327.54 47.37C327.67 52.79 327.67 73.14 327.54 78.43C326.18 78.6 322.55 78.5201 321.02 78.43C321.02 77.91 321.02 77.25 320.98 76.42C317.74 76.51 313.85 76.51 312.84 76.42C312.67 74.71 312.67 72.6101 312.84 71C314.2 70.96 318 70.91 320.98 70.96V70.95Z" fill="#B265A3"/>
<path d="M347.53 63.29C350.94 68.8 355.8 76.37 358.03 80.22C356.98 81.44 354.09 83.41 352.87 83.81C351.25 81.54 347.36 75.37 344.08 69.68C341.32 75.59 338.09 81.97 336.6 84.42C335.33 84.11 332.14 82.58 331.04 81.45C333.1 77.34 337.51 68.68 340.49 62.81C340.45 57.34 340.49 50.47 340.58 48.42C341.76 48.2 345.92 48.16 347.45 48.42C347.54 50.87 347.58 57.91 347.54 63.29H347.53ZM370.28 68.1C369.58 68.19 368.22 68.23 366.39 68.23C366.39 76.37 366.35 84.24 366.26 86.74C364.9 86.91 361.23 86.87 359.7 86.74C359.53 81.66 359.57 52.44 359.7 47.37C360.88 47.11 364.73 47.15 366.26 47.37C366.35 49.69 366.39 55.42 366.39 61.81C368.01 61.81 369.32 61.85 370.28 61.9C370.45 63.56 370.45 66.45 370.28 68.11V68.1Z" fill="#B265A3"/>
<path d="M383.85 67.23C375.63 67.23 372.04 63.77 372.04 57.43C372.04 51.09 375.63 47.63 383.85 47.63C392.07 47.63 395.66 51.13 395.66 57.43C395.66 63.73 392.07 67.23 383.85 67.23ZM408.04 86.87C405.11 87.13 378.95 87.18 375.54 86.87C375.32 82.1 375.32 72.74 375.54 69.59C376.72 69.42 380.96 69.5 381.97 69.59V72.92C387.48 72.88 396.1 72.88 401.61 72.92V69.59C403.89 69.5 406.42 69.5 408.04 69.59C408.17 74.31 408.21 81.8 408.04 86.87ZM383.85 61.72C387.7 61.72 389.32 60.23 389.32 57.43C389.32 54.63 387.7 53.14 383.85 53.14C380 53.14 378.38 54.63 378.38 57.43C378.38 60.23 379.91 61.72 383.85 61.72ZM381.97 81.41C386.04 81.5 398.42 81.5 401.61 81.41V78.35C395.79 78.39 387.39 78.39 381.97 78.35V81.41ZM396.71 60.28C396.58 58.62 396.58 55.91 396.71 54.24C397.8 54.2 399.55 54.2 401.43 54.2C401.43 51.22 401.47 48.6 401.52 47.37C402.7 47.2 406.51 47.15 408.04 47.37C408.13 52.09 408.17 63.25 408.04 67.58C406.68 67.76 403.05 67.71 401.52 67.58C401.48 66.18 401.43 63.42 401.43 60.36C399.59 60.36 397.84 60.32 396.71 60.27V60.28Z" fill="#B265A3"/>
<path d="M458.79 71.4699C457.17 71.5999 451 71.6499 444.05 71.6499C444.05 73.7499 444.05 75.8499 444.01 77.3399C442.39 77.4699 439.07 77.4699 437.32 77.3399C437.28 76.0699 437.23 73.8399 437.23 71.6499C430.1 71.6099 423.41 71.5599 421.17 71.4699C421 69.9799 421 67.6199 421.17 65.9999C430.27 65.8299 454.68 65.9099 458.79 65.9999C458.96 67.5299 458.96 69.7599 458.79 71.4699ZM423.05 55.2399C423.05 49.5499 426.51 46.8799 439.98 46.8799C453.45 46.8799 456.91 49.5499 456.91 55.2399C456.91 60.9299 453.45 63.6399 439.98 63.6399C426.51 63.6399 423.05 60.9699 423.05 55.2399ZM457.26 81.1799C457.43 82.7599 457.43 85.2499 457.26 86.8699C453.76 87.0899 427.56 87.0899 423.57 86.8699C423.35 83.6299 423.44 76.9399 423.57 74.3599C424.93 74.2299 428.69 74.2699 430.26 74.3999C430.35 76.5899 430.35 79.2599 430.26 81.1799C439.93 81.1399 453.97 81.0899 457.25 81.1799H457.26ZM429.83 55.2399C429.83 56.9499 430.88 57.9099 439.98 57.9099C449.08 57.9099 450.13 56.9499 450.13 55.2399C450.13 53.5299 449.08 52.6199 439.98 52.6199C430.88 52.6199 429.83 53.5799 429.83 55.2399Z" fill="#B265A3"/>
<path d="M473.54 67.58C465.32 67.58 461.73 64.08 461.73 57.61C461.73 51.14 465.32 47.64 473.54 47.64C481.76 47.64 485.35 51.18 485.35 57.61C485.35 64.04 481.76 67.58 473.54 67.58ZM498.48 78.74C498.48 85.21 494.46 87.58 481.51 87.58C467.9 87.58 464.54 84.6 464.54 78.74C464.54 72.31 468.57 69.95 481.51 69.95C495.12 69.95 498.48 72.92 498.48 78.74ZM473.54 62.07C477.39 62.07 479.01 60.45 479.01 57.61C479.01 54.77 477.39 53.15 473.54 53.15C469.69 53.15 468.07 54.77 468.07 57.61C468.07 60.45 469.6 62.07 473.54 62.07ZM491.83 78.74C491.83 76.68 490.69 75.55 481.51 75.55C472.33 75.55 471.19 76.56 471.19 78.74C471.19 80.92 472.33 81.98 481.51 81.98C490.69 81.98 491.83 80.97 491.83 78.74ZM491.13 59.88V56.16C489.29 56.16 487.54 56.12 486.41 56.07C486.28 54.41 486.28 51.87 486.41 50.21C487.5 50.17 489.3 50.17 491.18 50.17C491.18 48.95 491.18 47.98 491.22 47.37C492.4 47.2 496.21 47.15 497.74 47.37C497.83 52.09 497.87 65 497.74 69.33C496.38 69.51 492.75 69.46 491.22 69.33C491.18 68.59 491.18 67.36 491.18 65.87C489.34 65.87 487.55 65.83 486.41 65.78C486.28 64.12 486.28 61.58 486.41 59.92C487.5 59.88 489.25 59.88 491.13 59.88Z" fill="#B265A3"/>
<path d="M154.14 123.26C153.05 122.38 150.82 119.93 150.07 118.62C152.69 116.17 156.59 112.63 159.69 109.78C159.65 107.46 159.69 104.05 159.73 102.3C160.91 102.08 164.98 102.04 166.51 102.3C166.55 104.01 166.6 107.42 166.55 109.74C170.01 112.32 174.34 115.56 176.52 117.22C175.91 118.58 173.94 121.24 172.93 122.21C169.87 120.11 166.41 117.53 163.22 114.99C160.25 117.88 156.96 120.81 154.12 123.26H154.14ZM187.39 133.45C187.39 139.75 183.37 142.07 170.42 142.07C156.82 142.07 153.45 139.18 153.45 133.45C153.45 127.15 157.48 124.83 170.42 124.83C184.03 124.83 187.39 127.72 187.39 133.45ZM180.74 133.45C180.74 131.57 179.6 130.43 170.42 130.43C161.24 130.43 160.1 131.44 160.1 133.45C160.1 135.33 161.24 136.47 170.42 136.47C179.6 136.47 180.74 135.46 180.74 133.45ZM173.13 112.84C173 111.18 173 108.47 173.13 106.8C174.36 106.76 177.46 106.76 180.04 106.76C180.08 104.57 180.08 102.78 180.13 101.86C181.31 101.69 185.12 101.64 186.65 101.86C186.74 106.58 186.78 119.49 186.65 123.82C185.29 124 181.66 123.95 180.13 123.82C180.09 121.98 180.04 117.43 180.04 112.93C177.5 112.93 174.4 112.89 173.13 112.84Z" fill="#FFAA00"/>
<path d="M216.49 132.41C216.67 134.25 216.67 136.43 216.49 138.1C214.13 138.27 197.33 138.27 190.64 138.1C190.42 136.39 190.42 134.03 190.64 132.41C191.73 132.37 194.23 132.32 197.29 132.28C197.2 127.73 197.25 118.06 197.33 116.31C198.64 116.14 202.27 116.14 203.89 116.31C203.98 118.32 203.93 127.82 203.89 132.28C209.31 132.28 214.65 132.32 216.49 132.41ZM191.99 108.79C191.82 107.08 191.82 104.63 191.99 103.02C195.49 102.85 210.19 102.8 214.04 103.02C214.35 108.09 214.43 119.73 214.17 124.81C212.6 124.98 209.23 124.98 207.65 124.81C207.65 121.57 207.69 111.99 207.65 108.8C204.94 108.89 195.31 108.89 191.99 108.8V108.79ZM229.39 122.61C228.69 122.7 227.33 122.74 225.5 122.74C225.5 130.88 225.46 138.75 225.37 141.25C224.01 141.42 220.34 141.38 218.81 141.25C218.64 136.17 218.68 106.95 218.81 101.88C219.99 101.62 223.84 101.66 225.37 101.88C225.46 104.2 225.5 109.93 225.5 116.32C227.12 116.32 228.43 116.36 229.39 116.41C229.56 118.07 229.56 120.96 229.39 122.62V122.61Z" fill="#FFAA00"/>
<path d="M268.47 122.83C264.71 123.09 236.01 123 230.85 122.83C230.68 121.34 230.68 118.81 230.85 117.19C234.04 117.15 239.12 117.1 244.54 117.1C244.54 114.65 244.58 111.76 244.63 111.02C246.07 110.85 249.84 110.85 251.32 111.02C251.36 111.9 251.36 114.74 251.36 117.1C259.19 117.1 266.41 117.14 268.47 117.19C268.64 118.72 268.64 121.13 268.47 122.83ZM266.85 133.72C266.85 139.67 262.74 141.9 249.66 141.9C235.92 141.9 232.47 139.1 232.47 133.72C232.47 127.81 236.58 125.58 249.66 125.58C263.4 125.58 266.85 128.38 266.85 133.72ZM233.69 107.91C233.52 106.25 233.52 103.89 233.69 102.22C237.19 102 261.21 102.05 265.19 102.22C265.41 105.94 265.41 113.03 265.19 115.13C263.92 115.26 259.85 115.26 258.58 115.13C258.54 112.77 258.54 110.14 258.58 107.91C248.91 107.95 236.97 108.04 233.69 107.91ZM260.2 133.72C260.2 131.88 258.98 131.01 249.66 131.01C240.34 131.01 239.12 131.8 239.12 133.72C239.12 135.64 240.35 136.48 249.66 136.48C258.97 136.48 260.2 135.69 260.2 133.72Z" fill="#FFAA00"/>
<path d="M308.72 132.32C307.8 132.36 305.31 132.41 302.07 132.45C302.07 135.6 302.11 139.67 302.03 141.46C300.59 141.55 297.09 141.55 295.34 141.46C295.25 139.93 295.25 135.73 295.25 132.49C291.79 132.49 288.08 132.49 284.58 132.45C284.58 135.6 284.62 139.67 284.54 141.46C283.1 141.55 279.6 141.55 277.85 141.46C277.76 139.93 277.76 135.68 277.81 132.4C274.7 132.4 272.3 132.36 271.12 132.31C270.94 130.73 270.94 128.33 271.12 126.62C280.22 126.45 304.63 126.53 308.74 126.62C308.91 128.24 308.91 130.47 308.74 132.31L308.72 132.32ZM272.54 112.9C272.54 105.81 276.52 102.49 289.91 102.49C303.3 102.49 307.28 105.82 307.28 112.9C307.28 119.98 303.3 123.31 289.91 123.31C276.52 123.31 272.54 119.98 272.54 112.9ZM279.32 112.9C279.32 116.36 281.38 117.45 289.91 117.45C298.44 117.45 300.5 116.36 300.5 112.9C300.5 109.44 298.44 108.35 289.91 108.35C281.38 108.35 279.32 109.44 279.32 112.9Z" fill="#FFAA00"/>
<path d="M338.56 132.41C338.73 134.25 338.73 136.43 338.56 138.1C336.2 138.27 318.09 138.27 311.39 138.1C311.17 136.39 311.17 134.03 311.39 132.41C312.83 132.32 316.95 132.28 321.54 132.28V127.73C315.15 127.16 312.7 124.76 312.7 119.59C312.7 113.6 315.98 111.32 324.91 111.32C333.84 111.32 337.12 113.6 337.12 119.59C337.12 124.75 334.71 127.16 328.37 127.73V132.28C332.96 132.28 337.03 132.32 338.56 132.41ZM311.79 110.01C311.61 108.35 311.61 106.12 311.79 104.5C312.67 104.46 316.69 104.41 321.41 104.41C321.41 103.32 321.41 102.18 321.5 101.22C322.68 100.96 326.62 100.96 328.37 101.22C328.41 102.14 328.46 103.28 328.41 104.41C332.17 104.41 335.58 104.45 337.33 104.5C337.42 106.03 337.46 108.52 337.33 110.01C333.52 110.1 314.36 110.1 311.78 110.01H311.79ZM324.91 122.56C329.72 122.56 330.99 121.68 330.99 119.59C330.99 117.5 329.72 116.62 324.91 116.62C320.1 116.62 318.83 117.5 318.83 119.59C318.83 121.68 320.1 122.56 324.91 122.56ZM347.35 141.24C345.99 141.41 342.28 141.37 340.74 141.24C340.52 136.12 340.57 106.9 340.74 101.87C341.92 101.61 345.82 101.61 347.35 101.87C347.48 107.73 347.48 135.95 347.35 141.24Z" fill="#FFAA00"/>
</svg>
