<svg width="231" height="596" viewBox="0 0 231 596" fill="none" xmlns="http://www.w3.org/2000/svg">
<path d="M230.37 -236.9H0.320312V569.84H230.37V-236.9Z" fill="black"/>
<path d="M230.37 -236.9H0.320312V569.84H230.37V-236.9Z" fill="#4D4D4D"/>
<path d="M230.37 -236.9H207.13V569.84H230.37V-236.9Z" fill="#E6E6E6"/>
<g style="mix-blend-mode:multiply" opacity="0.4">
<path d="M228.899 -236.9H208.6V569.84H228.899V-236.9Z" fill="#999999"/>
</g>
<path style="mix-blend-mode:multiply" opacity="0.3" d="M228.91 -236.9H218.061V569.84H228.91V-236.9Z" fill="url(#paint0_linear_63_1283)"/>
<path style="mix-blend-mode:screen" opacity="0.8" d="M230.37 -236.9H228.9V569.84H230.37V-236.9Z" fill="url(#paint1_linear_63_1283)"/>
<path style="mix-blend-mode:screen" d="M218.06 -236.9H208.6V569.84H218.06V-236.9Z" fill="url(#paint2_linear_63_1283)"/>
<path d="M206.67 -236.9H190.87V569.84H206.67V-236.9Z" fill="#E6E6E6"/>
<g style="mix-blend-mode:multiply" opacity="0.4">
<path d="M205.2 -236.9H192.33V569.84H205.2V-236.9Z" fill="#999999"/>
</g>
<path style="mix-blend-mode:multiply" opacity="0.3" d="M205.2 -236.9H198.07V569.84H205.2V-236.9Z" fill="url(#paint3_linear_63_1283)"/>
<path style="mix-blend-mode:screen" opacity="0.8" d="M206.67 -236.9H205.2V569.84H206.67V-236.9Z" fill="url(#paint4_linear_63_1283)"/>
<path style="mix-blend-mode:screen" d="M198.07 -236.9H192.33V569.84H198.07V-236.9Z" fill="url(#paint5_linear_63_1283)"/>
<path d="M190.4 -236.9H139.28V569.84H190.4V-236.9Z" fill="#E6E6E6"/>
<g style="mix-blend-mode:multiply" opacity="0.4">
<path d="M188.94 -236.9H140.75V569.84H188.94V-236.9Z" fill="#999999"/>
</g>
<path style="mix-blend-mode:multiply" opacity="0.3" d="M188.93 -236.9H159.5V569.84H188.93V-236.9Z" fill="url(#paint6_linear_63_1283)"/>
<path style="mix-blend-mode:screen" opacity="0.8" d="M190.4 -236.9H188.93V569.84H190.4V-236.9Z" fill="url(#paint7_linear_63_1283)"/>
<path style="mix-blend-mode:screen" d="M159.5 -236.9H140.75V569.84H159.5V-236.9Z" fill="url(#paint8_linear_63_1283)"/>
<path d="M138.82 -236.9H115.58V569.84H138.82V-236.9Z" fill="#E6E6E6"/>
<g style="mix-blend-mode:multiply" opacity="0.4">
<path d="M137.34 -236.9H117.04V569.84H137.34V-236.9Z" fill="#999999"/>
</g>
<path style="mix-blend-mode:multiply" opacity="0.3" d="M137.35 -236.9H126.5V569.84H137.35V-236.9Z" fill="url(#paint9_linear_63_1283)"/>
<path style="mix-blend-mode:screen" opacity="0.8" d="M138.82 -236.9H137.35V569.84H138.82V-236.9Z" fill="url(#paint10_linear_63_1283)"/>
<path style="mix-blend-mode:screen" d="M126.5 -236.9H117.04V569.84H126.5V-236.9Z" fill="url(#paint11_linear_63_1283)"/>
<path d="M115.11 -236.9H103.03V569.84H115.11V-236.9Z" fill="#E6E6E6"/>
<g style="mix-blend-mode:multiply" opacity="0.4">
<path d="M113.65 -236.9H104.5V569.84H113.65V-236.9Z" fill="#999999"/>
</g>
<path style="mix-blend-mode:multiply" opacity="0.3" d="M113.65 -236.9H108.38V569.84H113.65V-236.9Z" fill="url(#paint12_linear_63_1283)"/>
<path style="mix-blend-mode:screen" opacity="0.8" d="M115.12 -236.9H113.65V569.84H115.12V-236.9Z" fill="url(#paint13_linear_63_1283)"/>
<path style="mix-blend-mode:screen" d="M108.38 -236.9H104.5V569.84H108.38V-236.9Z" fill="url(#paint14_linear_63_1283)"/>
<path d="M102.56 -236.9H70.0303V569.84H102.56V-236.9Z" fill="#E6E6E6"/>
<g style="mix-blend-mode:multiply" opacity="0.4">
<path d="M101.1 -236.9H71.5V569.84H101.1V-236.9Z" fill="#999999"/>
</g>
<path style="mix-blend-mode:multiply" opacity="0.3" d="M101.1 -236.9H90.25V569.84H101.1V-236.9Z" fill="url(#paint15_linear_63_1283)"/>
<path style="mix-blend-mode:screen" opacity="0.8" d="M102.57 -236.9H101.1V569.84H102.57V-236.9Z" fill="url(#paint16_linear_63_1283)"/>
<path style="mix-blend-mode:screen" d="M90.25 -236.9H71.5V569.84H90.25V-236.9Z" fill="url(#paint17_linear_63_1283)"/>
<path d="M69.5706 -236.9H9.15039V569.84H69.5706V-236.9Z" fill="#E6E6E6"/>
<g style="mix-blend-mode:multiply" opacity="0.4">
<path d="M68.1003 -236.9H10.6201V569.84H68.1003V-236.9Z" fill="#999999"/>
</g>
<path style="mix-blend-mode:multiply" opacity="0.3" d="M68.1003 -236.9H29.3701V569.84H68.1003V-236.9Z" fill="url(#paint18_linear_63_1283)"/>
<path style="mix-blend-mode:screen" opacity="0.8" d="M69.5696 -236.9H68.0996V569.84H69.5696V-236.9Z" fill="url(#paint19_linear_63_1283)"/>
<path style="mix-blend-mode:screen" d="M29.3701 -236.9H10.6201V569.84H29.3701V-236.9Z" fill="url(#paint20_linear_63_1283)"/>
<path d="M8.69019 -236.9H0.320312V569.84H8.69019V-236.9Z" fill="#E6E6E6"/>
<g style="mix-blend-mode:multiply" opacity="0.4">
<path d="M7.21997 -236.9H1.79004V569.84H7.21997V-236.9Z" fill="#999999"/>
</g>
<path style="mix-blend-mode:multiply" opacity="0.3" d="M7.22046 -236.9H3.81055V569.84H7.22046V-236.9Z" fill="url(#paint21_linear_63_1283)"/>
<path style="mix-blend-mode:screen" opacity="0.8" d="M8.6897 -236.9H7.21973V569.84H8.6897V-236.9Z" fill="url(#paint22_linear_63_1283)"/>
<path style="mix-blend-mode:screen" d="M3.81006 -236.9H1.79004V569.84H3.81006V-236.9Z" fill="url(#paint23_linear_63_1283)"/>
<path fill-rule="evenodd" clip-rule="evenodd" d="M230.46 569.91V595.61H0.410156V569.91H230.46Z" fill="#666666"/>
<g style="mix-blend-mode:screen" opacity="0.2">
<path fill-rule="evenodd" clip-rule="evenodd" d="M230.46 569.91V572.48H0.410156V569.91H230.46Z" fill="white"/>
</g>
<g style="mix-blend-mode:screen" opacity="0.2">
<path fill-rule="evenodd" clip-rule="evenodd" d="M230.46 579.54V582.11H0.410156V579.54H230.46Z" fill="white"/>
</g>
<defs>
<linearGradient id="paint0_linear_63_1283" x1="218.061" y1="166.48" x2="228.9" y2="166.48" gradientUnits="userSpaceOnUse">
<stop stop-color="white"/>
<stop offset="1"/>
</linearGradient>
<linearGradient id="paint1_linear_63_1283" x1="230.57" y1="1036.24" x2="228.961" y2="1035.62" gradientUnits="userSpaceOnUse">
<stop stop-color="white"/>
<stop offset="1"/>
</linearGradient>
<linearGradient id="paint2_linear_63_1283" x1="208.6" y1="166.48" x2="218.06" y2="166.48" gradientUnits="userSpaceOnUse">
<stop stop-color="white"/>
<stop offset="0.17" stop-color="#BCBCBC"/>
<stop offset="0.33" stop-color="#828282"/>
<stop offset="0.49" stop-color="#545454"/>
<stop offset="0.64" stop-color="#2F2F2F"/>
<stop offset="0.78" stop-color="#151515"/>
<stop offset="0.9" stop-color="#050505"/>
<stop offset="1"/>
</linearGradient>
<linearGradient id="paint3_linear_63_1283" x1="198.08" y1="166.48" x2="205.2" y2="166.48" gradientUnits="userSpaceOnUse">
<stop stop-color="white"/>
<stop offset="1"/>
</linearGradient>
<linearGradient id="paint4_linear_63_1283" x1="206.863" y1="1036.24" x2="205.247" y2="1035.62" gradientUnits="userSpaceOnUse">
<stop stop-color="white"/>
<stop offset="1"/>
</linearGradient>
<linearGradient id="paint5_linear_63_1283" x1="192.34" y1="166.48" x2="198.08" y2="166.48" gradientUnits="userSpaceOnUse">
<stop stop-color="white"/>
<stop offset="0.17" stop-color="#BCBCBC"/>
<stop offset="0.33" stop-color="#828282"/>
<stop offset="0.49" stop-color="#545454"/>
<stop offset="0.64" stop-color="#2F2F2F"/>
<stop offset="0.78" stop-color="#151515"/>
<stop offset="0.9" stop-color="#050505"/>
<stop offset="1"/>
</linearGradient>
<linearGradient id="paint6_linear_63_1283" x1="159.5" y1="166.48" x2="188.94" y2="166.48" gradientUnits="userSpaceOnUse">
<stop stop-color="white"/>
<stop offset="1"/>
</linearGradient>
<linearGradient id="paint7_linear_63_1283" x1="190.587" y1="1036.24" x2="188.971" y2="1035.62" gradientUnits="userSpaceOnUse">
<stop stop-color="white"/>
<stop offset="1"/>
</linearGradient>
<linearGradient id="paint8_linear_63_1283" x1="140.75" y1="166.48" x2="159.5" y2="166.48" gradientUnits="userSpaceOnUse">
<stop stop-color="white"/>
<stop offset="0.17" stop-color="#BCBCBC"/>
<stop offset="0.33" stop-color="#828282"/>
<stop offset="0.49" stop-color="#545454"/>
<stop offset="0.64" stop-color="#2F2F2F"/>
<stop offset="0.78" stop-color="#151515"/>
<stop offset="0.9" stop-color="#050505"/>
<stop offset="1"/>
</linearGradient>
<linearGradient id="paint9_linear_63_1283" x1="126.51" y1="166.48" x2="137.35" y2="166.48" gradientUnits="userSpaceOnUse">
<stop stop-color="white"/>
<stop offset="1"/>
</linearGradient>
<linearGradient id="paint10_linear_63_1283" x1="138.98" y1="1036.24" x2="137.371" y2="1035.62" gradientUnits="userSpaceOnUse">
<stop stop-color="white"/>
<stop offset="1"/>
</linearGradient>
<linearGradient id="paint11_linear_63_1283" x1="117.05" y1="166.48" x2="126.51" y2="166.48" gradientUnits="userSpaceOnUse">
<stop stop-color="white"/>
<stop offset="0.17" stop-color="#BCBCBC"/>
<stop offset="0.33" stop-color="#828282"/>
<stop offset="0.49" stop-color="#545454"/>
<stop offset="0.64" stop-color="#2F2F2F"/>
<stop offset="0.78" stop-color="#151515"/>
<stop offset="0.9" stop-color="#050505"/>
<stop offset="1"/>
</linearGradient>
<linearGradient id="paint12_linear_63_1283" x1="108.38" y1="166.48" x2="113.65" y2="166.48" gradientUnits="userSpaceOnUse">
<stop stop-color="white"/>
<stop offset="1"/>
</linearGradient>
<linearGradient id="paint13_linear_63_1283" x1="115.273" y1="1036.24" x2="113.657" y2="1035.62" gradientUnits="userSpaceOnUse">
<stop stop-color="white"/>
<stop offset="1"/>
</linearGradient>
<linearGradient id="paint14_linear_63_1283" x1="104.5" y1="166.48" x2="108.38" y2="166.48" gradientUnits="userSpaceOnUse">
<stop stop-color="white"/>
<stop offset="0.17" stop-color="#BCBCBC"/>
<stop offset="0.33" stop-color="#828282"/>
<stop offset="0.49" stop-color="#545454"/>
<stop offset="0.64" stop-color="#2F2F2F"/>
<stop offset="0.78" stop-color="#151515"/>
<stop offset="0.9" stop-color="#050505"/>
<stop offset="1"/>
</linearGradient>
<linearGradient id="paint15_linear_63_1283" x1="90.26" y1="166.48" x2="101.1" y2="166.48" gradientUnits="userSpaceOnUse">
<stop stop-color="white"/>
<stop offset="1"/>
</linearGradient>
<linearGradient id="paint16_linear_63_1283" x1="102.717" y1="1036.24" x2="101.101" y2="1035.62" gradientUnits="userSpaceOnUse">
<stop stop-color="white"/>
<stop offset="1"/>
</linearGradient>
<linearGradient id="paint17_linear_63_1283" x1="71.5" y1="166.48" x2="90.26" y2="166.48" gradientUnits="userSpaceOnUse">
<stop stop-color="white"/>
<stop offset="0.17" stop-color="#BCBCBC"/>
<stop offset="0.33" stop-color="#828282"/>
<stop offset="0.49" stop-color="#545454"/>
<stop offset="0.64" stop-color="#2F2F2F"/>
<stop offset="0.78" stop-color="#151515"/>
<stop offset="0.9" stop-color="#050505"/>
<stop offset="1"/>
</linearGradient>
<linearGradient id="paint18_linear_63_1283" x1="29.3701" y1="166.48" x2="68.1003" y2="166.48" gradientUnits="userSpaceOnUse">
<stop stop-color="white"/>
<stop offset="1"/>
</linearGradient>
<linearGradient id="paint19_linear_63_1283" x1="69.7096" y1="1036.24" x2="68.0936" y2="1035.62" gradientUnits="userSpaceOnUse">
<stop stop-color="white"/>
<stop offset="1"/>
</linearGradient>
<linearGradient id="paint20_linear_63_1283" x1="10.6201" y1="166.48" x2="29.3701" y2="166.48" gradientUnits="userSpaceOnUse">
<stop stop-color="white"/>
<stop offset="0.17" stop-color="#BCBCBC"/>
<stop offset="0.33" stop-color="#828282"/>
<stop offset="0.49" stop-color="#545454"/>
<stop offset="0.64" stop-color="#2F2F2F"/>
<stop offset="0.78" stop-color="#151515"/>
<stop offset="0.9" stop-color="#050505"/>
<stop offset="1"/>
</linearGradient>
<linearGradient id="paint21_linear_63_1283" x1="3.81055" y1="166.48" x2="7.22046" y2="166.48" gradientUnits="userSpaceOnUse">
<stop stop-color="white"/>
<stop offset="1"/>
</linearGradient>
<linearGradient id="paint22_linear_63_1283" x1="8.80222" y1="1036.24" x2="7.18621" y2="1035.62" gradientUnits="userSpaceOnUse">
<stop stop-color="white"/>
<stop offset="1"/>
</linearGradient>
<linearGradient id="paint23_linear_63_1283" x1="1.79004" y1="166.48" x2="3.81006" y2="166.48" gradientUnits="userSpaceOnUse">
<stop stop-color="white"/>
<stop offset="0.17" stop-color="#BCBCBC"/>
<stop offset="0.33" stop-color="#828282"/>
<stop offset="0.49" stop-color="#545454"/>
<stop offset="0.64" stop-color="#2F2F2F"/>
<stop offset="0.78" stop-color="#151515"/>
<stop offset="0.9" stop-color="#050505"/>
<stop offset="1"/>
</linearGradient>
</defs>
</svg>
