<svg width="946" height="55" viewBox="0 0 946 55" fill="none" xmlns="http://www.w3.org/2000/svg">
<path d="M576.48 9.61C578.94 9.61 580.31 11.36 580.31 13.66L580.32 13.65V16.01C580.32 19.67 579.06 22.25 572.87 27.67C563.56 35.89 562.68 39.01 562.68 43.17V52.54H590.28V44.93H572.92V43.18C572.92 40.67 574.372 39.1883 578.588 34.8875C579.344 34.1164 580.189 33.2546 581.13 32.28C587.32 25.88 590.17 22.59 590.17 16.02V13.66C590.17 6.11 584.2 2 576.48 2C568.76 2 563.17 6.1 563.17 13.66V17.55H572.59V13.66C572.59 11.36 574.02 9.61 576.48 9.61Z" fill="#333333"/>
<path d="M491.16 52.7701H501.02V3.1001H491.87C491.87 5.9401 488.7 8.3001 485.41 8.3001V15.4201H491.16V52.7701Z" fill="#333333"/>
<path d="M510.98 52.7701H520.84V3.1001H511.69C511.69 5.9401 508.52 8.3001 505.23 8.3001V15.4201H510.98V52.7701Z" fill="#333333"/>
<path d="M526.92 51.6201V42.3701H536.12V51.6201H526.92Z" fill="#333333"/>
<path fill-rule="evenodd" clip-rule="evenodd" d="M603.579 39.3498V42.6398C603.579 44.9398 605.389 46.6398 607.849 46.6398C610.309 46.6398 612.119 44.9398 612.119 42.6398V32.8898C610.309 33.8798 608.119 34.7498 605.489 34.7498C597.769 34.7498 594.039 30.6998 594.039 23.0898V13.6698C594.039 6.10977 600.229 2.00977 607.839 2.00977C615.449 2.00977 621.589 6.11977 621.589 13.6698V42.1998C621.589 49.7598 615.459 53.8698 607.839 53.8698C600.219 53.8698 594.089 49.7598 594.089 42.1998V39.3498H603.579ZM612.129 23.7398V13.2298C612.129 10.9798 610.319 9.22977 607.859 9.22977C605.399 9.22977 603.529 10.9798 603.529 13.2298V23.5198C603.529 25.8798 605.339 27.5698 607.799 27.5698C610.259 27.5698 612.019 26.0398 612.129 23.7398Z" fill="#333333"/>
<path d="M627.131 42.3701V51.6201H636.331V42.3701H627.131Z" fill="#333333"/>
<path d="M696.561 33.5402C697.871 23.7902 702.531 20.4502 706.911 20.4502C710.929 20.4502 713.797 22.3627 716.193 23.9603C717.912 25.1062 719.388 26.0902 720.871 26.0902C723.391 26.0902 724.541 24.2302 725.141 20.7802H731.441C730.181 30.4702 725.141 33.8102 721.251 33.8102C717.635 33.8102 714.806 32.016 712.338 30.4515C710.431 29.2422 708.741 28.1702 707.071 28.1702C705.211 28.1702 703.671 28.9402 702.851 33.5402H696.561Z" fill="#333333"/>
<path d="M756.85 52.7701H766.71V3.1001H757.56C757.56 5.9401 754.39 8.3001 751.1 8.3001V15.4201H756.85V52.7701Z" fill="#333333"/>
<path d="M789.05 13.66C789.05 11.36 787.68 9.61 785.22 9.61C782.76 9.61 781.33 11.36 781.33 13.66V17.55H771.91V13.66C771.91 6.1 777.5 2 785.22 2C792.94 2 798.91 6.11 798.91 13.66V16.02C798.91 22.59 796.06 25.88 789.87 32.28C788.93 33.2536 788.086 34.1147 787.33 34.8852L787.328 34.8873C783.113 39.1881 781.66 40.67 781.66 43.18V44.93H799.02V52.54H771.42V43.17C771.42 39.01 772.3 35.89 781.61 27.67C787.8 22.25 789.06 19.67 789.06 16.01V13.65L789.05 13.66Z" fill="#333333"/>
<path d="M803.24 42.3701V51.6201H812.44V42.3701H803.24Z" fill="#333333"/>
<path d="M854.11 52.7701H844.25V15.4201H838.5V8.3001C841.79 8.3001 844.96 5.9401 844.96 3.1001H854.11V52.7701Z" fill="#333333"/>
<path d="M869.83 22.2V29.76L869.84 29.75L873.07 29.97C875.69 30.08 878.05 31.62 878.05 34.08V42.19C878.05 44.49 876.18 46.24 873.61 46.24C871.04 46.24 869.12 44.49 869.12 42.19V36.33H859.26V42.19C859.26 49.75 865.89 53.86 873.61 53.86C881.33 53.86 887.9 49.75 887.9 42.19V34.58C887.9 29.87 885.49 27.3 882.2 25.93C885.15 24.56 887.4 21.88 887.4 17.55V13.66C887.4 6.11 881.27 2 873.6 2C865.93 2 859.8 6.1 859.8 13.66V17H869.27V13.28C869.27 10.98 871.08 9.23 873.6 9.23C876.12 9.23 877.93 10.98 877.93 13.28V18.04C877.93 20.34 875.53 21.82 873.28 21.98L869.83 22.2Z" fill="#333333"/>
<path d="M892.82 51.6201V42.3701H902.02V51.6201H892.82Z" fill="#333333"/>
<path d="M654.039 41.6099H667.499V43.8299L654.039 44.2999V41.6099Z" fill="#333333"/>
<path fill-rule="evenodd" clip-rule="evenodd" d="M641.779 16.0498V54.0498H679.779V16.0498H641.779ZM648.629 21.6998H672.969L671.899 30.7998H666.499L667.189 25.7698H648.629V21.6998ZM672.819 48.4098H667.499V47.6298L648.709 48.4098V37.8598H672.819V48.4098ZM674.029 36.0098H647.529V31.7298H674.029V36.0098Z" fill="#333333"/>
<path d="M920.039 41.6099H933.499V43.8299L920.039 44.2999V41.6099Z" fill="#333333"/>
<path fill-rule="evenodd" clip-rule="evenodd" d="M907.779 16.0498V54.0498H945.779V16.0498H907.779ZM914.629 21.6998H938.969L937.899 30.7998H932.499L933.189 25.7698H914.629V21.6998ZM938.819 48.4098H933.499V47.6298L914.709 48.4098V37.8598H938.819V48.4098ZM940.029 36.0098H913.529V31.7298H940.029V36.0098Z" fill="#333333"/>
<path d="M373.35 18.92C375.19 18.92 376.22 20.24 376.22 21.96V23.73C376.22 26.48 375.28 28.41 370.64 32.48C363.66 38.64 363 40.98 363 44.1V51.12H383.7V45.41H370.68V44.1C370.68 42.2181 371.772 41.1051 374.931 37.8861C375.499 37.3076 376.133 36.6611 376.84 35.93C381.48 31.12 383.62 28.66 383.62 23.73V21.96C383.62 16.29 379.14 13.21 373.35 13.21C367.56 13.21 363.37 16.29 363.37 21.96V24.87H370.43V21.96C370.43 20.23 371.51 18.92 373.35 18.92Z" fill="#333333"/>
<path fill-rule="evenodd" clip-rule="evenodd" d="M386.65 21.96C386.65 16.29 391.25 13.21 396.96 13.21C402.67 13.21 407.27 16.29 407.27 21.96V43.35C407.27 49.02 402.67 52.1 396.96 52.1C391.25 52.1 386.65 49.02 386.65 43.35V21.96ZM393.71 43.35C393.71 45.07 395.11 46.39 396.95 46.39C398.79 46.39 400.19 45.08 400.19 43.35V21.96C400.19 20.24 398.79 18.92 396.95 18.92C395.11 18.92 393.71 20.23 393.71 21.96V43.35Z" fill="#333333"/>
<path d="M420.65 18.92C422.49 18.92 423.52 20.24 423.52 21.96V23.73C423.52 26.48 422.58 28.41 417.94 32.48C410.96 38.64 410.3 40.98 410.3 44.1V51.12H431V45.41H417.98V44.1C417.98 42.2181 419.072 41.1051 422.231 37.8861C422.799 37.3076 423.433 36.6611 424.14 35.93C428.78 31.12 430.92 28.66 430.92 23.73V21.96C430.92 16.29 426.44 13.21 420.65 13.21C414.86 13.21 410.67 16.29 410.67 21.96V24.87H417.73V21.96C417.73 20.23 418.81 18.92 420.65 18.92Z" fill="#333333"/>
<path fill-rule="evenodd" clip-rule="evenodd" d="M442.37 14.04H452.76V39.83H455.8V45.82H452.76V51.28H446.03V45.82H432.56V39.83L442.37 14.04ZM445.98 39.83V21.89L439.33 39.83H445.98Z" fill="#333333"/>
<path d="M458.05 43.48V50.42H464.95V43.48H458.05Z" fill="#333333"/>
<path d="M44.7114 16.877C45.6312 16.877 46.2736 16.1981 46.2736 15.2783C46.2736 14.3585 45.6312 13.716 44.7114 13.716H27.9137C26.9938 13.716 26.3514 14.395 26.3514 15.2783C26.3514 16.1616 26.9938 16.877 27.9137 16.877H44.7114Z" fill="#A01857"/>
<path d="M113.698 21.7896V16.8328C113.698 14.9931 112.055 13.7521 110.018 13.7521C107.982 13.7521 106.339 14.9931 106.339 16.8328V21.7896C106.339 23.5854 107.901 24.7097 110.018 24.7097C112.136 24.7097 113.698 23.5927 113.698 21.7896Z" fill="#A01857"/>
<path fill-rule="evenodd" clip-rule="evenodd" d="M325 0H0V54H325V0ZM39.9517 26.3527H54.6616V31.9081H18V26.3527H32.6296V22.7975H25.9499C22.2341 22.7975 19.2337 19.5562 19.2337 15.4389C19.2337 11.3216 22.2414 8 25.9572 8H46.7043C50.3836 8 53.4205 11.3216 53.4205 15.4389C53.4205 19.5562 50.3836 22.7975 46.7043 22.7975H39.9517V26.3527ZM27.1617 33.6674V39.7412H53.5884V45.1798H19.6425V33.6674H27.1617ZM58.8955 22.7897V43.9019L58.9028 43.8946L83.0883 41.814V35.3387L66.495 36.7404V28.9438H79.9274V9.43768H58.8955V15.7523H72.4081V22.7897H58.8955ZM85.0813 45.1721V8.16016H92.6808V21.9502H97.1193V28.7832H92.6808V45.1721H85.0813ZM98.8711 21.3954V17.1613C98.8711 11.3211 103.872 8.16745 110.026 8.16745C116.18 8.16745 121.137 11.3284 121.137 17.1613V21.3954C121.137 27.1552 116.136 30.3527 110.026 30.3527C103.916 30.3527 98.8711 27.1552 98.8711 21.3954ZM100.667 45.1721V45.1794L100.66 45.1721H100.667ZM100.667 45.1721V32.5428H108.339V39.1786H134.562V45.1721H100.667ZM126.174 8.16016V35.0686H133.927V8.16016H126.174ZM164.354 36.0694V45.5816H172.114V36.0694H186.583V29.9154H149.922V36.0694H164.354ZM151.564 13.76V8.80322H184.904V13.76H151.564ZM151.564 15.4756V27.5136H185.306V22.4765H159.281V20.2353H184.744V15.4756H151.564ZM189.897 38.3033V44.5011H226.559V38.3033H219.441V31.1053H212.324V38.3033H204.089V31.1053H197.015V38.3033H189.897ZM191.014 29.9081V24.2285H196.811L196.008 15.3953H203.045L203.724 24.2285H212.557L213.28 15.3953H220.317L219.514 24.2285H225.435V29.9081H191.014ZM191.416 8.80322V14.5193H225.041V8.80322H191.416ZM246.43 15.913C246.43 28.1846 240.195 34.981 230.398 37.3828V44.3034C244.108 41.9819 253.664 32.4698 253.664 14.8763V9.43768H230.596V15.913H246.43ZM258.022 45.1794V8.16016H265.775V45.1794H258.022ZM270.572 24.5929C280.486 24.5126 285.487 19.9938 285.487 14.6354H270.777V8.80258H292.568V12.8031C292.568 25.6733 282.012 30.3527 270.58 30.433V24.5929H270.572ZM272.492 32.1486V45.1794H305.27V39.1859H280.165V32.1486H272.492ZM296.882 35.4264V8.16016H304.482V17.8329H309V24.352H304.482V35.4264H296.882Z" fill="#A01857"/>
</svg>
