<svg width="946" height="55" viewBox="0 0 946 55" fill="none" xmlns="http://www.w3.org/2000/svg">
<rect width="325" height="54" fill="#FF9500"/>
<path d="M501.02 52.7701H491.16V15.4201H485.41V8.3001C488.7 8.3001 491.87 5.9401 491.87 3.1001H501.02V52.7701Z" fill="#333333"/>
<path d="M520.84 52.7701H510.98V15.4201H505.23V8.3001C508.52 8.3001 511.69 5.9401 511.69 3.1001H520.84V52.7701Z" fill="#333333"/>
<path d="M526.92 51.6201V42.3701H536.12V51.6201H526.92Z" fill="#333333"/>
<path d="M580.31 13.66C580.31 11.36 578.94 9.61 576.48 9.61C574.02 9.61 572.59 11.36 572.59 13.66V17.55H563.17V13.66C563.17 6.1 568.76 2 576.48 2C584.2 2 590.17 6.11 590.17 13.66V16.02C590.17 22.59 587.32 25.88 581.13 32.28C574.94 38.69 572.92 40.22 572.92 43.18V44.93H590.28V52.54H562.68V43.17C562.68 39.01 563.56 35.89 572.87 27.67C579.06 22.25 580.32 19.67 580.32 16.01V13.65L580.31 13.66Z" fill="#333333"/>
<path d="M594.109 39.3498H603.579V42.6398C603.579 44.9398 605.389 46.6398 607.849 46.6398C610.309 46.6398 612.119 44.9398 612.119 42.6398V32.8898C610.309 33.8798 608.119 34.7498 605.489 34.7498C597.769 34.7498 594.039 30.6998 594.039 23.0898V13.6698C594.039 6.10977 600.229 2.00977 607.839 2.00977C615.449 2.00977 621.589 6.11977 621.589 13.6698V42.1998C621.589 49.7598 615.459 53.8698 607.839 53.8698C600.219 53.8698 594.089 49.7598 594.089 42.1998V39.3498H594.109ZM612.129 23.7398V13.2298C612.129 10.9798 610.319 9.22977 607.859 9.22977C605.399 9.22977 603.529 10.9798 603.529 13.2298V23.5198C603.529 25.8798 605.339 27.5698 607.799 27.5698C610.259 27.5698 612.019 26.0398 612.129 23.7398Z" fill="#333333"/>
<path d="M627.131 51.6201V42.3701H636.331V51.6201H627.131Z" fill="#333333"/>
<path d="M696.561 33.5402C697.871 23.7902 702.531 20.4502 706.911 20.4502C713.811 20.4502 717.321 26.0902 720.871 26.0902C723.391 26.0902 724.541 24.2302 725.141 20.7802H731.441C730.181 30.4702 725.141 33.8102 721.251 33.8102C714.841 33.8102 710.901 28.1702 707.071 28.1702C705.211 28.1702 703.671 28.9402 702.851 33.5402H696.551H696.561Z" fill="#333333"/>
<path d="M766.71 52.7701H756.85V15.4201H751.1V8.3001C754.39 8.3001 757.56 5.9401 757.56 3.1001H766.71V52.7701Z" fill="#333333"/>
<path d="M789.05 13.66C789.05 11.36 787.68 9.61 785.22 9.61C782.76 9.61 781.33 11.36 781.33 13.66V17.55H771.91V13.66C771.91 6.1 777.5 2 785.22 2C792.94 2 798.91 6.11 798.91 13.66V16.02C798.91 22.59 796.06 25.88 789.87 32.28C783.68 38.69 781.66 40.22 781.66 43.18V44.93H799.02V52.54H771.42V43.17C771.42 39.01 772.3 35.89 781.61 27.67C787.8 22.25 789.06 19.67 789.06 16.01V13.65L789.05 13.66Z" fill="#333333"/>
<path d="M803.24 51.6201V42.3701H812.44V51.6201H803.24Z" fill="#333333"/>
<path d="M854.11 52.7701H844.25V15.4201H838.5V8.3001C841.79 8.3001 844.96 5.9401 844.96 3.1001H854.11V52.7701Z" fill="#333333"/>
<path d="M869.83 29.76V22.2L873.28 21.98C875.53 21.82 877.93 20.34 877.93 18.04V13.28C877.93 10.98 876.12 9.23 873.6 9.23C871.08 9.23 869.27 10.98 869.27 13.28V17H859.8V13.66C859.8 6.1 865.93 2 873.6 2C881.27 2 887.4 6.11 887.4 13.66V17.55C887.4 21.88 885.15 24.56 882.2 25.93C885.49 27.3 887.9 29.87 887.9 34.58V42.19C887.9 49.75 881.33 53.86 873.61 53.86C865.89 53.86 859.26 49.75 859.26 42.19V36.33H869.12V42.19C869.12 44.49 871.04 46.24 873.61 46.24C876.18 46.24 878.05 44.49 878.05 42.19V34.08C878.05 31.62 875.69 30.08 873.07 29.97L869.84 29.75L869.83 29.76Z" fill="#333333"/>
<path d="M892.82 51.6201V42.3701H902.02V51.6201H892.82Z" fill="#333333"/>
<path d="M667.499 41.6099H654.039V44.2999L667.499 43.8299V41.6099Z" fill="#333333"/>
<path d="M641.779 16.0498V54.0498H679.779V16.0498H641.779ZM648.629 21.6998H672.969L671.899 30.7998H666.499L667.189 25.7698H648.629V21.6898V21.6998ZM672.819 48.4098H667.499V47.6298L648.709 48.4098V37.8598H672.819V48.4098ZM674.029 36.0098H647.529V31.7298H674.029V36.0098Z" fill="#333333"/>
<path d="M933.499 41.6099H920.039V44.2999L933.499 43.8299V41.6099Z" fill="#333333"/>
<path d="M907.779 16.0498V54.0498H945.779V16.0498H907.779ZM914.629 21.6998H938.969L937.899 30.7998H932.499L933.189 25.7698H914.629V21.6898V21.6998ZM938.819 48.4098H933.499V47.6298L914.709 48.4098V37.8598H938.819V48.4098ZM940.029 36.0098H913.529V31.7298H940.029V36.0098Z" fill="#333333"/>
<path d="M376.22 21.96C376.22 20.24 375.19 18.92 373.35 18.92C371.51 18.92 370.43 20.23 370.43 21.96V24.87H363.37V21.96C363.37 16.29 367.56 13.21 373.35 13.21C379.14 13.21 383.62 16.29 383.62 21.96V23.73C383.62 28.66 381.48 31.12 376.84 35.93C372.2 40.73 370.68 41.88 370.68 44.1V45.41H383.7V51.12H363V44.1C363 40.98 363.66 38.64 370.64 32.48C375.28 28.41 376.22 26.48 376.22 23.73V21.96Z" fill="#333333"/>
<path d="M386.65 21.96C386.65 16.29 391.25 13.21 396.96 13.21C402.67 13.21 407.27 16.29 407.27 21.96V43.35C407.27 49.02 402.67 52.1 396.96 52.1C391.25 52.1 386.65 49.02 386.65 43.35V21.96ZM393.71 43.35C393.71 45.07 395.11 46.39 396.95 46.39C398.79 46.39 400.19 45.08 400.19 43.35V21.96C400.19 20.24 398.79 18.92 396.95 18.92C395.11 18.92 393.71 20.23 393.71 21.96V43.35Z" fill="#333333"/>
<path d="M423.521 21.96C423.521 20.24 422.491 18.92 420.651 18.92C418.811 18.92 417.731 20.23 417.731 21.96V24.87H410.671V21.96C410.671 16.29 414.861 13.21 420.651 13.21C426.441 13.21 430.921 16.29 430.921 21.96V23.73C430.921 28.66 428.781 31.12 424.141 35.93C419.501 40.73 417.981 41.88 417.981 44.1V45.41H431.001V51.12H410.301V44.1C410.301 40.98 410.961 38.64 417.941 32.48C422.581 28.41 423.521 26.48 423.521 23.73V21.96Z" fill="#333333"/>
<path d="M442.371 14.04H452.761V39.83H455.801V45.82H452.761V51.28H446.031V45.82H432.561V39.83L442.371 14.04ZM445.981 39.83V21.89L439.331 39.83H445.981Z" fill="#333333"/>
<path d="M458.051 50.42V43.48H464.951V50.42H458.051Z" fill="#333333"/>
<path d="M38.9469 27.3449H53.6533V32.8971H17V27.3449H31.6264V23.7865H24.9536C21.2351 23.7865 18.2371 20.5483 18.2371 16.4296C18.2371 12.311 21.2351 9 24.9536 9H45.6998C49.3746 9 52.4163 12.3182 52.4163 16.4369C52.4163 20.5556 49.3818 23.7938 45.6998 23.7938H38.9469V27.3521V27.3449ZM26.1542 34.6581V40.7342H52.5764V46.17H18.6373V34.6581H26.1542ZM26.911 17.8704H43.6986C44.6155 17.8704 45.2559 17.1937 45.2559 16.2695C45.2559 15.3454 44.6155 14.7123 43.6986 14.7123H26.911C25.9941 14.7123 25.3538 15.389 25.3538 16.2695C25.3538 17.15 25.9941 17.8704 26.911 17.8704Z" fill="white"/>
<path d="M57.8965 44.8961V23.7933H71.4095V16.7567H57.8965V10.4404H78.9192V29.9495H65.4862V37.743L82.0773 36.3459V42.8222L57.8965 44.9034V44.8961ZM84.0785 46.1768V9.15967H91.6755V22.9492H96.1143V29.7822H91.6755V46.1696H84.0785V46.1768Z" fill="white"/>
<path d="M97.875 22.3889V18.1538C97.875 12.3178 102.874 9.15967 109.03 9.15967C115.187 9.15967 120.142 12.3178 120.142 18.1538V22.3889C120.142 28.1449 115.143 31.3394 109.03 31.3394C102.918 31.3394 97.875 28.1449 97.875 22.3889ZM99.6724 46.1696V33.537H107.349V40.1735H133.575V46.1696H99.6797H99.6724ZM112.705 22.7891V17.8336C112.705 15.9926 111.068 14.7555 109.03 14.7555C106.993 14.7555 105.356 15.9926 105.356 17.8336V22.7891C105.356 24.5865 106.913 25.7072 109.03 25.7072C111.148 25.7072 112.705 24.5865 112.705 22.7891ZM125.178 36.0621V9.15967H132.935V36.0621H125.178Z" fill="white"/>
<path d="M170.512 23.3131V9.15967H176.748V46.1768H170.512V29.8258H165.432C162.631 39.3366 156.795 43.6954 149.445 45.2963V38.4998C158.716 35.5818 160.681 25.6271 160.681 16.9168H149.649V10.4404H167.237V15.1558C167.237 18.1538 167.077 20.8317 166.757 23.3131H170.512ZM178.946 9.15967H185.342V46.1768H178.946V9.15967Z" fill="white"/>
<path d="M189.264 36.3386C193.542 33.537 197.858 29.1855 197.858 17.87V9.9965H205.455V17.87C205.455 29.1855 209.733 33.537 214.049 36.3386V44.8525C208.933 42.291 204.218 38.4998 201.656 32.9403C199.058 38.4998 194.379 42.291 189.264 44.8525V36.3386ZM217.047 46.1696V9.15967H224.804V46.1768H217.047V46.1696Z" fill="white"/>
<path d="M229.402 38.3761C239.197 35.982 245.433 29.1855 245.433 16.9095H229.606V10.4404H252.674V15.8762C252.674 33.4642 243.119 42.975 229.41 45.2963V38.3834L229.402 38.3761ZM257.025 46.1696V9.15967H264.782V46.1768H257.025V46.1696Z" fill="white"/>
<path d="M269.578 25.5907C279.489 25.5107 284.488 20.9918 284.488 15.636H269.782V9.80003H291.569V13.795C291.569 26.6677 281.017 31.3394 269.585 31.4195V25.5834L269.578 25.5907ZM271.499 46.1768V33.1441H279.176V40.1807H304.281V46.1768H271.506H271.499ZM295.884 36.4259V9.15967H303.481V18.8306H308V25.3433H303.481V36.4186H295.884V36.4259Z" fill="white"/>
</svg>
