<svg width="590" height="127" viewBox="0 0 590 127" fill="none" xmlns="http://www.w3.org/2000/svg">
<path d="M109.914 76.977C109.336 77.4985 108.857 77.8791 108.434 78.3161C107.743 79.0491 106.954 79.4156 105.925 79.3452C105.445 79.317 104.952 79.4861 104.459 79.5425C103.909 79.5989 103.345 79.7117 102.795 79.6553C100.878 79.472 98.9469 79.2465 97.0439 78.9787C96.466 78.8941 95.9162 78.5981 95.2396 78.3584C94.9013 79.0069 95.0704 79.7399 95.0986 80.4165C95.1268 81.1777 95.3805 81.9389 95.3946 82.7001C95.4369 85.6886 95.451 88.677 95.3946 91.6513C95.3805 92.7509 95.2114 93.8504 95.0281 94.9358C94.9577 95.3446 94.6193 95.7111 94.4079 96.0917C93.5057 97.7692 93.5198 97.7269 91.8001 97.2758C89.446 96.6697 88.0363 95.2036 87.2751 92.9059C86.3306 90.0444 85.8937 87.1123 85.9359 84.1098C85.9641 82.1363 85.9359 80.1628 85.9359 78.1893C85.9077 75.6801 86.1897 73.1991 86.5703 70.7181C86.8099 69.1253 86.8945 67.5042 86.9227 65.8972C86.9509 63.8814 87.4584 61.9925 88.0786 60.0612C88.3182 60.0472 88.5438 60.0049 88.7552 60.0331C89.305 60.0894 90.0521 59.9767 90.3481 60.2868C90.9261 60.907 91.5322 61.7246 91.6309 62.5281C91.8282 63.9801 92.4908 65.2769 92.7727 66.6866C93.111 68.3218 93.6467 69.9147 94.1119 71.5216C94.422 72.6071 94.7744 72.8185 95.7893 72.3533C97.8756 71.4089 100.103 71.1692 102.33 70.8591C103.627 70.6759 104.91 70.2671 106.193 70.253C107.433 70.2389 108.659 70.0697 109.9 70.1684C110.111 70.1825 110.323 70.1261 110.52 70.112C111.211 67.2927 110.915 64.4875 110.985 61.6964C110.999 61.1044 110.746 60.315 111.549 60.1035C112.282 59.9203 113.043 59.878 113.734 60.5264C115.087 61.7669 115.891 63.3034 116.384 65.0232C116.849 66.6443 117.272 68.2936 117.582 69.9569C117.935 71.8459 118.16 73.7489 118.414 75.6519C118.569 76.8078 118.696 77.9496 118.738 79.1196C118.752 79.5425 119.063 80.1628 118.33 80.3883C118.301 80.3883 118.33 80.7125 118.4 80.8676C119.528 83.7432 119.063 86.7599 119.091 89.7201C119.091 90.5941 118.907 91.4681 118.752 92.3421C118.4 94.527 115.101 95.8521 113.494 94.4001C112.832 93.794 112.268 92.9341 111.986 92.0883C111.577 90.8619 110.309 89.7342 111.31 88.24C111.042 87.1969 110.76 86.1396 110.492 85.0965C110.421 84.8287 110.337 84.5608 110.323 84.293C110.196 81.8966 110.069 79.5002 109.942 76.9629L109.914 76.977Z" fill="#A01857"/>
<path d="M28.859 89.1C28.3798 89.0154 27.7454 88.8181 27.097 88.8181C24.5032 88.7899 21.9236 88.8463 19.3299 88.804C14.8331 88.7335 10.3504 88.6348 5.86777 88.508C5.14885 88.4939 4.42994 88.3106 3.71102 88.2542C2.14631 88.1273 1.24414 86.9433 0.201007 86.027C0.00365679 85.8578 -0.0386325 85.3785 0.0318497 85.0825C0.201007 84.3495 0.454742 83.6306 0.708478 82.9258C0.750767 82.813 0.97631 82.7707 1.13137 82.7143C3.41499 81.7981 5.81138 81.3329 8.25007 80.9664C10.0967 80.6985 11.9715 80.6703 13.7759 80.0783C14.6921 79.7682 15.7353 79.7682 16.722 79.6836C18.4982 79.5426 20.2743 79.4862 22.0505 79.3171C23.8548 79.1479 25.6451 78.8096 27.4494 78.6827C28.9013 78.57 30.3815 78.7673 31.8334 78.6264C36.302 78.1894 40.7846 78.3303 45.2673 78.3162C48.4531 78.3021 50.5957 80.3461 50.779 83.5178C50.9059 85.7592 50.6239 86.2102 48.5518 87.1688C47.7483 87.5353 46.9448 87.8313 46.0003 87.8031C45.2532 87.7749 44.4638 87.9582 43.7308 88.1555C41.3485 88.7899 38.938 88.3811 36.5416 88.4657C34.9064 88.522 34.5963 88.9168 34.9769 90.4956C35.3434 92.0321 35.5689 93.5968 35.8791 95.1474C35.9496 95.5139 36.2174 95.8804 36.1892 96.2187C36.1328 96.853 36.9363 97.4451 36.2738 98.1076C36.2033 98.1781 36.2456 98.4318 36.3161 98.5587C37.4156 100.8 37.2041 103.211 37.2323 105.579C37.2323 106.227 37.0632 106.918 36.8094 107.51C36.5698 108.06 36.1469 108.44 35.3857 108.468C33.2994 108.567 32.0589 107.82 31.1004 105.72C30.2969 103.929 29.6203 102.097 29.1833 100.194C29.141 100.039 29.0846 99.8697 29.0987 99.7005C29.3383 97.5015 28.2247 95.3165 28.9859 93.1034C28.2952 91.8629 29.578 90.6506 28.8449 89.1H28.859Z" fill="#A01857"/>
<path d="M63.6637 75.2713C62.6769 75.2713 61.8875 75.3418 61.0981 75.2572C59.7308 75.1162 58.3775 74.8766 57.0102 74.6792C56.7987 74.6511 56.5732 74.5524 56.3617 74.5806C53.6552 74.9048 51.8932 73.2978 50.2439 71.5498C49.3558 70.6054 49.5391 69.9287 50.554 69.1252C51.9073 68.0398 53.5847 67.9271 55.1353 67.5605C56.1785 67.3209 57.2921 67.2504 58.3352 66.9121C58.5467 66.8416 58.7722 66.8416 58.9978 66.8275C60.4779 66.7148 61.9721 66.6161 63.4945 66.5033C61.3519 61.9502 60.0409 57.4675 62.6487 52.717C62.7897 52.6888 62.9589 52.6042 63.1139 52.6183C64.1853 52.717 65.4398 52.1672 66.1869 53.3654C66.7649 54.2958 67.5684 55.0429 67.7376 56.2693C67.9631 57.8763 68.8089 59.3564 68.7807 61.0339C68.7807 61.2313 68.978 61.485 68.9076 61.6119C68.1041 62.9369 69.3023 64.1915 69.0485 65.5025C69.0203 65.6575 69.5983 66.1227 69.8802 66.1086C71.7127 66.0381 73.5453 66.4046 75.3778 65.869C75.9981 65.6857 76.7734 66.024 77.4782 66.1509C78.7751 66.3764 80.0719 66.5597 81.3547 66.8416C83.0604 67.2081 83.8357 68.1808 83.878 69.9146C83.9062 71.0424 83.878 72.1701 83.878 73.2978C83.878 73.4529 83.8357 73.622 83.8075 73.7771C78.9724 75.4405 73.9964 75.4264 68.6961 75.2431C69.4291 76.2158 69.9789 76.9347 70.5286 77.6536C71.6141 79.0914 72.3189 80.487 71.7973 82.4887C71.4026 84.0252 71.1348 85.5758 70.3736 86.9995C69.3304 88.973 66.3843 90.2135 64.3967 89.3818C63.6214 89.0576 62.8038 88.4374 62.395 87.7184C61.1827 85.604 60.2664 83.3626 61.1686 80.8112C61.5069 79.8385 61.6479 78.7954 61.9298 77.8086C62.0285 77.4562 62.2963 77.1602 62.5078 76.8501C62.8461 76.3708 63.1844 75.9056 63.6214 75.2854L63.6637 75.2713ZM67.7516 79.9654C67.4838 79.8103 67.3147 79.6835 67.1314 79.5848C65.6795 78.7954 65.0169 78.9505 64.2839 80.4729C63.5368 82.0517 63.2549 83.6446 64.5095 85.1952C65.2566 86.1114 66.0319 86.6753 67.4556 86.2947C67.5543 84.1661 67.653 82.0658 67.7516 79.9654Z" fill="#A01857"/>
<path d="M573.474 104.634C571.867 104.775 570.274 105.015 568.667 105.029C566.116 105.043 563.649 104.409 561.14 104.028C559.392 103.76 557.87 102.816 556.093 102.618C555.487 102.548 554.909 102.083 554.36 101.744C552.301 100.504 550.187 99.3481 548.228 97.9666C545.394 95.979 543.322 93.3289 542.11 90.0726C541.87 89.4242 541.955 88.6207 542.025 87.9018C542.067 87.5212 542.307 86.9855 542.617 86.8445C543.04 86.6331 543.576 86.7318 543.956 87.2392C544.619 88.1132 545.267 89.0154 546.057 89.7484C547.255 90.862 548.495 91.9474 549.863 92.8355C550.694 93.3853 551.766 93.6531 552.767 93.8645C554.585 94.2733 556.418 94.6258 558.25 94.8654C559.956 95.0909 561.69 95.1614 563.409 95.2319C566.13 95.3306 568.837 95.0486 571.529 94.5976C572.995 94.3438 574.517 94.3861 575.998 94.2029C578.013 93.9491 580.029 93.639 582.031 93.3148C583.483 93.0892 584.935 92.7227 586.401 92.5677C588.952 92.2998 590.559 94.4143 589.601 96.7966C589.023 98.2203 588.205 99.4608 586.88 100.448C585.639 101.378 584.512 102.421 582.989 102.83C580.988 103.366 579 103.915 576.984 104.366C575.857 104.62 574.687 104.677 573.545 104.817C573.545 104.747 573.531 104.691 573.517 104.62L573.474 104.634Z" fill="#A01857"/>
<path d="M433.765 71.3808C434.399 76.0749 433.934 80.7831 434.061 85.4913C434.089 86.2807 434.131 87.0701 434.033 87.8454C433.962 88.4093 433.3 88.959 434.061 89.5088C433.835 90.566 433.624 91.6373 433.398 92.6946C433.243 93.4417 432.877 94.0901 432.947 94.9782C433.018 95.8522 432.51 96.8248 432.073 97.6706C431.693 98.4318 429.55 98.7137 428.38 98.5305C425.603 98.1217 424.997 95.9086 424.264 93.7941C423.305 90.9748 423.122 88.0568 423.221 85.1107C423.305 82.4888 423.39 79.8668 423.573 77.259C423.728 75.1022 423.968 72.9596 424.25 70.8169C424.405 69.6328 424.743 68.4628 424.926 67.2787C425.082 66.2356 425.11 65.1783 425.265 64.1352C425.462 62.8383 425.716 61.5556 425.97 60.2728C426.28 58.6658 426.576 57.0588 426.956 55.4659C427.182 54.5355 427.76 54.1831 428.69 54.31C429.029 54.3523 429.466 54.5919 429.606 54.8598C430.664 56.9883 431.636 59.1451 432.059 61.5274C432.44 63.7828 432.961 66.01 433.37 68.2514C433.553 69.2804 433.624 70.3235 433.751 71.3667L433.765 71.3808Z" fill="#A01857"/>
<path d="M464.594 65.2911C465.538 64.5862 466.243 64.0647 466.948 63.529C468.498 62.359 470.303 61.6965 472.135 61.1467C472.755 60.9634 473.474 61.0621 474.137 61.0621C475.857 61.0621 476.42 60.5547 476.716 58.9336C476.829 58.3133 477.083 57.6931 477.379 57.1292C477.83 56.2975 478.676 56.0438 479.663 56.3116C480.128 56.4385 480.649 56.4526 481.086 56.664C481.862 57.0305 482.468 57.4252 482.848 58.412C483.835 60.9494 483.765 63.4726 483.032 65.9254C482.651 67.18 481.989 68.5191 480.734 69.379C479.508 70.2248 478.352 71.1975 477.28 72.2265C476.42 73.0582 475.73 74.059 474.94 74.9753C474.503 75.4828 474.095 76.0184 473.587 76.4413C472.6 77.2589 471.656 78.2175 470.528 78.7531C468.569 79.6835 466.821 81.1354 464.551 81.3469C463.339 81.4597 462.127 81.516 460.928 81.6993C459.688 81.8825 458.814 81.3751 458.01 80.5011C457.249 79.6976 456.418 79.0069 456.347 77.7382C456.291 76.6528 455.544 75.7083 455.67 74.5242C456.136 70.4222 456.671 66.3765 458.842 62.7255C459.195 62.1335 459.477 61.4568 459.984 61.0339C460.618 60.5124 460.872 59.286 462.254 59.9062C463.071 60.2586 463.734 60.4842 464.326 61.2877C465.087 62.3167 465.425 63.1343 464.579 64.2197C464.453 64.3889 464.565 64.7272 464.565 65.277L464.594 65.2911ZM462.38 75.4264C464.96 74.8625 466.905 73.5939 469.048 72.9172C471.261 72.2124 473.488 71.5499 475.462 70.9437C475.405 69.2099 476.012 67.7015 475.546 66.2496C474.969 66.1509 474.447 66.165 473.996 65.9818C472.741 65.4743 471.614 65.8549 470.528 66.4047C469.457 66.9403 468.414 67.5465 467.427 68.2231C466.905 68.5896 466.44 69.0689 465.806 68.8293C465.298 68.6319 464.89 68.209 464.283 67.7861C463.663 70.2671 463.057 72.7058 462.366 75.4405L462.38 75.4264Z" fill="#A01857"/>
<path d="M188.22 71.6064C188.304 70.5491 188.445 69.6892 188.431 68.8153C188.403 66.9122 188.784 65.1079 189.446 63.3459C189.827 62.3309 190.856 61.9926 191.603 62.7538C192.251 63.4163 192.843 64.1775 193.238 65.0092C195 68.6038 196.071 72.4662 196.847 76.3569C197.411 79.1902 198.27 81.9954 198.51 84.8711C198.707 87.2252 198.933 89.6639 198.285 92.0462C198.045 92.9483 197.622 93.6673 197.002 94.2875C196.071 95.2179 193.985 95.2461 193.083 94.2875C191.8 92.9202 190.461 91.5669 189.841 89.7344C189.531 88.8181 189.418 87.8454 189.15 86.9151C188.516 84.716 188.318 82.4747 188.459 80.0219C187.938 80.0219 187.501 80.036 187.078 80.0219C184.851 79.9092 182.595 79.9796 180.41 79.6272C178.282 79.2889 175.998 79.1057 174.222 77.6396C173.475 77.0194 172.742 76.2582 172.277 75.4124C171.445 73.9182 171.966 72.4944 173.588 71.9306C175.223 71.3808 176.914 70.8451 178.69 71.2117C178.86 71.2398 179.043 71.268 179.198 71.2117C180.833 70.6055 182.468 71.1412 184.089 71.2258C185.358 71.2962 186.613 71.4513 188.206 71.6064H188.22Z" fill="#A01857"/>
<path d="M14.4386 98.6856C16.2007 98.5869 17.1311 99.0944 17.5821 100.786C17.9909 102.322 18.5548 103.803 18.6817 105.438C18.7803 106.692 19.4147 107.919 19.8235 109.159C20.3169 110.668 20.8807 112.148 21.3177 113.67C21.7829 115.277 22.7837 116.405 24.4753 116.461C26.914 116.532 29.3668 116.715 31.8336 116.278C33.638 115.968 35.541 116.207 37.3876 116.207C39.0228 116.207 40.658 116.193 42.2791 116.207C43.7592 116.236 44.7601 117.222 44.6332 118.717C44.464 120.676 43.8579 122.494 42.265 123.82C42.0958 123.96 41.9408 124.228 41.7575 124.242C40.1505 124.355 38.8818 125.511 37.303 125.68C35.3295 125.892 33.3983 126.498 31.3685 126.371C27.943 126.145 24.8277 125.102 21.8252 123.383C19.6402 122.128 18.3856 120.154 16.8491 118.378C15.0307 116.278 14.2554 113.726 13.8748 111.034C13.7479 110.104 13.6774 109.159 13.4519 108.257C12.8035 105.762 13.2686 103.295 13.6211 100.828C13.7197 100.109 14.1426 99.4186 14.4245 98.6997L14.4386 98.6856Z" fill="#A01857"/>
<path d="M257.25 71.86C257.349 74.0731 257.32 76.1312 257.546 78.147C257.786 80.2333 257.687 82.2491 256.771 84.1239C256.461 84.7723 255.84 85.2798 255.291 85.7873C254.98 86.0692 254.431 86.478 254.191 86.3793C253.5 86.0833 252.753 86.1256 252.062 85.6322C249.229 83.6023 247.904 80.6844 247.129 77.5127C246.678 75.6519 246.537 73.6502 246.692 71.7472C246.889 69.4495 247.03 67.1236 247.326 64.8259C247.678 62.1194 248.045 59.3988 249.088 56.8332C249.849 54.9584 250.85 54.7892 252.203 56.2834C253.162 57.3266 253.74 58.5107 254.121 59.878C254.543 61.4005 255.375 62.796 255.46 64.4312C255.488 64.9668 255.953 65.1078 256.461 65.0937C257.757 65.0937 259.054 65.0091 260.351 65.1219C262.748 65.3334 265.003 66.165 267.103 67.2646C268.231 67.8566 268.203 69.083 267.287 70.0275C265.2 72.1842 262.832 72.8749 259.773 72.2406C258.97 72.0715 258.152 71.9869 257.25 71.8459V71.86Z" fill="#A01857"/>
<path d="M227.563 79.5567C227.365 80.2333 227.182 80.8254 227.013 81.4174C226.942 81.6289 226.801 81.8544 226.816 82.0518C226.886 82.8271 225.561 82.6015 225.801 83.6588C225.899 84.0957 225.011 84.7724 224.56 85.3221C224.109 85.886 223.728 86.5062 223.207 86.9855C222.276 87.8313 221.106 87.9018 219.936 87.7185C219.359 87.6339 218.583 87.5494 218.273 87.1688C217.582 86.2807 217.047 85.2516 216.567 84.2085C215.693 82.2914 216.596 80.4448 217.033 78.6122C217.808 75.3419 219.387 72.4239 221.022 69.5059C221.882 67.9694 222.544 66.3201 223.32 64.7413C223.63 64.107 224.01 63.5009 224.405 62.796C225.871 62.6974 227.182 62.8806 227.943 64.4735C228.634 65.9395 229.79 67.1659 230.128 68.8434C230.227 69.3368 230.861 69.7315 231.256 70.1826C231.749 70.7464 231.496 71.564 232.088 72.1702C232.666 72.7622 232.99 73.6362 233.342 74.4256C233.68 75.1727 233.878 75.9762 234.16 76.7515C234.442 77.5127 234.724 78.2739 235.02 79.021C235.598 80.4448 235.471 81.9531 235.457 83.4332C235.457 83.7151 235.273 84.0816 235.048 84.279C234.681 84.5891 234.23 84.9274 233.779 84.9979C233.004 85.1107 232.144 85.2094 231.439 84.9697C230.96 84.8006 230.692 84.0394 230.34 83.5319C229.437 82.2491 228.535 80.9522 227.549 79.5426L227.563 79.5567Z" fill="#A01857"/>
<path d="M527.76 73.9604C527.887 71.9869 528.112 70.2671 528.084 68.5615C528.042 65.6576 528.676 62.8665 529.169 60.0331C529.268 59.4411 529.677 58.7644 530.156 58.412C530.692 58.0173 531.664 57.5522 532.073 57.7777C532.82 58.2147 533.497 59.0464 533.821 59.8499C534.385 61.2595 534.667 62.7819 535.076 64.2621C535.104 64.3748 535.174 64.4735 535.174 64.5722C535.33 68.3641 536.26 72.1138 535.795 75.9198C535.513 78.1329 535.005 80.332 534.526 82.5169C534.441 82.9116 534.117 83.4614 533.793 83.5601C532.369 83.9689 531.044 84.4904 529.451 83.5178C528.014 82.6297 528.394 81.361 528.154 80.2756C527.901 79.162 528.098 77.9356 528.098 76.4977C527.605 76.822 527.295 76.9911 527.027 77.2026C524.095 79.5708 520.838 81.0509 516.976 80.6703C514.678 80.4448 512.465 79.8527 510.351 78.9223C509.914 78.725 509.491 78.4149 509.181 78.0484C508.335 77.0334 508.786 75.1304 510.012 74.5383C510.548 74.2846 511.112 73.9886 511.69 73.9322C513.565 73.763 515.454 73.6785 517.343 73.5657C518.498 73.4952 519.668 73.4247 520.824 73.312C522.502 73.1569 524.236 73.5375 525.955 73.7067C526.491 73.763 527.027 73.8476 527.76 73.9463V73.9604Z" fill="#A01857"/>
<path d="M375.194 108.948C375.194 109.385 375.166 109.497 375.194 109.61C375.702 111.541 375.166 112.824 373.291 113.585C371.374 114.361 369.457 115.023 367.329 115.319C364.65 115.686 362.564 114.882 360.464 113.501C359.872 113.106 359.153 112.895 358.589 112.458C358.039 112.021 357.56 111.457 357.165 110.879C356.249 109.526 355.177 108.229 354.797 106.58C354.473 105.142 354.007 103.718 353.923 102.266C353.867 101.279 354.205 100.194 354.585 99.2494C355.036 98.1217 355.685 97.0644 356.347 96.0495C356.587 95.683 357.095 95.3588 357.532 95.2601C358.758 94.9641 359.928 94.7103 361.267 95.1755C362.212 95.5138 363.382 95.246 364.552 95.246C364.03 93.4839 364.509 91.7924 364.749 89.9035C363.551 89.7625 362.423 89.6215 361.295 89.5228C358.983 89.3114 357.32 87.0137 357.954 84.8005C358.025 84.5327 358.335 84.1803 358.589 84.1098C360.717 83.546 363.001 83.3909 364.96 84.2085C366.596 84.8992 368.174 86.0833 368.879 88.0709C369.556 89.988 369.514 91.9192 369.358 93.8505C369.288 94.6962 368.569 95.5279 368.076 96.3032C367.54 97.1631 366.793 97.7693 365.75 98.023C365.144 98.1781 364.65 98.7983 364.03 98.9534C362.367 99.3904 360.675 99.6159 358.969 99.0238C358.391 98.8265 357.983 99.1366 357.926 99.785C357.898 100.18 357.842 100.589 357.926 100.969C358.645 104.042 359.942 106.791 362.508 108.75C363.029 109.145 363.79 109.385 364.453 109.413C366.483 109.497 368.513 109.512 370.543 109.441C372.023 109.385 373.503 109.145 375.152 108.962L375.194 108.948Z" fill="#A01857"/>
<path d="M294.182 83.687C293.915 82.2914 293.647 80.8959 293.407 79.5003C293.337 79.1197 293.337 78.725 293.337 78.3303C293.337 76.0467 293.252 73.7631 293.365 71.4795C293.421 70.1826 293.717 68.8857 294.013 67.617C294.197 66.8417 294.774 66.151 295.606 66.1651C296.367 66.1792 297.27 66.2779 297.453 67.4056C297.509 67.7298 298.115 67.9271 298.299 68.2655C299.158 69.9147 300.089 71.564 300.737 73.2979C301.611 75.6097 302.274 78.0061 302.993 80.3743C303.81 83.0526 304.008 85.8437 304.445 88.5925C303.839 89.1705 304.473 89.7202 304.445 90.27C304.431 91.2567 304.332 92.2435 304.163 93.2161C303.979 94.2452 303.641 95.2319 303.444 96.261C303.176 97.7129 302.062 98.0794 300.878 98.2345C299.793 98.3895 298.693 97.7834 298.172 97.0363C296.734 95.0064 295.437 92.8355 294.789 90.3828C294.591 89.6497 294.436 88.8885 294.338 88.1273C294.168 86.6472 294.056 85.153 293.929 83.6729C294.013 83.6729 294.084 83.6447 294.168 83.6306L294.182 83.687Z" fill="#A01857"/>
<path d="M374.87 63.7687C374.87 64.2621 374.743 64.7695 374.884 65.1924C376.096 68.9421 375.546 72.6071 374.461 76.244C374.165 77.2167 373.319 77.7382 372.389 77.9356C371.487 78.1188 370.88 77.5832 370.359 76.8361C369.034 74.9471 368.343 72.7763 367.807 70.6195C367.004 67.3492 366.525 63.9942 366.75 60.597C366.835 59.3424 367.117 58.116 367.314 56.8614C367.497 55.7337 367.483 54.5637 368.061 53.5206C368.16 53.3373 368.146 53.0836 368.258 52.9003C369.062 51.6598 369.809 51.6176 370.739 52.7735C371.924 54.2395 372.755 55.9029 373.206 57.7495C373.319 58.2147 373.375 58.7222 373.559 59.1591C373.7 59.4834 373.925 59.723 374.475 59.582C375.885 59.2155 377.294 59.2578 378.746 59.6102C379.916 59.8922 381.157 59.864 382.355 60.0049C384.371 60.2305 386.358 60.6111 388.233 61.4428C389.206 61.8657 389.262 62.1476 388.839 63.1484C388.374 64.2339 387.965 65.3193 387.049 66.1792C386.584 66.6162 386.189 66.8135 385.611 66.8135C384.089 66.8135 382.566 66.8699 381.058 66.8135C380.48 66.7853 379.832 66.6584 379.338 66.3624C377.985 65.573 376.448 65.0374 375.363 63.811C375.307 63.7546 375.152 63.7828 374.841 63.7546L374.87 63.7687Z" fill="#A01857"/>
<path d="M17.0316 64.1493C16.9752 62.359 17.4686 60.6815 17.9761 59.0605C18.2721 58.1019 18.7796 57.087 20.0483 56.9319C20.3161 56.9037 20.5839 56.7345 20.7954 56.5513C22.783 54.8738 25.2217 54.6765 27.6462 54.6201C30.3105 54.5637 32.4531 55.6914 33.9192 57.9187C34.3843 58.6235 34.779 59.5256 34.7931 60.3291C34.8354 62.1758 35.2019 64.1211 33.9896 65.8126C33.8769 65.9818 33.8628 66.2355 33.8346 66.447C33.7218 67.2646 33.5808 68.0822 33.5104 68.8998C33.4822 69.2945 33.3976 69.4495 32.9606 69.5341C32.6646 69.5905 32.3122 69.957 32.1853 70.2671C31.847 71.0847 31.114 71.6768 30.4514 71.8177C28.6894 72.1701 27.0401 73.1569 25.1512 72.9313C24.8692 72.9032 24.3618 73.0723 24.2913 73.2697C23.9812 74.0591 23.3609 73.9322 22.7689 73.9181C20.6826 73.8899 18.5963 72.1983 18.0184 69.8442C17.5673 67.9694 17.3559 66.0523 17.0316 64.1493ZM31.0012 67.039C30.5783 64.699 30.1554 62.3872 29.7184 60.0049C27.4771 60.2023 25.5177 60.6815 23.7415 61.5696C24.1362 63.6136 24.5027 65.5166 24.8692 67.4901C25.8701 67.4901 26.885 67.5465 27.8718 67.476C28.9149 67.4055 29.944 67.1941 30.9871 67.039H31.0012Z" fill="#A01857"/>
<path d="M171.459 85.3221C171.219 85.3644 171.008 85.3785 170.796 85.449C168.329 86.3089 167.864 86.2525 166.412 84.138C165.51 82.8411 164.904 81.3328 164.115 79.8245C163.804 80.3179 163.466 80.9522 163.057 81.5302C162.367 82.5169 161.859 83.6587 160.717 84.2649C160.478 84.3918 160.252 84.6314 160.139 84.871C159.167 86.7741 157.25 87.3238 155.488 88.0568C155.22 88.1696 154.698 88.0004 154.473 87.789C153.387 86.7741 153.021 85.3785 152.513 84.0112C151.921 82.4042 152.541 81.2342 153.289 80.0078C154.896 77.414 156.855 75.074 158.561 72.5649C159.28 71.5217 159.956 70.4363 160.731 69.4354C162.099 67.6734 164.326 67.6311 165.806 69.3368C166.469 70.098 167.089 70.9156 167.568 71.8036C168.696 73.8758 169.88 75.9339 170.712 78.1188C171.276 79.6131 172.22 81.1073 171.896 82.8552C171.741 83.6587 171.614 84.4622 171.459 85.3362V85.3221Z" fill="#A01857"/>
<path d="M471.515 108.44C468.061 108.356 464.791 107.89 461.732 106.664C459.688 105.847 457.813 104.55 455.966 103.309C455.092 102.717 454.472 101.744 453.767 100.927C453.598 100.729 453.415 100.476 453.359 100.222C453.02 98.7701 453.429 98.2485 454.952 98.2908C455.699 98.319 456.573 98.3331 457.165 98.7137C458.743 99.7004 460.534 99.9965 462.253 100.504C463.508 100.87 464.875 100.955 466.2 100.969C471.332 101.026 476.463 101.082 481.58 100.983C483.666 100.941 485.78 100.814 487.839 100.335C488.374 100.208 488.966 100.335 489.53 100.293C490.066 100.264 490.672 100.264 490.771 100.856C490.855 101.35 490.827 102.083 490.517 102.393C489.629 103.281 488.6 104.042 487.585 104.789C485.625 106.255 483.243 106.509 480.959 107.059C479.31 107.453 477.661 107.806 475.983 108.06C474.447 108.285 472.896 108.327 471.487 108.44H471.515Z" fill="#A01857"/>
<path d="M346.409 86.0974C344.76 86.1679 342.772 86.0551 340.954 85.0824C339.713 84.4199 338.459 83.7433 337.331 82.8975C335.132 81.2482 333.116 79.3734 331.678 76.9629C330.142 74.3974 329.451 71.6908 330.24 68.7306C330.367 68.2795 330.692 67.8425 331.044 67.5042C331.749 66.8276 332.369 66.9826 332.933 67.8143C333.37 68.4628 333.469 69.2381 333.906 69.9006C334.385 70.6336 334.624 71.5076 334.963 72.3252C335.16 72.7763 335.343 73.2414 335.555 73.6925C336.147 74.9612 337.077 75.7365 338.543 75.6096C339.586 75.5251 340.672 75.8916 341.673 75.2854C341.757 75.229 341.898 75.2572 342.011 75.2854C343.773 75.4828 345.535 75.7083 347.297 75.8634C348.411 75.9621 349.538 75.9339 350.666 75.9621C351.117 75.9621 351.568 75.9198 352.019 75.9621C352.879 76.0748 353.443 76.6387 353.556 77.4281C353.669 78.2457 353.88 79.0633 353.88 79.8668C353.88 80.628 353.796 81.4315 353.528 82.1222C353.048 83.2922 353.063 84.8146 351.681 85.4208C350.892 85.7732 350.004 85.9423 349.144 86.0692C348.368 86.1679 347.565 86.0974 346.423 86.0974H346.409Z" fill="#A01857"/>
<path d="M201.766 59.8781C202.781 59.8217 203.782 59.6948 204.754 59.7512C205.473 59.7935 206.023 60.1882 206.446 60.8789C207.376 62.3732 207.588 64.0788 208.053 65.714C208.462 67.18 208.927 68.6743 209.039 70.1826C209.279 73.4107 209.335 76.6528 209.392 79.895C209.406 80.9381 209.11 81.9813 209.11 83.0244C209.11 84.0957 208.645 84.8429 207.813 85.4067C207.024 85.9424 206.037 85.9283 205.374 85.2517C204.43 84.2931 203.514 83.3063 202.978 82.0095C201.864 79.303 201.413 76.4696 200.906 73.608C200.525 71.4794 200.539 69.3509 200.68 67.2505C200.807 65.4603 200.708 63.6136 201.484 61.8939C201.709 61.4146 201.653 60.8084 201.766 59.8781Z" fill="#A01857"/>
<path d="M498.115 66.4469C500.455 66.5315 502.386 67.6169 504.148 69.0266C504.43 69.2521 504.571 69.675 504.712 70.0274C505.769 72.9736 505.121 75.5673 503.049 77.8368C502.414 78.5276 501.851 79.1478 501.569 80.1487C501.343 80.9099 500.314 81.5301 499.525 81.9953C497.946 82.9397 496.282 83.4472 494.351 82.7988C493.576 82.531 493.125 82.0658 492.674 81.5301C492.152 80.9099 491.8 80.1487 491.236 79.5848C490.447 78.7672 490.179 77.8791 490.531 76.8078C490.559 76.7091 490.559 76.5823 490.517 76.4836C489.671 74.5806 491.222 73.03 491.292 71.2538C491.292 71.1128 491.433 70.9578 491.532 70.8309C491.969 70.3375 492.462 69.9851 493.068 69.675C493.435 69.4918 493.379 68.5473 493.9 68.0116C495.084 66.7852 496.48 66.3764 498.115 66.461V66.4469ZM500.624 71.5498C500.342 71.5639 500.131 71.5216 500.018 71.6062C498.383 72.8467 496.917 74.2845 496.057 76.1735C495.662 77.0474 495.479 78.0483 495.338 79.0209C495.239 79.6553 495.606 80.1346 496.353 79.9795C497.452 79.754 498.538 79.4579 499.525 79.2183C499.736 77.7664 499.863 76.5682 500.088 75.3841C500.314 74.1577 500.92 73.0018 500.624 71.578V71.5498Z" fill="#A01857"/>
<path d="M248.721 96.261C248.552 97.7129 247.875 99.0943 247.311 100.518C246.522 102.463 244.929 103.45 243.181 104.282C242.096 104.803 241.01 105.085 239.911 104.268C239.741 104.141 239.502 104.113 239.29 104.07C237.486 103.732 235.541 102.111 235.033 100.391C234.159 97.4451 234.075 94.5694 235.921 91.8911C236.26 91.3977 236.372 90.6365 236.824 90.3827C238.374 89.4524 239.276 87.5917 241.236 87.2956C241.687 87.2251 242.194 87.2533 242.645 87.3661C245.606 88.0991 247.325 90.129 248.185 92.9342C248.509 93.9632 248.538 95.091 248.721 96.2751V96.261ZM241.038 92.4972C240.235 92.3562 239.741 92.61 239.403 93.3571C238.994 94.2452 238.304 95.0487 238.036 95.9649C237.853 96.5993 238.036 97.3746 237.824 98.0653C237.5 99.1366 238.43 99.7146 238.91 100.391C239.333 100.983 239.995 100.377 240.559 100.349C241.659 100.293 242.321 99.8978 242.631 98.8265C242.716 98.5446 243.04 98.319 243.294 98.0935C244.45 97.0504 244.323 95.683 243.858 94.4989C243.407 93.3571 242.279 92.7368 241.052 92.4831L241.038 92.4972Z" fill="#A01857"/>
<path d="M476.547 86.2665C476.223 88.4374 476.11 90.6787 475.532 92.7791C474.813 95.4151 473.221 97.5296 470.556 98.615C469.711 98.9674 468.893 99.3903 468.019 99.6863C466.595 100.18 466.652 99.9964 466.186 98.6291C465.496 96.5851 466.581 94.6539 466.257 92.6663C467.089 91.0029 467.568 89.1986 468.061 87.4365C468.879 84.4904 470.232 81.7979 471.684 79.1478C472.262 78.1047 473.108 78.1047 474.038 78.8659C475.73 80.2614 476.139 82.1926 476.308 84.2084C476.364 84.871 476.308 85.5617 476.308 86.2383C476.378 86.2383 476.449 86.2524 476.533 86.2665H476.547Z" fill="#A01857"/>
<path d="M333.229 65.7705C333.892 64.2621 335.033 63.7406 336.584 63.3036C338.149 62.8525 339.742 62.4296 341.32 62.1618C342.885 61.8939 344.549 62.2182 346.156 62.2886C346.48 62.3027 346.818 62.4437 347.142 62.4014C348.636 62.2041 349.976 62.8384 351.371 63.1485C352.443 63.3882 352.936 64.1917 353.133 65.0515C353.415 66.2215 353.415 67.462 353.528 68.6743C353.598 69.4073 353.317 69.7316 352.527 69.9007C350.807 70.2672 349.144 70.4082 347.438 69.8866C347.03 69.7597 346.536 69.8584 346.085 69.8584C343.703 69.9007 341.363 69.5906 339.079 68.914C338.501 68.7448 337.867 68.8153 337.275 68.6743C335.583 68.2655 334.103 67.5184 333.229 65.7705Z" fill="#A01857"/>
<path d="M525.73 65.5166C524.476 67.6734 522.502 68.7588 520.078 69.2099C518.696 69.4636 517.343 69.957 515.961 70.1685C515.172 70.2953 514.298 70.1685 513.494 69.9711C512.24 69.6751 510.985 69.2804 509.773 68.8434C508.434 68.3641 507.757 67.2223 507.222 65.9959C506.954 65.3616 506.799 64.685 506.545 63.8956C507.461 62.8524 508.913 62.4436 510.323 62.1194C511.606 61.8234 512.987 61.9784 514.284 61.7106C516.666 61.2172 518.964 61.922 521.262 62.1758C523.165 62.3872 525.039 63.2894 525.744 65.5166H525.73Z" fill="#A01857"/>
<path d="M548.566 67.9835C550.06 68.928 550.963 69.957 551.526 71.3808C552.415 73.6362 553.331 75.8634 553.923 78.2175C554.67 81.1919 555.079 85.0825 554.825 87.9441C554.74 88.8885 554.402 89.255 553.429 89.5088C553.119 89.5933 552.823 89.8471 552.527 89.833C552.118 89.8189 551.569 89.7484 551.329 89.4806C549.511 87.4366 548.256 85.0543 547.763 82.3619C547.396 80.4025 547.283 78.4149 547.044 76.4273C546.973 75.8916 546.691 75.3419 546.734 74.8203C546.903 73.1287 547.1 71.4371 547.438 69.7738C547.565 69.1817 548.115 68.6742 548.566 67.9976V67.9835Z" fill="#A01857"/>
<path d="M411.281 78.9928C411.422 80.8535 410.322 82.7424 408.729 83.3204C407.545 83.7574 406.333 84.1662 405.092 84.3776C402.893 84.7441 400.779 84.2226 398.848 83.1794C396.634 81.9953 394.76 80.3883 393.505 78.1611C392.518 76.385 391.856 74.4819 391.771 72.4239C391.757 71.9023 392.011 71.3807 392.124 70.8592C392.321 69.9711 393.082 69.7314 393.787 69.5341C394.605 69.3086 395.154 69.7033 395.154 70.549C395.154 72.3675 395.831 73.9886 396.648 75.5392C397.593 77.3435 399.186 78.1329 401.173 78.3162C403.316 78.4994 405.459 78.7954 407.616 78.9646C408.786 79.0492 409.97 78.9787 411.266 78.9787L411.281 78.9928Z" fill="#A01857"/>
<path d="M562.761 60.7097C562.902 62.218 562.141 63.233 561.267 64.3325C560.209 65.6717 558.997 66.6584 557.461 67.3632C554.726 68.6178 551.441 67.3914 550.525 64.5721C550.271 63.8109 550.257 62.8383 550.483 62.063C550.892 60.597 551.512 59.1732 552.104 57.7636C553.119 55.3672 555.276 54.3099 557.461 53.3655C558.447 52.9285 560.407 53.9012 560.914 55.0712C561.436 56.2975 562.479 57.3125 562.338 58.8208C562.282 59.4411 562.606 60.0754 562.747 60.7097H562.761ZM559.195 59.5679C559.054 59.427 558.927 59.2014 558.743 59.1168C558.109 58.8349 557.39 58.2569 556.784 59.0041C555.769 60.2445 554.811 61.5273 553.965 62.8806C553.739 63.2471 553.824 64.0083 554.063 64.4171C554.247 64.7131 554.796 64.9528 555.403 64.6003C556.136 64.1634 557.038 64.0365 557.785 63.6136C558.151 63.4021 558.433 62.8806 558.56 62.4436C558.828 61.5273 558.983 60.5688 559.195 59.582V59.5679Z" fill="#A01857"/>
<path d="M562.916 69.2804C564.156 68.9844 564.904 69.5623 565.355 70.1685C566.059 71.127 566.482 72.3111 567.06 73.3684C567.948 74.9612 568.4 76.681 568.724 78.4572C568.907 79.4721 569.189 80.487 569.273 81.502C569.33 82.3055 569.175 83.1372 569.076 83.9548C568.977 84.7724 568.836 85.5759 568.71 86.3934C568.681 86.5626 568.667 86.7318 568.611 86.8868C568.103 88.5925 566.581 89.5088 564.805 89.1564C563.903 88.9731 563.508 88.226 563.325 87.5071C562.888 85.7591 562.662 83.9689 562.282 82.2209C561.591 79.0069 562.014 75.7506 561.986 72.5226C561.986 71.4371 562.592 70.3517 562.902 69.2945L562.916 69.2804Z" fill="#A01857"/>
<path d="M284.16 78.866C284.625 80.3179 283.793 81.7416 283.399 83.2077C283.201 83.9266 282.37 84.4763 281.82 85.0825C280.396 86.6472 278.578 87.2815 276.534 87.0983C274.758 86.9291 273.475 85.2798 273.066 83.25C272.432 80.0783 273.799 77.5409 275.462 75.1022C276.012 74.3128 276.773 73.6362 277.492 72.9878C278.606 71.9869 279.917 72.0574 281.242 72.7622C283.709 74.0591 284.4 76.1172 284.16 78.866ZM280.467 78.9646C280.467 78.5418 280.467 78.2598 280.467 77.9779C280.495 77.3999 280.509 76.7938 279.79 76.6528C279.212 76.5401 278.803 76.7797 278.38 77.2872C277.365 78.5136 276.872 79.9232 276.491 81.4174C276.308 82.1363 276.802 82.5733 277.239 82.9398C277.647 83.2782 279.071 83.0808 279.24 82.6579C279.734 81.4033 280.763 80.3179 280.453 78.9646H280.467Z" fill="#A01857"/>
<path d="M396.55 68.2372C399.44 67.9553 402.287 68.3077 404.994 68.8998C406.277 67.5888 405.205 66.2778 405.205 65.0233C405.205 64.84 404.627 64.544 404.289 64.4876C402.555 64.2057 400.765 64.1211 399.059 63.7123C397.72 63.3881 396.282 62.937 395.761 61.3582C395.451 60.4419 395.577 60.16 396.325 59.6525C397.706 58.7222 399.228 59.0605 400.709 59.145C401.146 59.1732 401.583 59.4129 401.991 59.3706C403.359 59.2296 404.599 59.6807 405.868 60.0613C406.065 60.1177 406.305 60.2023 406.418 60.3432C407.207 61.4005 408.123 62.4154 408.687 63.5854C409.42 65.0937 409.307 68.8152 407.348 70.1403C407.094 70.3094 406.84 70.4504 406.587 70.6195C406.347 70.7746 406.037 70.9015 405.91 71.127C405.191 72.4521 403.894 72.7904 402.612 72.875C401.033 72.9736 399.398 72.875 397.988 71.9446C397.537 71.6486 397.058 71.3385 396.691 70.9297C395.718 69.8583 395.718 69.5482 396.508 68.2372H396.55Z" fill="#A01857"/>
<path d="M449.863 66.8558C450.173 68.1385 449.764 68.8856 448.791 69.5341C445.718 71.5358 442.406 72.2406 438.882 71.1834C437.12 70.6477 435.343 69.8442 434.47 67.9976C434.075 67.1659 433.722 66.2778 433.61 65.3756C433.469 64.1633 434.808 63.2894 436.048 63.5713C437.528 63.9096 439.037 64.1351 440.517 64.4735C442.631 64.9527 444.76 65.4461 446.86 65.9818C447.861 66.2355 448.834 66.5738 449.863 66.8839V66.8558Z" fill="#A01857"/>
<path d="M130.946 97.8679C130.452 96.7261 129.916 95.5984 129.902 94.3015C129.902 93.8223 129.592 93.343 129.606 92.8637C129.691 91.2849 129.719 89.6779 130.269 88.1837C130.734 86.9009 132.538 86.6049 133.314 87.6903C134.54 89.3819 134.836 91.3413 134.611 93.3712C134.554 93.8786 134.202 94.4002 133.863 94.809C132.961 95.8803 132.637 97.4873 130.931 97.882L130.946 97.8679Z" fill="#A01857"/>
<path d="M219.471 14.544C218.287 15.3475 217.329 16.3201 216.187 16.6584C215.102 16.9827 213.805 16.6584 212.381 16.602C212.494 17.6593 212.635 18.787 212.747 19.9288C212.79 20.3094 212.86 20.7323 212.747 21.0847C212.522 21.7331 212.508 22.3252 212.564 23.0159C212.621 23.5657 212.55 24.341 211.662 24.6229C211.197 24.778 210.859 25.3136 210.464 25.6801C209.237 26.8361 207.616 26.2299 207.081 24.8766C206.869 24.341 206.771 23.7066 206.756 23.1287C206.728 20.0416 206.742 16.9404 206.742 13.6418C204.05 14.7131 201.498 15.6858 198.609 15.3616C198.848 16.6725 199.187 17.8284 199.215 18.9843C199.257 20.4504 199.257 22.0292 197.876 23.0441C196.41 24.1154 194.76 24.778 192.914 24.482C192.11 24.3551 191.871 23.5798 191.814 22.8045C191.716 21.2539 192.308 19.8865 192.928 18.5333C193.393 17.5042 193.985 16.5316 194.563 15.4602C191.589 15.3052 188.699 15.1078 186.782 12.4295C187.473 10.4419 187.656 10.315 189.841 10.3009C191.716 10.2868 193.619 10.5124 195.437 9.80757C195.606 8.1019 195.775 6.41033 195.944 4.71876C198.101 4.40864 199.06 5.14165 199.257 7.27021C199.314 7.83407 199.257 8.39793 199.257 8.96178C199.285 10.1177 199.384 10.2164 200.469 10.315C201.738 10.4278 203.021 10.4419 204.275 10.6675C205.164 10.8366 205.995 11.2877 206.982 11.6683V5.12756C208.744 4.78924 209.731 5.12756 210.281 6.60768C210.971 8.42612 211.436 10.3432 212.029 12.3167C214.284 12.6691 216.652 13.0357 219.091 13.4022C219.415 11.5696 219.091 9.90624 218.696 8.24287C218.583 7.80588 218.626 7.25612 218.781 6.83322C219.246 5.66322 219.641 5.62093 220.599 6.45262C221.685 7.41118 222.305 8.62347 222.615 10.0049C222.869 11.1749 223.038 12.3731 223.348 13.5431C224.109 16.447 224.025 19.4072 223.926 22.3534C223.87 24.1295 221.614 25.2573 220.063 24.4256C219.457 24.1013 219.274 23.5093 219.316 22.734C219.471 20.4081 219.486 18.0822 219.542 15.7422C219.542 15.4179 219.5 15.0937 219.457 14.544H219.471ZM196.974 22.0292C196.649 20.3658 197.396 18.7165 196.494 17.1518C194.845 18.2231 194.915 20.1543 193.9 21.4512C193.745 21.6486 193.872 22.0715 193.872 22.6212C194.958 22.4239 195.888 22.2406 196.959 22.0433L196.974 22.0292Z" fill="#050101"/>
<path d="M523.193 16.7712C522.812 16.01 522.601 15.573 522.361 15.0796C522.671 14.262 523.263 14.0083 524.179 14.0083C527.845 14.0506 531.524 13.7827 535.161 14.0929C538.177 14.3466 541.18 14.2479 544.182 14.3748C545.113 14.4171 546.043 14.6426 546.973 14.699C547.847 14.7413 548.693 14.84 549.06 15.7281C549.412 16.5879 548.919 18.0681 548.087 18.5614C547.086 19.1535 545.944 19.4072 544.774 19.4354C543.703 19.4495 542.632 19.4072 541.56 19.4354C541.152 19.4354 540.743 19.6046 540.306 19.816C542.744 20.8451 543.083 23.1287 543.604 25.1727C543.971 26.5964 543.943 28.147 543.999 29.6412C544.041 30.7126 543.802 30.9381 542.744 30.924C539.714 30.8817 540.362 31.3751 539.573 28.4007C539.079 26.5541 538.995 24.6934 538.967 22.8327C538.967 21.8741 539.22 20.9014 539.404 19.7032C539.122 19.6328 538.656 19.4495 538.163 19.4213C536.176 19.2804 534.146 19.4072 532.2 19.0266C529.649 18.5332 526.956 18.6178 524.56 17.4055C524.475 17.3632 524.349 17.4337 524.123 17.476C524.32 18.1244 524.56 18.7447 524.715 19.3931C524.842 19.9147 523.883 21.3384 523.32 21.4653C522.206 21.719 521.05 21.8177 519.965 22.1701C518.752 22.5507 517.526 22.3252 516.342 22.5225C513.156 23.0723 509.956 22.734 506.77 22.8045C504.811 22.8467 503.063 21.9446 501.259 21.3525C500.723 21.1693 500.342 20.2953 500.06 19.6751C499.807 19.1112 500.582 18.2513 501.428 18.1103C502.513 17.9412 503.627 17.8848 504.712 17.7438C505.741 17.617 506.77 17.4478 507.94 17.2787C506.728 14.2338 507.095 11.2877 507.898 8.34152C509.773 8.58116 510.548 9.46924 510.901 11.5978C511.07 12.6127 511.352 13.6136 511.493 14.6285C511.563 15.1642 511.605 15.8126 511.394 16.2778C511.027 17.0813 511.394 17.3491 512.042 17.3773C513.17 17.4337 514.354 17.617 515.411 17.3491C517.258 16.8699 519.091 17.2223 520.909 17.0531C521.6 16.9967 522.276 16.8699 523.179 16.743L523.193 16.7712Z" fill="#050101"/>
<path d="M259.619 26.554C259.45 24.8624 259.21 23.4387 259.196 22.0009C259.182 20.6335 259.393 19.2803 259.506 17.8847C257.913 17.7155 256.447 17.5605 254.798 17.3772C255.629 19.1675 255.432 20.9718 255.531 22.7339C255.615 24.1435 254.431 24.8765 252.542 24.7779C250.992 22.17 251.485 19.2239 251.358 16.2777C250.865 16.1931 250.428 16.0804 249.991 16.0663C248.398 15.9958 247.2 15.3051 246.368 13.9377C245.621 12.7113 246.143 11.5131 247.566 11.3158C247.848 11.2735 248.13 11.3158 248.412 11.3017C251.739 11.3017 255.066 11.2453 258.392 11.2876C259.605 11.3017 260.817 11.5131 262.029 11.64C263.242 11.7669 264.454 11.7387 265.68 11.8937C267.231 12.0911 268.655 12.5281 270.106 12.9791C270.684 13.1483 271.093 13.4161 271.037 13.9659C270.938 14.9245 270.755 15.883 270.459 16.7993C270.177 17.6733 269.416 18.0257 268.514 18.0821C266.695 18.1948 264.863 18.3358 262.974 18.4627C263.326 20.4784 263.495 22.452 262.917 24.3832C262.79 24.792 262.537 25.1585 262.368 25.5673C262.057 26.3144 262.311 26.7796 263.101 26.8641C264.468 27.0051 265.849 27.0615 267.231 27.2306C268.161 27.3434 269.261 27.1743 269.74 28.3584C269.782 28.4711 269.994 28.5557 270.149 28.598C271.46 28.9645 271.812 30.1768 272.165 31.2058C272.503 32.1785 273.109 33.1934 272.432 34.3493C272.122 34.8709 272.136 35.618 272.094 36.2664C272.038 37.2532 271.234 37.6902 270.614 38.1695C269.867 38.7474 269.092 38.254 268.993 37.2955C268.781 35.2092 268.57 33.137 268.344 30.9662C266.991 30.9239 265.835 30.9521 264.595 31.1635C262.79 31.4737 260.845 31.4737 259.041 31.1776C257.518 30.938 256.038 30.9098 254.544 30.938C253.444 30.9662 252.613 30.5574 251.809 29.9372C251.133 29.4015 250.837 28.1469 251.147 27.3857C251.358 26.8641 251.781 26.8359 252.26 26.8359C254.008 26.8359 255.756 26.8641 257.504 26.8359C258.139 26.8359 258.773 26.6527 259.647 26.5117L259.619 26.554Z" fill="#050101"/>
<path d="M332.892 13.7827C333.314 14.3184 333.991 14.84 334.203 15.5166C334.64 16.8276 333.455 18.2654 331.975 18.4345C329.833 18.6742 327.704 18.942 325.561 19.0971C324.899 19.1394 324.631 19.4777 324.518 19.9429C324.321 20.7323 324.25 21.564 324.11 22.3675C323.912 23.4952 323.743 24.637 323.447 25.7365C323.052 27.2166 321.276 28.0906 319.951 27.5267C319.43 27.3153 319.021 26.2299 319.19 25.5532C319.683 23.4952 320.078 21.4089 321.051 19.4918C321.065 19.4495 321.037 19.379 320.994 19.1817C320.501 19.1535 319.951 19.0689 319.415 19.0971C317.949 19.1817 316.765 18.5332 315.652 17.7297C315.088 17.3209 314.82 16.6443 315.046 15.9818C315.243 15.4038 315.793 15.1642 316.455 14.9809C318.837 14.3325 321.389 14.6426 323.715 13.7122C323.814 13.67 323.94 13.6981 324.053 13.6841C325.829 13.5713 327.591 13.4444 329.607 13.3175C329.086 12.7255 328.677 12.2603 328.212 11.7387C328.31 11.4427 328.494 11.1044 328.55 10.7379C328.634 10.174 328.959 10.0754 329.452 9.9485C332.06 9.25778 334.724 9.27187 337.374 9.30006C338.206 9.30006 339.052 9.30006 339.898 9.30006C340.067 8.65163 340.236 8.10187 340.081 7.43934C339.926 6.74861 340.081 5.9874 340.038 5.25439C339.982 4.4086 340.095 3.66149 340.927 3.26679C341.617 2.94258 342.928 3.36547 343.464 4.11258C343.873 4.69053 344.225 5.33897 344.437 6.0156C344.958 7.63669 345.212 9.31416 345.522 11.0057C345.931 13.2612 346.1 15.4884 346.17 17.7579C346.227 19.3367 346.664 20.9014 346.791 22.4943C346.903 23.8476 346.607 24.1859 345.578 24.5383C343.957 25.1022 342.801 24.9471 342.097 23.9885C340.969 22.4379 340.222 20.8027 340.349 18.787C340.49 16.6584 340.377 14.5157 340.377 12.3731C340.377 12.0489 340.335 11.7247 340.292 11.0621C338.135 13.388 335.302 13.1343 332.934 13.7827H332.892Z" fill="#050101"/>
<path d="M448.101 12.2744C448.792 12.1898 449.469 12.0348 450.159 12.0207C451.287 11.9784 452.415 12.077 453.542 12.0207C455.812 11.8938 458.067 11.7105 460.45 11.5414C460.45 11.2172 460.436 10.8929 460.45 10.5687C460.562 8.97583 460.633 7.36884 460.802 5.77595C460.929 4.52136 461.394 4.25353 463.17 4.30992C464.834 7.19968 466.032 10.3432 466.878 13.6136C467.258 15.0937 467.498 16.602 467.681 18.1244C467.766 18.8997 467.597 19.7173 467.484 20.4926C467.385 21.2115 466.864 21.5921 466.215 21.8318C466.159 21.8459 466.102 21.8318 466.046 21.8459C462.931 23.0159 461.366 20.5067 461.112 18.1385C461.014 17.1518 460.816 16.1791 460.647 15.0655C460.083 15.2065 459.477 15.2346 458.984 15.4884C456.094 16.9403 453.077 16.6443 450.089 16.0663C448.736 15.8126 447.608 15.0514 447.495 13.233C446.861 14.0787 446.367 14.7413 445.804 15.5025C447.537 16.4187 448.834 17.7156 449.948 19.2521C450.921 20.6054 450.723 21.8741 449.37 22.6494C448.651 23.0582 447.819 23.0018 447.241 22.3674C446.48 21.5498 445.804 20.6759 445.071 19.8301C444.887 19.6186 444.662 19.4354 444.493 19.2239C443.971 18.5896 443.463 18.6601 442.942 19.2239C441.772 20.4785 440.517 21.6344 438.882 22.297C438.22 22.5648 437.585 22.889 436.923 23.1005C436.119 23.3683 435.414 23.185 434.357 22.5648C434.907 21.6908 434.752 20.6477 435.189 19.6468C435.654 18.6037 436.387 17.8284 437.05 17.039C438.783 14.995 440.658 13.0638 442.561 11.1608C443.379 10.3573 444.45 9.80752 445.296 9.03222C445.846 8.53885 446.424 8.59523 447.016 8.63752C448.2 8.73619 448.764 9.75114 448.313 10.8648C448.256 10.9916 448.087 12.2321 448.087 12.2744H448.101Z" fill="#050101"/>
<path d="M557.095 12.2744C555.22 11.8374 553.36 11.4004 551.499 10.9352C550.681 10.7238 549.723 9.35644 549.751 8.49656C549.765 7.79174 550.343 7.27017 551.245 7.25608C552.937 7.22788 554.628 7.25608 556.588 7.25608C555.347 6.49487 554.375 5.77595 553.289 5.29667C552.175 4.81739 551.823 3.87293 551.471 2.91438C551.161 2.05449 552.161 0.88449 553.289 1.2228C555.009 1.74437 556.785 2.0404 558.491 2.56197C559.675 2.92847 560.831 3.46414 561.93 4.04209C562.846 4.53546 563.283 5.81824 563.016 6.91776C564.27 6.91776 565.497 6.84728 566.709 6.94595C567.259 6.98824 567.921 7.22788 568.288 7.60849C568.668 7.98909 568.908 8.66572 568.908 9.20138C568.908 9.70885 568.33 10.0049 567.907 10.3714C566.54 11.4991 564.834 11.4427 563.312 11.9925C562.663 12.2321 561.944 12.2885 561.437 12.4013C561.254 13.7686 560.887 14.995 561 16.165C561.099 17.0672 560.958 17.8002 560.676 18.6178C560.535 19.0125 560.915 19.5482 560.901 20.0274C560.831 21.578 560.732 23.1287 560.549 24.6652C560.492 25.1162 560.14 25.5391 559.858 26.1312C562.494 26.3285 565.074 26.5118 568.02 26.7232C566.737 27.4422 565.948 28.3161 564.792 28.6122C562.466 29.2042 560.168 29.9654 557.715 29.9795C556.334 29.9795 554.952 30.2192 553.571 30.2896C552.274 30.346 551.161 29.8667 550.061 29.1478C549.525 28.7954 549.258 28.4289 549.469 27.9919C549.68 27.5549 550.16 27.2166 550.597 26.9629C550.85 26.8219 551.259 26.9629 551.597 26.9347C553.289 26.7937 554.981 26.6387 556.729 26.4836C556.151 24.059 557.236 22.0855 557.715 19.9006C557.419 19.8724 557.067 19.816 556.715 19.7878C555.545 19.7173 555.15 19.3226 555.192 18.1244C555.248 16.5174 555.869 15.0514 556.475 13.5854C556.686 13.092 556.94 12.6127 557.095 12.2885V12.2744ZM557.137 17.2504C559.083 17.476 559.196 17.2222 558.322 14.8963C557.941 15.6434 557.589 16.3624 557.137 17.2504Z" fill="#050101"/>
<path d="M86.2316 21.0988C85.7664 22.4943 84.6246 23.1568 83.2573 23.4951C82.0872 23.7771 80.9877 24.3409 79.7331 24.2564C79.4653 24.2423 79.1693 24.5383 78.8169 24.7356C79.2116 26.4977 78.6759 28.2738 78.8451 30.0782C78.9015 30.7548 78.6336 31.4878 78.4081 32.1644C78.253 32.6296 76.6601 33.0948 76.0117 32.9679C74.1369 32.5732 73.6999 31.9953 73.4602 29.9654C73.2347 28.1188 72.8682 26.2862 72.5581 24.355C72.1211 24.2423 71.5008 23.9744 70.8806 23.918C68.6674 23.6925 67.6525 21.9868 66.4966 20.4503C66.3274 20.2248 66.3556 19.816 66.3415 19.4918C66.2711 17.5183 67.0605 15.8408 68.2446 14.3466C70.1758 11.8938 72.2056 9.51149 74.1791 7.0869C74.4611 6.74859 74.7007 6.36798 74.9404 6.01557C75.5042 5.19798 76.3782 4.94424 77.2663 4.94424C78.2953 4.94424 79.1552 6.39618 78.7182 7.53799C78.3799 8.44016 77.8019 9.27185 77.224 10.0612C76.8857 10.5264 76.7306 10.8506 76.9984 11.4004C77.7315 12.8664 77.9288 14.4452 77.8724 16.0945C77.8301 17.1799 78.0698 18.2795 78.1825 19.379C78.2389 19.9287 78.5772 20.112 79.0988 20.1402C80.9313 20.2389 82.7639 20.3516 84.5823 20.4785C85.1744 20.5208 85.8651 20.2953 86.2457 21.1128L86.2316 21.0988ZM73.3475 15.0796C71.8673 16.2496 69.9079 18.9843 69.7952 20.0415H72.9528C73.0796 18.3781 73.2065 16.7711 73.3334 15.0796H73.3475Z" fill="#050101"/>
<path d="M15.4821 27.3434C20.3876 27.8932 25.0113 29.0068 30.1001 28.4853C29.1415 29.8103 28.0984 30.5433 26.9989 30.8676C25.5469 31.2904 24.1373 31.8261 22.5867 32.0376C20.7964 32.2913 19.0203 32.3195 17.2582 32.2349C15.1438 32.1503 13.2408 31.2059 11.8452 29.5848C10.4638 27.9919 10.5624 26.2157 11.4646 24.355C12.9165 21.3525 14.3826 18.3499 15.3411 15.1359C15.6231 14.2056 15.9614 13.2893 16.3279 12.2321C15.031 11.4004 13.72 11.4427 12.2963 11.9361C11.5774 12.1757 10.788 12.2321 10.0268 12.2885C9.80123 12.3026 9.47701 12.1193 9.33605 11.922C8.84267 11.2453 9.20918 9.3846 9.94219 8.91942C10.6752 8.46833 11.4364 7.89038 12.2399 7.74941C14.2839 7.3829 16.342 7.22784 17.949 9.03219C18.6115 9.7652 19.4996 10.3009 20.1903 11.0198C22.2484 13.2047 22.6713 15.6857 22.1215 18.6741C21.614 21.4229 19.9929 23.2978 18.3578 25.229C17.6811 26.0325 16.6239 26.5118 15.4962 27.3153L15.4821 27.3434Z" fill="#050101"/>
<path d="M177.281 21.296C177.281 22.6211 177.154 23.8193 177.309 24.9752C177.478 26.2298 176.9 27.146 176.238 27.9918C175.603 28.8094 174.56 29.0209 173.545 28.8799C173.292 28.8517 172.897 28.3442 172.911 28.0764C172.996 26.5822 173.108 25.088 173.362 23.6219C173.517 22.7198 173.954 21.8599 174.321 20.8027C173.757 20.8027 173.32 20.8027 172.897 20.8027C170.909 20.7604 168.936 20.859 166.962 20.2247C165.694 19.8159 164.284 19.8441 163.001 19.238C161.14 18.364 161.028 18.2935 161.084 16.2213C161.986 16.0663 162.903 15.9112 163.819 15.7702C164.749 15.6293 165.68 15.5165 166.596 15.3755C168.767 15.0372 170.923 14.6284 173.094 14.3888C175.025 14.1773 176.985 14.1632 178.93 14.0364C180.199 13.9518 181.453 14.0787 182.75 13.7826C183.751 13.543 184.921 13.9659 186.007 14.1632C186.754 14.3042 187.515 14.4593 188.177 14.7976C189.206 15.305 189.347 15.9535 188.981 17.053C188.361 18.9278 186.993 19.971 185.175 20.4221C184.273 20.6476 183.328 20.704 182.398 20.8027C180.749 20.9718 179.085 21.1269 177.281 21.296Z" fill="#050101"/>
<path d="M54.3748 26.0325C57.1518 26.7091 59.7878 27.0051 62.452 26.8924C62.6776 26.8924 62.9031 26.8924 63.1286 26.8924C64.355 26.9487 64.5665 27.3575 63.9603 28.4993C63.03 30.2332 61.5076 31.0226 59.6327 31.2904C58.9279 31.3891 58.2372 31.5301 57.5324 31.6147C57.1941 31.6569 56.8416 31.6992 56.5174 31.6147C54.262 30.9944 51.922 30.5856 50.2868 28.5839C48.7221 26.6668 48.1582 24.651 49.3282 22.3674C50.174 20.704 51.0903 19.0829 51.9361 17.4196C52.6832 15.9817 53.5854 14.5862 53.4585 12.7818C52.359 12.514 51.2876 12.3167 50.2727 11.9783C49.6666 11.781 49.1027 11.3863 48.5811 11.0057C48.0173 10.5969 47.9327 9.99074 48.1864 9.34231C48.4261 8.73616 48.8913 8.34146 49.5256 8.28507C51.626 8.08772 53.6277 8.24278 55.136 10.0612C55.6575 10.6956 56.4751 11.0903 56.9544 11.7528C57.5747 12.6268 58.2372 13.6135 58.4486 14.6426C58.7869 16.1932 58.8574 17.8284 58.8433 19.4353C58.8433 20.1684 58.4063 20.9014 58.1385 21.6203C57.9412 22.1278 57.7297 22.6352 57.4196 23.0581C57.1095 23.481 56.6866 23.8334 56.2637 24.1436C55.573 24.6369 54.7836 25.0034 54.3889 26.0325H54.3748Z" fill="#050101"/>
<path d="M420.825 18.35C420.317 16.306 419.796 14.2056 419.246 11.9361C418.866 12.0489 418.414 12.1758 417.963 12.3167C416.004 12.9229 414.045 13.5431 411.93 12.5564C411.719 13.4444 411.676 14.1493 411.972 14.9246C412.536 16.4047 411.662 17.7016 411.239 19.0407C411.084 19.5059 409.097 19.9288 408.476 19.7314C407.462 19.3931 406.686 18.2795 406.686 17.2082C406.686 14.2197 406.771 11.2454 406.644 8.27104C406.573 6.72044 407.137 5.33899 407.391 3.88705C407.518 3.15404 408.815 2.9003 409.294 3.53464C409.773 4.16898 410.098 4.93019 410.408 5.66321C410.718 6.41032 410.901 7.19972 411.127 7.90454C413.72 7.77767 416.159 7.6508 418.767 7.50984C418.894 6.60767 419.077 5.60682 419.19 4.57778C419.246 4.07031 419.162 3.42187 419.768 3.3232C420.374 3.22452 421.079 3.3232 421.671 3.54874C422.037 3.67561 422.376 4.1126 422.573 4.5073C423.63 6.62176 424.518 8.79261 424.645 11.2031C424.687 11.9643 424.969 12.7255 424.955 13.4867C424.941 14.4171 424.814 15.3615 424.56 16.2496C424.18 17.617 422.686 18.4769 420.867 18.3641L420.825 18.35Z" fill="#050101"/>
<path d="M296.663 18.5051C296.818 18.6742 296.945 18.9139 297.114 18.9843C298.172 19.3931 299.243 19.7596 300.314 20.1403C301.371 20.5068 302.062 21.3244 302.626 22.2124C303.19 23.0864 302.696 24.3128 301.682 24.8766C299.849 25.8775 297.34 25.5674 295.775 24.1154C295.535 23.8899 295.254 23.6785 295.084 23.3965C294.563 22.5507 293.816 22.3675 293.195 22.4662C292.406 23.0864 291.87 23.608 291.236 23.9886C290.08 24.6793 288.882 25.3136 287.684 25.9339C287.402 26.0748 287.078 26.1876 286.767 26.2158C284.963 26.4273 283.962 25.4405 284.879 23.4106C285.696 21.6063 286.894 20.2248 288.53 19.0407C290.574 17.5465 292.378 15.714 294.196 13.6841C293.632 13.6841 293.04 13.5854 292.505 13.6982C291.25 13.9801 290.263 13.1625 289.15 12.9229C288.797 12.8383 288.515 12.3308 288.276 11.9643C287.909 11.4146 287.613 10.8366 287.261 10.2305C287.825 9.24371 288.811 8.98998 289.812 8.96178C291.617 8.8913 293.421 8.9054 295.211 8.96178C296.085 8.98998 296.987 9.07456 297.805 9.34239C299.454 9.89215 300.568 11.4428 300.018 13.5995C299.68 14.9387 298.735 15.8972 297.988 16.9686C297.622 17.4901 297.157 17.9553 296.691 18.4769L296.663 18.5051Z" fill="#050101"/>
<path d="M492.153 3.18219C493.351 3.78833 493.746 4.74689 493.943 5.8887C494.31 7.98907 494.732 10.0894 495.169 12.3308C496.847 12.3308 498.623 12.3308 500.413 12.3308C501.048 12.3308 501.809 12.0911 502.034 13.0497C502.189 13.6699 501.597 14.7695 500.864 15.0232C499.173 15.6152 497.453 16.1368 495.733 16.6866C495.79 17.3491 495.874 18.1526 495.945 18.9702C495.987 19.4636 496.043 19.971 496.072 20.4644C496.086 20.9296 496.086 21.3948 496.072 21.86C496.058 22.2969 495.987 22.748 495.945 23.185C495.832 24.3973 495.79 25.6096 495.606 26.8078C495.353 28.443 492.59 30.2755 490.983 29.9372C490.771 29.8949 490.504 29.8103 490.405 29.6553C489.756 28.598 488.882 27.569 488.882 26.3003C488.882 23.3965 488.995 20.5067 489.221 17.6169C489.333 16.0522 489.799 14.5157 490.038 12.951C490.095 12.5704 489.771 12.1052 489.869 11.7528C490.405 9.87799 490.024 7.97497 490.222 6.10015C490.306 5.36713 490.63 4.62002 490.997 3.97159C491.194 3.61918 491.702 3.46412 492.125 3.16809L492.153 3.18219Z" fill="#050101"/>
<path d="M236.556 26.4413C236.218 25.8633 235.88 25.4686 235.739 25.0175C235.203 23.3401 234.823 21.6344 234.78 19.8442C234.738 18.3499 234.625 16.8416 234.442 15.3615C234.301 14.2197 234.978 13.4585 235.485 12.6268C235.781 12.1475 236.415 12.2321 236.838 12.6973C237.952 13.9659 238.149 15.587 238.572 17.1095C239.052 18.8433 239.489 20.5772 239.813 22.3392C240.052 23.6643 239.968 24.9894 238.502 25.7224C238.361 25.7929 238.29 25.9761 238.192 26.103C238.163 26.1453 238.192 26.2157 238.192 26.4131C239.432 26.3567 240.518 27.0192 241.955 26.6386C243.591 26.2157 245.423 26.4554 247.171 26.54C248.397 26.6104 248.764 27.3435 248.383 28.5698C248.073 29.5989 247.96 30.783 246.762 31.2059C246.043 31.4596 245.254 31.516 244.493 31.5865C243.873 31.6429 243.252 31.5724 242.632 31.6006C241.081 31.6852 239.545 31.6147 237.98 31.8543C236.373 32.094 234.653 31.7556 233.018 31.5301C231.58 31.3187 230.171 30.8535 228.733 30.5997C226.957 30.2755 225.505 29.2747 223.997 28.3866C223.729 28.2315 223.503 27.9214 223.362 27.6254C223.038 26.9065 223.419 26.258 224.222 26.1875C224.73 26.1453 225.279 26.0466 225.73 26.2016C227.535 26.8219 229.353 26.1594 231.172 26.3567C232.934 26.5541 234.738 26.399 236.571 26.399L236.556 26.4413Z" fill="#050101"/>
<path d="M108.589 11.6542C109.731 14.0083 110.859 16.3624 111.522 18.9138C112.156 21.3666 110.873 22.1278 109.041 22.1701C108.068 22.1983 107.631 21.4794 107.278 20.8169C106.672 19.6609 106.207 18.4487 105.601 17.0672C105.347 17.7297 105.023 18.3218 104.896 18.9561C104.445 21.2116 103.374 23.0723 101.612 24.5242C100.611 25.3559 98.2427 25.4828 97.2136 24.8061C96.2128 24.1436 95.6912 22.5084 96.241 21.4935C97.6788 18.787 99.173 16.0945 100.611 13.388C101.428 11.8374 102.232 10.2727 102.965 8.67983C103.317 7.89043 103.487 7.01645 103.768 6.08608C105.601 5.64909 106.701 6.4244 106.968 8.44019C107.138 9.69477 107.8 10.752 108.646 11.6965L108.604 11.6542H108.589Z" fill="#050101"/>
<path d="M396.819 5.66314C395.677 4.40855 394.648 3.35132 393.703 2.19541C393.379 1.80071 393.295 1.20866 393.069 0.644807C394.042 -0.172786 395.31 -0.144593 396.086 0.348782C397.467 1.22276 398.665 2.46325 399.737 3.71783C400.611 4.74687 400.427 5.11337 399.356 6.00145C400.216 6.48073 401.118 6.96001 401.992 7.49567C403.106 8.1723 403.204 8.63748 402.584 9.7511C401.809 11.1748 400.907 12.4858 399.356 13.5994C400.089 13.8391 400.625 13.9941 401.146 14.2056C401.696 14.4452 402.246 14.7271 402.767 15.0091C403.853 15.6011 403.923 16.32 402.894 16.9403C401.414 17.8143 399.835 18.1949 398.2 17.2786C397.876 17.0953 397.523 16.9262 397.199 16.7429C396.523 16.3623 395.874 16.2777 395.169 16.7288C394.662 17.053 394.028 17.194 393.548 17.5464C392.773 18.1244 391.913 18.068 391.025 18.1244C390.207 18.1808 389.658 17.8143 389.46 17.1517C389.249 16.4892 389.122 15.6857 389.813 15.1359C391.391 13.8532 392.984 12.5704 394.563 11.2876C394.859 11.048 395.127 10.7801 395.522 10.3995C394.338 10.2445 393.309 10.1176 392.294 9.97664C391.758 9.90616 390.475 8.69387 390.405 8.24278C390.334 7.69302 390.94 6.84724 391.673 6.45254C392.364 6.08603 393.069 5.87458 393.872 5.90277C394.831 5.93097 395.79 5.76181 396.79 5.66314H396.819Z" fill="#050101"/>
<path d="M32.7074 25.229C30.9876 25.3136 29.8176 23.8053 28.6194 22.452C27.83 21.5498 27.3366 20.549 27.3366 19.1816C27.3366 17.9411 26.8855 16.7148 27.4212 15.4602C28.704 12.4435 30.8043 10.1881 33.8069 8.82075C34.695 8.41196 35.6817 8.29919 36.3442 9.27184C37.1195 10.4137 38.3177 10.9352 39.4314 11.6118C41.6304 12.9651 42.3211 15.8267 41.4612 18.1949C40.6436 20.4221 39.1776 22.015 37.486 23.481C36.2597 24.5383 34.8218 25.2008 32.7355 25.2149L32.7074 25.229ZM37.0209 20.3657C37.2323 19.3649 37.4579 18.5614 37.5565 17.7579C37.7116 16.4469 37.7821 15.136 37.9089 13.825C37.9794 13.0779 37.5142 12.655 36.9645 12.4153C36.0482 12.0065 34.5117 12.4717 34.0324 13.388C33.0175 15.3192 32.0589 17.2927 31.2272 19.3085C30.762 20.4221 31.6501 21.4089 32.8906 21.5075C34.4553 21.6344 35.7522 20.9296 37.035 20.3657H37.0209Z" fill="#050101"/>
<path d="M108.631 11.6965C108.73 11.0621 108.828 10.4137 108.955 9.65249C110.816 9.49743 112.705 9.45514 114.551 9.17321C116.37 8.89128 118.16 9.70887 119.95 9.17321C119.894 8.29923 119.852 7.39706 119.753 6.49489C119.654 5.56452 119.485 4.63416 119.415 3.70379C119.372 3.15403 119.358 2.59018 120.063 2.33644C120.697 2.1109 121.219 2.0968 121.741 2.61837C123.122 3.98572 123.883 5.70549 124.518 7.48164C124.842 8.3979 125.039 9.37056 125.335 10.3009C125.8 11.7951 126.449 13.233 126.576 14.8259C126.646 15.6858 126.97 16.5738 126.844 17.3914C126.717 18.1808 126.167 18.9138 125.772 19.6469C125.674 19.8301 125.462 19.9993 125.279 20.0697C122.671 21.0283 120.19 19.2662 120.12 16.4047C120.077 14.7695 120.12 13.1484 120.12 11.3863C117.653 12.8101 115.087 13.3035 112.423 12.9792C111.535 12.8806 110.689 12.3731 109.829 12.063C109.42 11.922 109.026 11.781 108.617 11.6542L108.659 11.6965H108.631Z" fill="#050101"/>
<path d="M579.889 20.9155C579.889 22.0996 579.861 23.2837 579.889 24.4678C579.917 25.37 579.55 25.8775 578.691 26.2299C575.928 27.3999 573.094 25.0881 573.151 22.3815C573.207 19.4777 573.193 16.5597 573.489 13.6699C573.729 11.3017 574.152 8.96174 574.137 6.57944C574.137 6.32571 574.293 6.05787 574.363 5.80414C574.504 5.28257 574.49 4.63413 575.237 4.56365C575.998 4.49317 576.435 4.88787 576.844 5.52221C578.028 7.35474 578.634 9.35644 578.902 11.5273C579.099 13.2048 579.635 14.8399 579.818 16.5174C579.973 17.9694 579.847 19.4495 579.847 20.9014H579.889V20.9155Z" fill="#050101"/>
<path d="M382.455 11.0479C382.258 10.1176 382.018 9.44093 381.99 8.75021C381.919 7.34057 381.976 5.93092 381.962 4.52128C381.962 3.81646 382.328 3.53453 383.005 3.53453C384.175 3.52043 385.401 4.59176 385.697 5.83225C386.176 7.89033 386.811 9.90612 387.163 11.9783C387.431 13.5007 387.431 15.0936 387.389 16.6442C387.36 17.5464 385.387 18.66 384.485 18.3922C384.217 18.3076 383.865 17.9975 383.822 17.7578C383.625 16.5173 382.652 15.4601 382.976 14.1069C383.005 14.0082 382.906 13.8954 382.892 13.839C381.229 14.2901 379.579 14.7976 377.902 15.1782C375.717 15.6857 373.602 15.446 371.671 14.2901C370.952 13.8672 370.36 13.247 370.431 12.2461C370.501 11.203 370.642 11.0197 371.728 10.9633C373.842 10.8647 375.971 10.7096 378.085 10.6955C379.41 10.6955 380.749 10.8788 382.455 11.0197V11.0479Z" fill="#050101"/>
<path d="M365.186 11.4428C364.073 11.2172 363.128 11.626 362.536 10.738C362.494 10.6816 362.282 10.6534 362.24 10.7098C361.732 11.2313 361.408 10.9071 360.985 10.5406C360.393 10.0331 360.633 9.28602 360.365 8.69397C360.337 8.62349 360.675 8.31337 360.873 8.24289C361.493 8.04554 362.113 7.77771 362.747 7.76361C364.989 7.66494 367.286 7.08698 369.443 8.29928C370.444 8.86313 370.656 9.21554 370.162 10.2869C369.612 11.471 368.879 12.5705 368.231 13.7123C368.02 14.0788 367.822 14.4453 367.526 14.9951C370.092 14.9387 371.628 16.2356 372.84 18.0399C371.586 19.9852 370.261 20.3376 368.316 19.1817C367.568 18.7447 366.878 18.195 366.159 17.7016C365.75 17.4197 365.496 17.4056 365.087 17.8426C364.34 18.6461 363.466 19.3509 362.592 20.0275C361.775 20.6618 360.774 20.6196 360.154 20.0275C359.59 19.4918 359.463 18.632 359.999 17.7439C360.605 16.7571 361.169 15.6576 362.029 14.9387C363.227 13.9519 363.734 12.4436 365.186 11.4428Z" fill="#050101"/>
<path d="M177.69 10.4983C178.071 11.4851 177.958 11.9925 177.253 11.9502C175.547 11.8516 174.279 13.0216 172.728 13.2894C171.065 13.5854 169.444 14.248 167.71 13.9801C167.625 13.8955 167.541 13.8251 167.484 13.7405C166.681 12.5282 166.624 12.5282 166.497 11.0622C166.286 8.62348 166.497 6.22708 167.287 3.87298C167.583 2.97081 168.231 2.64659 168.964 2.54792C171.474 2.18141 173.983 1.57526 176.548 1.8431C177.14 1.89948 177.817 1.63165 178.24 2.28008C178.719 3.0131 179.41 3.70382 179.579 4.50732C179.931 6.10022 179.452 7.67902 178.846 9.15914C178.649 9.62432 178.141 9.96264 177.662 10.4701L177.69 10.4983ZM169.514 10.597H175.787C176.675 8.69396 176.83 7.22793 176.435 5.00069C174.349 5.3813 172.277 5.776 170.106 6.1707C169.063 7.43938 169.641 9.01818 169.514 10.597Z" fill="#050101"/>
<path d="M310.112 25.2009C308.928 23.5516 308.702 21.8036 308.547 20.0416C308.209 16.2496 308.124 12.4577 308.223 8.65166C308.237 7.90455 308.35 7.10106 308.632 6.41033C309.097 5.25442 310.225 4.80334 311.282 6.05792C311.973 6.86142 312.367 7.7213 312.283 8.80672C312.255 9.22962 312.452 9.65251 312.522 10.0895C312.776 11.8234 313.1 13.5431 313.256 15.277C313.453 17.4337 313.382 19.6328 313.692 21.7754C313.805 22.6071 313.693 23.3401 313.594 24.0873C313.509 24.778 313.002 25.1586 312.311 25.1868C311.578 25.215 310.859 25.1868 310.112 25.1868V25.2009Z" fill="#050101"/>
<path d="M151.259 18.8574C151.357 17.4195 151.498 15.9817 151.555 14.5439C151.611 12.669 151.357 10.8083 150.906 8.97577C150.836 8.65156 150.892 8.29914 150.906 7.96083C150.906 7.46746 150.78 6.79083 151.4 6.69215C151.95 6.59348 152.753 6.63577 153.091 6.95998C153.867 7.72119 154.628 8.62336 155.037 9.61011C155.995 11.8655 156.771 14.2055 157.574 16.5315C157.771 17.1235 157.771 17.786 157.856 18.4204C157.884 18.66 157.856 18.956 157.969 19.1252C158.265 19.5199 158.392 19.8018 158.096 20.3093C157.898 20.6476 158.011 21.1833 157.997 21.6344C157.969 22.8889 157.264 23.7347 156.038 23.8475C154.867 23.9462 153.74 23.7206 152.697 23.1568C152.387 22.9876 152.006 22.7198 151.921 22.4238C151.583 21.2679 151.343 20.0697 151.061 18.8856C151.132 18.8856 151.188 18.8574 151.259 18.8433V18.8574Z" fill="#050101"/>
<path d="M241.702 17.7297C241.194 16.6725 241.039 15.6857 241.42 14.6285C241.575 14.1774 241.673 13.5853 241.518 13.1625C241.152 12.1193 240.743 11.1185 240.828 9.96256C240.842 9.76521 240.419 9.4128 240.151 9.35642C239.672 9.25774 239.108 9.21545 238.657 9.35642C236.74 9.93437 234.752 9.76521 232.849 9.59606C231.411 9.46919 229.832 9.27184 228.747 7.90449C228.211 7.22786 227.901 6.63581 228.098 5.81821C231.566 4.94424 235.104 4.84556 238.657 4.93014C239.009 4.93014 239.362 5.19797 239.728 5.29665C239.996 5.36713 240.292 5.40942 240.574 5.40942C240.729 5.40942 240.926 5.25436 241.025 5.31074C241.814 5.80412 242.759 6.18472 243.309 6.87545C244.042 7.80581 244.634 8.90533 244.619 10.1881C244.605 11.5696 244.662 12.9228 244.056 14.262C243.703 15.0373 243.731 15.9676 243.478 16.7852C243.238 17.5605 242.646 17.9411 241.716 17.7579L241.702 17.7297Z" fill="#050101"/>
<path d="M137.078 10.6673C137.008 11.4426 136.937 12.2461 136.852 13.3316C137.459 13.9659 138.262 14.8399 138.558 16.0945C138.896 17.5182 138.755 18.7164 137.614 19.7172C136.627 20.5912 135.852 21.7612 134.456 22.0995C133.822 22.2546 133.187 22.3674 132.553 22.5083C131.327 22.7762 130.453 22.2123 129.861 21.2397C129.255 20.2388 128.437 19.2802 129.156 17.8988C129.875 16.5033 130.227 14.9104 131.059 13.5853C131.778 12.4435 132.849 11.4849 133.906 10.5828C134.794 9.82155 135.866 9.6101 137.078 10.6532V10.6673ZM136.091 18.4768C135.795 17.4759 135.556 16.4751 135.189 15.5165C134.949 14.8681 134.442 14.9245 134.005 15.5165C133.103 16.7429 132.553 18.1102 132.313 19.8441C133.667 19.5199 134.879 19.2098 136.091 18.4768Z" fill="#050101"/>
<path d="M411.86 29.0069C411.705 27.8087 411.578 26.5964 411.409 25.3982C411.31 24.7216 411.056 24.637 410.267 24.7498C408.124 25.0458 405.953 25.1586 403.783 25.1586C402.894 25.1586 401.992 24.7357 401.118 24.4114C400.879 24.3269 400.569 23.8899 400.611 23.6784C400.681 23.3683 400.977 22.9595 401.273 22.8749C402.161 22.6071 403.078 22.4097 403.994 22.3111C406.602 22.015 409.21 21.5217 411.846 22.3675C413.34 22.8467 414.411 23.5093 414.637 25.1867C414.876 27.0193 415.638 28.7813 415.483 30.6844C415.356 32.3054 414.75 33.6587 413.523 34.7159C412.889 35.2657 412.184 34.9979 412.099 34.1521C411.93 32.4464 411.818 30.7266 411.677 29.0069C411.747 29.0069 411.803 28.9928 411.874 28.9787L411.86 29.0069Z" fill="#050101"/>
<path d="M513.862 13.3598C513.721 10.3149 513.58 7.38287 513.439 4.29575C513.129 4.28166 512.649 4.1125 512.297 4.25347C510.774 4.87371 509.196 4.45082 507.659 4.56359C506.503 4.64816 506.123 3.61913 505.488 2.97069C505.404 2.88611 505.559 2.35045 505.714 2.27997C506.334 1.96984 506.997 1.58924 507.659 1.56105C509.957 1.47647 512.269 1.51876 514.566 1.53285C515.511 1.53285 516.61 2.36454 516.935 3.309C517.357 4.56359 517.752 5.80407 517.639 7.17143C517.583 7.81986 517.752 8.48239 517.865 9.13083C518.02 10.0612 517.752 10.8788 517.202 11.5836C516.441 12.5563 515.483 13.2752 513.847 13.3739L513.862 13.3598Z" fill="#050101"/>
<path d="M372.784 28.4853C372.911 27.7241 372.897 26.8924 373.207 26.2017C374.11 24.2 375.04 22.1983 376.59 20.5913C377.521 19.6327 378.465 19.5622 379.579 20.112C380.523 20.5772 380.382 21.5075 380.594 22.2547C380.819 23.0441 380.974 23.8898 380.904 24.6933C380.819 25.7083 380.763 26.9347 380.185 27.6677C378.874 29.3311 377.493 31.1072 375.082 31.3046C374.236 31.375 373.517 30.924 373.207 30.0782C373.095 29.7681 372.954 29.4861 372.869 29.176C372.813 28.9646 372.869 28.7249 372.869 28.4994C372.841 28.4994 372.813 28.4994 372.799 28.4994L372.784 28.4853ZM377.775 24.933C377.648 24.9048 377.535 24.8625 377.408 24.8343C377.027 25.8211 376.647 26.8219 376.238 27.8932C378.085 27.7382 378.169 27.5408 377.76 24.933H377.775Z" fill="#050101"/>
<path d="M478.367 20.0978C481.144 19.9851 483.723 18.956 486.401 19.9146C485.823 20.9154 484.935 21.437 483.878 21.9586C481.891 22.9312 479.818 23.1991 477.704 23.5656C476.196 23.8334 474.716 23.8334 473.221 23.8334C471.657 23.8334 471.262 23.4105 471.262 21.8317C471.262 21.5498 471.29 21.2819 471.304 20.8168C472.657 20.5348 474.039 20.2388 475.533 19.9287C475.688 18.801 475.843 17.49 476.027 16.1931C476.111 15.6011 476.21 14.9949 476.351 14.417C476.633 13.2188 476.745 13.1765 477.901 13.6699C478.042 13.7263 478.197 13.7827 478.381 13.8531V20.1119L478.367 20.0978Z" fill="#050101"/>
<path d="M530.481 8.84899C530.41 6.67814 531.595 5.18391 532.624 3.6615C533.089 2.95668 533.779 2.37872 534.442 1.82896C535.048 1.33559 535.852 1.40607 536.401 1.87125C536.993 2.37872 537.163 3.16812 537.867 3.6756C538.417 4.08439 538.629 5.12753 538.713 5.91693C538.854 7.08693 538.558 8.25694 538.037 9.34236C537.459 10.5687 536.359 10.8225 535.189 10.9775C534.71 11.048 534.216 11.1749 533.751 11.33C531.538 12.0771 530.509 11.33 530.481 9.00405C530.481 8.89127 530.481 8.7785 530.481 8.82079V8.84899ZM534.992 5.21211C534.371 6.33982 533.723 7.53802 533.018 8.8067C534.766 8.97585 535.556 8.66573 535.964 7.74946C536.063 7.52392 536.19 7.15741 536.091 7.04464C535.654 6.50898 536.275 5.47994 534.992 5.21211Z" fill="#050101"/>
<path d="M481.101 18.1385C480.467 16.8417 480.833 15.6012 480.763 14.403C480.693 13.1766 480.749 11.9643 480.749 10.5829C479.593 10.7379 478.634 10.9071 477.662 10.9916C476.999 11.048 476.309 10.9916 475.632 10.9916C473.348 10.9916 473.207 10.8366 473.391 8.31333C475.928 7.43935 478.494 6.88959 481.242 7.52393C481.905 7.67899 482.581 7.70718 482.976 8.34152C483.512 9.2296 484.174 10.0754 484.174 11.189C484.174 12.3167 484.203 13.4303 484.174 14.558C484.118 16.01 482.976 17.3632 481.101 18.1244V18.1385Z" fill="#050101"/>
<path d="M531.397 32.7142C530.283 33.2358 529.142 33.0244 528.056 32.9398C527.267 32.8834 526.929 32.0517 526.816 31.3892C526.59 30.0782 526.492 28.7531 526.421 27.414C526.365 26.4554 526.463 25.4969 526.421 24.5383C526.365 23.185 526.689 21.9164 527.112 20.6618C527.464 19.6045 528.465 19.3649 529.085 20.2671C529.691 21.1552 530.255 22.1701 530.481 23.1991C530.946 25.3982 531.087 27.6677 531.566 29.8667C531.792 30.8958 531.482 31.7416 531.411 32.7001L531.397 32.7142Z" fill="#050101"/>
<path d="M458.829 26.9206C458.688 27.8932 458.603 28.8941 458.363 29.8385C458.265 30.2191 457.884 30.5715 457.56 30.8394C456.305 31.8684 454.769 32.2772 453.232 32.6014C451.865 32.8974 450.78 32.0516 450.667 30.5151C450.61 29.6694 450.751 28.7249 451.118 27.9778C452.062 26.0466 453.148 24.1717 454.91 22.8326C455.333 22.5084 455.854 22.2546 456.376 22.1841C456.855 22.1137 457.616 22.1419 457.095 23.0722C457.052 23.1568 457.165 23.4105 457.278 23.481C458.49 24.3127 458.956 25.4686 458.843 26.9065L458.829 26.9206ZM455.375 26.0889C454.022 27.132 454.022 28.7672 453.105 30.4588C454.219 30.205 454.966 30.0359 455.699 29.8667C455.558 29.0773 455.431 28.4993 455.375 27.9214C455.319 27.3152 455.375 26.7091 455.375 26.103V26.0889Z" fill="#050101"/>
<path d="M115.397 33.9829C113.367 34.0111 112.324 32.6578 112.606 31.0649C112.747 30.2614 112.789 29.4297 112.945 28.6121C113.353 26.4836 114.509 24.7638 116.088 23.326C116.877 22.593 118.146 22.889 118.386 23.9321C118.513 24.4537 118.625 24.7497 119.105 25.0598C120.162 25.7506 120.683 26.8924 121.036 28.0906C121.332 29.1478 120.063 31.5019 119.048 31.953C118.668 32.1221 118.343 32.4041 117.977 32.6014C116.99 33.1371 115.989 33.6446 115.383 33.9688L115.397 33.9829ZM114.312 31.2341C116.06 31.2764 116.722 30.9521 117.709 30.1768C118.428 29.613 118.442 29.0209 118.09 28.3725C117.723 27.6959 117.23 27.0756 116.652 26.2298C115.722 28.006 114.509 29.2888 114.298 31.2341H114.312Z" fill="#050101"/>
<path d="M181.114 30.6561C180.79 30.8816 180.494 31.1917 180.142 31.3045C177.773 32.0939 175.391 32.8551 173.009 33.5881C172.642 33.7009 172.234 33.6445 171.839 33.6868C171.021 33.7714 170.19 33.8278 169.386 33.9828C167.046 34.4198 165.397 33.2075 165.129 30.797C164.988 29.5425 164.847 28.2738 164.777 27.0051C164.72 26.0465 165.284 23.8898 165.651 23.2273C166.844 23.1615 167.445 23.7112 167.455 24.8765C167.455 26.1734 167.413 27.4703 167.483 28.7531C167.511 29.5143 167.638 30.3037 167.864 31.0226C167.948 31.2904 168.456 31.6005 168.752 31.5864C169.851 31.5301 170.937 31.3468 172.022 31.2058C172.614 31.1354 173.206 31.0226 173.798 30.9521C175.321 30.7548 176.857 30.5292 178.38 30.3741C179.197 30.2896 180.029 30.3741 180.861 30.3741L181.086 30.6561H181.114Z" fill="#050101"/>
<path d="M141.941 31.7979C144.027 31.4878 145.691 31.1072 147.382 31.0367C149.003 30.9662 150.596 30.2332 152.274 30.7971C149.328 33.7996 145.775 35.0824 141.73 35.0401C141.462 34.5749 141.293 34.1661 141.025 33.8278C139.953 32.4463 139.756 30.783 139.784 29.1619C139.784 27.865 140.165 26.5681 140.433 25.2854C140.531 24.8343 140.799 24.3973 141.067 24.0026C141.222 23.777 141.617 23.5092 141.8 23.5656C142.054 23.6361 142.378 24.0026 142.392 24.2563C142.448 25.3136 142.448 26.399 142.392 27.4562C142.308 28.7672 142.124 30.0781 141.927 31.7979H141.941Z" fill="#050101"/>
<path d="M325.434 4.54962C327.126 6.2271 326.844 8.15831 326.787 10.0331C326.787 10.3714 326.519 10.8366 326.238 11.0058C324.631 11.9925 322.995 12.9793 321.036 13.0216C319.64 13.0498 318.485 11.471 318.766 10.0895C319.218 7.83409 320.261 5.95926 321.938 4.35227C322.46 3.8448 322.967 3.68974 323.32 4.05625C323.982 4.76107 324.772 4.47914 325.448 4.56372L325.434 4.54962ZM321.205 10.7239C322.305 11.3159 322.953 10.5688 323.869 10.4842C323.686 9.25783 323.517 8.14421 323.362 7.04469C323.263 7.0165 323.165 6.9883 323.066 6.97421C322.46 8.21469 321.839 9.45518 321.219 10.738L321.205 10.7239Z" fill="#050101"/>
<path d="M513.875 32.4746C512.24 33.2217 510.605 33.9406 508.998 34.73C507.899 35.2657 507.039 35.1106 506.165 34.2507C505.263 33.3767 505.248 32.3336 505.601 31.3328C506.137 29.8667 506.87 28.4712 507.955 27.3012C508.223 27.0193 508.505 26.7373 508.73 26.4272C510.154 24.4678 510.887 24.2423 512.959 25.2572C513.213 25.3841 513.41 25.7083 513.565 25.9761C514.566 27.6677 514.482 29.4297 513.847 31.22C513.749 31.5019 513.72 31.8261 513.65 32.1222L513.875 32.5028V32.4746ZM507.462 32.9257C508.914 33.0807 510.084 32.3195 511.352 31.9671C511.423 31.9389 511.507 31.7979 511.521 31.6993C511.775 30.0923 512.339 28.4712 511.296 26.9347C509.943 27.3012 508.801 29.0773 507.462 32.9257Z" fill="#050101"/>
<path d="M261.859 5.93102C261.859 6.43849 261.732 6.98825 261.887 7.43933C262.169 8.31331 261.93 8.7503 261.056 8.94765C260.154 9.145 259.251 9.34235 258.392 9.66657C257.518 9.99079 256.63 10.3432 255.911 9.58199C255.121 8.73621 254.727 7.52391 255.192 6.49487C255.953 4.87378 257.038 3.39366 257.983 1.85715C258.392 1.19462 259.026 1.12414 259.731 1.13823C260.52 1.16642 260.548 1.82896 260.915 2.23775C261.958 3.36547 261.845 4.63415 261.845 5.94511L261.859 5.93102ZM259.364 5.31077L259.04 5.198C258.645 5.95921 258.251 6.72042 257.856 7.48162H259.773C259.618 6.67813 259.491 5.9874 259.364 5.31077Z" fill="#050101"/>
<path d="M331.044 21.8599H332.51C332.524 22.4802 332.708 23.1286 332.539 23.6502C331.946 25.4686 332.313 27.3152 332.243 29.1478C332.2 30.1063 332.694 30.6279 333.652 30.5715C335.471 30.4587 337.275 30.205 339.093 30.0218C339.714 29.9654 340.348 29.9372 340.968 29.909L341.095 30.2614C340.757 30.5856 340.475 31.0508 340.066 31.234C338.882 31.7697 337.656 32.1926 336.443 32.6578C334.864 33.2498 333.229 33.0948 331.65 32.8128C330.354 32.5732 329.578 31.0367 329.508 29.2605C329.409 27.0192 330.114 24.9329 330.678 22.8326C330.762 22.5225 330.889 22.2264 331.03 21.8458L331.044 21.8599Z" fill="#050101"/>
<path d="M228.676 19.379C228.803 17.4901 228.916 15.8972 229.043 14.2902C229.057 14.0787 229.113 13.8532 229.198 13.6558C229.395 13.1907 229.747 12.8805 230.241 13.0497C230.551 13.1484 230.96 13.4444 231.03 13.7263C231.439 15.3051 231.749 16.9121 232.101 18.5191C232.186 18.8856 232.257 19.2662 232.383 19.6186C232.933 21.127 232.764 22.6917 232.764 24.2423C232.764 25.1021 232.045 25.4827 231.453 25.8352C231.199 25.9761 230.551 25.8775 230.396 25.666C229.874 24.9753 229.282 24.2141 229.099 23.3965C228.803 22.0009 228.789 20.549 228.676 19.3931V19.379Z" fill="#050101"/>
</svg>
