<svg width="211" height="26" viewBox="0 0 211 26" fill="none" xmlns="http://www.w3.org/2000/svg">
<path d="M37.8369 0.453373L37.7986 0.395996C35.035 1.79217 32.2139 3.21702 29.6702 5.12002C27.8724 6.46838 26.1224 8.02711 25.1662 10.5613V10.5421C23.9325 13.4301 23.1962 16.2607 22.4216 16.8631C22.4216 16.8631 24.4298 15.0749 24.8028 14.7593C27.1648 12.7511 29.6702 10.8673 32.3191 9.11727C34.9585 7.35772 37.6743 5.78942 40.4475 4.39325L37.8369 0.453373Z" fill="url(#paint0_linear_112_1515)"/>
<path d="M41.4039 5.83765L41.3656 5.78027C38.602 7.17644 35.8861 8.7543 33.2468 10.5043C30.5979 12.2639 28.102 14.1477 25.74 16.1559L28.3889 20.1532C30.7509 18.1545 33.2564 16.2611 35.9053 14.5111C38.5446 12.7516 41.2604 11.1833 44.0241 9.78709L41.4134 5.84721" fill="#14AD85"/>
<path d="M44.7794 10.9248L44.7411 10.8674C41.9775 12.2636 39.2617 13.8415 36.6223 15.5915C33.9734 17.3414 31.4775 19.2349 29.106 21.2431L31.7548 25.2403C34.1169 23.2321 36.6223 21.3483 39.2712 19.5887C41.9105 17.8292 44.6264 16.2609 47.39 14.8647L44.7794 10.9248Z" fill="#057DC1"/>
<path d="M3.28647 14.5779L3.32472 14.6353C6.08837 13.2391 8.80421 11.6613 11.4435 9.91128C14.0924 8.16128 16.5883 6.26785 18.9599 4.26922L16.311 0.271973C13.949 2.2706 11.4435 4.16403 8.79464 5.91403C6.14575 7.67358 3.43947 9.24188 0.66626 10.638L3.27691 14.5779" fill="#E83F44"/>
<path d="M6.78642 19.847L6.82468 19.8948C9.58833 18.4987 12.3042 16.9208 14.9531 15.1708C17.5924 13.4208 20.0978 11.5274 22.4599 9.52875L19.811 5.53149C17.449 7.53012 14.9435 9.42355 12.3042 11.1735C9.65527 12.9331 6.94899 14.5014 4.17578 15.8976L6.78642 19.8374" fill="#F08029"/>
<path d="M25.6252 8.62988C25.6252 8.62988 23.617 10.4181 23.2441 10.7337C20.8821 12.7419 18.3766 14.6258 15.7373 16.3853C13.0884 18.1449 10.3821 19.7132 7.60889 21.1093L10.2195 25.0492L10.2578 25.097C13.0214 23.7009 15.8233 22.2473 18.3862 20.373C20.184 19.0629 21.9148 17.4659 22.8903 14.9318V14.9509C24.1239 12.0629 24.8602 9.22278 25.6348 8.62988H25.6252Z" fill="url(#paint1_linear_112_1515)"/>
<path d="M99.4499 11.5273C100.014 11.4987 100.559 11.47 101.085 11.4317C101.602 11.3935 102.089 11.3552 102.52 11.317V13.2008C101.563 13.2869 100.234 13.3825 98.551 13.459C96.868 13.5355 95.5196 13.5738 94.506 13.5738H91.4841V11.6995H93.3871L93.3489 6.07654H91.8475V4.2118H100.97V6.07654H99.5073L99.4691 11.5369L99.4499 11.5273ZM95.4909 6.06698L95.5292 11.6899C95.797 11.6708 96.0743 11.6612 96.3707 11.6612C96.6672 11.6612 96.9636 11.6421 97.2696 11.6325L97.327 6.06698H95.4814H95.4909ZM104.031 21.1475C103.179 21.9508 102.137 22.3524 100.894 22.3524C99.6508 22.3524 98.6275 21.9508 97.7669 21.1475C96.9158 20.3442 96.4855 19.3688 96.4855 18.2309C96.4855 17.0929 96.9158 16.1079 97.7669 15.3046C98.6275 14.5014 99.6699 14.0997 100.894 14.0997C102.118 14.0997 103.179 14.5014 104.031 15.3046C104.882 16.1079 105.312 17.0833 105.312 18.2309C105.312 19.3784 104.882 20.3347 104.031 21.1475ZM102.357 19.7896C102.787 19.3593 103.007 18.8429 103.007 18.2309C103.007 17.6188 102.797 17.0929 102.386 16.6626C101.975 16.2322 101.468 16.0219 100.884 16.0219C100.301 16.0219 99.8038 16.2322 99.3734 16.6626C98.9431 17.0929 98.7327 17.6188 98.7327 18.2309C98.7327 18.8429 98.9431 19.3593 99.3448 19.7896C99.756 20.2199 100.253 20.4303 100.837 20.4303C101.42 20.4303 101.927 20.2104 102.357 19.7896ZM103.409 3.50415H105.704V14.291H103.409V10.7719H100.617V9.01232H103.409V8.18036H100.636V6.42081H103.409V3.51371V3.50415Z" fill="#182932"/>
<path d="M107.435 12.1585C108.047 11.7091 108.583 11.2214 109.061 10.6859C109.539 10.1503 109.893 9.61482 110.151 9.06974C110.361 8.61072 110.524 8.06564 110.658 7.4345C110.782 6.80335 110.849 6.19133 110.849 5.58888V4.1449H113.182V5.58888C113.182 6.15308 113.24 6.73641 113.354 7.31975C113.479 7.90308 113.622 8.4099 113.813 8.83067C114.043 9.31837 114.359 9.79651 114.779 10.2747C115.2 10.7528 115.678 11.1927 116.223 11.6039L115.037 13.1244C114.751 12.9235 114.416 12.6654 114.053 12.3402C113.68 12.0151 113.374 11.7091 113.115 11.4222C112.781 11.0397 112.542 10.7337 112.369 10.5137C112.207 10.2938 112.111 10.1408 112.083 10.0738C112.044 10.179 111.92 10.3798 111.719 10.6667C111.518 10.9536 111.27 11.2692 110.992 11.5943C110.686 11.9673 110.371 12.3115 110.046 12.6175C109.711 12.9331 109.319 13.2487 108.86 13.5451L107.435 12.1394V12.1585ZM120.88 21.1476C120.029 21.9508 118.987 22.3525 117.744 22.3525C116.501 22.3525 115.477 21.9508 114.617 21.1476C113.756 20.3443 113.335 19.3689 113.335 18.2309C113.335 17.0929 113.766 16.108 114.617 15.3047C115.477 14.5014 116.52 14.0998 117.744 14.0998C118.968 14.0998 120.029 14.5014 120.88 15.3047C121.731 16.108 122.162 17.0834 122.162 18.2309C122.162 19.3784 121.731 20.3347 120.88 21.1476ZM119.236 16.6626C118.824 16.2323 118.318 16.0219 117.744 16.0219C117.17 16.0219 116.663 16.2323 116.233 16.6626C115.803 17.0929 115.592 17.6189 115.592 18.2309C115.592 18.8429 115.793 19.3593 116.204 19.7896C116.615 20.22 117.113 20.4303 117.686 20.4303C118.26 20.4303 118.777 20.2104 119.216 19.7896C119.647 19.3593 119.867 18.8429 119.867 18.2309C119.867 17.6189 119.656 17.0929 119.245 16.6626H119.236ZM120.393 3.552H122.649V13.9659H120.393V9.57657H118.71V13.4591H116.529V3.77195H118.71V7.57794H120.393V3.56156V3.552Z" fill="#182932"/>
<path d="M128.712 10.045H130.864V14.9507H132.786V10.045H134.947V14.9507H141.086V16.8728H124.753V14.9507H128.712V10.045ZM135.913 13.4876C136.076 12.3687 136.19 11.1734 136.286 9.90152C136.382 8.62967 136.41 7.45344 136.391 6.36329H127.641V4.44116H138.705C138.705 5.79908 138.658 7.31957 138.562 9.01218C138.466 10.7048 138.323 12.187 138.16 13.4876H135.923H135.913Z" fill="#182932"/>
<path d="M142.53 13.7842V11.929H159.074V13.7842H154.312V15.668H155.995V21.683H153.681V17.5423H145.39V15.6585H147.541V13.7746H142.53V13.7842ZM153.977 4.16398C154.857 4.97682 155.297 5.96179 155.297 7.10932C155.297 8.25686 154.857 9.24183 153.967 10.0547C153.078 10.8675 152.017 11.2787 150.764 11.2787C149.511 11.2787 148.44 10.8675 147.551 10.0547C146.671 9.23227 146.231 8.25686 146.231 7.10932C146.231 5.96179 146.671 4.97682 147.551 4.16398C148.431 3.34158 149.502 2.93994 150.773 2.93994C152.045 2.93994 153.107 3.35114 153.986 4.16398H153.977ZM149.148 8.75412C149.607 9.20358 150.142 9.42352 150.764 9.42352C151.385 9.42352 151.921 9.20358 152.37 8.75412C152.829 8.30467 153.049 7.75959 153.049 7.10932C153.049 6.45905 152.82 5.9331 152.37 5.48365C151.921 5.0342 151.385 4.80469 150.764 4.80469C150.142 4.80469 149.607 5.02463 149.148 5.48365C148.689 5.9331 148.469 6.46861 148.469 7.10932C148.469 7.75003 148.698 8.30467 149.148 8.75412ZM149.846 15.6585H151.978V13.7746H149.846V15.6585Z" fill="#182932"/>
<path d="M161.551 6.18173V4.29786H170.32V6.18173H167.155V6.87026C167.155 7.43446 167.26 7.99867 167.47 8.55331C167.68 9.10795 167.939 9.57653 168.245 9.95904C168.57 10.3511 169 10.7528 169.526 11.1353C170.052 11.5273 170.588 11.8716 171.133 12.1776L169.947 13.765C169.43 13.526 168.991 13.2869 168.618 13.0478C168.254 12.7992 167.891 12.5314 167.547 12.2254C167.221 11.9194 166.915 11.623 166.638 11.3265C166.361 11.0301 166.15 10.7814 166.026 10.5615C165.94 10.7528 165.806 10.9727 165.605 11.2309C165.405 11.4987 165.108 11.8238 164.716 12.2159C164.314 12.6366 163.922 13 163.549 13.2965C163.186 13.5929 162.727 13.8989 162.182 14.2145L160.719 12.694C161.264 12.3784 161.799 11.9768 162.354 11.5082C162.899 11.0301 163.349 10.5424 163.712 10.0451C163.989 9.63391 164.228 9.1462 164.429 8.582C164.62 8.01779 164.726 7.46315 164.726 6.91807V6.1913H161.56L161.551 6.18173ZM167.47 15.6393V19.4645H175.579V21.3866H165.146V15.6489H167.461L167.47 15.6393ZM172.873 3.50415H175.168V16.5478H172.873V3.51371V3.50415Z" fill="#182932"/>
<path d="M177.559 12.2446H194.15V14.052H177.559V12.2446ZM191.549 4.30748V6.08616H189.311C189.57 6.33479 189.761 6.62168 189.895 6.94681C190.038 7.27195 190.105 7.61621 190.105 7.98916C190.105 8.98369 189.684 9.82521 188.843 10.5233C188.001 11.2214 186.988 11.5752 185.812 11.5752C184.635 11.5752 183.631 11.2214 182.79 10.5137C181.948 9.80609 181.537 8.96456 181.537 7.98916C181.537 7.61621 181.604 7.27195 181.747 6.94681C181.881 6.62168 182.063 6.33479 182.283 6.08616H180.064V4.30748H184.578V2.70093H187.055V4.30748H191.549ZM189.092 15.9263C189.962 16.6626 190.392 17.5615 190.392 18.6039C190.392 19.6462 189.962 20.5164 189.092 21.2528C188.221 21.9891 187.16 22.362 185.898 22.362C184.635 22.362 183.603 21.9891 182.723 21.2528C181.843 20.5164 181.413 19.6271 181.413 18.6039C181.413 17.5806 181.853 16.6722 182.723 15.9263C183.603 15.1899 184.664 14.817 185.898 14.817C187.131 14.817 188.212 15.1899 189.092 15.9263ZM187.409 20.0287C187.839 19.6462 188.059 19.1681 188.059 18.6039C188.059 18.0397 187.858 17.5806 187.437 17.1886C187.016 16.8061 186.51 16.6052 185.898 16.6052C185.286 16.6052 184.769 16.7965 184.339 17.179C183.899 17.5615 183.689 18.0301 183.689 18.6039C183.689 19.1776 183.899 19.6462 184.32 20.0287C184.731 20.4112 185.247 20.6025 185.85 20.6025C186.452 20.6025 186.978 20.4112 187.418 20.0287H187.409ZM187.189 6.66949C186.796 6.31567 186.337 6.13397 185.802 6.13397C185.266 6.13397 184.827 6.31567 184.434 6.66949C184.052 7.02331 183.861 7.47276 183.861 7.99872C183.861 8.52467 184.052 8.97413 184.434 9.32795C184.817 9.68177 185.276 9.86347 185.802 9.86347C186.328 9.86347 186.806 9.69134 187.189 9.32795C187.571 8.97413 187.753 8.52467 187.753 7.99872C187.753 7.47276 187.562 7.03288 187.189 6.66949Z" fill="#182932"/>
<path d="M200.06 13.5068L196.063 13.5259V11.7281H199.372C200.701 11.7281 202.231 11.6707 203.962 11.5751C205.683 11.4699 207.012 11.3647 207.94 11.25V13.0191C207.424 13.086 206.706 13.153 205.788 13.2295C204.87 13.306 203.914 13.3729 202.92 13.4399V15.8306H200.567V13.5164H200.051L200.06 13.5068ZM198.702 4.67077C199.563 3.89618 200.596 3.51367 201.81 3.51367C203.025 3.51367 204.058 3.90575 204.918 4.67077C205.779 5.44536 206.2 6.38251 206.2 7.47267C206.2 8.56283 205.75 9.46173 204.851 10.1981C203.952 10.9344 202.939 11.2978 201.81 11.2978C200.682 11.2978 199.64 10.9344 198.75 10.1981C197.861 9.46173 197.411 8.55327 197.411 7.47267C197.411 6.39208 197.842 5.44536 198.702 4.67077ZM203.187 6C202.767 5.59836 202.308 5.39754 201.81 5.39754C201.313 5.39754 200.864 5.59836 200.433 6C200.003 6.40164 199.793 6.88934 199.793 7.47267C199.793 8.056 200.003 8.52458 200.433 8.92622C200.864 9.32786 201.323 9.52867 201.81 9.52867C202.298 9.52867 202.767 9.32786 203.187 8.92622C203.618 8.52458 203.818 8.03688 203.818 7.47267C203.818 6.90847 203.608 6.40164 203.187 6ZM202.91 16.5765V19.4644H211V21.3865H200.596V16.5765H202.91ZM204.87 15.668V13.9467H208.59V3.5328H210.885V17.1311H208.59V15.668H204.87Z" fill="#182932"/>
<path d="M65.6646 11.1162C66.0184 9.81564 66.3722 7.26237 66.3244 6.14352H58.0621V4.11621H68.8298C68.8681 5.89489 68.4951 9.35663 68.0648 11.1162H72.1481V13.067H64.8422V15.7828H68.9829V22.4864H66.5635V17.7432H57.89V15.7733H62.2984V13.0574H54.9255V11.1066H65.6741L65.6646 11.1162Z" fill="#182932"/>
<path d="M74.5007 15.5914L72.9324 14.0614C74.5676 13.3824 76.2028 12.2827 77.4651 11.0204C78.7657 9.71985 79.6168 8.18024 79.7793 6.59281H74.1851V4.58462H82.4856C82.3804 7.17614 81.5771 9.40428 80.2479 11.2116C78.8613 13.0955 76.8914 14.5491 74.4911 15.601L74.5007 15.5914ZM87.3531 8.90701H89.9828V10.8769H87.3531V19.6173H84.9719V3.53271H87.3531V8.89745V8.90701Z" fill="#182932"/>
<defs>
<linearGradient id="paint0_linear_112_1515" x1="22.4312" y1="8.62957" x2="40.4475" y2="8.62957" gradientUnits="userSpaceOnUse">
<stop stop-color="#00853F"/>
<stop offset="0.05" stop-color="#128C40"/>
<stop offset="0.16" stop-color="#329942"/>
<stop offset="0.28" stop-color="#4DA444"/>
<stop offset="0.4" stop-color="#61AD45"/>
<stop offset="0.55" stop-color="#6FB346"/>
<stop offset="0.72" stop-color="#78B646"/>
<stop offset="1" stop-color="#7BB847"/>
</linearGradient>
<linearGradient id="paint1_linear_112_1515" x1="7.60889" y1="16.8635" x2="25.6252" y2="16.8635" gradientUnits="userSpaceOnUse">
<stop stop-color="#F8B51A"/>
<stop offset="0.27" stop-color="#F5B219"/>
<stop offset="0.46" stop-color="#EFA919"/>
<stop offset="0.62" stop-color="#E39A19"/>
<stop offset="0.76" stop-color="#D38418"/>
<stop offset="0.89" stop-color="#BE6817"/>
<stop offset="1" stop-color="#A94D17"/>
</linearGradient>
</defs>
</svg>
