<svg width="90" height="28" viewBox="0 0 90 28" fill="none" xmlns="http://www.w3.org/2000/svg">
<path d="M21.2294 13.1202C18.8387 11.4945 15.7786 12.1543 14.1816 14.6024C12.8428 16.6393 10.8155 16.8975 10.0314 16.8975C7.47811 16.8975 5.72812 15.0997 5.21173 13.2445C5.21173 13.2445 5.21173 13.2158 5.20216 13.1967C5.20216 13.1775 5.1926 13.1584 5.18304 13.1297C4.98222 12.3551 4.92484 11.9822 4.92484 11.1598C4.92484 6.70352 9.4863 1.74999 16.0559 1.74999C22.6256 1.74999 26.6324 6.87565 27.6269 9.72537C27.6078 9.67756 27.5982 9.62974 27.5791 9.57237C25.6666 4.00681 20.3879 0 14.1721 0C6.3497 0 0 6.34014 0 14.1721C0 21.172 5.04916 27.1584 12.0491 27.1584C17.6338 27.1584 21.3824 24.0313 23.1037 19.7185C24.0504 17.3565 23.381 14.5833 21.239 13.1297L21.2294 13.1202Z" fill="#003667"/>
<path d="M27.713 10.0027C26.881 7.22944 23.0081 1.75952 16.0559 1.75952C9.48626 1.75952 4.9248 6.71305 4.9248 11.1598C4.9248 11.9822 4.97262 12.3551 5.183 13.1297C5.09694 12.795 5.04912 12.4507 5.04912 12.116C5.04912 7.48764 9.68708 4.27454 14.4589 4.27454C20.9138 4.27454 26.1447 9.50539 26.1447 15.9603C26.1447 21.019 23.2376 25.3988 19.0012 27.5026C24.452 25.5326 28.3441 20.3114 28.3441 14.1816C28.3441 12.7281 28.1528 11.4466 27.7225 10.0122L27.713 10.0027Z" fill="#EF0035"/>
<path d="M40.288 19.6133V14.4781H42.2388V19.6133H45.0025V14.4781H46.9629V19.6133H51.8782V21.4111H36.6829V19.6133H40.2976H40.288ZM48.5886 16.7062V8.77868H37.8973V6.94263H50.6446V16.7062H48.5886Z" fill="#59595B"/>
<path d="M69.2252 17.5763V22.6733H67.1692V19.3359H56.0859V17.5763H58.7156L58.7348 15.6446H55.2539V13.8659H70.4492V15.6446H66.9492V17.5763H69.2252ZM66.9301 9.49573C66.9301 10.0121 66.8153 10.4998 66.5954 10.9588C66.3754 11.4179 66.079 11.8195 65.7252 12.1829C65.3522 12.5176 64.9219 12.7853 64.4246 12.9862C63.9274 13.187 63.4014 13.2922 62.8468 13.2922C62.2921 13.2922 61.7662 13.187 61.2593 12.9862C60.7621 12.7853 60.3222 12.5176 59.9492 12.1829C59.5954 11.8291 59.299 11.4179 59.079 10.9588C58.8591 10.4998 58.7443 10.0121 58.7443 9.49573C58.7443 8.97934 58.8591 8.49164 59.079 8.03262C59.299 7.57361 59.5954 7.17197 59.9492 6.80859C60.3222 6.46433 60.7525 6.187 61.2593 5.98619C61.7566 5.78537 62.2921 5.68018 62.8468 5.68018C63.4014 5.68018 63.9274 5.78537 64.4246 5.98619C64.9219 6.187 65.3522 6.46433 65.7252 6.80859C66.079 7.16241 66.3754 7.57361 66.5954 8.03262C66.8153 8.49164 66.9301 8.97934 66.9301 9.49573ZM60.6091 17.5763H65.0558V15.6446H60.6282L60.6091 17.5763ZM64.9123 9.49573C64.9123 8.94109 64.7115 8.46295 64.3099 8.08044C63.9082 7.68836 63.4205 7.49711 62.8563 7.49711C62.2921 7.49711 61.8044 7.68836 61.3932 8.08044C60.982 8.47251 60.7812 8.94109 60.7812 9.49573C60.7812 10.0504 60.982 10.5285 61.3932 10.9206C61.8044 11.3127 62.2921 11.5135 62.8563 11.5135C63.4205 11.5135 63.9082 11.3127 64.3099 10.9206C64.7115 10.5285 64.9123 10.0504 64.9123 9.49573Z" fill="#59595B"/>
<path d="M74.0066 16.5435H89.2019V18.3604H82.6227V22.6254H80.5667V18.3604H74.0066V16.5435ZM77.2484 8.46291H85.941V6.36865H87.9778V14.3153H75.2306V6.36865H77.2484V8.46291ZM85.941 10.2416H77.2484V12.5175H85.941V10.2416Z" fill="#59595B"/>
</svg>
