<svg width="273" height="59" viewBox="0 0 273 59" fill="none" xmlns="http://www.w3.org/2000/svg">
<path d="M50.7775 35.5614C50.5105 35.8023 50.2891 35.9782 50.0937 36.18C49.7746 36.5187 49.41 36.688 48.9346 36.6554C48.7131 36.6424 48.4852 36.7206 48.2573 36.7466C48.0033 36.7727 47.7428 36.8248 47.4889 36.7987C46.6032 36.714 45.711 36.6099 44.8319 36.4861C44.5649 36.447 44.3109 36.3103 43.9983 36.1996C43.842 36.4991 43.9202 36.8378 43.9332 37.1504C43.9462 37.502 44.0634 37.8537 44.0699 38.2053C44.0895 39.5859 44.096 40.9665 44.0699 42.3406C44.0634 42.8485 43.9853 43.3565 43.9006 43.8579C43.8681 44.0468 43.7118 44.2161 43.6141 44.3919C43.1973 45.1669 43.2038 45.1473 42.4093 44.939C41.3218 44.6589 40.6706 43.9817 40.3189 42.9202C39.8826 41.5982 39.6807 40.2437 39.7003 38.8566C39.7133 37.9449 39.7003 37.0331 39.7003 36.1214C39.6872 34.9623 39.8175 33.8161 39.9933 32.67C40.104 31.9341 40.1431 31.1852 40.1561 30.4428C40.1691 29.5116 40.4036 28.6389 40.6901 27.7468C40.8008 27.7402 40.905 27.7207 41.0027 27.7337C41.2567 27.7598 41.6018 27.7077 41.7386 27.8509C42.0056 28.1375 42.2856 28.5152 42.3312 28.8864C42.4224 29.5571 42.7284 30.1563 42.8587 30.8075C43.015 31.5629 43.2624 32.2988 43.4773 33.0412C43.6206 33.5426 43.7834 33.6403 44.2523 33.4254C45.2161 32.9891 46.245 32.8784 47.2739 32.7351C47.8731 32.6504 48.4657 32.4616 49.0583 32.4551C49.6314 32.4486 50.1979 32.3704 50.771 32.416C50.8687 32.4225 50.9664 32.3965 51.0575 32.3899C51.3766 31.0875 51.2399 29.7916 51.2724 28.5022C51.279 28.2287 51.1617 27.864 51.5329 27.7663C51.8716 27.6816 52.2232 27.6621 52.5423 27.9617C53.1675 28.5347 53.5387 29.2446 53.7666 30.039C53.9815 30.7879 54.1769 31.5499 54.3201 32.3183C54.483 33.1909 54.5871 34.0701 54.7044 34.9492C54.776 35.4832 54.8346 36.0107 54.8541 36.5512C54.8607 36.7466 55.0039 37.0331 54.6653 37.1373C54.6523 37.1373 54.6653 37.2871 54.6979 37.3588C55.2188 38.6872 55.0039 40.0809 55.017 41.4484C55.017 41.8522 54.9323 42.2559 54.8607 42.6597C54.6979 43.6691 53.174 44.2812 52.4316 43.6105C52.1255 43.3304 51.8651 42.9332 51.7348 42.5425C51.546 41.9759 50.9599 41.4549 51.4222 40.7646C51.2985 40.2827 51.1682 39.7943 51.0445 39.3124C51.0119 39.1887 50.9729 39.065 50.9664 38.9412C50.9078 37.8341 50.8491 36.7271 50.7905 35.5549L50.7775 35.5614Z" fill="#808080"/>
<path d="M13.3322 41.1622C13.1107 41.1231 12.8177 41.0319 12.5181 41.0319C11.3199 41.0189 10.1282 41.0449 8.92991 41.0254C6.85252 40.9928 4.78164 40.9473 2.71076 40.8886C2.37864 40.8821 2.04652 40.7975 1.7144 40.7714C0.991543 40.7128 0.574763 40.1658 0.0928601 39.7425C0.00168935 39.6644 -0.0178472 39.4429 0.0147137 39.3062C0.0928601 38.9676 0.21008 38.6354 0.327299 38.3098C0.346836 38.2577 0.451031 38.2382 0.522665 38.2121C1.57764 37.7888 2.68471 37.5739 3.81132 37.4046C4.66442 37.2809 5.53054 37.2679 6.36411 36.9944C6.7874 36.8511 7.2693 36.8511 7.72515 36.812C8.54569 36.7469 9.36623 36.7208 10.1868 36.6427C11.0203 36.5646 11.8474 36.4083 12.6809 36.3497C13.3517 36.2976 14.0355 36.3887 14.7062 36.3236C16.7706 36.1217 18.8415 36.1868 20.9124 36.1803C22.3841 36.1738 23.374 37.1181 23.4586 38.5833C23.5172 39.6188 23.387 39.8272 22.4297 40.27C22.0585 40.4393 21.6873 40.5761 21.251 40.563C20.9058 40.55 20.5412 40.6347 20.2025 40.7258C19.102 41.0189 17.9884 40.83 16.8813 40.8691C16.1259 40.8952 15.9826 41.0775 16.1584 41.8069C16.3278 42.5167 16.432 43.2396 16.5752 43.9559C16.6078 44.1252 16.7315 44.2945 16.7185 44.4508C16.6924 44.7439 17.0636 45.0174 16.7576 45.3235C16.725 45.356 16.7445 45.4732 16.7771 45.5318C17.2851 46.5673 17.1874 47.6809 17.2004 48.7749C17.2004 49.0745 17.1223 49.3936 17.005 49.6671C16.8943 49.9211 16.699 50.0969 16.3473 50.1099C15.3835 50.1555 14.8104 49.8104 14.3676 48.84C13.9964 48.013 13.6838 47.1664 13.4819 46.2873C13.4624 46.2156 13.4363 46.1375 13.4429 46.0593C13.5536 45.0434 13.0391 44.034 13.3908 43.0116C13.0717 42.4386 13.6643 41.8785 13.3256 41.1622H13.3322Z" fill="#808080"/>
<path d="M29.411 34.7732C28.9552 34.7732 28.5905 34.8058 28.2258 34.7667C27.5941 34.7016 26.969 34.5909 26.3373 34.4997C26.2396 34.4867 26.1354 34.4411 26.0377 34.4541C24.7874 34.6039 23.9734 33.8615 23.2114 33.054C22.8012 32.6177 22.8858 32.3051 23.3547 31.9339C23.9799 31.4325 24.7548 31.3804 25.4712 31.2111C25.9531 31.1004 26.4675 31.0678 26.9494 30.9115C27.0471 30.8789 27.1513 30.8789 27.2555 30.8724C27.9393 30.8203 28.6296 30.7747 29.3329 30.7226C28.343 28.6192 27.7374 26.5483 28.9422 24.3537C29.0073 24.3407 29.0854 24.3016 29.1571 24.3081C29.652 24.3537 30.2316 24.0997 30.5767 24.6533C30.8437 25.0831 31.2149 25.4282 31.2931 25.9948C31.3973 26.7372 31.788 27.421 31.775 28.1959C31.775 28.2871 31.8661 28.4043 31.8336 28.4629C31.4624 29.0751 32.0159 29.6546 31.8987 30.2603C31.8857 30.3319 32.1527 30.5468 32.2829 30.5403C33.1295 30.5077 33.9761 30.6771 34.8227 30.4296C35.1092 30.3449 35.4674 30.5012 35.793 30.5598C36.3921 30.664 36.9912 30.7487 37.5838 30.8789C38.3718 31.0483 38.73 31.4976 38.7495 32.2986C38.7626 32.8196 38.7495 33.3406 38.7495 33.8615C38.7495 33.9332 38.73 34.0113 38.717 34.0829C36.4833 34.8514 34.1845 34.8449 31.7359 34.7602C32.0745 35.2096 32.3285 35.5417 32.5825 35.8738C33.0839 36.538 33.4095 37.1827 33.1686 38.1075C32.9862 38.8173 32.8625 39.5337 32.5108 40.1914C32.0289 41.1031 30.6679 41.6762 29.7497 41.2919C29.3915 41.1422 29.0138 40.8556 28.8249 40.5235C28.2649 39.5467 27.8416 38.5112 28.2584 37.3325C28.4147 36.8832 28.4798 36.4013 28.61 35.9454C28.6556 35.7826 28.7794 35.6459 28.877 35.5026C29.0333 35.2812 29.1896 35.0663 29.3915 34.7797L29.411 34.7732ZM31.2996 36.9418C31.1758 36.8702 31.0977 36.8116 31.013 36.766C30.3423 36.4013 30.0362 36.4729 29.6976 37.1762C29.3524 37.9056 29.2222 38.6415 29.8018 39.3578C30.1469 39.7811 30.5051 40.0416 31.1628 39.8658C31.2084 38.8824 31.254 37.9121 31.2996 36.9418Z" fill="#808080"/>
<path d="M264.931 48.3384C264.188 48.4036 263.452 48.5143 262.71 48.5208C261.531 48.5273 260.392 48.2343 259.233 48.0584C258.425 47.9347 257.722 47.4984 256.901 47.4072C256.621 47.3746 256.354 47.1597 256.1 47.0034C255.149 46.4304 254.173 45.8964 253.267 45.2582C251.958 44.34 251.001 43.1157 250.441 41.6113C250.33 41.3118 250.369 40.9406 250.402 40.6085C250.422 40.4326 250.532 40.1852 250.676 40.1201C250.871 40.0224 251.118 40.068 251.294 40.3024C251.6 40.7062 251.9 41.1229 252.265 41.4616C252.818 41.976 253.391 42.4775 254.023 42.8877C254.407 43.1417 254.902 43.2654 255.364 43.3631C256.204 43.552 257.051 43.7148 257.898 43.8255C258.686 43.9297 259.487 43.9623 260.281 43.9948C261.538 44.0404 262.788 43.9102 264.032 43.7018C264.709 43.5845 265.413 43.6041 266.096 43.5194C267.028 43.4022 267.959 43.2589 268.884 43.1092C269.554 43.005 270.225 42.8356 270.902 42.764C272.081 42.6403 272.824 43.6171 272.381 44.7177C272.114 45.3754 271.736 45.9485 271.124 46.4043C270.551 46.8341 270.03 47.316 269.326 47.5049C268.402 47.7524 267.484 48.0063 266.552 48.2147C266.031 48.3319 265.491 48.358 264.963 48.4231C264.963 48.3905 264.957 48.3645 264.95 48.3319L264.931 48.3384Z" fill="#808080"/>
<path d="M200.388 32.9764C200.682 35.145 200.467 37.32 200.525 39.4951C200.538 39.8598 200.558 40.2245 200.512 40.5827C200.48 40.8431 200.174 41.0971 200.525 41.3511C200.421 41.8395 200.323 42.3344 200.219 42.8229C200.148 43.168 199.978 43.4676 200.011 43.8778C200.043 44.2816 199.809 44.7309 199.607 45.1217C199.431 45.4733 198.441 45.6036 197.901 45.5189C196.618 45.3301 196.338 44.3076 195.999 43.3308C195.556 42.0284 195.472 40.6803 195.517 39.3193C195.556 38.108 195.596 36.8968 195.68 35.692C195.752 34.6956 195.863 33.7058 195.993 32.7159C196.064 32.1689 196.221 31.6284 196.305 31.0814C196.377 30.5995 196.39 30.1111 196.462 29.6291C196.553 29.03 196.67 28.4374 196.787 27.8448C196.931 27.1024 197.067 26.36 197.243 25.6241C197.347 25.1943 197.614 25.0315 198.044 25.0901C198.2 25.1097 198.402 25.2204 198.467 25.3441C198.956 26.3275 199.405 27.3238 199.601 28.4244C199.776 29.4663 200.017 30.4953 200.206 31.5307C200.291 32.0061 200.323 32.488 200.382 32.9699L200.388 32.9764Z" fill="#808080"/>
<path d="M214.631 30.1628C215.067 29.8372 215.392 29.5962 215.718 29.3488C216.434 28.8082 217.268 28.5022 218.115 28.2482C218.401 28.1635 218.733 28.2091 219.039 28.2091C219.834 28.2091 220.094 27.9747 220.231 27.2258C220.283 26.9392 220.4 26.6527 220.537 26.3922C220.746 26.008 221.136 25.8908 221.592 26.0145C221.807 26.0731 222.048 26.0796 222.25 26.1773C222.608 26.3466 222.888 26.529 223.064 26.9848C223.52 28.157 223.487 29.3227 223.149 30.4558C222.973 31.0354 222.667 31.6541 222.087 32.0513C221.52 32.442 220.986 32.8914 220.492 33.3668C220.094 33.751 219.775 34.2134 219.411 34.6367C219.209 34.8711 219.02 35.1186 218.785 35.3139C218.329 35.6916 217.893 36.1345 217.372 36.3819C216.467 36.8117 215.659 37.4825 214.611 37.5802C214.051 37.6323 213.491 37.6583 212.937 37.743C212.364 37.8276 211.961 37.5932 211.589 37.1894C211.238 36.8182 210.853 36.4991 210.821 35.913C210.795 35.4116 210.45 34.9753 210.508 34.4283C210.723 32.5332 210.971 30.6642 211.974 28.9776C212.136 28.704 212.267 28.3915 212.501 28.1961C212.794 27.9551 212.911 27.3886 213.55 27.6751C213.927 27.8379 214.233 27.9421 214.507 28.3133C214.858 28.7887 215.015 29.1664 214.624 29.6678C214.565 29.746 214.618 29.9023 214.618 30.1563L214.631 30.1628ZM213.608 34.845C214.8 34.5846 215.699 33.9985 216.688 33.6859C217.711 33.3603 218.74 33.0542 219.651 32.7742C219.625 31.9732 219.905 31.2764 219.691 30.6056C219.424 30.56 219.183 30.5665 218.974 30.4819C218.395 30.2474 217.874 30.4233 217.372 30.6772C216.877 30.9247 216.395 31.2047 215.94 31.5173C215.699 31.6866 215.484 31.908 215.191 31.7973C214.956 31.7062 214.767 31.5108 214.487 31.3154C214.201 32.4616 213.921 33.5882 213.602 34.8516L213.608 34.845Z" fill="#808080"/>
<path d="M86.9528 33.0801C86.9918 32.5917 87.0569 32.1945 87.0504 31.7907C87.0374 30.9116 87.2132 30.078 87.5193 29.264C87.6951 28.7951 88.1705 28.6388 88.5157 28.9905C88.8152 29.2965 89.0888 29.6482 89.2711 30.0324C90.0851 31.693 90.58 33.4774 90.9382 35.2747C91.1987 36.5837 91.596 37.8796 91.7067 39.2081C91.7978 40.2956 91.902 41.4222 91.6025 42.5228C91.4918 42.9396 91.2964 43.2717 91.0099 43.5582C90.58 43.988 89.6162 44.0011 89.1995 43.5582C88.6069 42.9266 87.9882 42.3014 87.7017 41.4548C87.5584 41.0315 87.5063 40.5822 87.3826 40.1524C87.0895 39.1365 86.9983 38.101 87.0635 36.9679C86.8225 36.9679 86.6206 36.9744 86.4253 36.9679C85.3963 36.9158 84.3544 36.9484 83.345 36.7856C82.3617 36.6293 81.3067 36.5446 80.4861 35.8673C80.141 35.5808 79.8024 35.2291 79.5875 34.8384C79.2032 34.1481 79.4442 33.4904 80.1931 33.2299C80.9485 32.9759 81.73 32.7285 82.5505 32.8978C82.6287 32.9108 82.7133 32.9238 82.7849 32.8978C83.5404 32.6178 84.2958 32.8652 85.0447 32.9043C85.6308 32.9369 86.2104 33.0085 86.9462 33.0801H86.9528Z" fill="#808080"/>
<path d="M6.67026 45.5904C7.48428 45.5448 7.91409 45.7792 8.12248 46.5607C8.31133 47.2705 8.57182 47.9543 8.63043 48.7097C8.67602 49.2893 8.96906 49.8559 9.15792 50.429C9.38584 51.1258 9.64633 51.8095 9.84821 52.5129C10.0631 53.2552 10.5255 53.7762 11.3069 53.8023C12.4336 53.8348 13.5667 53.9195 14.7063 53.7176C15.5399 53.5743 16.419 53.685 17.2721 53.685C18.0275 53.685 18.7829 53.6785 19.5318 53.685C20.2156 53.6981 20.678 54.1539 20.6194 54.8442C20.5412 55.7494 20.2612 56.5895 19.5253 57.2016C19.4472 57.2668 19.3756 57.3905 19.2909 57.397C18.5485 57.4491 17.9624 57.9831 17.233 58.0612C16.3213 58.1589 15.4292 58.439 14.4914 58.3803C12.9089 58.2761 11.4697 57.7942 10.0826 56.9998C9.07326 56.4202 8.49367 55.5085 7.78384 54.6879C6.94377 53.7176 6.5856 52.5389 6.40977 51.2951C6.35116 50.8653 6.3186 50.429 6.21441 50.0122C5.91484 48.8595 6.12975 47.7199 6.29255 46.5802C6.33814 46.2481 6.5335 45.929 6.66375 45.5969L6.67026 45.5904Z" fill="#808080"/>
<path d="M118.843 33.1974C118.889 34.2198 118.876 35.1706 118.98 36.1018C119.091 37.0656 119.045 37.9969 118.622 38.863C118.478 39.1625 118.192 39.397 117.938 39.6314C117.795 39.7617 117.541 39.9505 117.43 39.9049C117.111 39.7682 116.766 39.7877 116.447 39.5598C115.138 38.622 114.525 37.274 114.167 35.8088C113.959 34.9492 113.894 34.0244 113.965 33.1453C114.057 32.0838 114.122 31.0093 114.258 29.9478C114.421 28.6974 114.591 27.4406 115.072 26.2554C115.424 25.3893 115.887 25.3111 116.512 26.0014C116.955 26.4833 117.222 27.0303 117.397 27.662C117.593 28.3653 117.977 29.01 118.016 29.7655C118.029 30.0129 118.244 30.078 118.478 30.0715C119.077 30.0715 119.677 30.0324 120.276 30.0845C121.383 30.1822 122.425 30.5665 123.395 31.0744C123.916 31.3479 123.903 31.9145 123.48 32.3508C122.516 33.3472 121.422 33.6663 120.009 33.3732C119.638 33.2951 119.26 33.256 118.843 33.1909V33.1974Z" fill="#808080"/>
<path d="M105.128 36.7536C105.037 37.0661 104.952 37.3396 104.874 37.6132C104.842 37.7108 104.777 37.815 104.783 37.9062C104.816 38.2644 104.204 38.1602 104.314 38.6486C104.36 38.8505 103.95 39.1631 103.741 39.417C103.533 39.6775 103.357 39.9641 103.116 40.1855C102.686 40.5762 102.146 40.6088 101.605 40.5241C101.338 40.485 100.98 40.446 100.837 40.2701C100.518 39.8599 100.27 39.3845 100.049 38.9026C99.645 38.0169 100.062 37.1638 100.264 36.3172C100.622 34.8064 101.351 33.4584 102.107 32.1104C102.504 31.4005 102.81 30.6386 103.168 29.9092C103.311 29.6162 103.487 29.3362 103.67 29.0106C104.347 28.965 104.952 29.0496 105.304 29.7855C105.623 30.4628 106.157 31.0293 106.313 31.8043C106.359 32.0322 106.652 32.2146 106.834 32.4229C107.062 32.6834 106.945 33.0611 107.219 33.3412C107.486 33.6147 107.635 34.0184 107.798 34.3831C107.955 34.7283 108.046 35.0995 108.176 35.4576C108.306 35.8093 108.436 36.1609 108.573 36.5061C108.84 37.1638 108.782 37.8606 108.775 38.5444C108.775 38.6747 108.69 38.844 108.586 38.9351C108.417 39.0784 108.209 39.2347 108 39.2673C107.642 39.3194 107.245 39.3649 106.919 39.2542C106.698 39.1761 106.574 38.8244 106.411 38.59C105.994 37.9974 105.578 37.3983 105.122 36.747L105.128 36.7536Z" fill="#808080"/>
<path d="M243.812 34.1679C243.87 33.2561 243.975 32.4617 243.962 31.6737C243.942 30.3322 244.235 29.0428 244.463 27.7338C244.509 27.4603 244.697 27.1477 244.919 26.9849C245.166 26.8026 245.616 26.5877 245.805 26.6919C246.15 26.8937 246.462 27.278 246.612 27.6491C246.873 28.3004 247.003 29.0037 247.192 29.6875C247.205 29.7396 247.237 29.7851 247.237 29.8307C247.309 31.5825 247.739 33.3148 247.524 35.073C247.393 36.0955 247.159 37.1114 246.938 38.1208C246.899 38.3031 246.749 38.5571 246.599 38.6027C245.941 38.7915 245.329 39.0325 244.593 38.5831C243.929 38.1729 244.105 37.5868 243.994 37.0853C243.877 36.5709 243.968 36.0043 243.968 35.34C243.74 35.4898 243.597 35.568 243.473 35.6657C242.119 36.7597 240.614 37.4435 238.83 37.2677C237.768 37.1635 236.746 36.89 235.769 36.4601C235.567 36.369 235.372 36.2257 235.229 36.0564C234.838 35.5875 235.046 34.7084 235.613 34.4349C235.86 34.3176 236.121 34.1809 236.388 34.1548C237.254 34.0767 238.127 34.0376 238.999 33.9855C239.533 33.953 240.074 33.9204 240.608 33.8683C241.383 33.7967 242.184 33.9725 242.978 34.0506C243.226 34.0767 243.473 34.1158 243.812 34.1613V34.1679Z" fill="#808080"/>
<path d="M173.33 50.3313C173.33 50.5331 173.317 50.5852 173.33 50.6373C173.565 51.5295 173.317 52.1221 172.451 52.4738C171.566 52.8319 170.68 53.138 169.697 53.2748C168.459 53.4441 167.496 53.0729 166.525 52.4347C166.252 52.2524 165.92 52.1547 165.659 51.9528C165.405 51.7509 165.184 51.4904 165.001 51.2234C164.578 50.5983 164.083 49.9991 163.907 49.2372C163.757 48.573 163.543 47.9152 163.504 47.2445C163.477 46.7886 163.634 46.2872 163.81 45.8509C164.018 45.3299 164.318 44.8415 164.624 44.3726C164.734 44.2033 164.969 44.0535 165.171 44.0079C165.737 43.8712 166.278 43.7539 166.896 43.9688C167.333 44.1251 167.873 44.0014 168.414 44.0014C168.173 43.1874 168.394 42.4059 168.505 41.5333C167.951 41.4682 167.43 41.403 166.909 41.3575C165.841 41.2598 165.073 40.1983 165.366 39.1759C165.399 39.0521 165.542 38.8893 165.659 38.8568C166.642 38.5963 167.697 38.5246 168.603 38.9024C169.358 39.2214 170.087 39.7685 170.413 40.6867C170.726 41.5724 170.706 42.4645 170.634 43.3567C170.602 43.7474 170.27 44.1316 170.042 44.4898C169.794 44.8871 169.449 45.1671 168.967 45.2843C168.687 45.3559 168.459 45.6425 168.173 45.7141C167.404 45.916 166.623 46.0202 165.835 45.7467C165.568 45.6555 165.379 45.7988 165.353 46.0983C165.34 46.2807 165.314 46.4695 165.353 46.6454C165.685 48.065 166.284 49.3349 167.469 50.2401C167.71 50.4224 168.062 50.5331 168.368 50.5462C169.306 50.5852 170.244 50.5917 171.181 50.5592C171.865 50.5331 172.549 50.4224 173.311 50.3378L173.33 50.3313Z" fill="#808080"/>
<path d="M135.905 38.6612C135.781 38.0165 135.657 37.3717 135.547 36.727C135.514 36.5512 135.514 36.3689 135.514 36.1865C135.514 35.1316 135.475 34.0766 135.527 33.0216C135.553 32.4225 135.69 31.8234 135.827 31.2373C135.911 30.8791 136.178 30.56 136.563 30.5665C136.914 30.573 137.331 30.6186 137.416 31.1396C137.442 31.2894 137.722 31.3805 137.806 31.5368C138.204 32.2987 138.634 33.0607 138.933 33.8617C139.337 34.9297 139.643 36.0367 139.975 37.1308C140.353 38.3681 140.444 39.6575 140.646 40.9274C140.366 41.1944 140.659 41.4484 140.646 41.7024C140.639 42.1582 140.594 42.6141 140.516 43.0634C140.431 43.5388 140.275 43.9947 140.183 44.47C140.06 45.1408 139.545 45.3101 138.998 45.3818C138.497 45.4534 137.989 45.1734 137.748 44.8282C137.084 43.8905 136.485 42.8876 136.185 41.7545C136.094 41.4158 136.022 41.0642 135.977 40.7125C135.898 40.0287 135.846 39.3384 135.788 38.6547C135.827 38.6547 135.859 38.6416 135.898 38.6351L135.905 38.6612Z" fill="#808080"/>
<path d="M173.18 29.4595C173.18 29.6875 173.122 29.9219 173.187 30.1173C173.747 31.8495 173.493 33.5427 172.992 35.2228C172.855 35.6722 172.464 35.9131 172.034 36.0043C171.617 36.0889 171.337 35.8415 171.096 35.4963C170.484 34.6237 170.165 33.6208 169.918 32.6245C169.547 31.1136 169.325 29.5637 169.429 27.9943C169.468 27.4147 169.599 26.8481 169.69 26.2686C169.775 25.7476 169.768 25.2071 170.035 24.7252C170.081 24.6405 170.074 24.5233 170.126 24.4386C170.497 23.8656 170.843 23.846 171.272 24.38C171.819 25.0573 172.204 25.8257 172.412 26.6788C172.464 26.8937 172.49 27.1282 172.575 27.33C172.64 27.4798 172.744 27.5905 172.998 27.5254C173.649 27.3561 174.3 27.3756 174.971 27.5384C175.512 27.6687 176.085 27.6557 176.638 27.7208C177.57 27.825 178.488 28.0008 179.354 28.385C179.803 28.5804 179.829 28.7106 179.634 29.173C179.419 29.6744 179.23 30.1759 178.807 30.5731C178.592 30.775 178.41 30.8662 178.143 30.8662C177.439 30.8662 176.736 30.8922 176.039 30.8662C175.772 30.8531 175.473 30.7945 175.245 30.6578C174.62 30.2931 173.91 30.0456 173.408 29.4791C173.382 29.453 173.311 29.466 173.167 29.453L173.18 29.4595Z" fill="#808080"/>
<path d="M7.86819 29.6356C7.84214 28.8085 8.07007 28.0336 8.30451 27.2847C8.44126 26.8419 8.6757 26.373 9.2618 26.3014C9.38553 26.2883 9.50926 26.2102 9.60694 26.1255C10.5252 25.3506 11.6518 25.2594 12.7719 25.2334C14.0027 25.2073 14.9925 25.7283 15.6698 26.7572C15.8847 27.0828 16.067 27.4996 16.0736 27.8708C16.0931 28.7239 16.2624 29.6226 15.7024 30.404C15.6503 30.4822 15.6438 30.5994 15.6307 30.6971C15.5786 31.0748 15.5135 31.4525 15.4809 31.8302C15.4679 32.0125 15.4288 32.0842 15.227 32.1233C15.0902 32.1493 14.9274 32.3186 14.8688 32.4619C14.7125 32.8396 14.3739 33.1131 14.0678 33.1782C13.2538 33.341 12.4918 33.7969 11.6192 33.6927C11.489 33.6797 11.2545 33.7578 11.222 33.849C11.0787 34.2137 10.7922 34.1551 10.5187 34.1485C9.55485 34.1355 8.59104 33.3541 8.32404 32.2665C8.11565 31.4004 8.01797 30.5147 7.86819 29.6356ZM14.3218 30.9706C14.1264 29.8896 13.931 28.8216 13.7292 27.721C12.6937 27.8122 11.7885 28.0336 10.968 28.4439C11.1503 29.3881 11.3197 30.2673 11.489 31.179C11.9513 31.179 12.4202 31.205 12.8761 31.1725C13.358 31.1399 13.8334 31.0422 14.3153 30.9706H14.3218Z" fill="#808080"/>
<path d="M79.2097 39.4166C79.099 39.4362 79.0013 39.4427 78.9036 39.4753C77.764 39.8725 77.5491 39.8465 76.8783 38.8696C76.4615 38.2705 76.1815 37.5737 75.8168 36.8769C75.6736 37.1048 75.5173 37.3979 75.3284 37.6649C75.0093 38.1207 74.7749 38.6482 74.2474 38.9282C74.1367 38.9868 74.0325 39.0976 73.9804 39.2083C73.5311 40.0874 72.6454 40.3414 71.8314 40.68C71.7076 40.7321 71.4667 40.654 71.3625 40.5563C70.8611 40.0874 70.6917 39.4427 70.4573 38.811C70.1838 38.0686 70.4703 37.5281 70.8155 36.9616C71.5579 35.7633 72.4631 34.6823 73.251 33.5231C73.5832 33.0412 73.8957 32.5398 74.2539 32.0774C74.8856 31.2634 75.9145 31.2438 76.5983 32.0318C76.9044 32.3835 77.1909 32.7612 77.4123 33.1715C77.9333 34.1287 78.4803 35.0795 78.8645 36.0889C79.125 36.7792 79.5614 37.4695 79.4116 38.277C79.3399 38.6482 79.2813 39.0194 79.2097 39.4232V39.4166Z" fill="#808080"/>
<path d="M217.828 50.0966C216.233 50.0575 214.722 49.8426 213.309 49.2761C212.364 48.8984 211.498 48.2992 210.645 47.7262C210.241 47.4527 209.955 47.0033 209.629 46.6256C209.551 46.5344 209.466 46.4172 209.44 46.3C209.284 45.6292 209.473 45.3883 210.176 45.4078C210.521 45.4209 210.925 45.4274 211.199 45.6032C211.928 46.059 212.755 46.1958 213.55 46.4302C214.129 46.5996 214.761 46.6386 215.373 46.6451C217.743 46.6712 220.114 46.6972 222.478 46.6517C223.442 46.6321 224.418 46.5735 225.369 46.3521C225.617 46.2935 225.89 46.3521 226.151 46.3326C226.398 46.3195 226.678 46.3195 226.724 46.593C226.763 46.821 226.75 47.1596 226.607 47.3029C226.196 47.7131 225.721 48.0648 225.252 48.41C224.347 49.0872 223.246 49.2044 222.191 49.4584C221.429 49.6408 220.667 49.8036 219.892 49.9208C219.183 50.025 218.466 50.0445 217.815 50.0966H217.828Z" fill="#808080"/>
<path d="M160.032 39.7752C159.27 39.8077 158.352 39.7556 157.512 39.3063C156.939 39.0002 156.359 38.6876 155.838 38.2969C154.823 37.535 153.891 36.6689 153.227 35.5553C152.517 34.3701 152.198 33.1197 152.563 31.7522C152.621 31.5438 152.771 31.3419 152.934 31.1856C153.26 30.873 153.546 30.9446 153.807 31.3289C154.008 31.6284 154.054 31.9866 154.256 32.2927C154.477 32.6313 154.588 33.0351 154.744 33.4128C154.836 33.6212 154.92 33.8361 155.018 34.0444C155.291 34.6305 155.721 34.9887 156.398 34.9301C156.88 34.891 157.382 35.0604 157.844 34.7803C157.883 34.7543 157.948 34.7673 158 34.7803C158.815 34.8715 159.629 34.9757 160.443 35.0473C160.957 35.0929 161.478 35.0799 161.999 35.0929C162.207 35.0929 162.416 35.0734 162.624 35.0929C163.021 35.145 163.282 35.4055 163.334 35.7702C163.386 36.1479 163.484 36.5256 163.484 36.8968C163.484 37.2485 163.445 37.6196 163.321 37.9387C163.1 38.4793 163.106 39.1826 162.468 39.4626C162.103 39.6254 161.693 39.7035 161.296 39.7622C160.937 39.8077 160.566 39.7752 160.039 39.7752H160.032Z" fill="#808080"/>
<path d="M93.2107 27.6623C93.6795 27.6363 94.1419 27.5776 94.5912 27.6037C94.9234 27.6232 95.1773 27.8056 95.3727 28.1247C95.8025 28.815 95.9002 29.6029 96.1151 30.3584C96.304 31.0356 96.5189 31.7259 96.571 32.4227C96.6817 33.914 96.7077 35.4118 96.7338 36.9096C96.7403 37.3915 96.6035 37.8734 96.6035 38.3553C96.6035 38.8503 96.3886 39.1954 96.0044 39.4559C95.6397 39.7034 95.1839 39.6968 94.8778 39.3843C94.4415 38.9414 94.0182 38.4856 93.7707 37.8865C93.2563 36.6361 93.0479 35.3272 92.8134 34.0052C92.6376 33.0218 92.6441 32.0385 92.7092 31.0682C92.7678 30.2411 92.7222 29.388 93.0804 28.5935C93.1846 28.3721 93.1586 28.0921 93.2107 27.6623Z" fill="#808080"/>
<path d="M230.117 30.6968C231.198 30.7359 232.09 31.2373 232.904 31.8885C233.034 31.9927 233.099 32.1881 233.164 32.3509C233.653 33.7119 233.353 34.9102 232.396 35.9586C232.103 36.2777 231.842 36.5643 231.712 37.0266C231.608 37.3783 231.133 37.6648 230.768 37.8797C230.038 38.316 229.27 38.5505 228.378 38.2509C228.02 38.1272 227.811 37.9123 227.603 37.6648C227.362 37.3783 227.199 37.0266 226.939 36.7661C226.574 36.3884 226.45 35.9782 226.613 35.4832C226.626 35.4377 226.626 35.379 226.607 35.3335C226.216 34.4543 226.932 33.738 226.965 32.9174C226.965 32.8523 227.03 32.7807 227.075 32.7221C227.277 32.4941 227.505 32.3313 227.785 32.1881C227.955 32.1034 227.929 31.6671 228.169 31.4196C228.717 30.8531 229.361 30.6642 230.117 30.7033V30.6968ZM231.276 33.0542C231.146 33.0607 231.048 33.0412 230.996 33.0802C230.24 33.6533 229.563 34.3176 229.166 35.1902C228.984 35.5939 228.899 36.0563 228.834 36.5057C228.788 36.7987 228.957 37.0201 229.303 36.9485C229.811 36.8443 230.312 36.7075 230.768 36.5968C230.866 35.9261 230.924 35.3725 231.028 34.8255C231.133 34.2589 231.413 33.7249 231.276 33.0672V33.0542Z" fill="#808080"/>
<path d="M114.903 44.4701C114.825 45.1408 114.512 45.779 114.252 46.4367C113.887 47.3354 113.151 47.7913 112.344 48.1755C111.842 48.4164 111.341 48.5467 110.833 48.169C110.755 48.1104 110.644 48.0973 110.546 48.0778C109.713 47.9215 108.814 47.1726 108.579 46.3781C108.176 45.0171 108.137 43.6886 108.99 42.4513C109.146 42.2233 109.198 41.8717 109.407 41.7545C110.123 41.3247 110.54 40.4651 111.445 40.3283C111.653 40.2957 111.888 40.3088 112.096 40.3609C113.464 40.6995 114.258 41.6372 114.655 42.9332C114.805 43.4086 114.818 43.9295 114.903 44.4766V44.4701ZM111.354 42.7313C110.982 42.6662 110.755 42.7834 110.598 43.1285C110.409 43.5388 110.09 43.91 109.967 44.3333C109.882 44.6263 109.967 44.9845 109.869 45.3036C109.719 45.7985 110.149 46.0655 110.37 46.3781C110.566 46.6516 110.872 46.3716 111.132 46.3586C111.64 46.3325 111.946 46.1502 112.09 45.6553C112.129 45.525 112.278 45.4208 112.396 45.3166C112.93 44.8347 112.871 44.2031 112.656 43.656C112.448 43.1285 111.927 42.842 111.36 42.7248L111.354 42.7313Z" fill="#808080"/>
<path d="M220.153 39.8529C220.003 40.8557 219.951 41.8912 219.684 42.8615C219.352 44.0793 218.616 45.0561 217.385 45.5575C216.995 45.7203 216.617 45.9157 216.213 46.0525C215.555 46.2804 215.581 46.1957 215.366 45.564C215.047 44.6198 215.549 43.7276 215.399 42.8094C215.783 42.041 216.005 41.2074 216.233 40.3934C216.61 39.0323 217.235 37.7885 217.906 36.5642C218.173 36.0823 218.564 36.0823 218.994 36.4339C219.775 37.0787 219.964 37.9708 220.042 38.9021C220.068 39.2081 220.042 39.5272 220.042 39.8398C220.075 39.8398 220.107 39.8463 220.146 39.8529H220.153Z" fill="#808080"/>
<path d="M153.943 30.3843C154.25 29.6875 154.777 29.4465 155.493 29.2446C156.216 29.0362 156.952 28.8409 157.681 28.7171C158.404 28.5934 159.173 28.7432 159.915 28.7757C160.065 28.7823 160.221 28.8474 160.371 28.8278C161.061 28.7367 161.68 29.0297 162.325 29.173C162.82 29.2837 163.048 29.6549 163.139 30.0521C163.269 30.5926 163.269 31.1657 163.321 31.7258C163.354 32.0644 163.223 32.2142 162.859 32.2923C162.064 32.4616 161.296 32.5268 160.508 32.2858C160.319 32.2272 160.091 32.2728 159.883 32.2728C158.782 32.2923 157.701 32.1491 156.646 31.8365C156.379 31.7583 156.086 31.7909 155.812 31.7258C155.031 31.5369 154.347 31.1918 153.943 30.3843Z" fill="#808080"/>
<path d="M242.874 30.267C242.295 31.2634 241.383 31.7649 240.263 31.9732C239.625 32.0905 238.999 32.3184 238.361 32.4161C237.997 32.4747 237.593 32.4161 237.222 32.3249C236.642 32.1881 236.062 32.0058 235.502 31.8039C234.884 31.5825 234.571 31.055 234.324 30.4885C234.2 30.1954 234.128 29.8828 234.011 29.5181C234.434 29.0362 235.105 28.8474 235.756 28.6976C236.349 28.5609 236.987 28.6325 237.586 28.5088C238.687 28.2808 239.748 28.6064 240.81 28.7237C241.689 28.8213 242.555 29.2381 242.881 30.267H242.874Z" fill="#808080"/>
<path d="M253.424 31.4067C254.114 31.8431 254.531 32.3184 254.791 32.9762C255.202 34.0181 255.625 35.0471 255.898 36.1346C256.244 37.5087 256.432 39.306 256.315 40.628C256.276 41.0643 256.12 41.2336 255.671 41.3509C255.527 41.3899 255.391 41.5072 255.254 41.5006C255.065 41.4941 254.811 41.4616 254.7 41.3378C253.86 40.3936 253.281 39.293 253.053 38.0492C252.883 37.144 252.831 36.2258 252.721 35.3075C252.688 35.0601 252.558 34.8061 252.577 34.5652C252.655 33.7837 252.747 33.0022 252.903 32.2338C252.961 31.9603 253.215 31.7258 253.424 31.4132V31.4067Z" fill="#808080"/>
<path d="M190.001 36.4928C190.066 37.3524 189.558 38.2251 188.823 38.4921C188.276 38.6939 187.716 38.8828 187.142 38.9805C186.127 39.1498 185.15 38.9089 184.258 38.4269C183.235 37.8799 182.369 37.1375 181.789 36.1086C181.334 35.2881 181.027 34.4089 180.988 33.4581C180.982 33.2172 181.099 32.9762 181.151 32.7353C181.242 32.325 181.594 32.2143 181.92 32.1231C182.297 32.0189 182.551 32.2013 182.551 32.592C182.551 33.4321 182.864 34.181 183.242 34.8973C183.678 35.7309 184.414 36.0956 185.332 36.1802C186.322 36.2649 187.312 36.4017 188.308 36.4798C188.849 36.5189 189.396 36.4863 189.995 36.4863L190.001 36.4928Z" fill="#808080"/>
<path d="M259.981 28.0466C260.047 28.7434 259.695 29.2123 259.291 29.7202C258.803 30.3389 258.243 30.7948 257.533 31.1204C256.269 31.7 254.752 31.1334 254.329 29.831C254.212 29.4793 254.205 29.03 254.309 28.6718C254.498 27.9945 254.785 27.3368 255.058 26.6856C255.527 25.5785 256.523 25.0901 257.533 24.6538C257.989 24.4519 258.894 24.9012 259.128 25.4417C259.369 26.0083 259.851 26.4772 259.786 27.174C259.76 27.4605 259.91 27.7536 259.975 28.0466H259.981ZM258.334 27.5191C258.269 27.454 258.21 27.3498 258.125 27.3107C257.832 27.1805 257.5 26.9135 257.22 27.2586C256.751 27.8317 256.309 28.4243 255.918 29.0495C255.814 29.2188 255.853 29.5705 255.963 29.7593C256.048 29.8961 256.302 30.0068 256.582 29.844C256.921 29.6421 257.337 29.5835 257.683 29.3881C257.852 29.2904 257.982 29.0495 258.041 28.8476C258.165 28.4243 258.236 27.9815 258.334 27.5256V27.5191Z" fill="#808080"/>
<path d="M260.053 32.0057C260.626 31.8689 260.971 32.1359 261.18 32.4159C261.505 32.8588 261.701 33.4058 261.968 33.8942C262.378 34.6301 262.586 35.4246 262.736 36.2451C262.821 36.714 262.951 37.1829 262.99 37.6517C263.016 38.0229 262.945 38.4072 262.899 38.7849C262.853 39.1626 262.788 39.5338 262.73 39.9115C262.717 39.9896 262.71 40.0678 262.684 40.1394C262.45 40.9274 261.746 41.3507 260.926 41.1879C260.509 41.1032 260.327 40.7581 260.242 40.4259C260.04 39.6184 259.936 38.7914 259.76 37.9839C259.441 36.4991 259.636 34.9948 259.623 33.5035C259.623 33.002 259.903 32.5006 260.047 32.0122L260.053 32.0057Z" fill="#808080"/>
<path d="M131.275 36.4344C131.49 37.1051 131.105 37.7629 130.923 38.4401C130.832 38.7723 130.448 39.0262 130.194 39.3063C129.536 40.0291 128.696 40.3222 127.752 40.2375C126.931 40.1594 126.339 39.3974 126.15 38.4597C125.857 36.9944 126.488 35.8222 127.257 34.6956C127.511 34.331 127.862 34.0184 128.195 33.7188C128.709 33.2564 129.315 33.289 129.927 33.6146C131.066 34.2137 131.385 35.1645 131.275 36.4344ZM129.569 36.48C129.569 36.2846 129.569 36.1544 129.569 36.0241C129.582 35.7571 129.588 35.4771 129.256 35.412C128.989 35.3599 128.8 35.4706 128.605 35.705C128.136 36.2716 127.908 36.9228 127.732 37.6131C127.647 37.9452 127.875 38.1471 128.077 38.3164C128.266 38.4727 128.924 38.3815 129.002 38.1862C129.23 37.6066 129.705 37.1051 129.562 36.48H129.569Z" fill="#808080"/>
<path d="M183.196 31.5239C184.531 31.3937 185.847 31.5565 187.097 31.83C187.69 31.2244 187.195 30.6187 187.195 30.0391C187.195 29.9545 186.928 29.8177 186.771 29.7917C185.97 29.6614 185.143 29.6224 184.355 29.4335C183.737 29.2837 183.072 29.0753 182.832 28.346C182.688 27.9227 182.747 27.7924 183.092 27.558C183.73 27.1282 184.434 27.2845 185.117 27.3236C185.319 27.3366 185.521 27.4473 185.71 27.4278C186.342 27.3626 186.915 27.571 187.501 27.7469C187.592 27.7729 187.703 27.812 187.755 27.8771C188.119 28.3655 188.543 28.8344 188.803 29.3749C189.142 30.0717 189.09 31.7909 188.185 32.4031C188.067 32.4812 187.95 32.5463 187.833 32.6245C187.722 32.6961 187.579 32.7547 187.52 32.8589C187.188 33.4711 186.589 33.6274 185.996 33.6664C185.267 33.712 184.512 33.6664 183.86 33.2366C183.652 33.0999 183.431 32.9566 183.261 32.7678C182.812 32.2728 182.812 32.1296 183.177 31.5239H183.196Z" fill="#808080"/>
<path d="M207.825 30.8856C207.969 31.4783 207.78 31.8234 207.33 32.123C205.911 33.0477 204.38 33.3733 202.752 32.8849C201.938 32.6374 201.118 32.2662 200.714 31.4131C200.532 31.0289 200.369 30.6186 200.317 30.2019C200.252 29.6418 200.87 29.2381 201.443 29.3683C202.127 29.5246 202.824 29.6288 203.508 29.7851C204.485 30.0065 205.468 30.2344 206.438 30.4819C206.901 30.5991 207.35 30.7554 207.825 30.8987V30.8856Z" fill="#808080"/>
<path d="M60.4936 45.2125C60.2656 44.685 60.0182 44.1641 60.0117 43.5649C60.0117 43.3435 59.8684 43.1221 59.8749 42.9007C59.914 42.1713 59.927 41.4289 60.181 40.7386C60.3959 40.146 61.2294 40.0093 61.5876 40.5107C62.1542 41.2922 62.2909 42.1974 62.1867 43.1351C62.1607 43.3696 61.9979 43.6105 61.8416 43.7994C61.4248 44.2943 61.275 45.0367 60.4871 45.219L60.4936 45.2125Z" fill="#808080"/>
<path d="M101.39 6.71887C100.843 7.09006 100.4 7.5394 99.8729 7.6957C99.3715 7.84548 98.7723 7.6957 98.1146 7.66965C98.1667 8.15806 98.2318 8.67904 98.2839 9.20653C98.3035 9.38236 98.336 9.57772 98.2839 9.74053C98.1797 10.0401 98.1732 10.3136 98.1993 10.6327C98.2253 10.8867 98.1927 11.2448 97.7825 11.3751C97.5676 11.4467 97.4113 11.6942 97.2289 11.8635C96.6624 12.3975 95.9135 12.1175 95.666 11.4923C95.5683 11.2448 95.5227 10.9518 95.5162 10.6848C95.5032 9.25862 95.5097 7.82594 95.5097 6.30209C94.2659 6.79701 93.0872 7.24636 91.7522 7.09658C91.8629 7.70221 92.0192 8.23621 92.0322 8.77021C92.0517 9.44748 92.0517 10.1768 91.4135 10.6457C90.7363 11.1406 89.9744 11.4467 89.1213 11.31C88.7501 11.2514 88.6394 10.8932 88.6133 10.535C88.5677 9.81867 88.8412 9.18699 89.1278 8.56182C89.3427 8.08643 89.6162 7.63709 89.8832 7.14216C88.5091 7.07053 87.1741 6.97936 86.2885 5.74204C86.6075 4.82382 86.6922 4.76521 87.7016 4.7587C88.5677 4.75218 89.4469 4.85638 90.2869 4.53077C90.3651 3.74279 90.4432 2.96133 90.5214 2.17987C91.5177 2.0366 91.9606 2.37523 92.0517 3.35857C92.0778 3.61906 92.0517 3.87955 92.0517 4.14004C92.0648 4.67404 92.1104 4.71962 92.6118 4.76521C93.1979 4.81731 93.7905 4.82382 94.3701 4.92801C94.7804 5.00616 95.1646 5.21455 95.6204 5.39038V2.36872C96.4345 2.21243 96.8903 2.36872 97.1443 3.0525C97.4634 3.89257 97.6783 4.77823 97.9518 5.68994C98.9937 5.85275 100.088 6.02206 101.214 6.19138C101.364 5.34479 101.214 4.57636 101.032 3.80792C100.98 3.60604 100.999 3.35206 101.071 3.1567C101.286 2.61618 101.468 2.59665 101.911 2.98087C102.413 3.4237 102.699 3.98375 102.842 4.62194C102.96 5.16245 103.038 5.71599 103.181 6.2565C103.533 7.59801 103.494 8.96558 103.448 10.3266C103.422 11.1472 102.38 11.6681 101.664 11.2839C101.384 11.1341 101.299 10.8606 101.319 10.5025C101.39 9.42794 101.397 8.35343 101.423 7.2724C101.423 7.12262 101.403 6.97284 101.384 6.71887H101.39ZM90.9968 10.1768C90.847 9.40841 91.1921 8.64648 90.7754 7.92362C90.0134 8.41855 90.046 9.31072 89.5771 9.90984C89.5055 10.001 89.5641 10.1964 89.5641 10.4504C90.0655 10.3592 90.4953 10.2745 90.9903 10.1834L90.9968 10.1768Z" fill="#1E1E1E"/>
<path d="M241.702 7.74781C241.526 7.39615 241.428 7.19427 241.318 6.96635C241.461 6.58864 241.735 6.47142 242.158 6.47142C243.851 6.49096 245.551 6.36722 247.231 6.51049C248.624 6.62771 250.012 6.58213 251.399 6.64074C251.828 6.66027 252.258 6.76447 252.688 6.79052C253.092 6.81005 253.483 6.85564 253.652 7.26591C253.815 7.66315 253.587 8.34693 253.202 8.57486C252.74 8.84837 252.213 8.96559 251.672 8.97861C251.177 8.98513 250.682 8.96559 250.187 8.97861C249.998 8.97861 249.81 9.05676 249.608 9.15444C250.734 9.62983 250.891 10.6848 251.132 11.6291C251.301 12.2868 251.288 13.0032 251.314 13.6934C251.333 14.1884 251.223 14.2926 250.734 14.2861C249.334 14.2665 249.634 14.4944 249.269 13.1204C249.041 12.2673 249.002 11.4077 248.989 10.5481C248.989 10.1052 249.106 9.65588 249.191 9.10235C249.061 9.06979 248.846 8.98513 248.618 8.9721C247.7 8.90698 246.762 8.96559 245.863 8.78976C244.685 8.56183 243.441 8.60091 242.334 8.04086C242.295 8.02132 242.236 8.05388 242.132 8.07342C242.223 8.37298 242.334 8.65952 242.405 8.95908C242.464 9.20003 242.021 9.85776 241.761 9.91637C241.246 10.0336 240.712 10.0792 240.211 10.242C239.651 10.4178 239.084 10.3136 238.537 10.4048C237.065 10.6588 235.587 10.5025 234.115 10.535C233.21 10.5546 232.403 10.1378 231.569 9.86427C231.321 9.77961 231.146 9.37586 231.015 9.08932C230.898 8.82883 231.256 8.43159 231.647 8.36647C232.149 8.28832 232.663 8.26227 233.164 8.19715C233.64 8.13854 234.115 8.06039 234.656 7.98225C234.096 6.57561 234.265 5.21456 234.636 3.85352C235.502 3.96422 235.86 4.37449 236.023 5.35783C236.101 5.82671 236.232 6.28908 236.297 6.75796C236.329 7.00542 236.349 7.30498 236.251 7.51988C236.082 7.89108 236.251 8.01481 236.551 8.02783C237.072 8.05388 237.619 8.13854 238.107 8.01481C238.96 7.79339 239.807 7.9562 240.647 7.87805C240.966 7.852 241.279 7.79339 241.695 7.73478L241.702 7.74781Z" fill="#1E1E1E"/>
<path d="M119.937 12.267C119.859 11.4855 119.748 10.8278 119.742 10.1636C119.735 9.53188 119.833 8.90671 119.885 8.26201C119.149 8.18386 118.472 8.11222 117.71 8.02757C118.094 8.85461 118.003 9.68818 118.049 10.5022C118.088 11.1534 117.541 11.4921 116.668 11.4465C115.952 10.2417 116.18 8.88066 116.121 7.51961C115.893 7.48054 115.691 7.42844 115.49 7.42193C114.754 7.38937 114.2 7.07027 113.816 6.43859C113.471 5.87203 113.712 5.31849 114.369 5.22732C114.5 5.20778 114.63 5.22732 114.76 5.22081C116.297 5.22081 117.834 5.19476 119.371 5.2143C119.931 5.22081 120.491 5.31849 121.051 5.3771C121.611 5.43571 122.171 5.42269 122.738 5.49432C123.454 5.58549 124.112 5.78737 124.782 5.99576C125.049 6.07391 125.238 6.19764 125.212 6.45161C125.167 6.89444 125.082 7.33727 124.945 7.76057C124.815 8.16432 124.463 8.32713 124.047 8.35318C123.206 8.40527 122.36 8.4704 121.487 8.52901C121.65 9.46025 121.728 10.372 121.461 11.2641C121.403 11.453 121.285 11.6223 121.207 11.8112C121.064 12.1563 121.181 12.3712 121.546 12.4103C122.178 12.4754 122.816 12.5014 123.454 12.5796C123.884 12.6317 124.392 12.5535 124.613 13.1006C124.633 13.1527 124.73 13.1917 124.802 13.2113C125.408 13.3806 125.57 13.9406 125.733 14.416C125.889 14.8654 126.17 15.3343 125.857 15.8683C125.714 16.1092 125.72 16.4543 125.701 16.7539C125.675 17.2098 125.303 17.4116 125.017 17.6331C124.672 17.9001 124.314 17.6721 124.268 17.2293C124.17 16.2655 124.073 15.3082 123.968 14.3053C123.343 14.2858 122.809 14.2988 122.236 14.3965C121.403 14.5398 120.504 14.5398 119.67 14.403C118.967 14.2923 118.283 14.2793 117.593 14.2923C117.085 14.3053 116.701 14.1165 116.33 13.8299C116.017 13.5825 115.88 13.0029 116.024 12.6512C116.121 12.4103 116.317 12.3973 116.538 12.3973C117.345 12.3973 118.153 12.4103 118.961 12.3973C119.254 12.3973 119.547 12.3126 119.95 12.2475L119.937 12.267Z" fill="#1E1E1E"/>
<path d="M153.788 6.36706C153.983 6.61453 154.296 6.85548 154.393 7.16806C154.595 7.7737 154.048 8.43794 153.364 8.51609C152.374 8.62679 151.391 8.75053 150.401 8.82216C150.095 8.8417 149.971 8.99799 149.919 9.21289C149.828 9.57757 149.796 9.96179 149.73 10.333C149.639 10.854 149.561 11.3815 149.424 11.8894C149.242 12.5732 148.422 12.9769 147.809 12.7165C147.568 12.6188 147.38 12.1173 147.458 11.8047C147.686 10.854 147.868 9.89016 148.317 9.0045C148.324 8.98496 148.311 8.9524 148.291 8.86123C148.063 8.84821 147.809 8.80914 147.562 8.82216C146.885 8.86123 146.338 8.56167 145.823 8.19048C145.563 8.00162 145.439 7.68904 145.543 7.38296C145.634 7.11596 145.888 7.00526 146.194 6.9206C147.295 6.62104 148.474 6.76431 149.548 6.3345C149.594 6.31496 149.652 6.32799 149.704 6.32148C150.525 6.26938 151.339 6.21077 152.27 6.15216C152.029 5.87865 151.84 5.66374 151.626 5.42279C151.671 5.28604 151.756 5.12974 151.782 4.96043C151.821 4.69994 151.971 4.65435 152.199 4.59574C153.403 4.27665 154.634 4.28316 155.858 4.29618C156.243 4.29618 156.633 4.29618 157.024 4.29618C157.102 3.99662 157.18 3.74265 157.109 3.43657C157.037 3.11748 157.109 2.76582 157.089 2.42718C157.063 2.03645 157.115 1.6913 157.5 1.50896C157.819 1.35918 158.424 1.55455 158.672 1.8997C158.861 2.1667 159.023 2.46626 159.121 2.77884C159.362 3.52774 159.479 4.3027 159.623 5.08416C159.811 6.12611 159.89 7.15504 159.922 8.2035C159.948 8.93287 160.15 9.65572 160.209 10.3916C160.261 11.0168 160.124 11.1731 159.649 11.3359C158.9 11.5964 158.366 11.5247 158.04 11.0819C157.519 10.3656 157.174 9.61014 157.233 8.67889C157.298 7.69555 157.246 6.7057 157.246 5.71584C157.246 5.56606 157.226 5.41628 157.206 5.11021C156.21 6.18472 154.901 6.0675 153.807 6.36706H153.788Z" fill="#1E1E1E"/>
<path d="M207.012 5.6704C207.331 5.63133 207.643 5.5597 207.962 5.55318C208.483 5.53365 209.004 5.57923 209.525 5.55318C210.574 5.49457 211.616 5.40992 212.716 5.33177C212.716 5.18199 212.71 5.03221 212.716 4.88243C212.768 4.14655 212.801 3.40416 212.879 2.66828C212.938 2.0887 213.153 1.96496 213.973 1.99101C214.742 3.32601 215.295 4.77823 215.686 6.28906C215.862 6.97284 215.972 7.66965 216.057 8.37297C216.096 8.73114 216.018 9.10884 215.966 9.46701C215.92 9.79914 215.679 9.97497 215.38 10.0857C215.354 10.0922 215.328 10.0857 215.302 10.0922C213.862 10.6327 213.139 9.47353 213.022 8.37948C212.977 7.92362 212.886 7.47428 212.807 6.95982C212.547 7.02494 212.267 7.03796 212.039 7.15518C210.704 7.82594 209.31 7.68918 207.93 7.42218C207.305 7.30497 206.784 6.95331 206.732 6.11323C206.438 6.50396 206.211 6.81004 205.95 7.1617C206.751 7.58499 207.35 8.18411 207.865 8.89394C208.314 9.51911 208.223 10.1052 207.598 10.4634C207.266 10.6522 206.881 10.6262 206.614 10.3331C206.263 9.95543 205.95 9.55167 205.611 9.16094C205.527 9.06326 205.423 8.9786 205.344 8.88092C205.103 8.58787 204.869 8.62043 204.628 8.88092C204.088 9.4605 203.508 9.9945 202.753 10.3006C202.446 10.4243 202.153 10.5741 201.847 10.6718C201.476 10.7955 201.151 10.7108 200.662 10.4243C200.916 10.0206 200.844 9.53865 201.046 9.07628C201.261 8.59438 201.6 8.23621 201.906 7.87153C202.707 6.92726 203.573 6.03509 204.452 5.15594C204.83 4.78474 205.325 4.53077 205.716 4.1726C205.97 3.94467 206.237 3.97072 206.51 3.99026C207.057 4.03584 207.318 4.50472 207.109 5.01918C207.083 5.07779 207.005 5.65087 207.005 5.6704H207.012Z" fill="#1E1E1E"/>
<path d="M257.364 5.67029C256.498 5.46841 255.638 5.26653 254.779 5.05163C254.401 4.95395 253.958 4.32226 253.971 3.92502C253.978 3.59941 254.245 3.35846 254.661 3.35195C255.443 3.33892 256.224 3.35195 257.13 3.35195C256.556 3.00029 256.107 2.66817 255.606 2.44675C255.091 2.22534 254.928 1.78902 254.766 1.34619C254.622 0.948946 255.085 0.408433 255.606 0.564726C256.4 0.805677 257.221 0.942433 258.009 1.18338C258.556 1.3527 259.09 1.60017 259.598 1.86717C260.021 2.09509 260.223 2.6877 260.099 3.19565C260.679 3.19565 261.245 3.16309 261.805 3.20868C262.059 3.22821 262.365 3.33892 262.535 3.51475C262.711 3.69058 262.821 4.00317 262.821 4.25063C262.821 4.48507 262.554 4.62182 262.359 4.79114C261.727 5.31212 260.939 5.28607 260.236 5.54004C259.936 5.65075 259.604 5.6768 259.37 5.7289C259.285 6.36058 259.116 6.92714 259.168 7.46765C259.213 7.88443 259.148 8.22307 259.018 8.60078C258.953 8.78312 259.129 9.03058 259.122 9.252C259.09 9.96834 259.044 10.6847 258.959 11.3945C258.933 11.6029 258.771 11.7983 258.64 12.0718C259.858 12.1629 261.05 12.2476 262.411 12.3453C261.818 12.6774 261.454 13.0812 260.92 13.2179C259.845 13.4914 258.784 13.8431 257.651 13.8496C257.012 13.8496 256.374 13.9603 255.736 13.9929C255.137 14.0189 254.622 13.7975 254.114 13.4654C253.867 13.3026 253.743 13.1333 253.841 12.9314C253.939 12.7295 254.16 12.5732 254.362 12.456C254.479 12.3909 254.668 12.456 254.824 12.443C255.606 12.3778 256.387 12.3062 257.195 12.2346C256.928 11.1145 257.429 10.2028 257.651 9.19339C257.514 9.18036 257.351 9.15431 257.188 9.14129C256.648 9.10873 256.465 8.92639 256.485 8.37285C256.511 7.63046 256.797 6.95319 257.077 6.27592C257.175 6.048 257.292 5.82658 257.364 5.6768V5.67029ZM257.384 7.96909C258.282 8.07329 258.334 7.95607 257.931 6.88156C257.755 7.2267 257.592 7.55882 257.384 7.96909Z" fill="#1E1E1E"/>
<path d="M39.8368 9.74716C39.6219 10.3919 39.0945 10.6979 38.4628 10.8542C37.9223 10.9845 37.4143 11.245 36.8347 11.2059C36.711 11.1994 36.5742 11.3361 36.4114 11.4273C36.5938 12.2413 36.3463 13.0619 36.4245 13.8954C36.4505 14.208 36.3268 14.5466 36.2226 14.8592C36.1509 15.0741 35.4151 15.289 35.1155 15.2304C34.2494 15.0481 34.0475 14.7811 33.9368 13.8433C33.8326 12.9902 33.6633 12.1436 33.52 11.2515C33.3181 11.1994 33.0316 11.0756 32.7451 11.0496C31.7226 10.9454 31.2538 10.1574 30.7198 9.4476C30.6416 9.3434 30.6546 9.15455 30.6481 9.00477C30.6156 8.09306 30.9803 7.31811 31.5273 6.62781C32.4195 5.49469 33.3572 4.39413 34.2689 3.27403C34.3992 3.11774 34.5099 2.94191 34.6206 2.77911C34.8811 2.4014 35.2848 2.28418 35.6951 2.28418C36.1705 2.28418 36.5677 2.95494 36.3658 3.48242C36.2095 3.8992 35.9425 4.28342 35.6755 4.64811C35.5193 4.86301 35.4476 5.01279 35.5714 5.26677C35.91 5.94403 36.0012 6.6734 35.9751 7.43533C35.9556 7.93677 36.0663 8.44472 36.1184 8.95267C36.1444 9.20664 36.3007 9.2913 36.5417 9.30433C37.3883 9.34991 38.2348 9.40201 39.0749 9.46062C39.3484 9.48016 39.6675 9.37596 39.8434 9.75367L39.8368 9.74716ZM33.8847 6.96645C33.2009 7.50696 32.2957 8.77033 32.2436 9.25874H33.7024C33.761 8.4903 33.8196 7.74791 33.8782 6.96645H33.8847Z" fill="#1E1E1E"/>
<path d="M7.15232 12.6319C9.41857 12.8859 11.5546 13.4003 13.9055 13.1594C13.4626 13.7715 12.9807 14.1101 12.4728 14.2599C11.802 14.4553 11.1508 14.7028 10.4345 14.8004C9.60742 14.9177 8.78688 14.9307 7.97286 14.8916C6.99603 14.8525 6.11688 14.4162 5.47218 13.6673C4.83398 12.9314 4.87957 12.1109 5.29635 11.2513C5.9671 9.8642 6.64437 8.4771 7.0872 6.99232C7.21745 6.56251 7.37374 6.13922 7.54306 5.65081C6.94393 5.26659 6.3383 5.28612 5.68057 5.51405C5.34845 5.62476 4.98376 5.65081 4.6321 5.67685C4.52791 5.68337 4.37813 5.59871 4.31301 5.50754C4.08508 5.19495 4.2544 4.33534 4.59303 4.12044C4.93166 3.91205 5.28332 3.64505 5.65452 3.57993C6.59879 3.41061 7.54957 3.33898 8.29196 4.17254C8.59803 4.51117 9.0083 4.75863 9.3274 5.09076C10.2782 6.10015 10.4735 7.24629 10.2196 8.62688C9.98513 9.89676 9.23623 10.7629 8.48081 11.6551C8.16823 12.0262 7.67981 12.2477 7.15884 12.6189L7.15232 12.6319Z" fill="#1E1E1E"/>
<path d="M81.8994 9.83804C81.8994 10.4502 81.8407 11.0037 81.9124 11.5377C81.9905 12.1173 81.7235 12.5406 81.4174 12.9313C81.1244 13.309 80.6425 13.4067 80.1736 13.3416C80.0564 13.3286 79.8741 13.0941 79.8806 12.9704C79.9196 12.2801 79.9717 11.5898 80.089 10.9125C80.1606 10.4958 80.3625 10.0985 80.5318 9.61011C80.2713 9.61011 80.0694 9.61011 79.8741 9.61011C78.9558 9.59057 78.0441 9.63616 77.1324 9.34311C76.5463 9.15426 75.8951 9.16728 75.3025 8.88726C74.4429 8.4835 74.3908 8.45094 74.4168 7.49365C74.8336 7.42201 75.2569 7.35038 75.6802 7.28526C76.11 7.22013 76.5398 7.16804 76.9631 7.10291C77.966 6.94662 78.9624 6.75777 79.9652 6.64706C80.8574 6.54938 81.7626 6.54287 82.6613 6.48426C83.2474 6.44518 83.827 6.50379 84.4261 6.36704C84.8884 6.25633 85.429 6.45169 85.9304 6.54287C86.2755 6.60799 86.6272 6.67962 86.9333 6.83591C87.4087 7.07035 87.4738 7.36991 87.3045 7.87787C87.0179 8.74399 86.3863 9.22589 85.5462 9.43428C85.1294 9.53848 84.6931 9.56452 84.2633 9.61011C83.5014 9.68826 82.7329 9.75989 81.8994 9.83804Z" fill="#1E1E1E"/>
<path d="M25.1198 12.0265C26.4027 12.3391 27.6205 12.4759 28.8513 12.4238C28.9555 12.4238 29.0597 12.4238 29.1639 12.4238C29.7305 12.4498 29.8281 12.6387 29.5481 13.1662C29.1183 13.9672 28.415 14.3319 27.5489 14.4556C27.2233 14.5012 26.9042 14.5663 26.5786 14.6054C26.4223 14.6249 26.2595 14.6445 26.1097 14.6054C25.0677 14.3188 23.9867 14.13 23.2313 13.2053C22.5084 12.3196 22.2479 11.3884 22.7885 10.3334C23.1792 9.56494 23.6025 8.81604 23.9932 8.0476C24.3384 7.38335 24.7551 6.73864 24.6965 5.90508C24.1886 5.78135 23.6937 5.69018 23.2248 5.53389C22.9448 5.44272 22.6843 5.26038 22.4433 5.08455C22.1828 4.89569 22.1438 4.61567 22.261 4.31611C22.3717 4.03608 22.5866 3.85374 22.8796 3.82769C23.8499 3.73652 24.7747 3.80816 25.4715 4.64823C25.7124 4.94128 26.0901 5.12362 26.3116 5.42969C26.5981 5.83345 26.9042 6.2893 27.0018 6.76469C27.1581 7.48103 27.1907 8.23645 27.1842 8.97884C27.1842 9.31747 26.9823 9.65611 26.8586 9.98823C26.7674 10.2227 26.6697 10.4571 26.5265 10.6525C26.3832 10.8478 26.1878 11.0106 25.9925 11.1539C25.6734 11.3818 25.3087 11.5512 25.1263 12.0265H25.1198Z" fill="#1E1E1E"/>
<path d="M194.411 8.4775C194.176 7.53323 193.935 6.56291 193.681 5.51445C193.505 5.56655 193.297 5.62516 193.089 5.69028C192.183 5.9703 191.278 6.25684 190.301 5.80099C190.204 6.21125 190.184 6.53686 190.321 6.89503C190.581 7.57881 190.178 8.17794 189.982 8.7966C189.911 9.0115 188.992 9.20686 188.706 9.11569C188.237 8.9594 187.879 8.44494 187.879 7.95001C187.879 6.56942 187.918 5.19535 187.859 3.82128C187.827 3.10494 188.087 2.46674 188.204 1.79598C188.263 1.45735 188.862 1.34013 189.084 1.63318C189.305 1.92623 189.455 2.27789 189.598 2.61652C189.741 2.96167 189.826 3.32635 189.93 3.65196C191.128 3.59335 192.255 3.53474 193.46 3.46962C193.518 3.05284 193.603 2.59047 193.655 2.11508C193.681 1.88064 193.642 1.58108 193.922 1.5355C194.202 1.48991 194.528 1.5355 194.801 1.63969C194.971 1.6983 195.127 1.90018 195.218 2.08252C195.706 3.05935 196.117 4.06223 196.175 5.17581C196.195 5.52747 196.325 5.87913 196.319 6.23079C196.312 6.6606 196.254 7.09691 196.136 7.50718C195.96 8.13886 195.27 8.53611 194.43 8.48401L194.411 8.4775Z" fill="#1E1E1E"/>
<path d="M137.051 8.54897C137.123 8.62711 137.181 8.73782 137.259 8.77038C137.748 8.95924 138.243 9.12855 138.738 9.30438C139.226 9.4737 139.545 9.85141 139.806 10.2617C140.066 10.6654 139.838 11.232 139.369 11.4925C138.523 11.9548 137.364 11.8116 136.641 11.1408C136.53 11.0366 136.4 10.9389 136.322 10.8087C136.081 10.418 135.735 10.3333 135.449 10.3789C135.084 10.6654 134.837 10.9064 134.544 11.0822C134.01 11.4013 133.456 11.6944 132.903 11.9809C132.772 12.046 132.623 12.0981 132.479 12.1111C131.646 12.2088 131.183 11.753 131.607 10.8152C131.984 9.98165 132.538 9.34345 133.293 8.79643C134.238 8.10614 135.071 7.25955 135.911 6.3218C135.651 6.3218 135.377 6.27621 135.13 6.32831C134.55 6.45855 134.094 6.08084 133.58 5.97014C133.417 5.93106 133.287 5.69662 133.176 5.52731C133.007 5.27333 132.87 5.00633 132.707 4.72631C132.968 4.27045 133.424 4.15323 133.886 4.14021C134.72 4.10765 135.553 4.11416 136.38 4.14021C136.784 4.15323 137.201 4.19231 137.578 4.31604C138.34 4.57002 138.855 5.28636 138.601 6.28272C138.445 6.90138 138.008 7.34421 137.663 7.83914C137.494 8.08009 137.279 8.29499 137.064 8.53594L137.051 8.54897Z" fill="#1E1E1E"/>
<path d="M227.362 1.46989C227.916 1.74992 228.098 2.19274 228.189 2.72023C228.359 3.69055 228.554 4.66087 228.756 5.69631C229.531 5.69631 230.351 5.69631 231.178 5.69631C231.471 5.69631 231.823 5.5856 231.927 6.02843C231.999 6.31497 231.725 6.82292 231.387 6.94014C230.605 7.21365 229.811 7.4546 229.016 7.70858C229.042 8.01465 229.081 8.38584 229.114 8.76355C229.134 8.99148 229.16 9.22592 229.173 9.45384C229.179 9.66875 229.179 9.88365 229.173 10.0986C229.166 10.3004 229.134 10.5088 229.114 10.7107C229.062 11.2707 229.042 11.8308 228.958 12.3843C228.841 13.1397 227.564 13.9863 226.822 13.83C226.724 13.8105 226.6 13.7714 226.555 13.6998C226.255 13.2114 225.851 12.736 225.851 12.1499C225.851 10.8084 225.904 9.47338 226.008 8.13838C226.06 7.41553 226.275 6.7057 226.385 5.98284C226.411 5.80701 226.262 5.59211 226.307 5.42931C226.555 4.56318 226.379 3.68404 226.47 2.81792C226.509 2.47928 226.659 2.13414 226.828 1.83457C226.919 1.67177 227.154 1.60014 227.349 1.46338L227.362 1.46989Z" fill="#1E1E1E"/>
<path d="M109.283 12.215C109.127 11.948 108.971 11.7656 108.905 11.5572C108.658 10.7823 108.482 9.9943 108.463 9.16725C108.443 8.47696 108.391 7.78015 108.306 7.09637C108.241 6.56888 108.554 6.21723 108.788 5.83301C108.925 5.61159 109.218 5.65066 109.413 5.86557C109.928 6.45166 110.019 7.20057 110.214 7.90388C110.436 8.70488 110.638 9.50588 110.788 10.3199C110.898 10.9321 110.859 11.5442 110.182 11.8828C110.117 11.9154 110.084 12.0001 110.039 12.0587C110.026 12.0782 110.039 12.1108 110.039 12.2019C110.612 12.1759 111.113 12.482 111.777 12.3061C112.533 12.1108 113.379 12.2215 114.187 12.2605C114.753 12.2931 114.923 12.6317 114.747 13.1983C114.604 13.6737 114.552 14.2207 113.998 14.4161C113.666 14.5333 113.301 14.5593 112.95 14.5919C112.663 14.618 112.376 14.5854 112.09 14.5984C111.374 14.6375 110.664 14.6049 109.941 14.7156C109.199 14.8263 108.404 14.6701 107.649 14.5659C106.984 14.4682 106.333 14.2533 105.669 14.1361C104.848 13.9863 104.178 13.5239 103.481 13.1136C103.357 13.042 103.253 12.8987 103.188 12.762C103.038 12.4299 103.214 12.1303 103.585 12.0977C103.819 12.0782 104.073 12.0326 104.282 12.1043C105.115 12.3908 105.955 12.0847 106.796 12.1759C107.61 12.2671 108.443 12.1954 109.29 12.1954L109.283 12.215Z" fill="#1E1E1E"/>
<path d="M50.1656 5.38414C50.6931 6.47168 51.2141 7.55922 51.5201 8.73792C51.8132 9.87105 51.2206 10.2227 50.374 10.2422C49.9246 10.2553 49.7228 9.92314 49.56 9.61707C49.2799 9.08307 49.065 8.52302 48.785 7.88483C48.6678 8.1909 48.518 8.46441 48.4594 8.75746C48.251 9.79941 47.7561 10.659 46.9421 11.3298C46.4797 11.714 45.3856 11.7726 44.9103 11.46C44.4479 11.1539 44.2069 10.3985 44.4609 9.92966C45.1252 8.67931 45.8155 7.43549 46.4797 6.18514C46.8574 5.4688 47.2286 4.74595 47.5672 4.01007C47.73 3.64539 47.8082 3.24163 47.9384 2.81183C48.785 2.60995 49.293 2.96812 49.4167 3.89936C49.4948 4.47895 49.8009 4.96736 50.1916 5.40368L50.1721 5.38414H50.1656Z" fill="#1E1E1E"/>
<path d="M183.32 2.61623C182.793 2.03664 182.317 1.54823 181.881 1.01423C181.731 0.831885 181.692 0.558373 181.588 0.297885C182.037 -0.0798227 182.623 -0.0667983 182.982 0.161129C183.62 0.564885 184.173 1.13796 184.668 1.71754C185.072 2.19293 184.987 2.36225 184.492 2.77252C184.89 2.99393 185.306 3.21535 185.71 3.46281C186.225 3.7754 186.27 3.9903 185.984 4.50476C185.626 5.1625 185.209 5.76813 184.492 6.28259C184.831 6.3933 185.079 6.46493 185.32 6.56262C185.573 6.67332 185.827 6.80357 186.068 6.93381C186.57 7.20732 186.602 7.53945 186.127 7.82598C185.443 8.22974 184.714 8.40557 183.958 7.98228C183.809 7.89762 183.646 7.81947 183.496 7.73481C183.184 7.55898 182.884 7.51991 182.558 7.7283C182.324 7.87808 182.031 7.9432 181.809 8.10601C181.451 8.37301 181.054 8.34696 180.644 8.37301C180.266 8.39906 180.012 8.22974 179.921 7.92367C179.823 7.61759 179.765 7.2464 180.084 6.99242C180.813 6.39981 181.549 5.8072 182.278 5.21459C182.415 5.10389 182.539 4.98015 182.721 4.80432C182.174 4.73269 181.699 4.67408 181.23 4.60896C180.982 4.5764 180.39 4.01635 180.357 3.80796C180.325 3.55398 180.605 3.16325 180.943 2.98091C181.262 2.81159 181.588 2.71391 181.959 2.72693C182.402 2.73996 182.845 2.66181 183.307 2.61623H183.32Z" fill="#1E1E1E"/>
<path d="M15.11 11.655C14.3155 11.6941 13.775 10.9973 13.2215 10.3721C12.8568 9.95535 12.6289 9.49299 12.6289 8.8613C12.6289 8.28823 12.4205 7.72167 12.6679 7.14208C13.2605 5.74847 14.2309 4.70652 15.618 4.07484C16.0282 3.88599 16.4841 3.83389 16.7902 4.28323C17.1483 4.81072 17.7019 5.05167 18.2163 5.36425C19.2322 5.98943 19.5513 7.3114 19.1541 8.40545C18.7764 9.43438 18.0991 10.1703 17.3176 10.8475C16.7511 11.3359 16.0868 11.642 15.123 11.6485L15.11 11.655ZM17.1027 9.40833C17.2004 8.94596 17.3046 8.57477 17.3502 8.20357C17.4218 7.59794 17.4544 6.9923 17.513 6.38667C17.5456 6.04152 17.3307 5.84616 17.0767 5.73545C16.6534 5.5466 15.9436 5.7615 15.7221 6.18479C15.2533 7.07696 14.8104 7.98867 14.4262 8.91991C14.2113 9.43438 14.6216 9.89023 15.1947 9.93582C15.9175 9.99443 16.5166 9.66882 17.1092 9.40833H17.1027Z" fill="#1E1E1E"/>
<path d="M50.1847 5.40342C50.2303 5.11037 50.2759 4.81081 50.3345 4.45915C51.1941 4.38752 52.0668 4.36798 52.9199 4.23774C53.7599 4.10749 54.587 4.4852 55.414 4.23774C55.388 3.83398 55.3684 3.4172 55.3229 3.00042C55.2773 2.57062 55.1991 2.14081 55.1666 1.71101C55.147 1.45703 55.1405 1.19654 55.4661 1.07932C55.7592 0.975128 56.0001 0.968616 56.2411 1.20957C56.8793 1.84125 57.2309 2.63574 57.524 3.45628C57.6738 3.87957 57.7649 4.32891 57.9017 4.75871C58.1166 5.44901 58.4161 6.11325 58.4748 6.84913C58.5073 7.24637 58.6571 7.65664 58.5985 8.03435C58.5399 8.39903 58.2859 8.73767 58.1036 9.0763C58.058 9.16096 57.9603 9.23911 57.8756 9.27167C56.6709 9.7145 55.5247 8.90047 55.4922 7.5785C55.4726 6.82308 55.4922 6.07418 55.4922 5.26015C54.3525 5.91789 53.1673 6.14581 51.9365 5.99603C51.5262 5.95045 51.1355 5.71601 50.7383 5.57274C50.5494 5.50762 50.3671 5.4425 50.1782 5.38389L50.1978 5.40342H50.1847Z" fill="#1E1E1E"/>
<path d="M267.894 9.66239C267.894 10.2094 267.881 10.7564 267.894 11.3035C267.907 11.7202 267.738 11.9547 267.341 12.1175C266.064 12.658 264.755 11.59 264.781 10.3397C264.807 8.99814 264.801 7.65012 264.938 6.31512C265.048 5.22107 265.244 4.14004 265.237 3.03948C265.237 2.92226 265.309 2.79853 265.341 2.68131C265.406 2.44036 265.4 2.1408 265.745 2.10824C266.097 2.07568 266.299 2.25802 266.487 2.55107C267.034 3.39765 267.315 4.32239 267.438 5.32526C267.529 6.10022 267.777 6.85563 267.862 7.63058C267.933 8.30134 267.875 8.98512 267.875 9.65587H267.894V9.66239Z" fill="#1E1E1E"/>
<path d="M176.685 5.10388C176.593 4.67407 176.483 4.36149 176.47 4.04239C176.437 3.39117 176.463 2.73995 176.457 2.08873C176.457 1.76312 176.626 1.63288 176.939 1.63288C177.479 1.62636 178.046 2.12129 178.182 2.69436C178.404 3.64514 178.697 4.57639 178.86 5.53368C178.983 6.237 178.983 6.97288 178.964 7.68922C178.951 8.106 178.039 8.62046 177.622 8.49673C177.499 8.45766 177.336 8.31439 177.316 8.20368C177.225 7.63061 176.776 7.14219 176.926 6.51702C176.939 6.47144 176.893 6.41934 176.886 6.39329C176.118 6.60168 175.356 6.83612 174.581 7.01195C173.572 7.24639 172.595 7.13568 171.703 6.60168C171.371 6.40632 171.097 6.11978 171.13 5.65741C171.162 5.17551 171.227 5.09085 171.729 5.0648C172.706 5.01922 173.689 4.94758 174.666 4.94107C175.278 4.94107 175.897 5.02573 176.685 5.09085V5.10388Z" fill="#1E1E1E"/>
<path d="M168.707 5.28603C168.192 5.18184 167.756 5.37069 167.483 4.96042C167.463 4.93437 167.365 4.92135 167.346 4.9474C167.111 5.18835 166.962 5.03857 166.766 4.86925C166.493 4.63481 166.603 4.28967 166.48 4.01615C166.467 3.98359 166.623 3.84033 166.714 3.80776C167.001 3.71659 167.287 3.59286 167.58 3.58635C168.616 3.54076 169.677 3.27376 170.674 3.83381C171.136 4.0943 171.234 4.25711 171.006 4.75203C170.752 5.29906 170.413 5.80701 170.113 6.3345C170.016 6.50381 169.925 6.67313 169.788 6.92711C170.973 6.90106 171.683 7.50018 172.243 8.33374C171.663 9.23242 171.051 9.39523 170.153 8.86123C169.807 8.65935 169.488 8.40538 169.156 8.17745C168.967 8.0472 168.85 8.04069 168.661 8.24257C168.316 8.61376 167.912 8.93937 167.509 9.25196C167.131 9.54501 166.669 9.52547 166.382 9.25196C166.122 9.0045 166.063 8.60725 166.31 8.19698C166.59 7.74113 166.851 7.23318 167.248 6.90106C167.802 6.4452 168.036 5.7484 168.707 5.28603Z" fill="#1E1E1E"/>
<path d="M82.0883 4.84992C82.2642 5.30577 82.2121 5.54021 81.8865 5.52067C81.0985 5.47509 80.5124 6.0156 79.7961 6.13933C79.0276 6.27609 78.2787 6.58216 77.4777 6.45843C77.4386 6.41936 77.3996 6.3868 77.3735 6.34772C77.0023 5.78767 76.9763 5.78767 76.9177 5.11041C76.82 3.9838 76.9177 2.87672 77.2823 1.78919C77.4191 1.37241 77.7187 1.22263 78.0573 1.17704C79.2165 1.00772 80.3756 0.727698 81.5609 0.85143C81.8344 0.877479 82.147 0.753747 82.3423 1.05331C82.5637 1.39194 82.8828 1.71104 82.961 2.08224C83.1238 2.81811 82.9024 3.54748 82.6223 4.23126C82.5312 4.44616 82.2967 4.60245 82.0753 4.83689L82.0883 4.84992ZM78.3113 4.8955H81.2092C81.6195 4.01636 81.6911 3.33909 81.5088 2.31016C80.545 2.48599 79.5877 2.66833 78.5848 2.85067C78.1029 3.43677 78.3699 4.16614 78.3113 4.8955Z" fill="#1E1E1E"/>
<path d="M143.264 11.6423C142.717 10.8803 142.613 10.0728 142.541 9.25881C142.385 7.50703 142.346 5.75525 142.391 3.99695C142.398 3.65181 142.45 3.28061 142.58 2.96151C142.795 2.42751 143.316 2.21912 143.805 2.79871C144.124 3.1699 144.306 3.56715 144.267 4.06859C144.254 4.26395 144.345 4.45932 144.378 4.6612C144.495 5.4622 144.645 6.25669 144.716 7.05769C144.807 8.05405 144.775 9.06995 144.918 10.0598C144.97 10.444 144.918 10.7827 144.873 11.1278C144.833 11.4469 144.599 11.6227 144.28 11.6358C143.941 11.6488 143.609 11.6358 143.264 11.6358V11.6423Z" fill="#1E1E1E"/>
<path d="M69.8778 8.71203C69.9234 8.04778 69.9885 7.38354 70.0146 6.7193C70.0406 5.85317 69.9234 4.99356 69.715 4.14698C69.6824 3.9972 69.7085 3.83439 69.715 3.6781C69.715 3.45017 69.6564 3.13759 69.9429 3.092C70.1969 3.04642 70.5681 3.06595 70.7244 3.21573C71.0826 3.56739 71.4342 3.98417 71.6231 4.44003C72.0659 5.48198 72.4241 6.563 72.7953 7.63752C72.8864 7.91103 72.8864 8.2171 72.9255 8.51015C72.9385 8.62086 72.9255 8.75761 72.9776 8.83576C73.1144 9.0181 73.173 9.14834 73.0362 9.38278C72.9451 9.53908 72.9972 9.78654 72.9906 9.99493C72.9776 10.5745 72.652 10.9652 72.0854 11.0173C71.5449 11.0629 71.024 10.9587 70.5421 10.6982C70.3988 10.6201 70.223 10.4964 70.1839 10.3596C70.0276 9.82561 69.9169 9.27208 69.7866 8.72505C69.8192 8.72505 69.8452 8.71203 69.8778 8.70551V8.71203Z" fill="#1E1E1E"/>
<path d="M111.66 8.19095C111.426 7.70254 111.354 7.24668 111.53 6.75827C111.601 6.54988 111.647 6.27637 111.575 6.081C111.406 5.5991 111.217 5.13673 111.256 4.60273C111.263 4.51156 111.067 4.34876 110.944 4.32271C110.722 4.27712 110.462 4.25759 110.253 4.32271C109.368 4.58971 108.449 4.51156 107.57 4.43341C106.906 4.3748 106.177 4.28363 105.675 3.65195C105.428 3.33937 105.285 3.06585 105.376 2.68815C106.978 2.28439 108.612 2.2388 110.253 2.27788C110.416 2.27788 110.579 2.40161 110.748 2.44719C110.872 2.47976 111.009 2.49929 111.139 2.49929C111.211 2.49929 111.302 2.42766 111.347 2.45371C111.712 2.68163 112.148 2.85746 112.402 3.17656C112.741 3.60637 113.015 4.11432 113.008 4.70693C113.002 5.34512 113.028 5.97029 112.748 6.58895C112.585 6.94712 112.598 7.37693 112.481 7.75463C112.37 8.1128 112.096 8.28863 111.667 8.20398L111.66 8.19095Z" fill="#1E1E1E"/>
<path d="M63.3267 4.92814C63.2941 5.28631 63.2615 5.6575 63.2225 6.15894C63.5025 6.45199 63.8737 6.85575 64.0104 7.43533C64.1667 8.09306 64.1016 8.6466 63.5741 9.10897C63.1183 9.51272 62.7601 10.0532 62.1154 10.2095C61.8223 10.2812 61.5293 10.3333 61.2362 10.3984C60.6697 10.5221 60.2659 10.2616 59.9924 9.81228C59.7124 9.34992 59.3347 8.90709 59.6668 8.26889C59.9989 7.62419 60.1617 6.88831 60.546 6.27616C60.8781 5.74867 61.373 5.30585 61.8614 4.88906C62.2717 4.53741 62.7666 4.43972 63.3267 4.92163V4.92814ZM62.8708 8.53589C62.7341 8.07353 62.6233 7.61116 62.454 7.16833C62.3433 6.86877 62.1089 6.89482 61.907 7.16833C61.4902 7.73489 61.2363 8.36658 61.1255 9.16758C61.7507 9.0178 62.3108 8.87453 62.8708 8.53589Z" fill="#1E1E1E"/>
<path d="M190.269 13.4005C190.197 12.847 190.139 12.2869 190.061 11.7334C190.015 11.4208 189.898 11.3817 189.533 11.4338C188.543 11.5706 187.54 11.6227 186.537 11.6227C186.127 11.6227 185.71 11.4273 185.307 11.2775C185.196 11.2385 185.053 11.0366 185.072 10.9389C185.105 10.7956 185.241 10.6068 185.378 10.5677C185.789 10.444 186.212 10.3528 186.635 10.3072C187.84 10.1705 189.045 9.94254 190.262 10.3333C190.953 10.5547 191.448 10.8608 191.552 11.6357C191.663 12.4823 192.014 13.2963 191.943 14.1755C191.884 14.9244 191.604 15.5495 191.037 16.038C190.744 16.2919 190.419 16.1682 190.38 15.7775C190.301 14.9895 190.249 14.195 190.184 13.4005C190.217 13.4005 190.243 13.394 190.275 13.3875L190.269 13.4005Z" fill="#1E1E1E"/>
<path d="M237.391 6.17167C237.326 4.76503 237.261 3.41049 237.196 1.98432C237.053 1.97781 236.831 1.89966 236.668 1.96479C235.965 2.25132 235.236 2.05596 234.526 2.10805C233.992 2.14713 233.816 1.67174 233.523 1.37218C233.484 1.3331 233.555 1.08564 233.627 1.05308C233.914 0.90981 234.22 0.733981 234.526 0.720957C235.587 0.681883 236.655 0.70142 237.717 0.707932C238.153 0.707932 238.661 1.09215 238.811 1.52847C239.006 2.10805 239.189 2.68113 239.136 3.31281C239.11 3.61237 239.189 3.91845 239.241 4.21801C239.312 4.64781 239.189 5.02552 238.935 5.35113C238.583 5.80047 238.14 6.13259 237.385 6.17818L237.391 6.17167Z" fill="#1E1E1E"/>
<path d="M172.217 13.1595C172.276 12.8078 172.269 12.4236 172.412 12.1045C172.829 11.1797 173.259 10.255 173.975 9.51262C174.405 9.06979 174.841 9.03723 175.356 9.2912C175.792 9.50611 175.727 9.93591 175.825 10.2811C175.929 10.6457 176.001 11.0365 175.968 11.4077C175.929 11.8765 175.903 12.4431 175.636 12.7817C175.03 13.5502 174.392 14.3707 173.279 14.4619C172.888 14.4945 172.556 14.2861 172.412 13.8953C172.36 13.7521 172.295 13.6218 172.256 13.4785C172.23 13.3809 172.256 13.2702 172.256 13.166C172.243 13.166 172.23 13.166 172.224 13.166L172.217 13.1595ZM174.522 11.5184C174.464 11.5054 174.412 11.4858 174.353 11.4728C174.177 11.9286 174.001 12.391 173.813 12.8859C174.666 12.8143 174.705 12.7231 174.516 11.5184H174.522Z" fill="#1E1E1E"/>
<path d="M220.993 9.2847C222.276 9.2326 223.468 8.75721 224.705 9.20004C224.438 9.66241 224.028 9.90336 223.54 10.1443C222.621 10.5937 221.664 10.7174 220.687 10.8867C219.99 11.0104 219.307 11.0104 218.616 11.0104C217.894 11.0104 217.711 10.8151 217.711 10.0857C217.711 9.95546 217.724 9.83173 217.731 9.61682C218.356 9.48658 218.994 9.34982 219.684 9.20656C219.756 8.68558 219.828 8.07995 219.912 7.48082C219.951 7.20731 219.997 6.92729 220.062 6.66029C220.192 6.10675 220.244 6.08721 220.778 6.31514C220.844 6.34119 220.915 6.36724 221 6.3998V9.29121L220.993 9.2847Z" fill="#1E1E1E"/>
<path d="M245.069 4.08793C245.036 3.08505 245.583 2.39476 246.059 1.69144C246.274 1.36583 246.593 1.09883 246.899 0.844854C247.179 0.616927 247.55 0.649488 247.804 0.86439C248.078 1.09883 248.156 1.46351 248.481 1.69795C248.735 1.88681 248.833 2.36871 248.872 2.73339C248.937 3.2739 248.8 3.81442 248.559 4.31585C248.292 4.88242 247.784 4.99964 247.244 5.07127C247.023 5.10383 246.795 5.16244 246.58 5.23407C245.557 5.57922 245.082 5.23407 245.069 4.15956C245.069 4.10746 245.069 4.05537 245.069 4.0749V4.08793ZM247.153 2.40778C246.866 2.92876 246.567 3.48229 246.241 4.06839C247.049 4.14654 247.413 4.00327 247.602 3.57998C247.648 3.47578 247.706 3.30646 247.661 3.25437C247.459 3.0069 247.745 2.53151 247.153 2.40778Z" fill="#1E1E1E"/>
<path d="M222.257 8.37958C221.964 7.78046 222.133 7.20738 222.1 6.65385C222.068 6.08729 222.094 5.52724 222.094 4.88904C221.56 4.96068 221.117 5.03882 220.668 5.0779C220.362 5.10394 220.043 5.0779 219.73 5.0779C218.675 5.0779 218.61 5.00626 218.695 3.84058C219.867 3.43682 221.052 3.18285 222.322 3.47589C222.628 3.54753 222.941 3.56055 223.123 3.8536C223.37 4.26387 223.676 4.6546 223.676 5.16907C223.676 5.69004 223.689 6.2045 223.676 6.72548C223.65 7.39624 223.123 8.02141 222.257 8.37307V8.37958Z" fill="#1E1E1E"/>
<path d="M245.492 15.1133C244.978 15.3543 244.45 15.2566 243.949 15.2175C243.584 15.1915 243.428 14.8072 243.376 14.5012C243.271 13.8955 243.226 13.2834 243.193 12.6647C243.167 12.2219 243.213 11.7791 243.193 11.3362C243.167 10.7111 243.317 10.125 243.512 9.54539C243.675 9.05698 244.138 8.94627 244.424 9.36305C244.704 9.77332 244.965 10.2422 245.069 10.7176C245.284 11.7335 245.349 12.782 245.57 13.7979C245.674 14.2732 245.531 14.664 245.499 15.1068L245.492 15.1133Z" fill="#1E1E1E"/>
<path d="M211.967 12.437C211.902 12.8863 211.863 13.3487 211.752 13.785C211.707 13.9608 211.531 14.1236 211.381 14.2474C210.802 14.7228 210.092 14.9116 209.382 15.0614C208.75 15.1982 208.249 14.8074 208.197 14.0976C208.171 13.7069 208.236 13.2706 208.405 12.9254C208.841 12.0332 209.343 11.1671 210.157 10.5485C210.352 10.3987 210.593 10.2815 210.834 10.2489C211.056 10.2163 211.407 10.2294 211.166 10.6592C211.147 10.6982 211.199 10.8155 211.251 10.848C211.811 11.2322 212.026 11.7662 211.974 12.4305L211.967 12.437ZM210.372 12.0528C209.747 12.5347 209.747 13.2901 209.323 14.0716C209.838 13.9543 210.183 13.8762 210.522 13.798C210.456 13.4334 210.398 13.1664 210.372 12.8994C210.346 12.6193 210.372 12.3393 210.372 12.0593V12.0528Z" fill="#1E1E1E"/>
<path d="M53.3107 15.6994C52.3729 15.7124 51.891 15.0872 52.0213 14.3513C52.0864 13.9801 52.1059 13.5959 52.1776 13.2182C52.3664 12.2349 52.9004 11.4404 53.6298 10.7761C53.9945 10.4375 54.5806 10.5743 54.6913 11.0562C54.7499 11.2971 54.802 11.4339 55.0234 11.5771C55.5118 11.8962 55.7528 12.4237 55.9156 12.9773C56.0523 13.4657 55.4662 14.5532 54.9974 14.7616C54.8215 14.8398 54.6717 14.97 54.5024 15.0612C54.0466 15.3086 53.5842 15.5431 53.3042 15.6929L53.3107 15.6994ZM52.8093 14.4295C53.6168 14.449 53.9228 14.2992 54.3787 13.9411C54.7108 13.6806 54.7173 13.4071 54.5545 13.1075C54.3852 12.7949 54.1573 12.5084 53.8903 12.1177C53.4605 12.9382 52.9004 13.5308 52.8027 14.4295H52.8093Z" fill="#1E1E1E"/>
<path d="M83.6703 14.1624C83.5205 14.2666 83.3838 14.4099 83.221 14.462C82.1269 14.8266 81.0263 15.1783 79.9258 15.5169C79.7565 15.569 79.5676 15.543 79.3853 15.5625C79.0076 15.6016 78.6233 15.6276 78.2522 15.6993C77.1711 15.9011 76.4092 15.3411 76.2855 14.2275C76.2203 13.6479 76.1552 13.0618 76.1227 12.4757C76.0966 12.0329 76.3571 11.0365 76.5264 10.7305C77.0778 10.7001 77.3556 10.954 77.36 11.4924C77.36 12.0915 77.3404 12.6906 77.373 13.2832C77.386 13.6349 77.4446 13.9996 77.5488 14.3317C77.5879 14.4554 77.8223 14.5987 77.9591 14.5922C78.4671 14.5661 78.9685 14.4815 79.4699 14.4164C79.7434 14.3838 80.017 14.3317 80.2905 14.2991C80.9938 14.208 81.7036 14.1038 82.4069 14.0321C82.7846 13.9931 83.1689 14.0321 83.5531 14.0321L83.6573 14.1624H83.6703Z" fill="#1E1E1E"/>
<path d="M65.5732 14.6899C66.537 14.5467 67.3054 14.3708 68.0869 14.3383C68.8358 14.3057 69.5717 13.9671 70.3466 14.2276C68.9856 15.6147 67.3445 16.2073 65.4755 16.1877C65.3518 15.9728 65.2736 15.784 65.1499 15.6277C64.655 14.9895 64.5638 14.2211 64.5768 13.4722C64.5768 12.873 64.7527 12.2739 64.8764 11.6813C64.922 11.4729 65.0457 11.271 65.1694 11.0887C65.2411 10.9845 65.4234 10.8608 65.5081 10.8868C65.6253 10.9194 65.7751 11.0887 65.7816 11.2059C65.8076 11.6943 65.8076 12.1958 65.7816 12.6842C65.7425 13.2898 65.6579 13.8955 65.5667 14.6899H65.5732Z" fill="#1E1E1E"/>
<path d="M150.342 2.10164C151.124 2.87659 150.994 3.76876 150.968 4.63489C150.968 4.79118 150.844 5.00608 150.714 5.08423C149.971 5.54008 149.216 5.99593 148.311 6.01547C147.666 6.02849 147.132 5.29913 147.262 4.66093C147.471 3.61898 147.952 2.75286 148.727 2.01047C148.968 1.77603 149.203 1.7044 149.366 1.87371C149.672 2.19932 150.036 2.06908 150.349 2.10815L150.342 2.10164ZM148.389 4.95398C148.897 5.22749 149.196 4.88235 149.62 4.84328C149.535 4.27671 149.457 3.76225 149.385 3.2543C149.34 3.24127 149.294 3.22825 149.248 3.22174C148.968 3.79481 148.682 4.36789 148.395 4.96049L148.389 4.95398Z" fill="#1E1E1E"/>
<path d="M237.398 15.0025C236.642 15.3477 235.887 15.6798 235.144 16.0445C234.636 16.2919 234.239 16.2203 233.835 15.8231C233.419 15.4193 233.412 14.9374 233.575 14.475C233.822 13.7978 234.161 13.1531 234.662 12.6126C234.786 12.4823 234.916 12.3521 235.021 12.2088C235.678 11.3036 236.017 11.1994 236.974 11.6683C237.092 11.7269 237.183 11.8767 237.254 12.0004C237.717 12.7819 237.678 13.5959 237.385 14.4229C237.339 14.5532 237.326 14.703 237.293 14.8397L237.398 15.0156V15.0025ZM234.435 15.2109C235.105 15.2826 235.646 14.9309 236.232 14.7681C236.264 14.7551 236.304 14.6899 236.31 14.6444C236.427 13.902 236.688 13.1531 236.206 12.4432C235.581 12.6126 235.053 13.4331 234.435 15.2109Z" fill="#1E1E1E"/>
<path d="M120.972 2.74025C120.972 2.97469 120.914 3.22867 120.985 3.43706C121.116 3.84081 121.005 4.04269 120.601 4.13386C120.184 4.22503 119.768 4.3162 119.37 4.46598C118.967 4.61576 118.556 4.77857 118.224 4.42691C117.86 4.03618 117.677 3.47613 117.892 3.00074C118.244 2.25184 118.745 1.56806 119.182 0.858226C119.37 0.552152 119.663 0.519591 119.989 0.526104C120.354 0.539128 120.367 0.845201 120.536 1.03405C121.018 1.55503 120.966 2.14113 120.966 2.74676L120.972 2.74025ZM119.82 2.45371L119.67 2.40162C119.488 2.75327 119.305 3.10493 119.123 3.45659H120.009C119.937 3.0854 119.878 2.7663 119.82 2.45371Z" fill="#1E1E1E"/>
<path d="M152.934 10.0988H153.611C153.618 10.3853 153.703 10.6849 153.624 10.9258C153.351 11.7659 153.52 12.619 153.488 13.4656C153.468 13.9084 153.696 14.1494 154.139 14.1233C154.979 14.0712 155.813 13.954 156.653 13.8694C156.939 13.8433 157.232 13.8303 157.519 13.8173L157.577 13.9801C157.421 14.1298 157.291 14.3447 157.102 14.4294C156.555 14.6769 155.988 14.8722 155.428 15.0871C154.699 15.3607 153.944 15.289 153.214 15.1588C152.615 15.0481 152.257 14.3382 152.224 13.5177C152.179 12.4823 152.504 11.5185 152.765 10.5481C152.804 10.4049 152.863 10.2681 152.928 10.0923L152.934 10.0988Z" fill="#1E1E1E"/>
<path d="M105.643 8.9524C105.701 8.07977 105.753 7.34389 105.812 6.6015C105.818 6.50382 105.844 6.39962 105.884 6.30845C105.975 6.09355 106.138 5.95028 106.365 6.02843C106.509 6.07401 106.698 6.21077 106.73 6.34101C106.919 7.07038 107.062 7.81277 107.225 8.55516C107.264 8.72448 107.297 8.90031 107.355 9.06311C107.609 9.75992 107.531 10.4828 107.531 11.1991C107.531 11.5964 107.199 11.7722 106.925 11.935C106.808 12.0001 106.509 11.9545 106.437 11.8568C106.196 11.5377 105.923 11.1861 105.838 10.8084C105.701 10.1637 105.695 9.49292 105.643 8.95892V8.9524Z" fill="#1E1E1E"/>
</svg>
