<svg width="828" height="54" viewBox="0 0 828 54" fill="none" xmlns="http://www.w3.org/2000/svg">
<path fill-rule="evenodd" clip-rule="evenodd" d="M615.37 11.09V0H624.25V52.69H615.37V39.38H610.08V40.4C610.08 47 604.56 51.72 597.96 51.72C591.36 51.72 585.84 47 585.84 40.4V12.06C585.84 5.46 591.36 0.790001 597.96 0.790001C604.22 0.790001 609.51 5 610.02 11.09H615.37ZM601.43 12.35C601.43 10.64 599.84 9.45 598.13 9.45C596.42 9.45 594.77 10.64 594.77 12.35V40.12C594.77 41.83 596.42 43.08 598.13 43.08C599.84 43.08 601.43 41.83 601.43 40.12V12.35ZM615.37 30.62V19.87H610.08V30.62H615.37Z" fill="#A01857"/>
<path d="M627.26 0.0100021H636.36V52.7H627.26V0.0100021Z" fill="#A01857"/>
<path fill-rule="evenodd" clip-rule="evenodd" d="M558.93 24.5903V28.9103H529V0.92025H558.93V4.50025H568.03V0.0102539H578.9V31.0803H568.03V24.5903H558.93ZM548.69 21.0602V8.77026H539.41V21.0602H548.69ZM568.04 12.2402H558.94V16.9103H568.04V12.2402Z" fill="#A01857"/>
<path fill-rule="evenodd" clip-rule="evenodd" d="M568.38 32.3303C574.64 32.3303 579.53 36.6003 579.53 42.6303C579.53 48.6603 574.64 52.9903 568.38 52.9903H541.8C535.65 52.9903 530.76 48.5503 530.76 42.6303C530.76 36.7103 535.65 32.3303 541.8 32.3303H568.38ZM565.48 45.0703C567.53 45.0703 568.72 44.1603 568.72 42.6203C568.72 41.0803 567.52 40.1702 565.48 40.1702H544.65C542.83 40.1702 541.58 41.1403 541.58 42.6203C541.58 44.1003 542.83 45.0703 544.65 45.0703H565.48Z" fill="#A01857"/>
<path d="M641.6 42.23V51.51L679.72 49.18V39.9L641.6 42.23Z" fill="#A01857"/>
<path fill-rule="evenodd" clip-rule="evenodd" d="M643.65 14.17V19.75C643.65 29.08 650.76 33.58 659.58 33.58C668.4 33.58 675.63 29.08 675.63 19.75V14.17C675.63 4.84 668.34 0.0599976 659.58 0.0599976C650.82 0.0599976 643.65 4.84 643.65 14.17ZM665.39 13.6V20.2C665.39 23.27 662.72 25.15 659.59 25.15C656.46 25.15 653.96 23.27 653.96 20.2V13.6C653.96 10.53 656.35 8.54 659.59 8.54C662.83 8.54 665.39 10.53 665.39 13.6Z" fill="#A01857"/>
<path d="M681.55 0V52.69H692.53V0H681.55Z" fill="#A01857"/>
<path d="M716.02 24.0803C722.68 23.1103 727.86 19.2403 727.86 11.6803V9.69025H716.59V0.980255H749.02V9.69025H737.75V12.0803C737.86 19.3103 743.04 23.1203 749.59 24.0903V32.9703C742.08 31.8903 735.99 29.2103 732.8 23.8703C729.56 29.2203 723.47 31.8903 716.01 32.9703V24.0903L716.02 24.0803Z" fill="#A01857"/>
<path d="M719.32 52.7002V34.7803H730.24V44.1702H767.45V52.7103H719.31L719.32 52.7002Z" fill="#A01857"/>
<path d="M744.98 20.3803V12.5303H755.68V0.0102539H766.55V39.1003H755.68V20.3803H744.98Z" fill="#A01857"/>
<path d="M773.77 0.919998V29.37L807.74 26.92V18.22L784.58 20.04V9.46H803.7V0.919998H773.77Z" fill="#A01857"/>
<path fill-rule="evenodd" clip-rule="evenodd" d="M811.609 31.36H786.57C780.36 31.36 775.47 35.97 775.47 42.17C775.47 48.37 780.37 52.98 786.57 52.98H811.609C817.98 52.98 822.82 48.49 822.82 42.17C822.82 35.85 817.98 31.36 811.609 31.36ZM811.95 42.17C811.95 43.93 810.53 44.73 808.48 44.73H789.65C787.83 44.73 786.41 43.93 786.41 42.17C786.41 40.24 787.83 39.5 789.65 39.5H808.48C810.53 39.5 811.95 40.24 811.95 42.17Z" fill="#A01857"/>
<path d="M810.76 0V30.16H821.57V18.61H828V9.62H821.57V0H810.76Z" fill="#A01857"/>
<path d="M10.1 29.68C10.1 28.36 9.32 27.36 7.9 27.36C6.48 27.36 5.67 28.36 5.67 29.68V31.91H0.28V29.68C0.28 25.35 3.48 23 7.9 23C12.32 23 15.74 25.35 15.74 29.68V31.03C15.74 34.79 14.11 36.68 10.56 40.35C10.0194 40.9105 9.53428 41.4059 9.10033 41.849C6.69275 44.3077 5.86 45.1581 5.86 46.59V47.59H15.8V51.95H0V46.59C0 44.21 0.5 42.42 5.83 37.71C9.37 34.6 10.1 33.13 10.1 31.03V29.68Z" fill="black"/>
<path fill-rule="evenodd" clip-rule="evenodd" d="M18.0703 29.68C18.0703 25.35 21.5803 23 25.9403 23C30.3003 23 33.8103 25.35 33.8103 29.68V46.02C33.8103 50.35 30.3003 52.7 25.9403 52.7C21.5803 52.7 18.0703 50.35 18.0703 46.02V29.68ZM23.4703 46.02C23.4703 47.34 24.5403 48.34 25.9503 48.34C27.3603 48.34 28.4303 47.34 28.4303 46.02V29.68C28.4303 28.36 27.3603 27.36 25.9503 27.36C24.5403 27.36 23.4703 28.36 23.4703 29.68V46.02Z" fill="black"/>
<path d="M44.0304 27.36C45.4504 27.36 46.2304 28.36 46.2304 29.68H46.2104V31.03C46.2104 33.13 45.4804 34.6 41.9404 37.71C36.6104 42.42 36.1104 44.21 36.1104 46.59V51.95H51.9204V47.59H41.9804V46.59C41.9804 45.1581 42.8131 44.3077 45.2207 41.849C45.6546 41.4059 46.1397 40.9105 46.6804 40.35C50.2304 36.68 51.8604 34.79 51.8604 31.03V29.68C51.8604 25.35 48.4404 23 44.0204 23C39.6003 23 36.4004 25.35 36.4004 29.68V31.91H41.8004V29.68C41.8004 28.36 42.6104 27.36 44.0304 27.36Z" fill="black"/>
<path fill-rule="evenodd" clip-rule="evenodd" d="M60.6296 23.6299H68.5696V43.3299H70.8896V47.9099H68.5696V52.0799H63.4296V47.9099H53.1396V43.3299L60.6296 23.6299ZM63.3896 43.3299V29.6199L58.3096 43.3299H63.3896Z" fill="black"/>
<path d="M73.1504 23.6901V42.1401L92.1604 41.2901V36.5201L79.1104 37.0501V23.6901H73.1504Z" fill="black"/>
<path d="M74.5304 43.7001V52.3901H100.94V47.6801H80.5504V43.7001H74.5304Z" fill="black"/>
<path d="M94.4804 35.2601V44.6501H100.47V23.3501H94.4804V25.7001H86.8304V29.6501H94.4804V31.2801H86.8304V35.2601H94.4804Z" fill="black"/>
<path d="M113.42 34.9201C117.53 33.7001 119.69 30.9001 119.69 26.9201V23.5301H125.59V26.9201C125.59 30.9001 127.75 33.4101 131.86 34.6401V39.9401C127.69 39.0301 124.46 37.1801 122.67 34.5801C120.88 37.2501 117.62 39.1301 113.42 40.1001V34.9201Z" fill="black"/>
<path fill-rule="evenodd" clip-rule="evenodd" d="M120.98 41.1601H135.53C138.98 41.1601 141.68 43.5101 141.68 46.8401C141.68 50.1701 138.98 52.5501 135.53 52.5501H120.98C117.59 52.5501 114.89 50.1001 114.89 46.8401C114.89 43.5801 117.59 41.1601 120.98 41.1601ZM133.84 48.1901C134.94 48.1901 135.72 47.7801 135.72 46.8401C135.72 45.8401 134.94 45.4901 133.84 45.4901H122.67C121.67 45.4901 120.85 45.8401 120.85 46.8401C120.85 47.7801 121.67 48.1901 122.67 48.1901H133.84Z" fill="black"/>
<path d="M129.1 27.3601H135.31V23.3501H141.27V40.4801H135.31V32.1401H129.1V27.3601Z" fill="black"/>
<path fill-rule="evenodd" clip-rule="evenodd" d="M145.16 30.4101V33.7301C145.16 38.2501 149.11 40.7601 153.91 40.7601C158.71 40.7601 162.63 38.2501 162.63 33.7301V30.4101C162.63 25.8301 158.74 23.3501 153.91 23.3501C149.08 23.3501 145.16 25.8301 145.16 30.4101ZM156.8 30.1501V34.0401C156.8 35.4501 155.58 36.3301 153.91 36.3301C152.24 36.3301 151.02 35.4501 151.02 34.0401V30.1501C151.02 28.7001 152.31 27.7301 153.91 27.7301C155.51 27.7301 156.8 28.7101 156.8 30.1501Z" fill="black"/>
<path d="M146.57 42.4801V52.4001H173.17V47.6901H152.59V42.4801H146.57Z" fill="black"/>
<path d="M166.59 23.3501V44.4601H172.68V23.3501H166.59Z" fill="black"/>
<path d="M187.45 45.3002V40.9102H175.81V36.3602H204.58V40.9102H193.19V45.3002H187.45Z" fill="black"/>
<path fill-rule="evenodd" clip-rule="evenodd" d="M177.1 23.4102H203.26V34.5802H177.1V23.4102ZM182.87 30.5902H197.52V27.3902H182.87V30.5902Z" fill="black"/>
<path d="M177.1 52.3902V42.4802H183V48.0902H203.73V52.3902H177.1Z" fill="black"/>
<path d="M207.52 26.7V31.28H221.95V26.7H217.37V23H212.1V26.7H207.52Z" fill="black"/>
<path fill-rule="evenodd" clip-rule="evenodd" d="M214.74 32.28C211.07 32.28 207.9 34.85 207.9 38.49V45.67C207.9 49.31 211.07 51.85 214.74 51.85C218.41 51.85 221.61 49.31 221.61 45.67V38.49C221.61 34.85 218.41 32.28 214.74 32.28ZM216.87 38.74V45.39C216.87 46.51 215.9 47.33 214.77 47.33C213.64 47.33 212.67 46.52 212.67 45.39V38.74C212.67 37.58 213.61 36.8 214.77 36.8C215.93 36.8 216.87 37.58 216.87 38.74Z" fill="black"/>
<path d="M223.71 23.35V52.4H228.6V39.38H230.73V52.4H235.75V23.35H230.73V34.27H228.6V23.35H223.71Z" fill="black"/>
<path d="M238.54 51.8601V46.8101H243.34V35.5801H248.52V46.8101H251.72V35.5801H256.86V46.8101H267.31V51.8601H238.54Z" fill="black"/>
<path d="M259.18 45.3001L260.21 28.4601H239.66V23.8501H266.14L264.76 45.3101H259.18V45.3001Z" fill="black"/>
<path d="M298.67 40.38H298.68L298.67 40.39V40.38Z" fill="black"/>
<path fill-rule="evenodd" clip-rule="evenodd" d="M298.67 40.38H292.97V43.11H297.36V52.71H291.49V47.35H271.04V43.12H275.21L275.77 40.39H269.9V35.87H298.67V40.38ZM287.45 43.11H280.73L281.33 40.38H287.45V43.11Z" fill="black"/>
<path fill-rule="evenodd" clip-rule="evenodd" d="M270.89 28.81C270.89 31.94 273.24 34.39 276.16 34.39H292.38C295.26 34.39 297.68 31.91 297.68 28.81C297.68 25.71 295.27 23.23 292.38 23.23H276.16C273.24 23.23 270.89 25.68 270.89 28.81ZM276.48 28.74C276.48 28.05 277.01 27.58 277.67 27.58H290.88C291.54 27.58 292.04 28.08 292.04 28.74C292.04 29.4 291.54 29.9 290.88 29.9H277.67C277.01 29.9 276.48 29.43 276.48 28.74Z" fill="black"/>
<path d="M311.61 45.85C314.62 44.53 318.45 41.11 318.51 32.24V30.23H312.05V25.02H330.62V30.23H324.16V32.24C324.22 41.12 328.05 44.54 331.06 45.85V52C327.23 50.78 323.44 47.95 321.34 43.47C319.27 47.92 315.44 50.78 311.62 52V45.85H311.61Z" fill="black"/>
<path d="M333.41 53.03V23.98H339.5V53.03H333.41Z" fill="black"/>
<path d="M371.39 48.8002H350.49V45.2602H354.13L355.13 39.5502H363.98V35.2502H342.62V39.5502H349.58L348.83 43.8202H344.85V53.0402H371.39V48.8002Z" fill="black"/>
<path fill-rule="evenodd" clip-rule="evenodd" d="M343.56 29.2302C343.56 31.8902 345.63 34.0902 348.52 34.0902H357.11C359.97 34.0902 362.1 31.9602 362.1 29.2302C362.1 26.5002 359.96 24.3002 357.11 24.3002H348.52C345.63 24.3002 343.56 26.5702 343.56 29.2302ZM348.96 29.2902C348.96 28.6302 349.49 28.1002 350.12 28.1002H355.58C356.21 28.1002 356.77 28.6302 356.77 29.2902C356.77 29.8902 356.21 30.4202 355.58 30.4202H350.12C349.49 30.4202 348.96 29.8902 348.96 29.2902Z" fill="black"/>
<path d="M356.77 40.9602V44.8802H364.96V46.7902H370.92V23.9902H364.96V40.9602H356.77Z" fill="black"/>
<path d="M374.34 45.3202C377.7 43.1202 380.83 39.7102 380.83 30.8302V24.6502H386.73V30.8302C386.73 39.7102 389.87 43.1302 393.22 45.3202V52.0002C389.27 50.2702 385.72 47.0402 383.78 42.8102C381.84 47.0502 378.26 50.2802 374.34 52.0002V45.3202Z" fill="black"/>
<path d="M395.33 53.0302V23.9902H401.29V34.7802H404.77V40.1402H401.29V53.0302H395.33Z" fill="black"/>
<path fill-rule="evenodd" clip-rule="evenodd" d="M433.69 23.9902H427.7V29.1802H422.52C421.68 25.7602 418.35 24.0002 414.43 24.0002C409.85 24.0002 406.15 26.3502 406.15 30.9002V32.3402C406.15 36.8902 409.85 39.2102 414.43 39.2102C418.38 39.2102 421.7 37.4502 422.52 34.0302H427.7V39.5502H433.69V23.9902ZM414.47 28.1602C416.07 28.1602 417.32 29.0402 417.32 30.5102V32.6702C417.32 34.1402 416.07 35.0202 414.47 35.0202C412.87 35.0202 411.65 34.1402 411.65 32.6702V30.5102C411.65 29.0402 412.87 28.1602 414.47 28.1602Z" fill="black"/>
<path fill-rule="evenodd" clip-rule="evenodd" d="M427.7 40.3002V42.2102H413.46V40.3002H407.5V53.0402L427.7 52.1602V53.0402H433.69V40.3002H427.7ZM427.7 46.3202V47.9502L413.46 48.4802V46.3202H427.7Z" fill="black"/>
<path d="M446.55 36.16C450.22 35.85 453.07 33.71 453.07 29.35V29.07H446.86V24.52H464.74V29.07H458.53V29.35C458.56 33.71 461.42 35.84 465.05 36.16V40.87C460.97 40.68 457.58 39.27 455.8 36.29C453.95 39.27 450.59 40.68 446.55 40.87V36.16Z" fill="black"/>
<path fill-rule="evenodd" clip-rule="evenodd" d="M454.11 41.93H468.66C472.11 41.93 474.81 44.22 474.81 47.54C474.81 50.86 472.11 53.19 468.66 53.19H454.11C450.72 53.19 448.02 50.81 448.02 47.54C448.02 44.27 450.72 41.93 454.11 41.93ZM467.07 48.89C468.2 48.89 468.86 48.36 468.86 47.54C468.86 46.66 468.2 46.19 467.07 46.19H455.68C454.68 46.19 453.99 46.66 453.99 47.54C453.99 48.36 454.68 48.89 455.68 48.89H467.07Z" fill="black"/>
<path d="M463.4 34.67V30.32H468.42V23.98H474.41V41.23H468.42V34.67H463.4Z" fill="black"/>
<path d="M482.78 30.2901C482.75 34.2101 479.8 35.7201 477.89 36.2201H477.88V41.2401C480.7 40.6401 483.68 39.2001 485.31 36.5001C486.98 39.2001 489.96 40.6401 492.78 41.2401V36.2201C490.9 35.7501 487.89 34.2101 487.89 30.2901V30.2301H492.47V25.6501H487.89V23.3301H482.78V25.6501H478.2V30.2301H482.78V30.2901Z" fill="black"/>
<path d="M479.33 42.6801V47.2601H500.1V53.3501H506.15V42.6801H479.33Z" fill="black"/>
<path d="M494.1 23.9801V41.7701H499.03V34.9301H501.13V41.7701H506.15V23.9801H501.13V30.1001H499.03V23.9801H494.1Z" fill="black"/>
</svg>
