<svg width="834" height="44" viewBox="0 0 834 44" fill="none" xmlns="http://www.w3.org/2000/svg">
<path d="M10.15 18.1001C10.15 16.7801 9.36 15.7701 7.94 15.7701C6.52 15.7701 5.7 16.7801 5.7 18.1001V20.3401H0.28V18.1001C0.28 13.7501 3.5 11.3901 7.94 11.3901C12.38 11.3901 15.82 13.7501 15.82 18.1001V19.4601C15.82 23.2401 14.18 25.1301 10.62 28.8201C7.06 32.5101 5.89 33.3901 5.89 35.0901V36.1001H15.88V40.4801H0V35.0901C0 32.6901 0.5 30.9001 5.86 26.1701C9.42 23.0501 10.15 21.5701 10.15 19.4601V18.1001Z" fill="black"/>
<path d="M18.1599 18.1001C18.1599 13.7501 21.6899 11.3901 26.0699 11.3901C30.4499 11.3901 33.9799 13.7501 33.9799 18.1001V34.5201C33.9799 38.8701 30.4499 41.2301 26.0699 41.2301C21.6899 41.2301 18.1599 38.8701 18.1599 34.5201V18.1001ZM23.5799 34.5201C23.5799 35.8401 24.6499 36.8501 26.0699 36.8501C27.4899 36.8501 28.5599 35.8401 28.5599 34.5201V18.1001C28.5599 16.7801 27.4899 15.7701 26.0699 15.7701C24.6499 15.7701 23.5799 16.7801 23.5799 18.1001V34.5201Z" fill="black"/>
<path d="M46.46 18.1001C46.46 16.7801 45.67 15.7701 44.25 15.7701C42.83 15.7701 42.01 16.7801 42.01 18.1001V20.3401H36.59V18.1001C36.59 13.7501 39.81 11.3901 44.25 11.3901C48.6901 11.3901 52.1301 13.7501 52.1301 18.1001V19.4601C52.1301 23.2401 50.49 25.1301 46.93 28.8201C43.37 32.5101 42.2001 33.3901 42.2001 35.0901V36.1001H52.19V40.4801H36.3V35.0901C36.3 32.6901 36.8 30.9001 42.16 26.1701C45.72 23.0501 46.4501 21.5701 46.4501 19.4601V18.1001H46.46Z" fill="black"/>
<path d="M60.9299 12.0098H68.9099V31.8098H71.2399V36.4098H68.9099V40.5998H63.7399V36.4098H53.3999V31.8098L60.9299 12.0098ZM63.6999 31.8098V18.0298L58.5899 31.8098H63.6999Z" fill="black"/>
<path d="M73.51 30.61V12.07H79.5V25.5L92.62 24.96V29.75L73.52 30.6L73.51 30.61ZM74.9 40.92V32.19H80.95V36.19H101.44V40.92H74.9ZM94.95 33.13V23.7H87.26V19.7H94.95V18.06H87.26V14.09H94.95V11.73H100.97V33.14H94.95V33.13Z" fill="black"/>
<path d="M113.98 23.3602C118.11 22.1302 120.28 19.3202 120.28 15.3202V11.9202H126.21V15.3202C126.21 19.3202 128.38 21.8502 132.51 23.0702V28.4002C128.32 27.4902 125.07 25.6302 123.27 23.0102C121.47 25.6902 118.19 27.5802 113.97 28.5602V23.3602H113.98ZM121.58 29.6302H136.21C139.68 29.6302 142.39 31.9902 142.39 35.3402C142.39 38.6902 139.68 41.0802 136.21 41.0802H121.58C118.18 41.0802 115.46 38.6202 115.46 35.3402C115.46 32.0602 118.17 29.6302 121.58 29.6302ZM134.51 36.6902C135.61 36.6902 136.4 36.2802 136.4 35.3302C136.4 34.3202 135.61 33.9702 134.51 33.9702H123.29C122.28 33.9702 121.46 34.3202 121.46 35.3302C121.46 36.2802 122.28 36.6902 123.29 36.6902H134.51ZM129.75 20.5502V15.7602H135.99V11.7202H141.98V28.9302H135.99V20.5402H129.75V20.5502Z" fill="black"/>
<path d="M145.89 22.16V18.82C145.89 14.22 149.83 11.73 154.68 11.73C159.53 11.73 163.44 14.22 163.44 18.82V22.16C163.44 26.7 159.5 29.22 154.68 29.22C149.86 29.22 145.89 26.7 145.89 22.16ZM147.31 40.92V30.96H153.36V36.19H174.04V40.92H147.31ZM157.59 22.48V18.57C157.59 17.12 156.3 16.14 154.69 16.14C153.08 16.14 151.79 17.12 151.79 18.57V22.48C151.79 23.9 153.02 24.78 154.69 24.78C156.36 24.78 157.59 23.9 157.59 22.48ZM167.43 32.95V11.73H173.55V32.95H167.43Z" fill="black"/>
<path d="M188.38 33.79V29.38H176.68V24.81H205.59V29.38H194.15V33.79H188.38ZM177.98 23.01V11.79H204.27V23.01H177.98ZM177.98 40.92V30.96H183.91V36.6H204.75V40.92H177.99H177.98ZM183.78 19.01H198.5V15.79H183.78V19.01Z" fill="black"/>
<path d="M208.55 19.6999V15.0999H213.15V11.3799H218.45V15.0999H223.05V19.6999H208.55ZM208.93 26.9499C208.93 23.2899 212.11 20.7099 215.8 20.7099C219.49 20.7099 222.7 23.2899 222.7 26.9499V34.1699C222.7 37.8299 219.49 40.3799 215.8 40.3799C212.11 40.3799 208.93 37.8299 208.93 34.1699V26.9499ZM217.95 33.8899V27.2099C217.95 26.0399 217 25.2599 215.84 25.2599C214.68 25.2599 213.73 26.0499 213.73 27.2099V33.8899C213.73 35.0199 214.71 35.8399 215.84 35.8399C216.97 35.8399 217.95 35.0199 217.95 33.8899ZM224.82 40.9199V11.7299H229.74V22.6999H231.88V11.7299H236.92V40.9199H231.88V27.8399H229.74V40.9199H224.82Z" fill="black"/>
<path d="M239.73 40.38V35.3H244.55V24.01H249.75V35.3H252.97V24.01H258.14V35.3H268.64V40.38H239.73ZM260.47 33.79L261.51 16.86H240.86V12.23H267.47L266.08 33.79H260.47Z" fill="black"/>
<path d="M300.16 28.8499H294.42V31.5899H298.83V41.2399H292.93V35.8499H272.38V31.5899H276.57L277.14 28.8499H271.24V24.3099H300.15V28.8499H300.16ZM277.53 22.8299C274.6 22.8299 272.23 20.3699 272.23 17.2199C272.23 14.0699 274.59 11.6099 277.53 11.6099H293.83C296.73 11.6099 299.16 14.0999 299.16 17.2199C299.16 20.3399 296.73 22.8299 293.83 22.8299H277.53ZM279.04 15.9899C278.38 15.9899 277.84 16.4599 277.84 17.1599C277.84 17.8599 278.38 18.3299 279.04 18.3299H292.31C292.97 18.3299 293.48 17.8299 293.48 17.1599C293.48 16.4899 292.98 15.9899 292.31 15.9899H279.04ZM282.13 31.5899H288.88V28.8499H282.73L282.13 31.5899Z" fill="black"/>
<path d="M312.51 33.7C315.54 32.38 319.38 28.94 319.44 20.02V18H312.95V12.77H331.61V18H325.12V20.02C325.18 28.94 329.03 32.38 332.06 33.7V39.88C328.21 38.65 324.4 35.81 322.29 31.31C320.21 35.79 316.36 38.65 312.52 39.88V33.7H312.51ZM334.42 40.92V11.73H340.54V40.92H334.42Z" fill="black"/>
<path d="M351.6 36.66H372.6V40.92H345.93V31.65H349.93L350.69 27.36H343.69V23.04H365.16V27.36H356.27L355.26 33.1H351.6V36.66ZM349.61 21.88C346.71 21.88 344.63 19.67 344.63 16.99C344.63 14.31 346.71 12.04 349.61 12.04H358.25C361.12 12.04 363.26 14.25 363.26 16.99C363.26 19.73 361.12 21.88 358.25 21.88H349.61ZM351.22 15.86C350.59 15.86 350.05 16.4 350.05 17.06C350.05 17.66 350.59 18.2 351.22 18.2H356.71C357.34 18.2 357.91 17.66 357.91 17.06C357.91 16.4 357.34 15.86 356.71 15.86H351.22ZM357.9 32.73V28.79H366.13V11.73H372.12V34.65H366.13V32.73H357.9Z" fill="black"/>
<path d="M375.56 33.16C378.93 30.95 382.09 27.52 382.09 18.6V12.39H388.02V18.6C388.02 27.52 391.17 30.96 394.55 33.16V39.87C390.58 38.14 387.02 34.89 385.06 30.63C383.11 34.89 379.51 38.13 375.57 39.87V33.16H375.56ZM396.65 40.91V11.73H402.64V22.57H406.14V27.96H402.64V40.92H396.65V40.91Z" fill="black"/>
<path d="M429.18 11.73H435.2V27.37H429.18V21.82H423.98C423.16 25.26 419.82 27.02 415.85 27.02C411.25 27.02 407.53 24.69 407.53 20.12V18.67C407.53 14.1 411.25 11.73 415.85 11.73C419.79 11.73 423.13 13.5 423.98 16.93H429.18V11.73ZM429.18 30.05V28.13H435.2V40.93H429.18V40.05L408.88 40.93V28.13H414.87V30.05H429.18ZM418.75 18.29C418.75 16.81 417.49 15.93 415.88 15.93C414.27 15.93 413.04 16.81 413.04 18.29V20.47C413.04 21.95 414.27 22.83 415.88 22.83C417.49 22.83 418.75 21.95 418.75 20.47V18.29ZM429.18 35.82V34.18H414.87V36.36L429.18 35.82Z" fill="black"/>
<path d="M438.41 40.26V35.12L459.53 33.83V38.97L438.41 40.26ZM439.54 22.67V19.58C439.54 14.41 443.51 11.76 448.37 11.76C453.23 11.76 457.26 14.41 457.26 19.58V22.67C457.26 27.84 453.26 30.33 448.37 30.33C443.48 30.33 439.54 27.84 439.54 22.67ZM451.58 22.92V19.26C451.58 17.56 450.16 16.45 448.36 16.45C446.56 16.45 445.24 17.55 445.24 19.26V22.92C445.24 24.62 446.63 25.66 448.36 25.66C450.09 25.66 451.58 24.62 451.58 22.92ZM460.53 40.92V11.73H466.61V40.92H460.53Z" fill="black"/>
<path d="M505.44 20.4599V23.9899H481.04V1.15992H505.44V4.07992H512.86V0.419922H521.72V25.7499H512.86V20.4599H505.44ZM513.14 26.7699C518.24 26.7699 522.23 30.2499 522.23 35.1699C522.23 40.0899 518.24 43.6099 513.14 43.6099H491.48C486.47 43.6099 482.48 39.9899 482.48 35.1699C482.48 30.3499 486.47 26.7699 491.48 26.7699H513.14ZM497.09 17.5799V7.55992H489.53V17.5799H497.09ZM510.77 37.1599C512.44 37.1599 513.41 36.4199 513.41 35.1599C513.41 33.8999 512.44 33.1599 510.77 33.1599H493.79C492.31 33.1599 491.28 33.9499 491.28 35.1599C491.28 36.3699 492.3 37.1599 493.79 37.1599H510.77ZM512.86 10.3899H505.44V14.1899H512.86V10.3899Z" fill="#FF9500"/>
<path d="M546.82 9.46016V0.420156H554.06V43.3702H546.82V32.5202H542.51V33.3502C542.51 38.7302 538.01 42.5802 532.63 42.5802C527.25 42.5802 522.75 38.7302 522.75 33.3502V10.2502C522.75 4.87016 527.25 1.06016 532.63 1.06016C537.73 1.06016 542.05 4.49016 542.46 9.46016H546.82ZM535.45 10.4802C535.45 9.09016 534.15 8.11016 532.76 8.11016C531.37 8.11016 530.02 9.08016 530.02 10.4802V33.1202C530.02 34.5102 531.36 35.5302 532.76 35.5302C534.16 35.5302 535.45 34.5102 535.45 33.1202V10.4802ZM546.82 25.3702V16.6002H542.51V25.3702H546.82ZM556.52 0.410156H563.94V43.3602H556.52V0.420156V0.410156Z" fill="#FF9500"/>
<path d="M563.43 42.5802V35.1102H580.18V28.1102H589.18V35.1102H605.97V42.5802H563.43ZM565.33 26.5302V10.5302H595.25V7.65016H565.33V1.16016H604.02V16.7502H574.15V19.8102H604.49V26.5402H565.34L565.33 26.5302Z" fill="#FF9500"/>
<path d="M622.39 34V26.35H605.18V19.9H647.72V26.35H630.88V34H622.39ZM614.41 17.44C610.1 17.44 606.62 13.68 606.62 8.85998C606.62 4.03998 610.1 0.22998 614.41 0.22998H638.48C642.75 0.22998 646.27 4.07998 646.27 8.85998C646.27 13.64 642.74 17.44 638.48 17.44H614.41ZM607.08 43.37V29.78H615.8V37.02H646.46V43.37H607.08ZM636.16 10.58C637.23 10.58 637.97 9.78998 637.97 8.71998C637.97 7.64998 637.23 6.85998 636.16 6.85998H616.68C615.61 6.85998 614.87 7.64998 614.87 8.71998C614.87 9.78998 615.61 10.58 616.68 10.58H636.16Z" fill="#FF9500"/>
<path d="M672.96 43.8402V31.9202H656.21V24.4102H698.75V31.9202H681.96V43.8402H672.96ZM667.67 20.7902C662.06 20.7902 657.56 16.3402 657.56 10.8602C657.56 5.38018 662.06 0.930176 667.67 0.930176H687.24C692.85 0.930176 697.35 5.38018 697.35 10.8602C697.35 16.3402 692.85 20.7902 687.24 20.7902H667.67ZM685.48 13.6902C687.34 13.6902 688.77 12.5302 688.77 10.9102C688.77 9.29018 687.33 8.13018 685.48 8.13018H669.48C667.58 8.13018 666.19 9.38018 666.19 10.9102C666.19 12.5302 667.58 13.6902 669.48 13.6902H685.48Z" fill="#FF9500"/>
<path d="M699.08 41.8899V17.2599H715.96V9.22992H699.08V1.89992H724.69V24.3999H707.9V33.5799L728.17 31.9599V39.4699L699.09 41.8799L699.08 41.8899ZM730.72 43.3699V0.419922H739.72V43.3699H730.72Z" fill="#FF9500"/>
<path d="M749 42.5802V35.0202H765.75V27.1402H774.7V35.0202H791.54V42.5802H749ZM750.9 25.5602V1.16016H789.59V25.5602H750.9ZM759.57 18.3702H780.95V8.35016H759.57V18.3702Z" fill="#FF9500"/>
<path d="M790.76 23.75V17.16H833.3V23.75H790.76ZM792.15 8.81C801.71 8.76 807.55 5.61 807.55 1.06V0H816.5V1.07C816.5 5.62 822.35 8.77 831.85 8.82V15.08C821.55 15.03 815.15 12.44 811.95 8.63C808.75 12.43 802.3 15.03 792.14 15.08V8.82L792.15 8.81ZM792.66 43.37V25.7H801.24V28.11H822.72V25.7H831.35V43.37H822.72V42.16L792.66 43.37ZM801.24 36.97L822.72 36.23V34.1H801.24V36.98V36.97Z" fill="#FF9500"/>
</svg>
